<?xml version="1.0" encoding="utf-8"?>
<!-- Generator: Adobe Illustrator 22.0.1, SVG Export Plug-In . SVG Version: 6.00 Build 0)  -->
<svg version="1.1" id="Layer_1" xmlns="http://www.w3.org/2000/svg" xmlns:xlink="http://www.w3.org/1999/xlink" x="0px" y="0px"
	 viewBox="0 0 19.9 20" style="enable-background:new 0 0 19.9 20;" xml:space="preserve">
<style type="text/css">
	.st0{display:none;}
	.st1{display:inline;fill:#3E823E;}
	.st2{fill:#DA1F2D;}
</style>
<g class="st0">
	<polygon class="st1" points="8.3,11.9 5.9,9.5 4.5,10.9 6.9,13.2 6.9,13.3 8.3,14.7 8.3,14.7 8.3,14.7 8.6,14.3 15.5,7.9 14.1,6.5 
			"/>
	<path class="st1" d="M10,0C4.5,0,0,4.5,0,10s4.5,10,10,10s10-4.5,10-10S15.5,0,10,0z M10,18c-4.4,0-8-3.6-8-8s3.6-8,8-8s8,3.6,8,8
		S14.4,18,10,18z"/>
</g>
<g>
	<path class="st2" d="M9.9,0C4.5,0,0,4.5,0,10s4.5,10,9.9,10s9.9-4.5,9.9-10S15.4,0,9.9,0z M9.9,18c-4.4,0-8-3.6-8-8s3.6-8,8-8
		s8,3.6,8,8S14.3,18,9.9,18z"/>
	<path class="st2" d="M13.2,15l1.7-1.7L11.6,10l3.3-3.3L13.2,5L9.9,8.3L6.7,5L5,6.7L8.2,10L5,13.3L6.7,15l3.3-3.3L13.2,15z"/>
</g>
</svg>
