<svg id="6bf1d669-0b3f-4418-9382-a9167543c6c5" data-name="Layer 1" xmlns="http://www.w3.org/2000/svg" viewBox="0 0 20 20"><defs><style>.\39 22022fa-8a99-4bb9-a488-96602f3633cc{fill:#45a5b5;}</style></defs><title>help-outline_AQUA</title><path class="922022fa-8a99-4bb9-a488-96602f3633cc" d="M16.33,5.5a10,10,0,1,0,10,10A10,10,0,0,0,16.33,5.5Zm0,18a8,8,0,1,1,8-8A8,8,0,0,1,16.33,23.5Z" transform="translate(-6.33 -5.5)"/><rect class="922022fa-8a99-4bb9-a488-96602f3633cc" x="9.05" y="13.03" width="1.95" height="1.98"/><path class="922022fa-8a99-4bb9-a488-96602f3633cc" d="M19.15,11.18a3.14,3.14,0,0,0-1.08-.68,4.31,4.31,0,0,0-1.67-.27,3.55,3.55,0,0,0-1.4.26,3.11,3.11,0,0,0-1.07.72,3.41,3.41,0,0,0-.69,1.1A3.85,3.85,0,0,0,13,13.7h2.07a2.81,2.81,0,0,1,.08-.71,1.69,1.69,0,0,1,.26-.58,1.3,1.3,0,0,1,.45-.39,1.32,1.32,0,0,1,.65-.15,1.19,1.19,0,0,1,.88.31,1.29,1.29,0,0,1,.32,1,1.16,1.16,0,0,1-.13.63,1.91,1.91,0,0,1-.39.46c-.16.14-.33.28-.52.42a3.57,3.57,0,0,0-.53.5,2.79,2.79,0,0,0-.68,1.58v.73h1.89l.06-.66a1.56,1.56,0,0,1,.28-.58,2.37,2.37,0,0,1,.5-.5l.6-.44a2.93,2.93,0,0,0,.58-.53,2.59,2.59,0,0,0,.44-.75A3,3,0,0,0,20,12.93a2.66,2.66,0,0,0-.18-.88A2.4,2.4,0,0,0,19.15,11.18Z" transform="translate(-6.33 -5.5)"/></svg>