<svg id="Layer_1" data-name="Layer 1" xmlns="http://www.w3.org/2000/svg" viewBox="0 0 139 87"><defs><style>.cls-1{fill:#5b9bd5;}.cls-2{fill:#d0deef;}.cls-3{fill:#e9eff7;}.cls-4{fill:#231f20;}.cls-5{fill:none;stroke:#fff;stroke-miterlimit:10;}.cls-6{fill:#fff;}</style></defs><title>fill_in_that_blank</title><rect class="cls-1" x="-0.5" width="139" height="16"/><rect class="cls-2" x="-0.5" y="17" width="139" height="16"/><rect class="cls-3" x="-0.5" y="35" width="139" height="16"/><rect class="cls-2" x="-0.5" y="53" width="139" height="16"/><rect class="cls-3" x="-0.5" y="71" width="139" height="16"/><path class="cls-4" d="M15.63,24.83c0,1.76-.66,2.74-1.81,2.74s-1.7-.95-1.72-2.67.76-2.71,1.81-2.71S15.63,23.17,15.63,24.83Zm-2.82.08c0,1.35.41,2.11,1,2.11s1.07-.84,1.07-2.16-.33-2.12-1.06-2.12S12.81,23.49,12.81,24.91Z"/><path class="cls-4" d="M10.12,45.48v-.43l.56-.54c1.32-1.26,1.92-1.93,1.93-2.72a.92.92,0,0,0-1-1,1.76,1.76,0,0,0-1.1.44l-.23-.5a2.3,2.3,0,0,1,1.47-.53,1.46,1.46,0,0,1,1.59,1.52c0,1-.69,1.73-1.79,2.79l-.41.38v0h2.33v.58Z"/><path class="cls-4" d="M14.4,44.67a2.31,2.31,0,0,0,1.15.33c.9,0,1.18-.58,1.17-1,0-.72-.66-1-1.34-1H15v-.52h.39c.51,0,1.16-.27,1.16-.88,0-.42-.27-.79-.91-.79a1.89,1.89,0,0,0-1,.35l-.19-.52a2.58,2.58,0,0,1,1.36-.4c1,0,1.49.61,1.49,1.24a1.29,1.29,0,0,1-1,1.23h0A1.36,1.36,0,0,1,17.45,44c0,.83-.65,1.56-1.89,1.56a2.76,2.76,0,0,1-1.36-.35Z"/><path class="cls-4" d="M10.29,62.67a2.35,2.35,0,0,0,1.15.33c.91,0,1.19-.58,1.18-1,0-.72-.66-1-1.34-1h-.4v-.52h.4c.51,0,1.16-.27,1.16-.88,0-.42-.27-.79-.92-.79a2,2,0,0,0-1,.35l-.18-.52a2.47,2.47,0,0,1,1.36-.39c1,0,1.49.6,1.49,1.23a1.29,1.29,0,0,1-1,1.23h0A1.36,1.36,0,0,1,13.35,62c0,.83-.65,1.56-1.9,1.56a2.74,2.74,0,0,1-1.35-.35Z"/><path class="cls-4" d="M14.16,62.16a1.49,1.49,0,0,1,1-1.39v0a1.3,1.3,0,0,1-.83-1.17A1.45,1.45,0,0,1,16,58.2a1.34,1.34,0,0,1,1.51,1.27,1.32,1.32,0,0,1-.85,1.22v0a1.46,1.46,0,0,1,1,1.35,1.6,1.6,0,0,1-1.76,1.51C14.82,63.57,14.16,62.92,14.16,62.16Zm2.8,0c0-.63-.44-.94-1.14-1.14a1.14,1.14,0,0,0-.94,1.07,1,1,0,0,0,1,1A1,1,0,0,0,17,62.13ZM15,59.53c0,.52.39.8,1,1a1,1,0,0,0,.79-.94.81.81,0,0,0-.88-.85A.82.82,0,0,0,15,59.53Z"/><path class="cls-4" d="M12.3,81.48V80.06H9.88V79.6l2.32-3.32H13v3.23h.73v.55H13v1.42Zm0-2V77.78c0-.27,0-.55,0-.82h0c-.16.31-.29.53-.43.77L10.6,79.5h1.7Z"/><path class="cls-4" d="M14.4,80.67a2.31,2.31,0,0,0,1.15.33c.9,0,1.18-.58,1.17-1,0-.72-.66-1-1.34-1H15v-.52h.39c.51,0,1.16-.27,1.16-.88,0-.42-.27-.79-.91-.79a1.89,1.89,0,0,0-1,.35l-.19-.52a2.5,2.5,0,0,1,1.36-.39c1,0,1.49.6,1.49,1.23a1.29,1.29,0,0,1-1,1.23h0A1.36,1.36,0,0,1,17.45,80c0,.83-.65,1.56-1.89,1.56a2.76,2.76,0,0,1-1.36-.35Z"/><path class="cls-4" d="M64.57,27.48v-.43l.55-.54c1.33-1.26,1.93-1.93,1.94-2.72a.93.93,0,0,0-1-1,1.79,1.79,0,0,0-1.11.44l-.22-.5a2.3,2.3,0,0,1,1.47-.53,1.46,1.46,0,0,1,1.59,1.52c0,1-.69,1.73-1.79,2.79l-.41.38v0h2.33v.58Z"/><path class="cls-4" d="M71.78,22.87h-2l-.2,1.34a2.34,2.34,0,0,1,.42,0,2.22,2.22,0,0,1,1.12.28,1.47,1.47,0,0,1,.74,1.33A1.8,1.8,0,0,1,70,27.57a2.56,2.56,0,0,1-1.3-.32l.18-.54a2.28,2.28,0,0,0,1.11.29,1.15,1.15,0,0,0,1.23-1.13c0-.67-.46-1.15-1.49-1.15a4.41,4.41,0,0,0-.72.06l.33-2.5h2.49Z"/><path class="cls-4" d="M76.23,24.83c0,1.76-.65,2.74-1.8,2.74s-1.71-.95-1.72-2.67.75-2.71,1.8-2.71S76.23,23.17,76.23,24.83Zm-2.82.08c0,1.35.42,2.11,1.06,2.11s1.06-.84,1.06-2.16-.33-2.12-1.06-2.12S73.41,23.49,73.41,24.91Z"/><path class="cls-4" d="M66.1,40.94h0l-.9.49L65,40.89l1.14-.61h.6v5.2H66.1Z"/><path class="cls-4" d="M72.05,40.28v.47l-2.26,4.73h-.73l2.25-4.6H68.77v-.59Z"/><path class="cls-4" d="M76.23,42.83c0,1.76-.65,2.74-1.8,2.74s-1.71-1-1.72-2.67.75-2.71,1.8-2.71S76.23,41.17,76.23,42.83Zm-2.82.08c0,1.35.42,2.11,1.06,2.11s1.06-.84,1.06-2.16-.33-2.12-1.06-2.12S73.41,41.49,73.41,42.91Z"/><path class="cls-4" d="M66.1,58.94h0l-.9.49L65,58.89l1.14-.61h.6v5.2H66.1Z"/><path class="cls-4" d="M71.78,58.88h-2l-.2,1.33a2.34,2.34,0,0,1,.42,0,2.22,2.22,0,0,1,1.12.28,1.47,1.47,0,0,1,.74,1.33A1.8,1.8,0,0,1,70,63.57a2.56,2.56,0,0,1-1.3-.32l.18-.54a2.28,2.28,0,0,0,1.11.29,1.15,1.15,0,0,0,1.23-1.13c0-.67-.46-1.15-1.49-1.15a4.41,4.41,0,0,0-.72.06l.33-2.5h2.49Z"/><path class="cls-4" d="M72.72,62.16a1.48,1.48,0,0,1,1-1.39v0a1.29,1.29,0,0,1-.82-1.17,1.44,1.44,0,0,1,1.6-1.38A1.34,1.34,0,0,1,76,59.47a1.32,1.32,0,0,1-.85,1.22v0a1.45,1.45,0,0,1,1,1.35,1.61,1.61,0,0,1-1.77,1.51C73.37,63.57,72.72,62.92,72.72,62.16Zm2.79,0c0-.63-.44-.94-1.14-1.14a1.13,1.13,0,0,0-.93,1.07,1,1,0,0,0,1,1A.94.94,0,0,0,75.51,62.13Zm-1.93-2.6c0,.52.39.8,1,1a1,1,0,0,0,.79-.94.81.81,0,0,0-.88-.85A.82.82,0,0,0,73.58,59.53Z"/><path class="cls-4" d="M70,76.28v.47l-2.26,4.73H67l2.25-4.6H66.72v-.59Z"/><path class="cls-4" d="M72.25,76.94h0l-.9.49-.14-.54,1.13-.61h.6v5.2h-.68Z"/><line class="cls-5" x1="29.5" x2="29.5" y2="87"/><path class="cls-6" d="M4.76,5.16a11.28,11.28,0,0,1,1.65-.11,3.41,3.41,0,0,1,2.21.58,2.38,2.38,0,0,1,.91,2,2.73,2.73,0,0,1-.9,2.18,3.85,3.85,0,0,1-2.48.7,10.77,10.77,0,0,1-1.39-.08ZM6,9.56a2.62,2.62,0,0,0,.42,0A1.67,1.67,0,0,0,8.24,7.7,1.55,1.55,0,0,0,6.54,6,3,3,0,0,0,6,6Z"/><path class="cls-6" d="M12.52,10.48l-.08-.39h0a1.43,1.43,0,0,1-1.12.48A1.2,1.2,0,0,1,10,9.37c0-1,.91-1.5,2.29-1.5v0c0-.21-.11-.51-.71-.51a2.21,2.21,0,0,0-1.08.3l-.22-.78a3.12,3.12,0,0,1,1.52-.35,1.52,1.52,0,0,1,1.72,1.69V9.53a6.23,6.23,0,0,0,0,1Zm-.15-1.85c-.64,0-1.13.15-1.13.62a.43.43,0,0,0,.48.46.66.66,0,0,0,.63-.45,1.23,1.23,0,0,0,0-.2Z"/><path class="cls-6" d="M15.43,6.57,16,8.49c.07.23.15.52.19.73h0l.17-.73.48-1.92h1.31l-.91,2.57a5.94,5.94,0,0,1-1.38,2.57,2.22,2.22,0,0,1-1.18.54l-.25-1A1.81,1.81,0,0,0,15,11a1.46,1.46,0,0,0,.5-.49.32.32,0,0,0,.06-.18.4.4,0,0,0-.05-.2L14.08,6.57Z"/><path class="cls-6" d="M36.52,10.48V5.09h1.42l1.12,2a15.52,15.52,0,0,1,.88,1.84h0a20,20,0,0,1-.1-2.24V5.09H41v5.39H39.7L38.55,8.4a21,21,0,0,1-.94-1.9h0c0,.71,0,1.47,0,2.35v1.62Z"/><path class="cls-6" d="M45.68,9.22c0,.52,0,.93,0,1.26H44.66l0-.55h0a1.39,1.39,0,0,1-1.22.64c-.79,0-1.38-.5-1.38-1.71V6.57h1.23v2.1c0,.57.18.91.6.91a.65.65,0,0,0,.61-.42.71.71,0,0,0,0-.26V6.57h1.22Z"/><path class="cls-6" d="M46.66,7.82c0-.49,0-.91,0-1.25h1l.06.53h0a1.37,1.37,0,0,1,1.19-.62A1.11,1.11,0,0,1,50,7.15h0a1.92,1.92,0,0,1,.51-.48,1.45,1.45,0,0,1,.74-.19c.75,0,1.32.53,1.32,1.7v2.3H51.39V8.35c0-.56-.19-.89-.58-.89a.59.59,0,0,0-.56.42,1.1,1.1,0,0,0,0,.31v2.29H49V8.29c0-.5-.17-.83-.56-.83a.63.63,0,0,0-.57.44.78.78,0,0,0,0,.3v2.28H46.66Z"/><path class="cls-6" d="M53.51,10.48c0-.26,0-.73,0-1.17V4.8h1.22V7h0A1.41,1.41,0,0,1,56,6.48c.93,0,1.62.78,1.61,2a1.88,1.88,0,0,1-1.79,2.11,1.3,1.3,0,0,1-1.17-.63h0l-.05.54Zm1.25-1.66a1.25,1.25,0,0,0,0,.21.74.74,0,0,0,.71.58c.52,0,.84-.4.84-1.11s-.27-1.08-.84-1.08a.76.76,0,0,0-.71.6,1.5,1.5,0,0,0,0,.22Z"/><path class="cls-6" d="M59.26,8.91c0,.51.54.75,1.11.75a3.6,3.6,0,0,0,1.08-.16l.15.82a3.78,3.78,0,0,1-1.41.24,1.88,1.88,0,0,1-2.09-2,2,2,0,0,1,2-2.09,1.74,1.74,0,0,1,1.74,1.95,2.51,2.51,0,0,1,0,.48Zm1.43-.83A.7.7,0,0,0,60,7.29a.8.8,0,0,0-.76.79Z"/><path class="cls-6" d="M62.55,7.86c0-.58,0-1,0-1.29h1l0,.72h0a1.15,1.15,0,0,1,1-.81,1.06,1.06,0,0,1,.26,0V7.64a2.5,2.5,0,0,0-.33,0,.78.78,0,0,0-.83.62,1.14,1.14,0,0,0,0,.27v2H62.55Z"/><path class="cls-6" d="M71.07,8.48A2,2,0,0,1,69,10.57a1.92,1.92,0,0,1-2-2,2,2,0,0,1,2.09-2.07A1.91,1.91,0,0,1,71.07,8.48Zm-2.83,0c0,.67.28,1.18.8,1.18s.77-.48.77-1.18S69.59,7.35,69,7.35,68.24,8,68.24,8.52Z"/><path class="cls-6" d="M72,10.48v-3h-.51v-.9H72V6.42a1.79,1.79,0,0,1,.49-1.31,1.59,1.59,0,0,1,1.08-.39,2.73,2.73,0,0,1,.65.07l-.05.94a1.33,1.33,0,0,0-.39-.06c-.4,0-.57.32-.57.7v.2H74v.9h-.78v3Z"/><path class="cls-6" d="M76.21,5.16a10.13,10.13,0,0,1,1.57-.11,3,3,0,0,1,1.59.3A1.17,1.17,0,0,1,80,6.41a1.21,1.21,0,0,1-.89,1.15v0A1.34,1.34,0,0,1,80.2,8.9a1.43,1.43,0,0,1-.56,1.15,3.38,3.38,0,0,1-2.11.49,9.41,9.41,0,0,1-1.32-.08Zm1.2,2.07h.4c.64,0,1-.27,1-.67s-.31-.62-.87-.62a3,3,0,0,0-.52,0Zm0,2.39h.48c.55,0,1-.21,1-.77s-.48-.76-1.09-.76h-.42Z"/><path class="cls-6" d="M84.68,9.22c0,.52,0,.93,0,1.26H83.66l0-.55h0a1.39,1.39,0,0,1-1.22.64c-.79,0-1.38-.5-1.38-1.71V6.57h1.23v2.1c0,.57.18.91.6.91a.65.65,0,0,0,.61-.42.71.71,0,0,0,0-.26V6.57h1.22Z"/><path class="cls-6" d="M87,5.45V6.57h.87v.9H87V8.88c0,.47.11.69.48.69a2.87,2.87,0,0,0,.36,0v.92a2.52,2.52,0,0,1-.79.1,1.26,1.26,0,0,1-.91-.34,1.58,1.58,0,0,1-.34-1.16V7.47h-.52v-.9h.52V5.72Z"/><path class="cls-6" d="M90,5.45V6.57h.87v.9H90V8.88c0,.47.11.69.48.69a2.87,2.87,0,0,0,.36,0v.92a2.48,2.48,0,0,1-.79.1,1.26,1.26,0,0,1-.91-.34,1.62,1.62,0,0,1-.33-1.16V7.47h-.52v-.9h.52V5.72Z"/><path class="cls-6" d="M92.47,8.91c0,.51.53.75,1.1.75a3.56,3.56,0,0,0,1.08-.16l.16.82a3.86,3.86,0,0,1-1.41.24,1.88,1.88,0,0,1-2.09-2,2,2,0,0,1,2-2.09A1.74,1.74,0,0,1,95,8.43a3.75,3.75,0,0,1,0,.48Zm1.43-.83a.71.71,0,0,0-.69-.79.79.79,0,0,0-.75.79Z"/><path class="cls-6" d="M95.76,7.86c0-.58,0-1,0-1.29h1l0,.72h0a1.15,1.15,0,0,1,1.06-.81,1.06,1.06,0,0,1,.26,0V7.64a2.68,2.68,0,0,0-.33,0,.78.78,0,0,0-.83.62,1.12,1.12,0,0,0,0,.27v2H95.76Z"/><path class="cls-6" d="M98.93,10.48v-3h-.51v-.9h.51V6.39a1.7,1.7,0,0,1,.6-1.24A2.32,2.32,0,0,1,101,4.72a3.23,3.23,0,0,1,1.5.32v5.44h-1.21V5.7a1,1,0,0,0-.47-.08c-.48,0-.69.35-.69.79v.16h.7v.9h-.69v3Z"/><path class="cls-6" d="M104.76,5.48a.61.61,0,0,1-.66.61.61.61,0,1,1,0-1.22A.61.61,0,0,1,104.76,5.48Zm-1.26,5V6.57h1.22v3.91Z"/><path class="cls-6" d="M106.63,8.91c0,.51.53.75,1.1.75a3.56,3.56,0,0,0,1.08-.16l.16.82a3.86,3.86,0,0,1-1.41.24,1.88,1.88,0,0,1-2.09-2,2,2,0,0,1,2-2.09,1.74,1.74,0,0,1,1.75,1.95,3.75,3.75,0,0,1,0,.48Zm1.43-.83a.71.71,0,0,0-.69-.79.79.79,0,0,0-.75.79Z"/><path class="cls-6" d="M109.91,9.42a2.45,2.45,0,0,0,1,.29c.36,0,.52-.13.52-.33s-.12-.29-.58-.44c-.81-.27-1.12-.71-1.11-1.18,0-.73.62-1.28,1.59-1.28a2.62,2.62,0,0,1,1.1.23l-.21.84a1.87,1.87,0,0,0-.85-.23c-.3,0-.46.12-.46.32s.15.28.63.45c.74.26,1,.63,1.06,1.21s-.57,1.26-1.69,1.26a2.79,2.79,0,0,1-1.27-.27Z"/><path class="cls-6" d="M117.23,10.48l-.07-.39h0a1.4,1.4,0,0,1-1.12.48,1.2,1.2,0,0,1-1.26-1.2c0-1,.91-1.5,2.29-1.5v0c0-.21-.11-.51-.71-.51a2.21,2.21,0,0,0-1.08.3L115,6.83a3.12,3.12,0,0,1,1.52-.35,1.52,1.52,0,0,1,1.72,1.69V9.53a6.23,6.23,0,0,0,0,1Zm-.15-1.85c-.64,0-1.13.15-1.13.62a.44.44,0,0,0,.48.46.66.66,0,0,0,.63-.45.65.65,0,0,0,0-.2Z"/><path class="cls-6" d="M119.23,4.8h1.21v5.68h-1.21Z"/><path class="cls-6" d="M122.68,5.48a.6.6,0,0,1-.65.61.61.61,0,1,1,0-1.22A.6.6,0,0,1,122.68,5.48Zm-1.25,5V6.57h1.21v3.91Z"/><path class="cls-6" d="M124.52,6.57l.53,1.82a8.2,8.2,0,0,1,.23.95h0c.06-.32.13-.62.22-.95l.5-1.82h1.28l-1.46,3.91h-1.21l-1.42-3.91Z"/><path class="cls-6" d="M128.8,8.91c0,.51.53.75,1.1.75A3.56,3.56,0,0,0,131,9.5l.16.82a3.88,3.88,0,0,1-1.42.24,1.88,1.88,0,0,1-2.08-2,2,2,0,0,1,2-2.09,1.73,1.73,0,0,1,1.74,1.95,2.51,2.51,0,0,1,0,.48Zm1.43-.83a.71.71,0,0,0-.69-.79.79.79,0,0,0-.75.79Z"/></svg>