<?xml version="1.0" encoding="utf-8"?>
<!-- Generator: Adobe Illustrator 22.0.1, SVG Export Plug-In . SVG Version: 6.00 Build 0)  -->
<svg version="1.1" id="Layer_1" xmlns="http://www.w3.org/2000/svg" xmlns:xlink="http://www.w3.org/1999/xlink" x="0px" y="0px"
	 viewBox="0 0 280 218.4" style="enable-background:new 0 0 280 218.4;" xml:space="preserve">
<style type="text/css">
	.st0{fill:#EDEDEE;}
	.st1{fill:#D9D2D0;}
	.st2{fill:none;stroke:#FFFFFF;stroke-width:0.5;}
	.st3{fill:#7C51A1;}
	.st4{fill:#7EB162;}
	.st5{fill:none;stroke:#A29490;}
	.st6{opacity:0.5;fill:#FFFFFF;}
	.st7{font-family:'MyriadPro-Semibold';}
	.st8{font-size:8.6126px;}
	.st9{font-family:'MyriadPro-Regular';}
	.st10{fill:#6894CE;}
	.st11{font-size:7.0938px;}
	.st12{font-family:'MathematicalPi-One';}
	.st13{font-family:'MyriadPro-It';}
</style>
<g>
	<g>
		<rect class="st0" width="279.9" height="247.8"/>
		<rect x="43.1" y="12.2" class="st1" width="226.7" height="180.9"/>
		<g>
			<line class="st2" x1="43.4" y1="125.5" x2="269.8" y2="125.5"/>
			<line class="st2" x1="43.4" y1="159.9" x2="269.8" y2="159.9"/>
			<line class="st2" x1="43.4" y1="56.8" x2="269.8" y2="56.8"/>
			<line class="st2" x1="43.4" y1="91.2" x2="269.8" y2="91.2"/>
			<line class="st2" x1="43.4" y1="22.4" x2="269.8" y2="22.4"/>
			<line class="st2" x1="43.1" y1="83.3" x2="43.1" y2="193.1"/>
		</g>
		<g>
			<g>
				<rect x="47.7" y="131.7" class="st3" width="14.9" height="61.4"/>
			</g>
			<g>
				<rect x="62.8" y="159.9" class="st4" width="14.9" height="33.2"/>
			</g>
		</g>
		<g>
			<g>
				<rect x="94.9" y="131.7" class="st3" width="14.9" height="61.4"/>
			</g>
			<g>
				<rect x="109.7" y="22.4" class="st4" width="14.9" height="170.7"/>
			</g>
		</g>
		<g>
			<g>
				<rect x="141.8" y="131.7" class="st3" width="14.9" height="61.4"/>
			</g>
			<g>
				<rect x="156.7" y="28.3" class="st4" width="14.9" height="164.8"/>
			</g>
		</g>
		<g>
			<g>
				<rect x="188.7" y="131.7" class="st3" width="14.9" height="61.4"/>
			</g>
			<g>
				<rect x="203.3" y="135.3" class="st4" width="14.9" height="57.8"/>
			</g>
		</g>
		<g>
			<g>
				<rect x="235.3" y="131.7" class="st3" width="14.9" height="61.4"/>
			</g>
			<g>
				<rect x="250" y="141.7" class="st4" width="14.9" height="51.4"/>
			</g>
		</g>
		<polyline class="st5" points="269.8,193.2 43.1,193.2 43.1,12.2 		"/>
		<rect x="179" y="15.1" class="st6" width="85.4" height="29.1"/>
		<rect x="184.4" y="20.5" class="st3" width="5.4" height="5.4"/>
		<rect x="184.4" y="32.9" class="st4" width="5.4" height="5.4"/>
		<text transform="matrix(1 0 0 1 120.2852 244.1455)" class="st7 st8">Added components</text>
		<text transform="matrix(0 -1 1 0 16.963 160.3501)" class="st7 st8">Relative level of albumin mRNA</text>
		<text transform="matrix(1 0 0 1 25.1651 60.2515)" class="st9 st8">0.80</text>
		<text transform="matrix(1 0 0 1 25.1651 24.3662)" class="st9 st8">1.00</text>
		<text transform="matrix(1 0 0 1 25.1641 94.5366)" class="st9 st8">0.60</text>
		<text transform="matrix(1 0 0 1 25.1651 128.8203)" class="st9 st8">0.40</text>
		<text transform="matrix(1 0 0 1 25.1651 163.1035)" class="st9 st8">0.20</text>
		<g>
			<text transform="matrix(1 0 0 1 240.1495 202.1582)"><tspan x="0" y="0" class="st9 st8">HSPG</tspan><tspan x="0" y="9.7" class="st9 st8">alone</tspan></text>
		</g>
		<g>
			<text transform="matrix(1 0 0 1 189.7061 202.1582)"><tspan x="0" y="0" class="st9 st8">Type IV</tspan><tspan x="-2.2" y="9.7" class="st9 st8">collagen</tspan><tspan x="3.1" y="19.4" class="st9 st8">alone</tspan></text>
		</g>
		<g>
			<text transform="matrix(1 0 0 1 142.4405 202.1582)"><tspan x="0" y="0" class="st9 st8">Laminin</tspan><tspan x="4.5" y="9.7" class="st9 st8">alone</tspan></text>
		</g>
		<g>
			<text transform="matrix(1 0 0 1 94.9415 202.1582)"><tspan x="0" y="0" class="st9 st8">Laminin,</tspan><tspan x="3" y="9.7" class="st9 st8">type IV</tspan><tspan x="-0.9" y="19.4" class="st9 st8">collagen,</tspan><tspan x="-2.4" y="29.1" class="st9 st8">and HSPG</tspan></text>
		</g>
		<g>
			<text transform="matrix(1 0 0 1 43.9522 202.1582)"><tspan x="0" y="0" class="st9 st8">No matrix</tspan><tspan x="2.7" y="9.7" class="st9 st8">proteins</tspan></text>
		</g>
		<g>
			<text transform="matrix(1 0 0 1 195.9171 26.0059)" class="st9 st8">72 h after plating</text>
		</g>
		<g>
			<text transform="matrix(1 0 0 1 195.9171 38.3862)" class="st9 st8">120 h after plating</text>
		</g>
	</g>
</g>
<g>
	<g>
		<rect x="0.2" class="st0" width="279.8" height="218.8"/>
		<polygon class="st1" points="269.5,136.9 54.8,136.9 54.9,7.4 269.5,7.4 		"/>
		<line class="st2" x1="55.1" y1="118.6" x2="269.5" y2="118.6"/>
		<line class="st2" x1="55.1" y1="63.6" x2="269.5" y2="63.6"/>
		<line class="st2" x1="55" y1="100.2" x2="269.5" y2="100.2"/>
		<line class="st2" x1="54.9" y1="81.9" x2="269.5" y2="81.9"/>
		<line class="st2" x1="55.2" y1="45.2" x2="269.5" y2="45.2"/>
		<line class="st2" x1="54.9" y1="26.9" x2="269.5" y2="26.9"/>
		<line class="st2" x1="78.8" y1="7.1" x2="78.8" y2="137.6"/>
		<line class="st2" x1="63.7" y1="7.1" x2="63.7" y2="137.6"/>
		<line class="st2" x1="169" y1="7.1" x2="169" y2="137.6"/>
		<line class="st2" x1="108.9" y1="7.1" x2="108.9" y2="137.6"/>
		<line class="st2" x1="93.8" y1="7.1" x2="93.8" y2="137.6"/>
		<line class="st2" x1="138.9" y1="7.1" x2="138.9" y2="137.6"/>
		<line class="st2" x1="199.1" y1="7.1" x2="199.1" y2="137.6"/>
		<line class="st2" x1="229.2" y1="7.1" x2="229.2" y2="137.6"/>
		<line class="st2" x1="244.2" y1="7.1" x2="244.2" y2="137.6"/>
		<line class="st2" x1="214.1" y1="7.1" x2="214.1" y2="137.6"/>
		<line class="st2" x1="184.1" y1="7.1" x2="184.1" y2="137.6"/>
		<line class="st2" x1="154" y1="7.1" x2="154" y2="137.6"/>
		<line class="st2" x1="123.9" y1="7.1" x2="123.9" y2="137.6"/>
		<line class="st2" x1="259.3" y1="7.1" x2="259.3" y2="137.6"/>
		<polyline class="st5" points="269.5,137 55,137 55,7.4 		"/>
		<g>
			<g>
				<rect x="60" y="18.4" class="st10" width="7.1" height="118.3"/>
			</g>
		</g>
		<g>
			<g>
				<rect x="75.1" y="99.6" class="st10" width="7.1" height="37.1"/>
			</g>
		</g>
		<g>
			<g>
				<rect x="90.1" y="104.4" class="st10" width="7.1" height="32.3"/>
			</g>
		</g>
		<g>
			<g>
				<rect x="105.1" y="111.5" class="st10" width="7.1" height="25.2"/>
			</g>
		</g>
		<g>
			<g>
				<rect x="120.2" y="119.7" class="st10" width="7.1" height="17"/>
			</g>
		</g>
		<g>
			<g>
				<rect x="135.2" y="120.8" class="st10" width="7.1" height="15.9"/>
			</g>
		</g>
		<g>
			<g>
				<rect x="150.3" y="121" class="st10" width="7.1" height="15.6"/>
			</g>
		</g>
		<g>
			<g>
				<rect x="165.3" y="124.2" class="st10" width="7.1" height="12.5"/>
			</g>
		</g>
		<g>
			<g>
				<rect x="180.3" y="124.2" class="st10" width="7.1" height="12.5"/>
			</g>
		</g>
		<g>
			<g>
				<rect x="195.4" y="127.4" class="st10" width="7.1" height="9.3"/>
			</g>
		</g>
		<g>
			<g>
				<rect x="210.4" y="127.4" class="st10" width="7.1" height="9.3"/>
			</g>
		</g>
		<g>
			<g>
				<rect x="225.4" y="128.1" class="st10" width="7.1" height="8.6"/>
			</g>
		</g>
		<g>
			<g>
				<rect x="240.5" y="129.9" class="st10" width="7.1" height="6.8"/>
			</g>
		</g>
		<g>
			<g>
				<rect x="255.5" y="130.1" class="st10" width="7.1" height="6.5"/>
			</g>
		</g>
		<text transform="matrix(0 -1 1 0 38.9692 110.0547)" class="st7 st11">% of 16S rRNA sequences</text>
		<text transform="matrix(0.7071 -0.7071 0.7071 0.7071 15.4928 191.6638)"><tspan x="0" y="0" class="st9 st11">SA</tspan><tspan x="7.8" y="0" class="st9 st11">R</tspan><tspan x="11.8" y="0" class="st9 st11">1</tspan><tspan x="15" y="0" class="st9 st11">1 subgroups la + lb</tspan></text>
		<text transform="matrix(0.7071 -0.7071 0.7071 0.7071 28.3606 194.8772)"><tspan x="0" y="0" class="st9 st11">SAR86 (</tspan><tspan x="22.5" y="0" class="st12 st11">g</tspan><tspan x="26.4" y="0" class="st9 st11">-Proteobacteria)</tspan></text>
		<text transform="matrix(0.7071 -0.7071 0.7071 0.7071 57.8842 181.0923)"><tspan x="0" y="0" class="st9 st11">SA</tspan><tspan x="7.8" y="0" class="st9 st11">R</tspan><tspan x="11.8" y="0" class="st9 st11">1</tspan><tspan x="15" y="0" class="st9 st11">1 subgroup II</tspan></text>
		<text transform="matrix(0.7071 -0.7071 0.7071 0.7071 55.8291 197.7591)" class="st9 st11">Marine picophytoplankton</text>
		<text transform="matrix(0.7071 -0.7071 0.7071 0.7071 140.8512 187.6991)" class="st9 st11">Marine Actinobacteria</text>
		<text transform="matrix(0.7071 -0.7071 0.7071 0.7071 132.4221 211.1279)" class="st13 st11">Alteromonas/Pseudoalteromonas</text>
		<text transform="matrix(0.7071 -0.7071 0.7071 0.7071 53.6922 215.2425)"><tspan x="0" y="0" class="st9 st11">Uncultured </tspan><tspan x="34.9" y="0" class="st12 st11">a</tspan><tspan x="38.3" y="0" class="st9 st11">-Proteobacteria clade</tspan></text>
		<text transform="matrix(0.7071 -0.7071 0.7071 0.7071 98.5837 186.9598)"><tspan x="0" y="0" class="st9 st11"> SAR406 (</tspan><tspan x="27.6" y="0" class="st13 st11">Fibrobacter</tspan><tspan x="61.8" y="0" class="st9 st11">)</tspan></text>
		<text transform="matrix(0.7071 -0.7071 0.7071 0.7071 161.973 197.871)"><tspan x="0" y="0" class="st9 st11">SAR116 (</tspan><tspan x="26.1" y="0" class="st12 st11">a</tspan><tspan x="29.5" y="0" class="st9 st11">-Proteobacteria)</tspan></text>
		<text transform="matrix(0.7071 -0.7071 0.7071 0.7071 203.8641 170.629)" class="st13 st11">Rheinheimera</text>
		<text transform="matrix(0.7071 -0.7071 0.7071 0.7071 208.2362 180.6269)"><tspan x="0" y="0" class="st13 st11"> Roseobacter </tspan><tspan x="39.8" y="0" class="st9 st11">clade</tspan></text>
		<text transform="matrix(0.7071 -0.7071 0.7071 0.7071 190.2919 214.535)" class="st9 st11">SAR202 (Green nonsulfur bacteria)</text>
		<text transform="matrix(0.7071 -0.7071 0.7071 0.7071 127.9198 170.5244)" class="st9 st11">Bacteroidetes</text>
		<text transform="matrix(1 0 0 1 45.8032 102.1543)" class="st9 st11">10</text>
		<text transform="matrix(1 0 0 1 49.4409 120.502)" class="st9 st11">5</text>
		<text transform="matrix(1 0 0 1 49.4414 138.8506)" class="st9 st11">0</text>
		<text transform="matrix(1 0 0 1 45.8032 28.7637)" class="st9 st11">30</text>
		<text transform="matrix(1 0 0 1 45.8032 10.416)" class="st9 st11">35</text>
		<text transform="matrix(1 0 0 1 45.8022 47.1113)" class="st9 st11">25</text>
		<text transform="matrix(1 0 0 1 45.8027 65.459)" class="st9 st11">20</text>
		<text transform="matrix(1 0 0 1 45.8022 83.8071)" class="st9 st11">15</text>
		<g>
			<text transform="matrix(0.7071 -0.7071 0.7071 0.7071 117.0521 198.1348)"><tspan x="0" y="0" class="st9 st11">SAR324 (</tspan><tspan x="26.1" y="0" class="st12 st11">d</tspan><tspan x="30.1" y="0" class="st9 st11">-Proteobacteria)</tspan></text>
		</g>
	</g>
</g>
</svg>
