<svg id="Layer_1" data-name="Layer 1" xmlns="http://www.w3.org/2000/svg" viewBox="0 0 316.25 343.05"><defs><style>.cls-1{fill:#383838;}.cls-2{fill:none;stroke:#000;stroke-width:2px;}</style></defs><title>Graphs_2</title><path class="cls-1" d="M90.49,349.55a3.86,3.86,0,0,0,2.72,1.23c1.29,0,2.05-.65,2.05-1.61s-.72-1.32-1.65-1.74l-1.41-.61a2.79,2.79,0,0,1-2-2.54c0-1.5,1.32-2.61,3.1-2.61a4,4,0,0,1,2.9,1.22l-.66.81a3.18,3.18,0,0,0-2.24-.93c-1.11,0-1.84.55-1.84,1.44s.87,1.3,1.63,1.63l1.41.6a2.75,2.75,0,0,1,2,2.63c0,1.56-1.29,2.8-3.36,2.8a4.77,4.77,0,0,1-3.44-1.45Z" transform="translate(-28.75 -12)"/><path class="cls-1" d="M101,344.22c1.86,0,2.91,1.34,2.91,3.42a4.31,4.31,0,0,1,0,.68H99a2.43,2.43,0,0,0,2.43,2.56,3.27,3.27,0,0,0,1.82-.57l.43.81a4.3,4.3,0,0,1-2.4.75,3.48,3.48,0,0,1-3.49-3.81C97.77,345.68,99.37,344.22,101,344.22Zm1.83,3.29c0-1.49-.66-2.31-1.8-2.31a2.27,2.27,0,0,0-2.1,2.31Z" transform="translate(-28.75 -12)"/><path class="cls-1" d="M108.39,344.22a3,3,0,0,1,2.08.87h0l.12-.69h1v10.37h-1.24v-2.6l.06-1.29a3.35,3.35,0,0,1-2.19,1c-1.83,0-3-1.38-3-3.81S106.72,344.22,108.39,344.22Zm.12,6.62a2.47,2.47,0,0,0,1.86-1V346a2.56,2.56,0,0,0-1.77-.76c-1.17,0-2.1,1.12-2.1,2.79S107.23,350.84,108.51,350.84Z" transform="translate(-28.75 -12)"/><path class="cls-1" d="M113.89,344.4h1.25v4.46c0,1.36.4,1.95,1.36,1.95.75,0,1.28-.38,2-1.23V344.4h1.23v7.29h-1l-.11-1.14h0a3.08,3.08,0,0,1-2.4,1.32c-1.55,0-2.24-1-2.24-2.85Z" transform="translate(-28.75 -12)"/><path class="cls-1" d="M124.89,344.22c1.86,0,2.91,1.34,2.91,3.42a4.31,4.31,0,0,1,0,.68h-4.92a2.43,2.43,0,0,0,2.43,2.56,3.27,3.27,0,0,0,1.82-.57l.43.81a4.3,4.3,0,0,1-2.4.75,3.48,3.48,0,0,1-3.49-3.81C121.62,345.68,123.22,344.22,124.89,344.22Zm1.83,3.29c0-1.49-.66-2.31-1.8-2.31a2.27,2.27,0,0,0-2.1,2.31Z" transform="translate(-28.75 -12)"/><path class="cls-1" d="M129.6,344.4h1l.1,1.05h.05a3.43,3.43,0,0,1,2.44-1.23c1.53,0,2.22,1,2.22,2.85v4.62H134.2v-4.45c0-1.37-.42-1.95-1.38-1.95-.75,0-1.26.39-2,1.12v5.28H129.6Z" transform="translate(-28.75 -12)"/><path class="cls-1" d="M140.77,344.22a3,3,0,0,1,2.13.87l-.61.8a2.21,2.21,0,0,0-1.47-.65c-1.32,0-2.28,1.14-2.28,2.82s.91,2.79,2.25,2.79a2.61,2.61,0,0,0,1.71-.73l.55.81a3.63,3.63,0,0,1-2.37.94c-1.93,0-3.42-1.39-3.42-3.81A3.54,3.54,0,0,1,140.77,344.22Z" transform="translate(-28.75 -12)"/><path class="cls-1" d="M147.06,344.22c1.86,0,2.91,1.34,2.91,3.42a4.31,4.31,0,0,1-.05.68H145a2.43,2.43,0,0,0,2.43,2.56,3.27,3.27,0,0,0,1.82-.57l.43.81a4.3,4.3,0,0,1-2.4.75,3.48,3.48,0,0,1-3.49-3.81C143.79,345.68,145.39,344.22,147.06,344.22Zm1.83,3.29c0-1.49-.66-2.31-1.8-2.31a2.27,2.27,0,0,0-2.1,2.31Z" transform="translate(-28.75 -12)"/><path class="cls-1" d="M157.63,344.22c1.79,0,3.38,1.4,3.38,3.84s-1.59,3.81-3.38,3.81-3.37-1.39-3.37-3.81S155.85,344.22,157.63,344.22Zm0,6.63c1.26,0,2.1-1.12,2.1-2.79s-.84-2.82-2.1-2.82-2.1,1.14-2.1,2.82S156.39,350.85,157.63,350.85Z" transform="translate(-28.75 -12)"/><path class="cls-1" d="M166.21,342a2,2,0,0,0-.82-.18c-.69,0-1,.48-1,1.41v1.15h1.54v1h-1.54v6.28h-1.23v-6.28h-1v-.93l1-.08v-1.15c0-1.49.67-2.42,2.13-2.42a3.38,3.38,0,0,1,1.21.24Z" transform="translate(-28.75 -12)"/><path class="cls-1" d="M170.34,341h1.23v9.3c0,.39.16.54.34.54a1,1,0,0,0,.27,0l.17.93a1.62,1.62,0,0,1-.71.12c-.93,0-1.3-.58-1.3-1.65Z" transform="translate(-28.75 -12)"/><path class="cls-1" d="M173.94,342.11a.8.8,0,0,1,.85-.8.8.8,0,1,1-.85.8Zm.22,2.29h1.23v7.29h-1.23Z" transform="translate(-28.75 -12)"/><path class="cls-1" d="M178.36,351.44v-.06a1.36,1.36,0,0,1-.65-1.19,1.74,1.74,0,0,1,.8-1.35v-.06a2.57,2.57,0,0,1-.95-2,2.61,2.61,0,0,1,2.75-2.6,3,3,0,0,1,1,.18h2.54v1h-1.5a2.08,2.08,0,0,1,.6,1.5,2.5,2.5,0,0,1-2.67,2.53,2.64,2.64,0,0,1-1.1-.25,1.1,1.1,0,0,0-.46.87c0,.46.3.79,1.29.79h1.41c1.7,0,2.55.53,2.55,1.74s-1.43,2.52-3.69,2.52c-1.79,0-3-.7-3-2A2.1,2.1,0,0,1,178.36,351.44Zm2.13,2.76c1.39,0,2.31-.72,2.31-1.49s-.53-.9-1.47-.9h-1.26a3.51,3.51,0,0,1-.94-.12,1.53,1.53,0,0,0-.75,1.23C178.38,353.7,179.17,354.2,180.49,354.2Zm1.36-7.38a1.55,1.55,0,1,0-3.08,0,1.55,1.55,0,1,0,3.08,0Z" transform="translate(-28.75 -12)"/><path class="cls-1" d="M185.41,341h1.23v2.91l0,1.5a3.48,3.48,0,0,1,2.43-1.2c1.52,0,2.22,1,2.22,2.85v4.62H190v-4.45c0-1.37-.43-1.95-1.39-1.95-.74,0-1.25.39-2,1.12v5.28h-1.23Z" transform="translate(-28.75 -12)"/><path class="cls-1" d="M193.78,345.41H192.7v-.93l1.14-.08.15-2h1v2h2v1h-2v4c0,.9.28,1.41,1.12,1.41a2.66,2.66,0,0,0,.82-.2l.24.93a4.32,4.32,0,0,1-1.34.27c-1.57,0-2.09-1-2.09-2.43Z" transform="translate(-28.75 -12)"/><path class="cls-1" d="M204.4,344.22c1.86,0,2.91,1.34,2.91,3.42a4.31,4.31,0,0,1-.05.68h-4.92a2.43,2.43,0,0,0,2.43,2.56,3.27,3.27,0,0,0,1.82-.57l.43.81a4.29,4.29,0,0,1-2.39.75,3.48,3.48,0,0,1-3.5-3.81C201.13,345.68,202.73,344.22,204.4,344.22Zm1.83,3.29c0-1.49-.66-2.31-1.8-2.31a2.27,2.27,0,0,0-2.1,2.31Z" transform="translate(-28.75 -12)"/><path class="cls-1" d="M210.37,347.88l-2.21-3.48h1.34l1,1.61c.23.39.47.81.72,1.21h.06c.21-.4.44-.82.66-1.21l.89-1.61h1.29L211.88,348l2.37,3.67h-1.33L211.85,350c-.25-.44-.52-.89-.79-1.31H211c-.26.42-.5.86-.74,1.31l-1,1.69H208Z" transform="translate(-28.75 -12)"/><path class="cls-1" d="M216.92,352.31v2.46h-1.23V344.4h1l.11.84h0a3.8,3.8,0,0,1,2.33-1c1.87,0,2.88,1.46,2.88,3.72,0,2.48-1.49,3.93-3.15,3.93a3.36,3.36,0,0,1-2-.84Zm1.79-1.47c1.2,0,2.08-1.1,2.08-2.9,0-1.6-.54-2.68-1.92-2.68a3.06,3.06,0,0,0-2,1v3.82A2.88,2.88,0,0,0,218.71,350.84Z" transform="translate(-28.75 -12)"/><path class="cls-1" d="M226.85,344.22c1.79,0,3.38,1.4,3.38,3.84s-1.59,3.81-3.38,3.81-3.37-1.39-3.37-3.81S225.07,344.22,226.85,344.22Zm0,6.63c1.26,0,2.1-1.12,2.1-2.79s-.84-2.82-2.1-2.82-2.1,1.14-2.1,2.82S225.61,350.85,226.85,350.85Z" transform="translate(-28.75 -12)"/><path class="cls-1" d="M232,350a3.29,3.29,0,0,0,2.15.87c1,0,1.44-.51,1.44-1.14s-.87-1.08-1.67-1.38c-1-.37-2.17-.87-2.17-2.1s.93-2.07,2.5-2.07a3.66,3.66,0,0,1,2.27.83l-.59.78a2.67,2.67,0,0,0-1.66-.65c-.92,0-1.34.5-1.34,1.05s.8.95,1.62,1.26c1.05.39,2.22.83,2.22,2.21,0,1.18-.94,2.17-2.67,2.17a4.38,4.38,0,0,1-2.71-1Z" transform="translate(-28.75 -12)"/><path class="cls-1" d="M238.33,344.4h1.24v4.46c0,1.36.41,1.95,1.37,1.95.75,0,1.27-.38,2-1.23V344.4h1.23v7.29h-1l-.1-1.14h0a3.05,3.05,0,0,1-2.4,1.32c-1.54,0-2.23-1-2.23-2.85Z" transform="translate(-28.75 -12)"/><path class="cls-1" d="M246.59,344.4h1l.11,1.32h0a2.52,2.52,0,0,1,2.07-1.5,1.87,1.87,0,0,1,.78.15l-.24,1.08a2.13,2.13,0,0,0-.7-.12c-.62,0-1.35.45-1.85,1.68v4.68h-1.23Z" transform="translate(-28.75 -12)"/><path class="cls-1" d="M254.38,344.22c1.86,0,2.91,1.34,2.91,3.42a4.31,4.31,0,0,1-.05.68h-4.92a2.43,2.43,0,0,0,2.43,2.56,3.27,3.27,0,0,0,1.82-.57l.43.81a4.3,4.3,0,0,1-2.4.75,3.48,3.48,0,0,1-3.49-3.81C251.11,345.68,252.71,344.22,254.38,344.22Zm1.83,3.29c0-1.49-.66-2.31-1.8-2.31a2.27,2.27,0,0,0-2.1,2.31Z" transform="translate(-28.75 -12)"/><g id="xy"><line class="cls-2" x1="0.25" y1="316" x2="316.25" y2="316"/><line class="cls-2" x1="1" y1="316" x2="1"/></g></svg>