<svg id="Layer_1" data-name="Layer 1" xmlns="http://www.w3.org/2000/svg" viewBox="0 0 364.68 369.11"><defs><style>.cls-1{fill:#383838;}.cls-2{fill:none;stroke:#000;stroke-width:2px;}</style></defs><title>Graphs_5</title><path class="cls-1" d="M24.71,318.61,10.43,311v-1.16l14.28,7.61Zm-10,3.53c-2.77,0-4.33-1.24-4.33-3.13s1.56-3.13,4.33-3.13,4.36,1.26,4.36,3.13S17.53,322.14,14.76,322.14Zm0-4.94c-2.21,0-3.26.74-3.26,1.81s1.05,1.82,3.26,1.82,3.29-.73,3.29-1.82S16.94,317.2,14.76,317.2Zm5.58-4.66c-2.75,0-4.32-1.24-4.32-3.13s1.57-3.12,4.32-3.12,4.37,1.25,4.37,3.12S23.14,312.54,20.34,312.54Zm0-4.93c-2.18,0-3.25.73-3.25,1.8s1.07,1.83,3.25,1.83,3.3-.76,3.3-1.83S22.53,307.61,20.34,307.61Z" transform="translate(-9.51 -12.55)"/><path class="cls-1" d="M21.46,299.44a5.41,5.41,0,0,0,1.72-3.8c0-1.81-.91-2.88-2.25-2.88s-1.85,1-2.43,2.31l-.87,2c-.54,1.28-1.53,2.8-3.54,2.8s-3.66-1.85-3.66-4.35a5.64,5.64,0,0,1,1.7-4.05l1.14.92a4.42,4.42,0,0,0-1.3,3.13c0,1.55.77,2.58,2,2.58s1.83-1.22,2.29-2.29l.84-2c.69-1.6,1.64-2.84,3.67-2.84,2.19,0,3.93,1.81,3.93,4.71a6.64,6.64,0,0,1-2,4.81Z" transform="translate(-9.51 -12.55)"/><path class="cls-1" d="M14.25,288.64V286.9h6.24c1.91,0,2.73-.57,2.73-1.91,0-1.05-.53-1.78-1.72-2.75H14.25v-1.72H24.46V282l-1.6.14v.06a4.31,4.31,0,0,1,1.85,3.36c0,2.17-1.39,3.13-4,3.13Z" transform="translate(-9.51 -12.55)"/><path class="cls-1" d="M9.51,277.07v-1.72h4.07l1.85,0A5,5,0,0,1,14,272.2c0-2.65,2-4.05,5.19-4.05,3.48,0,5.52,2.08,5.52,4.41a4.64,4.64,0,0,1-1.26,2.92v.06l1,.15v1.38Zm13.75-4.22c0-1.68-1.53-2.92-4.05-2.92-2.25,0-3.76.76-3.76,2.69a4.19,4.19,0,0,0,1.39,2.73h5.35A4,4,0,0,0,23.26,272.85Z" transform="translate(-9.51 -12.55)"/><path class="cls-1" d="M22.15,265.69a4.6,4.6,0,0,0,1.22-3c0-1.35-.72-2-1.6-2-1.05,0-1.51,1.22-1.93,2.33-.53,1.45-1.22,3.05-2.94,3.05s-2.9-1.3-2.9-3.51a5.1,5.1,0,0,1,1.16-3.17l1.09.82a3.75,3.75,0,0,0-.9,2.33c0,1.28.69,1.87,1.47,1.87.94,0,1.32-1.11,1.76-2.27.54-1.47,1.15-3.11,3.09-3.11,1.65,0,3,1.33,3,3.74a6.14,6.14,0,0,1-1.41,3.8Z" transform="translate(-9.51 -12.55)"/><path class="cls-1" d="M15.66,256.32v1.52h-1.3l-.11-1.6L11.4,256v-1.45h2.85v-2.75h1.41v2.75h5.67c1.26,0,2-.4,2-1.57a3.63,3.63,0,0,0-.27-1.16l1.3-.33a6.23,6.23,0,0,1,.38,1.89c0,2.18-1.39,2.91-3.4,2.91Z" transform="translate(-9.51 -12.55)"/><path class="cls-1" d="M14.25,249.52v-1.43L16.1,248v-.07A3.49,3.49,0,0,1,14,245a2.5,2.5,0,0,1,.21-1.09l1.51.34a3,3,0,0,0-.16,1c0,.86.63,1.89,2.35,2.58h6.55v1.72Z" transform="translate(-9.51 -12.55)"/><path class="cls-1" d="M18,237c-1.3,0-2.56.45-2.56,2.1a5.55,5.55,0,0,0,1.09,3l-1.2.69a7.63,7.63,0,0,1-1.32-4c0-2.5,1.66-3.55,4.2-3.55h6.26v1.43l-1.22.15v0a5.54,5.54,0,0,1,1.47,3.38,2.78,2.78,0,0,1-2.9,3C19.59,243.26,18.47,241.33,18,237Zm5.33,2.8A4.2,4.2,0,0,0,22,237H19.12c.42,3.43,1.26,4.58,2.57,4.58C22.84,241.56,23.32,240.79,23.32,239.78Z" transform="translate(-9.51 -12.55)"/><path class="cls-1" d="M15.66,231.71v1.51h-1.3l-.11-1.59-2.85-.21V230h2.85v-2.75h1.41V230h5.67c1.26,0,2-.4,2-1.58a3.63,3.63,0,0,0-.27-1.15l1.3-.34a6.29,6.29,0,0,1,.38,1.89c0,2.19-1.39,2.92-3.4,2.92Z" transform="translate(-9.51 -12.55)"/><path class="cls-1" d="M14,221.3c0-2.61,1.87-4.08,4.79-4.08a5.08,5.08,0,0,1,.94.07v6.88c2.21-.12,3.59-1.45,3.59-3.4a4.65,4.65,0,0,0-.79-2.54l1.13-.61A6.06,6.06,0,0,1,24.71,221c0,2.73-2,4.89-5.33,4.89S14,223.63,14,221.3Zm4.6-2.56c-2.08,0-3.23.92-3.23,2.51,0,1.43,1.17,2.73,3.23,2.94Z" transform="translate(-9.51 -12.55)"/><path class="cls-1" d="M9.51,210.46v-1.72h13c.54,0,.75-.23.75-.48a1.51,1.51,0,0,0,0-.38l1.3-.23a2.21,2.21,0,0,1,.17,1c0,1.31-.82,1.83-2.31,1.83Z" transform="translate(-9.51 -12.55)"/><path class="cls-1" d="M14,201.28c0-2.6,1.87-4.07,4.79-4.07a6.27,6.27,0,0,1,.94.06v6.89c2.21-.12,3.59-1.45,3.59-3.4a4.63,4.63,0,0,0-.79-2.54l1.13-.61A6,6,0,0,1,24.71,201c0,2.73-2,4.89-5.33,4.89S14,203.62,14,201.28Zm4.6-2.56c-2.08,0-3.23.93-3.23,2.52,0,1.43,1.17,2.73,3.23,2.94Z" transform="translate(-9.51 -12.55)"/><path class="cls-1" d="M14.25,196.06v-1.79l5.8-1.93c1-.3,2-.63,3-1v-.08c-1-.29-2-.63-3-.92l-5.8-1.94v-1.7l10.21,3.62v2Z" transform="translate(-9.51 -12.55)"/><path class="cls-1" d="M14,181c0-2.6,1.87-4.07,4.79-4.07a6.27,6.27,0,0,1,.94.06v6.89c2.21-.13,3.59-1.45,3.59-3.4a4.6,4.6,0,0,0-.79-2.54l1.13-.61a6,6,0,0,1,1.05,3.36c0,2.73-2,4.89-5.33,4.89S14,183.37,14,181Zm4.6-2.56c-2.08,0-3.23.92-3.23,2.52,0,1.43,1.17,2.73,3.23,2.94Z" transform="translate(-9.51 -12.55)"/><path class="cls-1" d="M9.51,174.45v-1.72h13c.54,0,.75-.24.75-.49a1.55,1.55,0,0,0,0-.38l1.3-.23a2.26,2.26,0,0,1,.17,1c0,1.3-.82,1.83-2.31,1.83Z" transform="translate(-9.51 -12.55)"/><path class="cls-1" d="M24.1,164.14H24a1.9,1.9,0,0,1-1.66.9,2.41,2.41,0,0,1-1.89-1.11h-.09A3.6,3.6,0,0,1,14,161.41a4.24,4.24,0,0,1,.25-1.45v-3.55h1.33v2.1a3,3,0,0,1,2.1-.84,3.5,3.5,0,0,1,3.54,3.74,3.57,3.57,0,0,1-.35,1.53,1.53,1.53,0,0,0,1.22.65c.65,0,1.11-.42,1.11-1.81v-2c0-2.37.73-3.57,2.43-3.57,1.89,0,3.53,2,3.53,5.17,0,2.5-1,4.22-2.75,4.22A3,3,0,0,1,24.1,164.14Zm-6.47-4.9a2.17,2.17,0,1,0,0,4.33,2.18,2.18,0,1,0,0-4.33ZM28,161.15c0-2-1-3.23-2.07-3.23s-1.26.74-1.26,2.06v1.76a5.33,5.33,0,0,1-.17,1.33,2.15,2.15,0,0,0,1.72,1.05C27.27,164.12,28,163,28,161.15Z" transform="translate(-9.51 -12.55)"/><path class="cls-1" d="M14,150.74c0-2.6,1.87-4.07,4.79-4.07a6.27,6.27,0,0,1,.94.06v6.89c2.21-.13,3.59-1.45,3.59-3.41a4.65,4.65,0,0,0-.79-2.54l1.13-.61a6.09,6.09,0,0,1,1.05,3.36c0,2.73-2,4.9-5.33,4.9S14,153.07,14,150.74Zm4.6-2.56c-2.08,0-3.23.92-3.23,2.52,0,1.42,1.17,2.73,3.23,2.94Z" transform="translate(-9.51 -12.55)"/><path class="cls-1" d="M14.25,144.14v-1.42l1.85-.15v-.06a3.51,3.51,0,0,1-2.1-2.9,2.47,2.47,0,0,1,.21-1.09l1.51.33a3,3,0,0,0-.16,1c0,.86.63,1.89,2.35,2.58h6.55v1.72Z" transform="translate(-9.51 -12.55)"/><path class="cls-1" d="M14.25,136.86v-1.43l1.47-.15v-.06A4.49,4.49,0,0,1,14,132.05,2.68,2.68,0,0,1,16,129.24c-1.15-1.07-1.95-2.12-1.95-3.36,0-2.1,1.39-3.11,4-3.11h6.47v1.72H18.22c-1.91,0-2.73.61-2.73,1.89a3.74,3.74,0,0,0,1.58,2.56h7.39v1.72H18.22c-1.91,0-2.73.61-2.73,1.91a3.86,3.86,0,0,0,1.58,2.57h7.39v1.72Z" transform="translate(-9.51 -12.55)"/><path class="cls-1" d="M11,119.76a1.2,1.2,0,0,1,0-2.39,1.2,1.2,0,0,1,0,2.39Zm3.21-.31v-1.72H24.46v1.72Z" transform="translate(-9.51 -12.55)"/><path class="cls-1" d="M14.25,114.28v-1.42l1.47-.15v-.06A4.85,4.85,0,0,1,14,109.22c0-2.14,1.39-3.1,4-3.1h6.47v1.72H18.22c-1.91,0-2.73.59-2.73,1.93,0,1,.55,1.76,1.58,2.79h7.39v1.72Z" transform="translate(-9.51 -12.55)"/><path class="cls-1" d="M18,97c-1.3,0-2.56.44-2.56,2.1a5.55,5.55,0,0,0,1.09,3l-1.2.69a7.63,7.63,0,0,1-1.32-4c0-2.5,1.66-3.55,4.2-3.55h6.26v1.43l-1.22.15v0a5.51,5.51,0,0,1,1.47,3.38,2.78,2.78,0,0,1-2.9,3C19.59,103.3,18.47,101.37,18,97Zm5.33,2.8A4.2,4.2,0,0,0,22,97H19.12c.42,3.43,1.26,4.58,2.57,4.58A1.56,1.56,0,0,0,23.32,99.82Z" transform="translate(-9.51 -12.55)"/><path class="cls-1" d="M15.66,91.75v1.51h-1.3l-.11-1.59-2.85-.21V90h2.85V87.26h1.41V90h5.67c1.26,0,2-.4,2-1.58A3.57,3.57,0,0,0,23,87.28l1.3-.34a6.29,6.29,0,0,1,.38,1.89c0,2.19-1.39,2.92-3.4,2.92Z" transform="translate(-9.51 -12.55)"/><path class="cls-1" d="M11,85.26a1.2,1.2,0,1,1,1.11-1.2A1.12,1.12,0,0,1,11,85.26ZM14.25,85V83.23H24.46V85Z" transform="translate(-9.51 -12.55)"/><path class="cls-1" d="M14,75.81c0-2.5,1.95-4.72,5.38-4.72s5.33,2.22,5.33,4.72-1.95,4.73-5.33,4.73S14,78.31,14,75.81Zm9.28,0c0-1.76-1.57-2.94-3.9-2.94s-3.95,1.18-3.95,2.94,1.6,2.94,3.95,2.94S23.28,77.56,23.28,75.81Z" transform="translate(-9.51 -12.55)"/><path class="cls-1" d="M14.25,68.4V67l1.47-.15v-.06A4.81,4.81,0,0,1,14,63.34c0-2.14,1.39-3.11,4-3.11h6.47V62H18.22c-1.91,0-2.73.59-2.73,1.94,0,1,.55,1.76,1.58,2.79h7.39V68.4Z" transform="translate(-9.51 -12.55)"/><path class="cls-1" d="M372.67,353.66l-1.29-2.23c-.52-.86-.85-1.41-1.17-2h0c-.29.59-.57,1.13-1.1,2l-1.22,2.22h-1.5l3.09-5.11-3-5H368l1.33,2.37c.38.66.66,1.17.94,1.71h0c.29-.6.54-1.06.91-1.71l1.39-2.37h1.5L371,348.47l3.15,5.19Z" transform="translate(-9.51 -12.55)"/><path class="cls-1" d="M37.39,22.66V18.37l-3.2-5.82h1.49l1.42,2.79c.39.77.69,1.38,1,2.09h0c.28-.66.63-1.32,1-2.09l1.45-2.79H42.1l-3.39,5.81v4.3Z" transform="translate(-9.51 -12.55)"/><path class="cls-1" d="M81.29,374a5.33,5.33,0,0,0,3.8,1.72c1.8,0,2.87-.9,2.87-2.24s-1-1.85-2.31-2.44l-2-.86c-1.28-.54-2.79-1.53-2.79-3.55s1.85-3.65,4.34-3.65a5.64,5.64,0,0,1,4.06,1.7l-.93,1.13a4.46,4.46,0,0,0-3.13-1.3c-1.55,0-2.58.78-2.58,2s1.22,1.83,2.29,2.29l2,.84c1.6.69,2.84,1.63,2.84,3.67s-1.81,3.93-4.7,3.93a6.61,6.61,0,0,1-4.81-2Z" transform="translate(-9.51 -12.55)"/><path class="cls-1" d="M96.05,366.51c2.6,0,4.07,1.87,4.07,4.79a6.36,6.36,0,0,1-.06.94H93.17c.13,2.21,1.45,3.59,3.4,3.59a4.59,4.59,0,0,0,2.55-.8l.6,1.14a6.12,6.12,0,0,1-3.36,1.05c-2.72,0-4.89-2-4.89-5.34S93.72,366.51,96.05,366.51Zm2.56,4.6c0-2.08-.92-3.24-2.52-3.24-1.43,0-2.73,1.18-2.94,3.24Z" transform="translate(-9.51 -12.55)"/><path class="cls-1" d="M106.34,366.51a4.16,4.16,0,0,1,2.92,1.22h0l.17-1h1.38v14.51h-1.74v-3.63l.08-1.81a4.61,4.61,0,0,1-3.06,1.39c-2.56,0-4.22-1.93-4.22-5.34S104,366.51,106.34,366.51Zm.17,9.26a3.44,3.44,0,0,0,2.6-1.41V369a3.54,3.54,0,0,0-2.48-1.07c-1.63,0-2.94,1.57-2.94,3.9S104.72,375.77,106.51,375.77Z" transform="translate(-9.51 -12.55)"/><path class="cls-1" d="M114.05,366.76h1.74V373c0,1.91.57,2.73,1.91,2.73,1,0,1.78-.53,2.75-1.73v-7.24h1.72V377h-1.43l-.14-1.6h-.07a4.31,4.31,0,0,1-3.35,1.85c-2.17,0-3.13-1.39-3.13-4Z" transform="translate(-9.51 -12.55)"/><path class="cls-1" d="M129.44,366.51c2.6,0,4.07,1.87,4.07,4.79a6.36,6.36,0,0,1-.06.94h-6.89c.13,2.21,1.45,3.59,3.4,3.59a4.53,4.53,0,0,0,2.54-.8l.61,1.14a6.12,6.12,0,0,1-3.36,1.05c-2.73,0-4.89-2-4.89-5.34S127.11,366.51,129.44,366.51Zm2.56,4.6c0-2.08-.92-3.24-2.52-3.24-1.43,0-2.73,1.18-2.94,3.24Z" transform="translate(-9.51 -12.55)"/><path class="cls-1" d="M136,366.76h1.43l.15,1.47h.06a4.85,4.85,0,0,1,3.42-1.72c2.14,0,3.11,1.39,3.11,4V377h-1.72v-6.24c0-1.91-.59-2.73-1.93-2.73-1.05,0-1.77.55-2.8,1.58V377H136Z" transform="translate(-9.51 -12.55)"/><path class="cls-1" d="M151.68,366.51a4.21,4.21,0,0,1,3,1.22l-.86,1.11a3.11,3.11,0,0,0-2.06-.9c-1.85,0-3.19,1.59-3.19,3.94s1.28,3.91,3.15,3.91a3.63,3.63,0,0,0,2.39-1l.78,1.13a5.07,5.07,0,0,1-3.32,1.33c-2.71,0-4.79-2-4.79-5.34S149.05,366.51,151.68,366.51Z" transform="translate(-9.51 -12.55)"/><path class="cls-1" d="M160.48,366.51c2.6,0,4.07,1.87,4.07,4.79a6.36,6.36,0,0,1-.06.94H157.6c.13,2.21,1.45,3.59,3.4,3.59a4.53,4.53,0,0,0,2.54-.8l.61,1.14a6.12,6.12,0,0,1-3.36,1.05c-2.73,0-4.89-2-4.89-5.34S158.15,366.51,160.48,366.51Zm2.56,4.6c0-2.08-.93-3.24-2.52-3.24-1.43,0-2.73,1.18-2.94,3.24Z" transform="translate(-9.51 -12.55)"/><path class="cls-1" d="M175.28,366.51c2.5,0,4.72,1.95,4.72,5.37s-2.22,5.34-4.72,5.34-4.72-2-4.72-5.34S172.78,366.51,175.28,366.51Zm0,9.28c1.76,0,2.94-1.58,2.94-3.91s-1.18-3.94-2.94-3.94-2.94,1.59-2.94,3.94S173.54,375.79,175.28,375.79Z" transform="translate(-9.51 -12.55)"/><path class="cls-1" d="M187.29,363.42a2.81,2.81,0,0,0-1.15-.25c-1,0-1.43.67-1.43,2v1.62h2.16v1.41h-2.16V377H183v-8.8H181.6v-1.3l1.39-.11v-1.62c0-2.07.94-3.38,3-3.38a4.59,4.59,0,0,1,1.7.34Z" transform="translate(-9.51 -12.55)"/><path class="cls-1" d="M193.07,362h1.72v13c0,.55.23.76.48.76a1.51,1.51,0,0,0,.38,0l.23,1.3a2.38,2.38,0,0,1-1,.17c-1.3,0-1.82-.82-1.82-2.31Z" transform="translate(-9.51 -12.55)"/><path class="cls-1" d="M198.11,363.55a1.2,1.2,0,0,1,2.39,0,1.2,1.2,0,0,1-2.39,0Zm.31,3.21h1.72V377h-1.72Z" transform="translate(-9.51 -12.55)"/><path class="cls-1" d="M204.3,376.61v-.09a1.88,1.88,0,0,1-.9-1.65,2.38,2.38,0,0,1,1.11-1.89v-.09a3.6,3.6,0,0,1,2.52-6.38,4,4,0,0,1,1.45.25H212v1.32h-2.1a3,3,0,0,1,.84,2.1,3.5,3.5,0,0,1-3.74,3.55,3.57,3.57,0,0,1-1.53-.35,1.52,1.52,0,0,0-.65,1.21c0,.65.42,1.12,1.8,1.12h2c2.37,0,3.57.73,3.57,2.43,0,1.89-2,3.53-5.17,3.53-2.5,0-4.22-1-4.22-2.75A3,3,0,0,1,204.3,376.61Zm3,3.86c2,0,3.24-1,3.24-2.08s-.74-1.26-2.06-1.26H206.7a5.25,5.25,0,0,1-1.33-.16,2.15,2.15,0,0,0-1.05,1.72C204.32,379.78,205.44,380.47,207.28,380.47Zm1.91-10.33a2.17,2.17,0,1,0-4.32,0,2.18,2.18,0,1,0,4.32,0Z" transform="translate(-9.51 -12.55)"/><path class="cls-1" d="M214.17,362h1.72v4.07l-.06,2.1a4.91,4.91,0,0,1,3.4-1.68c2.14,0,3.11,1.39,3.11,4V377h-1.72v-6.24c0-1.91-.59-2.73-1.93-2.73-1.05,0-1.77.55-2.8,1.58V377h-1.72Z" transform="translate(-9.51 -12.55)"/><path class="cls-1" d="M225.89,368.17h-1.51v-1.3l1.59-.11.21-2.85h1.45v2.85h2.75v1.41h-2.75v5.67c0,1.26.4,2,1.58,2a3.85,3.85,0,0,0,1.15-.27l.34,1.3a6.29,6.29,0,0,1-1.89.38c-2.19,0-2.92-1.39-2.92-3.4Z" transform="translate(-9.51 -12.55)"/><path class="cls-1" d="M240.76,366.51c2.6,0,4.07,1.87,4.07,4.79a6.36,6.36,0,0,1-.06.94h-6.89c.13,2.21,1.45,3.59,3.4,3.59a4.53,4.53,0,0,0,2.54-.8l.61,1.14a6.12,6.12,0,0,1-3.36,1.05c-2.73,0-4.89-2-4.89-5.34S238.43,366.51,240.76,366.51Zm2.56,4.6c0-2.08-.93-3.24-2.52-3.24-1.43,0-2.73,1.18-2.94,3.24Z" transform="translate(-9.51 -12.55)"/><path class="cls-1" d="M249.12,371.63,246,366.76h1.87l1.36,2.25c.32.54.65,1.13,1,1.7h.08c.3-.57.61-1.16.93-1.7l1.24-2.25h1.8l-3.08,5.06,3.31,5.15h-1.87l-1.49-2.38c-.35-.61-.73-1.24-1.11-1.82H250c-.36.58-.7,1.19-1,1.82L247.58,377h-1.8Z" transform="translate(-9.51 -12.55)"/><path class="cls-1" d="M258.29,377.83v3.44h-1.72V366.76H258l.14,1.18h.07a5.26,5.26,0,0,1,3.25-1.43c2.63,0,4,2,4,5.21,0,3.46-2.07,5.5-4.41,5.5a4.72,4.72,0,0,1-2.83-1.18Zm2.5-2.06c1.68,0,2.92-1.53,2.92-4,0-2.25-.76-3.76-2.69-3.76a4.31,4.31,0,0,0-2.73,1.38v5.36A4.1,4.1,0,0,0,260.79,375.77Z" transform="translate(-9.51 -12.55)"/><path class="cls-1" d="M272.19,366.51c2.5,0,4.73,1.95,4.73,5.37s-2.23,5.34-4.73,5.34-4.72-2-4.72-5.34S269.7,366.51,272.19,366.51Zm0,9.28c1.77,0,2.94-1.58,2.94-3.91s-1.17-3.94-2.94-3.94-2.94,1.59-2.94,3.94S270.45,375.79,272.19,375.79Z" transform="translate(-9.51 -12.55)"/><path class="cls-1" d="M279.33,374.66a4.63,4.63,0,0,0,3,1.21c1.34,0,2-.71,2-1.59,0-1-1.22-1.51-2.33-1.93-1.45-.53-3-1.22-3-2.94s1.3-2.9,3.5-2.9a5.07,5.07,0,0,1,3.17,1.15l-.82,1.1a3.74,3.74,0,0,0-2.33-.91c-1.28,0-1.86.7-1.86,1.47,0,.95,1.11,1.33,2.26,1.77,1.47.54,3.11,1.15,3.11,3.08,0,1.66-1.32,3.05-3.74,3.05a6.14,6.14,0,0,1-3.8-1.41Z" transform="translate(-9.51 -12.55)"/><path class="cls-1" d="M288.26,366.76H290V373c0,1.91.57,2.73,1.91,2.73,1,0,1.79-.53,2.75-1.73v-7.24h1.72V377H295l-.15-1.6h-.06a4.34,4.34,0,0,1-3.36,1.85c-2.17,0-3.13-1.39-3.13-4Z" transform="translate(-9.51 -12.55)"/><path class="cls-1" d="M299.83,366.76h1.43l.14,1.85h.07a3.49,3.49,0,0,1,2.9-2.1,2.5,2.5,0,0,1,1.09.21l-.34,1.51a3,3,0,0,0-1-.17c-.86,0-1.89.63-2.58,2.36V377h-1.72Z" transform="translate(-9.51 -12.55)"/><path class="cls-1" d="M310.73,366.51c2.6,0,4.07,1.87,4.07,4.79a6.36,6.36,0,0,1-.06.94h-6.89c.13,2.21,1.45,3.59,3.4,3.59a4.53,4.53,0,0,0,2.54-.8l.61,1.14a6.12,6.12,0,0,1-3.36,1.05c-2.73,0-4.89-2-4.89-5.34S308.4,366.51,310.73,366.51Zm2.56,4.6c0-2.08-.92-3.24-2.52-3.24-1.43,0-2.73,1.18-2.94,3.24Z" transform="translate(-9.51 -12.55)"/><g id="xy"><line class="cls-2" x1="28.49" y1="336.45" x2="344.49" y2="336.45"/><line class="cls-2" x1="29.24" y1="336.45" x2="29.24" y2="20.45"/></g></svg>