<?xml version="1.0" encoding="utf-8"?>
<!-- Generator: Adobe Illustrator 22.0.1, SVG Export Plug-In . SVG Version: 6.00 Build 0)  -->
<svg version="1.1" id="Layer_1" xmlns="http://www.w3.org/2000/svg" xmlns:xlink="http://www.w3.org/1999/xlink" x="0px" y="0px"
	 viewBox="0 0 31 45.2" style="enable-background:new 0 0 31 45.2;" xml:space="preserve">
<style type="text/css">
	.st0{fill:#02768F;stroke:#FFFFFF;stroke-miterlimit:10;}
	.st1{fill:#FFFFFF;}
</style>
<g>
	<path class="st0" d="M15.5,0.8C7.4,0.8,0.8,7.4,0.8,15.5c0,0,0,0,0,0.1c0,11.3,14.7,28.6,14.7,28.6s14.7-17.3,14.7-28.6
		C30.2,7.4,23.6,0.8,15.5,0.8C15.5,0.8,15.5,0.8,15.5,0.8z M15.5,21.7c-3.5,0-6.3-2.8-6.3-6.3s2.8-6.3,6.3-6.3s6.3,2.8,6.3,6.3l0,0
		C21.8,18.9,19,21.7,15.5,21.7C15.5,21.7,15.5,21.7,15.5,21.7L15.5,21.7z"/>
	<path class="st1" d="M15.5,21.7c-3.5,0-6.3-2.8-6.3-6.3s2.8-6.3,6.3-6.3s6.3,2.8,6.3,6.3l0,0C21.8,18.9,19,21.7,15.5,21.7
		C15.5,21.7,15.5,21.7,15.5,21.7L15.5,21.7z"/>
</g>
</svg>
