<svg id="Layer_1" data-name="Layer 1" xmlns="http://www.w3.org/2000/svg" viewBox="0 0 265.69 199.53"><defs><style>.cls-1{fill:#ededee;}.cls-2{fill:none;stroke:#fff;stroke-miterlimit:10;}.cls-3{fill:#231f20;}</style></defs><title>Identify_the_Categories</title><rect class="cls-1" x="0.23" width="265" height="199"/><line class="cls-2" x1="0.23" y1="0.54" x2="265.69" y2="0.54"/><line class="cls-2" x1="0.23" y1="35.52" x2="265.69" y2="35.52"/><line class="cls-2" y1="199.03" x2="265.46" y2="199.03"/><path class="cls-3" d="M8.17,5.79H9.4V11.5h2.77v1h-4Z" transform="translate(0.23)"/><path class="cls-3" d="M14,10.44a1.32,1.32,0,0,0,1.5,1.26,3.66,3.66,0,0,0,1.35-.22l.18.85a4.59,4.59,0,0,1-1.7.3,2.3,2.3,0,0,1-2.51-2.46,2.41,2.41,0,0,1,2.38-2.62,2.12,2.12,0,0,1,2.1,2.37,3,3,0,0,1,0,.52Zm2.14-.86a1,1,0,0,0-1-1.19A1.2,1.2,0,0,0,14,9.58Z" transform="translate(0.23)"/><path class="cls-3" d="M19.79,6.27V7.66H21v.92H19.79v2.15c0,.59.16.9.63.9a1.82,1.82,0,0,0,.48-.06l0,.94a2.7,2.7,0,0,1-.89.12,1.42,1.42,0,0,1-1.06-.4,1.94,1.94,0,0,1-.38-1.36V8.58h-.7V7.66h.7V6.56Z" transform="translate(0.23)"/><path class="cls-3" d="M23.44,6.27V7.66h1.17v.92H23.44v2.15c0,.59.16.9.63.9a1.82,1.82,0,0,0,.48-.06l0,.94a2.7,2.7,0,0,1-.89.12,1.42,1.42,0,0,1-1.06-.4,1.94,1.94,0,0,1-.38-1.36V8.58h-.7V7.66h.7V6.56Z" transform="translate(0.23)"/><path class="cls-3" d="M30,11.07c0,.58,0,1.06,0,1.46H29l-.06-.74h0a1.76,1.76,0,0,1-1.56.85c-.89,0-1.7-.53-1.7-2.12V7.66h1.23v2.65c0,.81.26,1.33.91,1.33a1,1,0,0,0,.94-.66,1.12,1.12,0,0,0,.07-.38V7.66H30Z" transform="translate(0.23)"/><path class="cls-3" d="M35.09,12.38a3.56,3.56,0,0,1-1.38.25,2.34,2.34,0,0,1-2.51-2.48,2.52,2.52,0,0,1,2.71-2.6,3.07,3.07,0,0,1,1.19.23l-.22.92A2.17,2.17,0,0,0,34,8.51a1.45,1.45,0,0,0-1.49,1.58A1.44,1.44,0,0,0,34,11.66a2.41,2.41,0,0,0,1-.19Z" transform="translate(0.23)"/><path class="cls-3" d="M36.92,10.44a1.32,1.32,0,0,0,1.5,1.26,3.66,3.66,0,0,0,1.35-.22l.18.85a4.59,4.59,0,0,1-1.7.3,2.3,2.3,0,0,1-2.51-2.46,2.41,2.41,0,0,1,2.38-2.62,2.12,2.12,0,0,1,2.1,2.37,3,3,0,0,1,0,.52Zm2.14-.86a1,1,0,0,0-1-1.19,1.2,1.2,0,0,0-1.13,1.19Z" transform="translate(0.23)"/><path class="cls-3" d="M43.69,11.19a3.41,3.41,0,0,0,1.63.43c.79,0,1.23-.37,1.23-.92s-.34-.81-1.2-1.12c-1.11-.4-1.82-1-1.82-2s.92-1.93,2.38-1.93A3.58,3.58,0,0,1,47.53,6l-.3,1a2.85,2.85,0,0,0-1.34-.32c-.78,0-1.12.42-1.12.81s.39.76,1.29,1.11c1.17.44,1.74,1,1.74,2s-.82,2-2.56,2a4,4,0,0,1-1.82-.42Z" transform="translate(0.23)"/><path class="cls-3" d="M49.93,10.44a1.32,1.32,0,0,0,1.5,1.26,3.66,3.66,0,0,0,1.35-.22l.18.85a4.59,4.59,0,0,1-1.7.3,2.3,2.3,0,0,1-2.51-2.46,2.41,2.41,0,0,1,2.38-2.62,2.12,2.12,0,0,1,2.1,2.37,3,3,0,0,1,0,.52Zm2.14-.86a1,1,0,0,0-1-1.19,1.2,1.2,0,0,0-1.13,1.19Z" transform="translate(0.23)"/><path class="cls-3" d="M55.23,10.44a1.32,1.32,0,0,0,1.5,1.26,3.66,3.66,0,0,0,1.35-.22l.18.85a4.59,4.59,0,0,1-1.7.3,2.3,2.3,0,0,1-2.51-2.46,2.41,2.41,0,0,1,2.38-2.62,2.12,2.12,0,0,1,2.1,2.37,3,3,0,0,1,0,.52Zm2.14-.86a1,1,0,0,0-1-1.19,1.2,1.2,0,0,0-1.13,1.19Z" transform="translate(0.23)"/><path class="cls-3" d="M64.15,5.44v5.72c0,.5,0,1,0,1.37h-1.1L63,11.76h0a1.75,1.75,0,0,1-1.59.88,2.23,2.23,0,0,1-2.08-2.49,2.32,2.32,0,0,1,2.18-2.6,1.55,1.55,0,0,1,1.37.64h0V5.44ZM62.92,9.69a1.73,1.73,0,0,0,0-.32,1.08,1.08,0,0,0-1.06-.87c-.79,0-1.23.7-1.23,1.61s.44,1.54,1.22,1.54a1.08,1.08,0,0,0,1.06-.87,1.37,1.37,0,0,0,0-.36Z" transform="translate(0.23)"/><path class="cls-3" d="M65.55,11.4a2.74,2.74,0,0,0,1.25.35c.54,0,.78-.22.78-.54s-.2-.5-.8-.71c-1-.33-1.35-.85-1.34-1.42a1.63,1.63,0,0,1,1.84-1.53,2.86,2.86,0,0,1,1.29.29l-.24.87a2.19,2.19,0,0,0-1-.28c-.44,0-.68.21-.68.51s.23.46.85.68c.88.32,1.29.77,1.3,1.49,0,.88-.69,1.52-2,1.52a3.14,3.14,0,0,1-1.48-.34Z" transform="translate(0.23)"/><path class="cls-3" d="M77.74,12.22a6.68,6.68,0,0,1-2.17.38,3.63,3.63,0,0,1-2.64-.9A3.34,3.34,0,0,1,72,9.22a3.42,3.42,0,0,1,3.75-3.49A4.7,4.7,0,0,1,77.53,6l-.27,1a3.63,3.63,0,0,0-1.53-.29,2.26,2.26,0,0,0-2.45,2.42,2.23,2.23,0,0,0,2.34,2.44,2.36,2.36,0,0,0,.93-.14V9.78H75.36v-1h2.38Z" transform="translate(0.23)"/><path class="cls-3" d="M80,10.44a1.32,1.32,0,0,0,1.5,1.26,3.66,3.66,0,0,0,1.35-.22l.18.85a4.59,4.59,0,0,1-1.7.3,2.3,2.3,0,0,1-2.51-2.46,2.41,2.41,0,0,1,2.38-2.62,2.12,2.12,0,0,1,2.1,2.37,3,3,0,0,1,0,.52Zm2.14-.86a1,1,0,0,0-1-1.19A1.2,1.2,0,0,0,80,9.58Z" transform="translate(0.23)"/><path class="cls-3" d="M84.45,9.23c0-.66,0-1.13,0-1.57h1.07l0,.93h0a1.45,1.45,0,0,1,1.33-1,1.29,1.29,0,0,1,.29,0V8.74a1.71,1.71,0,0,0-.36,0,1.08,1.08,0,0,0-1.1.93,2.11,2.11,0,0,0,0,.38v2.52H84.45Z" transform="translate(0.23)"/><path class="cls-3" d="M88.15,9.11c0-.56,0-1,0-1.45h1.06l0,.72h0a1.68,1.68,0,0,1,1.5-.83,1.4,1.4,0,0,1,1.35.9h0a1.84,1.84,0,0,1,.6-.61,1.63,1.63,0,0,1,1-.29c.81,0,1.63.55,1.63,2.11v2.87h-1.2V9.84c0-.81-.28-1.29-.87-1.29a.94.94,0,0,0-.86.65,1.76,1.76,0,0,0-.06.41v2.92h-1.2V9.71c0-.68-.27-1.16-.84-1.16a1,1,0,0,0-.88.7,1.05,1.05,0,0,0-.07.4v2.88h-1.2Z" transform="translate(0.23)"/><path class="cls-3" d="M98.08,6.3a.69.69,0,1,1-.69-.66A.65.65,0,0,1,98.08,6.3Zm-1.31,6.23V7.66H98v4.87Z" transform="translate(0.23)"/><path class="cls-3" d="M99.47,9.11c0-.56,0-1,0-1.45h1.08l.06.73h0a1.76,1.76,0,0,1,1.55-.84c.85,0,1.73.55,1.73,2.09v2.89h-1.23V9.78c0-.7-.26-1.23-.93-1.23a1,1,0,0,0-1,.72,1.25,1.25,0,0,0-.05.4v2.86H99.47Z" transform="translate(0.23)"/><path class="cls-3" d="M108.07,12.53,108,12h0a1.81,1.81,0,0,1-1.44.65A1.45,1.45,0,0,1,105,11.19c0-1.23,1.09-1.85,2.89-1.84V9.27c0-.32-.13-.85-1-.85a2.58,2.58,0,0,0-1.31.36l-.24-.8a3.51,3.51,0,0,1,1.76-.43,1.82,1.82,0,0,1,2,2.05v1.76a7.81,7.81,0,0,0,.07,1.17Zm-.16-2.38c-.87,0-1.7.17-1.7.91a.65.65,0,0,0,.7.7,1,1,0,0,0,1-.67.88.88,0,0,0,0-.27Z" transform="translate(0.23)"/><path class="cls-3" d="M111.9,6.27V7.66h1.17v.92H111.9v2.15c0,.59.16.9.63.9a1.82,1.82,0,0,0,.48-.06l0,.94a2.7,2.7,0,0,1-.89.12,1.42,1.42,0,0,1-1.06-.4,1.94,1.94,0,0,1-.38-1.36V8.58H110V7.66h.7V6.56Z" transform="translate(0.23)"/><path class="cls-3" d="M115.45,6.3a.69.69,0,1,1-.69-.66A.65.65,0,0,1,115.45,6.3Zm-1.31,6.23V7.66h1.24v4.87Z" transform="translate(0.23)"/><path class="cls-3" d="M116.84,9.11c0-.56,0-1,0-1.45h1.08l.06.73h0a1.76,1.76,0,0,1,1.55-.84c.85,0,1.73.55,1.73,2.09v2.89H120V9.78c0-.7-.26-1.23-.93-1.23a1,1,0,0,0-1,.72,1.25,1.25,0,0,0,0,.4v2.86h-1.24Z" transform="translate(0.23)"/><path class="cls-3" d="M127.15,7.66c0,.33,0,.73,0,1.4v2.76a2.82,2.82,0,0,1-.72,2.21,2.8,2.8,0,0,1-1.88.59,3.45,3.45,0,0,1-1.7-.39l.27-.93a2.94,2.94,0,0,0,1.42.37,1.29,1.29,0,0,0,1.4-1.47v-.42h0a1.64,1.64,0,0,1-1.42.72,2.16,2.16,0,0,1-2.07-2.38,2.33,2.33,0,0,1,2.21-2.57,1.53,1.53,0,0,1,1.41.76h0l0-.65Zm-1.27,1.95a1.19,1.19,0,0,0,0-.33,1,1,0,0,0-1-.79c-.69,0-1.2.6-1.2,1.59,0,.83.42,1.5,1.19,1.5a1.05,1.05,0,0,0,1-.74,2.12,2.12,0,0,0,0-.44Z" transform="translate(0.23)"/><path class="cls-3" d="M132.29,10.62l-.58,1.91h-1.27l2.16-6.74h1.57l2.19,6.74H135l-.61-1.91Zm1.93-.93L133.69,8c-.13-.41-.24-.87-.34-1.26h0c-.1.39-.2.86-.32,1.26l-.52,1.66Z" transform="translate(0.23)"/><path class="cls-3" d="M137.43,12.53V8.58h-.66V7.66h.66V7.45A2.27,2.27,0,0,1,138,5.79a1.9,1.9,0,0,1,1.27-.46,2.39,2.39,0,0,1,.79.12l-.09.94a1.43,1.43,0,0,0-.52-.09c-.61,0-.82.51-.82,1.11v.25h1.07v.92h-1.06v3.95Z" transform="translate(0.23)"/><path class="cls-3" d="M142.16,6.27V7.66h1.17v.92h-1.17v2.15c0,.59.16.9.63.9a1.82,1.82,0,0,0,.48-.06l0,.94a2.7,2.7,0,0,1-.89.12,1.42,1.42,0,0,1-1.06-.4,1.94,1.94,0,0,1-.38-1.36V8.58h-.7V7.66h.7V6.56Z" transform="translate(0.23)"/><path class="cls-3" d="M145.21,10.44a1.32,1.32,0,0,0,1.5,1.26,3.66,3.66,0,0,0,1.35-.22l.18.85a4.59,4.59,0,0,1-1.7.3A2.3,2.3,0,0,1,144,10.17a2.41,2.41,0,0,1,2.38-2.62,2.12,2.12,0,0,1,2.1,2.37,3,3,0,0,1,0,.52Zm2.14-.86a1,1,0,0,0-1-1.19,1.2,1.2,0,0,0-1.13,1.19Z" transform="translate(0.23)"/><path class="cls-3" d="M149.64,9.23c0-.66,0-1.13,0-1.57h1.07l0,.93h0a1.45,1.45,0,0,1,1.33-1,1.29,1.29,0,0,1,.29,0V8.74a1.71,1.71,0,0,0-.36,0,1.08,1.08,0,0,0-1.1.93,2.11,2.11,0,0,0,0,.38v2.52h-1.23Z" transform="translate(0.23)"/><path class="cls-3" d="M159.55,9.54H157v2h2.84v1h-4.07V5.79h3.92v1H157V8.54h2.54Z" transform="translate(0.23)"/><path class="cls-3" d="M161.84,7.66l.58.92c.16.26.3.5.44.75h0c.14-.27.28-.52.42-.77l.54-.9h1.34L163.56,10l1.66,2.53h-1.39l-.6-1c-.16-.26-.3-.52-.44-.79h0c-.14.28-.28.52-.44.79l-.56,1h-1.36l1.69-2.48-1.63-2.39Z" transform="translate(0.23)"/><path class="cls-3" d="M166.1,9.28c0-.64,0-1.16,0-1.62h1.08l.06.75h0a1.9,1.9,0,0,1,1.67-.86A2.21,2.21,0,0,1,170.94,10a2.32,2.32,0,0,1-2.22,2.61,1.6,1.6,0,0,1-1.37-.65h0v2.52H166.1Zm1.23,1.21a1.27,1.27,0,0,0,0,.34,1.11,1.11,0,0,0,1.08.86c.78,0,1.24-.65,1.24-1.61s-.42-1.56-1.21-1.56a1.15,1.15,0,0,0-1.1.91,1.12,1.12,0,0,0,0,.31Z" transform="translate(0.23)"/><path class="cls-3" d="M176.72,10.05a2.41,2.41,0,0,1-2.5,2.59,2.35,2.35,0,0,1-2.44-2.51,2.4,2.4,0,0,1,2.52-2.58A2.34,2.34,0,0,1,176.72,10.05Zm-3.67,0c0,.94.46,1.65,1.21,1.65s1.19-.69,1.19-1.67c0-.76-.34-1.63-1.18-1.63S173.05,9.29,173.05,10.1Z" transform="translate(0.23)"/><path class="cls-3" d="M177.81,11.4a2.74,2.74,0,0,0,1.25.35c.54,0,.78-.22.78-.54s-.2-.5-.8-.71c-.95-.33-1.35-.85-1.34-1.42a1.63,1.63,0,0,1,1.84-1.53,2.86,2.86,0,0,1,1.29.29l-.24.87a2.19,2.19,0,0,0-1-.28c-.44,0-.68.21-.68.51s.23.46.85.68c.88.32,1.29.77,1.3,1.49,0,.88-.69,1.52-2,1.52a3.14,3.14,0,0,1-1.48-.34Z" transform="translate(0.23)"/><path class="cls-3" d="M186.54,11.07c0,.58,0,1.06,0,1.46H185.5l-.06-.74h0a1.76,1.76,0,0,1-1.56.85c-.89,0-1.7-.53-1.7-2.12V7.66h1.23v2.65c0,.81.26,1.33.91,1.33a1,1,0,0,0,.94-.66,1.12,1.12,0,0,0,.07-.38V7.66h1.23Z" transform="translate(0.23)"/><path class="cls-3" d="M188,9.23c0-.66,0-1.13,0-1.57H189l0,.93h0a1.45,1.45,0,0,1,1.33-1,1.29,1.29,0,0,1,.29,0V8.74a1.71,1.71,0,0,0-.36,0,1.08,1.08,0,0,0-1.1.93,2.11,2.11,0,0,0,0,.38v2.52H188Z" transform="translate(0.23)"/><path class="cls-3" d="M192.49,10.44A1.32,1.32,0,0,0,194,11.7a3.66,3.66,0,0,0,1.35-.22l.18.85a4.59,4.59,0,0,1-1.7.3,2.3,2.3,0,0,1-2.51-2.46,2.41,2.41,0,0,1,2.38-2.62,2.12,2.12,0,0,1,2.1,2.37,3,3,0,0,1,0,.52Zm2.14-.86a1,1,0,0,0-1-1.19,1.2,1.2,0,0,0-1.13,1.19Z" transform="translate(0.23)"/><path class="cls-3" d="M200.65,6.27V7.66h1.17v.92h-1.17v2.15c0,.59.16.9.63.9a1.82,1.82,0,0,0,.48-.06l0,.94a2.7,2.7,0,0,1-.89.12,1.42,1.42,0,0,1-1.06-.4,1.94,1.94,0,0,1-.38-1.36V8.58h-.7V7.66h.7V6.56Z" transform="translate(0.23)"/><path class="cls-3" d="M207.46,10.05a2.41,2.41,0,0,1-2.5,2.59,2.35,2.35,0,0,1-2.44-2.51A2.4,2.4,0,0,1,205,7.55,2.34,2.34,0,0,1,207.46,10.05Zm-3.67,0c0,.94.46,1.65,1.21,1.65s1.19-.69,1.19-1.67c0-.76-.34-1.63-1.18-1.63S203.79,9.29,203.79,10.1Z" transform="translate(0.23)"/><path class="cls-3" d="M211,5.88a13.17,13.17,0,0,1,1.86-.13,3.13,3.13,0,0,1,2.08.53,1.71,1.71,0,0,1,.58,1.35,1.8,1.8,0,0,1-1.22,1.69v0a1.72,1.72,0,0,1,.94,1.3,13.45,13.45,0,0,0,.53,1.88h-1.27a9.52,9.52,0,0,1-.45-1.59c-.19-.88-.51-1.16-1.21-1.18h-.62v2.77H211Zm1.22,3H213c.83,0,1.35-.44,1.35-1.11S213.8,6.67,213,6.67a3.54,3.54,0,0,0-.76.06Z" transform="translate(0.23)"/><path class="cls-3" d="M217.7,10.44a1.32,1.32,0,0,0,1.5,1.26,3.66,3.66,0,0,0,1.35-.22l.18.85a4.59,4.59,0,0,1-1.7.3,2.3,2.3,0,0,1-2.51-2.46,2.41,2.41,0,0,1,2.38-2.62A2.12,2.12,0,0,1,221,9.92a3,3,0,0,1,0,.52Zm2.14-.86a1,1,0,0,0-1-1.19,1.2,1.2,0,0,0-1.13,1.19Z" transform="translate(0.23)"/><path class="cls-3" d="M226.62,5.44v5.72c0,.5,0,1,0,1.37h-1.1l-.05-.77h0a1.75,1.75,0,0,1-1.59.88,2.23,2.23,0,0,1-2.08-2.49A2.32,2.32,0,0,1,224,7.55a1.55,1.55,0,0,1,1.37.64h0V5.44Zm-1.23,4.25a1.73,1.73,0,0,0,0-.32,1.08,1.08,0,0,0-1.06-.87c-.79,0-1.23.7-1.23,1.61s.44,1.54,1.22,1.54a1.08,1.08,0,0,0,1.06-.87,1.37,1.37,0,0,0,0-.36Z" transform="translate(0.23)"/><path class="cls-3" d="M233.14,12.53l-.08-.54h0a1.81,1.81,0,0,1-1.44.65,1.45,1.45,0,0,1-1.53-1.45c0-1.23,1.09-1.85,2.89-1.84V9.27c0-.32-.13-.85-1-.85a2.58,2.58,0,0,0-1.31.36l-.24-.8a3.51,3.51,0,0,1,1.76-.43,1.82,1.82,0,0,1,2,2.05v1.76a7.81,7.81,0,0,0,.07,1.17ZM233,10.15c-.87,0-1.7.17-1.7.91a.65.65,0,0,0,.7.7,1,1,0,0,0,1-.67.88.88,0,0,0,0-.27Z" transform="translate(0.23)"/><path class="cls-3" d="M235.62,9.11c0-.56,0-1,0-1.45h1.08l.06.73h0a1.76,1.76,0,0,1,1.55-.84c.85,0,1.73.55,1.73,2.09v2.89H238.8V9.78c0-.7-.26-1.23-.93-1.23a1,1,0,0,0-1,.72,1.25,1.25,0,0,0,0,.4v2.86h-1.24Z" transform="translate(0.23)"/><path class="cls-3" d="M246,5.44v5.72c0,.5,0,1,0,1.37h-1.1l0-.77h0a1.75,1.75,0,0,1-1.59.88,2.23,2.23,0,0,1-2.08-2.49,2.32,2.32,0,0,1,2.18-2.6,1.55,1.55,0,0,1,1.37.64h0V5.44Zm-1.23,4.25a1.73,1.73,0,0,0,0-.32,1.08,1.08,0,0,0-1.06-.87c-.79,0-1.23.7-1.23,1.61s.44,1.54,1.22,1.54a1.08,1.08,0,0,0,1.06-.87,1.37,1.37,0,0,0,0-.36Z" transform="translate(0.23)"/><path class="cls-3" d="M8.15,18.29H12v1H9.38v1.86h2.48v1H9.38V25H8.15Z" transform="translate(0.23)"/><path class="cls-3" d="M15.66,25l-.08-.54h0a1.81,1.81,0,0,1-1.44.65,1.45,1.45,0,0,1-1.53-1.45c0-1.23,1.09-1.85,2.89-1.84v-.08c0-.32-.13-.85-1-.85a2.58,2.58,0,0,0-1.31.36l-.24-.8a3.51,3.51,0,0,1,1.76-.43,1.82,1.82,0,0,1,2,2.05v1.76A7.81,7.81,0,0,0,16.77,25Zm-.16-2.38c-.87,0-1.7.17-1.7.91a.65.65,0,0,0,.7.7,1,1,0,0,0,1-.67.88.88,0,0,0,0-.27Z" transform="translate(0.23)"/><path class="cls-3" d="M18.14,21.73c0-.66,0-1.13,0-1.57h1.07l0,.93h0a1.45,1.45,0,0,1,1.33-1,1.29,1.29,0,0,1,.29,0v1.16a1.71,1.71,0,0,0-.36,0,1.08,1.08,0,0,0-1.1.93,2.11,2.11,0,0,0,0,.38V25H18.14Z" transform="translate(0.23)"/><path class="cls-3" d="M24,21.94v.85H21.45v-.85Z" transform="translate(0.23)"/><path class="cls-3" d="M25.16,18.38A13.17,13.17,0,0,1,27,18.25a3.13,3.13,0,0,1,2.08.53,1.71,1.71,0,0,1,.58,1.35,1.8,1.8,0,0,1-1.22,1.69v0a1.72,1.72,0,0,1,.94,1.3A13.45,13.45,0,0,0,29.93,25H28.66a9.52,9.52,0,0,1-.45-1.59c-.19-.88-.51-1.16-1.21-1.18h-.62V25H25.16Zm1.22,3h.73c.83,0,1.35-.44,1.35-1.11s-.52-1.08-1.32-1.08a3.54,3.54,0,0,0-.76.06Z" transform="translate(0.23)"/><path class="cls-3" d="M31.84,22.94a1.32,1.32,0,0,0,1.5,1.26A3.66,3.66,0,0,0,34.69,24l.18.85a4.59,4.59,0,0,1-1.7.3,2.3,2.3,0,0,1-2.51-2.46A2.41,2.41,0,0,1,33,20.05a2.12,2.12,0,0,1,2.1,2.37,3,3,0,0,1,0,.52ZM34,22.08a1,1,0,0,0-1-1.19,1.2,1.2,0,0,0-1.13,1.19Z" transform="translate(0.23)"/><path class="cls-3" d="M40.76,17.94v5.72c0,.5,0,1,0,1.37H39.7l-.05-.77h0a1.75,1.75,0,0,1-1.59.88A2.23,2.23,0,0,1,36,22.65a2.32,2.32,0,0,1,2.18-2.6,1.55,1.55,0,0,1,1.37.64h0V17.94Zm-1.23,4.25a1.73,1.73,0,0,0,0-.32A1.08,1.08,0,0,0,38.44,21c-.79,0-1.23.7-1.23,1.61s.44,1.54,1.22,1.54a1.08,1.08,0,0,0,1.06-.87,1.37,1.37,0,0,0,0-.36Z" transform="translate(0.23)"/><path class="cls-3" d="M44.6,18.29h1.23V24H48.6v1h-4Z" transform="translate(0.23)"/><path class="cls-3" d="M50.93,18.8a.69.69,0,1,1-.69-.66A.65.65,0,0,1,50.93,18.8ZM49.62,25V20.16h1.24V25Z" transform="translate(0.23)"/><path class="cls-3" d="M56.77,20.16c0,.33,0,.73,0,1.4v2.76A2.82,2.82,0,0,1,56,26.53a2.8,2.8,0,0,1-1.88.59,3.45,3.45,0,0,1-1.7-.39l.27-.93a2.94,2.94,0,0,0,1.42.37,1.29,1.29,0,0,0,1.4-1.47v-.42h0a1.64,1.64,0,0,1-1.42.72A2.16,2.16,0,0,1,52,22.62a2.33,2.33,0,0,1,2.21-2.57,1.53,1.53,0,0,1,1.41.76h0l.05-.65ZM55.5,22.11a1.19,1.19,0,0,0,0-.33,1,1,0,0,0-1-.79c-.69,0-1.2.6-1.2,1.59,0,.83.42,1.5,1.19,1.5a1.05,1.05,0,0,0,1-.74,2.12,2.12,0,0,0,0-.44Z" transform="translate(0.23)"/><path class="cls-3" d="M58.19,17.94h1.24v2.89h0a1.65,1.65,0,0,1,.61-.56,1.67,1.67,0,0,1,.84-.22c.83,0,1.7.55,1.7,2.11V25H61.37V22.3c0-.71-.26-1.24-.94-1.24a1,1,0,0,0-1,.69,1,1,0,0,0,0,.37V25H58.19Z" transform="translate(0.23)"/><path class="cls-3" d="M65.41,18.77v1.39h1.17v.92H65.41v2.15c0,.59.16.9.63.9a1.82,1.82,0,0,0,.48-.06l0,.94a2.7,2.7,0,0,1-.89.12,1.42,1.42,0,0,1-1.06-.4,1.94,1.94,0,0,1-.38-1.36V21.08h-.7v-.92h.7v-1.1Z" transform="translate(0.23)"/><path class="cls-3" d="M71.28,18.8a.69.69,0,1,1-.69-.66A.65.65,0,0,1,71.28,18.8ZM70,25V20.16h1.24V25Z" transform="translate(0.23)"/><path class="cls-3" d="M72.67,21.61c0-.56,0-1,0-1.45h1.08l.06.73h0a1.76,1.76,0,0,1,1.55-.84c.85,0,1.73.55,1.73,2.09V25H75.85V22.28c0-.7-.26-1.23-.93-1.23a1,1,0,0,0-1,.72,1.25,1.25,0,0,0,0,.4V25H72.67Z" transform="translate(0.23)"/><path class="cls-3" d="M80.87,23.69a3.41,3.41,0,0,0,1.63.43c.79,0,1.23-.37,1.23-.92s-.34-.81-1.2-1.12c-1.11-.4-1.82-1-1.82-2s.92-1.93,2.38-1.93a3.58,3.58,0,0,1,1.62.33l-.3,1a2.85,2.85,0,0,0-1.34-.32c-.78,0-1.12.42-1.12.81s.39.76,1.29,1.11c1.17.44,1.74,1,1.74,2s-.82,2-2.56,2a4,4,0,0,1-1.82-.42Z" transform="translate(0.23)"/><path class="cls-3" d="M87.11,22.94a1.32,1.32,0,0,0,1.5,1.26A3.66,3.66,0,0,0,90,24l.18.85a4.59,4.59,0,0,1-1.7.3,2.3,2.3,0,0,1-2.51-2.46,2.41,2.41,0,0,1,2.38-2.62,2.12,2.12,0,0,1,2.1,2.37,3,3,0,0,1,0,.52Zm2.14-.86a1,1,0,0,0-1-1.19,1.2,1.2,0,0,0-1.13,1.19Z" transform="translate(0.23)"/><path class="cls-3" d="M94.8,24.36h0a1.69,1.69,0,0,1-1.51.78,2.21,2.21,0,0,1-2-2.47,2.33,2.33,0,0,1,2.18-2.62,1.53,1.53,0,0,1,1.42.75h0l0-.65h1.19c0,.44,0,.9,0,1.41V27H94.8Zm0-2.19a1.45,1.45,0,0,0,0-.3,1.08,1.08,0,0,0-1-.85c-.79,0-1.24.67-1.24,1.59s.43,1.56,1.21,1.56a1.08,1.08,0,0,0,1-.81A1.26,1.26,0,0,0,94.8,23Z" transform="translate(0.23)"/><path class="cls-3" d="M101.85,23.57c0,.58,0,1.06,0,1.46h-1.08l-.06-.74h0a1.76,1.76,0,0,1-1.56.85c-.89,0-1.7-.53-1.7-2.12V20.16H98.7v2.65c0,.81.26,1.33.91,1.33a1,1,0,0,0,.94-.66,1.12,1.12,0,0,0,.07-.38V20.16h1.23Z" transform="translate(0.23)"/><path class="cls-3" d="M104.19,22.94a1.32,1.32,0,0,0,1.5,1.26A3.66,3.66,0,0,0,107,24l.18.85a4.59,4.59,0,0,1-1.7.3A2.3,2.3,0,0,1,103,22.67a2.41,2.41,0,0,1,2.38-2.62,2.12,2.12,0,0,1,2.1,2.37,3,3,0,0,1,0,.52Zm2.14-.86a1,1,0,0,0-1-1.19,1.2,1.2,0,0,0-1.13,1.19Z" transform="translate(0.23)"/><path class="cls-3" d="M108.62,21.61c0-.56,0-1,0-1.45h1.08l.06.73h0a1.76,1.76,0,0,1,1.55-.84c.85,0,1.73.55,1.73,2.09V25H111.8V22.28c0-.7-.26-1.23-.93-1.23a1,1,0,0,0-1,.72,1.25,1.25,0,0,0,0,.4V25h-1.24Z" transform="translate(0.23)"/><path class="cls-3" d="M118.06,24.88a3.56,3.56,0,0,1-1.38.25,2.34,2.34,0,0,1-2.51-2.48,2.52,2.52,0,0,1,2.71-2.6,3.07,3.07,0,0,1,1.19.23l-.22.92a2.17,2.17,0,0,0-.93-.19,1.45,1.45,0,0,0-1.49,1.58,1.44,1.44,0,0,0,1.49,1.57,2.41,2.41,0,0,0,1-.19Z" transform="translate(0.23)"/><path class="cls-3" d="M119.89,22.94a1.32,1.32,0,0,0,1.5,1.26,3.66,3.66,0,0,0,1.35-.22l.18.85a4.59,4.59,0,0,1-1.7.3,2.3,2.3,0,0,1-2.51-2.46,2.41,2.41,0,0,1,2.38-2.62,2.12,2.12,0,0,1,2.1,2.37,3,3,0,0,1,0,.52Zm2.14-.86a1,1,0,0,0-1-1.19,1.2,1.2,0,0,0-1.13,1.19Z" transform="translate(0.23)"/><path class="cls-3" d="M14.16,45.32a3,3,0,0,0,1.47.39c.71,0,1.11-.33,1.11-.83s-.31-.73-1.08-1c-1-.36-1.64-.9-1.64-1.77s.83-1.75,2.14-1.75a3.24,3.24,0,0,1,1.46.31l-.27.89a2.55,2.55,0,0,0-1.21-.29c-.7,0-1,.38-1,.73s.36.69,1.17,1c1.05.4,1.56.93,1.56,1.8s-.74,1.82-2.3,1.82a3.57,3.57,0,0,1-1.64-.38Z" transform="translate(0.23)"/><path class="cls-3" d="M22.56,43.84H20.27v1.78h2.56v.91H19.17V40.46h3.52v.91H20.27v1.57h2.29Z" transform="translate(0.23)"/><path class="cls-3" d="M29.22,47.5a22.69,22.69,0,0,1-2.37-.78,1.83,1.83,0,0,0-.39-.09,2.81,2.81,0,0,1-2.66-3.08,2.91,2.91,0,0,1,2.9-3.19,2.8,2.8,0,0,1,2.8,3.07,2.83,2.83,0,0,1-1.57,2.8v0c.53.15,1.11.27,1.61.37Zm-.89-4c0-1.16-.57-2.22-1.67-2.22S25,42.31,25,43.52s.61,2.22,1.68,2.22S28.33,44.75,28.33,43.48Z" transform="translate(0.23)"/><path class="cls-3" d="M31.86,40.46V44c0,1.19.49,1.74,1.24,1.74s1.28-.55,1.28-1.74V40.46h1.1v3.47c0,1.87-1,2.7-2.42,2.7s-2.31-.78-2.31-2.69V40.46Z" transform="translate(0.23)"/><path class="cls-3" d="M40.45,43.84H38.17v1.78h2.55v.91H37.06V40.46h3.53v.91H38.17v1.57h2.28Z" transform="translate(0.23)"/><path class="cls-3" d="M42,46.53V40.46h1.26l1.57,2.61a16.87,16.87,0,0,1,1,2h0c-.07-.81-.1-1.59-.1-2.52V40.46h1v6.07H45.66l-1.58-2.66A22.1,22.1,0,0,1,43,41.77h0c0,.78.06,1.58.06,2.58v2.17Z" transform="translate(0.23)"/><path class="cls-3" d="M52.74,46.35a3.76,3.76,0,0,1-1.57.27,2.86,2.86,0,0,1-3.1-3,3.06,3.06,0,0,1,3.25-3.21,3.58,3.58,0,0,1,1.47.27l-.24.89a2.9,2.9,0,0,0-1.19-.24,2,2,0,0,0-2.12,2.24,2,2,0,0,0,2.11,2.18,3.23,3.23,0,0,0,1.21-.22Z" transform="translate(0.23)"/><path class="cls-3" d="M57.38,43.84H55.09v1.78h2.56v.91H54V40.46h3.53v.91H55.09v1.57h2.29Z" transform="translate(0.23)"/><path class="cls-3" d="M66.39,43.43a2.87,2.87,0,0,1-2.91,3.2,2.81,2.81,0,0,1-2.79-3.09,2.91,2.91,0,0,1,2.88-3.18A2.8,2.8,0,0,1,66.39,43.43Zm-4.53.09c0,1.24.62,2.22,1.69,2.22s1.67-1,1.67-2.26-.57-2.22-1.67-2.22S61.86,42.27,61.86,43.52Z" transform="translate(0.23)"/><path class="cls-3" d="M67.69,40.46h3.5v.91h-2.4v1.68H71V44H68.79v2.57h-1.1Z" transform="translate(0.23)"/><path class="cls-3" d="M212.2,45.32a3,3,0,0,0,1.47.39c.71,0,1.1-.33,1.1-.83s-.3-.73-1.08-1c-1-.36-1.64-.9-1.64-1.77s.83-1.75,2.15-1.75a3.27,3.27,0,0,1,1.46.31l-.28.89a2.47,2.47,0,0,0-1.2-.29c-.7,0-1,.38-1,.73s.35.69,1.16,1c1,.4,1.57.93,1.57,1.8s-.74,1.82-2.31,1.82a3.53,3.53,0,0,1-1.63-.38Z" transform="translate(0.23)"/><path class="cls-3" d="M220.6,43.84h-2.29v1.78h2.56v.91H217.2V40.46h3.53v.91h-2.42v1.57h2.29Z" transform="translate(0.23)"/><path class="cls-3" d="M225.54,43.84h-2.29v1.78h2.56v.91h-3.67V40.46h3.53v.91h-2.42v1.57h2.29Z" transform="translate(0.23)"/><path class="cls-3" d="M227.08,40.54a11.45,11.45,0,0,1,1.77-.12,3.66,3.66,0,0,1,2.47.7,2.71,2.71,0,0,1,1,2.23,3.16,3.16,0,0,1-1,2.42,4,4,0,0,1-2.74.82,11.28,11.28,0,0,1-1.5-.08Zm1.11,5.15a5.54,5.54,0,0,0,.61,0,2.08,2.08,0,0,0,2.3-2.32A1.93,1.93,0,0,0,229,41.28a3.23,3.23,0,0,0-.76.07Z" transform="translate(0.23)"/><path class="cls-3" d="M14.18,53h1.11V58.1h2.49V59h-3.6Z" transform="translate(0.23)"/><path class="cls-3" d="M20,53V59H18.92V53Z" transform="translate(0.23)"/><path class="cls-3" d="M26.47,58.75a5.88,5.88,0,0,1-2,.35,3.29,3.29,0,0,1-2.37-.81,3,3,0,0,1-.85-2.24,3.08,3.08,0,0,1,3.38-3.15,4,4,0,0,1,1.61.29l-.25.89a3.28,3.28,0,0,0-1.37-.26A2,2,0,0,0,22.45,56a2,2,0,0,0,2.11,2.19,2.25,2.25,0,0,0,.84-.12V56.56H24.32v-.88h2.15Z" transform="translate(0.23)"/><path class="cls-3" d="M29,53V55.4h2.57V53h1.1V59h-1.1V56.36H29V59H27.91V53Z" transform="translate(0.23)"/><path class="cls-3" d="M35.43,53.89H33.7V53h4.58v.93H36.54V59H35.43Z" transform="translate(0.23)"/><path class="cls-3" d="M44.79,56.34H42.5v1.78h2.56V59H41.4V53h3.52v.91H42.5v1.57h2.29Z" transform="translate(0.23)"/><path class="cls-3" d="M49.59,59l-.66-1.2c-.26-.47-.43-.8-.6-1.15h0c-.14.35-.31.68-.55,1.15l-.6,1.2H45.88L47.68,56,46,53h1.27l.66,1.26c.2.37.34.67.5,1h0c.16-.38.29-.65.48-1L49.52,53h1.27l-1.77,3L50.87,59Z" transform="translate(0.23)"/><path class="cls-3" d="M52,53.05a8.87,8.87,0,0,1,1.69-.13,2.75,2.75,0,0,1,1.79.49,1.74,1.74,0,0,1,.6,1.35,1.83,1.83,0,0,1-.52,1.37,2.71,2.71,0,0,1-1.92.65,4.06,4.06,0,0,1-.54,0V59H52Zm1.1,2.82a2,2,0,0,0,.54.05c.83,0,1.33-.41,1.33-1.12s-.47-1-1.23-1a2.93,2.93,0,0,0-.64,0Z" transform="translate(0.23)"/><path class="cls-3" d="M62.71,55.94a2.86,2.86,0,0,1-2.91,3.19A2.8,2.8,0,0,1,57,56a2.9,2.9,0,0,1,2.88-3.17A2.8,2.8,0,0,1,62.71,55.94ZM58.18,56c0,1.23.62,2.21,1.69,2.21s1.67-1,1.67-2.26-.57-2.22-1.67-2.22S58.18,54.77,58.18,56Z" transform="translate(0.23)"/><path class="cls-3" d="M64,57.83a3.15,3.15,0,0,0,1.47.38c.71,0,1.1-.33,1.1-.83s-.3-.72-1.08-1c-1-.36-1.63-.89-1.63-1.77s.82-1.74,2.14-1.74a3.26,3.26,0,0,1,1.46.3l-.27.89a2.68,2.68,0,0,0-1.21-.29c-.7,0-1,.38-1,.73s.35.69,1.16,1c1.06.4,1.57.93,1.57,1.8s-.74,1.82-2.3,1.82a3.57,3.57,0,0,1-1.64-.38Z" transform="translate(0.23)"/><path class="cls-3" d="M70.05,53V56.5c0,1.19.5,1.74,1.24,1.74s1.28-.55,1.28-1.74V53h1.11v3.47c0,1.87-1,2.7-2.42,2.7s-2.32-.78-2.32-2.69V53Z" transform="translate(0.23)"/><path class="cls-3" d="M75.25,53.05a9.71,9.71,0,0,1,1.68-.13,2.76,2.76,0,0,1,1.87.49,1.52,1.52,0,0,1,.52,1.21,1.61,1.61,0,0,1-1.1,1.52v0a1.51,1.51,0,0,1,.85,1.17A11.24,11.24,0,0,0,79.55,59H78.4A8.5,8.5,0,0,1,78,57.6c-.17-.79-.46-1-1.09-1.06h-.56V59h-1.1Zm1.1,2.68H77c.75,0,1.21-.4,1.21-1s-.46-1-1.18-1a3.1,3.1,0,0,0-.69.05Z" transform="translate(0.23)"/><path class="cls-3" d="M84.07,56.34H81.79v1.78h2.55V59H80.68V53h3.53v.91H81.79v1.57h2.28Z" transform="translate(0.23)"/><path class="cls-3" d="M191.93,58.75a5.81,5.81,0,0,1-2,.35,3.32,3.32,0,0,1-2.38-.81,3.22,3.22,0,0,1,2.53-5.39,3.92,3.92,0,0,1,1.61.29l-.24.89a3.33,3.33,0,0,0-1.38-.26,2,2,0,0,0-2.2,2.18,2,2,0,0,0,2.1,2.19,2.18,2.18,0,0,0,.84-.12V56.56h-1.07v-.88h2.14Z" transform="translate(0.23)"/><path class="cls-3" d="M196.76,56.34h-2.28v1.78H197V59h-3.66V53h3.53v.91h-2.42v1.57h2.28Z" transform="translate(0.23)"/><path class="cls-3" d="M198.31,53.05a9.71,9.71,0,0,1,1.68-.13,2.77,2.77,0,0,1,1.87.49,1.52,1.52,0,0,1,.52,1.21,1.61,1.61,0,0,1-1.1,1.52v0a1.53,1.53,0,0,1,.85,1.17,11.24,11.24,0,0,0,.48,1.69h-1.15a8.5,8.5,0,0,1-.4-1.43c-.17-.79-.46-1-1.09-1.06h-.56V59h-1.1Zm1.1,2.68h.66c.74,0,1.21-.4,1.21-1s-.47-1-1.19-1a3,3,0,0,0-.68.05Z" transform="translate(0.23)"/><path class="cls-3" d="M208.87,56.56c0-.79-.08-1.73-.07-2.55h0c-.2.74-.45,1.56-.72,2.32L207.17,59h-.86l-.81-2.59c-.23-.78-.45-1.6-.61-2.36h0c0,.79-.06,1.75-.11,2.58L204.63,59h-1L204,53h1.46l.79,2.44c.22.72.4,1.44.56,2.11h0c.17-.66.37-1.4.61-2.11l.84-2.44h1.44l.35,6.07H209Z" transform="translate(0.23)"/><path class="cls-3" d="M212.6,53V59h-1.1V53Z" transform="translate(0.23)"/><path class="cls-3" d="M214.18,59V53h1.26L217,55.57a15.62,15.62,0,0,1,1,2h0c-.07-.81-.1-1.59-.1-2.52V53h1V59h-1.14l-1.58-2.66a20,20,0,0,1-1.09-2.1h0c.05.78.05,1.58.05,2.58V59Z" transform="translate(0.23)"/><path class="cls-3" d="M221.79,57.31,221.27,59h-1.14L222.07,53h1.41l2,6.07h-1.19l-.55-1.72Zm1.74-.83-.48-1.5c-.11-.37-.21-.78-.3-1.13h0c-.09.35-.18.77-.29,1.13l-.47,1.5Z" transform="translate(0.23)"/><path class="cls-3" d="M227.05,53.89h-1.73V53h4.58v.93h-1.74V59h-1.11Z" transform="translate(0.23)"/><path class="cls-3" d="M232,53V59h-1.11V53Zm7,3a2.87,2.87,0,0,1-2.9,3.19,2.81,2.81,0,0,1-2.8-3.09,2.91,2.91,0,0,1,2.89-3.18A2.81,2.81,0,0,1,239,55.94Zm-4.53.08c0,1.24.62,2.22,1.68,2.22s1.68-1,1.68-2.27-.57-2.22-1.68-2.22S234.46,54.77,234.46,56Zm5.78,3V53h1.27l1.57,2.61a18.47,18.47,0,0,1,1,2h0a25,25,0,0,1-.1-2.52V53h1V59h-1.15l-1.59-2.67a21.83,21.83,0,0,1-1.08-2.09h0c.05.78.07,1.58.07,2.58V59Zm10.31-6.58a7.1,7.1,0,0,0,0,7.3h-.8a6.06,6.06,0,0,1-1.1-3.63,6.2,6.2,0,0,1,1.1-3.67Zm3.74,2.37c0,1.23-.72,1.86-1.52,1.86a1.56,1.56,0,0,1-1.5-1.76,1.63,1.63,0,0,1,1.55-1.84C253.73,53.08,254.29,53.77,254.29,54.82Zm-2.17.06c0,.68.24,1.18.67,1.18s.65-.48.65-1.19-.18-1.17-.66-1.17S252.12,54.22,252.12,54.88Zm.66,4.25,3.39-6.05h.64l-3.4,6.05Zm5.55-1.88c0,1.22-.72,1.85-1.53,1.85s-1.48-.63-1.49-1.76a1.62,1.62,0,0,1,1.55-1.83C257.77,55.51,258.33,56.2,258.33,57.25Zm-2.18.06c0,.67.24,1.17.68,1.17s.66-.46.66-1.18-.18-1.17-.67-1.17S256.15,56.66,256.15,57.31Zm2.91,2.44a7.16,7.16,0,0,0,0-7.3h.8A6,6,0,0,1,261,56.1a6.11,6.11,0,0,1-1.09,3.65Z" transform="translate(0.23)"/><path class="cls-3" d="M14.11,70.88a7.38,7.38,0,0,1,1.42-.12,2.28,2.28,0,0,1,1.65.47,1.41,1.41,0,0,1,.45,1.09,1.51,1.51,0,0,1-1.08,1.46v0A1.44,1.44,0,0,1,17.4,75a8.37,8.37,0,0,0,.44,1.57h-.77a7.5,7.5,0,0,1-.38-1.37c-.17-.79-.48-1.08-1.15-1.11h-.69v2.48h-.74Zm.74,2.61h.75c.79,0,1.29-.43,1.29-1.09s-.53-1.06-1.31-1.07a2.65,2.65,0,0,0-.73.07Z" transform="translate(0.23)"/><path class="cls-3" d="M19.22,74.61A1.32,1.32,0,0,0,20.63,76a2.85,2.85,0,0,0,1.14-.21l.13.53a3.27,3.27,0,0,1-1.37.26,1.91,1.91,0,0,1-2-2.08,2,2,0,0,1,1.93-2.22,1.75,1.75,0,0,1,1.7,1.94,2.38,2.38,0,0,1,0,.35Zm2.2-.53a1.08,1.08,0,0,0-1-1.22,1.24,1.24,0,0,0-1.15,1.22Z" transform="translate(0.23)"/><path class="cls-3" d="M26.75,70.5v5c0,.36,0,.78,0,1.06h-.67l0-.71h0a1.52,1.52,0,0,1-1.41.8,1.87,1.87,0,0,1-1.75-2.09,2,2,0,0,1,1.84-2.21A1.38,1.38,0,0,1,26,73h0V70.5ZM26,74.09a1.18,1.18,0,0,0-1.12-1.18c-.77,0-1.23.68-1.23,1.59S24.06,76,24.87,76A1.2,1.2,0,0,0,26,74.81Z" transform="translate(0.23)"/><path class="cls-3" d="M221.58,71v.49l-2.4,5h-.78l2.4-4.89h-2.7V71Z" transform="translate(0.23)"/><path class="cls-3" d="M226.16,73.71c0,1.88-.7,2.91-1.93,2.91-1.07,0-1.81-1-1.82-2.83s.8-2.88,1.92-2.88S226.16,72,226.16,73.71Zm-3,.08c0,1.44.44,2.26,1.12,2.26s1.13-.9,1.13-2.31-.35-2.25-1.12-2.25S223.16,72.29,223.16,73.79Z" transform="translate(0.23)"/><path class="cls-3" d="M14.11,85.38a7.38,7.38,0,0,1,1.42-.12,2.33,2.33,0,0,1,1.65.47,1.41,1.41,0,0,1,.45,1.09,1.51,1.51,0,0,1-1.08,1.46v0a1.44,1.44,0,0,1,.85,1.16A8.37,8.37,0,0,0,17.84,91h-.77a7.5,7.5,0,0,1-.38-1.37c-.17-.79-.48-1.08-1.15-1.11h-.69V91h-.74ZM14.85,88h.75c.79,0,1.29-.43,1.29-1.09s-.53-1.06-1.31-1.07a2.65,2.65,0,0,0-.73.07Z" transform="translate(0.23)"/><path class="cls-3" d="M19.22,89.11a1.32,1.32,0,0,0,1.41,1.43,2.68,2.68,0,0,0,1.14-.21l.13.53a3.27,3.27,0,0,1-1.37.26,1.91,1.91,0,0,1-2-2.08,2,2,0,0,1,1.93-2.21,1.74,1.74,0,0,1,1.7,1.93,2.25,2.25,0,0,1,0,.35Zm2.2-.53a1.08,1.08,0,0,0-1-1.22,1.24,1.24,0,0,0-1.15,1.22Z" transform="translate(0.23)"/><path class="cls-3" d="M26.75,85v5c0,.37,0,.78,0,1.06h-.67l0-.71h0a1.52,1.52,0,0,1-1.41.81A1.88,1.88,0,0,1,22.9,89a2,2,0,0,1,1.84-2.21,1.37,1.37,0,0,1,1.24.62h0V85ZM26,88.59a1.18,1.18,0,0,0-1.12-1.18c-.77,0-1.23.68-1.23,1.59s.41,1.52,1.22,1.52A1.11,1.11,0,0,0,26,89.63a1.08,1.08,0,0,0,0-.32Z" transform="translate(0.23)"/><path class="cls-3" d="M27.54,92.08a12.56,12.56,0,0,0,.5-2l.84-.09A10.64,10.64,0,0,1,28.07,92Z" transform="translate(0.23)"/><path class="cls-3" d="M32,91V87.49h-.58v-.57H32v-.2a2,2,0,0,1,.47-1.43,1.42,1.42,0,0,1,1-.39,1.67,1.67,0,0,1,.63.12l-.1.58a1.12,1.12,0,0,0-.47-.09c-.64,0-.8.56-.8,1.19v.22h1v.57h-1V91Z" transform="translate(0.23)"/><path class="cls-3" d="M36.81,91l-.06-.52h0a1.51,1.51,0,0,1-1.25.62,1.17,1.17,0,0,1-1.26-1.19c0-1,.88-1.53,2.47-1.53v-.08a.84.84,0,0,0-.93-1,2.13,2.13,0,0,0-1.08.3l-.17-.49a2.59,2.59,0,0,1,1.36-.36c1.25,0,1.56.85,1.56,1.68v1.54a5.86,5.86,0,0,0,.07,1Zm-.11-2.1c-.82,0-1.74.13-1.74.93a.66.66,0,0,0,.7.71,1,1,0,0,0,1-.69.93.93,0,0,0,0-.23Z" transform="translate(0.23)"/><path class="cls-3" d="M38.75,88.2c0-.48,0-.9,0-1.28h.66l0,.81h0a1.21,1.21,0,0,1,1.13-.9.75.75,0,0,1,.22,0v.71a1,1,0,0,0-.26,0,1,1,0,0,0-1,1,1.78,1.78,0,0,0,0,.35V91h-.74Z" transform="translate(0.23)"/><path class="cls-3" d="M43.35,88.46V89h-2.1v-.55Z" transform="translate(0.23)"/><path class="cls-3" d="M44.35,88.2c0-.48,0-.9,0-1.28H45l0,.81h0a1.22,1.22,0,0,1,1.14-.9.71.71,0,0,1,.21,0v.71a1,1,0,0,0-.26,0,1.05,1.05,0,0,0-1,1,1.83,1.83,0,0,0,0,.35V91h-.74Z" transform="translate(0.23)"/><path class="cls-3" d="M47.58,89.11A1.32,1.32,0,0,0,49,90.54a2.72,2.72,0,0,0,1.14-.21l.12.53a3.26,3.26,0,0,1-1.36.26,1.92,1.92,0,0,1-2-2.08,2,2,0,0,1,1.93-2.21,1.74,1.74,0,0,1,1.7,1.93,2.61,2.61,0,0,1,0,.35Zm2.19-.53a1.06,1.06,0,0,0-1-1.22,1.24,1.24,0,0,0-1.14,1.22Z" transform="translate(0.23)"/><path class="cls-3" d="M55.1,85v5c0,.37,0,.78,0,1.06h-.67l0-.71h0a1.52,1.52,0,0,1-1.4.81A1.88,1.88,0,0,1,51.25,89a2,2,0,0,1,1.84-2.21,1.36,1.36,0,0,1,1.24.62h0V85Zm-.75,3.59a1.63,1.63,0,0,0,0-.31,1.1,1.1,0,0,0-1.08-.87c-.78,0-1.23.68-1.23,1.59s.4,1.52,1.21,1.52a1.13,1.13,0,0,0,1.1-.89,1.58,1.58,0,0,0,0-.32Z" transform="translate(0.23)"/><path class="cls-3" d="M225.64,86a2.88,2.88,0,0,0-.56,0,2.24,2.24,0,0,0-1.93,2h0a1.68,1.68,0,0,1,3,1.15,1.85,1.85,0,0,1-1.84,1.95c-1.18,0-2-.92-2-2.36a3.49,3.49,0,0,1,.93-2.49,3,3,0,0,1,1.77-.81,3.09,3.09,0,0,1,.55,0Zm-.22,3.19A1.12,1.12,0,0,0,224.29,88a1.24,1.24,0,0,0-1.08.68.62.62,0,0,0-.08.33c0,.91.43,1.58,1.21,1.58S225.42,90,225.42,89.22Z" transform="translate(0.23)"/><path class="cls-3" d="M14.11,99.88a7.38,7.38,0,0,1,1.42-.12,2.33,2.33,0,0,1,1.65.47,1.42,1.42,0,0,1,.45,1.09,1.5,1.5,0,0,1-1.08,1.46v0A1.42,1.42,0,0,1,17.4,104a8.37,8.37,0,0,0,.44,1.57h-.77a7.57,7.57,0,0,1-.38-1.36c-.17-.8-.48-1.09-1.15-1.12h-.69v2.48h-.74Zm.74,2.61h.75c.79,0,1.29-.43,1.29-1.09s-.53-1.06-1.31-1.07a3.14,3.14,0,0,0-.73.07Z" transform="translate(0.23)"/><path class="cls-3" d="M19.22,103.61A1.32,1.32,0,0,0,20.63,105a2.68,2.68,0,0,0,1.14-.21l.13.53a3.27,3.27,0,0,1-1.37.26,1.91,1.91,0,0,1-2-2.08,2,2,0,0,1,1.93-2.21,1.74,1.74,0,0,1,1.7,1.93,2.25,2.25,0,0,1,0,.35Zm2.2-.53a1.08,1.08,0,0,0-1-1.22,1.24,1.24,0,0,0-1.15,1.22Z" transform="translate(0.23)"/><path class="cls-3" d="M26.75,99.5v5c0,.37,0,.78,0,1.06h-.67l0-.71h0a1.52,1.52,0,0,1-1.41.81,1.87,1.87,0,0,1-1.75-2.09,2,2,0,0,1,1.84-2.21A1.36,1.36,0,0,1,26,102h0V99.5ZM26,103.09a1.18,1.18,0,0,0-1.12-1.18c-.77,0-1.23.68-1.23,1.59s.41,1.52,1.22,1.52a1.11,1.11,0,0,0,1.09-.89,1.08,1.08,0,0,0,0-.32Z" transform="translate(0.23)"/><path class="cls-3" d="M27.54,106.58a12.56,12.56,0,0,0,.5-2l.84-.09a10.64,10.64,0,0,1-.81,2.07Z" transform="translate(0.23)"/><path class="cls-3" d="M32,105.53V102h-.58v-.57H32v-.2a2,2,0,0,1,.47-1.43,1.45,1.45,0,0,1,1-.38,1.7,1.7,0,0,1,.63.11l-.1.58a1.12,1.12,0,0,0-.47-.09c-.64,0-.8.56-.8,1.19v.22h1V102h-1v3.54Z" transform="translate(0.23)"/><path class="cls-3" d="M36.81,105.53l-.06-.52h0a1.51,1.51,0,0,1-1.25.62,1.17,1.17,0,0,1-1.26-1.18c0-1,.88-1.54,2.47-1.53v-.09a.84.84,0,0,0-.93-1,2.13,2.13,0,0,0-1.08.3l-.17-.49a2.59,2.59,0,0,1,1.36-.36c1.25,0,1.56.85,1.56,1.68v1.54a5.86,5.86,0,0,0,.07,1Zm-.11-2.1c-.82,0-1.74.13-1.74.93a.66.66,0,0,0,.7.71,1,1,0,0,0,1-.68,1.09,1.09,0,0,0,0-.24Z" transform="translate(0.23)"/><path class="cls-3" d="M38.75,102.7c0-.48,0-.9,0-1.28h.66l0,.81h0a1.21,1.21,0,0,1,1.13-.9.75.75,0,0,1,.22,0v.71a1,1,0,0,0-.26,0,1,1,0,0,0-1,1,1.78,1.78,0,0,0,0,.35v2.19h-.74Z" transform="translate(0.23)"/><path class="cls-3" d="M43.35,103v.55h-2.1V103Z" transform="translate(0.23)"/><path class="cls-3" d="M44.35,102.7c0-.48,0-.9,0-1.28H45l0,.81h0a1.22,1.22,0,0,1,1.14-.9.71.71,0,0,1,.21,0v.71a1,1,0,0,0-.26,0,1.05,1.05,0,0,0-1,1,1.83,1.83,0,0,0,0,.35v2.19h-.74Z" transform="translate(0.23)"/><path class="cls-3" d="M47.58,103.61A1.32,1.32,0,0,0,49,105a2.72,2.72,0,0,0,1.14-.21l.12.53a3.26,3.26,0,0,1-1.36.26,1.91,1.91,0,0,1-2-2.08,2,2,0,0,1,1.93-2.21,1.74,1.74,0,0,1,1.7,1.93,2.61,2.61,0,0,1,0,.35Zm2.19-.53a1.06,1.06,0,0,0-1-1.22,1.24,1.24,0,0,0-1.14,1.22Z" transform="translate(0.23)"/><path class="cls-3" d="M55.1,99.5v5c0,.37,0,.78,0,1.06h-.67l0-.71h0a1.52,1.52,0,0,1-1.4.81,1.87,1.87,0,0,1-1.76-2.09,2,2,0,0,1,1.84-2.21,1.35,1.35,0,0,1,1.24.63h0V99.5Zm-.75,3.59a1.63,1.63,0,0,0,0-.31,1.1,1.1,0,0,0-1.08-.87c-.78,0-1.23.68-1.23,1.59s.4,1.52,1.21,1.52a1.13,1.13,0,0,0,1.1-.89,1.58,1.58,0,0,0,0-.32Z" transform="translate(0.23)"/><path class="cls-3" d="M55.89,106.58a11.58,11.58,0,0,0,.51-2l.83-.09a10.68,10.68,0,0,1-.8,2.07Z" transform="translate(0.23)"/><path class="cls-3" d="M60.28,102.7c0-.48,0-.9,0-1.28h.66l0,.81h0a1.21,1.21,0,0,1,1.14-.9.71.71,0,0,1,.21,0v.71a1,1,0,0,0-.26,0,1.05,1.05,0,0,0-1,1,1.83,1.83,0,0,0,0,.35v2.19h-.74Z" transform="translate(0.23)"/><path class="cls-3" d="M63.51,103.61A1.32,1.32,0,0,0,64.92,105a2.72,2.72,0,0,0,1.14-.21l.12.53a3.26,3.26,0,0,1-1.36.26,1.91,1.91,0,0,1-2-2.08,2,2,0,0,1,1.93-2.21,1.74,1.74,0,0,1,1.7,1.93,2.61,2.61,0,0,1,0,.35Zm2.19-.53a1.07,1.07,0,0,0-1-1.22,1.25,1.25,0,0,0-1.15,1.22Z" transform="translate(0.23)"/><path class="cls-3" d="M71,99.5v5c0,.37,0,.78,0,1.06h-.67l0-.71h0a1.52,1.52,0,0,1-1.4.81,1.87,1.87,0,0,1-1.76-2.09A2,2,0,0,1,69,101.33a1.35,1.35,0,0,1,1.24.63h0V99.5Zm-.75,3.59a1.63,1.63,0,0,0,0-.31,1.1,1.1,0,0,0-1.08-.87c-.78,0-1.24.68-1.24,1.59s.41,1.52,1.22,1.52a1.13,1.13,0,0,0,1.1-.89,1.58,1.58,0,0,0,0-.32Z" transform="translate(0.23)"/><path class="cls-3" d="M221.58,100v.49l-2.4,5h-.78l2.4-4.88v0h-2.7V100Z" transform="translate(0.23)"/><path class="cls-3" d="M224.8,105.53V104h-2.57v-.49l2.46-3.53h.81v3.43h.77V104h-.77v1.5Zm0-2.09V101.6c0-.29,0-.58,0-.87h0c-.17.32-.31.56-.46.82L223,103.43h1.81Z" transform="translate(0.23)"/><path class="cls-3" d="M14.11,114.38a8.28,8.28,0,0,1,1.42-.12,2.33,2.33,0,0,1,1.65.47,1.44,1.44,0,0,1,.45,1.09,1.49,1.49,0,0,1-1.08,1.46v0a1.42,1.42,0,0,1,.85,1.15,8.37,8.37,0,0,0,.44,1.57h-.77a7.57,7.57,0,0,1-.38-1.36c-.17-.79-.48-1.09-1.15-1.12h-.69V120h-.74Zm.74,2.61h.75c.79,0,1.29-.43,1.29-1.09s-.53-1.06-1.31-1.07a3.14,3.14,0,0,0-.73.07Z" transform="translate(0.23)"/><path class="cls-3" d="M19.22,118.11a1.32,1.32,0,0,0,1.41,1.43,2.68,2.68,0,0,0,1.14-.21l.13.53a3.27,3.27,0,0,1-1.37.26,1.9,1.9,0,0,1-2-2.07,2,2,0,0,1,1.93-2.22,1.74,1.74,0,0,1,1.7,1.94,2.22,2.22,0,0,1,0,.34Zm2.2-.53a1.08,1.08,0,0,0-1-1.22,1.24,1.24,0,0,0-1.15,1.22Z" transform="translate(0.23)"/><path class="cls-3" d="M26.75,114v5c0,.37,0,.78,0,1.06h-.67l0-.71h0a1.52,1.52,0,0,1-1.41.81A1.87,1.87,0,0,1,22.9,118a2,2,0,0,1,1.84-2.21,1.36,1.36,0,0,1,1.24.63h0V114ZM26,117.59a1.18,1.18,0,0,0-1.12-1.18c-.77,0-1.23.68-1.23,1.59s.41,1.52,1.22,1.52a1.11,1.11,0,0,0,1.09-.89,1.08,1.08,0,0,0,0-.32Z" transform="translate(0.23)"/><path class="cls-3" d="M27.54,121.08a12.56,12.56,0,0,0,.5-2l.84-.09a10.39,10.39,0,0,1-.81,2.07Z" transform="translate(0.23)"/><path class="cls-3" d="M32,120v-3.54h-.58v-.57H32v-.19a2,2,0,0,1,.47-1.44,1.45,1.45,0,0,1,1-.38,1.67,1.67,0,0,1,.63.12l-.1.57a1.12,1.12,0,0,0-.47-.09c-.64,0-.8.56-.8,1.19v.22h1v.57h-1V120Z" transform="translate(0.23)"/><path class="cls-3" d="M36.81,120l-.06-.51h0a1.53,1.53,0,0,1-1.25.61A1.17,1.17,0,0,1,34.21,119c0-1,.88-1.54,2.47-1.53v-.09a.84.84,0,0,0-.93-1,2,2,0,0,0-1.08.31l-.17-.5a2.59,2.59,0,0,1,1.36-.36c1.25,0,1.56.86,1.56,1.68v1.54a5.78,5.78,0,0,0,.07,1Zm-.11-2.09c-.82,0-1.74.12-1.74.92a.66.66,0,0,0,.7.72,1,1,0,0,0,1-.69,1,1,0,0,0,0-.24Z" transform="translate(0.23)"/><path class="cls-3" d="M38.75,117.2c0-.48,0-.9,0-1.28h.66l0,.81h0a1.22,1.22,0,0,1,1.13-.9l.22,0v.71a1,1,0,0,0-.26,0,1,1,0,0,0-1,1,1.78,1.78,0,0,0,0,.35V120h-.74Z" transform="translate(0.23)"/><path class="cls-3" d="M43.35,117.46V118h-2.1v-.55Z" transform="translate(0.23)"/><path class="cls-3" d="M44.35,117.2c0-.48,0-.9,0-1.28H45l0,.81h0a1.23,1.23,0,0,1,1.14-.9l.21,0v.71a1,1,0,0,0-.26,0,1.05,1.05,0,0,0-1,1,1.83,1.83,0,0,0,0,.35V120h-.74Z" transform="translate(0.23)"/><path class="cls-3" d="M47.58,118.11A1.31,1.31,0,0,0,49,119.54a2.72,2.72,0,0,0,1.14-.21l.12.53a3.26,3.26,0,0,1-1.36.26,1.91,1.91,0,0,1-2-2.07,2,2,0,0,1,1.93-2.22,1.74,1.74,0,0,1,1.7,1.94,2.56,2.56,0,0,1,0,.34Zm2.19-.53a1.06,1.06,0,0,0-1-1.22,1.24,1.24,0,0,0-1.14,1.22Z" transform="translate(0.23)"/><path class="cls-3" d="M55.1,114v5c0,.37,0,.78,0,1.06h-.67l0-.71h0a1.52,1.52,0,0,1-1.4.81A1.87,1.87,0,0,1,51.25,118a2,2,0,0,1,1.84-2.21,1.35,1.35,0,0,1,1.24.63h0V114Zm-.75,3.59a1.63,1.63,0,0,0,0-.31,1.1,1.1,0,0,0-1.08-.87c-.78,0-1.23.68-1.23,1.59s.4,1.52,1.21,1.52a1.13,1.13,0,0,0,1.1-.89,1.58,1.58,0,0,0,0-.32Z" transform="translate(0.23)"/><path class="cls-3" d="M55.89,121.08a11.58,11.58,0,0,0,.51-2l.83-.09a10.43,10.43,0,0,1-.8,2.07Z" transform="translate(0.23)"/><path class="cls-3" d="M60.28,117.2c0-.48,0-.9,0-1.28h.66l0,.81h0a1.22,1.22,0,0,1,1.14-.9l.21,0v.71a1,1,0,0,0-.26,0,1.05,1.05,0,0,0-1,1,1.83,1.83,0,0,0,0,.35V120h-.74Z" transform="translate(0.23)"/><path class="cls-3" d="M63.51,118.11a1.31,1.31,0,0,0,1.41,1.43,2.72,2.72,0,0,0,1.14-.21l.12.53a3.26,3.26,0,0,1-1.36.26,1.91,1.91,0,0,1-2-2.07,2,2,0,0,1,1.93-2.22,1.74,1.74,0,0,1,1.7,1.94,2.56,2.56,0,0,1,0,.34Zm2.19-.53a1.07,1.07,0,0,0-1-1.22,1.25,1.25,0,0,0-1.15,1.22Z" transform="translate(0.23)"/><path class="cls-3" d="M71,114v5c0,.37,0,.78,0,1.06h-.67l0-.71h0a1.52,1.52,0,0,1-1.4.81A1.87,1.87,0,0,1,67.18,118,2,2,0,0,1,69,115.83a1.35,1.35,0,0,1,1.24.63h0V114Zm-.75,3.59a1.63,1.63,0,0,0,0-.31,1.1,1.1,0,0,0-1.08-.87c-.78,0-1.24.68-1.24,1.59s.41,1.52,1.22,1.52a1.13,1.13,0,0,0,1.1-.89,1.58,1.58,0,0,0,0-.32Z" transform="translate(0.23)"/><path class="cls-3" d="M71.82,121.08a11.58,11.58,0,0,0,.51-2l.83-.09a10.43,10.43,0,0,1-.8,2.07Z" transform="translate(0.23)"/><path class="cls-3" d="M76.28,120v-3.54H75.7v-.57h.58v-.19a1.94,1.94,0,0,1,.48-1.44,1.43,1.43,0,0,1,1-.38,1.78,1.78,0,0,1,.64.12l-.1.57a1.17,1.17,0,0,0-.48-.09c-.64,0-.8.56-.8,1.19v.22h1v.57H77V120Z" transform="translate(0.23)"/><path class="cls-3" d="M81.09,120l-.06-.51h0a1.54,1.54,0,0,1-1.26.61A1.18,1.18,0,0,1,78.49,119c0-1,.89-1.54,2.47-1.53v-.09a.84.84,0,0,0-.93-1,2,2,0,0,0-1.07.31l-.17-.5a2.55,2.55,0,0,1,1.35-.36c1.26,0,1.56.86,1.56,1.68v1.54a5.78,5.78,0,0,0,.07,1ZM81,117.94c-.81,0-1.74.12-1.74.92a.66.66,0,0,0,.71.72,1,1,0,0,0,1-.69,1,1,0,0,0,0-.24Z" transform="translate(0.23)"/><path class="cls-3" d="M83,117.2c0-.48,0-.9,0-1.28h.65l0,.81h0a1.24,1.24,0,0,1,1.14-.9l.21,0v.71a1,1,0,0,0-.25,0,1.06,1.06,0,0,0-1,1,3.27,3.27,0,0,0,0,.35V120H83Z" transform="translate(0.23)"/><path class="cls-3" d="M87.63,117.46V118h-2.1v-.55Z" transform="translate(0.23)"/><path class="cls-3" d="M88.63,117.2c0-.48,0-.9,0-1.28h.65l0,.81h0a1.24,1.24,0,0,1,1.14-.9l.21,0v.71a.9.9,0,0,0-.25,0,1,1,0,0,0-1,1,1.78,1.78,0,0,0,0,.35V120h-.74Z" transform="translate(0.23)"/><path class="cls-3" d="M91.86,118.11a1.32,1.32,0,0,0,1.41,1.43,2.68,2.68,0,0,0,1.14-.21l.13.53a3.27,3.27,0,0,1-1.37.26,1.9,1.9,0,0,1-2-2.07,2,2,0,0,1,1.93-2.22,1.74,1.74,0,0,1,1.7,1.94,2.22,2.22,0,0,1,0,.34Zm2.19-.53a1.06,1.06,0,0,0-1-1.22,1.24,1.24,0,0,0-1.15,1.22Z" transform="translate(0.23)"/><path class="cls-3" d="M99.38,114v5c0,.37,0,.78,0,1.06h-.67l0-.71h0a1.54,1.54,0,0,1-1.41.81A1.88,1.88,0,0,1,95.53,118a2,2,0,0,1,1.85-2.21,1.36,1.36,0,0,1,1.24.63h0V114Zm-.74,3.59a1.18,1.18,0,0,0-1.12-1.18c-.77,0-1.23.68-1.23,1.59s.41,1.52,1.22,1.52a1.11,1.11,0,0,0,1.09-.89,1.08,1.08,0,0,0,0-.32Z" transform="translate(0.23)"/><path class="cls-3" d="M225.64,115a2.81,2.81,0,0,0-.56,0,2.25,2.25,0,0,0-1.93,2h0a1.65,1.65,0,0,1,1.33-.63,1.64,1.64,0,0,1,1.67,1.78,1.85,1.85,0,0,1-1.84,1.95c-1.18,0-2-.92-2-2.36a3.51,3.51,0,0,1,.93-2.49,3,3,0,0,1,1.77-.81,3.09,3.09,0,0,1,.55,0Zm-.22,3.18a1.12,1.12,0,0,0-1.13-1.26,1.24,1.24,0,0,0-1.08.68.62.62,0,0,0-.08.33c0,.91.43,1.58,1.21,1.58S225.42,119,225.42,118.22Z" transform="translate(0.23)"/><path class="cls-3" d="M14.11,128.88a8.28,8.28,0,0,1,1.42-.12,2.33,2.33,0,0,1,1.65.47,1.44,1.44,0,0,1,.45,1.09,1.49,1.49,0,0,1-1.08,1.46v0A1.42,1.42,0,0,1,17.4,133a8.82,8.82,0,0,0,.44,1.58h-.77a8.07,8.07,0,0,1-.38-1.37c-.17-.79-.48-1.09-1.15-1.12h-.69v2.49h-.74Zm.74,2.61h.75c.79,0,1.29-.43,1.29-1.09s-.53-1.06-1.31-1.07a3.14,3.14,0,0,0-.73.07Z" transform="translate(0.23)"/><path class="cls-3" d="M19.22,132.61A1.32,1.32,0,0,0,20.63,134a2.68,2.68,0,0,0,1.14-.21l.13.54a3.48,3.48,0,0,1-1.37.25,1.9,1.9,0,0,1-2-2.07,2,2,0,0,1,1.93-2.22,1.74,1.74,0,0,1,1.7,1.94,2.22,2.22,0,0,1,0,.34Zm2.2-.53a1.08,1.08,0,0,0-1-1.22,1.24,1.24,0,0,0-1.15,1.22Z" transform="translate(0.23)"/><path class="cls-3" d="M26.75,128.5v5c0,.37,0,.78,0,1.07h-.67l0-.72h0a1.52,1.52,0,0,1-1.41.81,1.87,1.87,0,0,1-1.75-2.09,2,2,0,0,1,1.84-2.21A1.38,1.38,0,0,1,26,131h0V128.5ZM26,132.1a1.17,1.17,0,0,0,0-.32,1.1,1.1,0,0,0-1.08-.87c-.77,0-1.23.68-1.23,1.59s.41,1.53,1.22,1.53a1.12,1.12,0,0,0,1.09-.9,1.08,1.08,0,0,0,0-.32Z" transform="translate(0.23)"/><path class="cls-3" d="M27.54,135.58a12.56,12.56,0,0,0,.5-2l.84-.09a10.39,10.39,0,0,1-.81,2.07Z" transform="translate(0.23)"/><path class="cls-3" d="M32,134.54V131h-.58v-.57H32v-.19a2,2,0,0,1,.47-1.44,1.45,1.45,0,0,1,1-.38,1.67,1.67,0,0,1,.63.12l-.1.57a1.12,1.12,0,0,0-.47-.09c-.64,0-.8.56-.8,1.19v.22h1V131h-1v3.55Z" transform="translate(0.23)"/><path class="cls-3" d="M36.81,134.54l-.06-.52h0a1.53,1.53,0,0,1-1.25.61,1.17,1.17,0,0,1-1.26-1.18c0-1,.88-1.54,2.47-1.53v-.09a.84.84,0,0,0-.93-1,2,2,0,0,0-1.08.31l-.17-.5a2.59,2.59,0,0,1,1.36-.36c1.25,0,1.56.86,1.56,1.68v1.54a6,6,0,0,0,.07,1Zm-.11-2.1c-.82,0-1.74.12-1.74.92a.66.66,0,0,0,.7.72,1,1,0,0,0,1-.69,1,1,0,0,0,0-.24Z" transform="translate(0.23)"/><path class="cls-3" d="M38.75,131.71c0-.49,0-.91,0-1.29h.66l0,.81h0a1.22,1.22,0,0,1,1.13-.9l.22,0v.71a1,1,0,0,0-.26,0,1,1,0,0,0-1,1,1.87,1.87,0,0,0,0,.35v2.2h-.74Z" transform="translate(0.23)"/><path class="cls-3" d="M43.35,132v.55h-2.1V132Z" transform="translate(0.23)"/><path class="cls-3" d="M44.35,131.71c0-.49,0-.91,0-1.29H45l0,.81h0a1.23,1.23,0,0,1,1.14-.9l.21,0v.71a1,1,0,0,0-.26,0,1.05,1.05,0,0,0-1,1,1.9,1.9,0,0,0,0,.35v2.2h-.74Z" transform="translate(0.23)"/><path class="cls-3" d="M47.58,132.61A1.31,1.31,0,0,0,49,134a2.72,2.72,0,0,0,1.14-.21l.12.54a3.46,3.46,0,0,1-1.36.25,1.91,1.91,0,0,1-2-2.07,2,2,0,0,1,1.93-2.22,1.74,1.74,0,0,1,1.7,1.94,2.56,2.56,0,0,1,0,.34Zm2.19-.53a1.06,1.06,0,0,0-1-1.22,1.24,1.24,0,0,0-1.14,1.22Z" transform="translate(0.23)"/><path class="cls-3" d="M55.1,128.5v5c0,.37,0,.78,0,1.07h-.67l0-.72h0a1.52,1.52,0,0,1-1.4.81,1.87,1.87,0,0,1-1.76-2.09,2,2,0,0,1,1.84-2.21,1.37,1.37,0,0,1,1.24.63h0V128.5Zm-.75,3.6a1.73,1.73,0,0,0,0-.32,1.11,1.11,0,0,0-1.08-.87c-.78,0-1.23.68-1.23,1.59s.4,1.53,1.21,1.53a1.14,1.14,0,0,0,1.1-.9,1.58,1.58,0,0,0,0-.32Z" transform="translate(0.23)"/><path class="cls-3" d="M55.89,135.58a11.58,11.58,0,0,0,.51-2l.83-.09a10.43,10.43,0,0,1-.8,2.07Z" transform="translate(0.23)"/><path class="cls-3" d="M60.28,131.71c0-.49,0-.91,0-1.29h.66l0,.81h0a1.22,1.22,0,0,1,1.14-.9l.21,0v.71a1,1,0,0,0-.26,0,1.05,1.05,0,0,0-1,1,1.9,1.9,0,0,0,0,.35v2.2h-.74Z" transform="translate(0.23)"/><path class="cls-3" d="M63.51,132.61A1.31,1.31,0,0,0,64.92,134a2.72,2.72,0,0,0,1.14-.21l.12.54a3.46,3.46,0,0,1-1.36.25,1.91,1.91,0,0,1-2-2.07,2,2,0,0,1,1.93-2.22,1.74,1.74,0,0,1,1.7,1.94,2.56,2.56,0,0,1,0,.34Zm2.19-.53a1.07,1.07,0,0,0-1-1.22,1.25,1.25,0,0,0-1.15,1.22Z" transform="translate(0.23)"/><path class="cls-3" d="M71,128.5v5c0,.37,0,.78,0,1.07h-.67l0-.72h0a1.52,1.52,0,0,1-1.4.81,1.87,1.87,0,0,1-1.76-2.09A2,2,0,0,1,69,130.33a1.37,1.37,0,0,1,1.24.63h0V128.5Zm-.75,3.6a1.73,1.73,0,0,0,0-.32,1.11,1.11,0,0,0-1.08-.87c-.78,0-1.24.68-1.24,1.59s.41,1.53,1.22,1.53a1.14,1.14,0,0,0,1.1-.9,1.58,1.58,0,0,0,0-.32Z" transform="translate(0.23)"/><path class="cls-3" d="M71.82,135.58a11.58,11.58,0,0,0,.51-2l.83-.09a10.43,10.43,0,0,1-.8,2.07Z" transform="translate(0.23)"/><path class="cls-3" d="M76.28,134.54V131H75.7v-.57h.58v-.19a1.94,1.94,0,0,1,.48-1.44,1.43,1.43,0,0,1,1-.38,1.78,1.78,0,0,1,.64.12l-.1.57a1.17,1.17,0,0,0-.48-.09c-.64,0-.8.56-.8,1.19v.22h1V131H77v3.55Z" transform="translate(0.23)"/><path class="cls-3" d="M81.09,134.54,81,134h0a1.54,1.54,0,0,1-1.26.61,1.18,1.18,0,0,1-1.26-1.18c0-1,.89-1.54,2.47-1.53v-.09a.84.84,0,0,0-.93-1,2,2,0,0,0-1.07.31l-.17-.5a2.55,2.55,0,0,1,1.35-.36c1.26,0,1.56.86,1.56,1.68v1.54a6,6,0,0,0,.07,1Zm-.11-2.1c-.81,0-1.74.12-1.74.92a.66.66,0,0,0,.71.72,1,1,0,0,0,1-.69,1,1,0,0,0,0-.24Z" transform="translate(0.23)"/><path class="cls-3" d="M83,131.71c0-.49,0-.91,0-1.29h.65l0,.81h0a1.24,1.24,0,0,1,1.14-.9l.21,0v.71a1,1,0,0,0-.25,0,1.06,1.06,0,0,0-1,1c0,.11,0,.22,0,.35v2.2H83Z" transform="translate(0.23)"/><path class="cls-3" d="M87.63,132v.55h-2.1V132Z" transform="translate(0.23)"/><path class="cls-3" d="M88.63,131.71c0-.49,0-.91,0-1.29h.65l0,.81h0a1.24,1.24,0,0,1,1.14-.9l.21,0v.71a.9.9,0,0,0-.25,0,1,1,0,0,0-1,1,1.87,1.87,0,0,0,0,.35v2.2h-.74Z" transform="translate(0.23)"/><path class="cls-3" d="M91.86,132.61A1.32,1.32,0,0,0,93.27,134a2.68,2.68,0,0,0,1.14-.21l.13.54a3.48,3.48,0,0,1-1.37.25,1.9,1.9,0,0,1-2-2.07,2,2,0,0,1,1.93-2.22,1.74,1.74,0,0,1,1.7,1.94,2.22,2.22,0,0,1,0,.34Zm2.19-.53a1.06,1.06,0,0,0-1-1.22,1.24,1.24,0,0,0-1.15,1.22Z" transform="translate(0.23)"/><path class="cls-3" d="M99.38,128.5v5c0,.37,0,.78,0,1.07h-.67l0-.72h0a1.54,1.54,0,0,1-1.41.81,1.88,1.88,0,0,1-1.76-2.09,2,2,0,0,1,1.85-2.21,1.38,1.38,0,0,1,1.24.63h0V128.5Zm-.74,3.6a1.17,1.17,0,0,0,0-.32,1.11,1.11,0,0,0-1.08-.87c-.77,0-1.23.68-1.23,1.59S96.7,134,97.51,134a1.12,1.12,0,0,0,1.09-.9,1.08,1.08,0,0,0,0-.32Z" transform="translate(0.23)"/><path class="cls-3" d="M100.17,135.58a11.58,11.58,0,0,0,.51-2l.84-.09a10.39,10.39,0,0,1-.81,2.07Z" transform="translate(0.23)"/><path class="cls-3" d="M104.56,131.71c0-.49,0-.91,0-1.29h.65l0,.81h0a1.24,1.24,0,0,1,1.14-.9l.21,0v.71a.9.9,0,0,0-.25,0,1.06,1.06,0,0,0-1,1c0,.11,0,.22,0,.35v2.2h-.74Z" transform="translate(0.23)"/><path class="cls-3" d="M107.79,132.61A1.31,1.31,0,0,0,109.2,134a2.68,2.68,0,0,0,1.14-.21l.13.54a3.57,3.57,0,0,1-1.37.25,1.9,1.9,0,0,1-2-2.07,2,2,0,0,1,1.93-2.22,1.74,1.74,0,0,1,1.7,1.94,2.22,2.22,0,0,1,0,.34Zm2.19-.53a1.06,1.06,0,0,0-1-1.22,1.24,1.24,0,0,0-1.15,1.22Z" transform="translate(0.23)"/><path class="cls-3" d="M115.31,128.5v5c0,.37,0,.78,0,1.07h-.67l0-.72h0a1.52,1.52,0,0,1-1.4.81,1.88,1.88,0,0,1-1.76-2.09,2,2,0,0,1,1.85-2.21,1.38,1.38,0,0,1,1.24.63h0V128.5Zm-.75,3.6a1.16,1.16,0,0,0,0-.32,1.11,1.11,0,0,0-1.08-.87c-.77,0-1.23.68-1.23,1.59s.41,1.53,1.21,1.53a1.13,1.13,0,0,0,1.1-.9,1.09,1.09,0,0,0,0-.32Z" transform="translate(0.23)"/><path class="cls-3" d="M221.58,129v.49l-2.4,5h-.78l2.4-4.89v0h-2.7V129Z" transform="translate(0.23)"/><path class="cls-3" d="M225.64,129.54a2.81,2.81,0,0,0-.56,0,2.24,2.24,0,0,0-1.92,2h0a1.68,1.68,0,0,1,3,1.14,1.85,1.85,0,0,1-1.83,1.95c-1.19,0-2-.92-2-2.36a3.47,3.47,0,0,1,.94-2.49,3.51,3.51,0,0,1,2.31-.85Zm-.22,3.18a1.12,1.12,0,0,0-1.13-1.26,1.24,1.24,0,0,0-1.08.68.62.62,0,0,0-.08.33c0,.91.43,1.58,1.22,1.58S225.42,133.52,225.42,132.72Z" transform="translate(0.23)"/><path class="cls-3" d="M14.11,143.38a8.36,8.36,0,0,1,1.42-.11,2.33,2.33,0,0,1,1.65.46,1.44,1.44,0,0,1,.45,1.09,1.49,1.49,0,0,1-1.08,1.46v0a1.42,1.42,0,0,1,.85,1.15,8.82,8.82,0,0,0,.44,1.58h-.77a8.07,8.07,0,0,1-.38-1.37c-.17-.79-.48-1.09-1.15-1.12h-.69V149h-.74Zm.74,2.61h.75c.79,0,1.29-.43,1.29-1.08s-.53-1.07-1.31-1.08a3.14,3.14,0,0,0-.73.07Z" transform="translate(0.23)"/><path class="cls-3" d="M19.22,147.12a1.32,1.32,0,0,0,1.41,1.42,2.68,2.68,0,0,0,1.14-.21l.13.54a3.31,3.31,0,0,1-1.37.25,1.9,1.9,0,0,1-2-2.07,2,2,0,0,1,1.93-2.22,1.74,1.74,0,0,1,1.7,1.94,2.53,2.53,0,0,1,0,.35Zm2.2-.54a1.08,1.08,0,0,0-1-1.22,1.24,1.24,0,0,0-1.15,1.22Z" transform="translate(0.23)"/><path class="cls-3" d="M26.75,143v5c0,.37,0,.79,0,1.07h-.67l0-.72h0a1.52,1.52,0,0,1-1.41.81A1.87,1.87,0,0,1,22.9,147a2,2,0,0,1,1.84-2.21,1.38,1.38,0,0,1,1.24.63h0V143ZM26,146.6a1.17,1.17,0,0,0,0-.32,1.09,1.09,0,0,0-1.08-.86c-.77,0-1.23.68-1.23,1.58s.41,1.53,1.22,1.53a1.12,1.12,0,0,0,1.09-.9,1.08,1.08,0,0,0,0-.32Z" transform="translate(0.23)"/><path class="cls-3" d="M27.54,150.08a12.56,12.56,0,0,0,.5-2l.84-.08a10.52,10.52,0,0,1-.81,2.06Z" transform="translate(0.23)"/><path class="cls-3" d="M32,149v-3.55h-.58v-.57H32v-.19a2,2,0,0,1,.47-1.44,1.45,1.45,0,0,1,1-.38,1.67,1.67,0,0,1,.63.12l-.1.57a1.12,1.12,0,0,0-.47-.09c-.64,0-.8.56-.8,1.19v.22h1v.57h-1V149Z" transform="translate(0.23)"/><path class="cls-3" d="M36.81,149l-.06-.52h0a1.53,1.53,0,0,1-1.25.61A1.17,1.17,0,0,1,34.21,148c0-1,.88-1.54,2.47-1.53v-.09a.84.84,0,0,0-.93-1,2,2,0,0,0-1.08.31l-.17-.5a2.59,2.59,0,0,1,1.36-.36c1.25,0,1.56.86,1.56,1.68v1.54a5.9,5.9,0,0,0,.07,1Zm-.11-2.1c-.82,0-1.74.12-1.74.92a.66.66,0,0,0,.7.72,1,1,0,0,0,1-.69,1,1,0,0,0,0-.24Z" transform="translate(0.23)"/><path class="cls-3" d="M38.75,146.21c0-.49,0-.9,0-1.29h.66l0,.81h0a1.22,1.22,0,0,1,1.13-.9l.22,0v.71a1,1,0,0,0-.26,0,1,1,0,0,0-1,1,1.76,1.76,0,0,0,0,.34V149h-.74Z" transform="translate(0.23)"/><path class="cls-3" d="M43.35,146.46V147h-2.1v-.55Z" transform="translate(0.23)"/><path class="cls-3" d="M44.35,146.21c0-.49,0-.9,0-1.29H45l0,.81h0a1.23,1.23,0,0,1,1.14-.9l.21,0v.71a1,1,0,0,0-.26,0,1.05,1.05,0,0,0-1,1,1.79,1.79,0,0,0,0,.34V149h-.74Z" transform="translate(0.23)"/><path class="cls-3" d="M47.58,147.12A1.31,1.31,0,0,0,49,148.54a2.72,2.72,0,0,0,1.14-.21l.12.54a3.29,3.29,0,0,1-1.36.25,1.91,1.91,0,0,1-2-2.07,2,2,0,0,1,1.93-2.22,1.74,1.74,0,0,1,1.7,1.94,2.87,2.87,0,0,1,0,.35Zm2.19-.54a1.06,1.06,0,0,0-1-1.22,1.24,1.24,0,0,0-1.14,1.22Z" transform="translate(0.23)"/><path class="cls-3" d="M55.1,143v5c0,.37,0,.79,0,1.07h-.67l0-.72h0a1.52,1.52,0,0,1-1.4.81A1.87,1.87,0,0,1,51.25,147a2,2,0,0,1,1.84-2.21,1.37,1.37,0,0,1,1.24.63h0V143Zm-.75,3.6a1.73,1.73,0,0,0,0-.32,1.1,1.1,0,0,0-1.08-.86c-.78,0-1.23.68-1.23,1.58s.4,1.53,1.21,1.53a1.14,1.14,0,0,0,1.1-.9,1.58,1.58,0,0,0,0-.32Z" transform="translate(0.23)"/><path class="cls-3" d="M55.89,150.08a11.58,11.58,0,0,0,.51-2l.83-.08a10.56,10.56,0,0,1-.8,2.06Z" transform="translate(0.23)"/><path class="cls-3" d="M60.28,146.21c0-.49,0-.9,0-1.29h.66l0,.81h0a1.22,1.22,0,0,1,1.14-.9l.21,0v.71a1,1,0,0,0-.26,0,1.05,1.05,0,0,0-1,1,1.79,1.79,0,0,0,0,.34V149h-.74Z" transform="translate(0.23)"/><path class="cls-3" d="M63.51,147.12a1.31,1.31,0,0,0,1.41,1.42,2.72,2.72,0,0,0,1.14-.21l.12.54a3.29,3.29,0,0,1-1.36.25,1.91,1.91,0,0,1-2-2.07,2,2,0,0,1,1.93-2.22,1.74,1.74,0,0,1,1.7,1.94,2.87,2.87,0,0,1,0,.35Zm2.19-.54a1.07,1.07,0,0,0-1-1.22,1.25,1.25,0,0,0-1.15,1.22Z" transform="translate(0.23)"/><path class="cls-3" d="M71,143v5c0,.37,0,.79,0,1.07h-.67l0-.72h0a1.52,1.52,0,0,1-1.4.81A1.87,1.87,0,0,1,67.18,147,2,2,0,0,1,69,144.83a1.37,1.37,0,0,1,1.24.63h0V143Zm-.75,3.6a1.73,1.73,0,0,0,0-.32,1.1,1.1,0,0,0-1.08-.86c-.78,0-1.24.68-1.24,1.58s.41,1.53,1.22,1.53a1.14,1.14,0,0,0,1.1-.9,1.58,1.58,0,0,0,0-.32Z" transform="translate(0.23)"/><path class="cls-3" d="M71.82,150.08a11.58,11.58,0,0,0,.51-2l.83-.08a10.56,10.56,0,0,1-.8,2.06Z" transform="translate(0.23)"/><path class="cls-3" d="M76.28,149v-3.55H75.7v-.57h.58v-.19a1.94,1.94,0,0,1,.48-1.44,1.43,1.43,0,0,1,1-.38,1.78,1.78,0,0,1,.64.12l-.1.57a1.17,1.17,0,0,0-.48-.09c-.64,0-.8.56-.8,1.19v.22h1v.57H77V149Z" transform="translate(0.23)"/><path class="cls-3" d="M81.09,149l-.06-.52h0a1.54,1.54,0,0,1-1.26.61A1.18,1.18,0,0,1,78.49,148c0-1,.89-1.54,2.47-1.53v-.09a.84.84,0,0,0-.93-1,2,2,0,0,0-1.07.31l-.17-.5a2.55,2.55,0,0,1,1.35-.36c1.26,0,1.56.86,1.56,1.68v1.54a5.9,5.9,0,0,0,.07,1Zm-.11-2.1c-.81,0-1.74.12-1.74.92a.66.66,0,0,0,.71.72,1,1,0,0,0,1-.69,1,1,0,0,0,0-.24Z" transform="translate(0.23)"/><path class="cls-3" d="M83,146.21c0-.49,0-.9,0-1.29h.65l0,.81h0a1.24,1.24,0,0,1,1.14-.9l.21,0v.71a1,1,0,0,0-.25,0,1.06,1.06,0,0,0-1,1,3.31,3.31,0,0,0,0,.34V149H83Z" transform="translate(0.23)"/><path class="cls-3" d="M87.63,146.46V147h-2.1v-.55Z" transform="translate(0.23)"/><path class="cls-3" d="M88.63,146.21c0-.49,0-.9,0-1.29h.65l0,.81h0a1.24,1.24,0,0,1,1.14-.9l.21,0v.71a.9.9,0,0,0-.25,0,1,1,0,0,0-1,1,1.76,1.76,0,0,0,0,.34V149h-.74Z" transform="translate(0.23)"/><path class="cls-3" d="M91.86,147.12a1.32,1.32,0,0,0,1.41,1.42,2.68,2.68,0,0,0,1.14-.21l.13.54a3.31,3.31,0,0,1-1.37.25,1.9,1.9,0,0,1-2-2.07,2,2,0,0,1,1.93-2.22,1.74,1.74,0,0,1,1.7,1.94,2.53,2.53,0,0,1,0,.35Zm2.19-.54a1.06,1.06,0,0,0-1-1.22,1.24,1.24,0,0,0-1.15,1.22Z" transform="translate(0.23)"/><path class="cls-3" d="M99.38,143v5c0,.37,0,.79,0,1.07h-.67l0-.72h0a1.54,1.54,0,0,1-1.41.81A1.88,1.88,0,0,1,95.53,147a2,2,0,0,1,1.85-2.21,1.38,1.38,0,0,1,1.24.63h0V143Zm-.74,3.6a1.17,1.17,0,0,0,0-.32,1.1,1.1,0,0,0-1.08-.86c-.77,0-1.23.68-1.23,1.58s.41,1.53,1.22,1.53a1.12,1.12,0,0,0,1.09-.9,1.08,1.08,0,0,0,0-.32Z" transform="translate(0.23)"/><path class="cls-3" d="M100.17,150.08a11.58,11.58,0,0,0,.51-2l.84-.08a10.52,10.52,0,0,1-.81,2.06Z" transform="translate(0.23)"/><path class="cls-3" d="M104.56,146.21c0-.49,0-.9,0-1.29h.65l0,.81h0a1.24,1.24,0,0,1,1.14-.9l.21,0v.71a.9.9,0,0,0-.25,0,1.06,1.06,0,0,0-1,1,3.31,3.31,0,0,0,0,.34V149h-.74Z" transform="translate(0.23)"/><path class="cls-3" d="M107.79,147.12a1.31,1.31,0,0,0,1.41,1.42,2.68,2.68,0,0,0,1.14-.21l.13.54a3.38,3.38,0,0,1-1.37.25,1.9,1.9,0,0,1-2-2.07,2,2,0,0,1,1.93-2.22,1.74,1.74,0,0,1,1.7,1.94,2.53,2.53,0,0,1,0,.35Zm2.19-.54a1.06,1.06,0,0,0-1-1.22,1.24,1.24,0,0,0-1.15,1.22Z" transform="translate(0.23)"/><path class="cls-3" d="M115.31,143v5c0,.37,0,.79,0,1.07h-.67l0-.72h0a1.52,1.52,0,0,1-1.4.81,1.88,1.88,0,0,1-1.76-2.09,2,2,0,0,1,1.85-2.21,1.38,1.38,0,0,1,1.24.63h0V143Zm-.75,3.6a1.16,1.16,0,0,0,0-.32,1.1,1.1,0,0,0-1.08-.86c-.77,0-1.23.68-1.23,1.58s.41,1.53,1.21,1.53a1.13,1.13,0,0,0,1.1-.9,1.09,1.09,0,0,0,0-.32Z" transform="translate(0.23)"/><path class="cls-3" d="M116.1,150.08a11.58,11.58,0,0,0,.51-2l.84-.08a10.52,10.52,0,0,1-.81,2.06Z" transform="translate(0.23)"/><path class="cls-3" d="M120.57,149v-3.55H120v-.57h.58v-.19a1.93,1.93,0,0,1,.47-1.44,1.44,1.44,0,0,1,1-.38,1.69,1.69,0,0,1,.64.12l-.1.57a1.13,1.13,0,0,0-.48-.09c-.63,0-.79.56-.79,1.19v.22h1v.57h-1V149Z" transform="translate(0.23)"/><path class="cls-3" d="M125.38,149l-.06-.52h0a1.54,1.54,0,0,1-1.26.61,1.17,1.17,0,0,1-1.25-1.18c0-1,.88-1.54,2.47-1.53v-.09a.85.85,0,0,0-.94-1,2,2,0,0,0-1.07.31l-.17-.5a2.58,2.58,0,0,1,1.35-.36c1.26,0,1.57.86,1.57,1.68v1.54a5.9,5.9,0,0,0,.07,1Zm-.11-2.1c-.82,0-1.75.12-1.75.92a.67.67,0,0,0,.71.72,1,1,0,0,0,1-.69.69.69,0,0,0,0-.24Z" transform="translate(0.23)"/><path class="cls-3" d="M127.32,146.21c0-.49,0-.9,0-1.29h.65l0,.81h0a1.24,1.24,0,0,1,1.14-.9l.21,0v.71a.9.9,0,0,0-.25,0,1,1,0,0,0-1,1,1.76,1.76,0,0,0,0,.34V149h-.74Z" transform="translate(0.23)"/><path class="cls-3" d="M131.91,146.46V147h-2.1v-.55Z" transform="translate(0.23)"/><path class="cls-3" d="M132.92,146.21c0-.49,0-.9,0-1.29h.66l0,.81h0a1.22,1.22,0,0,1,1.14-.9l.21,0v.71a1,1,0,0,0-.26,0,1.05,1.05,0,0,0-1,1,1.79,1.79,0,0,0,0,.34V149h-.74Z" transform="translate(0.23)"/><path class="cls-3" d="M136.15,147.12a1.31,1.31,0,0,0,1.41,1.42,2.72,2.72,0,0,0,1.14-.21l.12.54a3.29,3.29,0,0,1-1.36.25,1.91,1.91,0,0,1-2-2.07,2,2,0,0,1,1.93-2.22,1.74,1.74,0,0,1,1.7,1.94c0,.15,0,.27,0,.35Zm2.19-.54a1.07,1.07,0,0,0-1-1.22,1.25,1.25,0,0,0-1.15,1.22Z" transform="translate(0.23)"/><path class="cls-3" d="M143.67,143v5c0,.37,0,.79,0,1.07H143l0-.72h0a1.52,1.52,0,0,1-1.4.81,1.87,1.87,0,0,1-1.76-2.09,2,2,0,0,1,1.84-2.21,1.37,1.37,0,0,1,1.24.63h0V143Zm-.75,3.6a1.73,1.73,0,0,0,0-.32,1.1,1.1,0,0,0-1.08-.86c-.78,0-1.24.68-1.24,1.58s.41,1.53,1.22,1.53a1.14,1.14,0,0,0,1.1-.9,1.58,1.58,0,0,0,0-.32Z" transform="translate(0.23)"/><path class="cls-3" d="M226.07,143.51V144l-2.41,5h-.77l2.4-4.89v0h-2.71v-.62Z" transform="translate(0.23)"/><path class="cls-3" d="M14.11,157.89a7.38,7.38,0,0,1,1.42-.12,2.33,2.33,0,0,1,1.65.46,1.44,1.44,0,0,1,.45,1.09,1.49,1.49,0,0,1-1.08,1.46v0A1.42,1.42,0,0,1,17.4,162a8.56,8.56,0,0,0,.44,1.58h-.77a7.78,7.78,0,0,1-.38-1.37c-.17-.79-.48-1.09-1.15-1.11h-.69v2.48h-.74Zm.74,2.6h.75c.79,0,1.29-.43,1.29-1.08s-.53-1.07-1.31-1.07a3.33,3.33,0,0,0-.73.06Z" transform="translate(0.23)"/><path class="cls-3" d="M19.22,161.62A1.32,1.32,0,0,0,20.63,163a2.68,2.68,0,0,0,1.14-.21l.13.54a3.31,3.31,0,0,1-1.37.25,1.9,1.9,0,0,1-2-2.07,2,2,0,0,1,1.93-2.22,1.74,1.74,0,0,1,1.7,1.94,2.53,2.53,0,0,1,0,.35Zm2.2-.54a1.07,1.07,0,0,0-1-1.21,1.23,1.23,0,0,0-1.15,1.21Z" transform="translate(0.23)"/><path class="cls-3" d="M26.75,157.5v5c0,.37,0,.79,0,1.07h-.67l0-.72h0a1.52,1.52,0,0,1-1.41.81,1.87,1.87,0,0,1-1.75-2.09,2,2,0,0,1,1.84-2.21A1.38,1.38,0,0,1,26,160h0V157.5ZM26,161.1a1.17,1.17,0,0,0,0-.32,1.09,1.09,0,0,0-1.08-.86c-.77,0-1.23.68-1.23,1.59s.41,1.52,1.22,1.52a1.11,1.11,0,0,0,1.09-.9,1.08,1.08,0,0,0,0-.32Z" transform="translate(0.23)"/><path class="cls-3" d="M27.54,164.58a12.56,12.56,0,0,0,.5-2l.84-.08a10.52,10.52,0,0,1-.81,2.06Z" transform="translate(0.23)"/><path class="cls-3" d="M32,163.54V160h-.58v-.57H32v-.19a2,2,0,0,1,.47-1.44,1.45,1.45,0,0,1,1-.38,1.67,1.67,0,0,1,.63.12l-.1.58a1.1,1.1,0,0,0-.47-.1c-.64,0-.8.56-.8,1.19v.22h1V160h-1v3.55Z" transform="translate(0.23)"/><path class="cls-3" d="M36.81,163.54l-.06-.52h0a1.53,1.53,0,0,1-1.25.61,1.17,1.17,0,0,1-1.26-1.18c0-1,.88-1.54,2.47-1.53v-.09a.84.84,0,0,0-.93-1,2,2,0,0,0-1.08.31l-.17-.49a2.5,2.5,0,0,1,1.36-.37c1.25,0,1.56.86,1.56,1.68v1.54a5.9,5.9,0,0,0,.07,1Zm-.11-2.1c-.82,0-1.74.13-1.74.92a.66.66,0,0,0,.7.72,1,1,0,0,0,1-.69,1,1,0,0,0,0-.24Z" transform="translate(0.23)"/><path class="cls-3" d="M38.75,160.71c0-.49,0-.9,0-1.29h.66l0,.81h0a1.22,1.22,0,0,1,1.13-.9.73.73,0,0,1,.22,0v.7a1.06,1.06,0,0,0-.26,0,1,1,0,0,0-1,1,1.76,1.76,0,0,0,0,.34v2.2h-.74Z" transform="translate(0.23)"/><path class="cls-3" d="M43.35,161v.55h-2.1V161Z" transform="translate(0.23)"/><path class="cls-3" d="M44.35,160.71c0-.49,0-.9,0-1.29H45l0,.81h0a1.23,1.23,0,0,1,1.14-.9.71.71,0,0,1,.21,0v.7a1,1,0,0,0-.26,0,1.05,1.05,0,0,0-1,1,1.79,1.79,0,0,0,0,.34v2.2h-.74Z" transform="translate(0.23)"/><path class="cls-3" d="M47.58,161.62A1.31,1.31,0,0,0,49,163a2.72,2.72,0,0,0,1.14-.21l.12.54a3.29,3.29,0,0,1-1.36.25,1.91,1.91,0,0,1-2-2.07,2,2,0,0,1,1.93-2.22,1.74,1.74,0,0,1,1.7,1.94,2.87,2.87,0,0,1,0,.35Zm2.19-.54a1.06,1.06,0,0,0-1-1.21,1.23,1.23,0,0,0-1.14,1.21Z" transform="translate(0.23)"/><path class="cls-3" d="M55.1,157.5v5c0,.37,0,.79,0,1.07h-.67l0-.72h0a1.52,1.52,0,0,1-1.4.81,1.87,1.87,0,0,1-1.76-2.09,2,2,0,0,1,1.84-2.21,1.37,1.37,0,0,1,1.24.63h0V157.5Zm-.75,3.6a1.73,1.73,0,0,0,0-.32,1.1,1.1,0,0,0-1.08-.86c-.78,0-1.23.68-1.23,1.59s.4,1.52,1.21,1.52a1.13,1.13,0,0,0,1.1-.9,1.58,1.58,0,0,0,0-.32Z" transform="translate(0.23)"/><path class="cls-3" d="M55.89,164.58a11.58,11.58,0,0,0,.51-2l.83-.08a10.56,10.56,0,0,1-.8,2.06Z" transform="translate(0.23)"/><path class="cls-3" d="M60.28,160.71c0-.49,0-.9,0-1.29h.66l0,.81h0a1.22,1.22,0,0,1,1.14-.9.71.71,0,0,1,.21,0v.7a1,1,0,0,0-.26,0,1.05,1.05,0,0,0-1,1,1.79,1.79,0,0,0,0,.34v2.2h-.74Z" transform="translate(0.23)"/><path class="cls-3" d="M63.51,161.62A1.31,1.31,0,0,0,64.92,163a2.72,2.72,0,0,0,1.14-.21l.12.54a3.29,3.29,0,0,1-1.36.25,1.91,1.91,0,0,1-2-2.07,2,2,0,0,1,1.93-2.22,1.74,1.74,0,0,1,1.7,1.94,2.87,2.87,0,0,1,0,.35Zm2.19-.54a1.06,1.06,0,0,0-1-1.21,1.24,1.24,0,0,0-1.15,1.21Z" transform="translate(0.23)"/><path class="cls-3" d="M71,157.5v5c0,.37,0,.79,0,1.07h-.67l0-.72h0a1.52,1.52,0,0,1-1.4.81,1.87,1.87,0,0,1-1.76-2.09A2,2,0,0,1,69,159.33a1.37,1.37,0,0,1,1.24.63h0V157.5Zm-.75,3.6a1.73,1.73,0,0,0,0-.32,1.1,1.1,0,0,0-1.08-.86c-.78,0-1.24.68-1.24,1.59s.41,1.52,1.22,1.52a1.13,1.13,0,0,0,1.1-.9,1.58,1.58,0,0,0,0-.32Z" transform="translate(0.23)"/><path class="cls-3" d="M71.82,164.58a11.58,11.58,0,0,0,.51-2l.83-.08a10.56,10.56,0,0,1-.8,2.06Z" transform="translate(0.23)"/><path class="cls-3" d="M76.28,163.54V160H75.7v-.57h.58v-.19a1.94,1.94,0,0,1,.48-1.44,1.43,1.43,0,0,1,1-.38,1.78,1.78,0,0,1,.64.12l-.1.58a1.15,1.15,0,0,0-.48-.1c-.64,0-.8.56-.8,1.19v.22h1V160H77v3.55Z" transform="translate(0.23)"/><path class="cls-3" d="M81.09,163.54,81,163h0a1.54,1.54,0,0,1-1.26.61,1.18,1.18,0,0,1-1.26-1.18c0-1,.89-1.54,2.47-1.53v-.09a.84.84,0,0,0-.93-1,2,2,0,0,0-1.07.31l-.17-.49a2.47,2.47,0,0,1,1.35-.37c1.26,0,1.56.86,1.56,1.68v1.54a5.9,5.9,0,0,0,.07,1Zm-.11-2.1c-.81,0-1.74.13-1.74.92a.66.66,0,0,0,.71.72,1,1,0,0,0,1-.69,1,1,0,0,0,0-.24Z" transform="translate(0.23)"/><path class="cls-3" d="M83,160.71c0-.49,0-.9,0-1.29h.65l0,.81h0a1.24,1.24,0,0,1,1.14-.9.71.71,0,0,1,.21,0v.7a1,1,0,0,0-.25,0,1.06,1.06,0,0,0-1,1,3.31,3.31,0,0,0,0,.34v2.2H83Z" transform="translate(0.23)"/><path class="cls-3" d="M87.63,161v.55h-2.1V161Z" transform="translate(0.23)"/><path class="cls-3" d="M88.63,160.71c0-.49,0-.9,0-1.29h.65l0,.81h0a1.24,1.24,0,0,1,1.14-.9.62.62,0,0,1,.21,0v.7a.94.94,0,0,0-.25,0,1,1,0,0,0-1,1,1.76,1.76,0,0,0,0,.34v2.2h-.74Z" transform="translate(0.23)"/><path class="cls-3" d="M91.86,161.62A1.32,1.32,0,0,0,93.27,163a2.68,2.68,0,0,0,1.14-.21l.13.54a3.31,3.31,0,0,1-1.37.25,1.9,1.9,0,0,1-2-2.07,2,2,0,0,1,1.93-2.22,1.74,1.74,0,0,1,1.7,1.94,2.53,2.53,0,0,1,0,.35Zm2.19-.54a1.05,1.05,0,0,0-1-1.21,1.23,1.23,0,0,0-1.15,1.21Z" transform="translate(0.23)"/><path class="cls-3" d="M99.38,157.5v5c0,.37,0,.79,0,1.07h-.67l0-.72h0a1.54,1.54,0,0,1-1.41.81,1.88,1.88,0,0,1-1.76-2.09,2,2,0,0,1,1.85-2.21,1.38,1.38,0,0,1,1.24.63h0V157.5Zm-.74,3.6a1.17,1.17,0,0,0,0-.32,1.1,1.1,0,0,0-1.08-.86c-.77,0-1.23.68-1.23,1.59S96.7,163,97.51,163a1.11,1.11,0,0,0,1.09-.9,1.08,1.08,0,0,0,0-.32Z" transform="translate(0.23)"/><path class="cls-3" d="M100.17,164.58a11.58,11.58,0,0,0,.51-2l.84-.08a10.52,10.52,0,0,1-.81,2.06Z" transform="translate(0.23)"/><path class="cls-3" d="M104.56,160.71c0-.49,0-.9,0-1.29h.65l0,.81h0a1.24,1.24,0,0,1,1.14-.9.71.71,0,0,1,.21,0v.7a.94.94,0,0,0-.25,0,1.06,1.06,0,0,0-1,1,3.31,3.31,0,0,0,0,.34v2.2h-.74Z" transform="translate(0.23)"/><path class="cls-3" d="M107.79,161.62A1.31,1.31,0,0,0,109.2,163a2.68,2.68,0,0,0,1.14-.21l.13.54a3.38,3.38,0,0,1-1.37.25,1.9,1.9,0,0,1-2-2.07,2,2,0,0,1,1.93-2.22,1.74,1.74,0,0,1,1.7,1.94,2.53,2.53,0,0,1,0,.35Zm2.19-.54a1.05,1.05,0,0,0-1-1.21,1.23,1.23,0,0,0-1.15,1.21Z" transform="translate(0.23)"/><path class="cls-3" d="M115.31,157.5v5c0,.37,0,.79,0,1.07h-.67l0-.72h0a1.52,1.52,0,0,1-1.4.81,1.88,1.88,0,0,1-1.76-2.09,2,2,0,0,1,1.85-2.21,1.38,1.38,0,0,1,1.24.63h0V157.5Zm-.75,3.6a1.16,1.16,0,0,0,0-.32,1.1,1.1,0,0,0-1.08-.86c-.77,0-1.23.68-1.23,1.59s.41,1.52,1.21,1.52a1.12,1.12,0,0,0,1.1-.9,1.09,1.09,0,0,0,0-.32Z" transform="translate(0.23)"/><path class="cls-3" d="M116.1,164.58a11.58,11.58,0,0,0,.51-2l.84-.08a10.52,10.52,0,0,1-.81,2.06Z" transform="translate(0.23)"/><path class="cls-3" d="M120.57,163.54V160H120v-.57h.58v-.19a1.93,1.93,0,0,1,.47-1.44,1.44,1.44,0,0,1,1-.38,1.69,1.69,0,0,1,.64.12l-.1.58a1.11,1.11,0,0,0-.48-.1c-.63,0-.79.56-.79,1.19v.22h1V160h-1v3.55Z" transform="translate(0.23)"/><path class="cls-3" d="M125.38,163.54l-.06-.52h0a1.54,1.54,0,0,1-1.26.61,1.17,1.17,0,0,1-1.25-1.18c0-1,.88-1.54,2.47-1.53v-.09a.85.85,0,0,0-.94-1,2,2,0,0,0-1.07.31l-.17-.49a2.49,2.49,0,0,1,1.35-.37c1.26,0,1.57.86,1.57,1.68v1.54a5.9,5.9,0,0,0,.07,1Zm-.11-2.1c-.82,0-1.75.13-1.75.92a.67.67,0,0,0,.71.72,1,1,0,0,0,1-.69.69.69,0,0,0,0-.24Z" transform="translate(0.23)"/><path class="cls-3" d="M127.32,160.71c0-.49,0-.9,0-1.29h.65l0,.81h0a1.24,1.24,0,0,1,1.14-.9.62.62,0,0,1,.21,0v.7a.94.94,0,0,0-.25,0,1,1,0,0,0-1,1,1.76,1.76,0,0,0,0,.34v2.2h-.74Z" transform="translate(0.23)"/><path class="cls-3" d="M131.91,161v.55h-2.1V161Z" transform="translate(0.23)"/><path class="cls-3" d="M132.92,160.71c0-.49,0-.9,0-1.29h.66l0,.81h0a1.22,1.22,0,0,1,1.14-.9.71.71,0,0,1,.21,0v.7a1.05,1.05,0,0,0-1.26.94,1.79,1.79,0,0,0,0,.34v2.2h-.74Z" transform="translate(0.23)"/><path class="cls-3" d="M136.15,161.62a1.31,1.31,0,0,0,1.41,1.42,2.72,2.72,0,0,0,1.14-.21l.12.54a3.29,3.29,0,0,1-1.36.25,1.91,1.91,0,0,1-2-2.07,2,2,0,0,1,1.93-2.22,1.74,1.74,0,0,1,1.7,1.94c0,.15,0,.27,0,.35Zm2.19-.54a1.06,1.06,0,0,0-1-1.21,1.24,1.24,0,0,0-1.15,1.21Z" transform="translate(0.23)"/><path class="cls-3" d="M143.67,157.5v5c0,.37,0,.79,0,1.07H143l0-.72h0a1.52,1.52,0,0,1-1.4.81,1.87,1.87,0,0,1-1.76-2.09,2,2,0,0,1,1.84-2.21,1.37,1.37,0,0,1,1.24.63h0V157.5Zm-.75,3.6a1.73,1.73,0,0,0,0-.32,1.1,1.1,0,0,0-1.08-.86c-.78,0-1.24.68-1.24,1.59S141,163,141.79,163a1.13,1.13,0,0,0,1.1-.9,1.58,1.58,0,0,0,0-.32Z" transform="translate(0.23)"/><path class="cls-3" d="M144.46,164.58a11.58,11.58,0,0,0,.51-2l.83-.08a10.56,10.56,0,0,1-.8,2.06Z" transform="translate(0.23)"/><path class="cls-3" d="M148.84,160.71c0-.49,0-.9,0-1.29h.66l0,.81h0a1.22,1.22,0,0,1,1.13-.9.73.73,0,0,1,.22,0v.7a1.06,1.06,0,0,0-.26,0,1,1,0,0,0-1,1,1.76,1.76,0,0,0,0,.34v2.2h-.74Z" transform="translate(0.23)"/><path class="cls-3" d="M152.08,161.62a1.31,1.31,0,0,0,1.41,1.42,2.75,2.75,0,0,0,1.14-.21l.12.54a3.31,3.31,0,0,1-1.37.25,1.91,1.91,0,0,1-2-2.07,2,2,0,0,1,1.93-2.22,1.74,1.74,0,0,1,1.7,1.94,2.53,2.53,0,0,1,0,.35Zm2.19-.54a1.06,1.06,0,0,0-1-1.21,1.23,1.23,0,0,0-1.15,1.21Z" transform="translate(0.23)"/><path class="cls-3" d="M159.6,157.5v5c0,.37,0,.79,0,1.07H159l0-.72h0a1.52,1.52,0,0,1-1.4.81,1.87,1.87,0,0,1-1.76-2.09,2,2,0,0,1,1.84-2.21,1.38,1.38,0,0,1,1.24.63h0V157.5Zm-.75,3.6a1.73,1.73,0,0,0,0-.32,1.11,1.11,0,0,0-1.08-.86c-.78,0-1.24.68-1.24,1.59s.41,1.52,1.22,1.52a1.13,1.13,0,0,0,1.1-.9,1.58,1.58,0,0,0,0-.32Z" transform="translate(0.23)"/><path class="cls-3" d="M217.93,162.13a1.56,1.56,0,0,1,1.09-1.47v0a1.36,1.36,0,0,1-.88-1.24,1.55,1.55,0,0,1,1.71-1.47,1.43,1.43,0,0,1,1.61,1.36,1.4,1.4,0,0,1-.91,1.29v0a1.53,1.53,0,0,1,1.11,1.42,1.71,1.71,0,0,1-1.88,1.61C218.63,163.63,217.93,162.94,217.93,162.13Zm3,0c0-.67-.47-1-1.21-1.21a1.21,1.21,0,0,0-1,1.14,1,1,0,0,0,1.11,1.06A1,1,0,0,0,220.9,162.1Zm-2.05-2.76c0,.55.41.85,1.05,1a1.08,1.08,0,0,0,.84-1,.86.86,0,0,0-.93-.91A.88.88,0,0,0,218.85,159.34Z" transform="translate(0.23)"/><path class="cls-3" d="M224.11,158.71h0l-1,.52-.14-.57,1.2-.65h.64v5.53h-.72Z" transform="translate(0.23)"/><path class="cls-3" d="M14.11,172.39a7.38,7.38,0,0,1,1.42-.12,2.33,2.33,0,0,1,1.65.46,1.44,1.44,0,0,1,.45,1.09,1.49,1.49,0,0,1-1.08,1.46v0a1.42,1.42,0,0,1,.85,1.16,8.62,8.62,0,0,0,.44,1.57h-.77a7.78,7.78,0,0,1-.38-1.37c-.17-.79-.48-1.09-1.15-1.11h-.69V178h-.74Zm.74,2.61h.75c.79,0,1.29-.44,1.29-1.09s-.53-1.06-1.31-1.07a3.33,3.33,0,0,0-.73.06Z" transform="translate(0.23)"/><path class="cls-3" d="M19.22,176.12a1.32,1.32,0,0,0,1.41,1.42,2.68,2.68,0,0,0,1.14-.21l.13.54a3.31,3.31,0,0,1-1.37.25,1.9,1.9,0,0,1-2-2.07,2,2,0,0,1,1.93-2.22,1.74,1.74,0,0,1,1.7,1.94,2.53,2.53,0,0,1,0,.35Zm2.2-.54a1.07,1.07,0,0,0-1-1.21,1.23,1.23,0,0,0-1.15,1.21Z" transform="translate(0.23)"/><path class="cls-3" d="M26.75,172v5c0,.36,0,.78,0,1.06h-.67l0-.72h0a1.52,1.52,0,0,1-1.41.81A1.87,1.87,0,0,1,22.9,176a2,2,0,0,1,1.84-2.21,1.38,1.38,0,0,1,1.24.63h0V172ZM26,175.6a1.22,1.22,0,0,0,0-.32,1.09,1.09,0,0,0-1.08-.86c-.77,0-1.23.68-1.23,1.59s.41,1.52,1.22,1.52a1.11,1.11,0,0,0,1.09-.89,1.19,1.19,0,0,0,0-.33Z" transform="translate(0.23)"/><path class="cls-3" d="M27.54,179.08a12.56,12.56,0,0,0,.5-2l.84-.08a10.52,10.52,0,0,1-.81,2.06Z" transform="translate(0.23)"/><path class="cls-3" d="M32,178v-3.55h-.58v-.57H32v-.19a2,2,0,0,1,.47-1.44,1.45,1.45,0,0,1,1-.38,1.67,1.67,0,0,1,.63.12l-.1.58a1.1,1.1,0,0,0-.47-.1c-.64,0-.8.56-.8,1.19v.22h1v.57h-1V178Z" transform="translate(0.23)"/><path class="cls-3" d="M36.81,178l-.06-.52h0a1.53,1.53,0,0,1-1.25.61A1.17,1.17,0,0,1,34.21,177c0-1,.88-1.54,2.47-1.53v-.08a.85.85,0,0,0-.93-1,2,2,0,0,0-1.08.31l-.17-.49a2.59,2.59,0,0,1,1.36-.37c1.25,0,1.56.86,1.56,1.68v1.54a5.9,5.9,0,0,0,.07,1Zm-.11-2.1c-.82,0-1.74.13-1.74.93a.66.66,0,0,0,.7.71,1,1,0,0,0,1-.69,1,1,0,0,0,0-.24Z" transform="translate(0.23)"/><path class="cls-3" d="M38.75,175.21c0-.49,0-.9,0-1.29h.66l0,.81h0a1.22,1.22,0,0,1,1.13-.9.73.73,0,0,1,.22,0v.7a1.06,1.06,0,0,0-.26,0,1,1,0,0,0-1,1,1.78,1.78,0,0,0,0,.35V178h-.74Z" transform="translate(0.23)"/><path class="cls-3" d="M43.35,175.46V176h-2.1v-.56Z" transform="translate(0.23)"/><path class="cls-3" d="M44.35,175.21c0-.49,0-.9,0-1.29H45l0,.81h0a1.23,1.23,0,0,1,1.14-.9.71.71,0,0,1,.21,0v.7a1,1,0,0,0-.26,0,1.05,1.05,0,0,0-1,1,1.83,1.83,0,0,0,0,.35V178h-.74Z" transform="translate(0.23)"/><path class="cls-3" d="M47.58,176.12A1.31,1.31,0,0,0,49,177.54a2.72,2.72,0,0,0,1.14-.21l.12.54a3.29,3.29,0,0,1-1.36.25,1.91,1.91,0,0,1-2-2.07,2,2,0,0,1,1.93-2.22,1.74,1.74,0,0,1,1.7,1.94,2.87,2.87,0,0,1,0,.35Zm2.19-.54a1.06,1.06,0,0,0-1-1.21,1.23,1.23,0,0,0-1.14,1.21Z" transform="translate(0.23)"/><path class="cls-3" d="M55.1,172v5c0,.36,0,.78,0,1.06h-.67l0-.72h0a1.52,1.52,0,0,1-1.4.81A1.87,1.87,0,0,1,51.25,176a2,2,0,0,1,1.84-2.21,1.37,1.37,0,0,1,1.24.63h0V172Zm-.75,3.6a1.82,1.82,0,0,0,0-.32,1.1,1.1,0,0,0-1.08-.86c-.78,0-1.23.68-1.23,1.59s.4,1.52,1.21,1.52a1.13,1.13,0,0,0,1.1-.89,1.76,1.76,0,0,0,0-.33Z" transform="translate(0.23)"/><path class="cls-3" d="M55.89,179.08a11.58,11.58,0,0,0,.51-2l.83-.08a10.56,10.56,0,0,1-.8,2.06Z" transform="translate(0.23)"/><path class="cls-3" d="M60.28,175.21c0-.49,0-.9,0-1.29h.66l0,.81h0a1.22,1.22,0,0,1,1.14-.9.71.71,0,0,1,.21,0v.7a1,1,0,0,0-.26,0,1.05,1.05,0,0,0-1,1,1.83,1.83,0,0,0,0,.35V178h-.74Z" transform="translate(0.23)"/><path class="cls-3" d="M63.51,176.12a1.31,1.31,0,0,0,1.41,1.42,2.72,2.72,0,0,0,1.14-.21l.12.54a3.29,3.29,0,0,1-1.36.25,1.91,1.91,0,0,1-2-2.07,2,2,0,0,1,1.93-2.22,1.74,1.74,0,0,1,1.7,1.94,2.87,2.87,0,0,1,0,.35Zm2.19-.54a1.07,1.07,0,0,0-1-1.21,1.24,1.24,0,0,0-1.15,1.21Z" transform="translate(0.23)"/><path class="cls-3" d="M71,172v5c0,.36,0,.78,0,1.06h-.67l0-.72h0a1.52,1.52,0,0,1-1.4.81A1.87,1.87,0,0,1,67.18,176,2,2,0,0,1,69,173.83a1.37,1.37,0,0,1,1.24.63h0V172Zm-.75,3.6a1.82,1.82,0,0,0,0-.32,1.1,1.1,0,0,0-1.08-.86c-.78,0-1.24.68-1.24,1.59s.41,1.52,1.22,1.52a1.13,1.13,0,0,0,1.1-.89,1.76,1.76,0,0,0,0-.33Z" transform="translate(0.23)"/><path class="cls-3" d="M71.82,179.08a11.58,11.58,0,0,0,.51-2l.83-.08a10.56,10.56,0,0,1-.8,2.06Z" transform="translate(0.23)"/><path class="cls-3" d="M76.28,178v-3.55H75.7v-.57h.58v-.19a1.94,1.94,0,0,1,.48-1.44,1.43,1.43,0,0,1,1-.38,1.78,1.78,0,0,1,.64.12l-.1.58a1.15,1.15,0,0,0-.48-.1c-.64,0-.8.56-.8,1.19v.22h1v.57H77V178Z" transform="translate(0.23)"/><path class="cls-3" d="M81.09,178l-.06-.52h0a1.54,1.54,0,0,1-1.26.61A1.18,1.18,0,0,1,78.49,177c0-1,.89-1.54,2.47-1.53v-.08a.85.85,0,0,0-.93-1,2,2,0,0,0-1.07.31l-.17-.49a2.55,2.55,0,0,1,1.35-.37c1.26,0,1.56.86,1.56,1.68v1.54a5.9,5.9,0,0,0,.07,1Zm-.11-2.1c-.81,0-1.74.13-1.74.93a.66.66,0,0,0,.71.71,1,1,0,0,0,1-.69,1,1,0,0,0,0-.24Z" transform="translate(0.23)"/><path class="cls-3" d="M83,175.21c0-.49,0-.9,0-1.29h.65l0,.81h0a1.24,1.24,0,0,1,1.14-.9.71.71,0,0,1,.21,0v.7a1,1,0,0,0-.25,0,1.06,1.06,0,0,0-1,1,3.27,3.27,0,0,0,0,.35V178H83Z" transform="translate(0.23)"/><path class="cls-3" d="M87.63,175.46V176h-2.1v-.56Z" transform="translate(0.23)"/><path class="cls-3" d="M88.63,175.21c0-.49,0-.9,0-1.29h.65l0,.81h0a1.24,1.24,0,0,1,1.14-.9.62.62,0,0,1,.21,0v.7a.94.94,0,0,0-.25,0,1,1,0,0,0-1,1,1.78,1.78,0,0,0,0,.35V178h-.74Z" transform="translate(0.23)"/><path class="cls-3" d="M91.86,176.12a1.32,1.32,0,0,0,1.41,1.42,2.68,2.68,0,0,0,1.14-.21l.13.54a3.31,3.31,0,0,1-1.37.25,1.9,1.9,0,0,1-2-2.07,2,2,0,0,1,1.93-2.22,1.74,1.74,0,0,1,1.7,1.94,2.53,2.53,0,0,1,0,.35Zm2.19-.54a1.06,1.06,0,0,0-1-1.21,1.23,1.23,0,0,0-1.15,1.21Z" transform="translate(0.23)"/><path class="cls-3" d="M99.38,172v5c0,.36,0,.78,0,1.06h-.67l0-.72h0a1.54,1.54,0,0,1-1.41.81A1.88,1.88,0,0,1,95.53,176a2,2,0,0,1,1.85-2.21,1.38,1.38,0,0,1,1.24.63h0V172Zm-.74,3.6a1.22,1.22,0,0,0,0-.32,1.1,1.1,0,0,0-1.08-.86c-.77,0-1.23.68-1.23,1.59s.41,1.52,1.22,1.52a1.11,1.11,0,0,0,1.09-.89,1.19,1.19,0,0,0,0-.33Z" transform="translate(0.23)"/><path class="cls-3" d="M100.17,179.08a11.58,11.58,0,0,0,.51-2l.84-.08a10.52,10.52,0,0,1-.81,2.06Z" transform="translate(0.23)"/><path class="cls-3" d="M104.56,175.21c0-.49,0-.9,0-1.29h.65l0,.81h0a1.24,1.24,0,0,1,1.14-.9.71.71,0,0,1,.21,0v.7a.94.94,0,0,0-.25,0,1.06,1.06,0,0,0-1,1,3.27,3.27,0,0,0,0,.35V178h-.74Z" transform="translate(0.23)"/><path class="cls-3" d="M107.79,176.12a1.31,1.31,0,0,0,1.41,1.42,2.68,2.68,0,0,0,1.14-.21l.13.54a3.38,3.38,0,0,1-1.37.25,1.9,1.9,0,0,1-2-2.07,2,2,0,0,1,1.93-2.22,1.74,1.74,0,0,1,1.7,1.94,2.53,2.53,0,0,1,0,.35Zm2.19-.54a1.06,1.06,0,0,0-1-1.21,1.23,1.23,0,0,0-1.15,1.21Z" transform="translate(0.23)"/><path class="cls-3" d="M115.31,172v5c0,.36,0,.78,0,1.06h-.67l0-.72h0a1.52,1.52,0,0,1-1.4.81,1.88,1.88,0,0,1-1.76-2.09,2,2,0,0,1,1.85-2.21,1.38,1.38,0,0,1,1.24.63h0V172Zm-.75,3.6a1.19,1.19,0,0,0,0-.32,1.1,1.1,0,0,0-1.08-.86c-.77,0-1.23.68-1.23,1.59s.41,1.52,1.21,1.52a1.12,1.12,0,0,0,1.1-.89,1.19,1.19,0,0,0,0-.33Z" transform="translate(0.23)"/><path class="cls-3" d="M116.1,179.08a11.58,11.58,0,0,0,.51-2l.84-.08a10.52,10.52,0,0,1-.81,2.06Z" transform="translate(0.23)"/><path class="cls-3" d="M120.57,178v-3.55H120v-.57h.58v-.19a1.93,1.93,0,0,1,.47-1.44,1.44,1.44,0,0,1,1-.38,1.69,1.69,0,0,1,.64.12l-.1.58a1.11,1.11,0,0,0-.48-.1c-.63,0-.79.56-.79,1.19v.22h1v.57h-1V178Z" transform="translate(0.23)"/><path class="cls-3" d="M125.38,178l-.06-.52h0a1.54,1.54,0,0,1-1.26.61,1.17,1.17,0,0,1-1.25-1.18c0-1,.88-1.54,2.47-1.53v-.08a.85.85,0,0,0-.94-1,2,2,0,0,0-1.07.31l-.17-.49a2.58,2.58,0,0,1,1.35-.37c1.26,0,1.57.86,1.57,1.68v1.54a5.9,5.9,0,0,0,.07,1Zm-.11-2.1c-.82,0-1.75.13-1.75.93a.67.67,0,0,0,.71.71,1,1,0,0,0,1-.69.69.69,0,0,0,0-.24Z" transform="translate(0.23)"/><path class="cls-3" d="M127.32,175.21c0-.49,0-.9,0-1.29h.65l0,.81h0a1.24,1.24,0,0,1,1.14-.9.62.62,0,0,1,.21,0v.7a.94.94,0,0,0-.25,0,1,1,0,0,0-1,1,1.78,1.78,0,0,0,0,.35V178h-.74Z" transform="translate(0.23)"/><path class="cls-3" d="M131.91,175.46V176h-2.1v-.56Z" transform="translate(0.23)"/><path class="cls-3" d="M132.92,175.21c0-.49,0-.9,0-1.29h.66l0,.81h0a1.22,1.22,0,0,1,1.14-.9.71.71,0,0,1,.21,0v.7a1.05,1.05,0,0,0-1.26.94,1.83,1.83,0,0,0,0,.35V178h-.74Z" transform="translate(0.23)"/><path class="cls-3" d="M136.15,176.12a1.31,1.31,0,0,0,1.41,1.42,2.72,2.72,0,0,0,1.14-.21l.12.54a3.29,3.29,0,0,1-1.36.25,1.91,1.91,0,0,1-2-2.07,2,2,0,0,1,1.93-2.22,1.74,1.74,0,0,1,1.7,1.94c0,.15,0,.27,0,.35Zm2.19-.54a1.07,1.07,0,0,0-1-1.21,1.24,1.24,0,0,0-1.15,1.21Z" transform="translate(0.23)"/><path class="cls-3" d="M143.67,172v5c0,.36,0,.78,0,1.06H143l0-.72h0a1.52,1.52,0,0,1-1.4.81,1.87,1.87,0,0,1-1.76-2.09,2,2,0,0,1,1.84-2.21,1.37,1.37,0,0,1,1.24.63h0V172Zm-.75,3.6a1.82,1.82,0,0,0,0-.32,1.1,1.1,0,0,0-1.08-.86c-.78,0-1.24.68-1.24,1.59s.41,1.52,1.22,1.52a1.13,1.13,0,0,0,1.1-.89,1.76,1.76,0,0,0,0-.33Z" transform="translate(0.23)"/><path class="cls-3" d="M144.46,179.08a11.58,11.58,0,0,0,.51-2l.83-.08A10.56,10.56,0,0,1,145,179Z" transform="translate(0.23)"/><path class="cls-3" d="M148.84,175.21c0-.49,0-.9,0-1.29h.66l0,.81h0a1.22,1.22,0,0,1,1.13-.9.73.73,0,0,1,.22,0v.7a1.06,1.06,0,0,0-.26,0,1,1,0,0,0-1,1,1.78,1.78,0,0,0,0,.35V178h-.74Z" transform="translate(0.23)"/><path class="cls-3" d="M152.08,176.12a1.31,1.31,0,0,0,1.41,1.42,2.75,2.75,0,0,0,1.14-.21l.12.54a3.31,3.31,0,0,1-1.37.25,1.91,1.91,0,0,1-2-2.07,2,2,0,0,1,1.93-2.22,1.74,1.74,0,0,1,1.7,1.94,2.53,2.53,0,0,1,0,.35Zm2.19-.54a1.07,1.07,0,0,0-1-1.21,1.23,1.23,0,0,0-1.15,1.21Z" transform="translate(0.23)"/><path class="cls-3" d="M159.6,172v5c0,.36,0,.78,0,1.06H159l0-.72h0a1.52,1.52,0,0,1-1.4.81,1.87,1.87,0,0,1-1.76-2.09,2,2,0,0,1,1.84-2.21,1.38,1.38,0,0,1,1.24.63h0V172Zm-.75,3.6a1.82,1.82,0,0,0,0-.32,1.11,1.11,0,0,0-1.08-.86c-.78,0-1.24.68-1.24,1.59s.41,1.52,1.22,1.52a1.13,1.13,0,0,0,1.1-.89,1.76,1.76,0,0,0,0-.33Z" transform="translate(0.23)"/><path class="cls-3" d="M160.39,179.08a12.54,12.54,0,0,0,.51-2l.83-.08a9.92,9.92,0,0,1-.81,2.06Z" transform="translate(0.23)"/><path class="cls-3" d="M164.85,178v-3.55h-.58v-.57h.58v-.19a1.94,1.94,0,0,1,.48-1.44,1.43,1.43,0,0,1,1-.38,1.78,1.78,0,0,1,.64.12l-.11.58a1.1,1.1,0,0,0-.47-.1c-.64,0-.8.56-.8,1.19v.22h1v.57h-1V178Z" transform="translate(0.23)"/><path class="cls-3" d="M169.66,178l-.06-.52h0a1.55,1.55,0,0,1-1.26.61,1.18,1.18,0,0,1-1.26-1.18c0-1,.88-1.54,2.47-1.53v-.08a.85.85,0,0,0-.93-1,2,2,0,0,0-1.07.31l-.17-.49a2.55,2.55,0,0,1,1.35-.37c1.26,0,1.56.86,1.56,1.68v1.54a5.9,5.9,0,0,0,.07,1Zm-.11-2.1c-.82,0-1.74.13-1.74.93a.66.66,0,0,0,.7.71,1,1,0,0,0,1-.69,1,1,0,0,0,0-.24Z" transform="translate(0.23)"/><path class="cls-3" d="M171.6,175.21c0-.49,0-.9,0-1.29h.65l0,.81h0a1.24,1.24,0,0,1,1.14-.9.71.71,0,0,1,.21,0v.7a1,1,0,0,0-.25,0,1.05,1.05,0,0,0-1,1,3.27,3.27,0,0,0,0,.35V178h-.74Z" transform="translate(0.23)"/><path class="cls-3" d="M176.19,175.46V176h-2.1v-.56Z" transform="translate(0.23)"/><path class="cls-3" d="M177.19,175.21c0-.49,0-.9,0-1.29h.65l0,.81h0a1.24,1.24,0,0,1,1.14-.9.62.62,0,0,1,.21,0v.7a.94.94,0,0,0-.25,0,1.06,1.06,0,0,0-1,1,3.27,3.27,0,0,0,0,.35V178h-.74Z" transform="translate(0.23)"/><path class="cls-3" d="M180.42,176.12a1.31,1.31,0,0,0,1.41,1.42,2.68,2.68,0,0,0,1.14-.21l.13.54a3.38,3.38,0,0,1-1.37.25,1.9,1.9,0,0,1-2-2.07,2,2,0,0,1,1.93-2.22,1.74,1.74,0,0,1,1.7,1.94,2.53,2.53,0,0,1,0,.35Zm2.19-.54a1.06,1.06,0,0,0-1-1.21,1.23,1.23,0,0,0-1.15,1.21Z" transform="translate(0.23)"/><path class="cls-3" d="M187.94,172v5c0,.36,0,.78,0,1.06h-.67l0-.72h0a1.51,1.51,0,0,1-1.4.81,1.88,1.88,0,0,1-1.76-2.09,2,2,0,0,1,1.85-2.21,1.38,1.38,0,0,1,1.24.63h0V172Zm-.74,3.6a1.22,1.22,0,0,0,0-.32,1.1,1.1,0,0,0-1.08-.86c-.77,0-1.23.68-1.23,1.59s.41,1.52,1.22,1.52a1.11,1.11,0,0,0,1.09-.89,1.19,1.19,0,0,0,0-.33Z" transform="translate(0.23)"/><path class="cls-3" d="M226.07,172.51v.5l-2.41,5h-.77l2.4-4.89v0h-2.71v-.62Z" transform="translate(0.23)"/><path class="cls-3" d="M120.55,187.44h-1.74v-.63h4.24v.63H121.3v5.1h-.75Z" transform="translate(0.23)"/><path class="cls-3" d="M124.51,187.27a.46.46,0,1,1-.92,0,.45.45,0,0,1,.46-.47A.45.45,0,0,1,124.51,187.27Zm-.83,5.27v-4.11h.75v4.11Z" transform="translate(0.23)"/><path class="cls-3" d="M125.79,189.54c0-.43,0-.77,0-1.11h.65l0,.66h0a1.42,1.42,0,0,1,1.29-.76,1.22,1.22,0,0,1,1.17.83h0a1.77,1.77,0,0,1,.46-.54,1.4,1.4,0,0,1,.91-.29c.54,0,1.35.36,1.35,1.79v2.42h-.73v-2.33c0-.79-.29-1.27-.89-1.27a1,1,0,0,0-.89.68,1.46,1.46,0,0,0-.05.38v2.54h-.74v-2.47c0-.65-.29-1.13-.85-1.13a1,1,0,0,0-.93.75,1.1,1.1,0,0,0-.06.37v2.48h-.73Z" transform="translate(0.23)"/><path class="cls-3" d="M133.41,190.62a1.32,1.32,0,0,0,1.41,1.43,2.66,2.66,0,0,0,1.14-.22l.13.54a3.31,3.31,0,0,1-1.37.25,1.91,1.91,0,0,1-2-2.07,2,2,0,0,1,1.93-2.22,1.74,1.74,0,0,1,1.7,1.94,2.53,2.53,0,0,1,0,.35Zm2.2-.54a1.07,1.07,0,0,0-1-1.21,1.23,1.23,0,0,0-1.15,1.21Z" transform="translate(0.23)"/><path class="cls-3" d="M144.48,190.68h-6.37v-.4h6.37a11.37,11.37,0,0,1-.83-1.06,6,6,0,0,1-.46-.92h.34a9.08,9.08,0,0,0,1.2,1.21,8.34,8.34,0,0,0,1.15.86v.23a7.72,7.72,0,0,0-1.21.88,9.69,9.69,0,0,0-1.14,1.18h-.34a5.54,5.54,0,0,1,.49-.95A9.3,9.3,0,0,1,144.48,190.68Z" transform="translate(0.23)"/></svg>