<svg xmlns="http://www.w3.org/2000/svg" viewBox="0 0 595 196"><defs><style>.cls-1{fill:#ededee;}.cls-2{fill:#231f20;}.cls-3,.cls-5{fill:none;}.cls-3{stroke:#a8a8a7;}.cls-4{fill:#5b9bd5;stroke:#fff;}.cls-5{stroke:#5b9bd5;stroke-miterlimit:10;}</style></defs><title>Identify_the_Graph</title><g id="Layer_1" data-name="Layer 1"><rect class="cls-1" width="286" height="196"/><path class="cls-2" d="M13.17,117.3l-1.48-.19v.61h-.63V117l-1-.14v.65H9.43v-.73L8,116.61V116l1.45.19v-.72L8,115.31v-.56l1.45.19v-.61h.62v.7l1,.12v-.63h.62v.73l1.49.19V116l-1.49-.19v.72l1.49.19Zm-2.11-1.58-1-.12v.72l1,.13Z"/><path class="cls-2" d="M11.19,108.54a1.87,1.87,0,0,1,2.07,1.88,1.83,1.83,0,0,1-2,1.83,1.87,1.87,0,0,1-2.06-1.89A1.82,1.82,0,0,1,11.19,108.54Zm0,2.75c.75,0,1.32-.34,1.32-.9s-.55-.89-1.34-.89c-.6,0-1.3.25-1.3.88S10.58,111.29,11.23,111.29Z"/><path class="cls-2" d="M13.17,107.68H10v.5H9.28v-.5H9.11a1.93,1.93,0,0,1-1.33-.44,1.35,1.35,0,0,1-.37-.95,1.83,1.83,0,0,1,.09-.59l.76.06a1,1,0,0,0-.07.39c0,.46.41.62.89.62h.2V106H10v.79h3.15Z"/><path class="cls-2" d="M13.17,102.19H10v.49H9.28v-.49H9.11a1.93,1.93,0,0,1-1.33-.44,1.35,1.35,0,0,1-.37-1,1.9,1.9,0,0,1,.09-.6l.76.07a1,1,0,0,0-.07.39c0,.46.41.62.89.62h.2v-.81H10v.8h3.15Z"/><path class="cls-2" d="M7.5,99.9V99h5.67v.92Z"/><path class="cls-2" d="M8.19,97a.52.52,0,1,1,0,1,.51.51,0,0,1-.53-.52A.5.5,0,0,1,8.19,97Zm5,1H9.28v-.93h3.89Z"/><path class="cls-2" d="M11.5,95.41a1,1,0,0,0,1-1.13,2.47,2.47,0,0,0-.18-1l.68-.13a3.15,3.15,0,0,1,.24,1.27,1.78,1.78,0,0,1-2,1.88,1.89,1.89,0,0,1-2.1-1.78c0-1.18,1-1.57,1.9-1.57a2,2,0,0,1,.41,0Zm-.69-1.6c-.35,0-1,.14-1,.75s.56.81,1,.85Z"/><path class="cls-2" d="M12.27,92.24a1.93,1.93,0,0,0,.28-.94c0-.4-.18-.58-.43-.58s-.4.15-.57.6c-.26.71-.68,1-1.13,1a1.25,1.25,0,0,1-1.23-1.38,2,2,0,0,1,.23-1l.7.18a1.47,1.47,0,0,0-.22.77c0,.33.16.51.4.51s.37-.18.55-.64c.25-.66.61-1,1.19-1s1.21.51,1.21,1.48A2.25,2.25,0,0,1,13,92.42Z"/><path class="cls-2" d="M13.17,85.46l-.43.06v0a1.29,1.29,0,0,1,.52,1.08,1.12,1.12,0,0,1-1.16,1.14c-1,0-1.48-.81-1.47-2.16h-.06c-.26,0-.68.09-.68.74a1.83,1.83,0,0,0,.29,1l-.64.18a2.45,2.45,0,0,1-.35-1.32c0-1.17.79-1.5,1.64-1.5h1.41a6.12,6.12,0,0,0,.93-.06Zm-1.9.12c0,.66.14,1.28.73,1.28a.5.5,0,0,0,.56-.53.77.77,0,0,0-.54-.72l-.21,0Z"/><path class="cls-2" d="M7.5,83.71v-.93h5.67v.93Z"/><path class="cls-2" d="M8.19,80.8a.51.51,0,0,1,.53.53.5.5,0,0,1-.53.51.51.51,0,0,1-.53-.52A.51.51,0,0,1,8.19,80.8Zm5,1H9.28v-.93h3.89Z"/><path class="cls-2" d="M9.28,79.28l2-.59c.35-.1.66-.18,1-.25v0c-.32-.07-.62-.15-1-.25l-2-.57v-1L13.17,78v.9L9.28,80.28Z"/><path class="cls-2" d="M11.5,75.41a1,1,0,0,0,1-1.12,2.49,2.49,0,0,0-.18-1l.68-.13a3.15,3.15,0,0,1,.24,1.27,1.78,1.78,0,0,1-2,1.88,1.89,1.89,0,0,1-2.1-1.78c0-1.18,1-1.57,1.9-1.57a2,2,0,0,1,.41,0Zm-.69-1.6c-.35,0-1,.14-1,.75s.56.81,1,.85Z"/><path class="cls-2" d="M97,19.34V14h.76l1.73,2.73a15.92,15.92,0,0,1,1,1.75h0c-.06-.72-.08-1.37-.08-2.21V14H101v5.39h-.7l-1.72-2.73a18.19,18.19,0,0,1-1-1.8h0c0,.68.06,1.32.06,2.22v2.3Z"/><path class="cls-2" d="M105.47,18.29q0,.6,0,1.05h-.62l0-.63h0a1.45,1.45,0,0,1-1.28.72c-.6,0-1.33-.34-1.33-1.69V15.47h.7v2.15c0,.73.23,1.23.87,1.23a1,1,0,0,0,.92-.64,1,1,0,0,0,.07-.36V15.47h.7Z"/><path class="cls-2" d="M106.64,16.52c0-.4,0-.73,0-1h.61l0,.63h0a1.35,1.35,0,0,1,1.22-.72,1.14,1.14,0,0,1,1.09.78h0a1.53,1.53,0,0,1,.43-.5,1.3,1.3,0,0,1,.85-.28c.52,0,1.28.34,1.28,1.68v2.28h-.69V17.15c0-.74-.27-1.19-.84-1.19a.91.91,0,0,0-.83.64,1,1,0,0,0-.06.35v2.39h-.69V17c0-.61-.27-1.06-.8-1.06a1,1,0,0,0-.88.7,1,1,0,0,0,0,.35v2.33h-.69Z"/><path class="cls-2" d="M113.28,19.34c0-.26,0-.65,0-1V13.67h.7V16.1h0a1.46,1.46,0,0,1,1.32-.72c1,0,1.64.8,1.64,2a1.85,1.85,0,0,1-1.74,2.07,1.39,1.39,0,0,1-1.3-.73h0l0,.64Zm.73-1.55a1.07,1.07,0,0,0,1.09,1.08c.73,0,1.17-.6,1.17-1.49s-.4-1.44-1.15-1.44A1.18,1.18,0,0,0,114,17.1Z"/><path class="cls-2" d="M118.26,17.54a1.23,1.23,0,0,0,1.32,1.34,2.53,2.53,0,0,0,1.07-.2l.12.5a3.12,3.12,0,0,1-1.28.24,1.8,1.8,0,0,1-1.91-2,1.88,1.88,0,0,1,1.82-2.09,1.65,1.65,0,0,1,1.6,1.83c0,.14,0,.25,0,.33Zm2.06-.51a1,1,0,0,0-1-1.14A1.17,1.17,0,0,0,118.26,17Z"/><path class="cls-2" d="M121.87,16.68c0-.46,0-.85,0-1.21h.62l0,.76h0a1.17,1.17,0,0,1,1.07-.85.6.6,0,0,1,.2,0v.66l-.24,0a1,1,0,0,0-.94.9,1.69,1.69,0,0,0,0,.33v2.06h-.7Z"/><path class="cls-2" d="M129.69,17.38a1.89,1.89,0,0,1-1.93,2.05,1.84,1.84,0,0,1-1.86-2,1.89,1.89,0,0,1,1.92-2.06A1.84,1.84,0,0,1,129.69,17.38Zm-3.07,0c0,.84.48,1.48,1.17,1.48s1.18-.63,1.18-1.5c0-.66-.33-1.49-1.16-1.49S126.62,16.68,126.62,17.42Z"/><path class="cls-2" d="M130.65,19.34V16h-.55v-.54h.55v-.18a1.82,1.82,0,0,1,.45-1.35,1.31,1.31,0,0,1,.94-.36,1.57,1.57,0,0,1,.6.11l-.1.54a1.15,1.15,0,0,0-.44-.08c-.6,0-.76.52-.76,1.12v.2h.94V16h-.94v3.33Z"/><path class="cls-2" d="M134.63,14a6.29,6.29,0,0,1,1.27-.12,2.17,2.17,0,0,1,1.48.4,1.11,1.11,0,0,1,.45.95,1.27,1.27,0,0,1-.91,1.18v0A1.38,1.38,0,0,1,138,17.81a1.44,1.44,0,0,1-.46,1.08,2.71,2.71,0,0,1-1.86.5,8.65,8.65,0,0,1-1.08-.06Zm.7,2.2H136c.74,0,1.17-.38,1.17-.9s-.48-.88-1.19-.88a2.49,2.49,0,0,0-.61.05Zm0,2.58a2.89,2.89,0,0,0,.58,0c.72,0,1.39-.27,1.39-1.05s-.64-1-1.4-1h-.57Z"/><path class="cls-2" d="M142.18,18.29q0,.6,0,1.05h-.62l0-.63h0a1.45,1.45,0,0,1-1.27.72c-.61,0-1.34-.34-1.34-1.69V15.47h.7v2.15c0,.73.23,1.23.87,1.23a1,1,0,0,0,.93-.64,1,1,0,0,0,.06-.36V15.47h.7Z"/><path class="cls-2" d="M144.2,14.36v1.11h1V16h-1V18.1c0,.48.14.75.53.75a1.81,1.81,0,0,0,.41-.05l0,.53a2,2,0,0,1-.63.09,1,1,0,0,1-.76-.29,1.44,1.44,0,0,1-.27-1V16h-.6v-.54h.6v-.92Z"/><path class="cls-2" d="M146.85,14.36v1.11h1V16h-1V18.1c0,.48.13.75.53.75a1.71,1.71,0,0,0,.4-.05l0,.53a1.85,1.85,0,0,1-.62.09,1,1,0,0,1-.76-.29,1.44,1.44,0,0,1-.27-1V16h-.6v-.54h.6v-.92Z"/><path class="cls-2" d="M149,17.54a1.24,1.24,0,0,0,1.33,1.34,2.57,2.57,0,0,0,1.07-.2l.12.5a3.17,3.17,0,0,1-1.29.24,1.79,1.79,0,0,1-1.9-2,1.88,1.88,0,0,1,1.81-2.09,1.64,1.64,0,0,1,1.6,1.83,2.63,2.63,0,0,1,0,.33ZM151.1,17a1,1,0,0,0-1-1.14A1.16,1.16,0,0,0,149.05,17Z"/><path class="cls-2" d="M152.66,16.68c0-.46,0-.85,0-1.21h.62l0,.76h0a1.16,1.16,0,0,1,1.07-.85.64.64,0,0,1,.2,0v.66l-.24,0a1,1,0,0,0-1,.9,3.11,3.11,0,0,0,0,.33v2.06h-.69Z"/><path class="cls-2" d="M155.34,19.34V16h-.54v-.54h.54v-.18a1.82,1.82,0,0,1,.45-1.35,1.34,1.34,0,0,1,.94-.36,1.53,1.53,0,0,1,.6.11l-.09.54a1.25,1.25,0,0,0-.45-.08c-.6,0-.75.52-.75,1.12v.2H157V16H156v3.33Z"/><path class="cls-2" d="M157.61,13.67h.7v5.67h-.7Z"/><path class="cls-2" d="M160.28,14.39a.44.44,0,0,1-.87,0,.43.43,0,0,1,.44-.44A.42.42,0,0,1,160.28,14.39Zm-.78,4.95V15.47h.7v3.87Z"/><path class="cls-2" d="M161.76,17.54a1.23,1.23,0,0,0,1.33,1.34,2.6,2.6,0,0,0,1.07-.2l.12.5a3.17,3.17,0,0,1-1.29.24,1.79,1.79,0,0,1-1.9-2,1.87,1.87,0,0,1,1.81-2.09,1.64,1.64,0,0,1,1.6,1.83,2.63,2.63,0,0,1,0,.33Zm2.06-.51a1,1,0,0,0-1-1.14A1.16,1.16,0,0,0,161.77,17Z"/><path class="cls-2" d="M165.28,18.62a1.83,1.83,0,0,0,.93.28c.51,0,.75-.25.75-.57s-.2-.52-.72-.71c-.7-.25-1-.64-1-1.1a1.19,1.19,0,0,1,1.33-1.14,1.89,1.89,0,0,1,.95.25l-.17.51a1.45,1.45,0,0,0-.79-.23c-.42,0-.65.24-.65.53s.23.46.73.66c.68.25,1,.59,1,1.16s-.53,1.16-1.45,1.16a2.25,2.25,0,0,1-1.09-.26Z"/><path class="cls-2" d="M171.14,17.65l-.56,1.69h-.72L171.69,14h.84l1.83,5.39h-.74l-.57-1.69Zm1.76-.55-.53-1.55c-.12-.35-.2-.67-.28-1h0c-.08.32-.17.65-.27,1l-.53,1.56Z"/><path class="cls-2" d="M175.14,13.67h.7v5.67h-.7Z"/><path class="cls-2" d="M177.81,14.39a.42.42,0,0,1-.45.43.41.41,0,0,1-.42-.43.43.43,0,0,1,.44-.44A.42.42,0,0,1,177.81,14.39ZM177,19.34V15.47h.71v3.87Z"/><path class="cls-2" d="M179.17,15.47l.76,2.18a9.26,9.26,0,0,1,.31,1h0c.09-.32.2-.64.33-1l.75-2.18h.74l-1.52,3.87h-.67l-1.47-3.87Z"/><path class="cls-2" d="M183.14,17.54a1.23,1.23,0,0,0,1.32,1.34,2.53,2.53,0,0,0,1.07-.2l.12.5a3.12,3.12,0,0,1-1.28.24,1.8,1.8,0,0,1-1.91-2,1.88,1.88,0,0,1,1.82-2.09,1.65,1.65,0,0,1,1.6,1.83,2.34,2.34,0,0,1,0,.33ZM185.2,17a1,1,0,0,0-1-1.14A1.17,1.17,0,0,0,183.14,17Z"/><path class="cls-2" d="M193.08,16.59a2.53,2.53,0,0,1-2.51,2.84,2.47,2.47,0,0,1-2.42-2.73,2.56,2.56,0,0,1,2.5-2.83A2.45,2.45,0,0,1,193.08,16.59Zm-4.18.09c0,1.15.62,2.18,1.71,2.18s1.73-1,1.73-2.24c0-1.07-.56-2.19-1.72-2.19S188.9,15.5,188.9,16.68Z"/><path class="cls-2" d="M194.23,15.47l.76,2.18a9.26,9.26,0,0,1,.31,1h0c.08-.32.2-.64.32-1l.76-2.18h.73l-1.52,3.87H195l-1.47-3.87Z"/><path class="cls-2" d="M198.2,17.54a1.23,1.23,0,0,0,1.33,1.34,2.6,2.6,0,0,0,1.07-.2l.12.5a3.17,3.17,0,0,1-1.29.24,1.79,1.79,0,0,1-1.9-2,1.87,1.87,0,0,1,1.81-2.09,1.65,1.65,0,0,1,1.6,1.83,2.63,2.63,0,0,1,0,.33Zm2.06-.51a1,1,0,0,0-1-1.14A1.15,1.15,0,0,0,198.21,17Z"/><path class="cls-2" d="M201.81,16.68c0-.46,0-.85,0-1.21h.62l0,.76h0a1.17,1.17,0,0,1,1.08-.85.64.64,0,0,1,.2,0v.66l-.24,0a1,1,0,0,0-1,.9,3.11,3.11,0,0,0,0,.33v2.06h-.7Z"/><path class="cls-2" d="M207.17,14.55h-1.63V14h4v.6h-1.64v4.79h-.71Z"/><path class="cls-2" d="M210.89,14.39a.42.42,0,0,1-.45.43.41.41,0,0,1-.42-.43.44.44,0,1,1,.87,0Zm-.79,4.95V15.47h.71v3.87Z"/><path class="cls-2" d="M212,16.52c0-.4,0-.73,0-1h.62l0,.63h0a1.35,1.35,0,0,1,1.22-.72,1.15,1.15,0,0,1,1.1.78h0a1.53,1.53,0,0,1,.43-.5,1.31,1.31,0,0,1,.86-.28c.51,0,1.27.34,1.27,1.68v2.28h-.69V17.15c0-.74-.27-1.19-.84-1.19a.91.91,0,0,0-.83.64,1.23,1.23,0,0,0,0,.35v2.39h-.69V17c0-.61-.27-1.06-.81-1.06a1,1,0,0,0-.87.7,1,1,0,0,0-.06.35v2.33H212Z"/><path class="cls-2" d="M219,17.54a1.23,1.23,0,0,0,1.33,1.34,2.6,2.6,0,0,0,1.07-.2l.12.5a3.17,3.17,0,0,1-1.29.24,1.79,1.79,0,0,1-1.9-2,1.87,1.87,0,0,1,1.81-2.09,1.65,1.65,0,0,1,1.6,1.83,2.63,2.63,0,0,1,0,.33ZM221.1,17a1,1,0,0,0-1-1.14A1.15,1.15,0,0,0,219.05,17Z"/><path class="cls-2" d="M151.78,184a9,9,0,0,1,1.48-.12,3.09,3.09,0,0,1,2.18.68,2.47,2.47,0,0,1,.76,1.93,2.85,2.85,0,0,1-.78,2.1,3.32,3.32,0,0,1-2.38.77,11.19,11.19,0,0,1-1.26-.06Zm.69,4.76a4.69,4.69,0,0,0,.71,0,2.07,2.07,0,0,0,2.29-2.29,1.91,1.91,0,0,0-2.18-2.07,4.07,4.07,0,0,0-.82.07Z"/><path class="cls-2" d="M159.22,189.34l-.05-.48h0a1.44,1.44,0,0,1-1.18.57,1.1,1.1,0,0,1-1.18-1.11c0-.94.83-1.45,2.32-1.44v-.08a.79.79,0,0,0-.88-.89,2,2,0,0,0-1,.28l-.16-.46a2.37,2.37,0,0,1,1.27-.35c1.18,0,1.47.81,1.47,1.59v1.45a6.36,6.36,0,0,0,.06.92Zm-.1-2c-.77,0-1.64.12-1.64.87a.62.62,0,0,0,.66.67,1,1,0,0,0,.94-.65.85.85,0,0,0,0-.22Z"/><path class="cls-2" d="M161.19,185.47l.85,2.29c.09.26.18.56.25.79h0c.08-.23.16-.53.25-.81l.77-2.27h.74L163,188.23a5.88,5.88,0,0,1-1.33,2.42,1.85,1.85,0,0,1-.86.46l-.18-.59a1.88,1.88,0,0,0,.62-.35,2.12,2.12,0,0,0,.59-.78.51.51,0,0,0,.05-.17.59.59,0,0,0,0-.18l-1.44-3.57Z"/><path class="cls-2" d="M164.61,188.62a1.8,1.8,0,0,0,.93.28c.51,0,.75-.25.75-.57s-.2-.52-.72-.71c-.7-.25-1-.64-1-1.1a1.2,1.2,0,0,1,1.34-1.14,1.89,1.89,0,0,1,1,.25l-.17.51a1.52,1.52,0,0,0-.8-.23c-.41,0-.64.24-.64.53s.23.46.73.66c.67.25,1,.59,1,1.16s-.53,1.16-1.45,1.16a2.25,2.25,0,0,1-1.09-.26Z"/><path class="cls-2" d="M80.43,174v-.43L81,173c1.33-1.26,1.93-1.93,1.94-2.72a.93.93,0,0,0-1-1,1.79,1.79,0,0,0-1.11.44l-.22-.5a2.3,2.3,0,0,1,1.47-.53,1.46,1.46,0,0,1,1.59,1.52c0,1-.69,1.73-1.79,2.79l-.41.38v0h2.33V174Z"/><path class="cls-2" d="M84.7,173.2a2.35,2.35,0,0,0,1.15.33c.91,0,1.19-.58,1.18-1,0-.73-.66-1-1.34-1H85.3V171h.39c.51,0,1.16-.27,1.16-.88,0-.42-.27-.79-.91-.79a1.89,1.89,0,0,0-1,.35l-.19-.52a2.47,2.47,0,0,1,1.36-.4c1,0,1.49.61,1.49,1.24a1.29,1.29,0,0,1-1,1.23h0a1.36,1.36,0,0,1,1.16,1.34c0,.83-.65,1.56-1.9,1.56a2.74,2.74,0,0,1-1.35-.35Z"/><path class="cls-2" d="M36.89,171.36c0,1.76-.66,2.74-1.81,2.74s-1.7-.95-1.72-2.67.75-2.71,1.81-2.71S36.89,169.7,36.89,171.36Zm-2.83.07c0,1.36.42,2.12,1.06,2.12s1.06-.84,1.06-2.16-.33-2.12-1-2.12S34.06,170,34.06,171.43Z"/><path class="cls-2" d="M29.09,165.36c0,1.76-.65,2.74-1.8,2.74s-1.71-.95-1.72-2.67.75-2.71,1.8-2.71S29.09,163.7,29.09,165.36Zm-2.82.07c0,1.36.42,2.12,1.06,2.12s1.06-.84,1.06-2.16-.33-2.12-1.06-2.12S26.27,164,26.27,165.43Z"/><path class="cls-2" d="M24.91,139.15v.46l-2.26,4.73h-.73l2.25-4.59v0H21.63v-.58Z"/><path class="cls-2" d="M27.17,139.8h0l-.9.49-.14-.54,1.14-.6h.6v5.19h-.68Z"/><path class="cls-2" d="M19,115.8h0l-.9.49-.14-.54,1.14-.6h.6v5.19H19Z"/><path class="cls-2" d="M24.64,115.74h-2l-.2,1.33a3.89,3.89,0,0,1,.42,0,2.22,2.22,0,0,1,1.12.28,1.48,1.48,0,0,1,.74,1.34,1.8,1.8,0,0,1-1.93,1.77,2.56,2.56,0,0,1-1.3-.32l.18-.53a2.41,2.41,0,0,0,1.11.28A1.15,1.15,0,0,0,24,118.74c0-.68-.46-1.16-1.49-1.16a5.92,5.92,0,0,0-.72.06l.33-2.49h2.49Z"/><path class="cls-2" d="M25.58,119a1.49,1.49,0,0,1,1-1.39v0a1.28,1.28,0,0,1-.82-1.17,1.45,1.45,0,0,1,1.6-1.38,1.35,1.35,0,0,1,1.52,1.28,1.31,1.31,0,0,1-.86,1.21v0a1.43,1.43,0,0,1,1.05,1.34,1.61,1.61,0,0,1-1.77,1.51C26.23,120.43,25.58,119.78,25.58,119Zm2.8,0c0-.63-.44-.93-1.15-1.13a1.11,1.11,0,0,0-.93,1.07,1,1,0,0,0,1,1A.94.94,0,0,0,28.38,119Zm-1.94-2.6c0,.52.39.8,1,1a1,1,0,0,0,.79-.94.8.8,0,0,0-.88-.85A.83.83,0,0,0,26.44,116.39Z"/><path class="cls-2" d="M19,93.8h0l-.9.49-.14-.54,1.14-.6h.6v5.19H19Z"/><path class="cls-2" d="M24.91,93.15v.46l-2.26,4.73h-.73l2.25-4.59v0H21.63v-.58Z"/><path class="cls-2" d="M29.09,95.69c0,1.77-.65,2.74-1.8,2.74s-1.71-1-1.72-2.67.75-2.7,1.81-2.7S29.09,94,29.09,95.69Zm-2.82.08c0,1.35.42,2.12,1.06,2.12s1.06-.84,1.06-2.17-.33-2.12-1.05-2.12S26.27,94.35,26.27,95.77Z"/><path class="cls-2" d="M17.43,75.34v-.43l.55-.53c1.33-1.27,1.93-1.94,1.94-2.72a.93.93,0,0,0-1-1,1.79,1.79,0,0,0-1.11.44l-.22-.49A2.25,2.25,0,0,1,19,70.06a1.46,1.46,0,0,1,1.59,1.51c0,1-.69,1.73-1.79,2.79l-.41.38v0h2.33v.58Z"/><path class="cls-2" d="M24.64,70.74h-2l-.2,1.33a3.89,3.89,0,0,1,.42,0,2.22,2.22,0,0,1,1.12.28,1.48,1.48,0,0,1,.74,1.34,1.8,1.8,0,0,1-1.93,1.77,2.56,2.56,0,0,1-1.3-.32l.18-.53a2.41,2.41,0,0,0,1.11.28A1.15,1.15,0,0,0,24,73.74c0-.68-.46-1.16-1.49-1.16a5.92,5.92,0,0,0-.72.06l.33-2.49h2.49Z"/><path class="cls-2" d="M29.09,72.69c0,1.77-.65,2.74-1.8,2.74s-1.71-1-1.72-2.67.75-2.7,1.81-2.7S29.09,71,29.09,72.69Zm-2.82.08c0,1.35.42,2.12,1.06,2.12s1.06-.84,1.06-2.17-.33-2.12-1.05-2.12S26.27,71.35,26.27,72.77Z"/><path class="cls-2" d="M128.6,173.2a2.31,2.31,0,0,0,1.15.33c.91,0,1.19-.58,1.18-1,0-.73-.67-1-1.35-1h-.39V171h.39c.52,0,1.16-.27,1.16-.88,0-.42-.26-.79-.91-.79a2,2,0,0,0-1,.35l-.18-.52a2.47,2.47,0,0,1,1.36-.4c1,0,1.48.61,1.48,1.24a1.28,1.28,0,0,1-.95,1.23h0a1.35,1.35,0,0,1,1.15,1.34c0,.83-.64,1.56-1.89,1.56a2.71,2.71,0,0,1-1.35-.35Z"/><path class="cls-2" d="M132.47,172.69a1.48,1.48,0,0,1,1-1.39v0a1.3,1.3,0,0,1-.83-1.17,1.46,1.46,0,0,1,1.61-1.39,1.34,1.34,0,0,1,1.51,1.28,1.33,1.33,0,0,1-.85,1.22v0a1.46,1.46,0,0,1,1,1.35,1.6,1.6,0,0,1-1.76,1.51C133.13,174.1,132.47,173.45,132.47,172.69Zm2.8,0c0-.63-.44-.94-1.14-1.14a1.14,1.14,0,0,0-.94,1.07,1,1,0,0,0,1,1A1,1,0,0,0,135.27,172.66Zm-1.93-2.6c0,.52.39.8,1,1a1,1,0,0,0,.79-.94.81.81,0,0,0-.88-.85A.82.82,0,0,0,133.34,170.06Z"/><path class="cls-2" d="M178.61,174v-1.42h-2.42v-.46l2.32-3.32h.76V172H180v.55h-.73V174Zm0-2v-1.73c0-.27,0-.55,0-.82h0c-.16.31-.29.53-.43.77L176.9,172h1.71Z"/><path class="cls-2" d="M180.7,173.2a2.35,2.35,0,0,0,1.15.33c.91,0,1.19-.58,1.18-1,0-.73-.66-1-1.34-1h-.39V171h.39c.51,0,1.16-.27,1.16-.88,0-.42-.27-.79-.91-.79a1.89,1.89,0,0,0-1,.35l-.19-.52a2.47,2.47,0,0,1,1.36-.4c1,0,1.49.61,1.49,1.24a1.29,1.29,0,0,1-1,1.23h0a1.36,1.36,0,0,1,1.16,1.34c0,.83-.65,1.56-1.9,1.56a2.74,2.74,0,0,1-1.35-.35Z"/><rect class="cls-3" x="34.59" y="28" width="240" height="137"/><line class="cls-3" x1="34.49" y1="50.5" x2="274.49" y2="50.5"/><line class="cls-3" x1="83.09" y1="164.5" x2="82.84" y2="28.25"/><line class="cls-3" x1="131.09" y1="164.5" x2="130.84" y2="28.25"/><line class="cls-3" x1="179.09" y1="164.5" x2="178.84" y2="28.25"/><line class="cls-3" x1="227.09" y1="164.5" x2="226.84" y2="28.25"/><line class="cls-3" x1="34.49" y1="73.5" x2="274.49" y2="73.5"/><line class="cls-3" x1="34.49" y1="96.5" x2="274.49" y2="96.5"/><line class="cls-3" x1="34.49" y1="118.5" x2="274.49" y2="118.5"/><line class="cls-3" x1="34.49" y1="141.5" x2="274.49" y2="141.5"/><circle class="cls-4" cx="35.5" cy="75.5" r="5"/><circle class="cls-4" cx="84.5" cy="99.5" r="5"/><circle class="cls-4" cx="179.5" cy="142.5" r="5"/><circle class="cls-4" cx="129.5" cy="120.5" r="5"/><line class="cls-5" x1="39" y1="77" x2="177" y2="140"/></g><g id="Layer_2" data-name="Layer 2"><rect class="cls-1" x="309" width="286" height="196"/><path class="cls-2" d="M333.17,121.16l-1.48-.2v.62h-.63v-.71l-1-.13v.64h-.62v-.73l-1.45-.19v-.56l1.45.19v-.73l-1.45-.2v-.56l1.45.19v-.61h.62v.7l1,.13v-.63h.62v.72l1.49.19v.58l-1.49-.2v.72l1.49.2Zm-2.11-1.58-1-.13v.73l1,.12Z"/><path class="cls-2" d="M331.19,112.4a1.87,1.87,0,0,1,2.07,1.87,1.83,1.83,0,0,1-2,1.83,1.87,1.87,0,0,1-2.06-1.89A1.81,1.81,0,0,1,331.19,112.4Zm0,2.75c.75,0,1.32-.35,1.32-.91s-.55-.89-1.34-.89c-.6,0-1.3.25-1.3.88S330.58,115.15,331.23,115.15Z"/><path class="cls-2" d="M333.17,111.54H330V112h-.74v-.49h-.17a1.89,1.89,0,0,1-1.33-.45,1.33,1.33,0,0,1-.37-1,1.83,1.83,0,0,1,.09-.59l.76.07a1,1,0,0,0-.07.39c0,.45.41.61.89.61h.2v-.8H330v.79h3.15Z"/><path class="cls-2" d="M333.17,106H330v.5h-.74V106h-.17a1.88,1.88,0,0,1-1.33-.44,1.35,1.35,0,0,1-.37-.95,1.83,1.83,0,0,1,.09-.59l.76.07a1,1,0,0,0-.07.38c0,.46.41.62.89.62h.2v-.8H330v.79h3.15Z"/><path class="cls-2" d="M327.5,103.76v-.93h5.67v.93Z"/><path class="cls-2" d="M328.19,100.85a.5.5,0,0,1,.53.53.5.5,0,0,1-.53.5.52.52,0,1,1,0-1Zm5,1h-3.89v-.93h3.89Z"/><path class="cls-2" d="M331.5,99.26a1,1,0,0,0,1-1.12,2.4,2.4,0,0,0-.18-1L333,97a3.21,3.21,0,0,1,.24,1.28,1.78,1.78,0,0,1-2,1.88,1.89,1.89,0,0,1-2.1-1.79c0-1.18,1-1.57,1.9-1.57a2.07,2.07,0,0,1,.41,0Zm-.69-1.6c-.35,0-.95.14-.95.76s.56.8.95.84Z"/><path class="cls-2" d="M332.27,96.09a1.89,1.89,0,0,0,.28-.93c0-.41-.18-.59-.43-.59s-.4.15-.57.6c-.26.71-.68,1-1.13,1a1.25,1.25,0,0,1-1.23-1.37,2,2,0,0,1,.23-1l.7.18a1.53,1.53,0,0,0-.22.77c0,.33.16.51.4.51s.37-.17.55-.64c.25-.66.61-1,1.19-1s1.21.52,1.21,1.48a2.25,2.25,0,0,1-.27,1.11Z"/><path class="cls-2" d="M333.17,89.32l-.43.06v0a1.32,1.32,0,0,1,.52,1.08,1.13,1.13,0,0,1-1.16,1.15c-1,0-1.48-.82-1.47-2.17h-.06c-.26,0-.68.1-.68.74a1.8,1.8,0,0,0,.29,1l-.64.18a2.45,2.45,0,0,1-.35-1.32c0-1.16.79-1.5,1.64-1.5h1.41a8,8,0,0,0,.93-.05Zm-1.9.12c0,.65.14,1.27.73,1.27a.5.5,0,0,0,.56-.52.75.75,0,0,0-.54-.72l-.21,0Z"/><path class="cls-2" d="M327.5,87.56v-.92h5.67v.92Z"/><path class="cls-2" d="M328.19,84.66a.52.52,0,1,1,0,1,.52.52,0,1,1,0-1Zm5,1h-3.89v-.93h3.89Z"/><path class="cls-2" d="M329.28,83.14l2-.6c.35-.1.66-.18,1-.24v0c-.32-.06-.62-.14-1-.24l-2-.58v-1l3.89,1.39v.91l-3.89,1.35Z"/><path class="cls-2" d="M331.5,79.26a1,1,0,0,0,1-1.12,2.4,2.4,0,0,0-.18-1L333,77a3.21,3.21,0,0,1,.24,1.28,1.78,1.78,0,0,1-2,1.88,1.89,1.89,0,0,1-2.1-1.79c0-1.18,1-1.57,1.9-1.57a3.32,3.32,0,0,1,.41,0Zm-.69-1.6c-.35,0-.95.14-.95.76s.56.81.95.84Z"/><path class="cls-2" d="M404.7,17.34V12h.76l1.72,2.73a14.42,14.42,0,0,1,1,1.75h0a21.92,21.92,0,0,1-.08-2.21V12h.65v5.39H408l-1.71-2.73a16.49,16.49,0,0,1-1-1.8h0c0,.68.05,1.32.05,2.22v2.3Z"/><path class="cls-2" d="M413.18,16.29c0,.4,0,.75,0,1.05h-.63l0-.63h0a1.47,1.47,0,0,1-1.28.72c-.61,0-1.34-.34-1.34-1.69V13.47h.71v2.15c0,.73.22,1.23.86,1.23a1,1,0,0,0,.93-.64,1,1,0,0,0,.06-.36V13.47h.71Z"/><path class="cls-2" d="M414.35,14.52c0-.4,0-.73,0-1h.62l0,.63h0a1.32,1.32,0,0,1,1.21-.72,1.15,1.15,0,0,1,1.1.78h0a1.53,1.53,0,0,1,.43-.5,1.33,1.33,0,0,1,.86-.28c.51,0,1.27.34,1.27,1.68v2.28h-.69V15.15c0-.74-.27-1.19-.84-1.19a.91.91,0,0,0-.83.64,1.23,1.23,0,0,0-.05.35v2.39h-.69V15c0-.61-.27-1.06-.81-1.06a1,1,0,0,0-.87.7A1,1,0,0,0,415,15v2.33h-.68Z"/><path class="cls-2" d="M421,17.34c0-.26,0-.65,0-1V11.67h.69V14.1h0a1.45,1.45,0,0,1,1.32-.72c1,0,1.64.8,1.63,2a1.84,1.84,0,0,1-1.74,2.07,1.38,1.38,0,0,1-1.29-.73h0l0,.64Zm.72-1.55a1.09,1.09,0,0,0,0,.26,1.07,1.07,0,0,0,1.05.82c.74,0,1.18-.6,1.18-1.49s-.4-1.44-1.16-1.44a1.13,1.13,0,0,0-1.07.87,1.84,1.84,0,0,0,0,.29Z"/><path class="cls-2" d="M426,15.54a1.24,1.24,0,0,0,1.33,1.34,2.57,2.57,0,0,0,1.07-.2l.12.5a3.17,3.17,0,0,1-1.29.24,1.79,1.79,0,0,1-1.9-2,1.88,1.88,0,0,1,1.81-2.09,1.64,1.64,0,0,1,1.6,1.83,2.63,2.63,0,0,1,0,.33ZM428,15a1,1,0,0,0-1-1.14A1.16,1.16,0,0,0,426,15Z"/><path class="cls-2" d="M429.58,14.68c0-.46,0-.85,0-1.21h.62l0,.76h0a1.16,1.16,0,0,1,1.07-.85.64.64,0,0,1,.2,0v.66l-.24,0a1,1,0,0,0-.95.9,3.11,3.11,0,0,0,0,.33v2.06h-.69Z"/><path class="cls-2" d="M437.39,15.38a1.89,1.89,0,0,1-1.93,2,1.84,1.84,0,0,1-1.85-2,1.89,1.89,0,0,1,1.92-2.06A1.84,1.84,0,0,1,437.39,15.38Zm-3.07,0c0,.84.49,1.48,1.18,1.48s1.17-.63,1.17-1.5c0-.66-.33-1.49-1.16-1.49S434.32,14.68,434.32,15.42Z"/><path class="cls-2" d="M438.35,17.34V14h-.54v-.54h.54v-.18a1.82,1.82,0,0,1,.45-1.35,1.33,1.33,0,0,1,.94-.36,1.53,1.53,0,0,1,.6.11l-.09.54a1.25,1.25,0,0,0-.45-.08c-.6,0-.75.52-.75,1.12v.2H440V14h-.93v3.33Z"/><path class="cls-2" d="M442.34,12a6.14,6.14,0,0,1,1.27-.12,2.2,2.2,0,0,1,1.48.4,1.11,1.11,0,0,1,.45.95,1.28,1.28,0,0,1-.92,1.18v0a1.38,1.38,0,0,1,1.12,1.35,1.48,1.48,0,0,1-.46,1.08,2.73,2.73,0,0,1-1.86.5,8.65,8.65,0,0,1-1.08-.06Zm.69,2.2h.63c.74,0,1.17-.38,1.17-.9s-.48-.88-1.18-.88a2.6,2.6,0,0,0-.62.05Zm0,2.58a3.07,3.07,0,0,0,.59,0c.72,0,1.38-.27,1.38-1.05s-.63-1-1.39-1H443Z"/><path class="cls-2" d="M449.89,16.29q0,.6,0,1.05h-.62l0-.63h0a1.45,1.45,0,0,1-1.28.72c-.61,0-1.33-.34-1.33-1.69V13.47h.7v2.15c0,.73.22,1.23.86,1.23a1,1,0,0,0,.93-.64,1,1,0,0,0,.06-.36V13.47h.71Z"/><path class="cls-2" d="M451.9,12.36v1.11h1V14h-1V16.1c0,.48.14.75.53.75a1.73,1.73,0,0,0,.41-.05l0,.53a1.85,1.85,0,0,1-.62.09,1,1,0,0,1-.76-.29,1.44,1.44,0,0,1-.27-1V14h-.6v-.54h.6v-.92Z"/><path class="cls-2" d="M454.55,12.36v1.11h1V14h-1V16.1c0,.48.14.75.53.75a1.81,1.81,0,0,0,.41-.05l0,.53a1.89,1.89,0,0,1-.62.09,1,1,0,0,1-.76-.29,1.44,1.44,0,0,1-.28-1V14h-.6v-.54h.6v-.92Z"/><path class="cls-2" d="M456.75,15.54a1.23,1.23,0,0,0,1.32,1.34,2.53,2.53,0,0,0,1.07-.2l.12.5a3.12,3.12,0,0,1-1.28.24,1.8,1.8,0,0,1-1.91-2,1.88,1.88,0,0,1,1.82-2.09,1.65,1.65,0,0,1,1.6,1.83,2.34,2.34,0,0,1,0,.33Zm2.06-.51a1,1,0,0,0-1-1.14A1.17,1.17,0,0,0,456.75,15Z"/><path class="cls-2" d="M460.36,14.68c0-.46,0-.85,0-1.21h.61l0,.76h0a1.17,1.17,0,0,1,1.07-.85.6.6,0,0,1,.2,0v.66l-.24,0a1,1,0,0,0-.94.9,1.69,1.69,0,0,0,0,.33v2.06h-.7Z"/><path class="cls-2" d="M463.05,17.34V14h-.55v-.54h.55v-.18a1.82,1.82,0,0,1,.45-1.35,1.31,1.31,0,0,1,.94-.36,1.57,1.57,0,0,1,.6.11l-.1.54a1.15,1.15,0,0,0-.44-.08c-.6,0-.76.52-.76,1.12v.2h.94V14h-.94v3.33Z"/><path class="cls-2" d="M465.31,11.67H466v5.67h-.71Z"/><path class="cls-2" d="M468,12.39a.41.41,0,0,1-.44.43.42.42,0,0,1-.43-.43.43.43,0,0,1,.44-.44A.41.41,0,0,1,468,12.39Zm-.78,4.95V13.47h.7v3.87Z"/><path class="cls-2" d="M469.46,15.54a1.24,1.24,0,0,0,1.33,1.34,2.57,2.57,0,0,0,1.07-.2l.12.5a3.16,3.16,0,0,1-1.28.24,1.8,1.8,0,0,1-1.91-2,1.88,1.88,0,0,1,1.82-2.09,1.65,1.65,0,0,1,1.6,1.83,2.34,2.34,0,0,1,0,.33Zm2.07-.51a1,1,0,0,0-1-1.14A1.17,1.17,0,0,0,469.47,15Z"/><path class="cls-2" d="M473,16.62a1.83,1.83,0,0,0,.93.28c.51,0,.75-.25.75-.57s-.2-.52-.72-.71c-.69-.25-1-.64-1-1.1a1.2,1.2,0,0,1,1.34-1.14,1.92,1.92,0,0,1,.95.25l-.18.51a1.45,1.45,0,0,0-.79-.23c-.42,0-.65.24-.65.53s.23.46.74.66c.67.25,1,.59,1,1.16s-.52,1.16-1.44,1.16a2.19,2.19,0,0,1-1.09-.26Z"/><path class="cls-2" d="M478.84,15.65l-.56,1.69h-.72L479.39,12h.84l1.84,5.39h-.74l-.58-1.69Zm1.77-.55-.53-1.55c-.12-.35-.2-.67-.28-1h0c-.08.32-.16.65-.27,1L479,15.1Z"/><path class="cls-2" d="M482.84,11.67h.7v5.67h-.7Z"/><path class="cls-2" d="M485.51,12.39a.44.44,0,0,1-.87,0,.43.43,0,0,1,.44-.44A.42.42,0,0,1,485.51,12.39Zm-.78,4.95V13.47h.7v3.87Z"/><path class="cls-2" d="M486.87,13.47l.76,2.18a9.26,9.26,0,0,1,.31,1h0c.09-.32.2-.64.32-1l.76-2.18h.73l-1.52,3.87h-.67l-1.47-3.87Z"/><path class="cls-2" d="M490.84,15.54a1.24,1.24,0,0,0,1.33,1.34,2.6,2.6,0,0,0,1.07-.2l.12.5a3.17,3.17,0,0,1-1.29.24,1.79,1.79,0,0,1-1.9-2A1.88,1.88,0,0,1,492,13.38a1.64,1.64,0,0,1,1.6,1.83,2.63,2.63,0,0,1,0,.33ZM492.9,15a1,1,0,0,0-1-1.14A1.16,1.16,0,0,0,490.85,15Z"/><path class="cls-2" d="M500.78,14.59a2.52,2.52,0,0,1-2.5,2.84,2.47,2.47,0,0,1-2.42-2.73,2.56,2.56,0,0,1,2.5-2.83A2.45,2.45,0,0,1,500.78,14.59Zm-4.18.09c0,1.15.62,2.18,1.72,2.18s1.73-1,1.73-2.24c0-1.07-.56-2.19-1.72-2.19S496.6,13.5,496.6,14.68Z"/><path class="cls-2" d="M501.94,13.47l.76,2.18c.12.35.23.67.31,1h0c.09-.32.2-.64.33-1l.75-2.18h.74l-1.52,3.87h-.67l-1.48-3.87Z"/><path class="cls-2" d="M505.9,15.54a1.24,1.24,0,0,0,1.33,1.34,2.57,2.57,0,0,0,1.07-.2l.12.5a3.17,3.17,0,0,1-1.29.24,1.79,1.79,0,0,1-1.9-2,1.88,1.88,0,0,1,1.82-2.09,1.65,1.65,0,0,1,1.6,1.83,2.34,2.34,0,0,1,0,.33ZM508,15a1,1,0,0,0-1-1.14A1.17,1.17,0,0,0,505.91,15Z"/><path class="cls-2" d="M509.52,14.68c0-.46,0-.85,0-1.21h.61l0,.76h0a1.16,1.16,0,0,1,1.07-.85.6.6,0,0,1,.2,0v.66l-.24,0a1,1,0,0,0-.94.9,1.66,1.66,0,0,0,0,.33v2.06h-.69Z"/><path class="cls-2" d="M514.88,12.55h-1.64V12h4v.6h-1.65v4.79h-.7Z"/><path class="cls-2" d="M518.59,12.39a.44.44,0,0,1-.87,0,.43.43,0,0,1,.44-.44A.42.42,0,0,1,518.59,12.39Zm-.78,4.95V13.47h.7v3.87Z"/><path class="cls-2" d="M519.68,14.52c0-.4,0-.73,0-1h.61l0,.63h0a1.33,1.33,0,0,1,1.21-.72,1.15,1.15,0,0,1,1.1.78h0a1.53,1.53,0,0,1,.43-.5,1.3,1.3,0,0,1,.85-.28c.51,0,1.27.34,1.27,1.68v2.28h-.68V15.15c0-.74-.27-1.19-.84-1.19a.91.91,0,0,0-.83.64,1,1,0,0,0-.06.35v2.39h-.69V15c0-.61-.27-1.06-.81-1.06a1,1,0,0,0-.87.7,1,1,0,0,0,0,.35v2.33h-.69Z"/><path class="cls-2" d="M526.74,15.54a1.24,1.24,0,0,0,1.33,1.34,2.57,2.57,0,0,0,1.07-.2l.12.5a3.17,3.17,0,0,1-1.29.24,1.79,1.79,0,0,1-1.9-2,1.88,1.88,0,0,1,1.82-2.09,1.65,1.65,0,0,1,1.6,1.83,2.34,2.34,0,0,1,0,.33Zm2.07-.51a1,1,0,0,0-1-1.14A1.17,1.17,0,0,0,526.75,15Z"/><path class="cls-2" d="M460,186a7.88,7.88,0,0,1,1.38-.12,2.78,2.78,0,0,1,2,.67,2.64,2.64,0,0,1,.71,1.94,2.62,2.62,0,0,1-2.95,2.87,9.76,9.76,0,0,1-1.17-.06Zm.65,4.76a4,4,0,0,0,.65,0,2,2,0,0,0,2.14-2.29,1.85,1.85,0,0,0-2-2.07,3.42,3.42,0,0,0-.76.07Z"/><path class="cls-2" d="M466.93,191.34l-.05-.48h0a1.31,1.31,0,0,1-1.1.57,1.06,1.06,0,0,1-1.1-1.11c0-.94.77-1.45,2.17-1.44v-.08a.78.78,0,0,0-.82-.9,1.74,1.74,0,0,0-.94.29l-.15-.46a2.11,2.11,0,0,1,1.18-.35c1.11,0,1.37.81,1.37,1.59v1.45a6.36,6.36,0,0,0,.06.92Zm-.1-2c-.71,0-1.52.12-1.52.87a.6.6,0,0,0,.61.67.9.9,0,0,0,.87-.65.57.57,0,0,0,0-.22Z"/><path class="cls-2" d="M468.76,187.47l.79,2.29c.08.26.17.56.23.79h0c.06-.23.14-.53.23-.81l.71-2.27h.69l-1,2.76a5.9,5.9,0,0,1-1.24,2.42,1.69,1.69,0,0,1-.8.46l-.16-.59a1.72,1.72,0,0,0,.57-.35,2.08,2.08,0,0,0,.55-.78.51.51,0,0,0,.05-.17.59.59,0,0,0,0-.18l-1.33-3.57Z"/><path class="cls-2" d="M471.94,190.62a1.6,1.6,0,0,0,.86.28c.48,0,.7-.25.7-.57s-.18-.52-.67-.71-.95-.64-.95-1.1a1.15,1.15,0,0,1,1.24-1.14,1.68,1.68,0,0,1,.89.25l-.16.51a1.35,1.35,0,0,0-.74-.23.54.54,0,0,0-.6.53c0,.32.21.46.68.66.63.25.95.59.95,1.16s-.5,1.16-1.35,1.16a1.91,1.91,0,0,1-1-.26Z"/><path class="cls-2" d="M396.73,175.67h0l-.84.49-.13-.54,1.06-.61h.56v5.2h-.63Z"/><path class="cls-2" d="M402.34,177.56c0,1.76-.61,2.74-1.68,2.74s-1.59-1-1.6-2.67.7-2.71,1.68-2.71S402.34,175.9,402.34,177.56Zm-2.63.08c0,1.35.39,2.11,1,2.11s1-.83,1-2.16-.31-2.12-1-2.12S399.71,176.22,399.71,177.64Z"/><path class="cls-2" d="M355.52,177.56c0,1.76-.61,2.74-1.68,2.74s-1.59-1-1.6-2.67.7-2.71,1.68-2.71S355.52,175.9,355.52,177.56Zm-2.63.08c0,1.35.39,2.11,1,2.11s1-.83,1-2.16-.31-2.12-1-2.12S352.89,176.22,352.89,177.64Z"/><path class="cls-2" d="M348.53,167.56c0,1.76-.61,2.74-1.68,2.74s-1.59-1-1.61-2.67.7-2.71,1.69-2.71S348.53,165.9,348.53,167.56Zm-2.63.08c0,1.35.39,2.11,1,2.11s1-.83,1-2.16-.3-2.12-1-2.12S345.9,166.22,345.9,167.64Z"/><path class="cls-2" d="M344.38,142.74h-1.85l-.18,1.33a3.27,3.27,0,0,1,.39,0,2,2,0,0,1,1.05.28,1.5,1.5,0,0,1,.69,1.34,1.73,1.73,0,0,1-1.8,1.77,2.25,2.25,0,0,1-1.21-.32l.16-.53a2.16,2.16,0,0,0,1,.28,1.1,1.1,0,0,0,1.15-1.12c0-.68-.43-1.16-1.4-1.16a5.35,5.35,0,0,0-.67.06l.32-2.49h2.31Z"/><path class="cls-2" d="M348.53,144.69c0,1.77-.61,2.74-1.68,2.74s-1.59-1-1.61-2.67.7-2.7,1.69-2.7S348.53,143,348.53,144.69Zm-2.63.08c0,1.35.39,2.12,1,2.12s1-.84,1-2.17-.3-2.12-1-2.12S345.9,143.35,345.9,144.77Z"/><path class="cls-2" d="M339.1,119.8h0l-.84.49-.13-.54,1.06-.6h.56v5.19h-.63Z"/><path class="cls-2" d="M344.71,121.69c0,1.77-.61,2.74-1.68,2.74s-1.59-1-1.6-2.67.7-2.7,1.68-2.7S344.71,120,344.71,121.69Zm-2.63.08c0,1.35.39,2.12,1,2.12s1-.84,1-2.17-.3-2.12-1-2.12S342.08,120.35,342.08,121.77Z"/><path class="cls-2" d="M348.53,121.69c0,1.77-.61,2.74-1.68,2.74s-1.59-1-1.61-2.67.7-2.7,1.69-2.7S348.53,120,348.53,121.69Zm-2.63.08c0,1.35.39,2.12,1,2.12s1-.84,1-2.17-.3-2.12-1-2.12S345.9,120.35,345.9,121.77Z"/><path class="cls-2" d="M339.1,96.8h0l-.84.49-.13-.54,1.06-.6h.56v5.19h-.63Z"/><path class="cls-2" d="M344.38,96.74h-1.85l-.18,1.33a3.27,3.27,0,0,1,.39,0,2,2,0,0,1,1.05.28,1.5,1.5,0,0,1,.69,1.34,1.73,1.73,0,0,1-1.8,1.77,2.25,2.25,0,0,1-1.21-.32l.16-.53a2.16,2.16,0,0,0,1,.28,1.1,1.1,0,0,0,1.15-1.12c0-.68-.43-1.16-1.4-1.16a5.35,5.35,0,0,0-.67.06l.32-2.49h2.31Z"/><path class="cls-2" d="M348.53,98.69c0,1.77-.61,2.74-1.68,2.74s-1.59-1-1.61-2.67.7-2.7,1.69-2.7S348.53,97,348.53,98.69Zm-2.63.08c0,1.35.39,2.12,1,2.12s1-.84,1-2.17-.3-2.12-1-2.12S345.9,97.35,345.9,98.77Z"/><path class="cls-2" d="M337.67,79.34v-.43l.52-.53c1.23-1.27,1.79-1.94,1.8-2.72a.9.9,0,0,0-1-1,1.59,1.59,0,0,0-1,.44l-.21-.49a2,2,0,0,1,1.37-.53,1.41,1.41,0,0,1,1.48,1.51c0,1-.64,1.73-1.66,2.79l-.39.38v0h2.17v.58Z"/><path class="cls-2" d="M344.71,76.69c0,1.77-.61,2.74-1.68,2.74s-1.59-1-1.6-2.67.7-2.7,1.68-2.7S344.71,75,344.71,76.69Zm-2.63.08c0,1.35.39,2.12,1,2.12s1-.84,1-2.17-.3-2.12-1-2.12S342.08,75.35,342.08,76.77Z"/><path class="cls-2" d="M348.53,76.69c0,1.77-.61,2.74-1.68,2.74s-1.59-1-1.61-2.67.7-2.7,1.69-2.7S348.53,75,348.53,76.69Zm-2.63.08c0,1.35.39,2.12,1,2.12s1-.84,1-2.17-.3-2.12-1-2.12S345.9,75.35,345.9,76.77Z"/><path class="cls-2" d="M337.67,56.34v-.43l.52-.53c1.23-1.27,1.79-1.94,1.8-2.72a.9.9,0,0,0-1-1,1.59,1.59,0,0,0-1,.44l-.21-.49a2,2,0,0,1,1.37-.53,1.41,1.41,0,0,1,1.48,1.51c0,1-.64,1.73-1.66,2.79l-.39.38v0h2.17v.58Z"/><path class="cls-2" d="M344.38,51.74h-1.85l-.18,1.33a3.27,3.27,0,0,1,.39,0,2,2,0,0,1,1.05.28,1.5,1.5,0,0,1,.69,1.34,1.73,1.73,0,0,1-1.8,1.77,2.25,2.25,0,0,1-1.21-.32l.16-.53a2.16,2.16,0,0,0,1,.28,1.1,1.1,0,0,0,1.15-1.12c0-.68-.43-1.16-1.4-1.16a5.35,5.35,0,0,0-.67.06l.32-2.49h2.31Z"/><path class="cls-2" d="M348.53,53.69c0,1.77-.61,2.74-1.68,2.74s-1.59-1-1.61-2.67.7-2.7,1.69-2.7S348.53,52,348.53,53.69Zm-2.63.08c0,1.35.39,2.12,1,2.12s1-.84,1-2.17-.3-2.12-1-2.12S345.9,52.35,345.9,53.77Z"/><path class="cls-2" d="M337.83,32.54a2.19,2.19,0,0,0,1.07.32,1,1,0,0,0,1.1-1c0-.73-.62-1-1.25-1h-.37v-.53h.37c.47,0,1.08-.27,1.08-.88a.75.75,0,0,0-.85-.78,1.7,1.7,0,0,0-1,.34l-.17-.51a2.16,2.16,0,0,1,1.26-.4,1.24,1.24,0,0,1,1.39,1.24,1.28,1.28,0,0,1-.9,1.22v0a1.31,1.31,0,0,1,1.08,1.33,1.58,1.58,0,0,1-1.76,1.56,2.34,2.34,0,0,1-1.26-.35Z"/><path class="cls-2" d="M344.71,30.69c0,1.77-.61,2.74-1.68,2.74s-1.59-1-1.6-2.67.7-2.7,1.68-2.7S344.71,29,344.71,30.69Zm-2.63.08c0,1.35.39,2.12,1,2.12s1-.84,1-2.17-.3-2.12-1-2.12S342.08,29.35,342.08,30.77Z"/><path class="cls-2" d="M348.53,30.69c0,1.77-.61,2.74-1.68,2.74s-1.59-1-1.61-2.67.7-2.7,1.69-2.7S348.53,29,348.53,30.69Zm-2.63.08c0,1.35.39,2.12,1,2.12s1-.84,1-2.17-.3-2.12-1-2.12S345.9,29.35,345.9,30.77Z"/><path class="cls-2" d="M440,180.21v-.43l.51-.54c1.24-1.26,1.79-1.93,1.8-2.72a.9.9,0,0,0-1-1,1.61,1.61,0,0,0-1,.44l-.21-.5a2.09,2.09,0,0,1,1.37-.53,1.42,1.42,0,0,1,1.49,1.52c0,1-.65,1.73-1.67,2.79l-.39.38v0h2.18v.58Z"/><path class="cls-2" d="M447,177.56c0,1.76-.61,2.74-1.68,2.74s-1.59-1-1.6-2.67.7-2.71,1.68-2.71S447,175.9,447,177.56Zm-2.63.08c0,1.35.39,2.11,1,2.11s1-.83,1-2.16-.31-2.12-1-2.12S444.38,176.22,444.38,177.64Z"/><path class="cls-2" d="M484.8,179.4a2.09,2.09,0,0,0,1.08.33,1,1,0,0,0,1.09-1,1.11,1.11,0,0,0-1.25-1h-.36v-.52h.36a1,1,0,0,0,1.08-.88.76.76,0,0,0-.85-.79,1.7,1.7,0,0,0-1,.35l-.17-.52a2.3,2.3,0,0,1,1.27-.4,1.24,1.24,0,0,1,1.38,1.24,1.27,1.27,0,0,1-.89,1.23h0a1.33,1.33,0,0,1,1.08,1.34,1.58,1.58,0,0,1-1.77,1.56,2.36,2.36,0,0,1-1.25-.35Z"/><path class="cls-2" d="M491.68,177.56c0,1.76-.61,2.74-1.68,2.74s-1.58-1-1.6-2.67.7-2.71,1.68-2.71S491.68,175.9,491.68,177.56Zm-2.62.08c0,1.35.38,2.11,1,2.11s1-.83,1-2.16-.31-2.12-1-2.12S489.06,176.22,489.06,177.64Z"/><path class="cls-2" d="M530.67,180.21v-1.42h-2.25v-.46l2.16-3.32h.71v3.23H532v.55h-.68v1.42Zm0-2v-1.73c0-.27,0-.55,0-.82h0a7.76,7.76,0,0,1-.4.77l-1.18,1.77h1.58Z"/><path class="cls-2" d="M535.68,177.56c0,1.76-.61,2.74-1.68,2.74s-1.58-1-1.6-2.67.7-2.71,1.68-2.71S535.68,175.9,535.68,177.56Zm-2.62.08c0,1.35.38,2.11,1,2.11s1-.83,1-2.16-.31-2.12-1-2.12S533.06,176.22,533.06,177.64Z"/><path class="cls-2" d="M576.54,175.6h-1.85l-.19,1.34a2.17,2.17,0,0,1,.4,0,2,2,0,0,1,1,.28,1.5,1.5,0,0,1,.69,1.33,1.73,1.73,0,0,1-1.8,1.78,2.21,2.21,0,0,1-1.2-.32l.16-.54a2,2,0,0,0,1,.29A1.1,1.1,0,0,0,576,178.6c0-.67-.42-1.15-1.39-1.15a3.85,3.85,0,0,0-.67.06l.31-2.5h2.32Z"/><path class="cls-2" d="M580.68,177.56c0,1.76-.61,2.74-1.68,2.74s-1.58-1-1.6-2.67.7-2.71,1.68-2.71S580.68,175.9,580.68,177.56Zm-2.62.08c0,1.35.38,2.11,1,2.11s1-.83,1-2.16-.31-2.12-1-2.12S578.06,176.22,578.06,177.64Z"/><rect class="cls-3" x="353.64" y="31" width="223.36" height="137"/><line class="cls-3" x1="353.55" y1="53.5" x2="576.91" y2="53.5"/><line class="cls-3" x1="398.78" y1="167.5" x2="398.55" y2="31.25"/><line class="cls-3" x1="443.45" y1="167.5" x2="443.22" y2="31.25"/><line class="cls-3" x1="488.12" y1="167.5" x2="487.89" y2="31.25"/><line class="cls-3" x1="532.79" y1="167.5" x2="532.56" y2="31.25"/><line class="cls-3" x1="353.55" y1="76.5" x2="576.91" y2="76.5"/><line class="cls-3" x1="353.55" y1="99.5" x2="576.91" y2="99.5"/><line class="cls-3" x1="353.55" y1="121.5" x2="576.91" y2="121.5"/><line class="cls-3" x1="353.55" y1="144.5" x2="576.91" y2="144.5"/><ellipse class="cls-4" cx="354.49" cy="53.5" rx="4.65" ry="5"/><ellipse class="cls-4" cx="457.09" cy="89.5" rx="4.65" ry="5"/><ellipse class="cls-4" cx="545.5" cy="135.5" rx="4.65" ry="5"/><ellipse class="cls-4" cx="522.97" cy="93.5" rx="4.65" ry="5"/><line class="cls-5" x1="358.32" y1="55.36" x2="453.5" y2="89.5"/><line class="cls-5" x1="461.32" y1="90.36" x2="520.5" y2="93.5"/><line class="cls-5" x1="524.5" y1="95.5" x2="543.5" y2="130.5"/></g></svg>