<svg id="Layer_1" data-name="Layer 1" xmlns="http://www.w3.org/2000/svg" viewBox="0 0 244.96 196.13"><defs><style>.cls-1{fill:#ededee;}.cls-2{fill:#d9d2cf;}.cls-3,.cls-4,.cls-5,.cls-6,.cls-7,.cls-8{fill:none;}.cls-3,.cls-7{stroke:#fff;}.cls-3,.cls-8{stroke-width:0.5px;}.cls-4{stroke:#f05b66;}.cls-4,.cls-5,.cls-7{stroke-width:1.5px;}.cls-5{stroke:#6893cc;}.cls-6{stroke:#a1938f;}.cls-7,.cls-8{stroke-linecap:round;stroke-linejoin:round;}.cls-8{stroke:#231f20;}.cls-9{fill:#231f20;}</style></defs><title>Line_Graph_Basics</title><rect class="cls-1" width="244.96" height="196.13"/><rect class="cls-2" x="37.24" y="23.83" width="188.97" height="135.6"/><line class="cls-3" x1="37.6" y1="102.72" x2="226.21" y2="102.72"/><line class="cls-3" x1="37.6" y1="114.01" x2="226.21" y2="114.01"/><line class="cls-3" x1="37.6" y1="125.31" x2="226.21" y2="125.31"/><line class="cls-3" x1="37.6" y1="136.6" x2="226.21" y2="136.6"/><line class="cls-3" x1="37.6" y1="147.9" x2="226.21" y2="147.9"/><line class="cls-3" x1="37.6" y1="68.8" x2="226.21" y2="68.8"/><line class="cls-3" x1="37.6" y1="80.1" x2="226.21" y2="80.1"/><line class="cls-3" x1="37.6" y1="57.51" x2="226.21" y2="57.51"/><line class="cls-3" x1="37.6" y1="46.28" x2="226.21" y2="46.28"/><line class="cls-3" x1="37.6" y1="91.39" x2="226.21" y2="91.39"/><line class="cls-3" x1="131.72" y1="23.83" x2="131.72" y2="159.43"/><line class="cls-3" x1="100.23" y1="23.83" x2="100.23" y2="159.43"/><line class="cls-3" x1="68.73" y1="23.83" x2="68.73" y2="159.43"/><line class="cls-3" x1="226.21" y1="23.83" x2="226.21" y2="159.43"/><line class="cls-3" x1="194.71" y1="23.83" x2="194.71" y2="159.43"/><line class="cls-3" x1="163.21" y1="23.83" x2="163.21" y2="159.43"/><line class="cls-3" x1="37.24" y1="23.76" x2="37.24" y2="159.43"/><line class="cls-3" x1="37.6" y1="35.06" x2="226.21" y2="35.06"/><line class="cls-3" x1="37.6" y1="23.83" x2="226.21" y2="23.83"/><polyline class="cls-4" points="38 158.82 68.73 153.3 100.23 142.55 131.72 118.05 163.22 102.72 194.71 68.8 226.21 28.3"/><polyline class="cls-5" points="37.24 159.49 68.73 157.55 100.23 153.55 131.72 142.55 163.52 131.05 194.71 123.05 226.21 119.8"/><polyline class="cls-6" points="226.54 159.49 37.24 159.49 37.24 23.84"/><line class="cls-7" x1="182.02" y1="142.68" x2="182.02" y2="126.3"/><line class="cls-8" x1="182.02" y1="142.68" x2="182.02" y2="126.3"/><line class="cls-7" x1="208.9" y1="50.25" x2="191.18" y2="50.25"/><line class="cls-8" x1="208.9" y1="50.25" x2="191.18" y2="50.25"/><path class="cls-9" d="M4.2,8.19c0-.26,0-.65,0-1V2.52h.7V5h0a1.45,1.45,0,0,1,1.32-.71,1.73,1.73,0,0,1,1.63,2A1.83,1.83,0,0,1,6.16,8.28a1.38,1.38,0,0,1-1.3-.72h0l0,.63Zm.73-1.55A1.09,1.09,0,0,0,5,6.9a1.07,1.07,0,0,0,1,.82c.74,0,1.18-.6,1.18-1.48S6.79,4.8,6,4.8A1.11,1.11,0,0,0,5,5.66a1.19,1.19,0,0,0,0,.29Z" transform="translate(0 -0.38)"/><path class="cls-9" d="M8.42,7.78a.47.47,0,0,1,.48-.5.46.46,0,0,1,.47.5.48.48,0,1,1-.95,0Z" transform="translate(0 -0.38)"/><path class="cls-9" d="M114.34,174.08a10.25,10.25,0,0,1,1.57-.11,3.32,3.32,0,0,1,2.2.62,2.4,2.4,0,0,1,.84,2,2.82,2.82,0,0,1-.84,2.15,3.59,3.59,0,0,1-2.44.73,10.81,10.81,0,0,1-1.33-.07Zm1,4.57a4.28,4.28,0,0,0,.54,0,1.85,1.85,0,0,0,2-2.06,1.71,1.71,0,0,0-1.91-1.87,3.28,3.28,0,0,0-.67,0Z" transform="translate(0 -0.38)"/><path class="cls-9" d="M122,179.4l-.07-.44h0a1.43,1.43,0,0,1-1.15.52,1.15,1.15,0,0,1-1.23-1.15c0-1,.88-1.48,2.31-1.48v-.06c0-.26-.1-.68-.79-.68a2.08,2.08,0,0,0-1.05.29l-.19-.64a2.77,2.77,0,0,1,1.41-.34,1.45,1.45,0,0,1,1.61,1.63v1.41a6.41,6.41,0,0,0,0,.94Zm-.13-1.91c-.7,0-1.36.14-1.36.73a.51.51,0,0,0,.56.56.8.8,0,0,0,.77-.53,1,1,0,0,0,0-.22Z" transform="translate(0 -0.38)"/><path class="cls-9" d="M124.45,175.5l.7,2.09c.08.24.16.54.21.76h0c.06-.22.13-.51.21-.77l.6-2.08h1.06l-1,2.66a5.73,5.73,0,0,1-1.36,2.5,2,2,0,0,1-1,.5l-.22-.83a1.85,1.85,0,0,0,.58-.27,1.75,1.75,0,0,0,.53-.62.32.32,0,0,0,0-.36l-1.42-3.58Z" transform="translate(0 -0.38)"/><path class="cls-9" d="M16.17,143.29H10.78v-1.12l2.32-1.39a13.94,13.94,0,0,1,1.8-.92v0c-.72.06-1.41.09-2.24.09H10.78V139h5.39v1l-2.36,1.41a20.75,20.75,0,0,1-1.87,1v0c.7,0,1.41-.05,2.3-.05h1.92Z" transform="translate(0 -0.38)"/><path class="cls-9" d="M15,134.43c.46,0,.84,0,1.16,0v.86l-.59.05v0a1.4,1.4,0,0,1,.68,1.24c0,.72-.42,1.36-1.69,1.36H12.28v-1H14.4c.65,0,1.06-.21,1.06-.73a.82.82,0,0,0-.53-.75.9.9,0,0,0-.3-.05H12.28v-1Z" transform="translate(0 -0.38)"/><path class="cls-9" d="M13.44,133.37c-.45,0-.82,0-1.16,0v-.85l.58,0v0a1.36,1.36,0,0,1-.67-1.2,1.13,1.13,0,0,1,.72-1.08v0a1.5,1.5,0,0,1-.49-.48,1.29,1.29,0,0,1-.23-.78c0-.65.44-1.3,1.69-1.3h2.29v1H14c-.64,0-1,.23-1,.7a.76.76,0,0,0,.52.69,1.75,1.75,0,0,0,.33.05h2.33V131H13.92c-.54,0-.93.22-.93.68a.78.78,0,0,0,.56.7.87.87,0,0,0,.32.06h2.3v1Z" transform="translate(0 -0.38)"/><path class="cls-9" d="M16.17,126.61c-.26,0-.69,0-1.09,0H10.5v-1h2.32v0a1.4,1.4,0,0,1-.63-1.24c0-1,.79-1.64,2-1.63a1.86,1.86,0,0,1,2.09,1.77,1.34,1.34,0,0,1-.67,1.23v0l.58,0Zm-1.6-1a.85.85,0,0,0,.23,0,.9.9,0,0,0,.69-.87c0-.61-.5-1-1.28-1S13,124,13,124.7a.93.93,0,0,0,.72.87,1.7,1.7,0,0,0,.26,0Z" transform="translate(0 -0.38)"/><path class="cls-9" d="M14.5,121.21a1.06,1.06,0,0,0,1-1.2,2.73,2.73,0,0,0-.18-1.08l.68-.15a3.6,3.6,0,0,1,.24,1.36,1.84,1.84,0,0,1-2,2,1.93,1.93,0,0,1-2.1-1.9,1.69,1.69,0,0,1,1.9-1.68,2.07,2.07,0,0,1,.41,0Zm-.69-1.71a.84.84,0,0,0-1,.8,1,1,0,0,0,1,.91Z" transform="translate(0 -0.38)"/><path class="cls-9" d="M13.54,117.77c-.53,0-.91,0-1.26,0V117l.74,0v0a1.16,1.16,0,0,1-.83-1.07.85.85,0,0,1,0-.23h.92a2,2,0,0,0,0,.29.88.88,0,0,0,.74.88,2.72,2.72,0,0,0,.31,0h2v1Z" transform="translate(0 -0.38)"/><path class="cls-9" d="M14.19,109.57a1.93,1.93,0,0,1,2.07,2,1.88,1.88,0,0,1-2,2,1.93,1.93,0,0,1-2.06-2A1.87,1.87,0,0,1,14.19,109.57Zm0,2.93c.75,0,1.32-.37,1.32-1s-.55-1-1.34-1c-.6,0-1.3.28-1.3,1S13.58,112.5,14.23,112.5Z" transform="translate(0 -0.38)"/><path class="cls-9" d="M16.17,108.65H13v.52h-.74v-.52h-.17a1.82,1.82,0,0,1-1.33-.48,1.46,1.46,0,0,1-.37-1,2.11,2.11,0,0,1,.09-.63l.76.07a1.14,1.14,0,0,0-.07.42c0,.48.41.65.89.65h.2v-.85H13v.84h3.15Z" transform="translate(0 -0.38)"/><path class="cls-9" d="M16.05,101.69a2.75,2.75,0,0,1,.2,1.1,1.87,1.87,0,0,1-2,2,2,2,0,0,1-2.08-2.17,2.32,2.32,0,0,1,.19-.95l.73.18a1.76,1.76,0,0,0-.15.74,1.16,1.16,0,0,0,1.26,1.19,1.16,1.16,0,0,0,1.26-1.19,2,2,0,0,0-.15-.78Z" transform="translate(0 -0.38)"/><path class="cls-9" d="M14.5,100.26c.71,0,1-.57,1-1.2A2.8,2.8,0,0,0,15.33,98l.68-.14a3.6,3.6,0,0,1,.24,1.36,1.84,1.84,0,0,1-2,2,1.94,1.94,0,0,1-2.1-1.91,1.7,1.7,0,0,1,1.9-1.68,1.93,1.93,0,0,1,.41,0Zm-.69-1.71a.84.84,0,0,0-1,.81,1,1,0,0,0,1,.9Z" transform="translate(0 -0.38)"/><path class="cls-9" d="M10.5,96.83v-1h5.67v1Z" transform="translate(0 -0.38)"/><path class="cls-9" d="M10.5,94.77v-1h5.67v1Z" transform="translate(0 -0.38)"/><path class="cls-9" d="M15.27,92.77a2.18,2.18,0,0,0,.28-1c0-.43-.18-.63-.43-.63s-.4.16-.57.64c-.26.76-.68,1.08-1.13,1.07a1.3,1.3,0,0,1-1.23-1.47,2.31,2.31,0,0,1,.23-1l.7.19a1.72,1.72,0,0,0-.22.83c0,.35.16.54.4.54s.37-.18.55-.68c.25-.7.61-1,1.19-1s1.21.55,1.21,1.59A2.51,2.51,0,0,1,16,93Z" transform="translate(0 -0.38)"/><path class="cls-9" d="M12,87.5l1.65-1.63L12,84.26l.45-.45,1.65,1.61,1.66-1.61.44.45-1.64,1.61,1.64,1.62-.44.45-1.66-1.62-1.65,1.62Z" transform="translate(0 -0.38)"/><path class="cls-9" d="M11.86,79.94v0l.48,1-.74.17L11,79.82V79h5.19v1Z" transform="translate(0 -0.38)"/><path class="cls-9" d="M13.54,73.53c1.67,0,2.72.65,2.72,1.89s-1.09,1.84-2.67,1.85-2.7-.69-2.7-1.9S12,73.53,13.54,73.53Zm.05,2.75c1.26,0,1.92-.34,1.92-.89s-.7-.88-1.95-.88-1.92.29-1.92.88S12.29,76.29,13.59,76.28Z" transform="translate(0 -0.38)"/><path class="cls-9" d="M9.89,70.52V72l.78.11a2.16,2.16,0,0,1,0-.28,1.8,1.8,0,0,1,.25-.95,1.14,1.14,0,0,1,1-.51A1.43,1.43,0,0,1,13.24,72,2.15,2.15,0,0,1,13,73l-.56-.15a1.91,1.91,0,0,0,.21-.85.76.76,0,0,0-.72-.85c-.44,0-.73.33-.73,1.11a3.89,3.89,0,0,0,0,.53l-2-.25v-2Z" transform="translate(0 -0.38)"/><path class="cls-9" d="M13.58,67.86c-.52,0-.93,0-1.3,0V67l.6,0v0a1.51,1.51,0,0,1-.69-1.33,1.77,1.77,0,0,1,2-1.64,1.85,1.85,0,0,1,2.09,1.77,1.29,1.29,0,0,1-.52,1.1h2v1Zm1-1a1.12,1.12,0,0,0,.27,0A.9.9,0,0,0,15.5,66c0-.63-.52-1-1.29-1S13,65.32,13,66a.9.9,0,0,0,.73.88.64.64,0,0,0,.24,0Z" transform="translate(0 -0.38)"/><path class="cls-9" d="M14.5,62.48a1.06,1.06,0,0,0,1-1.2,2.77,2.77,0,0,0-.18-1.08l.68-.14a3.57,3.57,0,0,1,.24,1.36,1.83,1.83,0,0,1-2,2,1.93,1.93,0,0,1-2.1-1.9,1.7,1.7,0,0,1,1.9-1.68,3.32,3.32,0,0,1,.41,0Zm-.69-1.71a.84.84,0,0,0-1,.81,1,1,0,0,0,1,.9Z" transform="translate(0 -0.38)"/><path class="cls-9" d="M13.54,59.05c-.53,0-.91,0-1.26,0v-.86l.74,0v0a1.16,1.16,0,0,1-.83-1.06.88.88,0,0,1,0-.24h.92a2,2,0,0,0,0,.29.88.88,0,0,0,.74.88,1.48,1.48,0,0,0,.31,0h2v1Z" transform="translate(0 -0.38)"/><path class="cls-9" d="M10.5,51h4.58c.4,0,.83,0,1.09,0v.88l-.61,0v0a1.4,1.4,0,0,1,.7,1.27,1.78,1.78,0,0,1-2,1.66,1.86,1.86,0,0,1-2.08-1.74A1.27,1.27,0,0,1,12.7,52H10.5Zm3.4,1-.25,0a.86.86,0,0,0-.7.85c0,.63.56,1,1.29,1s1.23-.35,1.23-1a.87.87,0,0,0-.7-.85,1.2,1.2,0,0,0-.28,0Z" transform="translate(0 -0.38)"/><path class="cls-9" d="M11.19,48.85a.52.52,0,0,1,.53.56.51.51,0,0,1-.53.54.55.55,0,0,1,0-1.1Zm5,1H12.28v-1h3.89Z" transform="translate(0 -0.38)"/><path class="cls-9" d="M15.27,47.9a2.18,2.18,0,0,0,.28-1c0-.44-.18-.63-.43-.63s-.4.16-.57.64c-.26.76-.68,1.08-1.13,1.07a1.3,1.3,0,0,1-1.23-1.47,2.31,2.31,0,0,1,.23-1l.7.19a1.72,1.72,0,0,0-.22.83c0,.35.16.54.4.54s.37-.18.55-.68c.25-.7.61-1,1.19-1s1.21.55,1.21,1.58A2.52,2.52,0,0,1,16,48.09Z" transform="translate(0 -0.38)"/><path class="cls-9" d="M10.5,44.51v-1h2.32v0a1.3,1.3,0,0,1-.45-.48,1.4,1.4,0,0,1-.18-.67c0-.67.44-1.36,1.69-1.36h2.29v1H14c-.57,0-1,.21-1,.75a.81.81,0,0,0,.55.76.91.91,0,0,0,.3,0h2.32v1Z" transform="translate(0 -0.38)"/><path class="cls-9" d="M33.66,161.37c0,1.77-.65,2.74-1.8,2.74s-1.71-1-1.72-2.67.75-2.7,1.8-2.7S33.66,159.71,33.66,161.37Zm-2.82.08c0,1.35.42,2.12,1.06,2.12S33,162.73,33,161.4s-.33-2.12-1.06-2.12S30.84,160,30.84,161.45Z" transform="translate(0 -0.38)"/><path class="cls-9" d="M27.9,148.66c0,1.77-.65,2.74-1.8,2.74s-1.71-1-1.72-2.67.75-2.7,1.8-2.7S27.9,147,27.9,148.66Zm-2.82.08c0,1.35.42,2.12,1.06,2.12s1.06-.84,1.06-2.17-.33-2.12-1.06-2.12S25.08,147.32,25.08,148.74Z" transform="translate(0 -0.38)"/><path class="cls-9" d="M28.61,150.9a.48.48,0,0,1,.48-.51.47.47,0,0,1,.47.51.48.48,0,1,1-.95,0Z" transform="translate(0 -0.38)"/><path class="cls-9" d="M33.31,146.71h-2l-.2,1.33a3.89,3.89,0,0,1,.42,0,2.22,2.22,0,0,1,1.12.28,1.48,1.48,0,0,1,.75,1.34,1.81,1.81,0,0,1-1.94,1.77,2.56,2.56,0,0,1-1.3-.32l.18-.53a2.45,2.45,0,0,0,1.11.28,1.14,1.14,0,0,0,1.23-1.12c0-.67-.45-1.15-1.49-1.15a6.22,6.22,0,0,0-.72.05l.33-2.49h2.49Z" transform="translate(0 -0.38)"/><path class="cls-9" d="M26,135.31h0l-.9.49-.14-.54,1.14-.6h.6v5.19H26Z" transform="translate(0 -0.38)"/><path class="cls-9" d="M28.61,139.44a.48.48,0,0,1,.48-.51.47.47,0,0,1,.47.51.48.48,0,1,1-.95,0Z" transform="translate(0 -0.38)"/><path class="cls-9" d="M33.66,137.2c0,1.77-.65,2.74-1.8,2.74s-1.71-.95-1.72-2.67.75-2.7,1.8-2.7S33.66,135.54,33.66,137.2Zm-2.82.08c0,1.35.42,2.12,1.06,2.12s1.06-.84,1.06-2.17-.33-2.12-1.06-2.12S30.84,135.86,30.84,137.28Z" transform="translate(0 -0.38)"/><path class="cls-9" d="M26,124.11h0l-.9.48-.14-.53,1.14-.61h.6v5.2H26Z" transform="translate(0 -0.38)"/><path class="cls-9" d="M28.61,128.23a.47.47,0,0,1,.48-.5.5.5,0,1,1-.48.5Z" transform="translate(0 -0.38)"/><path class="cls-9" d="M33.31,124h-2l-.2,1.34a2.34,2.34,0,0,1,1.54.24,1.49,1.49,0,0,1,.75,1.34,1.81,1.81,0,0,1-1.94,1.77,2.57,2.57,0,0,1-1.3-.31l.18-.54a2.32,2.32,0,0,0,1.11.29A1.14,1.14,0,0,0,32.7,127c0-.67-.45-1.15-1.49-1.15a6.22,6.22,0,0,0-.72,0l.33-2.49h2.49Z" transform="translate(0 -0.38)"/><path class="cls-9" d="M24.45,117.44V117l.55-.53c1.33-1.26,1.93-1.94,1.94-2.72a.93.93,0,0,0-1-1,1.76,1.76,0,0,0-1.1.44l-.22-.49a2.3,2.3,0,0,1,1.47-.53,1.46,1.46,0,0,1,1.59,1.51c0,1-.7,1.74-1.79,2.79l-.42.39h2.34v.59Z" transform="translate(0 -0.38)"/><path class="cls-9" d="M28.61,117a.47.47,0,0,1,.48-.5.5.5,0,0,1,0,1A.47.47,0,0,1,28.61,117Z" transform="translate(0 -0.38)"/><path class="cls-9" d="M33.66,114.78c0,1.77-.65,2.74-1.8,2.74s-1.71-1-1.72-2.67.75-2.7,1.8-2.7S33.66,113.13,33.66,114.78Zm-2.82.08c0,1.35.42,2.12,1.06,2.12s1.06-.84,1.06-2.17-.33-2.12-1.06-2.12S30.84,113.45,30.84,114.86Z" transform="translate(0 -0.38)"/><path class="cls-9" d="M24.45,106v-.43L25,105c1.33-1.26,1.93-1.93,1.94-2.72a.93.93,0,0,0-1-1,1.76,1.76,0,0,0-1.1.44l-.22-.5a2.3,2.3,0,0,1,1.47-.53,1.46,1.46,0,0,1,1.59,1.51c0,1-.7,1.74-1.79,2.79l-.42.39h2.34V106Z" transform="translate(0 -0.38)"/><path class="cls-9" d="M28.61,105.56a.47.47,0,0,1,.48-.5.47.47,0,0,1,.47.5.48.48,0,1,1-.95,0Z" transform="translate(0 -0.38)"/><path class="cls-9" d="M33.31,101.37h-2l-.2,1.34a2.34,2.34,0,0,1,.42,0,2.12,2.12,0,0,1,1.12.28,1.47,1.47,0,0,1,.75,1.33,1.81,1.81,0,0,1-1.94,1.78,2.56,2.56,0,0,1-1.3-.32l.18-.54a2.32,2.32,0,0,0,1.11.29,1.14,1.14,0,0,0,1.23-1.13c0-.67-.45-1.15-1.49-1.15a6.22,6.22,0,0,0-.72,0l.33-2.49h2.49Z" transform="translate(0 -0.38)"/><path class="cls-9" d="M24.62,93.71a2.31,2.31,0,0,0,1.15.33c.9,0,1.18-.58,1.17-1,0-.73-.66-1-1.34-1h-.39v-.53h.39c.51,0,1.16-.26,1.16-.88,0-.41-.26-.78-.91-.78a1.81,1.81,0,0,0-1,.35l-.18-.52a2.43,2.43,0,0,1,1.35-.4c1,0,1.49.61,1.49,1.24a1.3,1.3,0,0,1-1,1.23h0a1.36,1.36,0,0,1,1.16,1.34c0,.83-.65,1.56-1.89,1.56a2.64,2.64,0,0,1-1.36-.36Z" transform="translate(0 -0.38)"/><path class="cls-9" d="M28.61,94.1a.47.47,0,0,1,.48-.5.47.47,0,0,1,.47.5.48.48,0,1,1-.95,0Z" transform="translate(0 -0.38)"/><path class="cls-9" d="M33.66,91.86c0,1.77-.65,2.75-1.8,2.75s-1.71-1-1.72-2.67.75-2.71,1.8-2.71S33.66,90.21,33.66,91.86Zm-2.82.08c0,1.36.42,2.12,1.06,2.12S33,93.22,33,91.9s-.33-2.12-1.06-2.12S30.84,90.53,30.84,91.94Z" transform="translate(0 -0.38)"/><path class="cls-9" d="M24.62,82a2.31,2.31,0,0,0,1.15.33c.9,0,1.18-.58,1.17-1,0-.73-.66-1-1.34-1h-.39v-.53h.39c.51,0,1.16-.26,1.16-.88,0-.41-.26-.78-.91-.78a1.89,1.89,0,0,0-1,.34l-.18-.51a2.43,2.43,0,0,1,1.35-.4c1,0,1.49.61,1.49,1.24a1.3,1.3,0,0,1-1,1.23h0a1.36,1.36,0,0,1,1.16,1.34c0,.83-.65,1.56-1.89,1.56a2.64,2.64,0,0,1-1.36-.36Z" transform="translate(0 -0.38)"/><path class="cls-9" d="M28.61,82.39a.47.47,0,0,1,.48-.5.47.47,0,0,1,.47.5.48.48,0,1,1-.95,0Z" transform="translate(0 -0.38)"/><path class="cls-9" d="M33.31,78.2h-2l-.2,1.34a2.34,2.34,0,0,1,.42,0,2.12,2.12,0,0,1,1.12.28,1.47,1.47,0,0,1,.75,1.33,1.81,1.81,0,0,1-1.94,1.78,2.56,2.56,0,0,1-1.3-.32l.18-.54a2.32,2.32,0,0,0,1.11.29A1.14,1.14,0,0,0,32.7,81.2c0-.67-.45-1.15-1.49-1.15a6.22,6.22,0,0,0-.72,0l.33-2.49h2.49Z" transform="translate(0 -0.38)"/><path class="cls-9" d="M26.62,60.89V59.47H24.21V59l2.32-3.32h.76v3.23H28v.55h-.72v1.42Zm0-2V57.19c0-.27,0-.55,0-.82h0c-.16.31-.28.53-.43.77l-1.27,1.77h1.7Z" transform="translate(0 -0.38)"/><path class="cls-9" d="M28.61,60.47a.47.47,0,0,1,.48-.5.47.47,0,0,1,.47.5.48.48,0,1,1-.95,0Z" transform="translate(0 -0.38)"/><path class="cls-9" d="M33.31,56.28h-2l-.2,1.34a2.34,2.34,0,0,1,.42,0,2.22,2.22,0,0,1,1.12.28,1.48,1.48,0,0,1,.75,1.33A1.81,1.81,0,0,1,31.48,61a2.56,2.56,0,0,1-1.3-.32l.18-.54a2.32,2.32,0,0,0,1.11.29,1.14,1.14,0,0,0,1.23-1.13c0-.67-.45-1.15-1.49-1.15a4.41,4.41,0,0,0-.72.06l.33-2.5h2.49Z" transform="translate(0 -0.38)"/><path class="cls-9" d="M27.55,44.83h-2l-.2,1.33a2.34,2.34,0,0,1,.42,0,2.22,2.22,0,0,1,1.12.28,1.48,1.48,0,0,1,.75,1.33,1.81,1.81,0,0,1-1.94,1.78,2.56,2.56,0,0,1-1.3-.32l.18-.54a2.32,2.32,0,0,0,1.11.29,1.14,1.14,0,0,0,1.23-1.13c0-.67-.45-1.15-1.49-1.15a4.41,4.41,0,0,0-.72.06l.33-2.5h2.49Z" transform="translate(0 -0.38)"/><path class="cls-9" d="M28.61,49a.47.47,0,0,1,.48-.5.47.47,0,0,1,.47.5.48.48,0,1,1-.95,0Z" transform="translate(0 -0.38)"/><path class="cls-9" d="M33.66,46.78c0,1.76-.65,2.74-1.8,2.74s-1.71-1-1.72-2.67.75-2.7,1.8-2.7S33.66,45.12,33.66,46.78Zm-2.82.08c0,1.35.42,2.12,1.06,2.12S33,48.14,33,46.81s-.33-2.12-1.06-2.12S30.84,45.44,30.84,46.86Z" transform="translate(0 -0.38)"/><path class="cls-9" d="M27.55,33.37h-2l-.2,1.33a3.89,3.89,0,0,1,.42,0,2.22,2.22,0,0,1,1.12.28,1.48,1.48,0,0,1,.75,1.33,1.81,1.81,0,0,1-1.94,1.78,2.56,2.56,0,0,1-1.3-.32l.18-.54a2.32,2.32,0,0,0,1.11.29,1.14,1.14,0,0,0,1.23-1.13c0-.67-.45-1.15-1.49-1.15a5.92,5.92,0,0,0-.72.06l.33-2.5h2.49Z" transform="translate(0 -0.38)"/><path class="cls-9" d="M28.61,37.56a.48.48,0,0,1,.48-.51.51.51,0,1,1-.48.51Z" transform="translate(0 -0.38)"/><path class="cls-9" d="M33.31,33.37h-2l-.2,1.33a3.89,3.89,0,0,1,.42,0,2.22,2.22,0,0,1,1.12.28,1.48,1.48,0,0,1,.75,1.33,1.81,1.81,0,0,1-1.94,1.78,2.56,2.56,0,0,1-1.3-.32l.18-.54a2.32,2.32,0,0,0,1.11.29,1.14,1.14,0,0,0,1.23-1.13c0-.67-.45-1.15-1.49-1.15a5.92,5.92,0,0,0-.72.06l.33-2.5h2.49Z" transform="translate(0 -0.38)"/><path class="cls-9" d="M27.42,21.81a2.52,2.52,0,0,0-.53,0,2.11,2.11,0,0,0-1.81,1.85h0a1.59,1.59,0,0,1,2.83,1.08A1.74,1.74,0,0,1,26.2,26.6c-1.11,0-1.84-.86-1.84-2.21A3.28,3.28,0,0,1,25.24,22a2.85,2.85,0,0,1,1.66-.76,2.66,2.66,0,0,1,.52,0Zm-.21,3a1.05,1.05,0,0,0-1.07-1.19,1.14,1.14,0,0,0-1,.64.57.57,0,0,0-.08.31c0,.86.4,1.49,1.14,1.49S27.21,25.55,27.21,24.81Z" transform="translate(0 -0.38)"/><path class="cls-9" d="M28.61,26.1a.48.48,0,0,1,.48-.51.51.51,0,1,1-.48.51Z" transform="translate(0 -0.38)"/><path class="cls-9" d="M33.66,23.86c0,1.77-.65,2.74-1.8,2.74s-1.71-1-1.72-2.67.75-2.7,1.8-2.7S33.66,22.2,33.66,23.86Zm-2.82.08c0,1.35.42,2.12,1.06,2.12S33,25.22,33,23.89s-.33-2.12-1.06-2.12S30.84,22.52,30.84,23.94Z" transform="translate(0 -0.38)"/><path class="cls-9" d="M26.62,71.6V70.18H24.21v-.46l2.32-3.32h.76v3.23H28v.55h-.72V71.6Zm0-2V67.9c0-.27,0-.55,0-.82h0c-.16.3-.28.53-.43.77l-1.27,1.77h1.7Z" transform="translate(0 -0.38)"/><path class="cls-9" d="M28.61,71.18a.47.47,0,0,1,.48-.5.47.47,0,0,1,.47.5.48.48,0,1,1-.95,0Z" transform="translate(0 -0.38)"/><path class="cls-9" d="M33.66,68.94c0,1.77-.65,2.75-1.8,2.75s-1.71-1-1.72-2.67.75-2.71,1.8-2.71S33.66,67.29,33.66,68.94ZM30.84,69c0,1.36.42,2.12,1.06,2.12S33,70.3,33,69s-.33-2.12-1.06-2.12S30.84,67.61,30.84,69Z" transform="translate(0 -0.38)"/><path class="cls-9" d="M68,164.19h0l-.9.49-.14-.53,1.14-.61h.6v5.19H68Z" transform="translate(0 -0.38)"/><path class="cls-9" d="M98.08,168.73v-.43l.56-.53c1.32-1.27,1.92-1.94,1.93-2.72a.93.93,0,0,0-1-1,1.76,1.76,0,0,0-1.1.44l-.23-.49a2.25,2.25,0,0,1,1.47-.53,1.46,1.46,0,0,1,1.59,1.51c0,1-.69,1.74-1.79,2.79l-.41.38v0h2.33v.58Z" transform="translate(0 -0.38)"/><path class="cls-9" d="M129.82,167.93a2.47,2.47,0,0,0,1.15.32c.91,0,1.19-.57,1.18-1,0-.73-.66-1-1.34-1h-.4v-.53h.4c.51,0,1.16-.26,1.16-.88,0-.42-.27-.78-.92-.78a1.94,1.94,0,0,0-1,.34l-.18-.51a2.47,2.47,0,0,1,1.36-.4c1,0,1.49.61,1.49,1.24a1.29,1.29,0,0,1-1,1.22v0a1.36,1.36,0,0,1,1.16,1.33c0,.83-.65,1.56-1.9,1.56a2.64,2.64,0,0,1-1.35-.35Z" transform="translate(0 -0.38)"/><path class="cls-9" d="M163.4,168.73v-1.41H161v-.46l2.31-3.32h.76v3.23h.73v.55h-.73v1.41Zm0-2V165c0-.27,0-.54,0-.81h0c-.16.3-.29.53-.43.76l-1.27,1.77v0Z" transform="translate(0 -0.38)"/><path class="cls-9" d="M195.9,164.13h-2l-.2,1.33a3.89,3.89,0,0,1,.42,0,2.22,2.22,0,0,1,1.12.28,1.48,1.48,0,0,1,.74,1.34,1.8,1.8,0,0,1-1.93,1.77,2.56,2.56,0,0,1-1.3-.32L193,168a2.45,2.45,0,0,0,1.11.28,1.15,1.15,0,0,0,1.23-1.12c0-.67-.45-1.15-1.49-1.15a6.22,6.22,0,0,0-.72.05l.33-2.49h2.49Z" transform="translate(0 -0.38)"/><path class="cls-9" d="M227.33,164a2.56,2.56,0,0,0-.52,0,2.1,2.1,0,0,0-1.81,1.84h0a1.59,1.59,0,0,1,2.83,1.08,1.74,1.74,0,0,1-1.73,1.83c-1.11,0-1.84-.86-1.84-2.21a3.3,3.3,0,0,1,.88-2.35,2.85,2.85,0,0,1,1.66-.76,3.75,3.75,0,0,1,.51,0Zm-.19,3a1.06,1.06,0,0,0-1.08-1.19,1.14,1.14,0,0,0-1,.64.57.57,0,0,0-.08.31c0,.86.4,1.49,1.14,1.49S227.14,167.78,227.14,167Z" transform="translate(0 -0.38)"/><path class="cls-9" d="M91.45,53.17a3.65,3.65,0,0,1-1.43.25,2.51,2.51,0,0,1-2.66-2.72,2.68,2.68,0,0,1,2.81-2.83,2.79,2.79,0,0,1,1.28.24l-.16.56a2.69,2.69,0,0,0-1.09-.22,2,2,0,0,0-2.1,2.22,2,2,0,0,0,2.07,2.17,2.88,2.88,0,0,0,1.13-.22Z" transform="translate(0 -0.38)"/><path class="cls-9" d="M95.53,52.29c0,.4,0,.75,0,1.05h-.63l0-.63h0a1.48,1.48,0,0,1-1.28.72c-.61,0-1.34-.34-1.34-1.69V49.47H93v2.15c0,.73.22,1.23.86,1.23a1,1,0,0,0,.93-.64,1,1,0,0,0,.06-.36V49.47h.7Z" transform="translate(0 -0.38)"/><path class="cls-9" d="M96.7,47.67h.71v5.67H96.7Z" transform="translate(0 -0.38)"/><path class="cls-9" d="M99.44,48.36v1.11h1V50h-1V52.1c0,.48.14.75.53.75a1.81,1.81,0,0,0,.41-.05l0,.53a2,2,0,0,1-.63.09,1,1,0,0,1-.76-.29,1.44,1.44,0,0,1-.27-1V50h-.6v-.54h.6v-.92Z" transform="translate(0 -0.38)"/><path class="cls-9" d="M104.48,52.29q0,.6,0,1.05h-.62l0-.63h0a1.45,1.45,0,0,1-1.28.72c-.61,0-1.33-.34-1.33-1.69V49.47h.7v2.15c0,.73.22,1.23.86,1.23a1,1,0,0,0,.93-.64,1,1,0,0,0,.06-.36V49.47h.71Z" transform="translate(0 -0.38)"/><path class="cls-9" d="M105.65,50.68c0-.46,0-.85,0-1.21h.61l0,.76h0a1.16,1.16,0,0,1,1.07-.85.6.6,0,0,1,.2,0v.66l-.24,0a1,1,0,0,0-.94.9,1.66,1.66,0,0,0,0,.33v2.06h-.69Z" transform="translate(0 -0.38)"/><path class="cls-9" d="M108.66,51.54A1.23,1.23,0,0,0,110,52.88a2.53,2.53,0,0,0,1.07-.2l.12.5a3.12,3.12,0,0,1-1.28.24,1.8,1.8,0,0,1-1.91-2,1.88,1.88,0,0,1,1.82-2.09,1.65,1.65,0,0,1,1.6,1.83,2.34,2.34,0,0,1,0,.33Zm2.06-.51a1,1,0,0,0-1-1.14A1.17,1.17,0,0,0,108.66,51Z" transform="translate(0 -0.38)"/><path class="cls-9" d="M115.61,47.67v4.67a9.91,9.91,0,0,0,0,1H115l0-.67h0a1.44,1.44,0,0,1-1.32.76,1.77,1.77,0,0,1-1.66-2,1.85,1.85,0,0,1,1.74-2.08,1.28,1.28,0,0,1,1.16.6h0V47.67Zm-.7,3.38a1.53,1.53,0,0,0,0-.3,1,1,0,0,0-1-.81c-.73,0-1.16.64-1.16,1.49s.39,1.43,1.15,1.43a1.06,1.06,0,0,0,1-.84,1.39,1.39,0,0,0,0-.3Z" transform="translate(0 -0.38)"/><path class="cls-9" d="M118.76,49.47l.51,2c.11.43.22.83.29,1.23h0c.09-.39.22-.81.35-1.22l.63-2h.59l.6,1.94c.14.46.25.87.34,1.26h0a12.21,12.21,0,0,1,.29-1.25l.55-2h.7l-1.25,3.87h-.64l-.59-1.84c-.13-.44-.25-.82-.34-1.28h0a9.17,9.17,0,0,1-.35,1.28l-.62,1.84h-.64L118,49.47Z" transform="translate(0 -0.38)"/><path class="cls-9" d="M125.15,48.39a.44.44,0,0,1-.87,0,.43.43,0,0,1,.44-.44A.42.42,0,0,1,125.15,48.39Zm-.78,5V49.47h.7v3.87Z" transform="translate(0 -0.38)"/><path class="cls-9" d="M127.09,48.36v1.11h1V50h-1V52.1c0,.48.13.75.52.75a1.73,1.73,0,0,0,.41-.05l0,.53a1.85,1.85,0,0,1-.62.09,1,1,0,0,1-.76-.29,1.44,1.44,0,0,1-.27-1V50h-.6v-.54h.6v-.92Z" transform="translate(0 -0.38)"/><path class="cls-9" d="M128.89,47.67h.7v2.41h0a1.27,1.27,0,0,1,.5-.5,1.47,1.47,0,0,1,.72-.2c.52,0,1.35.32,1.35,1.66v2.3h-.7V51.12c0-.62-.23-1.15-.9-1.15a1,1,0,0,0-.94.7.87.87,0,0,0,0,.34v2.33h-.7Z" transform="translate(0 -0.38)"/><path class="cls-9" d="M135,50.74c0-.5,0-.9,0-1.27h.63l0,.67h0a1.53,1.53,0,0,1,1.38-.76,1.76,1.76,0,0,1,1.64,2,1.83,1.83,0,0,1-1.76,2.08,1.36,1.36,0,0,1-1.2-.61h0v2.11H135Zm.7,1a1.36,1.36,0,0,0,0,.29,1.09,1.09,0,0,0,1.06.82c.74,0,1.17-.61,1.17-1.5s-.41-1.44-1.15-1.44a1.12,1.12,0,0,0-1.06.88.87.87,0,0,0-.05.28Z" transform="translate(0 -0.38)"/><path class="cls-9" d="M139.58,47.67h.7v5.67h-.7Z" transform="translate(0 -0.38)"/><path class="cls-9" d="M143.61,53.34l-.06-.49h0a1.45,1.45,0,0,1-1.19.58,1.1,1.1,0,0,1-1.18-1.11c0-.94.83-1.45,2.33-1.44V50.8a.8.8,0,0,0-.88-.9,2,2,0,0,0-1,.29l-.16-.46a2.37,2.37,0,0,1,1.27-.35c1.18,0,1.47.81,1.47,1.59v1.45a5.14,5.14,0,0,0,.07.92Zm-.11-2c-.77,0-1.64.12-1.64.87a.62.62,0,0,0,.67.67,1,1,0,0,0,.93-.65.57.57,0,0,0,0-.22Z" transform="translate(0 -0.38)"/><path class="cls-9" d="M146.17,48.36v1.11h1V50h-1V52.1c0,.48.13.75.52.75a1.73,1.73,0,0,0,.41-.05l0,.53a1.85,1.85,0,0,1-.62.09,1,1,0,0,1-.76-.29,1.44,1.44,0,0,1-.27-1V50h-.6v-.54h.6v-.92Z" transform="translate(0 -0.38)"/><path class="cls-9" d="M148.36,51.54a1.23,1.23,0,0,0,1.33,1.34,2.6,2.6,0,0,0,1.07-.2l.12.5a3.17,3.17,0,0,1-1.29.24,1.79,1.79,0,0,1-1.9-2,1.87,1.87,0,0,1,1.81-2.09,1.65,1.65,0,0,1,1.6,1.83c0,.14,0,.25,0,.33Zm2.06-.51a1,1,0,0,0-1-1.14A1.15,1.15,0,0,0,148.37,51Z" transform="translate(0 -0.38)"/><path class="cls-9" d="M152,47.67h.71v5.67H152Z" transform="translate(0 -0.38)"/><path class="cls-9" d="M154.25,51.54a1.24,1.24,0,0,0,1.33,1.34,2.53,2.53,0,0,0,1.07-.2l.12.5a3.12,3.12,0,0,1-1.28.24,1.8,1.8,0,0,1-1.91-2,1.88,1.88,0,0,1,1.82-2.09,1.65,1.65,0,0,1,1.6,1.83,2.34,2.34,0,0,1,0,.33Zm2.07-.51a1,1,0,0,0-1-1.14A1.17,1.17,0,0,0,154.26,51Z" transform="translate(0 -0.38)"/><path class="cls-9" d="M158.72,48.36v1.11h1V50h-1V52.1c0,.48.13.75.53.75a1.63,1.63,0,0,0,.4-.05l0,.53a2,2,0,0,1-.63.09,1,1,0,0,1-.76-.29,1.44,1.44,0,0,1-.27-1V50h-.6v-.54h.6v-.92Z" transform="translate(0 -0.38)"/><path class="cls-9" d="M162.21,50.74c0-.5,0-.9,0-1.27h.63l0,.67h0a1.54,1.54,0,0,1,1.38-.76,1.76,1.76,0,0,1,1.64,2,1.83,1.83,0,0,1-1.76,2.08,1.34,1.34,0,0,1-1.19-.61h0v2.11h-.7Zm.7,1a2.58,2.58,0,0,0,0,.29,1.09,1.09,0,0,0,1.06.82c.74,0,1.17-.61,1.17-1.5s-.4-1.44-1.15-1.44a1.12,1.12,0,0,0-1.06.88.87.87,0,0,0-.05.28Z" transform="translate(0 -0.38)"/><path class="cls-9" d="M166.77,50.68c0-.46,0-.85,0-1.21h.62l0,.76h0a1.16,1.16,0,0,1,1.07-.85.64.64,0,0,1,.2,0v.66l-.24,0a1,1,0,0,0-.95.9,3.11,3.11,0,0,0,0,.33v2.06h-.69Z" transform="translate(0 -0.38)"/><path class="cls-9" d="M172.88,51.38a1.89,1.89,0,0,1-1.92,2,1.84,1.84,0,0,1-1.86-2A1.89,1.89,0,0,1,171,49.38,1.84,1.84,0,0,1,172.88,51.38Zm-3.07,0c0,.84.49,1.48,1.18,1.48s1.18-.63,1.18-1.5c0-.66-.33-1.49-1.16-1.49S169.81,50.68,169.81,51.42Z" transform="translate(0 -0.38)"/><path class="cls-9" d="M174.62,48.36v1.11h1V50h-1V52.1c0,.48.14.75.53.75a1.81,1.81,0,0,0,.41-.05l0,.53a1.89,1.89,0,0,1-.62.09,1,1,0,0,1-.76-.29,1.44,1.44,0,0,1-.28-1V50h-.6v-.54h.6v-.92Z" transform="translate(0 -0.38)"/><path class="cls-9" d="M176.81,51.54a1.24,1.24,0,0,0,1.33,1.34,2.53,2.53,0,0,0,1.07-.2l.12.5a3.16,3.16,0,0,1-1.28.24,1.8,1.8,0,0,1-1.91-2A1.88,1.88,0,0,1,178,49.38a1.65,1.65,0,0,1,1.6,1.83,2.34,2.34,0,0,1,0,.33Zm2.07-.51a1,1,0,0,0-1-1.14A1.17,1.17,0,0,0,176.82,51Z" transform="translate(0 -0.38)"/><path class="cls-9" d="M181.21,48.39a.41.41,0,0,1-.44.43.42.42,0,0,1-.43-.43.43.43,0,0,1,.44-.44A.41.41,0,0,1,181.21,48.39Zm-.78,5V49.47h.7v3.87Z" transform="translate(0 -0.38)"/><path class="cls-9" d="M182.3,50.52c0-.4,0-.73,0-1.05h.62l0,.64h0a1.42,1.42,0,0,1,1.28-.73c.53,0,1.37.32,1.37,1.65v2.31h-.71V51.11c0-.62-.23-1.14-.89-1.14a1,1,0,0,0-.95.72,1.11,1.11,0,0,0,0,.33v2.32h-.71Z" transform="translate(0 -0.38)"/><path class="cls-9" d="M186.65,52.62a1.76,1.76,0,0,0,.92.28c.51,0,.76-.25.76-.57s-.2-.52-.72-.71c-.7-.25-1-.64-1-1.1a1.2,1.2,0,0,1,1.34-1.14,1.92,1.92,0,0,1,1,.25l-.18.51a1.45,1.45,0,0,0-.79-.23c-.41,0-.65.24-.65.53s.24.46.74.66c.67.25,1,.59,1,1.16s-.52,1.16-1.44,1.16a2.19,2.19,0,0,1-1.09-.26Z" transform="translate(0 -0.38)"/><path class="cls-9" d="M152.3,150.7a3.39,3.39,0,0,1-1.42.26,2.52,2.52,0,0,1-2.66-2.73A2.68,2.68,0,0,1,151,145.4a3,3,0,0,1,1.28.24l-.17.57a2.5,2.5,0,0,0-1.09-.22,2,2,0,0,0-2.1,2.22,2,2,0,0,0,2.07,2.17,2.72,2.72,0,0,0,1.14-.23Z" transform="translate(0 -0.38)"/><path class="cls-9" d="M156.39,149.82c0,.4,0,.76,0,1.06h-.62l0-.63h0a1.45,1.45,0,0,1-1.28.72c-.61,0-1.33-.34-1.33-1.7V147h.7v2.14c0,.74.22,1.23.86,1.23a1,1,0,0,0,1-1V147h.7Z" transform="translate(0 -0.38)"/><path class="cls-9" d="M157.56,145.2h.7v5.68h-.7Z" transform="translate(0 -0.38)"/><path class="cls-9" d="M160.29,145.9V147h1v.53h-1v2.09c0,.48.14.75.53.75a1.33,1.33,0,0,0,.41,0l0,.53a1.59,1.59,0,0,1-.62.1,1,1,0,0,1-.76-.3,1.41,1.41,0,0,1-.27-1v-2.12H159V147h.6v-.93Z" transform="translate(0 -0.38)"/><path class="cls-9" d="M165.33,149.82c0,.4,0,.76,0,1.06h-.63l0-.63h0a1.48,1.48,0,0,1-1.28.72c-.61,0-1.34-.34-1.34-1.7V147h.71v2.14c0,.74.22,1.23.86,1.23a1,1,0,0,0,1-1V147h.7Z" transform="translate(0 -0.38)"/><path class="cls-9" d="M166.5,148.22c0-.46,0-.85,0-1.21h.62l0,.76h0a1.17,1.17,0,0,1,1.07-.85.6.6,0,0,1,.2,0v.66a.83.83,0,0,0-.24,0,1,1,0,0,0-.94.91,1.61,1.61,0,0,0,0,.33v2.06h-.7Z" transform="translate(0 -0.38)"/><path class="cls-9" d="M169.51,149.07a1.25,1.25,0,0,0,1.33,1.35,2.57,2.57,0,0,0,1.07-.2l.12.5a3.17,3.17,0,0,1-1.29.24,1.79,1.79,0,0,1-1.9-2,1.88,1.88,0,0,1,1.81-2.09,1.63,1.63,0,0,1,1.6,1.82,2.38,2.38,0,0,1,0,.33Zm2.06-.5a1,1,0,0,0-1-1.15,1.17,1.17,0,0,0-1.08,1.15Z" transform="translate(0 -0.38)"/><path class="cls-9" d="M176.47,145.2v4.68c0,.34,0,.74,0,1h-.63l0-.67h0a1.43,1.43,0,0,1-1.32.76,1.76,1.76,0,0,1-1.65-2,1.85,1.85,0,0,1,1.73-2.08,1.31,1.31,0,0,1,1.17.59h0V145.2Zm-.7,3.38a1,1,0,0,0,0-.29,1,1,0,0,0-1-.82c-.73,0-1.16.64-1.16,1.5s.38,1.43,1.14,1.43a1,1,0,0,0,1-.84,1,1,0,0,0,0-.3Z" transform="translate(0 -0.38)"/><path class="cls-9" d="M179.61,147l.52,2c.11.43.21.83.28,1.23h0c.09-.39.21-.81.34-1.23l.63-2H182l.6,1.93c.15.47.26.88.35,1.27h0c.07-.39.17-.8.3-1.26l.55-1.94h.7l-1.25,3.87h-.64L182,149a12.44,12.44,0,0,1-.35-1.27h0c-.1.46-.22.86-.35,1.28l-.63,1.84h-.64L178.89,147Z" transform="translate(0 -0.38)"/><path class="cls-9" d="M186,145.92a.44.44,0,0,1-.88,0,.43.43,0,0,1,.44-.44A.42.42,0,0,1,186,145.92Zm-.79,5V147h.71v3.87Z" transform="translate(0 -0.38)"/><path class="cls-9" d="M187.94,145.9V147h1v.53h-1v2.09c0,.48.14.75.53.75a1.37,1.37,0,0,0,.41,0l0,.53a1.63,1.63,0,0,1-.62.1.94.94,0,0,1-.76-.3,1.41,1.41,0,0,1-.28-1v-2.12h-.6V147h.6v-.93Z" transform="translate(0 -0.38)"/><path class="cls-9" d="M189.74,145.2h.71v2.42h0a1.29,1.29,0,0,1,.51-.5,1.41,1.41,0,0,1,.72-.2c.52,0,1.35.32,1.35,1.66v2.3h-.71v-2.22c0-.63-.23-1.16-.89-1.16a1,1,0,0,0-.95.71.83.83,0,0,0,0,.33v2.34h-.71Z" transform="translate(0 -0.38)"/><path class="cls-9" d="M195.88,148.27c0-.49,0-.89,0-1.26h.63l0,.66h0a1.51,1.51,0,0,1,1.37-.75,1.75,1.75,0,0,1,1.64,2,1.83,1.83,0,0,1-1.76,2.08,1.36,1.36,0,0,1-1.19-.61h0v2.1h-.69Zm.69,1a1.27,1.27,0,0,0,0,.29,1.08,1.08,0,0,0,1,.83c.75,0,1.18-.61,1.18-1.5s-.41-1.44-1.15-1.44a1.14,1.14,0,0,0-1.07.87,1.35,1.35,0,0,0-.05.29Z" transform="translate(0 -0.38)"/><path class="cls-9" d="M200.43,145.2h.7v5.68h-.7Z" transform="translate(0 -0.38)"/><path class="cls-9" d="M204.46,150.88l-.05-.49h0a1.42,1.42,0,0,1-1.18.58,1.1,1.1,0,0,1-1.19-1.11c0-.94.84-1.45,2.33-1.44v-.08a.8.8,0,0,0-.88-.9,1.92,1.92,0,0,0-1,.29l-.16-.47a2.5,2.5,0,0,1,1.28-.34c1.18,0,1.47.81,1.47,1.58V150a5.25,5.25,0,0,0,.06.93Zm-.1-2c-.77,0-1.64.12-1.64.88a.62.62,0,0,0,.66.67,1,1,0,0,0,.94-.65.85.85,0,0,0,0-.22Z" transform="translate(0 -0.38)"/><path class="cls-9" d="M206.08,150.16a1.8,1.8,0,0,0,.93.28c.51,0,.75-.26.75-.58s-.2-.52-.72-.71c-.7-.25-1-.63-1-1.09a1.2,1.2,0,0,1,1.34-1.14,1.89,1.89,0,0,1,1,.24l-.17.51a1.63,1.63,0,0,0-.8-.22c-.41,0-.64.24-.64.53s.23.46.73.65c.67.26,1,.59,1,1.17S207.91,151,207,151a2.22,2.22,0,0,1-1.09-.26Z" transform="translate(0 -0.38)"/><path class="cls-9" d="M209.34,148.06c0-.4,0-.73,0-1.05h.62l0,.62h0a1.34,1.34,0,0,1,1.22-.71,1.13,1.13,0,0,1,1.09.78h0a1.57,1.57,0,0,1,.43-.51,1.36,1.36,0,0,1,.86-.27c.51,0,1.27.34,1.27,1.68v2.28h-.69v-2.19c0-.75-.27-1.19-.84-1.19a.9.9,0,0,0-.83.64,1.16,1.16,0,0,0-.06.35v2.39h-.68v-2.32c0-.62-.28-1.06-.81-1.06a1,1,0,0,0-.87.7.93.93,0,0,0-.06.34v2.34h-.69Z" transform="translate(0 -0.38)"/><path class="cls-9" d="M218.16,150.88l-.06-.49h0a1.44,1.44,0,0,1-1.19.58,1.1,1.1,0,0,1-1.18-1.11c0-.94.83-1.45,2.33-1.44v-.08a.8.8,0,0,0-.88-.9,1.9,1.9,0,0,0-1,.29l-.16-.47a2.46,2.46,0,0,1,1.27-.34c1.19,0,1.47.81,1.47,1.58V150a5.18,5.18,0,0,0,.07.93Zm-.11-2c-.76,0-1.64.12-1.64.88a.63.63,0,0,0,.67.67,1,1,0,0,0,.93-.65.57.57,0,0,0,0-.22Z" transform="translate(0 -0.38)"/></svg>