<?xml version="1.0" encoding="utf-8"?>
<!-- Generator: Adobe Illustrator 22.0.1, SVG Export Plug-In . SVG Version: 6.00 Build 0)  -->
<svg version="1.1" id="Layer_1" xmlns="http://www.w3.org/2000/svg" xmlns:xlink="http://www.w3.org/1999/xlink" x="0px" y="0px"
	 viewBox="0 0 34 34" style="enable-background:new 0 0 34 34;" xml:space="preserve">
<style type="text/css">
	.st0{fill:#C42129;}
	.st1{fill:#FFFFFF;}
</style>
<g>
	<rect x="0" y="0.1" class="st0" width="34" height="34"/>
	<path class="st1" d="M6.9,19.3v-5.4c0.4-0.4,0.6-0.6,0.9-1c0.5-0.5,0.7-0.8,1.2-1.3c0.5-0.5,0.7-0.7,1.3-1.1c0.5-0.4,0.9-0.6,1.4-1
		c0.5-0.3,0.9-0.5,1.4-0.7c0.4-0.2,0.6-0.2,1.1-0.3c0.4-0.1,0.7-0.1,1.1,0c0.5,0.1,0.7,0.2,1.1,0.6c0.4,0.4,0.4,0.7,0.5,1.2
		c0.1,0.4,0.1,0.7,0.2,1.2c0.1,0.4,0.1,0.7,0.1,1c0,0.2,0.3,0.5,0.5,0.5c0.4,0.1,0.7-0.1,1-0.4c0.5-0.4,0.2-0.2,0.6-0.6
		c0.5-0.4,0.7-0.8,1.3-1.2c0.4-0.4,0.7-0.6,1.2-0.9c0.5-0.3,0.7-0.5,1.2-0.7C23.6,9.1,24,9,24.6,9c0.5,0,0.8,0,1.3,0.2
		c0.7,0.3,1,0.6,1.4,1.2c0.4,0.5,0.5,0.9,0.6,1.6c0.1,0.8,0.1,1.3,0.1,2.1c0,0.6,0,1.1,0,1.5c0,0.7,0,1.4,0,2.4l-0.4-1.3
		c-0.2-0.4-0.3-0.7-0.6-1c-0.4-0.5-0.7-0.8-1.3-1c-0.6-0.2-1-0.2-1.6-0.1c-0.6,0.1-1,0.3-1.6,0.6c-0.5,0.3-0.8,0.5-1.3,0.9
		c-0.4,0.3-0.6,0.5-0.9,0.8c-0.4,0.3-0.6,0.5-1,0.9c-0.4,0.3-0.4,0.4-1,0.7c-0.1,0.1-0.2,0.1-0.3,0.1c-0.1,0-0.2,0.1-0.4,0
		c-0.2,0-0.4-0.2-0.4-0.5c-0.1-0.5,0-0.7-0.1-1.3c0-0.4,0-0.9-0.2-1.3c-0.2-0.5-0.4-0.8-0.7-1.1c-0.4-0.3-0.4-0.4-1.1-0.5
		c-0.6-0.1-1.2,0-1.9,0.2c-0.5,0.1-0.7,0.3-1.2,0.5c-0.5,0.3-0.8,0.4-1.2,0.8c-0.4,0.3-0.7,0.5-1.1,0.8c-0.4,0.3-0.7,0.5-1.1,0.9
		C8,18.1,7.6,18.5,6.9,19.3"/>
	<path class="st1" d="M6.9,26.9v-5.4c0.4-0.4,0.6-0.6,0.9-1c0.5-0.5,0.7-0.8,1.2-1.3c0.5-0.5,0.7-0.7,1.3-1.1c0.5-0.4,0.9-0.6,1.4-1
		c0.5-0.3,0.9-0.5,1.4-0.7c0.4-0.2,0.6-0.2,1.1-0.3c0.4-0.1,0.7-0.1,1.1,0c0.5,0.1,0.7,0.2,1.1,0.6c0.4,0.4,0.4,0.7,0.5,1.2
		c0.1,0.4,0.1,0.7,0.2,1.2c0,0.4,0,0.6,0.1,1c0,0.2,0.3,0.5,0.5,0.5c0.4,0.1,0.7-0.1,1-0.3c0.5-0.4,0.2-0.2,0.6-0.6
		c0.5-0.4,0.7-0.8,1.3-1.2c0.4-0.4,0.7-0.6,1.2-0.9c0.5-0.3,0.7-0.5,1.2-0.7c0.6-0.2,0.9-0.3,1.5-0.3c0.5,0,0.8,0,1.3,0.2
		c0.7,0.3,1,0.6,1.4,1.2c0.4,0.5,0.5,0.9,0.6,1.6c0.1,0.8,0.1,1.3,0.1,2.1c0,0.6,0,1.1,0,1.5c0,0.7,0,1.4,0,2.4l-0.4-1.3
		c-0.2-0.4-0.3-0.7-0.6-1c-0.4-0.5-0.7-0.8-1.3-1c-0.6-0.2-1-0.2-1.6-0.1c-0.6,0.1-1,0.3-1.6,0.6c-0.5,0.3-0.8,0.5-1.3,0.9
		c-0.4,0.3-0.6,0.5-0.9,0.8c-0.4,0.3-0.6,0.5-1,0.9c-0.4,0.3-0.4,0.4-1,0.7c-0.1,0.1-0.2,0.1-0.3,0.1c-0.1,0-0.2,0.1-0.4,0
		c-0.2,0-0.4-0.2-0.4-0.5c-0.1-0.5,0-0.7-0.1-1.3c0-0.4,0-0.9-0.2-1.3c-0.2-0.5-0.4-0.8-0.7-1.1c-0.4-0.3-0.4-0.4-1.1-0.5
		c-0.6-0.1-1.2,0-1.9,0.2c-0.5,0.1-0.7,0.3-1.2,0.5c-0.5,0.3-0.8,0.4-1.2,0.8c-0.4,0.3-0.7,0.5-1.1,0.8c-0.4,0.3-0.7,0.5-1.1,0.9
		C8,25.7,7.6,26.1,6.9,26.9L6.9,26.9z"/>
</g>
</svg>
