<svg id="Layer_1" data-name="Layer 1" xmlns="http://www.w3.org/2000/svg" viewBox="0 0 261 200"><defs><style>.cls-1{fill:#ededee;}.cls-2{fill:none;stroke:#fff;stroke-miterlimit:10;}.cls-3{fill:#231f20;}</style></defs><title>Place the Label</title><rect class="cls-1" width="261" height="200"/><line class="cls-2" y1="3.28" x2="261" y2="3.28"/><line class="cls-2" y1="36.78" x2="261" y2="36.78"/><path class="cls-3" d="M4.17,7.79H5.4V13.5H8.17v1h-4Z"/><path class="cls-3" d="M10,12.44a1.32,1.32,0,0,0,1.5,1.26,3.66,3.66,0,0,0,1.35-.22l.18.85a4.59,4.59,0,0,1-1.7.3,2.3,2.3,0,0,1-2.51-2.46,2.41,2.41,0,0,1,2.38-2.62,2.12,2.12,0,0,1,2.1,2.37,3,3,0,0,1,0,.52Zm2.14-.86a1,1,0,0,0-1-1.19A1.2,1.2,0,0,0,10,11.58Z"/><path class="cls-3" d="M15.79,8.27V9.66H17v.92H15.79v2.15c0,.59.16.9.63.9a1.82,1.82,0,0,0,.48-.06l0,.94a2.7,2.7,0,0,1-.89.12,1.42,1.42,0,0,1-1.06-.4,1.94,1.94,0,0,1-.38-1.36V10.58h-.7V9.66h.7V8.56Z"/><path class="cls-3" d="M19.44,8.27V9.66h1.17v.92H19.44v2.15c0,.59.16.9.63.9a1.82,1.82,0,0,0,.48-.06l0,.94a2.7,2.7,0,0,1-.89.12,1.42,1.42,0,0,1-1.06-.4,1.94,1.94,0,0,1-.38-1.36V10.58h-.7V9.66h.7V8.56Z"/><path class="cls-3" d="M26,13.07c0,.58,0,1.06,0,1.46H25l-.06-.74h0a1.76,1.76,0,0,1-1.56.85c-.89,0-1.7-.53-1.7-2.12V9.66h1.23v2.65c0,.81.26,1.33.91,1.33a1,1,0,0,0,.94-.66,1.12,1.12,0,0,0,.07-.38V9.66H26Z"/><path class="cls-3" d="M31.09,14.38a3.56,3.56,0,0,1-1.38.25,2.34,2.34,0,0,1-2.51-2.48,2.52,2.52,0,0,1,2.71-2.6,3.07,3.07,0,0,1,1.19.23l-.22.92a2.17,2.17,0,0,0-.93-.19,1.45,1.45,0,0,0-1.49,1.58A1.44,1.44,0,0,0,30,13.66a2.41,2.41,0,0,0,1-.19Z"/><path class="cls-3" d="M32.92,12.44a1.32,1.32,0,0,0,1.5,1.26,3.66,3.66,0,0,0,1.35-.22l.18.85a4.59,4.59,0,0,1-1.7.3,2.3,2.3,0,0,1-2.51-2.46,2.41,2.41,0,0,1,2.38-2.62,2.12,2.12,0,0,1,2.1,2.37,3,3,0,0,1,0,.52Zm2.14-.86a1,1,0,0,0-1-1.19,1.2,1.2,0,0,0-1.13,1.19Z"/><path class="cls-3" d="M39.69,13.19a3.41,3.41,0,0,0,1.63.43c.79,0,1.23-.37,1.23-.92s-.34-.81-1.2-1.12c-1.11-.4-1.82-1-1.82-2s.92-1.93,2.38-1.93A3.58,3.58,0,0,1,43.53,8l-.3,1a2.85,2.85,0,0,0-1.34-.32c-.78,0-1.12.42-1.12.81s.39.76,1.29,1.11c1.17.44,1.74,1,1.74,2s-.82,2-2.56,2a4,4,0,0,1-1.82-.42Z"/><path class="cls-3" d="M45.93,12.44a1.32,1.32,0,0,0,1.5,1.26,3.66,3.66,0,0,0,1.35-.22l.18.85a4.59,4.59,0,0,1-1.7.3,2.3,2.3,0,0,1-2.51-2.46,2.41,2.41,0,0,1,2.38-2.62,2.12,2.12,0,0,1,2.1,2.37,3,3,0,0,1,0,.52Zm2.14-.86a1,1,0,0,0-1-1.19,1.2,1.2,0,0,0-1.13,1.19Z"/><path class="cls-3" d="M51.23,12.44a1.32,1.32,0,0,0,1.5,1.26,3.66,3.66,0,0,0,1.35-.22l.18.85a4.59,4.59,0,0,1-1.7.3,2.3,2.3,0,0,1-2.51-2.46,2.41,2.41,0,0,1,2.38-2.62,2.12,2.12,0,0,1,2.1,2.37,3,3,0,0,1,0,.52Zm2.14-.86a1,1,0,0,0-1-1.19,1.2,1.2,0,0,0-1.13,1.19Z"/><path class="cls-3" d="M60.15,7.44v5.72c0,.5,0,1,0,1.37h-1.1L59,13.76h0a1.75,1.75,0,0,1-1.59.88,2.23,2.23,0,0,1-2.08-2.49,2.32,2.32,0,0,1,2.18-2.6,1.55,1.55,0,0,1,1.37.64h0V7.44Zm-1.23,4.25a1.73,1.73,0,0,0,0-.32,1.08,1.08,0,0,0-1.06-.87c-.79,0-1.23.7-1.23,1.61s.44,1.54,1.22,1.54a1.08,1.08,0,0,0,1.06-.87,1.37,1.37,0,0,0,0-.36Z"/><path class="cls-3" d="M61.55,13.4a2.74,2.74,0,0,0,1.25.35c.54,0,.78-.22.78-.54s-.2-.5-.8-.71c-1-.33-1.35-.85-1.34-1.42a1.63,1.63,0,0,1,1.84-1.53,2.86,2.86,0,0,1,1.29.29l-.24.87a2.19,2.19,0,0,0-1-.28c-.44,0-.68.21-.68.51s.23.46.85.68c.88.32,1.29.77,1.3,1.49,0,.88-.69,1.52-2,1.52a3.14,3.14,0,0,1-1.48-.34Z"/><path class="cls-3" d="M73.74,14.22a6.68,6.68,0,0,1-2.17.38,3.63,3.63,0,0,1-2.64-.9A3.34,3.34,0,0,1,68,11.22a3.42,3.42,0,0,1,3.75-3.49A4.7,4.7,0,0,1,73.53,8l-.27,1a3.63,3.63,0,0,0-1.53-.29,2.26,2.26,0,0,0-2.45,2.42,2.23,2.23,0,0,0,2.34,2.44,2.36,2.36,0,0,0,.93-.14V11.78H71.36v-1h2.38Z"/><path class="cls-3" d="M76,12.44a1.32,1.32,0,0,0,1.5,1.26,3.66,3.66,0,0,0,1.35-.22l.18.85a4.59,4.59,0,0,1-1.7.3,2.3,2.3,0,0,1-2.51-2.46,2.41,2.41,0,0,1,2.38-2.62,2.12,2.12,0,0,1,2.1,2.37,3,3,0,0,1,0,.52Zm2.14-.86a1,1,0,0,0-1-1.19A1.2,1.2,0,0,0,76,11.58Z"/><path class="cls-3" d="M80.45,11.23c0-.66,0-1.13,0-1.57h1.07l0,.93h0a1.45,1.45,0,0,1,1.33-1,1.29,1.29,0,0,1,.29,0v1.16a1.71,1.71,0,0,0-.36,0,1.08,1.08,0,0,0-1.1.93,2.11,2.11,0,0,0,0,.38v2.52H80.45Z"/><path class="cls-3" d="M84.15,11.11c0-.56,0-1,0-1.45h1.06l0,.72h0a1.68,1.68,0,0,1,1.5-.83,1.4,1.4,0,0,1,1.35.9h0a1.84,1.84,0,0,1,.6-.61,1.63,1.63,0,0,1,1-.29c.81,0,1.63.55,1.63,2.11v2.87h-1.2V11.84c0-.81-.28-1.29-.87-1.29a.94.94,0,0,0-.86.65,1.76,1.76,0,0,0-.06.41v2.92h-1.2V11.71c0-.68-.27-1.16-.84-1.16a1,1,0,0,0-.88.7,1.05,1.05,0,0,0-.07.4v2.88h-1.2Z"/><path class="cls-3" d="M94.08,8.3a.69.69,0,1,1-.69-.66A.65.65,0,0,1,94.08,8.3Zm-1.31,6.23V9.66H94v4.87Z"/><path class="cls-3" d="M95.47,11.11c0-.56,0-1,0-1.45h1.08l.06.73h0a1.76,1.76,0,0,1,1.55-.84c.85,0,1.73.55,1.73,2.09v2.89H98.65V11.78c0-.7-.26-1.23-.93-1.23a1,1,0,0,0-1,.72,1.25,1.25,0,0,0-.05.4v2.86H95.47Z"/><path class="cls-3" d="M104.07,14.53,104,14h0a1.81,1.81,0,0,1-1.44.65A1.45,1.45,0,0,1,101,13.19c0-1.23,1.09-1.85,2.89-1.84v-.08c0-.32-.13-.85-1-.85a2.58,2.58,0,0,0-1.31.36l-.24-.8a3.51,3.51,0,0,1,1.76-.43,1.82,1.82,0,0,1,2,2v1.76a7.81,7.81,0,0,0,.07,1.17Zm-.16-2.38c-.87,0-1.7.17-1.7.91a.65.65,0,0,0,.7.7,1,1,0,0,0,1-.67.88.88,0,0,0,0-.27Z"/><path class="cls-3" d="M107.9,8.27V9.66h1.17v.92H107.9v2.15c0,.59.16.9.63.9a1.82,1.82,0,0,0,.48-.06l0,.94a2.7,2.7,0,0,1-.89.12,1.42,1.42,0,0,1-1.06-.4,1.94,1.94,0,0,1-.38-1.36V10.58H106V9.66h.7V8.56Z"/><path class="cls-3" d="M111.45,8.3a.69.69,0,1,1-.69-.66A.65.65,0,0,1,111.45,8.3Zm-1.31,6.23V9.66h1.24v4.87Z"/><path class="cls-3" d="M112.84,11.11c0-.56,0-1,0-1.45h1.08l.06.73h0a1.76,1.76,0,0,1,1.55-.84c.85,0,1.73.55,1.73,2.09v2.89H116V11.78c0-.7-.26-1.23-.93-1.23a1,1,0,0,0-1,.72,1.25,1.25,0,0,0,0,.4v2.86h-1.24Z"/><path class="cls-3" d="M123.15,9.66c0,.33,0,.73,0,1.4v2.76a2.82,2.82,0,0,1-.72,2.21,2.8,2.8,0,0,1-1.88.59,3.45,3.45,0,0,1-1.7-.39l.27-.93a2.94,2.94,0,0,0,1.42.37,1.29,1.29,0,0,0,1.4-1.47v-.42h0a1.64,1.64,0,0,1-1.42.72,2.16,2.16,0,0,1-2.07-2.38,2.33,2.33,0,0,1,2.21-2.57,1.53,1.53,0,0,1,1.41.76h0l0-.65Zm-1.27,1.95a1.19,1.19,0,0,0,0-.33,1,1,0,0,0-1-.79c-.69,0-1.2.6-1.2,1.59,0,.83.42,1.5,1.19,1.5a1.05,1.05,0,0,0,1-.74,2.12,2.12,0,0,0,0-.44Z"/><path class="cls-3" d="M128.29,12.62l-.58,1.91h-1.27l2.16-6.74h1.57l2.19,6.74H131l-.61-1.91Zm1.93-.93L129.69,10c-.13-.41-.24-.87-.34-1.26h0c-.1.39-.2.86-.32,1.26l-.52,1.66Z"/><path class="cls-3" d="M133.43,14.53V10.58h-.66V9.66h.66V9.45A2.27,2.27,0,0,1,134,7.79a1.9,1.9,0,0,1,1.27-.46,2.39,2.39,0,0,1,.79.12l-.09.94a1.43,1.43,0,0,0-.52-.09c-.61,0-.82.51-.82,1.11v.25h1.07v.92h-1.06v3.95Z"/><path class="cls-3" d="M138.16,8.27V9.66h1.17v.92h-1.17v2.15c0,.59.16.9.63.9a1.82,1.82,0,0,0,.48-.06l0,.94a2.7,2.7,0,0,1-.89.12,1.42,1.42,0,0,1-1.06-.4,1.94,1.94,0,0,1-.38-1.36V10.58h-.7V9.66h.7V8.56Z"/><path class="cls-3" d="M141.21,12.44a1.32,1.32,0,0,0,1.5,1.26,3.66,3.66,0,0,0,1.35-.22l.18.85a4.59,4.59,0,0,1-1.7.3A2.3,2.3,0,0,1,140,12.17a2.41,2.41,0,0,1,2.38-2.62,2.12,2.12,0,0,1,2.1,2.37,3,3,0,0,1,0,.52Zm2.14-.86a1,1,0,0,0-1-1.19,1.2,1.2,0,0,0-1.13,1.19Z"/><path class="cls-3" d="M145.64,11.23c0-.66,0-1.13,0-1.57h1.07l0,.93h0a1.45,1.45,0,0,1,1.33-1,1.29,1.29,0,0,1,.29,0v1.16a1.71,1.71,0,0,0-.36,0,1.08,1.08,0,0,0-1.1.93,2.11,2.11,0,0,0,0,.38v2.52h-1.23Z"/><path class="cls-3" d="M155.55,11.54H153v2h2.84v1h-4.07V7.79h3.92v1H153v1.74h2.54Z"/><path class="cls-3" d="M157.84,9.66l.58.92c.16.26.3.5.44.75h0c.14-.27.28-.52.42-.77l.54-.9h1.34L159.56,12l1.66,2.53h-1.39l-.6-1c-.16-.26-.3-.52-.44-.79h0c-.14.28-.28.52-.44.79l-.56,1h-1.36l1.69-2.48-1.63-2.39Z"/><path class="cls-3" d="M162.1,11.28c0-.64,0-1.16,0-1.62h1.08l.06.75h0a1.9,1.9,0,0,1,1.67-.86A2.21,2.21,0,0,1,166.94,12a2.32,2.32,0,0,1-2.22,2.61,1.6,1.6,0,0,1-1.37-.65h0v2.52H162.1Zm1.23,1.21a1.27,1.27,0,0,0,0,.34,1.11,1.11,0,0,0,1.08.86c.78,0,1.24-.65,1.24-1.61s-.42-1.56-1.21-1.56a1.15,1.15,0,0,0-1.1.91,1.12,1.12,0,0,0,0,.31Z"/><path class="cls-3" d="M172.72,12.05a2.41,2.41,0,0,1-2.5,2.59,2.35,2.35,0,0,1-2.44-2.51,2.4,2.4,0,0,1,2.52-2.58A2.34,2.34,0,0,1,172.72,12.05Zm-3.67,0c0,.94.46,1.65,1.21,1.65s1.19-.69,1.19-1.67c0-.76-.34-1.63-1.18-1.63S169.05,11.29,169.05,12.1Z"/><path class="cls-3" d="M173.81,13.4a2.74,2.74,0,0,0,1.25.35c.54,0,.78-.22.78-.54s-.2-.5-.8-.71c-.95-.33-1.35-.85-1.34-1.42a1.63,1.63,0,0,1,1.84-1.53,2.86,2.86,0,0,1,1.29.29l-.24.87a2.19,2.19,0,0,0-1-.28c-.44,0-.68.21-.68.51s.23.46.85.68c.88.32,1.29.77,1.3,1.49,0,.88-.69,1.52-2,1.52a3.14,3.14,0,0,1-1.48-.34Z"/><path class="cls-3" d="M182.54,13.07c0,.58,0,1.06,0,1.46H181.5l-.06-.74h0a1.76,1.76,0,0,1-1.56.85c-.89,0-1.7-.53-1.7-2.12V9.66h1.23v2.65c0,.81.26,1.33.91,1.33a1,1,0,0,0,.94-.66,1.12,1.12,0,0,0,.07-.38V9.66h1.23Z"/><path class="cls-3" d="M184,11.23c0-.66,0-1.13,0-1.57H185l0,.93h0a1.45,1.45,0,0,1,1.33-1,1.29,1.29,0,0,1,.29,0v1.16a1.71,1.71,0,0,0-.36,0,1.08,1.08,0,0,0-1.1.93,2.11,2.11,0,0,0,0,.38v2.52H184Z"/><path class="cls-3" d="M188.49,12.44A1.32,1.32,0,0,0,190,13.7a3.66,3.66,0,0,0,1.35-.22l.18.85a4.59,4.59,0,0,1-1.7.3,2.3,2.3,0,0,1-2.51-2.46,2.41,2.41,0,0,1,2.38-2.62,2.12,2.12,0,0,1,2.1,2.37,3,3,0,0,1,0,.52Zm2.14-.86a1,1,0,0,0-1-1.19,1.2,1.2,0,0,0-1.13,1.19Z"/><path class="cls-3" d="M196.65,8.27V9.66h1.17v.92h-1.17v2.15c0,.59.16.9.63.9a1.82,1.82,0,0,0,.48-.06l0,.94a2.7,2.7,0,0,1-.89.12,1.42,1.42,0,0,1-1.06-.4,1.94,1.94,0,0,1-.38-1.36V10.58h-.7V9.66h.7V8.56Z"/><path class="cls-3" d="M203.46,12.05a2.41,2.41,0,0,1-2.5,2.59,2.35,2.35,0,0,1-2.44-2.51A2.4,2.4,0,0,1,201,9.55,2.34,2.34,0,0,1,203.46,12.05Zm-3.67,0c0,.94.46,1.65,1.21,1.65s1.19-.69,1.19-1.67c0-.76-.34-1.63-1.18-1.63S199.79,11.29,199.79,12.1Z"/><path class="cls-3" d="M207,7.88a13.17,13.17,0,0,1,1.86-.13,3.13,3.13,0,0,1,2.08.53,1.71,1.71,0,0,1,.58,1.35,1.8,1.8,0,0,1-1.22,1.69v0a1.72,1.72,0,0,1,.94,1.3,13.45,13.45,0,0,0,.53,1.88h-1.27a9.52,9.52,0,0,1-.45-1.59c-.19-.88-.51-1.16-1.21-1.18h-.62v2.77H207Zm1.22,3H209c.83,0,1.35-.44,1.35-1.11S209.8,8.67,209,8.67a3.54,3.54,0,0,0-.76.06Z"/><path class="cls-3" d="M213.7,12.44a1.32,1.32,0,0,0,1.5,1.26,3.66,3.66,0,0,0,1.35-.22l.18.85a4.59,4.59,0,0,1-1.7.3,2.3,2.3,0,0,1-2.51-2.46,2.41,2.41,0,0,1,2.38-2.62,2.12,2.12,0,0,1,2.1,2.37,3,3,0,0,1,0,.52Zm2.14-.86a1,1,0,0,0-1-1.19,1.2,1.2,0,0,0-1.13,1.19Z"/><path class="cls-3" d="M222.62,7.44v5.72c0,.5,0,1,0,1.37h-1.1l-.05-.77h0a1.75,1.75,0,0,1-1.59.88,2.23,2.23,0,0,1-2.08-2.49A2.32,2.32,0,0,1,220,9.55a1.55,1.55,0,0,1,1.37.64h0V7.44Zm-1.23,4.25a1.73,1.73,0,0,0,0-.32,1.08,1.08,0,0,0-1.06-.87c-.79,0-1.23.7-1.23,1.61s.44,1.54,1.22,1.54a1.08,1.08,0,0,0,1.06-.87,1.37,1.37,0,0,0,0-.36Z"/><path class="cls-3" d="M229.14,14.53l-.08-.54h0a1.81,1.81,0,0,1-1.44.65,1.45,1.45,0,0,1-1.53-1.45c0-1.23,1.09-1.85,2.89-1.84v-.08c0-.32-.13-.85-1-.85a2.58,2.58,0,0,0-1.31.36l-.24-.8a3.51,3.51,0,0,1,1.76-.43,1.82,1.82,0,0,1,2,2v1.76a7.81,7.81,0,0,0,.07,1.17ZM229,12.15c-.87,0-1.7.17-1.7.91a.65.65,0,0,0,.7.7,1,1,0,0,0,1-.67.88.88,0,0,0,0-.27Z"/><path class="cls-3" d="M231.62,11.11c0-.56,0-1,0-1.45h1.08l.06.73h0a1.76,1.76,0,0,1,1.55-.84c.85,0,1.73.55,1.73,2.09v2.89H234.8V11.78c0-.7-.26-1.23-.93-1.23a1,1,0,0,0-1,.72,1.25,1.25,0,0,0,0,.4v2.86h-1.24Z"/><path class="cls-3" d="M242,7.44v5.72c0,.5,0,1,0,1.37h-1.1l0-.77h0a1.75,1.75,0,0,1-1.59.88,2.23,2.23,0,0,1-2.08-2.49,2.32,2.32,0,0,1,2.18-2.6,1.55,1.55,0,0,1,1.37.64h0V7.44Zm-1.23,4.25a1.73,1.73,0,0,0,0-.32,1.08,1.08,0,0,0-1.06-.87c-.79,0-1.23.7-1.23,1.61s.44,1.54,1.22,1.54a1.08,1.08,0,0,0,1.06-.87,1.37,1.37,0,0,0,0-.36Z"/><path class="cls-3" d="M4.15,20.29H8v1H5.38v1.86H7.86v1H5.38V27H4.15Z"/><path class="cls-3" d="M11.66,27l-.08-.54h0a1.81,1.81,0,0,1-1.44.65,1.45,1.45,0,0,1-1.53-1.45c0-1.23,1.09-1.85,2.89-1.84v-.08c0-.32-.13-.85-1-.85a2.58,2.58,0,0,0-1.31.36l-.24-.8a3.51,3.51,0,0,1,1.76-.43,1.82,1.82,0,0,1,2,2.05v1.76A7.81,7.81,0,0,0,12.77,27Zm-.16-2.38c-.87,0-1.7.17-1.7.91a.65.65,0,0,0,.7.7,1,1,0,0,0,1-.67.88.88,0,0,0,0-.27Z"/><path class="cls-3" d="M14.14,23.73c0-.66,0-1.13,0-1.57h1.07l0,.93h0a1.45,1.45,0,0,1,1.33-1,1.29,1.29,0,0,1,.29,0v1.16a1.71,1.71,0,0,0-.36,0,1.08,1.08,0,0,0-1.1.93,2.11,2.11,0,0,0,0,.38V27H14.14Z"/><path class="cls-3" d="M20,23.94v.85H17.45v-.85Z"/><path class="cls-3" d="M21.16,20.38A13.17,13.17,0,0,1,23,20.25a3.13,3.13,0,0,1,2.08.53,1.71,1.71,0,0,1,.58,1.35,1.8,1.8,0,0,1-1.22,1.69v0a1.72,1.72,0,0,1,.94,1.3A13.45,13.45,0,0,0,25.93,27H24.66a9.52,9.52,0,0,1-.45-1.59c-.19-.88-.51-1.16-1.21-1.18h-.62V27H21.16Zm1.22,3h.73c.83,0,1.35-.44,1.35-1.11s-.52-1.08-1.32-1.08a3.54,3.54,0,0,0-.76.06Z"/><path class="cls-3" d="M27.84,24.94a1.32,1.32,0,0,0,1.5,1.26A3.66,3.66,0,0,0,30.69,26l.18.85a4.59,4.59,0,0,1-1.7.3,2.3,2.3,0,0,1-2.51-2.46A2.41,2.41,0,0,1,29,22.05a2.12,2.12,0,0,1,2.1,2.37,3,3,0,0,1,0,.52ZM30,24.08a1,1,0,0,0-1-1.19,1.2,1.2,0,0,0-1.13,1.19Z"/><path class="cls-3" d="M36.76,19.94v5.72c0,.5,0,1,0,1.37H35.7l-.05-.77h0a1.75,1.75,0,0,1-1.59.88A2.23,2.23,0,0,1,32,24.65a2.32,2.32,0,0,1,2.18-2.6,1.55,1.55,0,0,1,1.37.64h0V19.94Zm-1.23,4.25a1.73,1.73,0,0,0,0-.32A1.08,1.08,0,0,0,34.44,23c-.79,0-1.23.7-1.23,1.61s.44,1.54,1.22,1.54a1.08,1.08,0,0,0,1.06-.87,1.37,1.37,0,0,0,0-.36Z"/><path class="cls-3" d="M40.6,20.29h1.23V26H44.6v1h-4Z"/><path class="cls-3" d="M46.93,20.8a.69.69,0,1,1-.69-.66A.65.65,0,0,1,46.93,20.8ZM45.62,27V22.16h1.24V27Z"/><path class="cls-3" d="M52.77,22.16c0,.33,0,.73,0,1.4v2.76A2.82,2.82,0,0,1,52,28.53a2.8,2.8,0,0,1-1.88.59,3.45,3.45,0,0,1-1.7-.39l.27-.93a2.94,2.94,0,0,0,1.42.37,1.29,1.29,0,0,0,1.4-1.47v-.42h0a1.64,1.64,0,0,1-1.42.72A2.16,2.16,0,0,1,48,24.62a2.33,2.33,0,0,1,2.21-2.57,1.53,1.53,0,0,1,1.41.76h0l.05-.65ZM51.5,24.11a1.19,1.19,0,0,0,0-.33,1,1,0,0,0-1-.79c-.69,0-1.2.6-1.2,1.59,0,.83.42,1.5,1.19,1.5a1.05,1.05,0,0,0,1-.74,2.12,2.12,0,0,0,0-.44Z"/><path class="cls-3" d="M54.19,19.94h1.24v2.89h0a1.65,1.65,0,0,1,.61-.56,1.67,1.67,0,0,1,.84-.22c.83,0,1.7.55,1.7,2.11V27H57.37V24.3c0-.71-.26-1.24-.94-1.24a1,1,0,0,0-1,.69,1,1,0,0,0,0,.37V27H54.19Z"/><path class="cls-3" d="M61.41,20.77v1.39h1.17v.92H61.41v2.15c0,.59.16.9.63.9a1.82,1.82,0,0,0,.48-.06l0,.94a2.7,2.7,0,0,1-.89.12,1.42,1.42,0,0,1-1.06-.4,1.94,1.94,0,0,1-.38-1.36V23.08h-.7v-.92h.7v-1.1Z"/><path class="cls-3" d="M67.28,20.8a.69.69,0,1,1-.69-.66A.65.65,0,0,1,67.28,20.8ZM66,27V22.16h1.24V27Z"/><path class="cls-3" d="M68.67,23.61c0-.56,0-1,0-1.45h1.08l.06.73h0a1.76,1.76,0,0,1,1.55-.84c.85,0,1.73.55,1.73,2.09V27H71.85V24.28c0-.7-.26-1.23-.93-1.23a1,1,0,0,0-1,.72,1.25,1.25,0,0,0,0,.4V27H68.67Z"/><path class="cls-3" d="M76.87,25.69a3.41,3.41,0,0,0,1.63.43c.79,0,1.23-.37,1.23-.92s-.34-.81-1.2-1.12c-1.11-.4-1.82-1-1.82-2s.92-1.93,2.38-1.93a3.58,3.58,0,0,1,1.62.33l-.3,1a2.85,2.85,0,0,0-1.34-.32c-.78,0-1.12.42-1.12.81s.39.76,1.29,1.11c1.17.44,1.74,1,1.74,2s-.82,2-2.56,2a4,4,0,0,1-1.82-.42Z"/><path class="cls-3" d="M83.11,24.94a1.32,1.32,0,0,0,1.5,1.26A3.66,3.66,0,0,0,86,26l.18.85a4.59,4.59,0,0,1-1.7.3,2.3,2.3,0,0,1-2.51-2.46,2.41,2.41,0,0,1,2.38-2.62,2.12,2.12,0,0,1,2.1,2.37,3,3,0,0,1,0,.52Zm2.14-.86a1,1,0,0,0-1-1.19,1.2,1.2,0,0,0-1.13,1.19Z"/><path class="cls-3" d="M90.8,26.36h0a1.69,1.69,0,0,1-1.51.78,2.21,2.21,0,0,1-2-2.47,2.33,2.33,0,0,1,2.18-2.62,1.53,1.53,0,0,1,1.42.75h0l0-.65h1.19c0,.44,0,.9,0,1.41V29H90.8Zm0-2.19a1.45,1.45,0,0,0,0-.3,1.08,1.08,0,0,0-1-.85c-.79,0-1.24.67-1.24,1.59s.43,1.56,1.21,1.56a1.08,1.08,0,0,0,1-.81A1.26,1.26,0,0,0,90.8,25Z"/><path class="cls-3" d="M97.85,25.57c0,.58,0,1.06,0,1.46H96.81l-.06-.74h0a1.76,1.76,0,0,1-1.56.85c-.89,0-1.7-.53-1.7-2.12V22.16H94.7v2.65c0,.81.26,1.33.91,1.33a1,1,0,0,0,.94-.66,1.12,1.12,0,0,0,.07-.38V22.16h1.23Z"/><path class="cls-3" d="M100.19,24.94a1.32,1.32,0,0,0,1.5,1.26A3.66,3.66,0,0,0,103,26l.18.85a4.59,4.59,0,0,1-1.7.3A2.3,2.3,0,0,1,99,24.67a2.41,2.41,0,0,1,2.38-2.62,2.12,2.12,0,0,1,2.1,2.37,3,3,0,0,1,0,.52Zm2.14-.86a1,1,0,0,0-1-1.19,1.2,1.2,0,0,0-1.13,1.19Z"/><path class="cls-3" d="M104.62,23.61c0-.56,0-1,0-1.45h1.08l.06.73h0a1.76,1.76,0,0,1,1.55-.84c.85,0,1.73.55,1.73,2.09V27H107.8V24.28c0-.7-.26-1.23-.93-1.23a1,1,0,0,0-1,.72,1.25,1.25,0,0,0,0,.4V27h-1.24Z"/><path class="cls-3" d="M114.06,26.88a3.56,3.56,0,0,1-1.38.25,2.34,2.34,0,0,1-2.51-2.48,2.52,2.52,0,0,1,2.71-2.6,3.07,3.07,0,0,1,1.19.23l-.22.92a2.17,2.17,0,0,0-.93-.19,1.45,1.45,0,0,0-1.49,1.58,1.44,1.44,0,0,0,1.49,1.57,2.41,2.41,0,0,0,1-.19Z"/><path class="cls-3" d="M115.89,24.94a1.32,1.32,0,0,0,1.5,1.26,3.66,3.66,0,0,0,1.35-.22l.18.85a4.59,4.59,0,0,1-1.7.3,2.3,2.3,0,0,1-2.51-2.46,2.41,2.41,0,0,1,2.38-2.62,2.12,2.12,0,0,1,2.1,2.37,3,3,0,0,1,0,.52Zm2.14-.86a1,1,0,0,0-1-1.19,1.2,1.2,0,0,0-1.13,1.19Z"/><path class="cls-3" d="M10.16,47.32a3,3,0,0,0,1.47.39c.71,0,1.11-.33,1.11-.83s-.31-.73-1.08-1c-1-.36-1.64-.9-1.64-1.77s.83-1.75,2.14-1.75a3.24,3.24,0,0,1,1.46.31l-.27.89a2.55,2.55,0,0,0-1.21-.29c-.7,0-1,.38-1,.73s.36.69,1.17,1c1,.4,1.56.93,1.56,1.8s-.74,1.82-2.3,1.82a3.57,3.57,0,0,1-1.64-.38Z"/><path class="cls-3" d="M18.56,45.84H16.27v1.78h2.56v.91H15.17V42.46h3.52v.91H16.27v1.57h2.29Z"/><path class="cls-3" d="M25.22,49.5a22.69,22.69,0,0,1-2.37-.78,1.83,1.83,0,0,0-.39-.09,2.81,2.81,0,0,1-2.66-3.08,2.91,2.91,0,0,1,2.9-3.19,2.8,2.8,0,0,1,2.8,3.07,2.83,2.83,0,0,1-1.57,2.8v0c.53.15,1.11.27,1.61.37Zm-.89-4c0-1.16-.57-2.22-1.67-2.22S21,44.31,21,45.52s.61,2.22,1.68,2.22S24.33,46.75,24.33,45.48Z"/><path class="cls-3" d="M27.86,42.46V46c0,1.19.49,1.74,1.24,1.74s1.28-.55,1.28-1.74V42.46h1.1v3.47c0,1.87-1,2.7-2.42,2.7s-2.31-.78-2.31-2.69V42.46Z"/><path class="cls-3" d="M36.45,45.84H34.17v1.78h2.55v.91H33.06V42.46h3.53v.91H34.17v1.57h2.28Z"/><path class="cls-3" d="M38,48.53V42.46h1.26l1.57,2.61a16.87,16.87,0,0,1,1,2h0c-.07-.81-.1-1.59-.1-2.52V42.46h1v6.07H41.66l-1.58-2.66A22.1,22.1,0,0,1,39,43.77h0c0,.78.06,1.58.06,2.58v2.17Z"/><path class="cls-3" d="M48.74,48.35a3.76,3.76,0,0,1-1.57.27,2.86,2.86,0,0,1-3.1-3,3.06,3.06,0,0,1,3.25-3.21,3.58,3.58,0,0,1,1.47.27l-.24.89a2.9,2.9,0,0,0-1.19-.24,2,2,0,0,0-2.12,2.24,2,2,0,0,0,2.11,2.18,3.23,3.23,0,0,0,1.21-.22Z"/><path class="cls-3" d="M53.38,45.84H51.09v1.78h2.56v.91H50V42.46h3.53v.91H51.09v1.57h2.29Z"/><path class="cls-3" d="M62.39,45.43a2.87,2.87,0,0,1-2.91,3.2,2.81,2.81,0,0,1-2.79-3.09,2.91,2.91,0,0,1,2.88-3.18A2.8,2.8,0,0,1,62.39,45.43Zm-4.53.09c0,1.24.62,2.22,1.69,2.22s1.67-1,1.67-2.26-.57-2.22-1.67-2.22S57.86,44.27,57.86,45.52Z"/><path class="cls-3" d="M63.69,42.46h3.5v.91h-2.4v1.68H67V46H64.79v2.57h-1.1Z"/><path class="cls-3" d="M184.18,47.33a3.06,3.06,0,0,0,1.44.38c.69,0,1.08-.33,1.08-.83s-.3-.73-1.06-1c-1-.36-1.6-.9-1.6-1.77a1.85,1.85,0,0,1,2.09-1.75,3.1,3.1,0,0,1,1.43.31l-.27.89a2.4,2.4,0,0,0-1.17-.29c-.69,0-1,.38-1,.73s.35.69,1.14,1c1,.4,1.53.93,1.53,1.8s-.72,1.82-2.25,1.82a3.39,3.39,0,0,1-1.6-.38Z"/><path class="cls-3" d="M189.84,42.46V46c0,1.19.49,1.74,1.22,1.74s1.24-.55,1.24-1.74V42.46h1.09v3.47c0,1.87-.94,2.7-2.37,2.7s-2.26-.78-2.26-2.69V42.46Z"/><path class="cls-3" d="M194.62,42.54a9.23,9.23,0,0,1,1.58-.12,2.71,2.71,0,0,1,1.69.39,1.28,1.28,0,0,1,.62,1.13,1.39,1.39,0,0,1-1,1.31v0a1.52,1.52,0,0,1,1.2,1.51,1.6,1.6,0,0,1-.57,1.25,3.24,3.24,0,0,1-2.2.56,9.7,9.7,0,0,1-1.33-.08Zm1.08,2.4h.55c.75,0,1.17-.36,1.17-.87s-.42-.83-1.11-.83a3.55,3.55,0,0,0-.61,0Zm0,2.79a4.14,4.14,0,0,0,.57,0c.69,0,1.31-.27,1.31-1s-.6-1-1.35-1h-.53Z"/><path class="cls-3" d="M199.66,47.33a3,3,0,0,0,1.43.38c.7,0,1.08-.33,1.08-.83s-.3-.73-1-1c-1-.36-1.6-.9-1.6-1.77a1.85,1.85,0,0,1,2.09-1.75,3,3,0,0,1,1.42.31l-.26.89a2.41,2.41,0,0,0-1.18-.29c-.68,0-1,.38-1,.73s.34.69,1.13,1c1,.4,1.53.93,1.53,1.8s-.72,1.82-2.25,1.82a3.46,3.46,0,0,1-1.6-.38Z"/><path class="cls-3" d="M205.38,43.39h-1.69v-.93h4.48v.93h-1.71v5.14h-1.08Z"/><path class="cls-3" d="M208.86,42.54a10.32,10.32,0,0,1,1.64-.12,2.68,2.68,0,0,1,1.82.48,1.55,1.55,0,0,1,.51,1.22,1.62,1.62,0,0,1-1.07,1.52v0a1.54,1.54,0,0,1,.83,1.17,12.38,12.38,0,0,0,.46,1.69h-1.11a8.5,8.5,0,0,1-.4-1.43c-.17-.79-.45-1-1.06-1.06h-.55v2.49h-1.07Zm1.07,2.69h.64c.73,0,1.19-.4,1.19-1s-.46-1-1.16-1a3,3,0,0,0-.67.05Z"/><path class="cls-3" d="M215.05,46.81l-.51,1.72h-1.12l1.9-6.07h1.38l1.93,6.07h-1.17l-.53-1.72Zm1.69-.84-.46-1.49c-.12-.37-.21-.78-.3-1.13h0c-.09.35-.17.77-.28,1.13L215.22,46Z"/><path class="cls-3" d="M220.58,43.39H218.9v-.93h4.47v.93h-1.7v5.14h-1.09Z"/><path class="cls-3" d="M227.38,45.84h-2.24v1.78h2.5v.91h-3.58V42.46h3.45v.91h-2.37v1.57h2.24Z"/><path class="cls-3" d="M230.47,45.75v.76h-2.24v-.76Z"/><path class="cls-3" d="M231.36,42.46h1.08V47.6h2.43v.93h-3.51Z"/><path class="cls-3" d="M239,45.84h-2.23v1.78h2.5v.91h-3.58V42.46h3.45v.91h-2.37v1.57H239Z"/><path class="cls-3" d="M241.57,48.53l-1.92-6.07h1.18l.81,2.76c.23.76.42,1.47.58,2.21h0c.16-.72.37-1.46.6-2.19l.87-2.78h1.15l-2.05,6.07Z"/><path class="cls-3" d="M248.81,45.84h-2.23v1.78h2.5v.91H245.5V42.46h3.44v.91h-2.36v1.57h2.23Z"/><path class="cls-3" d="M250,42.46h1.09V47.6h2.43v.93H250Z"/><path class="cls-3" d="M10.18,55h1.11V60.1h2.49V61h-3.6Z"/><path class="cls-3" d="M16,55V61H14.92V55Z"/><path class="cls-3" d="M22.47,60.75a5.88,5.88,0,0,1-2,.35,3.29,3.29,0,0,1-2.37-.81,3,3,0,0,1-.85-2.24,3.08,3.08,0,0,1,3.38-3.15,4,4,0,0,1,1.61.29l-.25.89a3.28,3.28,0,0,0-1.37-.26A2,2,0,0,0,18.45,58a2,2,0,0,0,2.11,2.19,2.25,2.25,0,0,0,.84-.12V58.56H20.32v-.88h2.15Z"/><path class="cls-3" d="M25,55V57.4h2.57V55h1.1V61h-1.1V58.36H25V61H23.91V55Z"/><path class="cls-3" d="M31.43,55.89H29.7V55h4.58v.93H32.54V61H31.43Z"/><path class="cls-3" d="M40.79,58.34H38.5v1.78h2.56V61H37.4V55h3.52v.91H38.5v1.57h2.29Z"/><path class="cls-3" d="M45.59,61l-.66-1.2c-.26-.47-.43-.8-.6-1.15h0c-.14.35-.31.68-.55,1.15l-.6,1.2H41.88L43.68,58,42,55h1.27l.66,1.26c.2.37.34.67.5,1h0c.16-.38.29-.65.48-1L45.52,55h1.27l-1.77,3L46.87,61Z"/><path class="cls-3" d="M48,55.05a8.87,8.87,0,0,1,1.69-.13,2.75,2.75,0,0,1,1.79.49,1.74,1.74,0,0,1,.6,1.35,1.83,1.83,0,0,1-.52,1.37,2.71,2.71,0,0,1-1.92.65,4.06,4.06,0,0,1-.54,0V61H48Zm1.1,2.82a2,2,0,0,0,.54.05c.83,0,1.33-.41,1.33-1.12s-.47-1-1.23-1a2.93,2.93,0,0,0-.64,0Z"/><path class="cls-3" d="M58.71,57.94a2.86,2.86,0,0,1-2.91,3.19A2.8,2.8,0,0,1,53,58a2.9,2.9,0,0,1,2.88-3.17A2.8,2.8,0,0,1,58.71,57.94ZM54.18,58c0,1.23.62,2.21,1.69,2.21s1.67-1,1.67-2.26-.57-2.22-1.67-2.22S54.18,56.77,54.18,58Z"/><path class="cls-3" d="M60,59.83a3.15,3.15,0,0,0,1.47.38c.71,0,1.1-.33,1.1-.83s-.3-.72-1.08-1c-1-.36-1.63-.89-1.63-1.77s.82-1.74,2.14-1.74a3.26,3.26,0,0,1,1.46.3l-.27.89a2.68,2.68,0,0,0-1.21-.29c-.7,0-1,.38-1,.73s.35.69,1.16,1c1.06.4,1.57.93,1.57,1.8s-.74,1.82-2.3,1.82a3.57,3.57,0,0,1-1.64-.38Z"/><path class="cls-3" d="M66.05,55V58.5c0,1.19.5,1.74,1.24,1.74s1.28-.55,1.28-1.74V55h1.11v3.47c0,1.87-1,2.7-2.42,2.7s-2.32-.78-2.32-2.69V55Z"/><path class="cls-3" d="M71.25,55.05a9.71,9.71,0,0,1,1.68-.13,2.76,2.76,0,0,1,1.87.49,1.52,1.52,0,0,1,.52,1.21,1.61,1.61,0,0,1-1.1,1.52v0a1.51,1.51,0,0,1,.85,1.17A11.24,11.24,0,0,0,75.55,61H74.4A8.5,8.5,0,0,1,74,59.6c-.17-.79-.46-1-1.09-1.06h-.56V61h-1.1Zm1.1,2.68H73c.75,0,1.21-.4,1.21-1s-.46-1-1.18-1a3.1,3.1,0,0,0-.69.05Z"/><path class="cls-3" d="M80.07,58.34H77.79v1.78h2.55V61H76.68V55h3.53v.91H77.79v1.57h2.28Z"/><path class="cls-3" d="M187.93,60.75a5.81,5.81,0,0,1-2,.35,3.32,3.32,0,0,1-2.38-.81,3.22,3.22,0,0,1,2.53-5.39,3.92,3.92,0,0,1,1.61.29l-.24.89a3.33,3.33,0,0,0-1.38-.26,2,2,0,0,0-2.2,2.18,2,2,0,0,0,2.1,2.19,2.18,2.18,0,0,0,.84-.12V58.56h-1.07v-.88h2.14Z"/><path class="cls-3" d="M192.76,58.34h-2.28v1.78H193V61h-3.66V55h3.53v.91h-2.42v1.57h2.28Z"/><path class="cls-3" d="M194.31,55.05a9.71,9.71,0,0,1,1.68-.13,2.77,2.77,0,0,1,1.87.49,1.52,1.52,0,0,1,.52,1.21,1.61,1.61,0,0,1-1.1,1.52v0a1.53,1.53,0,0,1,.85,1.17,11.24,11.24,0,0,0,.48,1.69h-1.15a8.5,8.5,0,0,1-.4-1.43c-.17-.79-.46-1-1.09-1.06h-.56V61h-1.1Zm1.1,2.68h.66c.74,0,1.21-.4,1.21-1s-.47-1-1.19-1a3,3,0,0,0-.68.05Z"/><path class="cls-3" d="M204.87,58.56c0-.79-.08-1.73-.07-2.55h0c-.2.74-.45,1.56-.72,2.32L203.17,61h-.86l-.81-2.59c-.23-.78-.45-1.6-.61-2.36h0c0,.79-.06,1.75-.11,2.58L200.63,61h-1L200,55h1.46l.79,2.44c.22.72.4,1.44.56,2.11h0c.17-.66.37-1.4.61-2.11l.84-2.44h1.44l.35,6.07H205Z"/><path class="cls-3" d="M208.6,55V61h-1.1V55Z"/><path class="cls-3" d="M210.18,61V55h1.26L213,57.57a15.62,15.62,0,0,1,1,2h0c-.07-.81-.1-1.59-.1-2.52V55h1V61h-1.14l-1.58-2.66a20,20,0,0,1-1.09-2.1h0c.05.78.05,1.58.05,2.58V61Z"/><path class="cls-3" d="M217.79,59.31,217.27,61h-1.14L218.07,55h1.41l2,6.07h-1.19l-.55-1.72Zm1.74-.83-.48-1.5c-.11-.37-.21-.78-.3-1.13h0c-.09.35-.18.77-.29,1.13l-.47,1.5Z"/><path class="cls-3" d="M223.05,55.89h-1.73V55h4.58v.93h-1.74V61h-1.11Z"/><path class="cls-3" d="M228,55V61h-1.11V55Zm7,3a2.87,2.87,0,0,1-2.9,3.19,2.81,2.81,0,0,1-2.8-3.09,2.91,2.91,0,0,1,2.89-3.18A2.81,2.81,0,0,1,235,57.94Zm-4.53.08c0,1.24.62,2.22,1.68,2.22s1.68-1,1.68-2.27-.57-2.22-1.68-2.22S230.46,56.77,230.46,58Zm5.78,3V55h1.27l1.57,2.61a18.47,18.47,0,0,1,1,2h0a25,25,0,0,1-.1-2.52V55h1V61h-1.15l-1.59-2.67a21.83,21.83,0,0,1-1.08-2.09h0c.05.78.07,1.58.07,2.58V61Zm10.31-6.58a7.1,7.1,0,0,0,0,7.3h-.8a6.06,6.06,0,0,1-1.1-3.63,6.2,6.2,0,0,1,1.1-3.67Zm3.74,2.37c0,1.23-.72,1.86-1.52,1.86a1.56,1.56,0,0,1-1.5-1.76,1.63,1.63,0,0,1,1.55-1.84C249.73,55.08,250.29,55.77,250.29,56.82Zm-2.17.06c0,.68.24,1.18.67,1.18s.65-.48.65-1.19-.18-1.17-.66-1.17S248.12,56.22,248.12,56.88Zm.66,4.25,3.39-6.05h.64l-3.4,6.05Zm5.55-1.88c0,1.22-.72,1.85-1.53,1.85s-1.48-.63-1.49-1.76a1.62,1.62,0,0,1,1.55-1.83C253.77,57.51,254.33,58.2,254.33,59.25Zm-2.18.06c0,.67.24,1.17.68,1.17s.66-.46.66-1.18-.18-1.17-.67-1.17S252.15,58.66,252.15,59.31Zm2.91,2.44a7.16,7.16,0,0,0,0-7.3h.8A6,6,0,0,1,257,58.1a6.11,6.11,0,0,1-1.09,3.65Z"/><path class="cls-3" d="M10.11,87.88a7.38,7.38,0,0,1,1.42-.12,2.28,2.28,0,0,1,1.65.47,1.41,1.41,0,0,1,.45,1.09,1.51,1.51,0,0,1-1.08,1.46v0A1.44,1.44,0,0,1,13.4,92a8.37,8.37,0,0,0,.44,1.57h-.77a7.5,7.5,0,0,1-.38-1.37c-.17-.79-.48-1.08-1.15-1.11h-.69v2.48h-.74Zm.74,2.61h.75c.79,0,1.29-.43,1.29-1.09s-.53-1.06-1.31-1.07a2.65,2.65,0,0,0-.73.07Z"/><path class="cls-3" d="M15.22,91.61A1.32,1.32,0,0,0,16.63,93a2.85,2.85,0,0,0,1.14-.21l.13.53a3.27,3.27,0,0,1-1.37.26,1.91,1.91,0,0,1-2-2.08,2,2,0,0,1,1.93-2.22,1.75,1.75,0,0,1,1.7,1.94,2.38,2.38,0,0,1,0,.35Zm2.2-.53a1.08,1.08,0,0,0-1-1.22,1.24,1.24,0,0,0-1.15,1.22Z"/><path class="cls-3" d="M22.75,87.5v5c0,.36,0,.78,0,1.06h-.67l0-.71h0a1.52,1.52,0,0,1-1.41.8,1.87,1.87,0,0,1-1.75-2.09,2,2,0,0,1,1.84-2.21A1.38,1.38,0,0,1,22,90h0V87.5ZM22,91.09a1.18,1.18,0,0,0-1.12-1.18c-.77,0-1.23.68-1.23,1.59S20.06,93,20.87,93A1.2,1.2,0,0,0,22,91.81Z"/><path class="cls-3" d="M10.11,71.88a10.24,10.24,0,0,1,1.57-.12,3.32,3.32,0,0,1,2.32.71,2.65,2.65,0,0,1,.81,2.06A3,3,0,0,1,14,76.76a3.54,3.54,0,0,1-2.53.82,10.23,10.23,0,0,1-1.34-.07Zm.74,5.06a3.84,3.84,0,0,0,.74,0A2.21,2.21,0,0,0,14,74.56a2,2,0,0,0-2.32-2.21,4.38,4.38,0,0,0-.86.07Z"/><path class="cls-3" d="M18.17,77.53,18.11,77h0a1.51,1.51,0,0,1-1.26.61,1.17,1.17,0,0,1-1.26-1.18c0-1,.89-1.54,2.47-1.53v-.08a.84.84,0,0,0-.93-1,2.12,2.12,0,0,0-1.07.3l-.17-.49a2.55,2.55,0,0,1,1.35-.37c1.26,0,1.56.86,1.56,1.69v1.54a5.86,5.86,0,0,0,.07,1Zm-.11-2.1c-.81,0-1.74.13-1.74.93a.66.66,0,0,0,.7.71,1,1,0,0,0,1-.69.93.93,0,0,0,0-.23Z"/><path class="cls-3" d="M20.14,74.7c0-.48,0-.9,0-1.28h.65l0,.81h0A1.24,1.24,0,0,1,22,73.32a.62.62,0,0,1,.21,0v.71a.9.9,0,0,0-.25,0,1,1,0,0,0-1,1,1.78,1.78,0,0,0,0,.35v2.19h-.74Z"/><path class="cls-3" d="M23.82,75.3h0c.1-.14.25-.32.37-.46l1.21-1.42h.9l-1.59,1.69,1.81,2.42h-.91l-1.42-2-.38.42v1.55h-.74v-6h.74Z"/><path class="cls-3" d="M30.79,71.63a5.63,5.63,0,0,0-1.07,3.48,5.76,5.76,0,0,0,1.07,3.45h-.58a5.47,5.47,0,0,1-1.12-3.45,5.6,5.6,0,0,1,1.12-3.48Z"/><path class="cls-3" d="M34.67,77.38a2.8,2.8,0,0,1-1.18.24,2,2,0,0,1-2.05-2.1,2.09,2.09,0,0,1,2.21-2.19,2.59,2.59,0,0,1,1,.21l-.17.58a1.78,1.78,0,0,0-.87-.19,1.55,1.55,0,0,0,0,3.09,2.17,2.17,0,0,0,.92-.2Z"/><path class="cls-3" d="M39.42,75.44a2,2,0,0,1-2.05,2.18,2,2,0,0,1-2-2.11,2,2,0,0,1,2-2.19A2,2,0,0,1,39.42,75.44Zm-3.26,0c0,.9.52,1.58,1.25,1.58s1.25-.67,1.25-1.59c0-.7-.35-1.58-1.24-1.58S36.16,74.7,36.16,75.48Z"/><path class="cls-3" d="M40.52,74.53c0-.42,0-.77,0-1.11h.66l0,.68h0a1.51,1.51,0,0,1,1.36-.78c.57,0,1.45.34,1.45,1.76v2.45h-.75V75.16c0-.66-.24-1.22-1-1.22a1.06,1.06,0,0,0-1,.77.92.92,0,0,0,0,.35v2.47h-.75Z"/><path class="cls-3" d="M46.29,72.24v1.18h1.07V74H46.29v2.22c0,.51.14.79.56.79a1.43,1.43,0,0,0,.43,0l0,.56a1.84,1.84,0,0,1-.66.11,1,1,0,0,1-.81-.32,1.52,1.52,0,0,1-.29-1.07V74h-.64v-.57h.64v-1Z"/><path class="cls-3" d="M48.36,74.7c0-.48,0-.9,0-1.28H49l0,.81h0a1.22,1.22,0,0,1,1.13-.91.73.73,0,0,1,.22,0v.71a1,1,0,0,0-.26,0,1.05,1.05,0,0,0-1,1,1.83,1.83,0,0,0,0,.35v2.19h-.74Z"/><path class="cls-3" d="M55,75.44a2,2,0,0,1-2,2.18,2,2,0,0,1-2-2.11,2,2,0,0,1,2-2.19A2,2,0,0,1,55,75.44Zm-3.26,0c0,.9.51,1.58,1.25,1.58s1.25-.67,1.25-1.59c0-.7-.35-1.58-1.24-1.58S51.75,74.7,51.75,75.48Z"/><path class="cls-3" d="M56.11,71.5h.75v6h-.75Z"/><path class="cls-3" d="M57.82,78.56a5.78,5.78,0,0,0,1.07-3.48,5.64,5.64,0,0,0-1.07-3.45h.57a5.4,5.4,0,0,1,1.12,3.46,5.47,5.47,0,0,1-1.12,3.47Z"/><path class="cls-3" d="M219.88,77.13a1.58,1.58,0,0,1,1.1-1.48v0a1.35,1.35,0,0,1-.87-1.24,1.55,1.55,0,0,1,1.7-1.47,1.42,1.42,0,0,1,1.61,1.36,1.4,1.4,0,0,1-.91,1.29v0A1.54,1.54,0,0,1,223.62,77a1.7,1.7,0,0,1-1.88,1.6C220.58,78.62,219.88,77.94,219.88,77.13Zm3,0c0-.67-.47-1-1.22-1.2a1.2,1.2,0,0,0-1,1.14,1.11,1.11,0,0,0,2.21.06Zm-2.06-2.76c0,.56.42.85,1.06,1a1.09,1.09,0,0,0,.84-1,.86.86,0,0,0-.94-.9A.88.88,0,0,0,220.8,74.33Z"/><path class="cls-3" d="M224.5,78.09a.5.5,0,0,1,.51-.54.54.54,0,1,1-.51.54Z"/><path class="cls-3" d="M229.62,73.64h-2.1l-.22,1.42a2.58,2.58,0,0,1,.45,0,2.27,2.27,0,0,1,1.19.3,1.55,1.55,0,0,1,.79,1.42,1.9,1.9,0,0,1-2,1.88,2.69,2.69,0,0,1-1.38-.34l.19-.56a2.55,2.55,0,0,0,1.18.3,1.22,1.22,0,0,0,1.31-1.2c0-.71-.49-1.22-1.59-1.22a5.12,5.12,0,0,0-.77.06L227,73h2.64Z"/><path class="cls-3" d="M10.11,102.38a7.38,7.38,0,0,1,1.42-.12,2.33,2.33,0,0,1,1.65.47,1.41,1.41,0,0,1,.45,1.09,1.51,1.51,0,0,1-1.08,1.46v0a1.44,1.44,0,0,1,.85,1.16,8.37,8.37,0,0,0,.44,1.57h-.77a7.5,7.5,0,0,1-.38-1.37c-.17-.79-.48-1.08-1.15-1.11h-.69V108h-.74Zm.74,2.61h.75c.79,0,1.29-.43,1.29-1.09s-.53-1.06-1.31-1.07a2.65,2.65,0,0,0-.73.07Z"/><path class="cls-3" d="M15.22,106.11a1.32,1.32,0,0,0,1.41,1.43,2.68,2.68,0,0,0,1.14-.21l.13.53a3.27,3.27,0,0,1-1.37.26,1.91,1.91,0,0,1-2-2.08,2,2,0,0,1,1.93-2.21,1.74,1.74,0,0,1,1.7,1.93,2.25,2.25,0,0,1,0,.35Zm2.2-.53a1.08,1.08,0,0,0-1-1.22,1.24,1.24,0,0,0-1.15,1.22Z"/><path class="cls-3" d="M22.75,102v5c0,.37,0,.78,0,1.06h-.67l0-.71h0a1.52,1.52,0,0,1-1.41.81A1.88,1.88,0,0,1,18.9,106a2,2,0,0,1,1.84-2.21,1.37,1.37,0,0,1,1.24.62h0V102ZM22,105.59a1.18,1.18,0,0,0-1.12-1.18c-.77,0-1.23.68-1.23,1.59s.41,1.52,1.22,1.52a1.11,1.11,0,0,0,1.09-.89,1.08,1.08,0,0,0,0-.32Z"/><path class="cls-3" d="M23.54,109.08a12.56,12.56,0,0,0,.5-2l.84-.09a10.64,10.64,0,0,1-.81,2.07Z"/><path class="cls-3" d="M28,108v-3.54h-.58v-.57H28v-.2a2,2,0,0,1,.47-1.43,1.42,1.42,0,0,1,1-.39,1.67,1.67,0,0,1,.63.12l-.1.58a1.12,1.12,0,0,0-.47-.09c-.64,0-.8.56-.8,1.19v.22h1v.57h-1V108Z"/><path class="cls-3" d="M32.81,108l-.06-.52h0a1.51,1.51,0,0,1-1.25.62,1.17,1.17,0,0,1-1.26-1.19c0-1,.88-1.53,2.47-1.53v-.08a.84.84,0,0,0-.93-1,2.13,2.13,0,0,0-1.08.3l-.17-.49a2.59,2.59,0,0,1,1.36-.36c1.25,0,1.56.85,1.56,1.68v1.54a5.86,5.86,0,0,0,.07,1Zm-.11-2.1c-.82,0-1.74.13-1.74.93a.66.66,0,0,0,.7.71,1,1,0,0,0,1-.69.93.93,0,0,0,0-.23Z"/><path class="cls-3" d="M34.75,105.2c0-.48,0-.9,0-1.28h.66l0,.81h0a1.21,1.21,0,0,1,1.13-.9.75.75,0,0,1,.22,0v.71a1,1,0,0,0-.26,0,1,1,0,0,0-1,1,1.78,1.78,0,0,0,0,.35V108h-.74Z"/><path class="cls-3" d="M39.35,105.46V106h-2.1v-.55Z"/><path class="cls-3" d="M40.35,105.2c0-.48,0-.9,0-1.28H41l0,.81h0a1.22,1.22,0,0,1,1.14-.9.71.71,0,0,1,.21,0v.71a1,1,0,0,0-.26,0,1.05,1.05,0,0,0-1,1,1.83,1.83,0,0,0,0,.35V108h-.74Z"/><path class="cls-3" d="M43.58,106.11A1.32,1.32,0,0,0,45,107.54a2.72,2.72,0,0,0,1.14-.21l.12.53a3.26,3.26,0,0,1-1.36.26,1.92,1.92,0,0,1-2-2.08,2,2,0,0,1,1.93-2.21,1.74,1.74,0,0,1,1.7,1.93,2.61,2.61,0,0,1,0,.35Zm2.19-.53a1.06,1.06,0,0,0-1-1.22,1.24,1.24,0,0,0-1.14,1.22Z"/><path class="cls-3" d="M51.1,102v5c0,.37,0,.78,0,1.06h-.67l0-.71h0a1.52,1.52,0,0,1-1.4.81A1.88,1.88,0,0,1,47.25,106a2,2,0,0,1,1.84-2.21,1.36,1.36,0,0,1,1.24.62h0V102Zm-.75,3.59a1.63,1.63,0,0,0,0-.31,1.1,1.1,0,0,0-1.08-.87c-.78,0-1.23.68-1.23,1.59s.4,1.52,1.21,1.52a1.13,1.13,0,0,0,1.1-.89,1.58,1.58,0,0,0,0-.32Z"/><path class="cls-3" d="M221.46,92.51a3.39,3.39,0,0,0,.6,0,2.06,2.06,0,0,0,1.15-.54,2.43,2.43,0,0,0,.74-1.47h0A1.66,1.66,0,0,1,221,89.38a1.89,1.89,0,0,1,1.89-2c1.12,0,1.82.92,1.82,2.33a3.52,3.52,0,0,1-.95,2.6,2.72,2.72,0,0,1-1.61.73,2.92,2.92,0,0,1-.68.05Zm.27-3.18a1.06,1.06,0,0,0,1.06,1.17,1.25,1.25,0,0,0,1.09-.58.51.51,0,0,0,.07-.27c0-.94-.35-1.67-1.13-1.67S221.73,88.54,221.73,89.33Z"/><path class="cls-3" d="M225.31,91.63a1.58,1.58,0,0,1,1.1-1.48v0a1.37,1.37,0,0,1-.87-1.25,1.55,1.55,0,0,1,1.71-1.47,1.38,1.38,0,0,1,.69,2.66v0a1.54,1.54,0,0,1,1.12,1.43,1.71,1.71,0,0,1-1.88,1.61C226,93.13,225.31,92.44,225.31,91.63Zm3,0c0-.68-.47-1-1.22-1.21a1.2,1.2,0,0,0-1,1.14,1,1,0,0,0,1.1,1A1,1,0,0,0,228.29,91.6Zm-2.06-2.77c0,.56.42.85,1.06,1a1.09,1.09,0,0,0,.84-1,.86.86,0,0,0-.94-.9A.88.88,0,0,0,226.23,88.83Z"/><path class="cls-3" d="M10.11,116.88a7.38,7.38,0,0,1,1.42-.12,2.33,2.33,0,0,1,1.65.47,1.42,1.42,0,0,1,.45,1.09,1.5,1.5,0,0,1-1.08,1.46v0A1.45,1.45,0,0,1,13.4,121a8.37,8.37,0,0,0,.44,1.57h-.77a7.57,7.57,0,0,1-.38-1.36c-.17-.79-.48-1.09-1.15-1.12h-.69v2.48h-.74Zm.74,2.61h.75c.79,0,1.29-.43,1.29-1.09s-.53-1.06-1.31-1.07a3.14,3.14,0,0,0-.73.07Z"/><path class="cls-3" d="M15.22,120.61A1.32,1.32,0,0,0,16.63,122a2.68,2.68,0,0,0,1.14-.21l.13.53a3.27,3.27,0,0,1-1.37.26,1.91,1.91,0,0,1-2-2.08,2,2,0,0,1,1.93-2.21,1.74,1.74,0,0,1,1.7,1.93,2.25,2.25,0,0,1,0,.35Zm2.2-.53a1.08,1.08,0,0,0-1-1.22,1.24,1.24,0,0,0-1.15,1.22Z"/><path class="cls-3" d="M22.75,116.5v5c0,.37,0,.78,0,1.06h-.67l0-.71h0a1.52,1.52,0,0,1-1.41.81,1.87,1.87,0,0,1-1.75-2.09,2,2,0,0,1,1.84-2.21A1.36,1.36,0,0,1,22,119h0V116.5ZM22,120.09a1.18,1.18,0,0,0-1.12-1.18c-.77,0-1.23.68-1.23,1.59s.41,1.52,1.22,1.52a1.11,1.11,0,0,0,1.09-.89,1.08,1.08,0,0,0,0-.32Z"/><path class="cls-3" d="M23.54,123.58a12.56,12.56,0,0,0,.5-2l.84-.09a10.64,10.64,0,0,1-.81,2.07Z"/><path class="cls-3" d="M28,122.53V119h-.58v-.57H28v-.2a2,2,0,0,1,.47-1.43,1.45,1.45,0,0,1,1-.38,1.7,1.7,0,0,1,.63.11l-.1.58a1.12,1.12,0,0,0-.47-.09c-.64,0-.8.56-.8,1.19v.22h1V119h-1v3.54Z"/><path class="cls-3" d="M32.81,122.53l-.06-.52h0a1.51,1.51,0,0,1-1.25.62,1.17,1.17,0,0,1-1.26-1.18c0-1,.88-1.54,2.47-1.53v-.09a.84.84,0,0,0-.93-1,2.13,2.13,0,0,0-1.08.3l-.17-.49a2.59,2.59,0,0,1,1.36-.36c1.25,0,1.56.85,1.56,1.68v1.54a5.86,5.86,0,0,0,.07,1Zm-.11-2.1c-.82,0-1.74.13-1.74.93a.66.66,0,0,0,.7.71,1,1,0,0,0,1-.68,1.09,1.09,0,0,0,0-.24Z"/><path class="cls-3" d="M34.75,119.7c0-.48,0-.9,0-1.28h.66l0,.81h0a1.21,1.21,0,0,1,1.13-.9.75.75,0,0,1,.22,0v.71a1,1,0,0,0-.26,0,1,1,0,0,0-1,1,1.78,1.78,0,0,0,0,.35v2.19h-.74Z"/><path class="cls-3" d="M39.35,120v.55h-2.1V120Z"/><path class="cls-3" d="M40.35,119.7c0-.48,0-.9,0-1.28H41l0,.81h0a1.22,1.22,0,0,1,1.14-.9.71.71,0,0,1,.21,0v.71a1,1,0,0,0-.26,0,1.05,1.05,0,0,0-1,1,1.83,1.83,0,0,0,0,.35v2.19h-.74Z"/><path class="cls-3" d="M43.58,120.61A1.32,1.32,0,0,0,45,122a2.72,2.72,0,0,0,1.14-.21l.12.53a3.26,3.26,0,0,1-1.36.26,1.91,1.91,0,0,1-2-2.08,2,2,0,0,1,1.93-2.21,1.74,1.74,0,0,1,1.7,1.93,2.61,2.61,0,0,1,0,.35Zm2.19-.53a1.06,1.06,0,0,0-1-1.22,1.24,1.24,0,0,0-1.14,1.22Z"/><path class="cls-3" d="M51.1,116.5v5c0,.37,0,.78,0,1.06h-.67l0-.71h0a1.52,1.52,0,0,1-1.4.81,1.87,1.87,0,0,1-1.76-2.09,2,2,0,0,1,1.84-2.21,1.35,1.35,0,0,1,1.24.63h0V116.5Zm-.75,3.59a1.63,1.63,0,0,0,0-.31,1.1,1.1,0,0,0-1.08-.87c-.78,0-1.23.68-1.23,1.59s.4,1.52,1.21,1.52a1.13,1.13,0,0,0,1.1-.89,1.58,1.58,0,0,0,0-.32Z"/><path class="cls-3" d="M51.89,123.58a11.58,11.58,0,0,0,.51-2l.83-.09a10.68,10.68,0,0,1-.8,2.07Z"/><path class="cls-3" d="M56.28,119.7c0-.48,0-.9,0-1.28h.66l0,.81h0a1.21,1.21,0,0,1,1.14-.9.71.71,0,0,1,.21,0v.71a1,1,0,0,0-.26,0,1.05,1.05,0,0,0-1,1,1.83,1.83,0,0,0,0,.35v2.19h-.74Z"/><path class="cls-3" d="M59.51,120.61A1.32,1.32,0,0,0,60.92,122a2.72,2.72,0,0,0,1.14-.21l.12.53a3.26,3.26,0,0,1-1.36.26,1.91,1.91,0,0,1-2-2.08,2,2,0,0,1,1.93-2.21,1.74,1.74,0,0,1,1.7,1.93,2.61,2.61,0,0,1,0,.35Zm2.19-.53a1.07,1.07,0,0,0-1-1.22,1.25,1.25,0,0,0-1.15,1.22Z"/><path class="cls-3" d="M67,116.5v5c0,.37,0,.78,0,1.06h-.67l0-.71h0a1.52,1.52,0,0,1-1.4.81,1.87,1.87,0,0,1-1.76-2.09A2,2,0,0,1,65,118.33a1.35,1.35,0,0,1,1.24.63h0V116.5Zm-.75,3.59a1.63,1.63,0,0,0,0-.31,1.1,1.1,0,0,0-1.08-.87c-.78,0-1.24.68-1.24,1.59s.41,1.52,1.22,1.52a1.13,1.13,0,0,0,1.1-.89,1.58,1.58,0,0,0,0-.32Z"/><path class="cls-3" d="M224.19,102.64h-2.11l-.21,1.42a2.58,2.58,0,0,1,.45,0,2.36,2.36,0,0,1,1.19.3,1.56,1.56,0,0,1,.79,1.42,1.91,1.91,0,0,1-2.05,1.89,2.69,2.69,0,0,1-1.38-.34l.19-.57a2.55,2.55,0,0,0,1.18.3,1.22,1.22,0,0,0,1.31-1.2c0-.71-.49-1.22-1.59-1.22a5.12,5.12,0,0,0-.77.06l.36-2.65h2.64Z"/><path class="cls-3" d="M227.7,107.53V106h-2.57v-.49l2.46-3.53h.81v3.43h.77V106h-.77v1.5Zm0-2.09V103.6c0-.29,0-.58,0-.87h0c-.17.32-.31.56-.46.82l-1.36,1.88h1.82Z"/><path class="cls-3" d="M10.11,131.38a8.28,8.28,0,0,1,1.42-.12,2.33,2.33,0,0,1,1.65.47,1.44,1.44,0,0,1,.45,1.09,1.49,1.49,0,0,1-1.08,1.46v0a1.42,1.42,0,0,1,.85,1.15,8.37,8.37,0,0,0,.44,1.57h-.77a7.57,7.57,0,0,1-.38-1.36c-.17-.79-.48-1.09-1.15-1.12h-.69V137h-.74Zm.74,2.61h.75c.79,0,1.29-.43,1.29-1.09s-.53-1.06-1.31-1.07a3.14,3.14,0,0,0-.73.07Z"/><path class="cls-3" d="M15.22,135.11a1.32,1.32,0,0,0,1.41,1.43,2.68,2.68,0,0,0,1.14-.21l.13.53a3.27,3.27,0,0,1-1.37.26,1.91,1.91,0,0,1-2-2.08,2,2,0,0,1,1.93-2.21,1.74,1.74,0,0,1,1.7,1.94,2.22,2.22,0,0,1,0,.34Zm2.2-.53a1.08,1.08,0,0,0-1-1.22,1.24,1.24,0,0,0-1.15,1.22Z"/><path class="cls-3" d="M22.75,131v5c0,.37,0,.78,0,1.06h-.67l0-.71h0a1.52,1.52,0,0,1-1.41.81A1.87,1.87,0,0,1,18.9,135a2,2,0,0,1,1.84-2.21,1.38,1.38,0,0,1,1.24.63h0V131ZM22,134.59a1.18,1.18,0,0,0-1.12-1.18c-.77,0-1.23.68-1.23,1.59s.41,1.52,1.22,1.52a1.11,1.11,0,0,0,1.09-.89,1.08,1.08,0,0,0,0-.32Z"/><path class="cls-3" d="M23.54,138.08a12.56,12.56,0,0,0,.5-2l.84-.09a10.39,10.39,0,0,1-.81,2.07Z"/><path class="cls-3" d="M28,137v-3.54h-.58v-.57H28v-.2a2,2,0,0,1,.47-1.43,1.45,1.45,0,0,1,1-.38,1.67,1.67,0,0,1,.63.12l-.1.57a1.12,1.12,0,0,0-.47-.09c-.64,0-.8.56-.8,1.19v.22h1v.57h-1V137Z"/><path class="cls-3" d="M32.81,137l-.06-.51h0a1.53,1.53,0,0,1-1.25.61A1.17,1.17,0,0,1,30.21,136c0-1,.88-1.54,2.47-1.53v-.09a.84.84,0,0,0-.93-1,2,2,0,0,0-1.08.31l-.17-.5a2.59,2.59,0,0,1,1.36-.36c1.25,0,1.56.86,1.56,1.68v1.54a5.78,5.78,0,0,0,.07,1Zm-.11-2.09c-.82,0-1.74.12-1.74.92a.66.66,0,0,0,.7.72,1,1,0,0,0,1-.69,1.09,1.09,0,0,0,0-.24Z"/><path class="cls-3" d="M34.75,134.2c0-.48,0-.9,0-1.28h.66l0,.81h0a1.22,1.22,0,0,1,1.13-.9l.22,0v.71a1,1,0,0,0-.26,0,1,1,0,0,0-1,1,1.78,1.78,0,0,0,0,.35V137h-.74Z"/><path class="cls-3" d="M39.35,134.46V135h-2.1v-.55Z"/><path class="cls-3" d="M40.35,134.2c0-.48,0-.9,0-1.28H41l0,.81h0a1.23,1.23,0,0,1,1.14-.9l.21,0v.71a1,1,0,0,0-.26,0,1.05,1.05,0,0,0-1,1,1.83,1.83,0,0,0,0,.35V137h-.74Z"/><path class="cls-3" d="M43.58,135.11A1.31,1.31,0,0,0,45,136.54a2.72,2.72,0,0,0,1.14-.21l.12.53a3.26,3.26,0,0,1-1.36.26,1.91,1.91,0,0,1-2-2.08,2,2,0,0,1,1.93-2.21,1.74,1.74,0,0,1,1.7,1.94,2.56,2.56,0,0,1,0,.34Zm2.19-.53a1.06,1.06,0,0,0-1-1.22,1.24,1.24,0,0,0-1.14,1.22Z"/><path class="cls-3" d="M51.1,131v5c0,.37,0,.78,0,1.06h-.67l0-.71h0a1.52,1.52,0,0,1-1.4.81A1.87,1.87,0,0,1,47.25,135a2,2,0,0,1,1.84-2.21,1.37,1.37,0,0,1,1.24.63h0V131Zm-.75,3.59a1.63,1.63,0,0,0,0-.31,1.1,1.1,0,0,0-1.08-.87c-.78,0-1.23.68-1.23,1.59s.4,1.52,1.21,1.52a1.13,1.13,0,0,0,1.1-.89,1.58,1.58,0,0,0,0-.32Z"/><path class="cls-3" d="M51.89,138.08a11.58,11.58,0,0,0,.51-2l.83-.09a10.43,10.43,0,0,1-.8,2.07Z"/><path class="cls-3" d="M56.28,134.2c0-.48,0-.9,0-1.28h.66l0,.81h0a1.22,1.22,0,0,1,1.14-.9l.21,0v.71a1,1,0,0,0-.26,0,1.05,1.05,0,0,0-1,1,1.83,1.83,0,0,0,0,.35V137h-.74Z"/><path class="cls-3" d="M59.51,135.11a1.31,1.31,0,0,0,1.41,1.43,2.72,2.72,0,0,0,1.14-.21l.12.53a3.26,3.26,0,0,1-1.36.26,1.91,1.91,0,0,1-2-2.08,2,2,0,0,1,1.93-2.21,1.74,1.74,0,0,1,1.7,1.94,2.56,2.56,0,0,1,0,.34Zm2.19-.53a1.07,1.07,0,0,0-1-1.22,1.25,1.25,0,0,0-1.15,1.22Z"/><path class="cls-3" d="M67,131v5c0,.37,0,.78,0,1.06h-.67l0-.71h0a1.52,1.52,0,0,1-1.4.81A1.87,1.87,0,0,1,63.18,135,2,2,0,0,1,65,132.83a1.37,1.37,0,0,1,1.24.63h0V131Zm-.75,3.59a1.63,1.63,0,0,0,0-.31,1.1,1.1,0,0,0-1.08-.87c-.78,0-1.24.68-1.24,1.59s.41,1.52,1.22,1.52a1.13,1.13,0,0,0,1.1-.89,1.58,1.58,0,0,0,0-.32Z"/><path class="cls-3" d="M67.82,138.08a11.58,11.58,0,0,0,.51-2l.83-.09a10.43,10.43,0,0,1-.8,2.07Z"/><path class="cls-3" d="M72.28,137v-3.54H71.7v-.57h.58v-.2a1.93,1.93,0,0,1,.48-1.43,1.43,1.43,0,0,1,1-.38,1.78,1.78,0,0,1,.64.12l-.1.57a1.17,1.17,0,0,0-.48-.09c-.64,0-.8.56-.8,1.19v.22h1v.57H73V137Z"/><path class="cls-3" d="M77.09,137l-.06-.51h0a1.54,1.54,0,0,1-1.26.61A1.18,1.18,0,0,1,74.49,136c0-1,.89-1.54,2.47-1.53v-.09a.84.84,0,0,0-.93-1,2,2,0,0,0-1.07.31l-.17-.5a2.55,2.55,0,0,1,1.35-.36c1.26,0,1.56.86,1.56,1.68v1.54a5.78,5.78,0,0,0,.07,1ZM77,134.94c-.81,0-1.74.12-1.74.92a.66.66,0,0,0,.71.72,1,1,0,0,0,1-.69,1.09,1.09,0,0,0,0-.24Z"/><path class="cls-3" d="M79,134.2c0-.48,0-.9,0-1.28h.65l0,.81h0a1.24,1.24,0,0,1,1.14-.9l.21,0v.71a1,1,0,0,0-.25,0,1.06,1.06,0,0,0-1,1,3.27,3.27,0,0,0,0,.35V137H79Z"/><path class="cls-3" d="M83.63,134.46V135h-2.1v-.55Z"/><path class="cls-3" d="M84.63,134.2c0-.48,0-.9,0-1.28h.65l0,.81h0a1.24,1.24,0,0,1,1.14-.9l.21,0v.71a.9.9,0,0,0-.25,0,1,1,0,0,0-1,1,1.78,1.78,0,0,0,0,.35V137h-.74Z"/><path class="cls-3" d="M87.86,135.11a1.32,1.32,0,0,0,1.41,1.43,2.68,2.68,0,0,0,1.14-.21l.13.53a3.27,3.27,0,0,1-1.37.26,1.91,1.91,0,0,1-2-2.08,2,2,0,0,1,1.93-2.21,1.74,1.74,0,0,1,1.7,1.94,2.22,2.22,0,0,1,0,.34Zm2.19-.53a1.06,1.06,0,0,0-1-1.22,1.24,1.24,0,0,0-1.15,1.22Z"/><path class="cls-3" d="M95.38,131v5c0,.37,0,.78,0,1.06h-.67l0-.71h0a1.54,1.54,0,0,1-1.41.81A1.88,1.88,0,0,1,91.53,135a2,2,0,0,1,1.85-2.21,1.38,1.38,0,0,1,1.24.63h0V131Zm-.74,3.59a1.18,1.18,0,0,0-1.12-1.18c-.77,0-1.23.68-1.23,1.59s.41,1.52,1.22,1.52a1.11,1.11,0,0,0,1.09-.89,1.08,1.08,0,0,0,0-.32Z"/><path class="cls-3" d="M220.46,117.21h0l-1,.51-.15-.56,1.21-.65h.64V122h-.73Z"/><path class="cls-3" d="M226.87,119.21c0,1.88-.69,2.92-1.92,2.92-1.08,0-1.81-1-1.82-2.84s.79-2.87,1.92-2.87S226.87,117.45,226.87,119.21Zm-3,.09c0,1.43.45,2.25,1.13,2.25s1.13-.89,1.13-2.3S225.78,117,225,117,223.87,117.79,223.87,119.3Z"/><path class="cls-3" d="M231.23,119.21c0,1.88-.69,2.92-1.92,2.92s-1.81-1-1.82-2.84.8-2.87,1.92-2.87S231.23,117.45,231.23,119.21Zm-3,.09c0,1.43.45,2.25,1.13,2.25s1.13-.89,1.13-2.3-.35-2.26-1.12-2.26S228.23,117.79,228.23,119.3Z"/><path class="cls-3" d="M10.11,145.88a8.28,8.28,0,0,1,1.42-.12,2.33,2.33,0,0,1,1.65.47,1.44,1.44,0,0,1,.45,1.09,1.49,1.49,0,0,1-1.08,1.46v0A1.42,1.42,0,0,1,13.4,150a8.82,8.82,0,0,0,.44,1.58h-.77a8.07,8.07,0,0,1-.38-1.37c-.17-.79-.48-1.09-1.15-1.12h-.69v2.49h-.74Zm.74,2.61h.75c.79,0,1.29-.43,1.29-1.09s-.53-1.06-1.31-1.07a3.14,3.14,0,0,0-.73.07Z"/><path class="cls-3" d="M15.22,149.61A1.32,1.32,0,0,0,16.63,151a2.68,2.68,0,0,0,1.14-.21l.13.54a3.48,3.48,0,0,1-1.37.25,1.9,1.9,0,0,1-2-2.07,2,2,0,0,1,1.93-2.22,1.74,1.74,0,0,1,1.7,1.94,2.22,2.22,0,0,1,0,.34Zm2.2-.53a1.08,1.08,0,0,0-1-1.22,1.24,1.24,0,0,0-1.15,1.22Z"/><path class="cls-3" d="M22.75,145.5v5c0,.37,0,.78,0,1.07h-.67l0-.72h0a1.52,1.52,0,0,1-1.41.81,1.87,1.87,0,0,1-1.75-2.09,2,2,0,0,1,1.84-2.21A1.38,1.38,0,0,1,22,148h0V145.5ZM22,149.1a1.17,1.17,0,0,0,0-.32,1.1,1.1,0,0,0-1.08-.87c-.77,0-1.23.68-1.23,1.59s.41,1.53,1.22,1.53a1.12,1.12,0,0,0,1.09-.9,1.08,1.08,0,0,0,0-.32Z"/><path class="cls-3" d="M23.54,152.58a12.56,12.56,0,0,0,.5-2l.84-.09a10.39,10.39,0,0,1-.81,2.07Z"/><path class="cls-3" d="M28,151.54V148h-.58v-.57H28v-.19a2,2,0,0,1,.47-1.44,1.45,1.45,0,0,1,1-.38,1.67,1.67,0,0,1,.63.12l-.1.57a1.12,1.12,0,0,0-.47-.09c-.64,0-.8.56-.8,1.19v.22h1V148h-1v3.55Z"/><path class="cls-3" d="M32.81,151.54l-.06-.52h0a1.53,1.53,0,0,1-1.25.61,1.17,1.17,0,0,1-1.26-1.18c0-1,.88-1.54,2.47-1.53v-.09a.84.84,0,0,0-.93-1,2,2,0,0,0-1.08.31l-.17-.5a2.59,2.59,0,0,1,1.36-.36c1.25,0,1.56.86,1.56,1.68v1.54a6,6,0,0,0,.07,1Zm-.11-2.1c-.82,0-1.74.12-1.74.92a.66.66,0,0,0,.7.72,1,1,0,0,0,1-.69,1,1,0,0,0,0-.24Z"/><path class="cls-3" d="M34.75,148.71c0-.49,0-.91,0-1.29h.66l0,.81h0a1.22,1.22,0,0,1,1.13-.9l.22,0v.71a1,1,0,0,0-.26,0,1,1,0,0,0-1,1,1.87,1.87,0,0,0,0,.35v2.2h-.74Z"/><path class="cls-3" d="M39.35,149v.55h-2.1V149Z"/><path class="cls-3" d="M40.35,148.71c0-.49,0-.91,0-1.29H41l0,.81h0a1.23,1.23,0,0,1,1.14-.9l.21,0v.71a1,1,0,0,0-.26,0,1.05,1.05,0,0,0-1,1,1.9,1.9,0,0,0,0,.35v2.2h-.74Z"/><path class="cls-3" d="M43.58,149.61A1.31,1.31,0,0,0,45,151a2.72,2.72,0,0,0,1.14-.21l.12.54a3.46,3.46,0,0,1-1.36.25,1.91,1.91,0,0,1-2-2.07,2,2,0,0,1,1.93-2.22,1.74,1.74,0,0,1,1.7,1.94,2.56,2.56,0,0,1,0,.34Zm2.19-.53a1.06,1.06,0,0,0-1-1.22,1.24,1.24,0,0,0-1.14,1.22Z"/><path class="cls-3" d="M51.1,145.5v5c0,.37,0,.78,0,1.07h-.67l0-.72h0a1.52,1.52,0,0,1-1.4.81,1.87,1.87,0,0,1-1.76-2.09,2,2,0,0,1,1.84-2.21,1.37,1.37,0,0,1,1.24.63h0V145.5Zm-.75,3.6a1.73,1.73,0,0,0,0-.32,1.11,1.11,0,0,0-1.08-.87c-.78,0-1.23.68-1.23,1.59s.4,1.53,1.21,1.53a1.14,1.14,0,0,0,1.1-.9,1.58,1.58,0,0,0,0-.32Z"/><path class="cls-3" d="M51.89,152.58a11.58,11.58,0,0,0,.51-2l.83-.09a10.43,10.43,0,0,1-.8,2.07Z"/><path class="cls-3" d="M56.28,148.71c0-.49,0-.91,0-1.29h.66l0,.81h0a1.22,1.22,0,0,1,1.14-.9l.21,0v.71a1,1,0,0,0-.26,0,1.05,1.05,0,0,0-1,1,1.9,1.9,0,0,0,0,.35v2.2h-.74Z"/><path class="cls-3" d="M59.51,149.61A1.31,1.31,0,0,0,60.92,151a2.72,2.72,0,0,0,1.14-.21l.12.54a3.46,3.46,0,0,1-1.36.25,1.91,1.91,0,0,1-2-2.07,2,2,0,0,1,1.93-2.22,1.74,1.74,0,0,1,1.7,1.94,2.56,2.56,0,0,1,0,.34Zm2.19-.53a1.07,1.07,0,0,0-1-1.22,1.25,1.25,0,0,0-1.15,1.22Z"/><path class="cls-3" d="M67,145.5v5c0,.37,0,.78,0,1.07h-.67l0-.72h0a1.52,1.52,0,0,1-1.4.81,1.87,1.87,0,0,1-1.76-2.09A2,2,0,0,1,65,147.33a1.37,1.37,0,0,1,1.24.63h0V145.5Zm-.75,3.6a1.73,1.73,0,0,0,0-.32,1.11,1.11,0,0,0-1.08-.87c-.78,0-1.24.68-1.24,1.59s.41,1.53,1.22,1.53a1.14,1.14,0,0,0,1.1-.9,1.58,1.58,0,0,0,0-.32Z"/><path class="cls-3" d="M67.82,152.58a11.58,11.58,0,0,0,.51-2l.83-.09a10.43,10.43,0,0,1-.8,2.07Z"/><path class="cls-3" d="M72.28,151.54V148H71.7v-.57h.58v-.19a1.94,1.94,0,0,1,.48-1.44,1.43,1.43,0,0,1,1-.38,1.78,1.78,0,0,1,.64.12l-.1.57a1.17,1.17,0,0,0-.48-.09c-.64,0-.8.56-.8,1.19v.22h1V148H73v3.55Z"/><path class="cls-3" d="M77.09,151.54,77,151h0a1.54,1.54,0,0,1-1.26.61,1.18,1.18,0,0,1-1.26-1.18c0-1,.89-1.54,2.47-1.53v-.09a.84.84,0,0,0-.93-1,2,2,0,0,0-1.07.31l-.17-.5a2.55,2.55,0,0,1,1.35-.36c1.26,0,1.56.86,1.56,1.68v1.54a6,6,0,0,0,.07,1Zm-.11-2.1c-.81,0-1.74.12-1.74.92a.66.66,0,0,0,.71.72,1,1,0,0,0,1-.69,1,1,0,0,0,0-.24Z"/><path class="cls-3" d="M79,148.71c0-.49,0-.91,0-1.29h.65l0,.81h0a1.24,1.24,0,0,1,1.14-.9l.21,0v.71a1,1,0,0,0-.25,0,1.06,1.06,0,0,0-1,1c0,.11,0,.22,0,.35v2.2H79Z"/><path class="cls-3" d="M83.63,149v.55h-2.1V149Z"/><path class="cls-3" d="M84.63,148.71c0-.49,0-.91,0-1.29h.65l0,.81h0a1.24,1.24,0,0,1,1.14-.9l.21,0v.71a.9.9,0,0,0-.25,0,1,1,0,0,0-1,1,1.87,1.87,0,0,0,0,.35v2.2h-.74Z"/><path class="cls-3" d="M87.86,149.61A1.32,1.32,0,0,0,89.27,151a2.68,2.68,0,0,0,1.14-.21l.13.54a3.48,3.48,0,0,1-1.37.25,1.9,1.9,0,0,1-2-2.07,2,2,0,0,1,1.93-2.22,1.74,1.74,0,0,1,1.7,1.94,2.22,2.22,0,0,1,0,.34Zm2.19-.53a1.06,1.06,0,0,0-1-1.22,1.24,1.24,0,0,0-1.15,1.22Z"/><path class="cls-3" d="M95.38,145.5v5c0,.37,0,.78,0,1.07h-.67l0-.72h0a1.54,1.54,0,0,1-1.41.81,1.88,1.88,0,0,1-1.76-2.09,2,2,0,0,1,1.85-2.21,1.38,1.38,0,0,1,1.24.63h0V145.5Zm-.74,3.6a1.17,1.17,0,0,0,0-.32,1.11,1.11,0,0,0-1.08-.87c-.77,0-1.23.68-1.23,1.59S92.7,151,93.51,151a1.12,1.12,0,0,0,1.09-.9,1.08,1.08,0,0,0,0-.32Z"/><path class="cls-3" d="M96.17,152.58a11.58,11.58,0,0,0,.51-2l.84-.09a10.39,10.39,0,0,1-.81,2.07Z"/><path class="cls-3" d="M100.56,148.71c0-.49,0-.91,0-1.29h.65l0,.81h0a1.24,1.24,0,0,1,1.14-.9l.21,0v.71a.9.9,0,0,0-.25,0,1.06,1.06,0,0,0-1,1c0,.11,0,.22,0,.35v2.2h-.74Z"/><path class="cls-3" d="M103.79,149.61A1.31,1.31,0,0,0,105.2,151a2.68,2.68,0,0,0,1.14-.21l.13.54a3.57,3.57,0,0,1-1.37.25,1.9,1.9,0,0,1-2-2.07,2,2,0,0,1,1.93-2.22,1.74,1.74,0,0,1,1.7,1.94,2.22,2.22,0,0,1,0,.34Zm2.19-.53a1.06,1.06,0,0,0-1-1.22,1.24,1.24,0,0,0-1.15,1.22Z"/><path class="cls-3" d="M111.31,145.5v5c0,.37,0,.78,0,1.07h-.67l0-.72h0a1.52,1.52,0,0,1-1.4.81,1.88,1.88,0,0,1-1.76-2.09,2,2,0,0,1,1.85-2.21,1.38,1.38,0,0,1,1.24.63h0V145.5Zm-.75,3.6a1.16,1.16,0,0,0,0-.32,1.11,1.11,0,0,0-1.08-.87c-.77,0-1.23.68-1.23,1.59s.41,1.53,1.21,1.53a1.13,1.13,0,0,0,1.1-.9,1.09,1.09,0,0,0,0-.32Z"/><path class="cls-3" d="M223.21,136.54V135h-2.57v-.49L223.1,131h.81v3.43h.78V135h-.78v1.51Zm0-2.1V132.6c0-.29,0-.58,0-.87h0c-.17.33-.31.56-.46.82l-1.35,1.88h1.81Z"/><path class="cls-3" d="M225.56,135.68a2.58,2.58,0,0,0,1.23.35A1.09,1.09,0,0,0,228,135c0-.77-.71-1.1-1.43-1.1h-.42v-.56h.42c.54,0,1.23-.28,1.23-.94,0-.44-.28-.83-1-.83a2,2,0,0,0-1.1.37l-.2-.55a2.66,2.66,0,0,1,1.45-.42c1.08,0,1.58.64,1.58,1.31a1.39,1.39,0,0,1-1,1.31h0a1.44,1.44,0,0,1,1.23,1.42c0,.89-.69,1.66-2,1.66a2.76,2.76,0,0,1-1.43-.38Z"/><path class="cls-3" d="M10.11,160.38a8.36,8.36,0,0,1,1.42-.11,2.33,2.33,0,0,1,1.65.46,1.44,1.44,0,0,1,.45,1.09,1.49,1.49,0,0,1-1.08,1.46v0a1.42,1.42,0,0,1,.85,1.15,8.82,8.82,0,0,0,.44,1.58h-.77a7.78,7.78,0,0,1-.38-1.37c-.17-.79-.48-1.09-1.15-1.12h-.69V166h-.74Zm.74,2.61h.75c.79,0,1.29-.43,1.29-1.08s-.53-1.07-1.31-1.08a3.14,3.14,0,0,0-.73.07Z"/><path class="cls-3" d="M15.22,164.12a1.32,1.32,0,0,0,1.41,1.42,2.68,2.68,0,0,0,1.14-.21l.13.54a3.31,3.31,0,0,1-1.37.25,1.9,1.9,0,0,1-2-2.07,2,2,0,0,1,1.93-2.22,1.74,1.74,0,0,1,1.7,1.94,2.53,2.53,0,0,1,0,.35Zm2.2-.54a1.08,1.08,0,0,0-1-1.22,1.24,1.24,0,0,0-1.15,1.22Z"/><path class="cls-3" d="M22.75,160v5c0,.37,0,.79,0,1.07h-.67l0-.72h0a1.52,1.52,0,0,1-1.41.81A1.87,1.87,0,0,1,18.9,164a2,2,0,0,1,1.84-2.21,1.38,1.38,0,0,1,1.24.63h0V160ZM22,163.6a1.17,1.17,0,0,0,0-.32,1.09,1.09,0,0,0-1.08-.86c-.77,0-1.23.68-1.23,1.58s.41,1.53,1.22,1.53a1.11,1.11,0,0,0,1.09-.9,1.08,1.08,0,0,0,0-.32Z"/><path class="cls-3" d="M23.54,167.08a12.56,12.56,0,0,0,.5-2l.84-.09a10.39,10.39,0,0,1-.81,2.07Z"/><path class="cls-3" d="M28,166v-3.55h-.58v-.57H28v-.19a2,2,0,0,1,.47-1.44,1.45,1.45,0,0,1,1-.38,1.67,1.67,0,0,1,.63.12l-.1.58a1,1,0,0,0-.47-.1c-.64,0-.8.56-.8,1.19v.22h1v.57h-1V166Z"/><path class="cls-3" d="M32.81,166l-.06-.52h0a1.53,1.53,0,0,1-1.25.61A1.17,1.17,0,0,1,30.21,165c0-1,.88-1.54,2.47-1.53v-.09a.84.84,0,0,0-.93-1,2,2,0,0,0-1.08.31l-.17-.5a2.59,2.59,0,0,1,1.36-.36c1.25,0,1.56.86,1.56,1.68v1.54a5.9,5.9,0,0,0,.07,1Zm-.11-2.1c-.82,0-1.74.12-1.74.92a.66.66,0,0,0,.7.72,1,1,0,0,0,1-.69,1,1,0,0,0,0-.24Z"/><path class="cls-3" d="M34.75,163.21c0-.49,0-.91,0-1.29h.66l0,.81h0a1.22,1.22,0,0,1,1.13-.9l.22,0v.71a1.06,1.06,0,0,0-.26,0,1,1,0,0,0-1,1,1.76,1.76,0,0,0,0,.34V166h-.74Z"/><path class="cls-3" d="M39.35,163.46V164h-2.1v-.55Z"/><path class="cls-3" d="M40.35,163.21c0-.49,0-.91,0-1.29H41l0,.81h0a1.23,1.23,0,0,1,1.14-.9l.21,0v.71a1,1,0,0,0-.26,0,1,1,0,0,0-1,1,1.79,1.79,0,0,0,0,.34V166h-.74Z"/><path class="cls-3" d="M43.58,164.12A1.31,1.31,0,0,0,45,165.54a2.72,2.72,0,0,0,1.14-.21l.12.54a3.29,3.29,0,0,1-1.36.25,1.91,1.91,0,0,1-2-2.07,2,2,0,0,1,1.93-2.22,1.74,1.74,0,0,1,1.7,1.94,2.87,2.87,0,0,1,0,.35Zm2.19-.54a1.06,1.06,0,0,0-1-1.22,1.24,1.24,0,0,0-1.14,1.22Z"/><path class="cls-3" d="M51.1,160v5c0,.37,0,.79,0,1.07h-.67l0-.72h0a1.52,1.52,0,0,1-1.4.81A1.87,1.87,0,0,1,47.25,164a2,2,0,0,1,1.84-2.21,1.37,1.37,0,0,1,1.24.63h0V160Zm-.75,3.6a1.73,1.73,0,0,0,0-.32,1.1,1.1,0,0,0-1.08-.86c-.78,0-1.23.68-1.23,1.58s.4,1.53,1.21,1.53a1.13,1.13,0,0,0,1.1-.9,1.58,1.58,0,0,0,0-.32Z"/><path class="cls-3" d="M51.89,167.08a11.58,11.58,0,0,0,.51-2l.83-.09a10.43,10.43,0,0,1-.8,2.07Z"/><path class="cls-3" d="M56.28,163.21c0-.49,0-.91,0-1.29h.66l0,.81h0a1.22,1.22,0,0,1,1.14-.9l.21,0v.71a1,1,0,0,0-.26,0,1,1,0,0,0-1,1,1.79,1.79,0,0,0,0,.34V166h-.74Z"/><path class="cls-3" d="M59.51,164.12a1.31,1.31,0,0,0,1.41,1.42,2.72,2.72,0,0,0,1.14-.21l.12.54a3.29,3.29,0,0,1-1.36.25,1.91,1.91,0,0,1-2-2.07,2,2,0,0,1,1.93-2.22,1.74,1.74,0,0,1,1.7,1.94,2.87,2.87,0,0,1,0,.35Zm2.19-.54a1.07,1.07,0,0,0-1-1.22,1.25,1.25,0,0,0-1.15,1.22Z"/><path class="cls-3" d="M67,160v5c0,.37,0,.79,0,1.07h-.67l0-.72h0a1.52,1.52,0,0,1-1.4.81A1.87,1.87,0,0,1,63.18,164,2,2,0,0,1,65,161.83a1.37,1.37,0,0,1,1.24.63h0V160Zm-.75,3.6a1.73,1.73,0,0,0,0-.32,1.1,1.1,0,0,0-1.08-.86c-.78,0-1.24.68-1.24,1.58s.41,1.53,1.22,1.53a1.13,1.13,0,0,0,1.1-.9,1.58,1.58,0,0,0,0-.32Z"/><path class="cls-3" d="M67.82,167.08a11.58,11.58,0,0,0,.51-2l.83-.09a10.43,10.43,0,0,1-.8,2.07Z"/><path class="cls-3" d="M72.28,166v-3.55H71.7v-.57h.58v-.19a1.94,1.94,0,0,1,.48-1.44,1.43,1.43,0,0,1,1-.38,1.78,1.78,0,0,1,.64.12l-.1.58a1,1,0,0,0-.48-.1c-.64,0-.8.56-.8,1.19v.22h1v.57H73V166Z"/><path class="cls-3" d="M77.09,166l-.06-.52h0a1.54,1.54,0,0,1-1.26.61A1.18,1.18,0,0,1,74.49,165c0-1,.89-1.54,2.47-1.53v-.09a.84.84,0,0,0-.93-1,2,2,0,0,0-1.07.31l-.17-.5a2.55,2.55,0,0,1,1.35-.36c1.26,0,1.56.86,1.56,1.68v1.54a5.9,5.9,0,0,0,.07,1Zm-.11-2.1c-.81,0-1.74.12-1.74.92a.66.66,0,0,0,.71.72,1,1,0,0,0,1-.69,1,1,0,0,0,0-.24Z"/><path class="cls-3" d="M79,163.21c0-.49,0-.91,0-1.29h.65l0,.81h0a1.24,1.24,0,0,1,1.14-.9l.21,0v.71a1,1,0,0,0-.25,0,1.05,1.05,0,0,0-1,1,3.31,3.31,0,0,0,0,.34V166H79Z"/><path class="cls-3" d="M83.63,163.46V164h-2.1v-.55Z"/><path class="cls-3" d="M84.63,163.21c0-.49,0-.91,0-1.29h.65l0,.81h0a1.24,1.24,0,0,1,1.14-.9l.21,0v.71a.94.94,0,0,0-.25,0,1,1,0,0,0-1,1,1.76,1.76,0,0,0,0,.34V166h-.74Z"/><path class="cls-3" d="M87.86,164.12a1.32,1.32,0,0,0,1.41,1.42,2.68,2.68,0,0,0,1.14-.21l.13.54a3.31,3.31,0,0,1-1.37.25,1.9,1.9,0,0,1-2-2.07,2,2,0,0,1,1.93-2.22,1.74,1.74,0,0,1,1.7,1.94,2.53,2.53,0,0,1,0,.35Zm2.19-.54a1.06,1.06,0,0,0-1-1.22,1.24,1.24,0,0,0-1.15,1.22Z"/><path class="cls-3" d="M95.38,160v5c0,.37,0,.79,0,1.07h-.67l0-.72h0a1.54,1.54,0,0,1-1.41.81A1.88,1.88,0,0,1,91.53,164a2,2,0,0,1,1.85-2.21,1.38,1.38,0,0,1,1.24.63h0V160Zm-.74,3.6a1.17,1.17,0,0,0,0-.32,1.1,1.1,0,0,0-1.08-.86c-.77,0-1.23.68-1.23,1.58s.41,1.53,1.22,1.53a1.11,1.11,0,0,0,1.09-.9,1.08,1.08,0,0,0,0-.32Z"/><path class="cls-3" d="M96.17,167.08a11.58,11.58,0,0,0,.51-2l.84-.09a10.39,10.39,0,0,1-.81,2.07Z"/><path class="cls-3" d="M100.56,163.21c0-.49,0-.91,0-1.29h.65l0,.81h0a1.24,1.24,0,0,1,1.14-.9l.21,0v.71a.94.94,0,0,0-.25,0,1.05,1.05,0,0,0-1,1,3.31,3.31,0,0,0,0,.34V166h-.74Z"/><path class="cls-3" d="M103.79,164.12a1.31,1.31,0,0,0,1.41,1.42,2.68,2.68,0,0,0,1.14-.21l.13.54a3.38,3.38,0,0,1-1.37.25,1.9,1.9,0,0,1-2-2.07,2,2,0,0,1,1.93-2.22,1.74,1.74,0,0,1,1.7,1.94,2.53,2.53,0,0,1,0,.35Zm2.19-.54a1.06,1.06,0,0,0-1-1.22,1.24,1.24,0,0,0-1.15,1.22Z"/><path class="cls-3" d="M111.31,160v5c0,.37,0,.79,0,1.07h-.67l0-.72h0a1.52,1.52,0,0,1-1.4.81,1.88,1.88,0,0,1-1.76-2.09,2,2,0,0,1,1.85-2.21,1.38,1.38,0,0,1,1.24.63h0V160Zm-.75,3.6a1.16,1.16,0,0,0,0-.32,1.1,1.1,0,0,0-1.08-.86c-.77,0-1.23.68-1.23,1.58s.41,1.53,1.21,1.53a1.12,1.12,0,0,0,1.1-.9,1.09,1.09,0,0,0,0-.32Z"/><path class="cls-3" d="M112.1,167.08a11.58,11.58,0,0,0,.51-2l.84-.09a10.39,10.39,0,0,1-.81,2.07Z"/><path class="cls-3" d="M116.57,166v-3.55H116v-.57h.58v-.19a1.93,1.93,0,0,1,.47-1.44,1.44,1.44,0,0,1,1-.38,1.69,1.69,0,0,1,.64.12l-.1.58a1,1,0,0,0-.48-.1c-.63,0-.79.56-.79,1.19v.22h1v.57h-1V166Z"/><path class="cls-3" d="M121.38,166l-.06-.52h0a1.54,1.54,0,0,1-1.26.61,1.17,1.17,0,0,1-1.25-1.18c0-1,.88-1.54,2.47-1.53v-.09a.85.85,0,0,0-.94-1,2,2,0,0,0-1.07.31l-.17-.5a2.58,2.58,0,0,1,1.35-.36c1.26,0,1.57.86,1.57,1.68v1.54a5.9,5.9,0,0,0,.07,1Zm-.11-2.1c-.82,0-1.75.12-1.75.92a.67.67,0,0,0,.71.72,1,1,0,0,0,1-.69.69.69,0,0,0,0-.24Z"/><path class="cls-3" d="M123.32,163.21c0-.49,0-.91,0-1.29h.65l0,.81h0a1.24,1.24,0,0,1,1.14-.9l.21,0v.71a.94.94,0,0,0-.25,0,1,1,0,0,0-1,1,1.76,1.76,0,0,0,0,.34V166h-.74Z"/><path class="cls-3" d="M127.91,163.46V164h-2.1v-.55Z"/><path class="cls-3" d="M128.92,163.21c0-.49,0-.91,0-1.29h.66l0,.81h0a1.22,1.22,0,0,1,1.14-.9l.21,0v.71a1.06,1.06,0,0,0-.26,0,1,1,0,0,0-1,1,1.79,1.79,0,0,0,0,.34V166h-.74Z"/><path class="cls-3" d="M132.15,164.12a1.31,1.31,0,0,0,1.41,1.42,2.72,2.72,0,0,0,1.14-.21l.12.54a3.29,3.29,0,0,1-1.36.25,1.91,1.91,0,0,1-2-2.07,2,2,0,0,1,1.93-2.22,1.74,1.74,0,0,1,1.7,1.94c0,.15,0,.27,0,.35Zm2.19-.54a1.07,1.07,0,0,0-1-1.22,1.25,1.25,0,0,0-1.15,1.22Z"/><path class="cls-3" d="M139.67,160v5c0,.37,0,.79,0,1.07H139l0-.72h0a1.52,1.52,0,0,1-1.4.81,1.87,1.87,0,0,1-1.76-2.09,2,2,0,0,1,1.84-2.21,1.37,1.37,0,0,1,1.24.63h0V160Zm-.75,3.6a1.73,1.73,0,0,0,0-.32,1.1,1.1,0,0,0-1.08-.86c-.78,0-1.24.68-1.24,1.58s.41,1.53,1.22,1.53a1.13,1.13,0,0,0,1.1-.9,1.58,1.58,0,0,0,0-.32Z"/><path class="cls-3" d="M221.46,150.51a2.64,2.64,0,0,0,.6,0,2,2,0,0,0,1.15-.53,2.46,2.46,0,0,0,.74-1.47h0a1.64,1.64,0,0,1-1.3.59,1.6,1.6,0,0,1-1.63-1.69,1.89,1.89,0,0,1,1.89-2c1.12,0,1.82.92,1.82,2.33a3.51,3.51,0,0,1-.95,2.59,2.74,2.74,0,0,1-1.61.74,3.48,3.48,0,0,1-.68,0Zm.27-3.18a1.06,1.06,0,0,0,1.06,1.17,1.25,1.25,0,0,0,1.09-.57.55.55,0,0,0,.07-.28c0-.94-.35-1.66-1.13-1.66S221.73,146.55,221.73,147.33Z"/><path class="cls-3" d="M225.82,150.51a2.64,2.64,0,0,0,.6,0,2.1,2.1,0,0,0,1.16-.53,2.51,2.51,0,0,0,.73-1.47h0a1.64,1.64,0,0,1-1.3.59,1.6,1.6,0,0,1-1.63-1.69,1.89,1.89,0,0,1,1.89-2c1.13,0,1.82.92,1.82,2.33a3.51,3.51,0,0,1-.95,2.59,2.74,2.74,0,0,1-1.61.74,3.48,3.48,0,0,1-.68,0Zm.27-3.18a1.06,1.06,0,0,0,1.06,1.17,1.25,1.25,0,0,0,1.09-.57.55.55,0,0,0,.07-.28c0-.94-.35-1.66-1.13-1.66S226.09,146.55,226.09,147.33Z"/><path class="cls-3" d="M10.11,174.88a8.36,8.36,0,0,1,1.42-.11,2.33,2.33,0,0,1,1.65.46,1.44,1.44,0,0,1,.45,1.09,1.49,1.49,0,0,1-1.08,1.46v0A1.42,1.42,0,0,1,13.4,179a8.56,8.56,0,0,0,.44,1.58h-.77a7.78,7.78,0,0,1-.38-1.37c-.17-.79-.48-1.09-1.15-1.12h-.69v2.49h-.74Zm.74,2.61h.75c.79,0,1.29-.43,1.29-1.08s-.53-1.07-1.31-1.07a3.33,3.33,0,0,0-.73.06Z"/><path class="cls-3" d="M15.22,178.62A1.32,1.32,0,0,0,16.63,180a2.68,2.68,0,0,0,1.14-.21l.13.54a3.31,3.31,0,0,1-1.37.25,1.9,1.9,0,0,1-2-2.07,2,2,0,0,1,1.93-2.22,1.74,1.74,0,0,1,1.7,1.94,2.53,2.53,0,0,1,0,.35Zm2.2-.54a1.07,1.07,0,0,0-1-1.21,1.23,1.23,0,0,0-1.15,1.21Z"/><path class="cls-3" d="M22.75,174.5v5c0,.37,0,.79,0,1.07h-.67l0-.72h0a1.52,1.52,0,0,1-1.41.81,1.87,1.87,0,0,1-1.75-2.09,2,2,0,0,1,1.84-2.21A1.38,1.38,0,0,1,22,177h0V174.5ZM22,178.1a1.17,1.17,0,0,0,0-.32,1.09,1.09,0,0,0-1.08-.86c-.77,0-1.23.68-1.23,1.59s.41,1.52,1.22,1.52a1.11,1.11,0,0,0,1.09-.9,1.08,1.08,0,0,0,0-.32Z"/><path class="cls-3" d="M23.54,181.58a12.56,12.56,0,0,0,.5-2l.84-.08a10.52,10.52,0,0,1-.81,2.06Z"/><path class="cls-3" d="M28,180.54V177h-.58v-.57H28v-.19a2,2,0,0,1,.47-1.44,1.45,1.45,0,0,1,1-.38,1.67,1.67,0,0,1,.63.12l-.1.58a1,1,0,0,0-.47-.1c-.64,0-.8.56-.8,1.19v.22h1V177h-1v3.55Z"/><path class="cls-3" d="M32.81,180.54l-.06-.52h0a1.53,1.53,0,0,1-1.25.61,1.17,1.17,0,0,1-1.26-1.18c0-1,.88-1.54,2.47-1.53v-.09a.84.84,0,0,0-.93-1,2,2,0,0,0-1.08.31l-.17-.49a2.5,2.5,0,0,1,1.36-.37c1.25,0,1.56.86,1.56,1.68v1.54a5.9,5.9,0,0,0,.07,1Zm-.11-2.1c-.82,0-1.74.13-1.74.92a.66.66,0,0,0,.7.72,1,1,0,0,0,1-.69,1,1,0,0,0,0-.24Z"/><path class="cls-3" d="M34.75,177.71c0-.49,0-.9,0-1.29h.66l0,.81h0a1.22,1.22,0,0,1,1.13-.9.73.73,0,0,1,.22,0v.7a1.06,1.06,0,0,0-.26,0,1,1,0,0,0-1,1,1.76,1.76,0,0,0,0,.34v2.2h-.74Z"/><path class="cls-3" d="M39.35,178v.55h-2.1V178Z"/><path class="cls-3" d="M40.35,177.71c0-.49,0-.9,0-1.29H41l0,.81h0a1.23,1.23,0,0,1,1.14-.9.71.71,0,0,1,.21,0v.7a1,1,0,0,0-.26,0,1.05,1.05,0,0,0-1,1,1.79,1.79,0,0,0,0,.34v2.2h-.74Z"/><path class="cls-3" d="M43.58,178.62A1.31,1.31,0,0,0,45,180a2.72,2.72,0,0,0,1.14-.21l.12.54a3.29,3.29,0,0,1-1.36.25,1.91,1.91,0,0,1-2-2.07,2,2,0,0,1,1.93-2.22,1.74,1.74,0,0,1,1.7,1.94,2.87,2.87,0,0,1,0,.35Zm2.19-.54a1.06,1.06,0,0,0-1-1.21,1.23,1.23,0,0,0-1.14,1.21Z"/><path class="cls-3" d="M51.1,174.5v5c0,.37,0,.79,0,1.07h-.67l0-.72h0a1.52,1.52,0,0,1-1.4.81,1.87,1.87,0,0,1-1.76-2.09,2,2,0,0,1,1.84-2.21,1.37,1.37,0,0,1,1.24.63h0V174.5Zm-.75,3.6a1.73,1.73,0,0,0,0-.32,1.1,1.1,0,0,0-1.08-.86c-.78,0-1.23.68-1.23,1.59s.4,1.52,1.21,1.52a1.13,1.13,0,0,0,1.1-.9,1.58,1.58,0,0,0,0-.32Z"/><path class="cls-3" d="M51.89,181.58a11.58,11.58,0,0,0,.51-2l.83-.08a10.56,10.56,0,0,1-.8,2.06Z"/><path class="cls-3" d="M56.28,177.71c0-.49,0-.9,0-1.29h.66l0,.81h0a1.22,1.22,0,0,1,1.14-.9.71.71,0,0,1,.21,0v.7a1,1,0,0,0-.26,0,1.05,1.05,0,0,0-1,1,1.79,1.79,0,0,0,0,.34v2.2h-.74Z"/><path class="cls-3" d="M59.51,178.62A1.31,1.31,0,0,0,60.92,180a2.72,2.72,0,0,0,1.14-.21l.12.54a3.29,3.29,0,0,1-1.36.25,1.91,1.91,0,0,1-2-2.07,2,2,0,0,1,1.93-2.22,1.74,1.74,0,0,1,1.7,1.94,2.87,2.87,0,0,1,0,.35Zm2.19-.54a1.07,1.07,0,0,0-1-1.21,1.24,1.24,0,0,0-1.15,1.21Z"/><path class="cls-3" d="M67,174.5v5c0,.37,0,.79,0,1.07h-.67l0-.72h0a1.52,1.52,0,0,1-1.4.81,1.87,1.87,0,0,1-1.76-2.09A2,2,0,0,1,65,176.33a1.37,1.37,0,0,1,1.24.63h0V174.5Zm-.75,3.6a1.73,1.73,0,0,0,0-.32,1.1,1.1,0,0,0-1.08-.86c-.78,0-1.24.68-1.24,1.59s.41,1.52,1.22,1.52a1.13,1.13,0,0,0,1.1-.9,1.58,1.58,0,0,0,0-.32Z"/><path class="cls-3" d="M67.82,181.58a11.58,11.58,0,0,0,.51-2l.83-.08a10.56,10.56,0,0,1-.8,2.06Z"/><path class="cls-3" d="M72.28,180.54V177H71.7v-.57h.58v-.19a1.94,1.94,0,0,1,.48-1.44,1.43,1.43,0,0,1,1-.38,1.78,1.78,0,0,1,.64.12l-.1.58a1,1,0,0,0-.48-.1c-.64,0-.8.56-.8,1.19v.22h1V177H73v3.55Z"/><path class="cls-3" d="M77.09,180.54,77,180h0a1.54,1.54,0,0,1-1.26.61,1.18,1.18,0,0,1-1.26-1.18c0-1,.89-1.54,2.47-1.53v-.09a.84.84,0,0,0-.93-1,2,2,0,0,0-1.07.31l-.17-.49a2.47,2.47,0,0,1,1.35-.37c1.26,0,1.56.86,1.56,1.68v1.54a5.9,5.9,0,0,0,.07,1Zm-.11-2.1c-.81,0-1.74.13-1.74.92a.66.66,0,0,0,.71.72,1,1,0,0,0,1-.69,1,1,0,0,0,0-.24Z"/><path class="cls-3" d="M79,177.71c0-.49,0-.9,0-1.29h.65l0,.81h0a1.24,1.24,0,0,1,1.14-.9.71.71,0,0,1,.21,0v.7a1,1,0,0,0-.25,0,1.06,1.06,0,0,0-1,1,3.31,3.31,0,0,0,0,.34v2.2H79Z"/><path class="cls-3" d="M83.63,178v.55h-2.1V178Z"/><path class="cls-3" d="M84.63,177.71c0-.49,0-.9,0-1.29h.65l0,.81h0a1.24,1.24,0,0,1,1.14-.9.62.62,0,0,1,.21,0v.7a.94.94,0,0,0-.25,0,1,1,0,0,0-1,1,1.76,1.76,0,0,0,0,.34v2.2h-.74Z"/><path class="cls-3" d="M87.86,178.62A1.32,1.32,0,0,0,89.27,180a2.68,2.68,0,0,0,1.14-.21l.13.54a3.31,3.31,0,0,1-1.37.25,1.9,1.9,0,0,1-2-2.07,2,2,0,0,1,1.93-2.22,1.74,1.74,0,0,1,1.7,1.94,2.53,2.53,0,0,1,0,.35Zm2.19-.54a1.06,1.06,0,0,0-1-1.21,1.23,1.23,0,0,0-1.15,1.21Z"/><path class="cls-3" d="M95.38,174.5v5c0,.37,0,.79,0,1.07h-.67l0-.72h0a1.54,1.54,0,0,1-1.41.81,1.88,1.88,0,0,1-1.76-2.09,2,2,0,0,1,1.85-2.21,1.38,1.38,0,0,1,1.24.63h0V174.5Zm-.74,3.6a1.17,1.17,0,0,0,0-.32,1.1,1.1,0,0,0-1.08-.86c-.77,0-1.23.68-1.23,1.59S92.7,180,93.51,180a1.11,1.11,0,0,0,1.09-.9,1.08,1.08,0,0,0,0-.32Z"/><path class="cls-3" d="M96.17,181.58a11.58,11.58,0,0,0,.51-2l.84-.08a10.52,10.52,0,0,1-.81,2.06Z"/><path class="cls-3" d="M100.56,177.71c0-.49,0-.9,0-1.29h.65l0,.81h0a1.24,1.24,0,0,1,1.14-.9.71.71,0,0,1,.21,0v.7a.94.94,0,0,0-.25,0,1.06,1.06,0,0,0-1,1,3.31,3.31,0,0,0,0,.34v2.2h-.74Z"/><path class="cls-3" d="M103.79,178.62A1.31,1.31,0,0,0,105.2,180a2.68,2.68,0,0,0,1.14-.21l.13.54a3.38,3.38,0,0,1-1.37.25,1.9,1.9,0,0,1-2-2.07,2,2,0,0,1,1.93-2.22,1.74,1.74,0,0,1,1.7,1.94,2.53,2.53,0,0,1,0,.35Zm2.19-.54a1.06,1.06,0,0,0-1-1.21,1.23,1.23,0,0,0-1.15,1.21Z"/><path class="cls-3" d="M111.31,174.5v5c0,.37,0,.79,0,1.07h-.67l0-.72h0a1.52,1.52,0,0,1-1.4.81,1.88,1.88,0,0,1-1.76-2.09,2,2,0,0,1,1.85-2.21,1.38,1.38,0,0,1,1.24.63h0V174.5Zm-.75,3.6a1.16,1.16,0,0,0,0-.32,1.1,1.1,0,0,0-1.08-.86c-.77,0-1.23.68-1.23,1.59s.41,1.52,1.21,1.52a1.12,1.12,0,0,0,1.1-.9,1.09,1.09,0,0,0,0-.32Z"/><path class="cls-3" d="M112.1,181.58a11.58,11.58,0,0,0,.51-2l.84-.08a10.52,10.52,0,0,1-.81,2.06Z"/><path class="cls-3" d="M116.57,180.54V177H116v-.57h.58v-.19a1.93,1.93,0,0,1,.47-1.44,1.44,1.44,0,0,1,1-.38,1.69,1.69,0,0,1,.64.12l-.1.58a1,1,0,0,0-.48-.1c-.63,0-.79.56-.79,1.19v.22h1V177h-1v3.55Z"/><path class="cls-3" d="M121.38,180.54l-.06-.52h0a1.54,1.54,0,0,1-1.26.61,1.17,1.17,0,0,1-1.25-1.18c0-1,.88-1.54,2.47-1.53v-.09a.85.85,0,0,0-.94-1,2,2,0,0,0-1.07.31l-.17-.49a2.49,2.49,0,0,1,1.35-.37c1.26,0,1.57.86,1.57,1.68v1.54a5.9,5.9,0,0,0,.07,1Zm-.11-2.1c-.82,0-1.75.13-1.75.92a.67.67,0,0,0,.71.72,1,1,0,0,0,1-.69.69.69,0,0,0,0-.24Z"/><path class="cls-3" d="M123.32,177.71c0-.49,0-.9,0-1.29h.65l0,.81h0a1.24,1.24,0,0,1,1.14-.9.62.62,0,0,1,.21,0v.7a.94.94,0,0,0-.25,0,1,1,0,0,0-1,1,1.76,1.76,0,0,0,0,.34v2.2h-.74Z"/><path class="cls-3" d="M127.91,178v.55h-2.1V178Z"/><path class="cls-3" d="M128.92,177.71c0-.49,0-.9,0-1.29h.66l0,.81h0a1.22,1.22,0,0,1,1.14-.9.71.71,0,0,1,.21,0v.7a1.05,1.05,0,0,0-1.26.94,1.79,1.79,0,0,0,0,.34v2.2h-.74Z"/><path class="cls-3" d="M132.15,178.62a1.31,1.31,0,0,0,1.41,1.42,2.72,2.72,0,0,0,1.14-.21l.12.54a3.29,3.29,0,0,1-1.36.25,1.91,1.91,0,0,1-2-2.07,2,2,0,0,1,1.93-2.22,1.74,1.74,0,0,1,1.7,1.94c0,.15,0,.27,0,.35Zm2.19-.54a1.07,1.07,0,0,0-1-1.21,1.24,1.24,0,0,0-1.15,1.21Z"/><path class="cls-3" d="M139.67,174.5v5c0,.37,0,.79,0,1.07H139l0-.72h0a1.52,1.52,0,0,1-1.4.81,1.87,1.87,0,0,1-1.76-2.09,2,2,0,0,1,1.84-2.21,1.37,1.37,0,0,1,1.24.63h0V174.5Zm-.75,3.6a1.73,1.73,0,0,0,0-.32,1.1,1.1,0,0,0-1.08-.86c-.78,0-1.24.68-1.24,1.59S137,180,137.79,180a1.13,1.13,0,0,0,1.1-.9,1.58,1.58,0,0,0,0-.32Z"/><path class="cls-3" d="M140.46,181.58a11.58,11.58,0,0,0,.51-2l.83-.08a10.56,10.56,0,0,1-.8,2.06Z"/><path class="cls-3" d="M144.84,177.71c0-.49,0-.9,0-1.29h.66l0,.81h0a1.22,1.22,0,0,1,1.13-.9.73.73,0,0,1,.22,0v.7a1.06,1.06,0,0,0-.26,0,1,1,0,0,0-1,1,1.76,1.76,0,0,0,0,.34v2.2h-.74Z"/><path class="cls-3" d="M148.08,178.62a1.31,1.31,0,0,0,1.41,1.42,2.75,2.75,0,0,0,1.14-.21l.12.54a3.31,3.31,0,0,1-1.37.25,1.91,1.91,0,0,1-2-2.07,2,2,0,0,1,1.93-2.22,1.74,1.74,0,0,1,1.7,1.94,2.53,2.53,0,0,1,0,.35Zm2.19-.54a1.07,1.07,0,0,0-1-1.21,1.23,1.23,0,0,0-1.15,1.21Z"/><path class="cls-3" d="M155.6,174.5v5c0,.37,0,.79,0,1.07H155l0-.72h0a1.52,1.52,0,0,1-1.4.81,1.87,1.87,0,0,1-1.76-2.09,2,2,0,0,1,1.84-2.21,1.38,1.38,0,0,1,1.24.63h0V174.5Zm-.75,3.6a1.73,1.73,0,0,0,0-.32,1.11,1.11,0,0,0-1.08-.86c-.78,0-1.24.68-1.24,1.59s.41,1.52,1.22,1.52a1.13,1.13,0,0,0,1.1-.9,1.58,1.58,0,0,0,0-.32Z"/><path class="cls-3" d="M224.19,160.64h-2.11l-.21,1.42a2.72,2.72,0,0,1,.45,0,2.36,2.36,0,0,1,1.19.29,1.58,1.58,0,0,1,.79,1.42,1.91,1.91,0,0,1-2.05,1.89,2.69,2.69,0,0,1-1.38-.34l.19-.57a2.43,2.43,0,0,0,1.18.31,1.22,1.22,0,0,0,1.31-1.2c0-.71-.49-1.22-1.59-1.22a7.25,7.25,0,0,0-.77,0l.36-2.65h2.64Z"/><path class="cls-3" d="M227.7,165.54V164h-2.57v-.49l2.46-3.53h.81v3.44h.77V164h-.77v1.51Zm0-2.09V161.6c0-.29,0-.58,0-.87h0c-.17.33-.31.57-.46.82l-1.36,1.88v0Z"/><path class="cls-3" d="M221.46,179.51a3.23,3.23,0,0,0,.6,0,2.06,2.06,0,0,0,1.15-.54,2.46,2.46,0,0,0,.74-1.47h0a1.64,1.64,0,0,1-1.3.59,1.6,1.6,0,0,1-1.63-1.69,1.89,1.89,0,0,1,1.89-2c1.12,0,1.82.92,1.82,2.33a3.51,3.51,0,0,1-.95,2.59,2.74,2.74,0,0,1-1.61.74,3.48,3.48,0,0,1-.68,0Zm.27-3.18a1.06,1.06,0,0,0,1.06,1.18,1.25,1.25,0,0,0,1.09-.58.54.54,0,0,0,.07-.27c0-.95-.35-1.67-1.13-1.67S221.73,175.55,221.73,176.33Z"/><path class="cls-3" d="M225.31,178.64a1.58,1.58,0,0,1,1.1-1.48v0a1.36,1.36,0,0,1-.87-1.24,1.55,1.55,0,0,1,1.71-1.47,1.42,1.42,0,0,1,1.6,1.36,1.4,1.4,0,0,1-.91,1.29v0a1.53,1.53,0,0,1,1.12,1.43,1.7,1.7,0,0,1-1.88,1.6C226,180.13,225.31,179.44,225.31,178.64Zm3,0c0-.67-.47-1-1.22-1.21a1.21,1.21,0,0,0-1,1.14,1,1,0,0,0,1.1,1.06A1,1,0,0,0,228.29,178.6Zm-2.06-2.76c0,.55.42.85,1.06,1a1.09,1.09,0,0,0,.84-1,.86.86,0,0,0-.94-.9A.87.87,0,0,0,226.23,175.84Z"/><path class="cls-3" d="M118.05,189.44h-1.74v-.63h4.24v.63H118.8v5.1h-.75Z"/><path class="cls-3" d="M122,189.27a.46.46,0,1,1-.92,0,.45.45,0,0,1,.46-.47A.45.45,0,0,1,122,189.27Zm-.83,5.27v-4.11h.75v4.11Z"/><path class="cls-3" d="M123.29,191.54c0-.43,0-.77,0-1.11h.65l0,.66h0a1.42,1.42,0,0,1,1.29-.76,1.22,1.22,0,0,1,1.17.83h0a1.77,1.77,0,0,1,.46-.54,1.4,1.4,0,0,1,.91-.29c.54,0,1.35.36,1.35,1.79v2.42h-.73v-2.33c0-.79-.29-1.27-.89-1.27a1,1,0,0,0-.89.68,1.46,1.46,0,0,0-.05.38v2.54h-.74v-2.47c0-.65-.29-1.13-.85-1.13a1,1,0,0,0-.93.75,1.1,1.1,0,0,0-.06.37v2.48h-.73Z"/><path class="cls-3" d="M130.91,192.62a1.32,1.32,0,0,0,1.41,1.43,2.66,2.66,0,0,0,1.14-.22l.13.54a3.31,3.31,0,0,1-1.37.25,1.91,1.91,0,0,1-2-2.07,2,2,0,0,1,1.93-2.22,1.74,1.74,0,0,1,1.7,1.94,2.53,2.53,0,0,1,0,.35Zm2.2-.54a1.07,1.07,0,0,0-1-1.21,1.23,1.23,0,0,0-1.15,1.21Z"/><path class="cls-3" d="M143,192.68h-6.37v-.4H143a11.37,11.37,0,0,1-.83-1.06,6,6,0,0,1-.46-.92H142a9.08,9.08,0,0,0,1.2,1.21,8.34,8.34,0,0,0,1.15.86v.23a7.72,7.72,0,0,0-1.21.88,9.69,9.69,0,0,0-1.14,1.18h-.34a5.54,5.54,0,0,1,.49-.95A9.3,9.3,0,0,1,143,192.68Z"/></svg>