<svg id="Layer_1" data-name="Layer 1" xmlns="http://www.w3.org/2000/svg" viewBox="0 0 258 185"><defs><style>.cls-1{fill:#ededee;}.cls-2{fill:#d9d2cf;}.cls-3,.cls-4,.cls-5{fill:none;}.cls-3{stroke:#fff;stroke-width:0.5px;}.cls-4{stroke:#17479d;stroke-width:1.5px;}.cls-5{stroke:#a1938f;}.cls-6{fill:#231f20;}</style></defs><title>Practice_Exercise_1</title><rect class="cls-1" width="258" height="185"/><rect class="cls-2" x="32.6" y="19.55" width="202.64" height="136.22"/><line class="cls-3" x1="33.04" y1="99.06" x2="235.24" y2="99.06"/><line class="cls-3" x1="33.04" y1="110.35" x2="235.24" y2="110.35"/><line class="cls-3" x1="33.04" y1="121.64" x2="235.24" y2="121.64"/><line class="cls-3" x1="33.04" y1="132.94" x2="235.24" y2="132.94"/><line class="cls-3" x1="33.04" y1="144.24" x2="235.24" y2="144.24"/><line class="cls-3" x1="33.04" y1="65.14" x2="235.24" y2="65.14"/><line class="cls-3" x1="33.04" y1="53.89" x2="235.24" y2="53.89"/><line class="cls-3" x1="33.04" y1="76.44" x2="235.24" y2="76.44"/><line class="cls-3" x1="33.04" y1="87.73" x2="235.24" y2="87.73"/><line class="cls-3" x1="33.04" y1="31.35" x2="235.24" y2="31.35"/><line class="cls-3" x1="33.04" y1="42.64" x2="235.24" y2="42.64"/><line class="cls-3" x1="193.08" y1="20.23" x2="193.08" y2="155.77"/><line class="cls-3" x1="178.49" y1="20.23" x2="178.49" y2="155.77"/><line class="cls-3" x1="163.9" y1="20.23" x2="163.9" y2="155.77"/><line class="cls-3" x1="149.31" y1="20.23" x2="149.31" y2="155.77"/><line class="cls-3" x1="134.72" y1="20.23" x2="134.72" y2="155.77"/><line class="cls-3" x1="120.13" y1="20.23" x2="120.13" y2="155.77"/><line class="cls-3" x1="105.55" y1="20.23" x2="105.55" y2="155.77"/><line class="cls-3" x1="90.96" y1="20.23" x2="90.96" y2="155.77"/><line class="cls-3" x1="76.36" y1="20.23" x2="76.36" y2="155.77"/><line class="cls-3" x1="61.78" y1="20.23" x2="61.78" y2="155.77"/><line class="cls-3" x1="47.19" y1="20.23" x2="47.19" y2="155.77"/><line class="cls-3" x1="222.21" y1="20.23" x2="222.21" y2="155.77"/><line class="cls-3" x1="207.62" y1="20.23" x2="207.62" y2="155.77"/><line class="cls-3" x1="32.6" y1="20.23" x2="32.6" y2="155.77"/><polyline class="cls-4" points="47.19 155.77 64.4 127.98 77.55 103.98 88.97 88.23 102.81 67.73 113.89 125.98 127.04 141.73 139.15 111.98 151.61 76.48 164.76 70.23 175.83 64.48 188.64 125.73 200.06 133.73 212.51 134.23"/><polyline class="cls-5" points="235.24 19.55 235.24 155.77 32.6 155.77 32.6 19.55"/><path class="cls-6" d="M26.12,63.41h-2l-.2,1.33a3.89,3.89,0,0,1,.42,0,2.22,2.22,0,0,1,1.12.28,1.48,1.48,0,0,1,.75,1.33,1.81,1.81,0,0,1-1.94,1.78A2.49,2.49,0,0,1,23,67.78l.17-.54a2.32,2.32,0,0,0,1.11.29,1.14,1.14,0,0,0,1.23-1.13c0-.67-.45-1.15-1.49-1.15a5.92,5.92,0,0,0-.72.06l.33-2.5h2.49Z" transform="translate(-0.17)"/><path class="cls-6" d="M30.58,65.36c0,1.76-.66,2.74-1.81,2.74s-1.7-.95-1.72-2.67.75-2.7,1.81-2.7S30.58,63.7,30.58,65.36Zm-2.83.08c0,1.35.42,2.12,1.06,2.12s1.06-.84,1.06-2.17-.33-2.12-1.05-2.12S27.75,64,27.75,65.44Z" transform="translate(-0.17)"/><path class="cls-6" d="M26.39,16.56V17l-2.26,4.73H23.4l2.26-4.6H23.12v-.59Z" transform="translate(-0.17)"/><path class="cls-6" d="M30.22,17.16h-2L28,18.49a3.91,3.91,0,0,1,.43,0,2.16,2.16,0,0,1,1.11.28,1.48,1.48,0,0,1,.75,1.33,1.81,1.81,0,0,1-1.94,1.78,2.55,2.55,0,0,1-1.29-.32l.17-.54a2.33,2.33,0,0,0,1.12.29,1.15,1.15,0,0,0,1.23-1.13c0-.67-.46-1.15-1.5-1.15a6.1,6.1,0,0,0-.72.06l.34-2.5h2.48Z" transform="translate(-0.17)"/><path class="cls-6" d="M23,113v-.43l.55-.54c1.33-1.26,1.93-1.93,1.94-2.71a.93.93,0,0,0-1-1,1.76,1.76,0,0,0-1.1.44l-.22-.5a2.29,2.29,0,0,1,1.47-.52,1.46,1.46,0,0,1,1.59,1.51c0,1-.7,1.73-1.79,2.79l-.42.38v0h2.34V113Z" transform="translate(-0.17)"/><path class="cls-6" d="M30.22,108.41h-2l-.2,1.33a3.91,3.91,0,0,1,.43,0,2.16,2.16,0,0,1,1.11.28,1.48,1.48,0,0,1,.75,1.33,1.81,1.81,0,0,1-1.94,1.78,2.55,2.55,0,0,1-1.29-.32l.17-.54a2.33,2.33,0,0,0,1.12.29,1.15,1.15,0,0,0,1.23-1.13c0-.67-.46-1.15-1.5-1.15a6.1,6.1,0,0,0-.72.06l.34-2.5h2.48Z" transform="translate(-0.17)"/><path class="cls-6" d="M30.58,156.3c0,1.77-.66,2.75-1.81,2.75s-1.7-1-1.72-2.67.75-2.71,1.81-2.71S30.58,154.65,30.58,156.3Zm-2.83.08c0,1.35.42,2.12,1.06,2.12s1.06-.84,1.06-2.17-.32-2.11-1.05-2.11S27.75,155,27.75,156.38Z" transform="translate(-0.17)"/><path class="cls-6" d="M14.76,103.11A3.38,3.38,0,0,1,15,104.5a2.54,2.54,0,0,1-2.71,2.75,2.72,2.72,0,0,1-2.85-2.88,3.14,3.14,0,0,1,.24-1.31l.79.21a2.68,2.68,0,0,0-.21,1.06,1.8,1.8,0,0,0,2,1.89,1.77,1.77,0,0,0,1.95-1.88,2.72,2.72,0,0,0-.2-1.07Z" transform="translate(-0.17)"/><path class="cls-6" d="M11,101.69l2.08-.71c.24-.08.54-.16.76-.21v0l-.76-.2L11,99.93V98.87l2.65,1a5.6,5.6,0,0,1,2.5,1.36,1.91,1.91,0,0,1,.51,1l-.83.22a1.66,1.66,0,0,0-.28-.57,1.72,1.72,0,0,0-.61-.54.38.38,0,0,0-.18-.06.52.52,0,0,0-.19,0L11,102.77Z" transform="translate(-0.17)"/><path class="cls-6" d="M14.8,95.44a2.79,2.79,0,0,1,.2,1.1,1.87,1.87,0,0,1-2,2,2,2,0,0,1-2.08-2.17,2.55,2.55,0,0,1,.18-.95l.74.18a1.76,1.76,0,0,0-.15.74A1.16,1.16,0,0,0,13,97.54a1.16,1.16,0,0,0,1.26-1.19,1.89,1.89,0,0,0-.16-.77Z" transform="translate(-0.17)"/><path class="cls-6" d="M9.24,94.71v-1h5.68v1Z" transform="translate(-0.17)"/><path class="cls-6" d="M9.94,91.61a.52.52,0,0,1,.53.56.51.51,0,0,1-.53.54.55.55,0,0,1,0-1.1Zm5,1H11v-1h3.89Z" transform="translate(-0.17)"/><path class="cls-6" d="M12.19,90.61c-.45,0-.83,0-1.16,0v-.86l.58,0v0a1.4,1.4,0,0,1-.67-1.24c0-.67.44-1.38,1.67-1.38h2.31v1h-2.2c-.56,0-1,.21-1,.75a.84.84,0,0,0,.57.77,1.08,1.08,0,0,0,.32,0h2.29v1Z" transform="translate(-0.17)"/><path class="cls-6" d="M9.24,84.38v-1h5.68v1Z" transform="translate(-0.17)"/><path class="cls-6" d="M13.25,81.62a1.06,1.06,0,0,0,1-1.2,2.91,2.91,0,0,0-.18-1.07l.68-.15A3.6,3.6,0,0,1,15,80.56a1.84,1.84,0,0,1-2,2,1.93,1.93,0,0,1-2.09-1.9A1.69,1.69,0,0,1,12.83,79a2.12,2.12,0,0,1,.42,0Zm-.69-1.71a.85.85,0,0,0-1,.81,1,1,0,0,0,1,.9Z" transform="translate(-0.17)"/><path class="cls-6" d="M11,77.57l2-.63a8.56,8.56,0,0,1,1-.27v0c-.32-.07-.63-.16-1-.27l-2-.61v-1l3.89,1.49v1L11,78.63Z" transform="translate(-0.17)"/><path class="cls-6" d="M13.25,73.43a1.06,1.06,0,0,0,1-1.2,3,3,0,0,0-.18-1.08l.68-.14A3.6,3.6,0,0,1,15,72.37a1.84,1.84,0,0,1-2,2,1.93,1.93,0,0,1-2.09-1.91,1.69,1.69,0,0,1,1.89-1.68,2,2,0,0,1,.42,0Zm-.69-1.71a.83.83,0,0,0-1,.81,1,1,0,0,0,1,.9Z" transform="translate(-0.17)"/><path class="cls-6" d="M9.24,70V69h5.68v1Z" transform="translate(-0.17)"/><path class="cls-6" d="M111,175.55H109.5v-.82h4.07v.82H112v4.57h-1Z" transform="translate(-0.17)"/><path class="cls-6" d="M115.21,175.14a.55.55,0,1,1-.55-.54A.52.52,0,0,1,115.21,175.14Zm-1,5v-3.9h1v3.9Z" transform="translate(-0.17)"/><path class="cls-6" d="M116.21,177.38c0-.44,0-.82,0-1.16H117l0,.58h0a1.37,1.37,0,0,1,1.2-.66,1.12,1.12,0,0,1,1.08.72h0a1.33,1.33,0,0,1,.48-.49,1.29,1.29,0,0,1,.78-.23c.65,0,1.3.44,1.3,1.68v2.3h-1V178c0-.65-.23-1-.7-1a.76.76,0,0,0-.69.52,1.53,1.53,0,0,0,0,.32v2.34h-1v-2.26c0-.54-.21-.92-.67-.92a.75.75,0,0,0-.7.56.79.79,0,0,0-.06.32v2.3h-1Z" transform="translate(-0.17)"/><path class="cls-6" d="M123.69,178.45a1.07,1.07,0,0,0,1.2,1,2.92,2.92,0,0,0,1.08-.18l.15.68a3.81,3.81,0,0,1-1.36.24,1.84,1.84,0,0,1-2-2,1.93,1.93,0,0,1,1.9-2.09,1.69,1.69,0,0,1,1.68,1.89,2.12,2.12,0,0,1,0,.42Zm1.71-.69a.83.83,0,0,0-.8-.95,1,1,0,0,0-.91.95Z" transform="translate(-0.17)"/><path class="cls-6" d="M130.44,174.58a5.61,5.61,0,0,0-.91,3.25,5.69,5.69,0,0,0,.91,3.23h-.72a5.39,5.39,0,0,1-1-3.23,5.53,5.53,0,0,1,1-3.25Z" transform="translate(-0.17)"/><path class="cls-6" d="M131.19,174.44h1v2.32h0a1.38,1.38,0,0,1,.48-.45,1.4,1.4,0,0,1,.68-.17c.66,0,1.35.44,1.35,1.68v2.3h-1v-2.18c0-.57-.21-1-.75-1a.8.8,0,0,0-.76.56.85.85,0,0,0,0,.29v2.33h-1Z" transform="translate(-0.17)"/><path class="cls-6" d="M139.47,178.14a1.93,1.93,0,0,1-2,2.07,1.88,1.88,0,0,1-1.95-2,1.92,1.92,0,0,1,2-2.06A1.87,1.87,0,0,1,139.47,178.14Zm-2.94,0c0,.75.37,1.32,1,1.32s.95-.56.95-1.34c0-.61-.27-1.3-.94-1.3S136.53,177.53,136.53,178.18Z" transform="translate(-0.17)"/><path class="cls-6" d="M143.76,179c0,.47,0,.85,0,1.17h-.86l-.05-.59h0a1.41,1.41,0,0,1-1.25.68c-.71,0-1.36-.43-1.36-1.7v-2.29h1v2.12c0,.65.21,1.07.73,1.07a.82.82,0,0,0,.75-.53.73.73,0,0,0,.06-.3v-2.36h1Z" transform="translate(-0.17)"/><path class="cls-6" d="M144.83,177.48c0-.53,0-.9,0-1.26h.85l0,.75h0a1.15,1.15,0,0,1,1.06-.83.82.82,0,0,1,.23,0v.93a1.17,1.17,0,0,0-.29,0,.87.87,0,0,0-.88.74,2.53,2.53,0,0,0,0,.3v2h-1Z" transform="translate(-0.17)"/><path class="cls-6" d="M147.63,179.21a2.14,2.14,0,0,0,1,.29c.43,0,.62-.18.62-.44s-.16-.4-.64-.56c-.76-.27-1.08-.68-1.07-1.14a1.3,1.3,0,0,1,1.47-1.22,2.27,2.27,0,0,1,1,.23l-.19.69a1.83,1.83,0,0,0-.82-.22c-.35,0-.55.17-.55.41s.19.37.68.54c.71.26,1,.62,1,1.19s-.55,1.22-1.58,1.22a2.48,2.48,0,0,1-1.18-.27Z" transform="translate(-0.17)"/><path class="cls-6" d="M150.71,181.06a6.34,6.34,0,0,0,0-6.48h.71a5.4,5.4,0,0,1,1,3.24,5.49,5.49,0,0,1-1,3.24Z" transform="translate(-0.17)"/><path class="cls-6" d="M105.65,160.42h0l-.9.48-.13-.53,1.13-.61h.6V165h-.68Z" transform="translate(-0.17)"/><path class="cls-6" d="M177.12,165v-.43l.55-.54c1.33-1.26,1.93-1.93,1.94-2.72a.92.92,0,0,0-1-1,1.74,1.74,0,0,0-1.1.44l-.23-.5a2.3,2.3,0,0,1,1.47-.53,1.46,1.46,0,0,1,1.59,1.51c0,1-.69,1.74-1.79,2.79l-.41.39h2.33V165Z" transform="translate(-0.17)"/></svg>