<svg id="Layer_1" data-name="Layer 1" xmlns="http://www.w3.org/2000/svg" viewBox="0 0 281.5 267.5"><defs><style>.cls-1{fill:#d5d6d5;stroke:#000;stroke-miterlimit:10;opacity:0.2;}.cls-1,.cls-3{stroke-width:0.5px;}.cls-2{fill:#d9d2cf;}.cls-3,.cls-6{fill:none;}.cls-3{stroke:#fff;}.cls-4{fill:#7c51a0;}.cls-5{fill:#7eb062;}.cls-6{stroke:#a1938f;}.cls-7{fill:#fff;opacity:0.5;}.cls-8{fill:#231f20;}</style></defs><title>Practice_Exercise_2</title><rect class="cls-1" x="0.25" y="0.25" width="281" height="267"/><rect class="cls-2" x="43.7" y="10.42" width="226.49" height="180.7"/><line class="cls-3" x1="44.04" y1="123.63" x2="270.19" y2="123.63"/><line class="cls-3" x1="44.04" y1="157.97" x2="270.19" y2="157.97"/><line class="cls-3" x1="44.04" y1="54.96" x2="270.19" y2="54.96"/><line class="cls-3" x1="44.04" y1="89.3" x2="270.19" y2="89.3"/><line class="cls-3" x1="44.04" y1="20.62" x2="270.19" y2="20.62"/><line class="cls-3" x1="43.7" y1="81.39" x2="43.7" y2="191.12"/><rect class="cls-4" x="48.31" y="129.78" width="14.88" height="61.34"/><rect class="cls-5" x="63.43" y="157.97" width="14.88" height="33.15"/><rect class="cls-4" x="95.4" y="129.78" width="14.88" height="61.34"/><rect class="cls-5" x="110.28" y="20.62" width="14.88" height="170.5"/><rect class="cls-4" x="142.25" y="129.78" width="14.88" height="61.34"/><rect class="cls-5" x="157.13" y="26.55" width="14.88" height="164.57"/><rect class="cls-4" x="189.11" y="129.78" width="14.88" height="61.34"/><rect class="cls-5" x="203.75" y="133.37" width="14.88" height="57.75"/><rect class="cls-4" x="235.72" y="129.78" width="14.88" height="61.34"/><rect class="cls-5" x="250.36" y="139.82" width="14.88" height="51.3"/><polyline class="cls-6" points="270.19 191.19 43.7 191.19 43.7 10.42"/><rect class="cls-7" x="179.48" y="13.27" width="85.31" height="29.04"/><rect class="cls-4" x="184.84" y="18.73" width="5.38" height="5.38"/><rect class="cls-5" x="184.84" y="31.1" width="5.38" height="5.38"/><path class="cls-8" d="M122.33,240.21l-.5,1.64h-1.09l1.86-5.8H124l1.88,5.8H124.7l-.53-1.64Zm1.66-.8-.46-1.43c-.11-.36-.2-.75-.29-1.09h0c-.08.34-.17.74-.27,1.09l-.45,1.43Z" transform="translate(0.25 0.25)"/><path class="cls-8" d="M130.46,235.74v4.93c0,.43,0,.9,0,1.18h-.94l-.05-.66h0a1.52,1.52,0,0,1-1.37.75,1.92,1.92,0,0,1-1.79-2.14,2,2,0,0,1,1.87-2.24,1.33,1.33,0,0,1,1.18.55h0v-2.37Zm-1.06,3.67a2.64,2.64,0,0,0,0-.28,1,1,0,0,0-.92-.75c-.68,0-1.06.6-1.06,1.39s.38,1.32,1,1.32a.94.94,0,0,0,.92-.75,1.42,1.42,0,0,0,0-.31Z" transform="translate(0.25 0.25)"/><path class="cls-8" d="M135.46,235.74v4.93c0,.43,0,.9,0,1.18h-.94l-.05-.66h0a1.52,1.52,0,0,1-1.37.75,1.92,1.92,0,0,1-1.79-2.14,2,2,0,0,1,1.87-2.24,1.33,1.33,0,0,1,1.18.55h0v-2.37Zm-1.06,3.67a1.33,1.33,0,0,0,0-.28.93.93,0,0,0-.91-.75c-.68,0-1.06.6-1.06,1.39s.38,1.32,1,1.32a.94.94,0,0,0,.92-.75,1.42,1.42,0,0,0,0-.31Z" transform="translate(0.25 0.25)"/><path class="cls-8" d="M137.34,240.05a1.14,1.14,0,0,0,1.29,1.09,3.12,3.12,0,0,0,1.16-.19l.16.73a4.06,4.06,0,0,1-1.46.26,2,2,0,0,1-2.16-2.12,2.08,2.08,0,0,1,2-2.26,1.82,1.82,0,0,1,1.81,2,3.79,3.79,0,0,1,0,.45Zm1.84-.74a.89.89,0,0,0-.87-1,1,1,0,0,0-1,1Z" transform="translate(0.25 0.25)"/><path class="cls-8" d="M144.9,235.74v4.93c0,.43,0,.9,0,1.18h-1l0-.66h0a1.51,1.51,0,0,1-1.37.75,1.92,1.92,0,0,1-1.79-2.14,2,2,0,0,1,1.88-2.24,1.33,1.33,0,0,1,1.18.55h0v-2.37Zm-1.06,3.67a1.33,1.33,0,0,0,0-.28.93.93,0,0,0-.91-.75c-.68,0-1.06.6-1.06,1.39s.38,1.32,1,1.32a.93.93,0,0,0,.91-.75,1,1,0,0,0,0-.31Z" transform="translate(0.25 0.25)"/><path class="cls-8" d="M150.89,241.72a3.09,3.09,0,0,1-1.19.22,2,2,0,0,1-2.16-2.14,2.17,2.17,0,0,1,2.34-2.24,2.68,2.68,0,0,1,1,.2l-.19.79a2,2,0,0,0-.8-.16,1.36,1.36,0,0,0,0,2.71,2.13,2.13,0,0,0,.83-.16Z" transform="translate(0.25 0.25)"/><path class="cls-8" d="M155.66,239.71a2.07,2.07,0,0,1-2.15,2.23,2,2,0,0,1-2.1-2.16,2.07,2.07,0,0,1,2.16-2.22A2,2,0,0,1,155.66,239.71Zm-3.16,0c0,.81.39,1.42,1,1.42s1-.6,1-1.44c0-.65-.29-1.4-1-1.4S152.5,239.06,152.5,239.76Z" transform="translate(0.25 0.25)"/><path class="cls-8" d="M156.52,238.91c0-.49,0-.89,0-1.25h.91l0,.62h0a1.46,1.46,0,0,1,1.29-.72,1.2,1.2,0,0,1,1.16.78h0a1.65,1.65,0,0,1,.52-.53,1.42,1.42,0,0,1,.84-.25c.7,0,1.4.48,1.4,1.82v2.47h-1v-2.32c0-.69-.24-1.11-.75-1.11a.81.81,0,0,0-.74.56,2.08,2.08,0,0,0-.05.36v2.51h-1v-2.43c0-.58-.23-1-.72-1a.82.82,0,0,0-.76.61.76.76,0,0,0-.06.34v2.48h-1Z" transform="translate(0.25 0.25)"/><path class="cls-8" d="M163.82,239.05c0-.55,0-1,0-1.39h.92l.06.64h0a1.64,1.64,0,0,1,1.44-.74A1.91,1.91,0,0,1,168,239.7a2,2,0,0,1-1.92,2.24,1.35,1.35,0,0,1-1.17-.56h0v2.17h-1.06Zm1.06,1a1.45,1.45,0,0,0,0,.3,1,1,0,0,0,.93.74c.67,0,1.07-.56,1.07-1.39s-.36-1.34-1-1.34a1,1,0,0,0-1,.78,1.26,1.26,0,0,0,0,.27Z" transform="translate(0.25 0.25)"/><path class="cls-8" d="M172.84,239.71a2.07,2.07,0,0,1-2.15,2.23,2,2,0,0,1-2.1-2.16,2.07,2.07,0,0,1,2.16-2.22A2,2,0,0,1,172.84,239.71Zm-3.16,0c0,.81.39,1.42,1,1.42s1-.6,1-1.44c0-.65-.29-1.4-1-1.4S169.68,239.06,169.68,239.76Z" transform="translate(0.25 0.25)"/><path class="cls-8" d="M173.71,238.91c0-.49,0-.89,0-1.25h.93l.05.63h0a1.5,1.5,0,0,1,1.33-.73c.73,0,1.49.48,1.49,1.8v2.49h-1.06v-2.37c0-.6-.22-1.06-.8-1.06a.92.92,0,0,0-.83.62,1.29,1.29,0,0,0,0,.35v2.46h-1.06Z" transform="translate(0.25 0.25)"/><path class="cls-8" d="M179.37,240.05a1.14,1.14,0,0,0,1.29,1.09,3.18,3.18,0,0,0,1.17-.19l.15.73a4.06,4.06,0,0,1-1.46.26,2,2,0,0,1-2.16-2.12,2.08,2.08,0,0,1,2-2.26,1.82,1.82,0,0,1,1.8,2,2.41,2.41,0,0,1,0,.45Zm1.84-.74a.89.89,0,0,0-.86-1,1,1,0,0,0-1,1Z" transform="translate(0.25 0.25)"/><path class="cls-8" d="M183.06,238.91c0-.49,0-.89,0-1.25H184l0,.63h0a1.5,1.5,0,0,1,1.33-.73c.73,0,1.49.48,1.49,1.8v2.49H185.8v-2.37c0-.6-.22-1.06-.8-1.06a.92.92,0,0,0-.83.62,1.29,1.29,0,0,0,0,.35v2.46h-1.07Z" transform="translate(0.25 0.25)"/><path class="cls-8" d="M189.2,236.46v1.2h1v.79h-1v1.85c0,.51.14.78.54.78a1.32,1.32,0,0,0,.41-.06l0,.81a2.28,2.28,0,0,1-.77.11,1.22,1.22,0,0,1-.91-.35,1.69,1.69,0,0,1-.32-1.17v-2h-.61v-.79h.61v-.95Z" transform="translate(0.25 0.25)"/><path class="cls-8" d="M191,240.88a2.45,2.45,0,0,0,1.08.3c.46,0,.67-.19.67-.47s-.17-.43-.69-.61c-.82-.28-1.16-.73-1.15-1.22a1.4,1.4,0,0,1,1.58-1.32,2.43,2.43,0,0,1,1.11.25l-.2.75a2,2,0,0,0-.89-.24c-.38,0-.59.18-.59.44s.2.4.74.59c.75.27,1.1.66,1.11,1.28s-.59,1.31-1.7,1.31a2.59,2.59,0,0,1-1.27-.3Z" transform="translate(0.25 0.25)"/><path class="cls-8" d="M11.63,159.77a10,10,0,0,1-.12-1.6,2.72,2.72,0,0,1,.46-1.79,1.47,1.47,0,0,1,1.16-.5,1.56,1.56,0,0,1,1.46,1.05h0a1.5,1.5,0,0,1,1.12-.81,11.38,11.38,0,0,0,1.62-.45v1.09a8.49,8.49,0,0,1-1.37.38c-.75.17-1,.44-1,1.05v.53h2.38v1.05Zm2.56-1.05v-.63c0-.71-.38-1.16-.95-1.16s-.93.45-.93,1.14a2.79,2.79,0,0,0,0,.65Z" transform="translate(0.25 0.25)"/><path class="cls-8" d="M15.55,154.17a1.14,1.14,0,0,0,1.09-1.29,3.16,3.16,0,0,0-.19-1.16l.73-.16a3.86,3.86,0,0,1,.26,1.46,2,2,0,0,1-2.12,2.16,2.07,2.07,0,0,1-2.25-2,1.82,1.82,0,0,1,2-1.81,3.79,3.79,0,0,1,.45,0Zm-.74-1.84a.89.89,0,0,0-1,.87,1,1,0,0,0,1,1Z" transform="translate(0.25 0.25)"/><path class="cls-8" d="M11.24,150.48v-1.07h6.11v1.07Z" transform="translate(0.25 0.25)"/><path class="cls-8" d="M17.35,145.91l-.46.07v0a1.59,1.59,0,0,1,.56,1.24,1.25,1.25,0,0,1-1.25,1.32c-1.06,0-1.59-.94-1.59-2.49h-.06c-.28,0-.74.12-.74.86a2.2,2.2,0,0,0,.31,1.12l-.68.21a3,3,0,0,1-.37-1.52A1.57,1.57,0,0,1,14.83,145h1.51a7.38,7.38,0,0,0,1,0Zm-2.05.14c0,.75.15,1.46.79,1.46a.56.56,0,0,0,.6-.6.87.87,0,0,0-.58-.83l-.23,0Z" transform="translate(0.25 0.25)"/><path class="cls-8" d="M12,142.68h1.2v-1H14v1H15.8c.51,0,.78-.13.78-.54a1.32,1.32,0,0,0-.06-.41l.81,0a2.33,2.33,0,0,1,.11.77,1.2,1.2,0,0,1-.35.91,1.69,1.69,0,0,1-1.17.33H14v.6h-.79v-.6h-.95Z" transform="translate(0.25 0.25)"/><path class="cls-8" d="M12,139.75a.6.6,0,0,1,0,1.19.6.6,0,0,1,0-1.19Zm5.36,1.13H13.16v-1.07h4.19Z" transform="translate(0.25 0.25)"/><path class="cls-8" d="M13.16,138l2.13-.68c.37-.12.7-.2,1.05-.28v0c-.35-.07-.68-.17-1.05-.28l-2.13-.66V135l4.19,1.6v1l-4.19,1.56Z" transform="translate(0.25 0.25)"/><path class="cls-8" d="M15.55,133.56a1.14,1.14,0,0,0,1.09-1.29,3.21,3.21,0,0,0-.19-1.17l.73-.15a3.86,3.86,0,0,1,.26,1.46,2,2,0,0,1-2.12,2.16,2.07,2.07,0,0,1-2.25-2,1.81,1.81,0,0,1,2-1.8,2.41,2.41,0,0,1,.45,0Zm-.74-1.85a.91.91,0,0,0-1,.87,1,1,0,0,0,1,1Z" transform="translate(0.25 0.25)"/><path class="cls-8" d="M11.24,128.09V127h6.11v1.07Z" transform="translate(0.25 0.25)"/><path class="cls-8" d="M15.55,125.13a1.14,1.14,0,0,0,1.09-1.29,3.18,3.18,0,0,0-.19-1.17l.73-.15a3.86,3.86,0,0,1,.26,1.46,2,2,0,0,1-2.12,2.16,2.07,2.07,0,0,1-2.25-2,1.81,1.81,0,0,1,2-1.8,2.41,2.41,0,0,1,.45,0Zm-.74-1.85a.91.91,0,0,0-1,.87,1,1,0,0,0,1,1Z" transform="translate(0.25 0.25)"/><path class="cls-8" d="M13.16,120.76l2.13-.68c.37-.12.7-.2,1.05-.28v0c-.35-.07-.68-.17-1.05-.28l-2.13-.66v-1.12l4.19,1.6v1l-4.19,1.56Z" transform="translate(0.25 0.25)"/><path class="cls-8" d="M15.55,116.32A1.14,1.14,0,0,0,16.64,115a3.21,3.21,0,0,0-.19-1.17l.73-.15a3.86,3.86,0,0,1,.26,1.46,2,2,0,0,1-2.12,2.16,2.07,2.07,0,0,1-2.25-2,1.81,1.81,0,0,1,2-1.8,2.41,2.41,0,0,1,.45,0Zm-.74-1.84a.89.89,0,0,0-1,.86,1,1,0,0,0,1,1Z" transform="translate(0.25 0.25)"/><path class="cls-8" d="M11.24,112.63v-1.07h6.11v1.07Z" transform="translate(0.25 0.25)"/><path class="cls-8" d="M15.22,104.65a2.07,2.07,0,0,1,2.23,2.15,2,2,0,0,1-2.16,2.1,2.07,2.07,0,0,1-2.22-2.17A2,2,0,0,1,15.22,104.65Zm0,3.16c.81,0,1.42-.4,1.42-1s-.59-1-1.44-1c-.65,0-1.4.3-1.4,1S14.56,107.81,15.26,107.81Z" transform="translate(0.25 0.25)"/><path class="cls-8" d="M17.35,103.66H14v.57h-.79v-.57H13a1.94,1.94,0,0,1-1.43-.51,1.59,1.59,0,0,1-.4-1.09,2.08,2.08,0,0,1,.1-.68l.82.08a1.1,1.1,0,0,0-.08.45c0,.52.44.7.95.7h.22v-.92H14v.91h3.4Z" transform="translate(0.25 0.25)"/><path class="cls-8" d="M17.35,96.9l-.46.07v0a1.59,1.59,0,0,1,.56,1.24,1.25,1.25,0,0,1-1.25,1.32c-1.06,0-1.59-.94-1.59-2.49h-.06c-.28,0-.74.12-.74.86A2.2,2.2,0,0,0,14.12,99l-.68.21a3,3,0,0,1-.37-1.52A1.57,1.57,0,0,1,14.83,96h1.51a6,6,0,0,0,1-.06ZM15.3,97c0,.75.15,1.46.79,1.46a.56.56,0,0,0,.6-.6.87.87,0,0,0-.58-.83l-.23,0Z" transform="translate(0.25 0.25)"/><path class="cls-8" d="M11.24,94.89V93.82h6.11v1.07Z" transform="translate(0.25 0.25)"/><path class="cls-8" d="M17.35,92.71c-.28,0-.75,0-1.18,0H11.24V91.62h2.5v0a1.5,1.5,0,0,1-.67-1.34c0-1,.85-1.76,2.12-1.75a2,2,0,0,1,2.26,1.9,1.44,1.44,0,0,1-.73,1.33v0l.63,0Zm-1.73-1.09a1,1,0,0,0,.25,0,1,1,0,0,0,.74-.94c0-.66-.53-1.06-1.38-1.06s-1.34.35-1.34,1.06a1,1,0,0,0,.78.93,1,1,0,0,0,.27,0Z" transform="translate(0.25 0.25)"/><path class="cls-8" d="M16.09,83.89q.75,0,1.26,0v.93l-.64,0v0a1.49,1.49,0,0,1,.74,1.34c0,.76-.46,1.46-1.83,1.46H13.16V86.6h2.28c.7,0,1.14-.22,1.14-.78A.9.9,0,0,0,16,85a1.14,1.14,0,0,0-.33-.06H13.16V83.89Z" transform="translate(0.25 0.25)"/><path class="cls-8" d="M14.41,82.75c-.48,0-.89,0-1.25,0v-.91l.62,0v0a1.43,1.43,0,0,1-.71-1.29,1.21,1.21,0,0,1,.77-1.16v0a1.73,1.73,0,0,1-.53-.51,1.44,1.44,0,0,1-.24-.85c0-.69.47-1.4,1.81-1.4h2.47v1H15c-.7,0-1.11.24-1.11.75a.8.8,0,0,0,.56.74,1.29,1.29,0,0,0,.35,0h2.51v1H14.92c-.58,0-1,.23-1,.72a.84.84,0,0,0,.6.76.93.93,0,0,0,.34.06h2.48v1Z" transform="translate(0.25 0.25)"/><path class="cls-8" d="M12,74.33a.59.59,0,1,1-.58.59A.56.56,0,0,1,12,74.33Zm5.36,1.12H13.16V74.39h4.19Z" transform="translate(0.25 0.25)"/><path class="cls-8" d="M14.41,73.25c-.48,0-.89,0-1.25,0v-.93l.63,0v0A1.5,1.5,0,0,1,13.07,71c0-.74.47-1.49,1.79-1.49h2.49v1.06H15c-.6,0-1.05.22-1.05.8a.88.88,0,0,0,.62.82.91.91,0,0,0,.34,0h2.46v1.07Z" transform="translate(0.25 0.25)"/><path class="cls-8" d="M14.41,66.55c-.48,0-.89,0-1.25,0v-.91l.62,0v0a1.43,1.43,0,0,1-.71-1.29,1.21,1.21,0,0,1,.77-1.16v0a1.62,1.62,0,0,1-.53-.51,1.42,1.42,0,0,1-.24-.85c0-.69.47-1.4,1.81-1.4h2.47v1H15c-.7,0-1.11.25-1.11.75a.8.8,0,0,0,.56.74,1.29,1.29,0,0,0,.35,0h2.51v1H14.92c-.58,0-1,.23-1,.72a.83.83,0,0,0,.6.76.93.93,0,0,0,.34.06h2.48v1Z" transform="translate(0.25 0.25)"/><path class="cls-8" d="M11.63,59.21a9.87,9.87,0,0,1-.12-1.6A2.74,2.74,0,0,1,12,55.82a1.47,1.47,0,0,1,1.16-.5,1.56,1.56,0,0,1,1.46,1h0a1.5,1.5,0,0,1,1.12-.81,11.38,11.38,0,0,0,1.62-.45V56.2a8.1,8.1,0,0,1-1.37.39c-.75.16-1,.44-1,1v.53h2.38v1.05Zm2.56-1.05v-.63c0-.71-.38-1.16-.95-1.16s-.93.45-.93,1.14a2.79,2.79,0,0,0,0,.65Z" transform="translate(0.25 0.25)"/><path class="cls-8" d="M17.35,54.32h-5.8V53.11L14,51.61a15.36,15.36,0,0,1,1.94-1v0c-.77.07-1.52.09-2.41.09h-2v-1h5.8v1.09L14.8,52.33a19,19,0,0,1-2,1v0c.75,0,1.51-.06,2.47-.06h2.07Z" transform="translate(0.25 0.25)"/><path class="cls-8" d="M15.71,47.34l1.64.5v1.09l-5.8-1.86V45.72l5.8-1.88V45l-1.64.53Zm-.8-1.66-1.43.46c-.35.11-.75.2-1.09.29h0c.34.09.74.18,1.09.28l1.43.45Z" transform="translate(0.25 0.25)"/><path class="cls-8" d="M29.65,55.3c0,1.91-.71,3-1.95,3-1.09,0-1.83-1-1.85-2.88s.81-2.91,1.95-2.91S29.65,53.52,29.65,55.3Zm-3,.09c0,1.46.45,2.28,1.14,2.28s1.14-.9,1.14-2.33-.35-2.28-1.14-2.28S26.61,53.87,26.61,55.39Z" transform="translate(0.25 0.25)"/><path class="cls-8" d="M30.4,57.71a.52.52,0,0,1,.52-.54.55.55,0,0,1,0,1.09A.52.52,0,0,1,30.4,57.71Z" transform="translate(0.25 0.25)"/><path class="cls-8" d="M32.05,56.74a1.62,1.62,0,0,1,1.12-1.5v0A1.39,1.39,0,0,1,32.27,54,1.57,1.57,0,0,1,34,52.47a1.4,1.4,0,0,1,.71,2.69v0a1.56,1.56,0,0,1,1.12,1.45,1.72,1.72,0,0,1-1.9,1.63C32.76,58.26,32.05,57.56,32.05,56.74Zm3,0c0-.68-.48-1-1.23-1.22a1.2,1.2,0,0,0-1,1.15A1,1,0,0,0,34,57.71,1,1,0,0,0,35.07,56.71ZM33,53.91c0,.56.43.86,1.07,1a1.09,1.09,0,0,0,.85-1A.86.86,0,0,0,34,53,.89.89,0,0,0,33,53.91Z" transform="translate(0.25 0.25)"/><path class="cls-8" d="M40.25,55.3c0,1.91-.7,3-1.94,3s-1.83-1-1.85-2.88.81-2.91,1.94-2.91S40.25,53.52,40.25,55.3Zm-3,.09c0,1.46.44,2.28,1.13,2.28s1.15-.9,1.15-2.33-.36-2.28-1.14-2.28S37.22,53.87,37.22,55.39Z" transform="translate(0.25 0.25)"/><path class="cls-8" d="M27.57,17.43h0l-1,.52-.14-.57,1.22-.66h.65v5.6h-.74Z" transform="translate(0.25 0.25)"/><path class="cls-8" d="M30.4,21.87a.51.51,0,0,1,.52-.54.54.54,0,0,1,0,1.08A.51.51,0,0,1,30.4,21.87Z" transform="translate(0.25 0.25)"/><path class="cls-8" d="M35.84,19.46c0,1.9-.7,2.95-1.94,2.95s-1.84-1-1.85-2.87.8-2.91,1.94-2.91S35.84,17.68,35.84,19.46Zm-3,.09c0,1.45.45,2.28,1.14,2.28s1.14-.91,1.14-2.34-.35-2.28-1.13-2.28S32.8,18,32.8,19.55Z" transform="translate(0.25 0.25)"/><path class="cls-8" d="M40.25,19.46c0,1.9-.7,2.95-1.94,2.95s-1.83-1-1.85-2.87.81-2.91,1.94-2.91S40.25,17.68,40.25,19.46Zm-3,.09c0,1.45.44,2.28,1.13,2.28s1.15-.91,1.15-2.34-.36-2.28-1.14-2.28S37.22,18,37.22,19.55Z" transform="translate(0.25 0.25)"/><path class="cls-8" d="M29.65,89.55c0,1.9-.71,3-1.95,3-1.09,0-1.83-1-1.85-2.87s.81-2.91,1.95-2.91S29.65,87.77,29.65,89.55Zm-3,.09c0,1.45.45,2.28,1.14,2.28s1.14-.91,1.14-2.33-.35-2.28-1.14-2.28S26.61,88.11,26.61,89.64Z" transform="translate(0.25 0.25)"/><path class="cls-8" d="M30.4,92a.51.51,0,0,1,.52-.54.54.54,0,0,1,0,1.08A.51.51,0,0,1,30.4,92Z" transform="translate(0.25 0.25)"/><path class="cls-8" d="M35.32,87.35a2.9,2.9,0,0,0-.57,0,2.28,2.28,0,0,0-2,2h0a1.71,1.71,0,0,1,3,1.16,1.87,1.87,0,0,1-1.86,2c-1.2,0-2-.93-2-2.38A3.52,3.52,0,0,1,33,87.6a3,3,0,0,1,1.79-.83,4.16,4.16,0,0,1,.55,0Zm-.22,3.23A1.14,1.14,0,0,0,34,89.29a1.26,1.26,0,0,0-1.09.69.68.68,0,0,0-.08.34c0,.92.44,1.6,1.23,1.6S35.1,91.38,35.1,90.58Z" transform="translate(0.25 0.25)"/><path class="cls-8" d="M40.25,89.55c0,1.9-.7,3-1.94,3s-1.83-1-1.85-2.87.81-2.91,1.94-2.91S40.25,87.77,40.25,89.55Zm-3,.09c0,1.45.44,2.28,1.13,2.28S39.5,91,39.5,89.59s-.36-2.28-1.14-2.28S37.22,88.11,37.22,89.64Z" transform="translate(0.25 0.25)"/><path class="cls-8" d="M29.65,123.8c0,1.9-.71,3-1.95,3-1.09,0-1.83-1-1.85-2.88S26.66,121,27.8,121,29.65,122,29.65,123.8Zm-3,.08c0,1.46.45,2.28,1.14,2.28s1.14-.9,1.14-2.33-.35-2.28-1.14-2.28S26.61,122.36,26.61,123.88Z" transform="translate(0.25 0.25)"/><path class="cls-8" d="M30.4,126.21a.52.52,0,0,1,.52-.55.51.51,0,0,1,.51.55.52.52,0,1,1-1,0Z" transform="translate(0.25 0.25)"/><path class="cls-8" d="M34.46,126.65v-1.52H31.87v-.5l2.49-3.57h.82v3.48H36v.59h-.78v1.52Zm0-2.11v-1.87c0-.29,0-.59,0-.88h0c-.17.33-.3.57-.46.83l-1.37,1.9v0Z" transform="translate(0.25 0.25)"/><path class="cls-8" d="M40.25,123.8c0,1.9-.7,3-1.94,3s-1.83-1-1.85-2.88S37.27,121,38.4,121,40.25,122,40.25,123.8Zm-3,.08c0,1.46.44,2.28,1.13,2.28s1.15-.9,1.15-2.33-.36-2.28-1.14-2.28S37.22,122.36,37.22,123.88Z" transform="translate(0.25 0.25)"/><path class="cls-8" d="M29.65,158c0,1.9-.71,3-1.95,3-1.09,0-1.83-1-1.85-2.87s.81-2.91,1.95-2.91S29.65,156.26,29.65,158Zm-3,.09c0,1.45.45,2.28,1.14,2.28s1.14-.91,1.14-2.33-.35-2.29-1.14-2.29S26.61,156.6,26.61,158.13Z" transform="translate(0.25 0.25)"/><path class="cls-8" d="M30.4,160.45a.51.51,0,0,1,.52-.54.54.54,0,0,1,0,1.08A.51.51,0,0,1,30.4,160.45Z" transform="translate(0.25 0.25)"/><path class="cls-8" d="M32.12,160.9v-.47l.6-.57c1.43-1.36,2.07-2.09,2.08-2.93a1,1,0,0,0-1.11-1.09,1.94,1.94,0,0,0-1.19.47l-.24-.53a2.45,2.45,0,0,1,1.59-.57,1.58,1.58,0,0,1,1.71,1.63c0,1-.75,1.86-1.93,3l-.45.41v0H35.7v.63Z" transform="translate(0.25 0.25)"/><path class="cls-8" d="M40.25,158c0,1.9-.7,3-1.94,3s-1.83-1-1.85-2.87.81-2.91,1.94-2.91S40.25,156.26,40.25,158Zm-3,.09c0,1.45.44,2.28,1.13,2.28s1.15-.91,1.15-2.33-.36-2.29-1.14-2.29S37.22,156.6,37.22,158.13Z" transform="translate(0.25 0.25)"/><path class="cls-8" d="M241.69,194.11v2.43h2.81v-2.43h.75v5.8h-.75v-2.72h-2.81v2.72h-.75v-5.8Z" transform="translate(0.25 0.25)"/><path class="cls-8" d="M246.45,199a2.68,2.68,0,0,0,1.34.38c.76,0,1.21-.41,1.21-1s-.31-.85-1.09-1.16c-.95-.33-1.53-.82-1.53-1.64a1.67,1.67,0,0,1,1.87-1.58,2.61,2.61,0,0,1,1.29.29l-.21.61a2.35,2.35,0,0,0-1.1-.28c-.79,0-1.1.48-1.1.87,0,.55.36.81,1.16,1.12,1,.38,1.48.85,1.48,1.71s-.66,1.67-2,1.67a3.07,3.07,0,0,1-1.48-.37Z" transform="translate(0.25 0.25)"/><path class="cls-8" d="M250.79,194.18a8.78,8.78,0,0,1,1.44-.11,2.36,2.36,0,0,1,1.62.48,1.55,1.55,0,0,1,.51,1.21,1.67,1.67,0,0,1-.45,1.24,2.4,2.4,0,0,1-1.77.64,2.74,2.74,0,0,1-.6,0v2.32h-.75Zm.75,2.8a2.65,2.65,0,0,0,.62.06c.9,0,1.45-.44,1.45-1.24s-.54-1.14-1.36-1.14a3.48,3.48,0,0,0-.71.06Z" transform="translate(0.25 0.25)"/><path class="cls-8" d="M259.78,199.65A5.33,5.33,0,0,1,258,200a2.73,2.73,0,0,1-3-2.93,2.91,2.91,0,0,1,3.15-3,3.56,3.56,0,0,1,1.44.27l-.18.61a3,3,0,0,0-1.28-.25,2.17,2.17,0,0,0-2.33,2.33,2.12,2.12,0,0,0,2.23,2.34,2.58,2.58,0,0,0,1-.15v-1.73h-1.18v-.61h1.91Z" transform="translate(0.25 0.25)"/><path class="cls-8" d="M243.22,209.59l-.06-.53h0a1.52,1.52,0,0,1-1.27.62,1.18,1.18,0,0,1-1.27-1.19c0-1,.89-1.56,2.5-1.55v-.09a.85.85,0,0,0-.94-1,2.08,2.08,0,0,0-1.09.31l-.17-.5a2.6,2.6,0,0,1,1.37-.37c1.27,0,1.58.87,1.58,1.7v1.56a6.11,6.11,0,0,0,.07,1Zm-.11-2.13c-.83,0-1.76.13-1.76.94a.66.66,0,0,0,.71.72,1,1,0,0,0,1-.69,1.09,1.09,0,0,0,0-.24Z" transform="translate(0.25 0.25)"/><path class="cls-8" d="M245.06,203.48h.76v6.11h-.76Z" transform="translate(0.25 0.25)"/><path class="cls-8" d="M250.86,207.47a2,2,0,0,1-2.07,2.21,2,2,0,0,1-2-2.14,2,2,0,0,1,2.07-2.21A2,2,0,0,1,250.86,207.47Zm-3.3,0c0,.92.52,1.61,1.26,1.61s1.27-.68,1.27-1.62c0-.71-.36-1.6-1.25-1.6S247.56,206.72,247.56,207.51Z" transform="translate(0.25 0.25)"/><path class="cls-8" d="M251.81,206.55c0-.43,0-.78,0-1.13h.67l0,.69h0a1.55,1.55,0,0,1,1.38-.78c.57,0,1.47.34,1.47,1.77v2.49h-.76v-2.4c0-.67-.25-1.23-1-1.23a1.08,1.08,0,0,0-1,.77,1.29,1.29,0,0,0-.05.35v2.51h-.76Z" transform="translate(0.25 0.25)"/><path class="cls-8" d="M257,207.64a1.34,1.34,0,0,0,1.43,1.45,2.73,2.73,0,0,0,1.15-.21l.13.54a3.36,3.36,0,0,1-1.38.25,1.93,1.93,0,0,1-2-2.09,2,2,0,0,1,1.95-2.25,1.76,1.76,0,0,1,1.72,2,2.61,2.61,0,0,1,0,.35Zm2.22-.54a1.08,1.08,0,0,0-1.05-1.23A1.26,1.26,0,0,0,257,207.1Z" transform="translate(0.25 0.25)"/><path class="cls-8" d="M191.83,194.75h-1.77v-.64h4.3v.64h-1.78v5.16h-.75Z" transform="translate(0.25 0.25)"/><path class="cls-8" d="M194.91,195.75l.91,2.46c.09.27.2.6.27.85h0c.08-.25.17-.57.27-.87l.83-2.44h.8l-1.14,3a6.29,6.29,0,0,1-1.43,2.61,2,2,0,0,1-.93.49l-.19-.64a1.89,1.89,0,0,0,.67-.37,2.27,2.27,0,0,0,.63-.84.46.46,0,0,0,.06-.18.55.55,0,0,0,0-.2l-1.54-3.83Z" transform="translate(0.25 0.25)"/><path class="cls-8" d="M198.68,197.1c0-.53,0-1,0-1.35h.68l0,.71h0a1.63,1.63,0,0,1,1.48-.81,1.89,1.89,0,0,1,1.77,2.12,2,2,0,0,1-1.9,2.23,1.46,1.46,0,0,1-1.28-.65h0v2.26h-.75Zm.75,1.11a1.37,1.37,0,0,0,0,.31,1.15,1.15,0,0,0,1.13.89c.8,0,1.27-.65,1.27-1.61s-.44-1.55-1.24-1.55a1.21,1.21,0,0,0-1.15.94,1.67,1.67,0,0,0,0,.31Z" transform="translate(0.25 0.25)"/><path class="cls-8" d="M204,198a1.34,1.34,0,0,0,1.43,1.45,2.73,2.73,0,0,0,1.15-.21l.13.54a3.37,3.37,0,0,1-1.38.26,1.94,1.94,0,0,1-2.05-2.1,2,2,0,0,1,1.95-2.25,1.76,1.76,0,0,1,1.72,2c0,.16,0,.28,0,.35Zm2.22-.54a1.08,1.08,0,0,0-1.05-1.23,1.25,1.25,0,0,0-1.16,1.23Z" transform="translate(0.25 0.25)"/><path class="cls-8" d="M210.49,194.11v5.8h-.75v-5.8Z" transform="translate(0.25 0.25)"/><path class="cls-8" d="M213.07,199.91l-1.9-5.8H212l.91,2.86c.25.78.46,1.49.62,2.17h0c.17-.68.41-1.41.67-2.16l1-2.87h.8l-2.08,5.8Z" transform="translate(0.25 0.25)"/><path class="cls-8" d="M191.29,209.43a2.72,2.72,0,0,1-1.2.24,2,2,0,0,1-2.07-2.12,2.12,2.12,0,0,1,2.24-2.21,2.6,2.6,0,0,1,1.05.21l-.18.59a1.63,1.63,0,0,0-.87-.2,1.57,1.57,0,0,0,0,3.13,2.22,2.22,0,0,0,.93-.2Z" transform="translate(0.25 0.25)"/><path class="cls-8" d="M195.89,207.47a2,2,0,0,1-2.07,2.21,2,2,0,0,1-2-2.14,2,2,0,0,1,2.07-2.21A2,2,0,0,1,195.89,207.47Zm-3.3,0c0,.92.52,1.61,1.26,1.61s1.27-.68,1.27-1.62c0-.71-.35-1.6-1.25-1.6S192.59,206.72,192.59,207.51Z" transform="translate(0.25 0.25)"/><path class="cls-8" d="M196.85,203.48h.75v6.11h-.75Z" transform="translate(0.25 0.25)"/><path class="cls-8" d="M198.88,203.48h.75v6.11h-.75Z" transform="translate(0.25 0.25)"/><path class="cls-8" d="M203.21,209.59l-.06-.53h0a1.56,1.56,0,0,1-1.28.62,1.18,1.18,0,0,1-1.27-1.19c0-1,.89-1.56,2.5-1.55v-.09a.85.85,0,0,0-.94-1,2.1,2.1,0,0,0-1.09.31l-.17-.5a2.63,2.63,0,0,1,1.37-.37c1.27,0,1.58.87,1.58,1.7v1.56a6.11,6.11,0,0,0,.07,1Zm-.11-2.13c-.82,0-1.76.13-1.76.94a.66.66,0,0,0,.71.72,1,1,0,0,0,1-.69,1.09,1.09,0,0,0,0-.24Z" transform="translate(0.25 0.25)"/><path class="cls-8" d="M208.64,205.42c0,.3,0,.64,0,1.15V209a2.38,2.38,0,0,1-.6,1.9,2.19,2.19,0,0,1-1.51.5,2.66,2.66,0,0,1-1.39-.35l.19-.57a2.41,2.41,0,0,0,1.23.32c.77,0,1.34-.4,1.34-1.45v-.46h0a1.49,1.49,0,0,1-1.32.69,1.86,1.86,0,0,1-1.78-2,2,2,0,0,1,1.88-2.21,1.39,1.39,0,0,1,1.3.72h0l0-.63Zm-.78,1.65a1.29,1.29,0,0,0,0-.35,1.09,1.09,0,0,0-1.06-.8c-.72,0-1.24.61-1.24,1.58,0,.82.41,1.5,1.23,1.5a1.13,1.13,0,0,0,1.05-.78,1.39,1.39,0,0,0,.06-.4Z" transform="translate(0.25 0.25)"/><path class="cls-8" d="M210.28,207.64a1.34,1.34,0,0,0,1.43,1.45,2.82,2.82,0,0,0,1.16-.21l.13.54a3.46,3.46,0,0,1-1.39.25,1.93,1.93,0,0,1-2.05-2.09,2,2,0,0,1,2-2.25,1.76,1.76,0,0,1,1.72,2,2.25,2.25,0,0,1,0,.35Zm2.22-.54a1.07,1.07,0,0,0-1-1.23,1.26,1.26,0,0,0-1.17,1.23Z" transform="translate(0.25 0.25)"/><path class="cls-8" d="M214.17,206.55c0-.43,0-.78,0-1.13h.67l0,.69h0a1.55,1.55,0,0,1,1.38-.78c.57,0,1.47.34,1.47,1.77v2.49H217v-2.4c0-.67-.25-1.23-1-1.23a1.08,1.08,0,0,0-1,.77,1.29,1.29,0,0,0,0,.35v2.51h-.76Z" transform="translate(0.25 0.25)"/><path class="cls-8" d="M196,219.27l-.06-.53h0a1.54,1.54,0,0,1-1.27.62,1.19,1.19,0,0,1-1.28-1.19c0-1,.9-1.56,2.51-1.55v-.09a.86.86,0,0,0-.95-1,2.07,2.07,0,0,0-1.08.31l-.17-.5A2.5,2.5,0,0,1,195,215c1.28,0,1.59.87,1.59,1.7v1.56a5.17,5.17,0,0,0,.07,1Zm-.11-2.13c-.83,0-1.77.13-1.77.94a.67.67,0,0,0,.72.72,1,1,0,0,0,1-.7.64.64,0,0,0,.05-.24Z" transform="translate(0.25 0.25)"/><path class="cls-8" d="M197.79,213.16h.76v6.11h-.76Z" transform="translate(0.25 0.25)"/><path class="cls-8" d="M203.59,217.15a2,2,0,0,1-2.08,2.21,2,2,0,0,1-2-2.14,2,2,0,0,1,2.06-2.21A2,2,0,0,1,203.59,217.15Zm-3.31,0c0,.91.53,1.6,1.27,1.6s1.26-.68,1.26-1.61c0-.71-.35-1.61-1.24-1.61S200.28,216.4,200.28,217.19Z" transform="translate(0.25 0.25)"/><path class="cls-8" d="M204.54,216.23c0-.43,0-.78,0-1.13h.67l0,.69h0a1.53,1.53,0,0,1,1.38-.78c.57,0,1.47.34,1.47,1.77v2.49h-.76v-2.4c0-.68-.25-1.24-1-1.24a1.09,1.09,0,0,0-1,.78,1.18,1.18,0,0,0,0,.35v2.51h-.76Z" transform="translate(0.25 0.25)"/><path class="cls-8" d="M209.74,217.32a1.33,1.33,0,0,0,1.43,1.45,2.71,2.71,0,0,0,1.15-.22l.13.54a3.38,3.38,0,0,1-1.39.26,1.93,1.93,0,0,1-2-2.1A2,2,0,0,1,211,215a1.76,1.76,0,0,1,1.72,2,2.53,2.53,0,0,1,0,.35Zm2.22-.54a1.08,1.08,0,0,0-1.05-1.23,1.25,1.25,0,0,0-1.16,1.23Z" transform="translate(0.25 0.25)"/><path class="cls-8" d="M143.34,194.11h.75v5.17h2.48v.63h-3.23Z" transform="translate(0.25 0.25)"/><path class="cls-8" d="M149.68,199.91l-.06-.53h0a1.56,1.56,0,0,1-1.28.62,1.18,1.18,0,0,1-1.27-1.19c0-1,.89-1.56,2.5-1.55v-.09a.85.85,0,0,0-.94-1,2.1,2.1,0,0,0-1.09.31l-.17-.5a2.6,2.6,0,0,1,1.37-.37c1.27,0,1.58.87,1.58,1.7v1.56a6,6,0,0,0,.07,1Zm-.11-2.13c-.83,0-1.76.13-1.76.94a.67.67,0,0,0,.71.73,1,1,0,0,0,1-.7,1.09,1.09,0,0,0,0-.24Z" transform="translate(0.25 0.25)"/><path class="cls-8" d="M151.52,196.87c0-.43,0-.78,0-1.12h.66l0,.67h0a1.43,1.43,0,0,1,1.31-.77,1.22,1.22,0,0,1,1.18.84h0a1.59,1.59,0,0,1,.46-.55,1.43,1.43,0,0,1,.92-.29c.55,0,1.37.36,1.37,1.81v2.45h-.74v-2.36c0-.8-.29-1.28-.9-1.28a1,1,0,0,0-.9.69,1.38,1.38,0,0,0-.06.38v2.57h-.74v-2.5c0-.66-.29-1.14-.87-1.14a1,1,0,0,0-.94.76,1.1,1.1,0,0,0-.06.37v2.51h-.74Z" transform="translate(0.25 0.25)"/><path class="cls-8" d="M159.54,194.57a.45.45,0,0,1-.48.47.45.45,0,0,1-.46-.47.47.47,0,0,1,.48-.47A.45.45,0,0,1,159.54,194.57Zm-.84,5.34v-4.16h.76v4.16Z" transform="translate(0.25 0.25)"/><path class="cls-8" d="M160.71,196.87c0-.43,0-.78,0-1.12h.67l0,.68h0a1.54,1.54,0,0,1,1.38-.78c.57,0,1.47.34,1.47,1.77v2.49h-.76v-2.4c0-.67-.25-1.23-1-1.23a1.08,1.08,0,0,0-1,.77,1.3,1.3,0,0,0-.05.36v2.5h-.76Z" transform="translate(0.25 0.25)"/><path class="cls-8" d="M166.33,194.57a.45.45,0,0,1-.48.47.45.45,0,0,1-.46-.47.46.46,0,0,1,.47-.47A.45.45,0,0,1,166.33,194.57Zm-.84,5.34v-4.16h.75v4.16Z" transform="translate(0.25 0.25)"/><path class="cls-8" d="M167.5,196.87c0-.43,0-.78,0-1.12h.67l.05.68h0a1.52,1.52,0,0,1,1.37-.78c.58,0,1.47.34,1.47,1.77v2.49h-.75v-2.4c0-.67-.25-1.23-1-1.23a1.07,1.07,0,0,0-1,.77,1,1,0,0,0-.05.36v2.5h-.76Z" transform="translate(0.25 0.25)"/><path class="cls-8" d="M150.11,209.59l-.06-.53h0a1.54,1.54,0,0,1-1.27.62,1.18,1.18,0,0,1-1.27-1.19c0-1,.89-1.56,2.5-1.55v-.09a.86.86,0,0,0-.95-1,2.07,2.07,0,0,0-1.08.31l-.17-.5a2.59,2.59,0,0,1,1.36-.37c1.28,0,1.59.87,1.59,1.7v1.56a6.11,6.11,0,0,0,.07,1Zm-.11-2.13c-.83,0-1.77.13-1.77.94a.67.67,0,0,0,.72.72,1,1,0,0,0,1-.69.74.74,0,0,0,.05-.24Z" transform="translate(0.25 0.25)"/><path class="cls-8" d="M152,203.48h.76v6.11H152Z" transform="translate(0.25 0.25)"/><path class="cls-8" d="M157.75,207.47a2,2,0,0,1-2.08,2.21,2,2,0,0,1-2-2.14,2,2,0,0,1,2.06-2.21A2,2,0,0,1,157.75,207.47Zm-3.31,0c0,.92.53,1.61,1.27,1.61s1.26-.68,1.26-1.62c0-.71-.35-1.6-1.24-1.6S154.44,206.72,154.44,207.51Z" transform="translate(0.25 0.25)"/><path class="cls-8" d="M158.7,206.55c0-.43,0-.78,0-1.13h.67l0,.69h0a1.55,1.55,0,0,1,1.38-.78c.57,0,1.47.34,1.47,1.77v2.49h-.76v-2.4c0-.67-.25-1.23-1-1.23a1.08,1.08,0,0,0-1,.77,1.29,1.29,0,0,0,0,.35v2.51h-.76Z" transform="translate(0.25 0.25)"/><path class="cls-8" d="M163.9,207.64a1.34,1.34,0,0,0,1.43,1.45,2.73,2.73,0,0,0,1.15-.21l.13.54a3.42,3.42,0,0,1-1.39.25,1.92,1.92,0,0,1-2-2.09,2,2,0,0,1,1.95-2.25,1.76,1.76,0,0,1,1.72,2,2.25,2.25,0,0,1,0,.35Zm2.22-.54a1.08,1.08,0,0,0-1.05-1.23,1.25,1.25,0,0,0-1.16,1.23Z" transform="translate(0.25 0.25)"/><path class="cls-8" d="M95.89,194.11h.75v5.17h2.48v.63H95.89Z" transform="translate(0.25 0.25)"/><path class="cls-8" d="M102.24,199.91l-.06-.53h0a1.54,1.54,0,0,1-1.27.62,1.19,1.19,0,0,1-1.28-1.19c0-1,.9-1.56,2.51-1.55v-.09a.86.86,0,0,0-1-1,2,2,0,0,0-1.08.31l-.18-.5a2.65,2.65,0,0,1,1.37-.37c1.28,0,1.59.87,1.59,1.7v1.56a6.11,6.11,0,0,0,.06,1Zm-.12-2.13c-.82,0-1.76.13-1.76.94a.68.68,0,0,0,.71.73,1,1,0,0,0,1-.7.71.71,0,0,0,0-.24Z" transform="translate(0.25 0.25)"/><path class="cls-8" d="M104.08,196.87c0-.43,0-.78,0-1.12h.66l0,.67h0a1.44,1.44,0,0,1,1.31-.77,1.22,1.22,0,0,1,1.18.84h0a1.71,1.71,0,0,1,.46-.55,1.43,1.43,0,0,1,.92-.29c.56,0,1.37.36,1.37,1.81v2.45h-.74v-2.36c0-.8-.29-1.28-.9-1.28a1,1,0,0,0-.9.69,1.38,1.38,0,0,0-.06.38v2.57h-.74v-2.5c0-.66-.29-1.14-.87-1.14a1,1,0,0,0-.93.76.9.9,0,0,0-.06.37v2.51h-.74Z" transform="translate(0.25 0.25)"/><path class="cls-8" d="M112.09,194.57a.47.47,0,1,1-.93,0,.46.46,0,0,1,.47-.47A.45.45,0,0,1,112.09,194.57Zm-.84,5.34v-4.16H112v4.16Z" transform="translate(0.25 0.25)"/><path class="cls-8" d="M113.26,196.87c0-.43,0-.78,0-1.12h.67l0,.68h0a1.55,1.55,0,0,1,1.38-.78c.57,0,1.47.34,1.47,1.77v2.49h-.76v-2.4c0-.67-.25-1.23-1-1.23a1.08,1.08,0,0,0-1,.77,1.3,1.3,0,0,0,0,.36v2.5h-.76Z" transform="translate(0.25 0.25)"/><path class="cls-8" d="M118.88,194.57a.45.45,0,0,1-.48.47.45.45,0,0,1-.46-.47.47.47,0,0,1,.48-.47A.45.45,0,0,1,118.88,194.57Zm-.84,5.34v-4.16h.76v4.16Z" transform="translate(0.25 0.25)"/><path class="cls-8" d="M120.05,196.87c0-.43,0-.78,0-1.12h.67l0,.68h0a1.55,1.55,0,0,1,1.38-.78c.57,0,1.47.34,1.47,1.77v2.49h-.76v-2.4c0-.67-.25-1.23-1-1.23a1.08,1.08,0,0,0-1,.77,1.3,1.3,0,0,0,0,.36v2.5h-.76Z" transform="translate(0.25 0.25)"/><path class="cls-8" d="M124.34,201a12.93,12.93,0,0,0,.51-2.06l.85-.08a10.83,10.83,0,0,1-.82,2.09Z" transform="translate(0.25 0.25)"/><path class="cls-8" d="M99.72,204.23v1.19h1.08V206H99.72v2.25c0,.51.15.81.57.81a1.55,1.55,0,0,0,.44-.06l0,.57a1.89,1.89,0,0,1-.67.1,1.08,1.08,0,0,1-.82-.31,1.6,1.6,0,0,1-.29-1.09V206h-.65v-.58H99v-1Z" transform="translate(0.25 0.25)"/><path class="cls-8" d="M102,205.42l.91,2.46c.09.28.2.61.27.86h0c.08-.25.17-.57.27-.87l.83-2.45h.8l-1.14,3a6.29,6.29,0,0,1-1.43,2.61,2,2,0,0,1-.93.49l-.19-.64a2.07,2.07,0,0,0,.67-.37,2.27,2.27,0,0,0,.63-.84.46.46,0,0,0,.06-.18.55.55,0,0,0,0-.2l-1.54-3.84Z" transform="translate(0.25 0.25)"/><path class="cls-8" d="M105.78,206.78c0-.53,0-1,0-1.36h.68l0,.72h0a1.63,1.63,0,0,1,1.48-.81,1.88,1.88,0,0,1,1.76,2.12,2,2,0,0,1-1.89,2.23,1.46,1.46,0,0,1-1.28-.65h0v2.26h-.75Zm.75,1.11a1.37,1.37,0,0,0,0,.31,1.15,1.15,0,0,0,1.13.89c.8,0,1.27-.65,1.27-1.61s-.44-1.55-1.24-1.55a1.21,1.21,0,0,0-1.15.94,1.54,1.54,0,0,0,0,.31Z" transform="translate(0.25 0.25)"/><path class="cls-8" d="M111.1,207.64a1.34,1.34,0,0,0,1.43,1.45,2.73,2.73,0,0,0,1.15-.21l.13.54a3.42,3.42,0,0,1-1.39.25,1.92,1.92,0,0,1-2-2.09,2,2,0,0,1,2-2.25,1.76,1.76,0,0,1,1.72,2c0,.16,0,.28,0,.35Zm2.22-.54a1.08,1.08,0,0,0-1-1.23,1.25,1.25,0,0,0-1.16,1.23Z" transform="translate(0.25 0.25)"/><path class="cls-8" d="M117.59,203.79v5.8h-.75v-5.8Z" transform="translate(0.25 0.25)"/><path class="cls-8" d="M120.17,209.59l-1.9-5.8h.81l.91,2.86c.25.78.46,1.48.62,2.16h0c.17-.67.41-1.4.67-2.16l1-2.86h.8l-2.08,5.8Z" transform="translate(0.25 0.25)"/><path class="cls-8" d="M98,219.11a2.78,2.78,0,0,1-1.19.24,2,2,0,0,1-2.08-2.12A2.11,2.11,0,0,1,97,215a2.6,2.6,0,0,1,1,.21l-.17.59a1.7,1.7,0,0,0-.88-.2,1.57,1.57,0,0,0,0,3.13,2,2,0,0,0,.93-.21Z" transform="translate(0.25 0.25)"/><path class="cls-8" d="M102.61,217.15a2,2,0,0,1-2.08,2.21,2,2,0,0,1-2-2.14A2,2,0,0,1,100.6,215,2,2,0,0,1,102.61,217.15Zm-3.31,0c0,.91.53,1.6,1.27,1.6s1.26-.68,1.26-1.61c0-.71-.35-1.61-1.25-1.61S99.3,216.4,99.3,217.19Z" transform="translate(0.25 0.25)"/><path class="cls-8" d="M103.56,213.16h.76v6.11h-.76Z" transform="translate(0.25 0.25)"/><path class="cls-8" d="M105.59,213.16h.76v6.11h-.76Z" transform="translate(0.25 0.25)"/><path class="cls-8" d="M109.93,219.27l-.06-.53h0a1.54,1.54,0,0,1-1.27.62,1.19,1.19,0,0,1-1.28-1.19c0-1,.9-1.56,2.51-1.55v-.09a.86.86,0,0,0-1-1,2,2,0,0,0-1.08.31l-.18-.5A2.56,2.56,0,0,1,109,215c1.28,0,1.59.87,1.59,1.7v1.56a5.17,5.17,0,0,0,.07,1Zm-.12-2.13c-.82,0-1.76.13-1.76.94a.67.67,0,0,0,.72.72,1,1,0,0,0,1-.7.64.64,0,0,0,0-.24Z" transform="translate(0.25 0.25)"/><path class="cls-8" d="M115.36,215.1c0,.3,0,.64,0,1.15v2.41a2.42,2.42,0,0,1-.59,1.91,2.27,2.27,0,0,1-1.52.5,2.69,2.69,0,0,1-1.38-.35l.19-.58a2.24,2.24,0,0,0,1.22.33c.77,0,1.34-.4,1.34-1.45v-.47h0a1.48,1.48,0,0,1-1.32.7,1.86,1.86,0,0,1-1.77-2,2,2,0,0,1,1.87-2.21,1.39,1.39,0,0,1,1.3.72h0l0-.63Zm-.79,1.65a1.25,1.25,0,0,0,0-.35,1.09,1.09,0,0,0-1.06-.8c-.72,0-1.24.61-1.24,1.58,0,.81.41,1.49,1.23,1.49a1.1,1.1,0,0,0,1.05-.77,1.17,1.17,0,0,0,.06-.41Z" transform="translate(0.25 0.25)"/><path class="cls-8" d="M117,217.32a1.33,1.33,0,0,0,1.43,1.45,2.71,2.71,0,0,0,1.15-.22l.13.54a3.38,3.38,0,0,1-1.39.26,1.94,1.94,0,0,1-2-2.1,2,2,0,0,1,2-2.24,1.76,1.76,0,0,1,1.72,2,2.53,2.53,0,0,1,0,.35Zm2.22-.54a1.08,1.08,0,0,0-1-1.23,1.25,1.25,0,0,0-1.16,1.23Z" transform="translate(0.25 0.25)"/><path class="cls-8" d="M120.89,216.23c0-.43,0-.78,0-1.13h.67l0,.69h0A1.53,1.53,0,0,1,123,215c.58,0,1.47.34,1.47,1.77v2.49h-.76v-2.4c0-.68-.25-1.24-1-1.24a1.09,1.09,0,0,0-1,.78,1.18,1.18,0,0,0,0,.35v2.51h-.75Z" transform="translate(0.25 0.25)"/><path class="cls-8" d="M125.17,220.33a12.91,12.91,0,0,0,.52-2.06l.84-.09a10.58,10.58,0,0,1-.82,2.09Z" transform="translate(0.25 0.25)"/><path class="cls-8" d="M95.75,229l-.06-.53h0a1.54,1.54,0,0,1-1.28.62,1.18,1.18,0,0,1-1.27-1.2c0-1,.9-1.55,2.5-1.55v-.08a.85.85,0,0,0-.94-1,2.19,2.19,0,0,0-1.09.3l-.17-.49a2.54,2.54,0,0,1,1.37-.37c1.27,0,1.58.86,1.58,1.7V228a6.11,6.11,0,0,0,.07,1Zm-.11-2.13c-.82,0-1.76.13-1.76.94a.66.66,0,0,0,.71.72,1,1,0,0,0,1-.7.93.93,0,0,0,0-.24Z" transform="translate(0.25 0.25)"/><path class="cls-8" d="M97.59,225.91c0-.43,0-.79,0-1.13h.67l0,.69h0a1.53,1.53,0,0,1,1.38-.78c.57,0,1.47.34,1.47,1.77V229h-.76v-2.41c0-.67-.25-1.23-1-1.23a1.09,1.09,0,0,0-1,.78,1.18,1.18,0,0,0-.05.35V229h-.76Z" transform="translate(0.25 0.25)"/><path class="cls-8" d="M106,222.83v5c0,.37,0,.79,0,1.08h-.68l0-.73h0a1.53,1.53,0,0,1-1.42.82,1.9,1.9,0,0,1-1.78-2.12,2,2,0,0,1,1.86-2.23,1.4,1.4,0,0,1,1.26.63h0v-2.49Zm-.76,3.65a1.12,1.12,0,0,0,0-.32,1.1,1.1,0,0,0-1.09-.88c-.78,0-1.25.69-1.25,1.61s.42,1.54,1.23,1.54a1.14,1.14,0,0,0,1.11-.9,1.19,1.19,0,0,0,0-.33Z" transform="translate(0.25 0.25)"/><path class="cls-8" d="M109.82,223.14v2.43h2.8v-2.43h.76V229h-.76v-2.72h-2.8V229h-.75v-5.81Z" transform="translate(0.25 0.25)"/><path class="cls-8" d="M114.58,228a2.58,2.58,0,0,0,1.34.38c.76,0,1.21-.4,1.21-1s-.31-.85-1.09-1.15c-1-.34-1.53-.83-1.53-1.64a1.67,1.67,0,0,1,1.87-1.58,2.74,2.74,0,0,1,1.29.28l-.21.62a2.24,2.24,0,0,0-1.1-.28c-.79,0-1.1.47-1.1.87s.36.81,1.16,1.12c1,.38,1.48.85,1.48,1.7s-.67,1.67-2,1.67a3,3,0,0,1-1.48-.37Z" transform="translate(0.25 0.25)"/><path class="cls-8" d="M118.92,223.21a8.69,8.69,0,0,1,1.44-.11,2.36,2.36,0,0,1,1.62.48,1.57,1.57,0,0,1,.51,1.22A1.69,1.69,0,0,1,122,226a2.39,2.39,0,0,1-1.77.63,2.24,2.24,0,0,1-.6,0V229h-.75Zm.75,2.8a2.65,2.65,0,0,0,.62.06c.9,0,1.45-.44,1.45-1.24s-.54-1.13-1.37-1.13a2.83,2.83,0,0,0-.7.06Z" transform="translate(0.25 0.25)"/><path class="cls-8" d="M127.91,228.69a5.38,5.38,0,0,1-1.78.32,2.73,2.73,0,0,1-3-2.93,2.92,2.92,0,0,1,3.14-3,3.61,3.61,0,0,1,1.45.27l-.18.61a3.14,3.14,0,0,0-1.28-.25,2.18,2.18,0,0,0-2.34,2.33,2.13,2.13,0,0,0,2.24,2.35,2.36,2.36,0,0,0,1-.16V226.5H126v-.6h1.91Z" transform="translate(0.25 0.25)"/><path class="cls-8" d="M45,199.91v-5.8h.82L47.64,197a15.25,15.25,0,0,1,1,1.89h0c-.07-.77-.09-1.48-.09-2.38v-2.43h.71v5.8h-.76L46.72,197A19.17,19.17,0,0,1,45.63,195h0c0,.73.06,1.43.06,2.39v2.48Z" transform="translate(0.25 0.25)"/><path class="cls-8" d="M54.37,197.79A2,2,0,0,1,52.29,200a2,2,0,0,1-2-2.14,2,2,0,0,1,2.06-2.21A2,2,0,0,1,54.37,197.79Zm-3.31.05c0,.91.53,1.6,1.27,1.6s1.26-.68,1.26-1.62c0-.71-.35-1.6-1.24-1.6S51.06,197,51.06,197.84Z" transform="translate(0.25 0.25)"/><path class="cls-8" d="M57.15,196.87c0-.43,0-.78,0-1.12h.66l0,.67h0a1.44,1.44,0,0,1,1.31-.77,1.22,1.22,0,0,1,1.18.84h0a1.71,1.71,0,0,1,.46-.55,1.43,1.43,0,0,1,.92-.29c.55,0,1.37.36,1.37,1.81v2.45h-.74v-2.36c0-.8-.29-1.28-.9-1.28a1,1,0,0,0-.9.69,1.38,1.38,0,0,0-.06.38v2.57h-.74v-2.5c0-.66-.29-1.14-.87-1.14A1,1,0,0,0,58,197a.9.9,0,0,0-.06.37v2.51h-.74Z" transform="translate(0.25 0.25)"/><path class="cls-8" d="M66.63,199.91l-.06-.53h0a1.54,1.54,0,0,1-1.27.62A1.19,1.19,0,0,1,64,198.81c0-1,.9-1.56,2.51-1.55v-.09a.86.86,0,0,0-1-1,2,2,0,0,0-1.08.31l-.18-.5a2.65,2.65,0,0,1,1.37-.37c1.28,0,1.59.87,1.59,1.7v1.56a6.11,6.11,0,0,0,.06,1Zm-.12-2.13c-.82,0-1.76.13-1.76.94a.68.68,0,0,0,.71.73,1,1,0,0,0,1-.7.71.71,0,0,0,0-.24Z" transform="translate(0.25 0.25)"/><path class="cls-8" d="M69.34,194.55v1.2h1.09v.57H69.34v2.25c0,.51.15.81.57.81a2,2,0,0,0,.44,0l0,.56a1.87,1.87,0,0,1-.68.11,1.06,1.06,0,0,1-.81-.32,1.55,1.55,0,0,1-.3-1.09v-2.27H68v-.57h.64v-1Z" transform="translate(0.25 0.25)"/><path class="cls-8" d="M71.28,197c0-.49,0-.91,0-1.29h.66l0,.81h0a1.24,1.24,0,0,1,1.15-.91.73.73,0,0,1,.22,0v.71a1,1,0,0,0-.26,0,1.07,1.07,0,0,0-1,1,3.27,3.27,0,0,0,0,.35v2.22h-.75Z" transform="translate(0.25 0.25)"/><path class="cls-8" d="M75,194.57a.45.45,0,0,1-.48.47.45.45,0,0,1-.46-.47.47.47,0,0,1,.48-.47A.45.45,0,0,1,75,194.57Zm-.84,5.34v-4.16h.75v4.16Z" transform="translate(0.25 0.25)"/><path class="cls-8" d="M76.49,195.75l.6.89c.15.23.28.45.42.68h0c.14-.25.28-.46.42-.69l.58-.88h.82l-1.42,2,1.46,2.15h-.86l-.61-.94c-.16-.24-.3-.47-.45-.72h0c-.14.25-.29.47-.44.72l-.6.94h-.84l1.48-2.13-1.41-2Z" transform="translate(0.25 0.25)"/><path class="cls-8" d="M47.71,206.78c0-.53,0-1,0-1.36h.68l0,.72h0a1.65,1.65,0,0,1,1.49-.81,1.89,1.89,0,0,1,1.76,2.12,2,2,0,0,1-1.89,2.23,1.48,1.48,0,0,1-1.29-.65h0v2.26h-.75Zm.75,1.11a1.42,1.42,0,0,0,0,.31,1.17,1.17,0,0,0,1.14.89c.8,0,1.26-.65,1.26-1.61s-.44-1.55-1.24-1.55a1.2,1.2,0,0,0-1.14.94,1.06,1.06,0,0,0,0,.31Z" transform="translate(0.25 0.25)"/><path class="cls-8" d="M52.6,206.72c0-.49,0-.91,0-1.3h.66l0,.82h0a1.25,1.25,0,0,1,1.15-.91l.22,0v.72a1,1,0,0,0-.26,0,1.06,1.06,0,0,0-1,1,1.78,1.78,0,0,0,0,.35v2.22H52.6Z" transform="translate(0.25 0.25)"/><path class="cls-8" d="M59.1,207.47A2,2,0,0,1,57,209.68a2,2,0,0,1-2-2.14,2,2,0,0,1,2.06-2.21A2,2,0,0,1,59.1,207.47Zm-3.31,0c0,.92.53,1.61,1.27,1.61s1.26-.68,1.26-1.62c0-.71-.35-1.6-1.24-1.6S55.79,206.72,55.79,207.51Z" transform="translate(0.25 0.25)"/><path class="cls-8" d="M61,204.23v1.19h1.08V206H61v2.25c0,.51.14.81.56.81A1.44,1.44,0,0,0,62,209l0,.57a1.89,1.89,0,0,1-.67.1,1.06,1.06,0,0,1-.82-.31,1.55,1.55,0,0,1-.29-1.09V206h-.65v-.58h.65v-1Z" transform="translate(0.25 0.25)"/><path class="cls-8" d="M63.27,207.64a1.34,1.34,0,0,0,1.43,1.45,2.73,2.73,0,0,0,1.15-.21l.13.54a3.4,3.4,0,0,1-1.38.25,1.93,1.93,0,0,1-2-2.09,2,2,0,0,1,2-2.25,1.76,1.76,0,0,1,1.72,2,2.61,2.61,0,0,1,0,.35Zm2.22-.54a1.08,1.08,0,0,0-1-1.23,1.26,1.26,0,0,0-1.16,1.23Z" transform="translate(0.25 0.25)"/><path class="cls-8" d="M68,204.25a.45.45,0,0,1-.48.47.45.45,0,0,1-.46-.47.47.47,0,0,1,.48-.47A.45.45,0,0,1,68,204.25Zm-.84,5.34v-4.17h.76v4.17Z" transform="translate(0.25 0.25)"/><path class="cls-8" d="M69.17,206.55c0-.43,0-.78,0-1.13h.67l0,.69h0a1.55,1.55,0,0,1,1.38-.78c.57,0,1.47.34,1.47,1.77v2.49H72v-2.4c0-.67-.25-1.23-1-1.23a1.08,1.08,0,0,0-1,.77,1.29,1.29,0,0,0,0,.35v2.51h-.76Z" transform="translate(0.25 0.25)"/><path class="cls-8" d="M73.84,208.81a2,2,0,0,0,1,.31c.55,0,.81-.28.81-.62s-.21-.56-.77-.77c-.75-.27-1.11-.68-1.11-1.18a1.29,1.29,0,0,1,1.44-1.22,2.11,2.11,0,0,1,1,.26l-.19.55a1.6,1.6,0,0,0-.86-.24c-.44,0-.69.26-.69.56s.25.5.79.71c.72.28,1.09.64,1.09,1.26s-.57,1.24-1.56,1.24a2.44,2.44,0,0,1-1.17-.28Z" transform="translate(0.25 0.25)"/><path class="cls-8" d="M200.12,18.36v.5L197.69,24h-.79L199.33,19v0h-2.74v-.63Z" transform="translate(0.25 0.25)"/><path class="cls-8" d="M200.9,24v-.46l.6-.58c1.43-1.36,2.07-2.08,2.08-2.92a1,1,0,0,0-1.11-1.1,1.89,1.89,0,0,0-1.19.48l-.24-.54a2.5,2.5,0,0,1,1.59-.56,1.57,1.57,0,0,1,1.71,1.62c0,1-.75,1.87-1.93,3l-.45.41v0h2.52V24Z" transform="translate(0.25 0.25)"/><path class="cls-8" d="M207.38,17.84h.76v2.6h0a1.45,1.45,0,0,1,.54-.53,1.54,1.54,0,0,1,.77-.22c.56,0,1.46.35,1.46,1.79V24h-.76V21.56c0-.67-.25-1.24-1-1.24a1.1,1.1,0,0,0-1,.76,1,1,0,0,0-.05.36V24h-.76Z" transform="translate(0.25 0.25)"/><path class="cls-8" d="M216.29,24l-.06-.52h0a1.54,1.54,0,0,1-1.27.62,1.19,1.19,0,0,1-1.28-1.2c0-1,.9-1.55,2.51-1.55v-.08a.86.86,0,0,0-.95-1,2,2,0,0,0-1.08.31l-.17-.5a2.59,2.59,0,0,1,1.36-.37c1.28,0,1.59.87,1.59,1.71V23a6,6,0,0,0,.06,1Zm-.12-2.12c-.82,0-1.76.13-1.76.94a.67.67,0,0,0,.72.72,1,1,0,0,0,1-.7.64.64,0,0,0,0-.24Z" transform="translate(0.25 0.25)"/><path class="cls-8" d="M218.2,24V20.37h-.58v-.58h.58v-.2a1.93,1.93,0,0,1,.49-1.45,1.42,1.42,0,0,1,1-.39,1.79,1.79,0,0,1,.65.12l-.11.59a1,1,0,0,0-.48-.1c-.64,0-.81.57-.81,1.21v.22h1v.58h-1V24Z" transform="translate(0.25 0.25)"/><path class="cls-8" d="M221.55,18.59v1.2h1.08v.58h-1.08v2.24c0,.52.15.81.57.81a1.56,1.56,0,0,0,.44-.05l0,.57a1.85,1.85,0,0,1-.67.1,1,1,0,0,1-.82-.32,1.55,1.55,0,0,1-.29-1.08V20.37h-.64v-.58h.64v-1Z" transform="translate(0.25 0.25)"/><path class="cls-8" d="M223.91,22a1.34,1.34,0,0,0,1.43,1.45,2.71,2.71,0,0,0,1.15-.22l.13.54a3.38,3.38,0,0,1-1.39.26,1.93,1.93,0,0,1-2-2.1,2,2,0,0,1,1.95-2.25,1.77,1.77,0,0,1,1.72,2,2.53,2.53,0,0,1,0,.35Zm2.22-.54a1.08,1.08,0,0,0-1-1.23,1.25,1.25,0,0,0-1.16,1.23Z" transform="translate(0.25 0.25)"/><path class="cls-8" d="M227.8,21.09c0-.49,0-.91,0-1.3h.66l0,.82h0a1.26,1.26,0,0,1,1.16-.92.71.71,0,0,1,.21,0v.71l-.26,0a1.05,1.05,0,0,0-1,1,1.78,1.78,0,0,0,0,.35V24h-.74Z" transform="translate(0.25 0.25)"/><path class="cls-8" d="M232.43,21.15c0-.53,0-1,0-1.36h.68l0,.71h0a1.65,1.65,0,0,1,1.48-.81,1.89,1.89,0,0,1,1.77,2.12,2,2,0,0,1-1.9,2.24,1.46,1.46,0,0,1-1.28-.65h0v2.26h-.75Zm.75,1.11a1.55,1.55,0,0,0,0,.31,1.17,1.17,0,0,0,1.13.89c.8,0,1.27-.66,1.27-1.61s-.44-1.55-1.24-1.55a1.21,1.21,0,0,0-1.15.94,1.45,1.45,0,0,0,0,.3Z" transform="translate(0.25 0.25)"/><path class="cls-8" d="M237.33,17.84h.76V24h-.76Z" transform="translate(0.25 0.25)"/><path class="cls-8" d="M241.66,24l-.06-.52h0a1.54,1.54,0,0,1-1.28.62,1.18,1.18,0,0,1-1.27-1.2c0-1,.9-1.55,2.51-1.55v-.08a.86.86,0,0,0-.95-1,2.1,2.1,0,0,0-1.09.31l-.17-.5a2.65,2.65,0,0,1,1.37-.37c1.27,0,1.58.87,1.58,1.71V23a5.9,5.9,0,0,0,.07,1Zm-.11-2.12c-.82,0-1.76.13-1.76.94a.67.67,0,0,0,.71.72,1,1,0,0,0,1-.7.64.64,0,0,0,0-.24Z" transform="translate(0.25 0.25)"/><path class="cls-8" d="M244.42,18.59v1.2h1.08v.58h-1.08v2.24c0,.52.14.81.56.81a1.51,1.51,0,0,0,.44-.05l0,.57a1.89,1.89,0,0,1-.67.1,1,1,0,0,1-.82-.32,1.5,1.5,0,0,1-.29-1.08V20.37H243v-.58h.65v-1Z" transform="translate(0.25 0.25)"/><path class="cls-8" d="M247.2,18.62a.45.45,0,0,1-.49.46.44.44,0,0,1-.45-.46.46.46,0,0,1,.47-.47A.45.45,0,0,1,247.2,18.62ZM246.35,24V19.79h.76V24Z" transform="translate(0.25 0.25)"/><path class="cls-8" d="M248.37,20.92c0-.43,0-.79,0-1.13H249l0,.69h0a1.54,1.54,0,0,1,1.38-.79c.58,0,1.47.35,1.47,1.78V24h-.76v-2.4c0-.67-.25-1.23-1-1.23a1.09,1.09,0,0,0-1,.78,1.18,1.18,0,0,0,0,.35V24h-.75Z" transform="translate(0.25 0.25)"/><path class="cls-8" d="M256.73,19.79c0,.3,0,.64,0,1.14v2.42a2.4,2.4,0,0,1-.59,1.9,2.19,2.19,0,0,1-1.51.5,2.75,2.75,0,0,1-1.39-.34l.19-.58a2.39,2.39,0,0,0,1.22.33c.78,0,1.34-.41,1.34-1.45v-.47h0a1.48,1.48,0,0,1-1.33.7,1.86,1.86,0,0,1-1.77-2,2,2,0,0,1,1.87-2.22,1.37,1.37,0,0,1,1.3.73h0l0-.63ZM256,21.43a.9.9,0,0,0,0-.34,1.09,1.09,0,0,0-1.06-.8c-.72,0-1.24.61-1.24,1.57s.42,1.5,1.24,1.5a1.09,1.09,0,0,0,1-.77,1.18,1.18,0,0,0,.07-.41Z" transform="translate(0.25 0.25)"/><path class="cls-8" d="M198.13,31.43h0l-1,.53-.14-.58,1.22-.65h.65v5.59h-.74Z" transform="translate(0.25 0.25)"/><path class="cls-8" d="M200.9,36.32v-.46l.6-.58c1.43-1.36,2.07-2.08,2.08-2.93a1,1,0,0,0-1.11-1.09,1.94,1.94,0,0,0-1.19.47L201,31.2a2.45,2.45,0,0,1,1.59-.57,1.58,1.58,0,0,1,1.71,1.63c0,1-.75,1.87-1.93,3l-.45.42h2.52v.63Z" transform="translate(0.25 0.25)"/><path class="cls-8" d="M209,33.46c0,1.91-.71,3-1.95,3-1.09,0-1.83-1-1.85-2.88s.81-2.91,1.94-2.91S209,31.68,209,33.46Zm-3,.09c0,1.45.44,2.28,1.13,2.28s1.15-.9,1.15-2.33-.36-2.28-1.14-2.28S206,32,206,33.55Z" transform="translate(0.25 0.25)"/><path class="cls-8" d="M211.79,30.21h.76v2.6h0a1.38,1.38,0,0,1,.54-.53,1.57,1.57,0,0,1,.78-.22c.56,0,1.45.35,1.45,1.78v2.48h-.76V33.93c0-.67-.25-1.24-1-1.24a1.09,1.09,0,0,0-1,.76,1,1,0,0,0,0,.36v2.51h-.76Z" transform="translate(0.25 0.25)"/><path class="cls-8" d="M220.7,36.32l-.06-.52h0a1.57,1.57,0,0,1-1.27.62,1.19,1.19,0,0,1-1.27-1.2c0-1,.89-1.56,2.5-1.55v-.09a.86.86,0,0,0-.95-1,2.07,2.07,0,0,0-1.08.31l-.17-.5a2.6,2.6,0,0,1,1.37-.37c1.27,0,1.58.87,1.58,1.71v1.55a6,6,0,0,0,.07,1Zm-.11-2.12c-.83,0-1.77.12-1.77.93a.68.68,0,0,0,.72.73,1,1,0,0,0,1-.7.69.69,0,0,0,.05-.24Z" transform="translate(0.25 0.25)"/><path class="cls-8" d="M222.62,36.32V32.73H222v-.57h.59V32a2,2,0,0,1,.48-1.46,1.46,1.46,0,0,1,1-.38,1.78,1.78,0,0,1,.64.12l-.1.58a1.22,1.22,0,0,0-.49-.09c-.64,0-.8.57-.8,1.2v.23h1v.57h-1v3.59Z" transform="translate(0.25 0.25)"/><path class="cls-8" d="M226,31v1.2h1.09v.57H226V35c0,.52.15.81.57.81a2,2,0,0,0,.44,0l0,.56a1.87,1.87,0,0,1-.68.11,1,1,0,0,1-.81-.32,1.51,1.51,0,0,1-.3-1.09V32.73h-.64v-.57h.64v-1Z" transform="translate(0.25 0.25)"/><path class="cls-8" d="M228.32,34.38a1.33,1.33,0,0,0,1.43,1.44,2.73,2.73,0,0,0,1.15-.21l.13.54a3.33,3.33,0,0,1-1.38.26,1.94,1.94,0,0,1-2.05-2.1,2,2,0,0,1,2-2.25,1.76,1.76,0,0,1,1.72,2,2.93,2.93,0,0,1,0,.36Zm2.22-.55a1.08,1.08,0,0,0-1-1.23,1.26,1.26,0,0,0-1.16,1.23Z" transform="translate(0.25 0.25)"/><path class="cls-8" d="M232.21,33.46c0-.5,0-.92,0-1.3h.67l0,.81h0a1.24,1.24,0,0,1,1.15-.91.73.73,0,0,1,.22,0v.71a1.07,1.07,0,0,0-1.28,1,1.83,1.83,0,0,0,0,.35v2.22h-.75Z" transform="translate(0.25 0.25)"/><path class="cls-8" d="M236.85,33.52c0-.54,0-1,0-1.36h.68l0,.71h0a1.63,1.63,0,0,1,1.48-.81,1.89,1.89,0,0,1,1.77,2.12,2,2,0,0,1-1.9,2.24,1.47,1.47,0,0,1-1.28-.66h0V38h-.74Zm.74,1.11a1.55,1.55,0,0,0,0,.31,1.17,1.17,0,0,0,1.14.88c.8,0,1.26-.65,1.26-1.61s-.44-1.55-1.24-1.55a1.19,1.19,0,0,0-1.14.94,1.13,1.13,0,0,0-.06.31Z" transform="translate(0.25 0.25)"/><path class="cls-8" d="M241.74,30.21h.76v6.11h-.76Z" transform="translate(0.25 0.25)"/><path class="cls-8" d="M246.08,36.32,246,35.8h0a1.57,1.57,0,0,1-1.27.62,1.2,1.2,0,0,1-1.28-1.2c0-1,.9-1.56,2.51-1.55v-.09a.86.86,0,0,0-.95-1,2.07,2.07,0,0,0-1.08.31l-.17-.5a2.59,2.59,0,0,1,1.36-.37c1.28,0,1.59.87,1.59,1.71v1.55a5.11,5.11,0,0,0,.07,1ZM246,34.2c-.83,0-1.77.12-1.77.93a.68.68,0,0,0,.72.73,1,1,0,0,0,1-.7.69.69,0,0,0,.05-.24Z" transform="translate(0.25 0.25)"/><path class="cls-8" d="M248.83,31v1.2h1.08v.57h-1.08V35c0,.52.15.81.57.81a2,2,0,0,0,.44,0l0,.56a1.85,1.85,0,0,1-.67.11,1,1,0,0,1-.82-.32,1.56,1.56,0,0,1-.29-1.09V32.73h-.65v-.57h.65v-1Z" transform="translate(0.25 0.25)"/><path class="cls-8" d="M251.61,31a.45.45,0,0,1-.48.46.45.45,0,0,1-.46-.46.47.47,0,0,1,.47-.48A.45.45,0,0,1,251.61,31Zm-.84,5.33V32.16h.75v4.16Z" transform="translate(0.25 0.25)"/><path class="cls-8" d="M252.78,33.28c0-.43,0-.78,0-1.12h.68l0,.68h0a1.52,1.52,0,0,1,1.37-.78c.58,0,1.47.35,1.47,1.77v2.49h-.75v-2.4c0-.67-.25-1.23-1-1.23a1.07,1.07,0,0,0-1,.77,1,1,0,0,0-.05.36v2.5h-.76Z" transform="translate(0.25 0.25)"/><path class="cls-8" d="M261.14,32.16c0,.3,0,.63,0,1.14v2.42a2.38,2.38,0,0,1-.6,1.9,2.19,2.19,0,0,1-1.51.5,2.75,2.75,0,0,1-1.39-.34l.19-.58a2.39,2.39,0,0,0,1.22.33c.78,0,1.35-.41,1.35-1.46v-.46h0a1.5,1.5,0,0,1-1.33.69,1.86,1.86,0,0,1-1.77-2,2,2,0,0,1,1.88-2.21,1.39,1.39,0,0,1,1.3.72h0l0-.62Zm-.78,1.64a1.18,1.18,0,0,0,0-.34,1.09,1.09,0,0,0-1.06-.8c-.73,0-1.24.61-1.24,1.57s.41,1.5,1.23,1.5A1.11,1.11,0,0,0,260.3,35a1.39,1.39,0,0,0,.06-.4Z" transform="translate(0.25 0.25)"/></svg>