<svg id="Layer_1" data-name="Layer 1" xmlns="http://www.w3.org/2000/svg" viewBox="0 0 492.54 451.52"><defs><style>.cls-1{fill:none;stroke:#000;stroke-width:0.5px;}.cls-2{fill:#383838;}.cls-3{fill:#6893cc;}</style></defs><title>Build_the_Graph</title><g id="xy"><line class="cls-1" x1="67.29" y1="308.95" x2="492.54" y2="308.95"/><line class="cls-1" x1="67.29" y1="286.33" x2="492.54" y2="286.33"/><line class="cls-1" x1="67.29" y1="263.71" x2="492.54" y2="263.71"/><line class="cls-1" x1="67.29" y1="241.09" x2="492.54" y2="241.09"/><line class="cls-1" x1="67.29" y1="218.47" x2="492.54" y2="218.47"/><line class="cls-1" x1="67.29" y1="195.85" x2="492.54" y2="195.85"/><line class="cls-1" x1="67.29" y1="173.23" x2="492.54" y2="173.23"/><line class="cls-1" x1="67.29" y1="150.61" x2="492.54" y2="150.61"/><line class="cls-1" x1="67.29" y1="127.99" x2="492.54" y2="127.99"/><line class="cls-1" x1="67.29" y1="105.37" x2="492.54" y2="105.37"/><line class="cls-1" x1="67.29" y1="82.75" x2="492.54" y2="82.75"/><line class="cls-1" x1="67.29" y1="60.13" x2="492.54" y2="60.13"/></g><path class="cls-2" d="M193.54,460.1a4.32,4.32,0,0,0,3.07,1.39c1.46,0,2.32-.73,2.32-1.82s-.81-1.49-1.86-2l-1.6-.7a3.16,3.16,0,0,1-2.26-2.87c0-1.7,1.5-2.95,3.52-2.95a4.56,4.56,0,0,1,3.27,1.37l-.75.92a3.52,3.52,0,0,0-2.52-1.05c-1.26,0-2.09.63-2.09,1.63s1,1.47,1.85,1.85l1.59.67c1.29.56,2.3,1.33,2.3,3s-1.46,3.18-3.81,3.18a5.36,5.36,0,0,1-3.88-1.65Z" transform="translate(-7.5 -14.81)"/><path class="cls-2" d="M205.46,454.07c2.11,0,3.29,1.51,3.29,3.87a4.38,4.38,0,0,1-.05.77h-5.56a2.74,2.74,0,0,0,2.75,2.9,3.72,3.72,0,0,0,2.05-.65l.49.92a4.87,4.87,0,0,1-2.71.85c-2.21,0-4-1.61-4-4.31S203.58,454.07,205.46,454.07Zm2.07,3.72c0-1.68-.74-2.61-2-2.61a2.57,2.57,0,0,0-2.38,2.61Z" transform="translate(-7.5 -14.81)"/><path class="cls-2" d="M213.78,454.07a3.31,3.31,0,0,1,2.35,1h0l.13-.78h1.12V466H216v-2.93l.06-1.46a3.76,3.76,0,0,1-2.47,1.12c-2.07,0-3.41-1.56-3.41-4.31S211.89,454.07,213.78,454.07Zm.13,7.49a2.81,2.81,0,0,0,2.11-1.14v-4.31a2.89,2.89,0,0,0-2-.87c-1.32,0-2.37,1.28-2.37,3.16S212.47,461.56,213.91,461.56Z" transform="translate(-7.5 -14.81)"/><path class="cls-2" d="M220,454.28h1.41v5c0,1.54.46,2.2,1.54,2.2.85,0,1.45-.42,2.23-1.39v-5.85h1.39v8.24h-1.16l-.11-1.29h-.06a3.47,3.47,0,0,1-2.71,1.5c-1.75,0-2.53-1.12-2.53-3.23Z" transform="translate(-7.5 -14.81)"/><path class="cls-2" d="M232.44,454.07c2.1,0,3.29,1.51,3.29,3.87a5.63,5.63,0,0,1,0,.77h-5.57a2.74,2.74,0,0,0,2.75,2.9,3.72,3.72,0,0,0,2-.65l.5.92a4.93,4.93,0,0,1-2.72.85c-2.2,0-3.95-1.61-3.95-4.31S230.55,454.07,232.44,454.07Zm2.07,3.72c0-1.68-.75-2.61-2-2.61a2.57,2.57,0,0,0-2.37,2.61Z" transform="translate(-7.5 -14.81)"/><path class="cls-2" d="M237.76,454.28h1.16l.12,1.18h.05a3.89,3.89,0,0,1,2.76-1.39c1.73,0,2.51,1.12,2.51,3.23v5.22H243v-5c0-1.54-.47-2.2-1.56-2.2-.85,0-1.42.44-2.26,1.27v6h-1.39Z" transform="translate(-7.5 -14.81)"/><path class="cls-2" d="M250.4,454.07a3.38,3.38,0,0,1,2.41,1l-.69.9a2.48,2.48,0,0,0-1.67-.73c-1.49,0-2.58,1.29-2.58,3.19s1,3.15,2.55,3.15a2.93,2.93,0,0,0,1.93-.83l.63.92a4.07,4.07,0,0,1-2.68,1.07c-2.19,0-3.87-1.58-3.87-4.31A4,4,0,0,1,250.4,454.07Z" transform="translate(-7.5 -14.81)"/><path class="cls-2" d="M257.51,454.07c2.11,0,3.29,1.51,3.29,3.87a4.38,4.38,0,0,1-.05.77h-5.56a2.74,2.74,0,0,0,2.75,2.9A3.72,3.72,0,0,0,260,461l.49.92a4.87,4.87,0,0,1-2.71.85c-2.21,0-4-1.61-4-4.31S255.63,454.07,257.51,454.07Zm2.07,3.72c0-1.68-.75-2.61-2-2.61a2.57,2.57,0,0,0-2.37,2.61Z" transform="translate(-7.5 -14.81)"/><path class="cls-2" d="M269.47,454.07c2,0,3.82,1.58,3.82,4.35s-1.8,4.31-3.82,4.31-3.82-1.58-3.82-4.31S267.45,454.07,269.47,454.07Zm0,7.5c1.43,0,2.38-1.27,2.38-3.15s-1-3.19-2.38-3.19-2.37,1.29-2.37,3.19S268.06,461.57,269.47,461.57Z" transform="translate(-7.5 -14.81)"/><path class="cls-2" d="M279.17,451.58a2.2,2.2,0,0,0-.93-.2c-.78,0-1.15.54-1.15,1.59v1.31h1.75v1.13h-1.75v7.11H275.7v-7.11h-1.12v-1.05l1.12-.08V453c0-1.68.76-2.73,2.41-2.73a3.75,3.75,0,0,1,1.37.27Z" transform="translate(-7.5 -14.81)"/><path class="cls-2" d="M283.84,450.44h1.39V461c0,.44.19.61.39.61a1.36,1.36,0,0,0,.31,0l.18,1a1.74,1.74,0,0,1-.79.14c-1.06,0-1.48-.66-1.48-1.87Z" transform="translate(-7.5 -14.81)"/><path class="cls-2" d="M287.91,451.68a1,1,0,1,1,1,.9A.9.9,0,0,1,287.91,451.68Zm.26,2.6h1.39v8.24h-1.39Z" transform="translate(-7.5 -14.81)"/><path class="cls-2" d="M292.92,462.24v-.07a1.53,1.53,0,0,1-.73-1.34,1.94,1.94,0,0,1,.89-1.53v-.07a2.92,2.92,0,0,1,2-5.16,3.22,3.22,0,0,1,1.17.21h2.87v1.07h-1.7a2.38,2.38,0,0,1,.68,1.69,3,3,0,0,1-4.26,2.58,1.26,1.26,0,0,0-.52,1c0,.52.34.9,1.46.9h1.59c1.92,0,2.88.59,2.88,2,0,1.53-1.61,2.85-4.17,2.85-2,0-3.41-.79-3.41-2.22A2.36,2.36,0,0,1,292.92,462.24Zm2.4,3.12c1.58,0,2.62-.82,2.62-1.68s-.6-1-1.67-1h-1.42a4.14,4.14,0,0,1-1.07-.14,1.76,1.76,0,0,0-.85,1.4C292.93,464.8,293.83,465.36,295.32,465.36Zm1.55-8.35a1.76,1.76,0,1,0-3.5,0,1.76,1.76,0,1,0,3.5,0Z" transform="translate(-7.5 -14.81)"/><path class="cls-2" d="M300.89,450.44h1.39v3.29l0,1.7a3.93,3.93,0,0,1,2.75-1.36c1.73,0,2.51,1.12,2.51,3.23v5.22H306.1v-5c0-1.54-.48-2.2-1.56-2.2a3.16,3.16,0,0,0-2.26,1.27v6h-1.39Z" transform="translate(-7.5 -14.81)"/><path class="cls-2" d="M310.35,455.41h-1.22v-1.05l1.29-.08.17-2.31h1.17v2.31H314v1.13h-2.23V460c0,1,.32,1.59,1.28,1.59a3.07,3.07,0,0,0,.93-.22l.27,1.05a5.21,5.21,0,0,1-1.53.31c-1.76,0-2.36-1.12-2.36-2.75Z" transform="translate(-7.5 -14.81)"/><path class="cls-2" d="M322.37,454.07c2.1,0,3.29,1.51,3.29,3.87a5.63,5.63,0,0,1-.05.77H320a2.74,2.74,0,0,0,2.75,2.9,3.72,3.72,0,0,0,2-.65l.49.92a4.87,4.87,0,0,1-2.71.85c-2.21,0-3.95-1.61-3.95-4.31S320.48,454.07,322.37,454.07Zm2.07,3.72c0-1.68-.75-2.61-2-2.61a2.58,2.58,0,0,0-2.38,2.61Z" transform="translate(-7.5 -14.81)"/><path class="cls-2" d="M329.12,458.21l-2.5-3.93h1.51l1.11,1.81c.25.44.52.92.81,1.38h.07c.24-.46.49-.94.75-1.38l1-1.81h1.46l-2.5,4.09,2.68,4.15H332l-1.2-1.91c-.29-.5-.6-1-.9-1.48h-.07c-.29.48-.56,1-.83,1.48l-1.12,1.91h-1.46Z" transform="translate(-7.5 -14.81)"/><path class="cls-2" d="M336.53,463.22V466h-1.39V454.28h1.15l.12,1h0a4.29,4.29,0,0,1,2.63-1.16c2.12,0,3.26,1.65,3.26,4.21,0,2.8-1.68,4.45-3.56,4.45a3.82,3.82,0,0,1-2.29-1Zm2-1.66c1.36,0,2.36-1.24,2.36-3.28,0-1.81-.61-3-2.17-3a3.48,3.48,0,0,0-2.21,1.12v4.33A3.28,3.28,0,0,0,338.55,461.56Z" transform="translate(-7.5 -14.81)"/><path class="cls-2" d="M347.76,454.07c2,0,3.82,1.58,3.82,4.35s-1.8,4.31-3.82,4.31-3.82-1.58-3.82-4.31S345.74,454.07,347.76,454.07Zm0,7.5c1.43,0,2.38-1.27,2.38-3.15s-.95-3.19-2.38-3.19-2.37,1.29-2.37,3.19S346.35,461.57,347.76,461.57Z" transform="translate(-7.5 -14.81)"/><path class="cls-2" d="M353.53,460.66a3.73,3.73,0,0,0,2.43,1c1.08,0,1.62-.58,1.62-1.29s-1-1.22-1.88-1.56c-1.17-.42-2.46-1-2.46-2.37s1.05-2.35,2.83-2.35a4.13,4.13,0,0,1,2.57.94l-.67.88a3,3,0,0,0-1.88-.73c-1,0-1.51.56-1.51,1.19s.9,1.07,1.83,1.42c1.19.44,2.51.94,2.51,2.5,0,1.34-1.06,2.46-3,2.46a4.93,4.93,0,0,1-3.07-1.14Z" transform="translate(-7.5 -14.81)"/><path class="cls-2" d="M360.74,454.28h1.41v5c0,1.54.46,2.2,1.54,2.2.85,0,1.44-.42,2.22-1.39v-5.85h1.4v8.24h-1.16l-.12-1.29h0a3.49,3.49,0,0,1-2.71,1.5c-1.75,0-2.53-1.12-2.53-3.23Z" transform="translate(-7.5 -14.81)"/><path class="cls-2" d="M370.09,454.28h1.15l.12,1.49h.05a2.84,2.84,0,0,1,2.34-1.7,2,2,0,0,1,.88.17l-.27,1.22a2.44,2.44,0,0,0-.8-.13c-.69,0-1.52.51-2.08,1.9v5.29h-1.39Z" transform="translate(-7.5 -14.81)"/><path class="cls-2" d="M378.89,454.07c2.11,0,3.29,1.51,3.29,3.87a4.38,4.38,0,0,1-.05.77h-5.56a2.74,2.74,0,0,0,2.75,2.9,3.72,3.72,0,0,0,2.05-.65l.49.92a4.87,4.87,0,0,1-2.71.85c-2.21,0-4-1.61-4-4.31S377,454.07,378.89,454.07Zm2.07,3.72c0-1.68-.75-2.61-2-2.61a2.57,2.57,0,0,0-2.38,2.61Z" transform="translate(-7.5 -14.81)"/><path class="cls-2" d="M19.79,298.12,8.25,292v-.93l11.54,6.14Zm-8,2.85c-2.24,0-3.5-1-3.5-2.53s1.26-2.52,3.5-2.52,3.53,1,3.53,2.52S14,301,11.75,301Zm0-4c-1.79,0-2.63.59-2.63,1.45s.84,1.48,2.63,1.48,2.66-.59,2.66-1.48S13.51,297,11.75,297Zm4.51-3.77c-2.22,0-3.5-1-3.5-2.53s1.28-2.53,3.5-2.53,3.53,1,3.53,2.53S18.52,293.22,16.26,293.22Zm0-4c-1.76,0-2.63.59-2.63,1.46s.87,1.48,2.63,1.48,2.66-.61,2.66-1.48S18,289.23,16.26,289.23Z" transform="translate(-7.5 -14.81)"/><path class="cls-2" d="M17.16,282.63a4.32,4.32,0,0,0,1.39-3.07c0-1.46-.73-2.32-1.82-2.32s-1.49.81-2,1.86l-.7,1.6A3.16,3.16,0,0,1,11.2,283c-1.69,0-2.95-1.5-2.95-3.52a4.52,4.52,0,0,1,1.38-3.27l.91.75a3.58,3.58,0,0,0-1,2.52c0,1.26.63,2.09,1.63,2.09s1.47-1,1.85-1.85l.68-1.59c.56-1.29,1.32-2.29,3-2.29s3.17,1.45,3.17,3.8a5.34,5.34,0,0,1-1.65,3.88Z" transform="translate(-7.5 -14.81)"/><path class="cls-2" d="M11.34,273.91v-1.4h5c1.54,0,2.2-.46,2.2-1.55,0-.85-.42-1.44-1.39-2.22H11.34v-1.39h8.25v1.15l-1.29.12v.05a3.48,3.48,0,0,1,1.49,2.72c0,1.74-1.12,2.52-3.22,2.52Z" transform="translate(-7.5 -14.81)"/><path class="cls-2" d="M7.5,264.57v-1.39h3.3l1.49,0a4.08,4.08,0,0,1-1.15-2.58c0-2.14,1.64-3.27,4.19-3.27,2.81,0,4.46,1.68,4.46,3.56a3.72,3.72,0,0,1-1,2.36v.05l.82.12v1.12Zm11.12-3.41c0-1.36-1.24-2.36-3.28-2.36-1.81,0-3,.61-3,2.17a3.42,3.42,0,0,0,1.12,2.21h4.32A3.23,3.23,0,0,0,18.62,261.16Z" transform="translate(-7.5 -14.81)"/><path class="cls-2" d="M17.72,255.37a3.68,3.68,0,0,0,1-2.42c0-1.09-.57-1.63-1.29-1.63s-1.22,1-1.56,1.88c-.42,1.17-1,2.46-2.37,2.46s-2.34-1-2.34-2.83a4.13,4.13,0,0,1,.93-2.57l.88.67a3.08,3.08,0,0,0-.73,1.88c0,1,.56,1.51,1.19,1.51s1.07-.9,1.42-1.83c.45-1.19.94-2.51,2.5-2.51,1.34,0,2.46,1.06,2.46,3a4.93,4.93,0,0,1-1.14,3.07Z" transform="translate(-7.5 -14.81)"/><path class="cls-2" d="M12.48,247.81V249H11.42l-.08-1.29L9,247.57V246.4h2.31v-2.23h1.14v2.23h4.58c1,0,1.59-.32,1.59-1.28a3.07,3.07,0,0,0-.22-.93l1.05-.27a4.9,4.9,0,0,1,.31,1.53c0,1.76-1.12,2.36-2.75,2.36Z" transform="translate(-7.5 -14.81)"/><path class="cls-2" d="M11.34,242.31v-1.15l1.49-.12v0a2.82,2.82,0,0,1-1.69-2.35,2,2,0,0,1,.17-.88l1.22.27a2.2,2.2,0,0,0-.14.8c0,.7.51,1.53,1.9,2.09h5.3v1.39Z" transform="translate(-7.5 -14.81)"/><path class="cls-2" d="M14.36,232.18c-1,0-2.07.36-2.07,1.7a4.48,4.48,0,0,0,.88,2.46l-1,.56a6.16,6.16,0,0,1-1.06-3.24c0-2,1.34-2.87,3.39-2.87h5.06v1.15l-1,.12v0a4.48,4.48,0,0,1,1.19,2.74,2.25,2.25,0,0,1-2.34,2.42C15.65,237.25,14.75,235.69,14.36,232.18Zm4.31,2.26a3.39,3.39,0,0,0-1.1-2.26H15.28c.34,2.77,1,3.7,2.07,3.7A1.26,1.26,0,0,0,18.67,234.44Z" transform="translate(-7.5 -14.81)"/><path class="cls-2" d="M12.48,227.92v1.22H11.42l-.08-1.28L9,227.69v-1.18h2.31v-2.22h1.14v2.22h4.58c1,0,1.59-.32,1.59-1.27a3,3,0,0,0-.22-.93l1.05-.27a4.9,4.9,0,0,1,.31,1.52c0,1.77-1.12,2.36-2.75,2.36Z" transform="translate(-7.5 -14.81)"/><path class="cls-2" d="M11.14,219.51c0-2.11,1.51-3.29,3.86-3.29a4.38,4.38,0,0,1,.77.05v5.56a2.74,2.74,0,0,0,2.9-2.75A3.72,3.72,0,0,0,18,217l.92-.49a4.87,4.87,0,0,1,.85,2.71c0,2.21-1.61,4-4.31,4S11.14,221.39,11.14,219.51Zm3.71-2.07c-1.68,0-2.61.74-2.61,2a2.57,2.57,0,0,0,2.61,2.38Z" transform="translate(-7.5 -14.81)"/><path class="cls-2" d="M7.5,210.75v-1.39H18c.45,0,.62-.18.62-.39a1,1,0,0,0,0-.3l1-.19a1.82,1.82,0,0,1,.14.8c0,1.05-.66,1.47-1.87,1.47Z" transform="translate(-7.5 -14.81)"/><path class="cls-2" d="M11.14,203.34c0-2.1,1.51-3.29,3.86-3.29a5.63,5.63,0,0,1,.77,0v5.57a2.75,2.75,0,0,0,2.9-2.75,3.75,3.75,0,0,0-.65-2.06l.92-.49a4.91,4.91,0,0,1,.85,2.72c0,2.2-1.61,3.95-4.31,3.95S11.14,205.22,11.14,203.34Zm3.71-2.07c-1.68,0-2.61.75-2.61,2a2.57,2.57,0,0,0,2.61,2.37Z" transform="translate(-7.5 -14.81)"/><path class="cls-2" d="M11.34,199.12v-1.44L16,196.11c.82-.23,1.65-.5,2.43-.76v-.07c-.78-.24-1.61-.51-2.43-.74L11.34,193V191.6l8.25,2.92v1.63Z" transform="translate(-7.5 -14.81)"/><path class="cls-2" d="M11.14,187c0-2.11,1.51-3.29,3.86-3.29a4.38,4.38,0,0,1,.77.05v5.56a2.74,2.74,0,0,0,2.9-2.75,3.72,3.72,0,0,0-.65-2.05l.92-.49a4.87,4.87,0,0,1,.85,2.71c0,2.21-1.61,4-4.31,4S11.14,188.87,11.14,187Zm3.71-2.07c-1.68,0-2.61.74-2.61,2a2.57,2.57,0,0,0,2.61,2.38Z" transform="translate(-7.5 -14.81)"/><path class="cls-2" d="M7.5,181.66v-1.39H18c.45,0,.62-.19.62-.39a1,1,0,0,0,0-.31l1-.18a1.76,1.76,0,0,1,.14.8c0,1.05-.66,1.47-1.87,1.47Z" transform="translate(-7.5 -14.81)"/><path class="cls-2" d="M19.3,173.33h-.07a1.53,1.53,0,0,1-1.34.73,1.92,1.92,0,0,1-1.53-.9h-.07a2.91,2.91,0,0,1-5.15-2,3.32,3.32,0,0,1,.2-1.17v-2.86h1.07v1.69a2.38,2.38,0,0,1,1.69-.68,3,3,0,0,1,2.58,4.26,1.27,1.27,0,0,0,1,.53c.52,0,.9-.34.9-1.46v-1.59c0-1.92.59-2.89,2-2.89s2.85,1.61,2.85,4.17c0,2-.8,3.42-2.23,3.42A2.38,2.38,0,0,1,19.3,173.33Zm-5.23-4a1.75,1.75,0,1,0,0,3.49,1.76,1.76,0,1,0,0-3.49Zm8.35,1.54c0-1.58-.82-2.61-1.68-2.61s-1,.59-1,1.66v1.43a4.11,4.11,0,0,1-.13,1.07,1.72,1.72,0,0,0,1.39.84C21.86,173.31,22.42,172.42,22.42,170.92Z" transform="translate(-7.5 -14.81)"/><path class="cls-2" d="M11.14,162.51c0-2.11,1.51-3.3,3.86-3.3a4.3,4.3,0,0,1,.77.06v5.56a2.74,2.74,0,0,0,2.9-2.75A3.72,3.72,0,0,0,18,160l.92-.49a4.87,4.87,0,0,1,.85,2.71c0,2.21-1.61,4-4.31,4S11.14,164.39,11.14,162.51Zm3.71-2.07c-1.68,0-2.61.74-2.61,2a2.57,2.57,0,0,0,2.61,2.38Z" transform="translate(-7.5 -14.81)"/><path class="cls-2" d="M11.34,157.18V156l1.49-.12v0a2.82,2.82,0,0,1-1.69-2.34,2.05,2.05,0,0,1,.17-.89l1.22.27a2.24,2.24,0,0,0-.14.8c0,.7.51,1.53,1.9,2.09h5.3v1.39Z" transform="translate(-7.5 -14.81)"/><path class="cls-2" d="M11.34,151.29v-1.15l1.19-.12V150a3.62,3.62,0,0,1-1.39-2.56,2.17,2.17,0,0,1,1.57-2.28,3.88,3.88,0,0,1-1.57-2.71c0-1.7,1.12-2.51,3.22-2.51h5.23v1.39h-5c-1.55,0-2.21.49-2.21,1.53a3,3,0,0,0,1.27,2.07h6v1.39h-5c-1.55,0-2.21.49-2.21,1.54a3.08,3.08,0,0,0,1.27,2.07h6v1.39Z" transform="translate(-7.5 -14.81)"/><path class="cls-2" d="M8.74,137.48a1,1,0,1,1,.9-1A.9.9,0,0,1,8.74,137.48Zm2.6-.25v-1.39h8.25v1.39Z" transform="translate(-7.5 -14.81)"/><path class="cls-2" d="M11.34,133.06V131.9l1.19-.12v-.05A3.89,3.89,0,0,1,11.14,129c0-1.73,1.12-2.51,3.22-2.51h5.23v1.39h-5c-1.55,0-2.21.47-2.21,1.56,0,.85.44,1.42,1.27,2.26h6v1.39Z" transform="translate(-7.5 -14.81)"/><path class="cls-2" d="M14.36,119.11c-1,0-2.07.36-2.07,1.7a4.48,4.48,0,0,0,.88,2.46l-1,.56a6.16,6.16,0,0,1-1.06-3.24c0-2,1.34-2.87,3.39-2.87h5.06v1.15l-1,.12v0a4.43,4.43,0,0,1,1.19,2.73,2.25,2.25,0,0,1-2.34,2.42C15.65,124.18,14.75,122.62,14.36,119.11Zm4.31,2.26a3.39,3.39,0,0,0-1.1-2.26H15.28c.34,2.77,1,3.7,2.07,3.7A1.26,1.26,0,0,0,18.67,121.37Z" transform="translate(-7.5 -14.81)"/><path class="cls-2" d="M12.48,114.85v1.23H11.42l-.08-1.29L9,114.62v-1.17h2.31v-2.23h1.14v2.23h4.58c1,0,1.59-.33,1.59-1.28a3,3,0,0,0-.22-.93l1.05-.27a4.9,4.9,0,0,1,.31,1.53c0,1.76-1.12,2.35-2.75,2.35Z" transform="translate(-7.5 -14.81)"/><path class="cls-2" d="M8.74,109.61a1,1,0,1,1,.9-1A.9.9,0,0,1,8.74,109.61Zm2.6-.25V108h8.25v1.39Z" transform="translate(-7.5 -14.81)"/><path class="cls-2" d="M11.14,102c0-2,1.57-3.82,4.34-3.82s4.31,1.8,4.31,3.82-1.58,3.81-4.31,3.81S11.14,104,11.14,102Zm7.5,0c0-1.43-1.28-2.38-3.16-2.38s-3.19,1-3.19,2.38,1.29,2.37,3.19,2.37S18.64,103.39,18.64,102Z" transform="translate(-7.5 -14.81)"/><path class="cls-2" d="M11.34,96V94.83l1.19-.11v0a3.91,3.91,0,0,1-1.39-2.77c0-1.73,1.12-2.51,3.22-2.51h5.23v1.39h-5c-1.55,0-2.21.47-2.21,1.56a3.16,3.16,0,0,0,1.27,2.26h6V96Z" transform="translate(-7.5 -14.81)"/><path class="cls-2" d="M88.76,360.07l2-2c2.42-2.42,5.12-2.31,7.61.18s2.68,5.27.3,7.64l-2,2Zm8.95,5.16c1.85-1.85,1.59-3.93-.4-5.92s-4-2.17-5.84-.32l-.89.89,6.24,6.24Z" transform="translate(-7.5 -14.81)"/><path class="cls-2" d="M103.51,353.66c-.74-.74-1.71-1.21-2.66-.26a4.49,4.49,0,0,0-1.12,2.36l-1.07-.29a6,6,0,0,1,1.53-3c1.43-1.43,3-1.08,4.43.37l3.57,3.57-.81.82-.78-.61,0,0a4.43,4.43,0,0,1-1.09,2.77,2.24,2.24,0,0,1-3.37.06C100.84,358.16,101.31,356.42,103.51,353.66Zm1.46,4.65a3.41,3.41,0,0,0,.81-2.38l-1.62-1.62c-1.71,2.2-1.89,3.34-1.15,4.08A1.27,1.27,0,0,0,105,358.31Z" transform="translate(-7.5 -14.81)"/><path class="cls-2" d="M104.22,348.68l.82-.81,1.14,1,0,0a2.83,2.83,0,0,1,.46-2.85,2,2,0,0,1,.74-.5l.67,1.05a2.31,2.31,0,0,0-.66.47c-.49.49-.72,1.44-.13,2.82l3.75,3.74-1,1Z" transform="translate(-7.5 -14.81)"/><path class="cls-2" d="M105.67,341.81l1-1,5.79,5.78,0,0-.58-5.56,1.09-1.09.38,4.29,5.71,1.28L118,346.59l-4.51-1.11.18,2.37,1.54,1.53-1,1Z" transform="translate(-7.5 -14.81)"/><path class="cls-2" d="M156,359.43,150.81,358l-1.42,1.42,3.33,3.32-1,1-7.87-7.87,2.47-2.47c1.6-1.6,3.32-2.17,5-.54a3,3,0,0,1,.46,4l5.44,1.43Zm-7.45-.83,1.32-1.31c1.22-1.23,1.39-2.4.37-3.42s-2.08-.74-3.3.49l-1.32,1.32Z" transform="translate(-7.5 -14.81)"/><path class="cls-2" d="M154.65,348.86c1.49-1.48,3.39-1.26,5.06.41a4.8,4.8,0,0,1,.51.58l-3.94,3.93a2.74,2.74,0,0,0,4,.11,3.68,3.68,0,0,0,1-1.91l1,.3A4.91,4.91,0,0,1,161,354.8c-1.56,1.56-3.94,1.66-5.85-.25S153.32,350.2,154.65,348.86Zm4.09,1.17c-1.19-1.19-2.38-1.32-3.29-.41a2.58,2.58,0,0,0,.17,3.53Z" transform="translate(-7.5 -14.81)"/><path class="cls-2" d="M160.53,343a3.31,3.31,0,0,1,2.3-1l-1-.95-2.25-2.25,1-1,8.54,8.54-.81.82-.77-.6,0,0a3.71,3.71,0,0,1-.93,2.59c-1.47,1.47-3.52,1.31-5.46-.63S159.19,344.32,160.53,343Zm5.38,5.19a2.79,2.79,0,0,0,.69-2.29l-3-3.05a2.88,2.88,0,0,0-2,.81c-.93.93-.78,2.57.55,3.91S164.89,349.2,165.91,348.18Z" transform="translate(-7.5 -14.81)"/><path class="cls-2" d="M202.44,363.92l-5.22-1.43-1.42,1.42,3.33,3.32-1,1-7.87-7.87,2.47-2.47c1.59-1.6,3.32-2.18,4.95-.54a3,3,0,0,1,.47,4l5.44,1.43Zm-7.45-.83,1.32-1.32c1.22-1.22,1.39-2.4.37-3.42s-2.08-.73-3.3.49l-1.32,1.32Z" transform="translate(-7.5 -14.81)"/><path class="cls-2" d="M198.79,350.53l.72-.72,7.24,13.63-.73.73Z" transform="translate(-7.5 -14.81)"/><path class="cls-2" d="M201.35,349.26l4.55-4.55.84.84-3.54,3.54,2.67,2.67,3-3,.84.84-3,3,3.52,3.53-1,1Z" transform="translate(-7.5 -14.81)"/><path class="cls-2" d="M219.41,346.94l-5.22-1.42-1.41,1.41,3.32,3.33-1,1-7.87-7.87,2.47-2.47c1.6-1.59,3.33-2.17,5-.54a3.07,3.07,0,0,1,.47,4l5.43,1.42Zm-7.45-.82,1.32-1.32c1.22-1.23,1.39-2.4.37-3.42s-2.07-.73-3.3.49L209,343.19Z" transform="translate(-7.5 -14.81)"/><path class="cls-2" d="M242.22,375,237,373.6,235.59,375l3.32,3.33-1,1L230,371.48l2.48-2.48c1.59-1.59,3.32-2.17,5-.54a3.07,3.07,0,0,1,.47,4l5.43,1.43Zm-7.45-.83,1.32-1.32c1.23-1.22,1.39-2.4.37-3.42s-2.07-.73-3.29.49l-1.32,1.32Z" transform="translate(-7.5 -14.81)"/><path class="cls-2" d="M238.58,361.64l.72-.72,7.24,13.63-.73.73Z" transform="translate(-7.5 -14.81)"/><path class="cls-2" d="M241.14,360.37l4.55-4.55.84.84L243,360.2l2.66,2.66,3-3,.84.84-3,3,3.53,3.53-1,1Z" transform="translate(-7.5 -14.81)"/><path class="cls-2" d="M259.2,358.05,254,356.62,252.56,358l3.33,3.32-1,1L247,354.5l2.47-2.47c1.6-1.6,3.32-2.17,5-.54a3.05,3.05,0,0,1,.46,4l5.44,1.42Zm-7.45-.83,1.32-1.31c1.22-1.23,1.39-2.4.37-3.42s-2.08-.74-3.3.49l-1.32,1.32Z" transform="translate(-7.5 -14.81)"/><path class="cls-2" d="M255.55,344.66l.72-.72,7.25,13.63-.73.74Z" transform="translate(-7.5 -14.81)"/><path class="cls-2" d="M270.31,346.94l-5.22-1.42-1.42,1.41,3.32,3.33-1,1-7.87-7.87,2.47-2.47c1.59-1.59,3.32-2.17,5-.54a3.05,3.05,0,0,1,.47,4l5.44,1.42Zm-7.45-.82,1.32-1.32c1.22-1.23,1.39-2.4.37-3.42s-2.08-.73-3.3.49l-1.32,1.32Z" transform="translate(-7.5 -14.81)"/><path class="cls-2" d="M276.14,392l-5.22-1.43L269.51,392l3.32,3.32-1,1L264,388.45l2.48-2.47c1.59-1.6,3.32-2.17,4.95-.54a3.05,3.05,0,0,1,.47,4l5.43,1.43Zm-7.45-.83,1.32-1.32c1.23-1.22,1.4-2.4.37-3.42s-2.07-.73-3.29.5l-1.32,1.32Z" transform="translate(-7.5 -14.81)"/><path class="cls-2" d="M272.5,378.61l.71-.72,7.25,13.63-.73.73Z" transform="translate(-7.5 -14.81)"/><path class="cls-2" d="M275.06,377.34l4.55-4.55.84.84-3.54,3.54,2.66,2.67,3-3,.84.84-3,3,3.53,3.52-1,1Z" transform="translate(-7.5 -14.81)"/><path class="cls-2" d="M293.12,375l-5.22-1.43L286.48,375l3.33,3.33-1,1-7.87-7.87L283.4,369c1.6-1.59,3.32-2.17,5-.54a3,3,0,0,1,.47,4l5.44,1.43Zm-7.45-.83,1.32-1.32c1.22-1.22,1.39-2.4.37-3.42s-2.08-.73-3.3.49l-1.32,1.32Z" transform="translate(-7.5 -14.81)"/><path class="cls-2" d="M289.47,361.64l.72-.72,7.25,13.63-.74.73Z" transform="translate(-7.5 -14.81)"/><path class="cls-2" d="M304.23,363.92,299,362.49l-1.42,1.42,3.32,3.32-1,1L292,360.37l2.47-2.47c1.59-1.6,3.32-2.18,4.95-.54a3,3,0,0,1,.47,4l5.44,1.43Zm-7.45-.83,1.32-1.32c1.22-1.22,1.39-2.4.37-3.42s-2.08-.73-3.3.49l-1.32,1.32Z" transform="translate(-7.5 -14.81)"/><path class="cls-2" d="M300.58,350.53l.72-.72,7.24,13.63-.73.73Z" transform="translate(-7.5 -14.81)"/><path class="cls-2" d="M303.14,349.26l4.55-4.55.84.84L305,349.09l2.67,2.66,3-3,.84.84-3,3,3.52,3.53-1,1Z" transform="translate(-7.5 -14.81)"/><path class="cls-2" d="M321.2,346.94,316,345.52l-1.41,1.41,3.32,3.33-1,1L309,343.39l2.47-2.47c1.6-1.59,3.32-2.17,5-.54a3.07,3.07,0,0,1,.47,4l5.43,1.42Zm-7.45-.82,1.32-1.32c1.22-1.23,1.39-2.4.37-3.42s-2.07-.73-3.3.49l-1.32,1.32Z" transform="translate(-7.5 -14.81)"/><path class="cls-2" d="M315.93,403.11l-5.22-1.43-1.41,1.42,3.32,3.32-1,1-7.87-7.87,2.47-2.47c1.6-1.6,3.33-2.17,5-.54a3.05,3.05,0,0,1,.47,4l5.43,1.43Zm-7.45-.83L309.8,401c1.22-1.22,1.39-2.4.37-3.42s-2.07-.73-3.3.49l-1.32,1.32Z" transform="translate(-7.5 -14.81)"/><path class="cls-2" d="M312.28,389.72,313,389l7.25,13.63-.73.73Z" transform="translate(-7.5 -14.81)"/><path class="cls-2" d="M314.85,388.45l4.55-4.55.84.84-3.54,3.54,2.66,2.66,3-3,.84.84-3,3,3.53,3.52-1,1Z" transform="translate(-7.5 -14.81)"/><path class="cls-2" d="M332.91,386.14l-5.22-1.43-1.42,1.41,3.32,3.33-1,1-7.88-7.88,2.48-2.47c1.59-1.59,3.32-2.17,4.95-.54a3.05,3.05,0,0,1,.47,4L334,385Zm-7.45-.83,1.31-1.32c1.23-1.23,1.4-2.4.38-3.42s-2.08-.73-3.3.49l-1.32,1.32Z" transform="translate(-7.5 -14.81)"/><path class="cls-2" d="M329.26,372.75,330,372l7.24,13.63-.73.73Z" transform="translate(-7.5 -14.81)"/><path class="cls-2" d="M344,375l-5.22-1.43L337.38,375l3.32,3.33-1,1-7.87-7.87,2.47-2.48c1.6-1.59,3.33-2.17,5-.54a3.07,3.07,0,0,1,.47,4l5.43,1.43Zm-7.45-.83,1.32-1.32c1.23-1.22,1.39-2.4.37-3.42s-2.07-.73-3.29.49l-1.33,1.32Z" transform="translate(-7.5 -14.81)"/><path class="cls-2" d="M340.37,361.64l.71-.72,7.25,13.63-.73.73Z" transform="translate(-7.5 -14.81)"/><path class="cls-2" d="M342.93,360.37l4.55-4.55.84.84-3.54,3.54,2.66,2.66,3-3,.84.84-3,3,3.53,3.53-1,1Z" transform="translate(-7.5 -14.81)"/><path class="cls-2" d="M361,358.05l-5.22-1.43L354.35,358l3.33,3.32-1,1-7.87-7.87,2.47-2.47c1.6-1.6,3.32-2.17,5-.54a3.05,3.05,0,0,1,.47,4l5.44,1.42Zm-7.45-.83,1.32-1.31c1.22-1.23,1.39-2.4.37-3.42s-2.08-.74-3.3.49l-1.32,1.32Z" transform="translate(-7.5 -14.81)"/><path class="cls-2" d="M357.34,344.67l.72-.73,7.24,13.63-.73.74Z" transform="translate(-7.5 -14.81)"/><path class="cls-2" d="M372.1,347l-5.22-1.43-1.42,1.41,3.33,3.33-1,1-7.87-7.87,2.47-2.47c1.59-1.59,3.32-2.17,4.95-.54a3.05,3.05,0,0,1,.47,4l5.44,1.43Zm-7.46-.83L366,344.8c1.23-1.23,1.4-2.4.38-3.42s-2.08-.73-3.3.49l-1.32,1.32Z" transform="translate(-7.5 -14.81)"/><path class="cls-2" d="M349.85,420.08l-5.22-1.42-1.41,1.41,3.32,3.32-1,1-7.87-7.87,2.47-2.47c1.6-1.6,3.33-2.17,5-.54a3.06,3.06,0,0,1,.47,4l5.43,1.42Zm-7.45-.82,1.32-1.32c1.22-1.23,1.39-2.4.37-3.42s-2.07-.74-3.3.49l-1.32,1.32Z" transform="translate(-7.5 -14.81)"/><path class="cls-2" d="M346.2,406.69l.72-.72,7.25,13.63-.73.74Z" transform="translate(-7.5 -14.81)"/><path class="cls-2" d="M348.77,405.42l4.55-4.54.84.84-3.54,3.54,2.66,2.66,3-3,.84.84-3,3,3.53,3.53-1,1Z" transform="translate(-7.5 -14.81)"/><path class="cls-2" d="M366.82,403.11l-5.21-1.43-1.42,1.42,3.32,3.32-1,1-7.88-7.87,2.48-2.47c1.59-1.6,3.32-2.18,4.95-.54a3,3,0,0,1,.47,4L368,402Zm-7.44-.83,1.31-1.32c1.23-1.22,1.4-2.4.38-3.42s-2.08-.73-3.3.49l-1.32,1.32Z" transform="translate(-7.5 -14.81)"/><path class="cls-2" d="M363.18,389.72l.72-.72,7.24,13.63-.73.73Z" transform="translate(-7.5 -14.81)"/><path class="cls-2" d="M377.93,392l-5.22-1.43L371.3,392l3.32,3.32-1,1-7.87-7.87,2.47-2.47c1.6-1.6,3.33-2.17,5-.54a3.05,3.05,0,0,1,.47,4l5.43,1.43Zm-7.45-.83,1.32-1.32c1.23-1.22,1.39-2.4.37-3.42s-2.07-.73-3.29.5l-1.33,1.32Z" transform="translate(-7.5 -14.81)"/><path class="cls-2" d="M374.28,378.61l.72-.72,7.25,13.63-.73.73Z" transform="translate(-7.5 -14.81)"/><path class="cls-2" d="M376.85,377.34l4.55-4.55.84.84-3.54,3.54,2.66,2.67,3-3,.84.84-3,3,3.53,3.52-1,1Z" transform="translate(-7.5 -14.81)"/><path class="cls-2" d="M394.91,375l-5.22-1.43L388.27,375l3.33,3.33-1,1-7.87-7.87,2.47-2.48c1.6-1.59,3.32-2.17,4.95-.54a3.06,3.06,0,0,1,.47,4l5.44,1.43Zm-7.45-.83,1.32-1.32c1.22-1.22,1.39-2.4.37-3.42s-2.08-.73-3.3.49l-1.32,1.32Z" transform="translate(-7.5 -14.81)"/><path class="cls-2" d="M391.26,361.64l.72-.72,7.24,13.63-.73.73Z" transform="translate(-7.5 -14.81)"/><path class="cls-2" d="M406,363.92l-5.22-1.43-1.42,1.42,3.32,3.32-1,1-7.87-7.87,2.47-2.47c1.59-1.6,3.32-2.18,4.95-.54a3,3,0,0,1,.47,4l5.43,1.43Zm-7.46-.83,1.32-1.32c1.23-1.22,1.4-2.4.38-3.42s-2.08-.73-3.3.49l-1.32,1.32Z" transform="translate(-7.5 -14.81)"/><path class="cls-2" d="M402.37,350.53l.72-.72,7.24,13.63-.73.73Z" transform="translate(-7.5 -14.81)"/><path class="cls-2" d="M404.93,349.26l4.55-4.55.84.84-3.54,3.54,2.67,2.67,3-3,.83.83-3,3,3.53,3.53-1,1Z" transform="translate(-7.5 -14.81)"/><path class="cls-2" d="M423,346.94l-5.22-1.42-1.42,1.41,3.33,3.33-1,1-7.87-7.87,2.47-2.47c1.6-1.59,3.32-2.17,5-.54a3.07,3.07,0,0,1,.47,4l5.43,1.42Zm-7.45-.82,1.32-1.32c1.22-1.23,1.39-2.4.37-3.42s-2.08-.73-3.3.49l-1.32,1.32Z" transform="translate(-7.5 -14.81)"/><path class="cls-2" d="M389.64,431.19l-5.22-1.43L383,431.18l3.33,3.32-1,1-7.87-7.87,2.47-2.47c1.6-1.6,3.32-2.17,5-.54a3.05,3.05,0,0,1,.46,4l5.44,1.43Zm-7.45-.83,1.32-1.32c1.22-1.22,1.39-2.4.37-3.42s-2.08-.73-3.3.5l-1.32,1.32Z" transform="translate(-7.5 -14.81)"/><path class="cls-2" d="M386,417.8l.72-.72L394,430.71l-.74.74Z" transform="translate(-7.5 -14.81)"/><path class="cls-2" d="M388.56,416.53,393.1,412l.84.84-3.54,3.54,2.67,2.67,3-3,.84.84-3,3,3.53,3.52-1,1Z" transform="translate(-7.5 -14.81)"/><path class="cls-2" d="M406.61,414.22l-5.22-1.43L400,414.21l3.32,3.32-1,1-7.87-7.87,2.47-2.48c1.6-1.59,3.33-2.17,5-.54a3.07,3.07,0,0,1,.47,4l5.43,1.43Zm-7.45-.83,1.32-1.32c1.23-1.22,1.39-2.4.37-3.42s-2.07-.73-3.3.49l-1.32,1.32Z" transform="translate(-7.5 -14.81)"/><path class="cls-2" d="M403,400.83l.72-.72,7.25,13.63-.73.73Z" transform="translate(-7.5 -14.81)"/><path class="cls-2" d="M417.72,403.11l-5.22-1.43-1.42,1.42,3.33,3.32-1,1-7.87-7.87,2.47-2.47c1.6-1.6,3.33-2.18,5-.54a3.05,3.05,0,0,1,.47,4l5.43,1.43Zm-7.45-.83,1.32-1.32c1.22-1.22,1.39-2.4.37-3.42s-2.07-.73-3.3.49l-1.32,1.32Z" transform="translate(-7.5 -14.81)"/><path class="cls-2" d="M414.07,389.72l.72-.72L422,402.63l-.73.73Z" transform="translate(-7.5 -14.81)"/><path class="cls-2" d="M416.64,388.45l4.55-4.55.84.84-3.54,3.54,2.66,2.67,3-3,.84.84-3,3,3.53,3.52-1,1Z" transform="translate(-7.5 -14.81)"/><path class="cls-2" d="M434.7,386.13l-5.23-1.42-1.41,1.41,3.32,3.33-1,1-7.88-7.87,2.48-2.47c1.59-1.59,3.32-2.17,4.95-.54a3.05,3.05,0,0,1,.47,4l5.43,1.43Zm-7.46-.82,1.32-1.32c1.23-1.23,1.4-2.4.38-3.42s-2.08-.73-3.3.49l-1.32,1.32Z" transform="translate(-7.5 -14.81)"/><path class="cls-2" d="M431.05,372.75l.72-.72L439,385.66l-.73.73Z" transform="translate(-7.5 -14.81)"/><path class="cls-2" d="M445.8,375l-5.22-1.43L439.17,375l3.32,3.33-1,1-7.87-7.87,2.47-2.48c1.6-1.59,3.33-2.17,5-.54a3.07,3.07,0,0,1,.47,4l5.43,1.43Zm-7.45-.83,1.32-1.32c1.23-1.22,1.39-2.4.37-3.42s-2.07-.73-3.3.49l-1.32,1.32Z" transform="translate(-7.5 -14.81)"/><path class="cls-2" d="M442.15,361.64l.72-.72,7.25,13.63-.73.73Z" transform="translate(-7.5 -14.81)"/><path class="cls-2" d="M444.72,360.37l4.55-4.55.84.84-3.54,3.54,2.66,2.66,3-3,.84.84-3,3,3.53,3.53-1,1Z" transform="translate(-7.5 -14.81)"/><path class="cls-2" d="M462.78,358.05l-5.22-1.43L456.14,358l3.33,3.32-1,1-7.87-7.87,2.47-2.47c1.59-1.6,3.32-2.17,4.95-.54a3.05,3.05,0,0,1,.47,4l5.44,1.42Zm-7.45-.83,1.32-1.31c1.22-1.23,1.39-2.4.37-3.42s-2.08-.74-3.3.49l-1.32,1.32Z" transform="translate(-7.5 -14.81)"/><path class="cls-2" d="M459.13,344.66l.72-.72,7.25,13.63-.74.74Z" transform="translate(-7.5 -14.81)"/><path class="cls-2" d="M473.88,347l-5.21-1.43-1.42,1.41,3.32,3.33-1,1-7.87-7.87,2.47-2.47c1.59-1.59,3.32-2.17,4.95-.54a3.05,3.05,0,0,1,.47,4L475,345.8Zm-7.45-.83,1.32-1.32c1.23-1.23,1.4-2.4.38-3.42s-2.08-.73-3.3.49l-1.32,1.32Z" transform="translate(-7.5 -14.81)"/><path class="cls-2" d="M38.4,79.1h2.48v-8h-2v-.9a6.44,6.44,0,0,0,2.29-.8h1.07V79.1h2.24v1.15H38.4Z" transform="translate(-7.5 -14.81)"/><path class="cls-2" d="M46.83,79.1h2.48v-8h-2v-.9a6.37,6.37,0,0,0,2.29-.8H50.7V79.1h2.24v1.15H46.83Z" transform="translate(-7.5 -14.81)"/><path class="cls-2" d="M54.67,74.8c0-3.63,1.3-5.58,3.48-5.58s3.46,2,3.46,5.58-1.31,5.65-3.46,5.65S54.67,78.43,54.67,74.8Zm5.58,0c0-3.17-.85-4.46-2.1-4.46S56,71.63,56,74.8s.85,4.53,2.13,4.53S60.25,78,60.25,74.8Z" transform="translate(-7.5 -14.81)"/><path class="cls-2" d="M38.4,101.71h2.48v-8h-2v-.9A6.44,6.44,0,0,0,41.2,92h1.07v9.67h2.24v1.16H38.4Z" transform="translate(-7.5 -14.81)"/><path class="cls-2" d="M46.24,97.42c0-3.63,1.3-5.58,3.47-5.58s3.47,2,3.47,5.58-1.31,5.65-3.47,5.65S46.24,101.05,46.24,97.42Zm5.58,0c0-3.17-.85-4.46-2.11-4.46s-2.12,1.29-2.12,4.46.85,4.53,2.12,4.53S51.82,100.59,51.82,97.42Z" transform="translate(-7.5 -14.81)"/><path class="cls-2" d="M54.67,97.42c0-3.63,1.3-5.58,3.48-5.58s3.46,2,3.46,5.58-1.31,5.65-3.46,5.65S54.67,101.05,54.67,97.42Zm5.58,0c0-3.17-.85-4.46-2.1-4.46S56,94.25,56,97.42s.85,4.53,2.13,4.53S60.25,100.59,60.25,97.42Z" transform="translate(-7.5 -14.81)"/><path class="cls-2" d="M47.14,123.67a2.36,2.36,0,0,0,1.78.87c1.52,0,2.81-1.19,2.86-4.65a3.38,3.38,0,0,1-2.54,1.39c-1.87,0-3.07-1.12-3.07-3.34a3.27,3.27,0,0,1,3.19-3.48c2.14,0,3.73,1.73,3.73,5.21,0,4.34-2,6-4.12,6a3.49,3.49,0,0,1-2.62-1.13Zm4.61-4.88c-.19-2.11-1-3.23-2.39-3.23-1,0-1.89,1-1.89,2.38s.67,2.29,2,2.29A2.93,2.93,0,0,0,51.75,118.79Z" transform="translate(-7.5 -14.81)"/><path class="cls-2" d="M54.67,120c0-3.63,1.3-5.58,3.48-5.58s3.46,2,3.46,5.58-1.31,5.65-3.46,5.65S54.67,123.67,54.67,120Zm5.58,0c0-3.17-.85-4.46-2.1-4.46S56,116.87,56,120s.85,4.53,2.13,4.53S60.25,123.21,60.25,120Z" transform="translate(-7.5 -14.81)"/><path class="cls-2" d="M48.22,142.42v-.06a3.07,3.07,0,0,1-1.51-2.5,2.83,2.83,0,0,1,3.07-2.78A2.81,2.81,0,0,1,52.84,140a3.59,3.59,0,0,1-1.5,2.62v.06a3.13,3.13,0,0,1,1.89,2.79c0,1.61-1.4,2.88-3.5,2.88s-3.54-1.25-3.54-3A3.42,3.42,0,0,1,48.22,142.42Zm1.55,4.86a1.93,1.93,0,0,0,2.12-1.9c0-1.4-1.38-1.9-2.94-2.53a2.93,2.93,0,0,0-1.51,2.36A2.15,2.15,0,0,0,49.77,147.28ZM51.63,140a1.8,1.8,0,0,0-1.88-1.92A1.68,1.68,0,0,0,48,139.86c0,1.29,1.19,1.83,2.49,2.34A2.91,2.91,0,0,0,51.63,140Z" transform="translate(-7.5 -14.81)"/><path class="cls-2" d="M54.67,142.66c0-3.63,1.3-5.58,3.48-5.58s3.46,1.95,3.46,5.58-1.31,5.65-3.46,5.65S54.67,146.29,54.67,142.66Zm5.58,0c0-3.17-.85-4.46-2.1-4.46S56,139.49,56,142.66s.85,4.53,2.13,4.53S60.25,145.83,60.25,142.66Z" transform="translate(-7.5 -14.81)"/><path class="cls-2" d="M51.63,161.11H46.24V159.9h7v.87c-2.56,3.27-3.09,5.73-3.28,10H48.49A16,16,0,0,1,51.63,161.11Z" transform="translate(-7.5 -14.81)"/><path class="cls-2" d="M54.67,165.28c0-3.63,1.3-5.58,3.48-5.58s3.46,2,3.46,5.58-1.31,5.65-3.46,5.65S54.67,168.91,54.67,165.28Zm5.58,0c0-3.17-.85-4.46-2.1-4.46S56,162.11,56,165.28s.85,4.53,2.13,4.53S60.25,168.45,60.25,165.28Z" transform="translate(-7.5 -14.81)"/><path class="cls-2" d="M52.26,184.34a2.34,2.34,0,0,0-1.78-.85c-1.51,0-2.78,1.17-2.85,4.6a3.46,3.46,0,0,1,2.53-1.36c1.86,0,3.08,1.12,3.08,3.34a3.27,3.27,0,0,1-3.2,3.48c-2.12,0-3.74-1.73-3.74-5.21,0-4.34,2-6,4.13-6A3.41,3.41,0,0,1,53,183.47Zm-.34,5.73c0-1.41-.66-2.29-2-2.29a2.94,2.94,0,0,0-2.26,1.43c.17,2.1,1,3.24,2.38,3.24C51.11,192.45,51.92,191.5,51.92,190.07Z" transform="translate(-7.5 -14.81)"/><path class="cls-2" d="M54.67,187.9c0-3.63,1.3-5.58,3.48-5.58s3.46,2,3.46,5.58-1.31,5.65-3.46,5.65S54.67,191.53,54.67,187.9Zm5.58,0c0-3.17-.85-4.46-2.1-4.46S56,184.73,56,187.9s.85,4.53,2.13,4.53S60.25,191.07,60.25,187.9Z" transform="translate(-7.5 -14.81)"/><path class="cls-2" d="M46.59,213.78A3.71,3.71,0,0,0,49.32,215a2.34,2.34,0,0,0,2.38-2.48,2.17,2.17,0,0,0-2.31-2.37,3,3,0,0,0-1.85.66l-.74-.48.35-5.21h5.41v1.21H48.37l-.28,3.2a3.31,3.31,0,0,1,1.66-.44,3.12,3.12,0,0,1,3.36,3.4,3.54,3.54,0,0,1-3.65,3.66,4.78,4.78,0,0,1-3.55-1.47Z" transform="translate(-7.5 -14.81)"/><path class="cls-2" d="M54.67,210.52c0-3.63,1.3-5.58,3.48-5.58s3.46,1.95,3.46,5.58-1.31,5.65-3.46,5.65S54.67,214.15,54.67,210.52Zm5.58,0c0-3.17-.85-4.46-2.1-4.46S56,207.35,56,210.52s.85,4.53,2.13,4.53S60.25,213.69,60.25,210.52Z" transform="translate(-7.5 -14.81)"/><path class="cls-2" d="M53.45,235.6H52v3H50.65v-3H45.78v-.91l4.63-6.93H52v6.72h1.48Zm-2.8-1.12v-3.14c0-.57.05-1.51.08-2.08h-.07c-.27.52-.57,1-.88,1.52l-2.53,3.7Z" transform="translate(-7.5 -14.81)"/><path class="cls-2" d="M54.67,233.14c0-3.63,1.3-5.58,3.48-5.58s3.46,1.95,3.46,5.58-1.31,5.65-3.46,5.65S54.67,236.77,54.67,233.14Zm5.58,0c0-3.17-.85-4.46-2.1-4.46S56,230,56,233.14s.85,4.53,2.13,4.53S60.25,236.31,60.25,233.14Z" transform="translate(-7.5 -14.81)"/><path class="cls-2" d="M46.64,259a3.69,3.69,0,0,0,2.77,1.29,2,2,0,0,0,2.24-2c0-1.29-.88-2.15-3.46-2.15v-1.07c2.3,0,3.07-.88,3.07-2a1.67,1.67,0,0,0-1.87-1.72,3.28,3.28,0,0,0-2.31,1.11l-.74-.88a4.41,4.41,0,0,1,3.1-1.36c1.89,0,3.24,1,3.24,2.75a2.69,2.69,0,0,1-2,2.58v.06a2.81,2.81,0,0,1,2.34,2.75c0,1.92-1.58,3.09-3.57,3.09a4.59,4.59,0,0,1-3.56-1.53Z" transform="translate(-7.5 -14.81)"/><path class="cls-2" d="M54.67,255.76c0-3.63,1.3-5.58,3.48-5.58s3.46,1.95,3.46,5.58-1.31,5.65-3.46,5.65S54.67,259.39,54.67,255.76Zm5.58,0c0-3.17-.85-4.46-2.1-4.46S56,252.59,56,255.76s.85,4.53,2.13,4.53S60.25,258.93,60.25,255.76Z" transform="translate(-7.5 -14.81)"/><path class="cls-2" d="M46.17,283c3.26-3.25,5.09-5.2,5.09-6.94a1.92,1.92,0,0,0-2-2.13,3.2,3.2,0,0,0-2.31,1.31l-.8-.8a4.27,4.27,0,0,1,3.28-1.64A3,3,0,0,1,52.62,276c0,2-1.85,4.05-4.42,6.73.6-.05,1.26-.1,1.82-.1h3.14v1.21h-7Z" transform="translate(-7.5 -14.81)"/><path class="cls-2" d="M54.67,278.38c0-3.63,1.3-5.58,3.48-5.58s3.46,1.95,3.46,5.58S60.3,284,58.15,284,54.67,282,54.67,278.38Zm5.58,0c0-3.17-.85-4.46-2.1-4.46S56,275.21,56,278.38s.85,4.53,2.13,4.53S60.25,281.55,60.25,278.38Z" transform="translate(-7.5 -14.81)"/><path class="cls-2" d="M46.83,305.29h2.48v-8h-2v-.9a6.37,6.37,0,0,0,2.29-.8H50.7v9.67h2.24v1.16H46.83Z" transform="translate(-7.5 -14.81)"/><path class="cls-2" d="M54.67,301c0-3.63,1.3-5.58,3.48-5.58s3.46,1.95,3.46,5.58-1.31,5.65-3.46,5.65S54.67,304.63,54.67,301Zm5.58,0c0-3.17-.85-4.46-2.1-4.46S56,297.83,56,301s.85,4.53,2.13,4.53S60.25,304.17,60.25,301Z" transform="translate(-7.5 -14.81)"/><path class="cls-2" d="M54.67,323.62c0-3.63,1.3-5.58,3.48-5.58s3.46,1.95,3.46,5.58-1.31,5.65-3.46,5.65S54.67,327.25,54.67,323.62Zm5.58,0c0-3.17-.85-4.46-2.1-4.46S56,320.45,56,323.62s.85,4.53,2.13,4.53S60.25,326.79,60.25,323.62Z" transform="translate(-7.5 -14.81)"/><rect class="cls-3" x="100.21" y="287.46" width="14.92" height="21.49"/><rect class="cls-3" x="151.11" y="86.15" width="14.92" height="222.8"/><rect class="cls-3" x="202" y="190.21" width="14.92" height="118.74"/><rect class="cls-3" x="252.9" y="82.75" width="14.92" height="226.2"/><rect class="cls-3" x="303.79" y="216.63" width="14.92" height="92.32"/><rect class="cls-3" x="354.68" y="82.75" width="14.92" height="226.2"/><rect class="cls-3" x="405.58" y="190.21" width="14.92" height="118.74"/><rect class="cls-3" x="456.47" y="86.15" width="14.92" height="222.8"/><path class="cls-2" d="M80.58,16H82v9.93h4.86v1.2H80.58Z" transform="translate(-7.5 -14.81)"/><path class="cls-2" d="M91.54,18.64c2.1,0,3.29,1.51,3.29,3.87a5.36,5.36,0,0,1,0,.76H89.21A2.75,2.75,0,0,0,92,26.18,3.78,3.78,0,0,0,94,25.53l.49.92a4.93,4.93,0,0,1-2.72.85c-2.2,0-4-1.62-4-4.31S89.65,18.64,91.54,18.64Zm2.07,3.72c0-1.68-.75-2.61-2-2.61a2.57,2.57,0,0,0-2.37,2.61Z" transform="translate(-7.5 -14.81)"/><path class="cls-2" d="M96.86,20H95.64V18.93l1.29-.08.17-2.31h1.17v2.31h2.23V20H98.27v4.58c0,1,.33,1.6,1.28,1.6a3.07,3.07,0,0,0,.93-.22l.27,1a5.21,5.21,0,0,1-1.53.31c-1.76,0-2.36-1.12-2.36-2.75Z" transform="translate(-7.5 -14.81)"/><path class="cls-2" d="M102.6,20h-1.22V18.93l1.29-.08.17-2.31H104v2.31h2.22V20H104v4.58c0,1,.32,1.6,1.27,1.6a3,3,0,0,0,.93-.22l.27,1a5.08,5.08,0,0,1-1.52.31c-1.77,0-2.36-1.12-2.36-2.75Z" transform="translate(-7.5 -14.81)"/><path class="cls-2" d="M107.87,18.85h1.41v5c0,1.54.46,2.2,1.55,2.2.85,0,1.44-.42,2.22-1.39V18.85h1.39v8.24h-1.15l-.12-1.29h0a3.51,3.51,0,0,1-2.72,1.5c-1.74,0-2.53-1.12-2.53-3.23Z" transform="translate(-7.5 -14.81)"/><path class="cls-2" d="M120.58,18.64a3.38,3.38,0,0,1,2.41,1l-.69.9a2.5,2.5,0,0,0-1.67-.73c-1.49,0-2.58,1.29-2.58,3.19s1,3.15,2.55,3.15a2.93,2.93,0,0,0,1.93-.83l.63.92a4.11,4.11,0,0,1-2.68,1.07c-2.19,0-3.87-1.58-3.87-4.31A4,4,0,0,1,120.58,18.64Z" transform="translate(-7.5 -14.81)"/><path class="cls-2" d="M127.69,18.64c2.1,0,3.29,1.51,3.29,3.87a5.36,5.36,0,0,1,0,.76h-5.57a2.76,2.76,0,0,0,2.75,2.91,3.75,3.75,0,0,0,2.06-.65l.49.92a4.91,4.91,0,0,1-2.72.85c-2.2,0-4-1.62-4-4.31S125.81,18.64,127.69,18.64Zm2.07,3.72c0-1.68-.75-2.61-2-2.61a2.57,2.57,0,0,0-2.37,2.61Z" transform="translate(-7.5 -14.81)"/><path class="cls-2" d="M136.22,25.23a3.73,3.73,0,0,0,2.43,1c1.08,0,1.63-.58,1.63-1.29s-1-1.22-1.89-1.56c-1.17-.42-2.46-1-2.46-2.38s1.06-2.34,2.84-2.34a4.12,4.12,0,0,1,2.56.94l-.66.88a3,3,0,0,0-1.89-.73c-1,0-1.51.56-1.51,1.19s.9,1.06,1.84,1.42c1.18.44,2.51.93,2.51,2.5,0,1.34-1.07,2.46-3,2.46a5,5,0,0,1-3.07-1.14Z" transform="translate(-7.5 -14.81)"/><path class="cls-2" d="M146.64,18.64c2.1,0,3.29,1.51,3.29,3.87a5.36,5.36,0,0,1-.05.76h-5.57a2.75,2.75,0,0,0,2.75,2.91,3.78,3.78,0,0,0,2.06-.65l.49.92a4.91,4.91,0,0,1-2.72.85c-2.2,0-3.95-1.62-3.95-4.31S144.76,18.64,146.64,18.64Zm2.07,3.72c0-1.68-.75-2.61-2-2.61a2.57,2.57,0,0,0-2.37,2.61Z" transform="translate(-7.5 -14.81)"/><path class="cls-2" d="M155.05,18.64c2.11,0,3.29,1.51,3.29,3.87a4.2,4.2,0,0,1-.05.76h-5.56a2.75,2.75,0,0,0,2.75,2.91,3.72,3.72,0,0,0,2.05-.65l.49.92a4.87,4.87,0,0,1-2.71.85c-2.21,0-4-1.62-4-4.31S153.17,18.64,155.05,18.64Zm2.07,3.72c0-1.68-.74-2.61-2-2.61a2.57,2.57,0,0,0-2.38,2.61Z" transform="translate(-7.5 -14.81)"/><path class="cls-2" d="M163.37,18.64a3.4,3.4,0,0,1,2.3.95l-.06-1.41V15H167V27.09h-1.15l-.12-1h-.05a3.72,3.72,0,0,1-2.49,1.18c-2.07,0-3.41-1.57-3.41-4.31S161.48,18.64,163.37,18.64Zm.13,7.48A2.81,2.81,0,0,0,165.61,25V20.68a2.89,2.89,0,0,0-2-.87c-1.32,0-2.37,1.28-2.37,3.16S162.06,26.12,163.5,26.12Z" transform="translate(-7.5 -14.81)"/><path class="cls-2" d="M169.57,25.23a3.77,3.77,0,0,0,2.43,1c1.09,0,1.63-.58,1.63-1.29s-1-1.22-1.88-1.56c-1.17-.42-2.46-1-2.46-2.38s1.05-2.34,2.83-2.34a4.12,4.12,0,0,1,2.56.94l-.66.88a3,3,0,0,0-1.88-.73c-1,0-1.51.56-1.51,1.19s.9,1.06,1.83,1.42c1.19.44,2.51.93,2.51,2.5,0,1.34-1.07,2.46-3,2.46a5,5,0,0,1-3.07-1.14Z" transform="translate(-7.5 -14.81)"/><path class="cls-2" d="M180.91,26.8v-.06a1.53,1.53,0,0,1-.73-1.34,1.92,1.92,0,0,1,.9-1.53V23.8A2.9,2.9,0,0,1,180,21.58a2.93,2.93,0,0,1,3.1-2.94,3.22,3.22,0,0,1,1.17.21h2.87v1.07h-1.7a2.38,2.38,0,0,1,.68,1.69,2.83,2.83,0,0,1-3,2.87,2.89,2.89,0,0,1-1.24-.29,1.25,1.25,0,0,0-.52,1c0,.53.34.9,1.46.9h1.59c1.92,0,2.89.6,2.89,2,0,1.53-1.62,2.85-4.18,2.85-2,0-3.41-.79-3.41-2.22A2.38,2.38,0,0,1,180.91,26.8Zm2.41,3.13c1.57,0,2.61-.82,2.61-1.68s-.6-1-1.66-1h-1.43a4.14,4.14,0,0,1-1.07-.14,1.76,1.76,0,0,0-.85,1.39C180.92,29.37,181.82,29.93,183.32,29.93Zm1.54-8.35a1.76,1.76,0,1,0-3.5,0,1.76,1.76,0,1,0,3.5,0Z" transform="translate(-7.5 -14.81)"/><path class="cls-2" d="M191.73,18.64c2.1,0,3.29,1.51,3.29,3.87a4.2,4.2,0,0,1-.05.76h-5.56a2.74,2.74,0,0,0,2.74,2.91,3.73,3.73,0,0,0,2.06-.65l.49.92a4.91,4.91,0,0,1-2.72.85c-2.2,0-3.95-1.62-3.95-4.31S189.85,18.64,191.73,18.64Zm2.07,3.72c0-1.68-.75-2.61-2-2.61a2.57,2.57,0,0,0-2.37,2.61Z" transform="translate(-7.5 -14.81)"/><path class="cls-2" d="M197.06,18.85h1.15l.12,1.49h0a2.82,2.82,0,0,1,2.34-1.7,2,2,0,0,1,.88.17L201.33,20a2.42,2.42,0,0,0-.79-.13c-.7,0-1.53.51-2.09,1.9v5.29h-1.39Z" transform="translate(-7.5 -14.81)"/><path class="cls-2" d="M202.94,18.85h1.16l.12,1.18h.05a3.62,3.62,0,0,1,2.56-1.39,2.17,2.17,0,0,1,2.27,1.58,3.93,3.93,0,0,1,2.72-1.58c1.69,0,2.51,1.12,2.51,3.23v5.22h-1.39v-5c0-1.54-.49-2.2-1.53-2.2a3,3,0,0,0-2.07,1.27v6H208v-5c0-1.54-.49-2.2-1.54-2.2a3.09,3.09,0,0,0-2.08,1.27v6h-1.39Z" transform="translate(-7.5 -14.81)"/><path class="cls-2" d="M216.75,16.25a1,1,0,1,1,1,.9A.91.91,0,0,1,216.75,16.25Zm.26,2.6h1.39v8.24H217Z" transform="translate(-7.5 -14.81)"/><path class="cls-2" d="M221.18,18.85h1.15l.12,1.18h.05a3.89,3.89,0,0,1,2.77-1.39c1.73,0,2.51,1.12,2.51,3.23v5.22h-1.39v-5c0-1.54-.48-2.2-1.56-2.2a3.16,3.16,0,0,0-2.26,1.27v6h-1.39Z" transform="translate(-7.5 -14.81)"/><path class="cls-2" d="M235.13,21.87c0-1.06-.36-2.07-1.7-2.07a4.42,4.42,0,0,0-2.46.88l-.56-1a6.14,6.14,0,0,1,3.24-1.07c2,0,2.87,1.34,2.87,3.4v5.05h-1.16l-.11-1h0a4.51,4.51,0,0,1-2.73,1.19A2.26,2.26,0,0,1,230.05,25C230.05,23.16,231.61,22.26,235.13,21.87Zm-2.26,4.31a3.36,3.36,0,0,0,2.26-1.11V22.78c-2.77.34-3.7,1-3.7,2.07A1.27,1.27,0,0,0,232.87,26.18Z" transform="translate(-7.5 -14.81)"/><path class="cls-2" d="M239.38,20h-1.22V18.93l1.29-.08.17-2.31h1.17v2.31H243V20h-2.22v4.58c0,1,.32,1.6,1.27,1.6a3.07,3.07,0,0,0,.94-.22l.27,1a5.21,5.21,0,0,1-1.53.31c-1.76,0-2.36-1.12-2.36-2.75Z" transform="translate(-7.5 -14.81)"/><path class="cls-2" d="M244.63,16.25a1,1,0,1,1,1,.9A.9.9,0,0,1,244.63,16.25Zm.25,2.6h1.39v8.24h-1.39Z" transform="translate(-7.5 -14.81)"/><path class="cls-2" d="M249.05,18.85h1.16l.12,1.18h0a3.89,3.89,0,0,1,2.76-1.39c1.73,0,2.51,1.12,2.51,3.23v5.22h-1.39v-5c0-1.54-.47-2.2-1.56-2.2-.85,0-1.42.44-2.26,1.27v6h-1.39Z" transform="translate(-7.5 -14.81)"/><path class="cls-2" d="M258.91,26.8v-.06a1.53,1.53,0,0,1-.73-1.34,1.94,1.94,0,0,1,.9-1.53V23.8a2.91,2.91,0,0,1,2-5.16,3.31,3.31,0,0,1,1.17.21h2.86v1.07h-1.69a2.38,2.38,0,0,1,.68,1.69,3,3,0,0,1-4.26,2.58,1.26,1.26,0,0,0-.53,1c0,.53.34.9,1.46.9h1.6c1.91,0,2.88.6,2.88,2,0,1.53-1.61,2.85-4.17,2.85-2,0-3.41-.79-3.41-2.22A2.37,2.37,0,0,1,258.91,26.8Zm2.41,3.13c1.58,0,2.61-.82,2.61-1.68s-.59-1-1.66-1h-1.43a4,4,0,0,1-1.06-.14,1.74,1.74,0,0,0-.85,1.39C258.93,29.37,259.83,29.93,261.32,29.93Zm1.54-8.35a1.75,1.75,0,1,0-3.49,0,1.76,1.76,0,1,0,3.49,0Z" transform="translate(-7.5 -14.81)"/><path class="cls-2" d="M275,21.87c0-1.06-.36-2.07-1.7-2.07a4.42,4.42,0,0,0-2.46.88l-.56-1a6.14,6.14,0,0,1,3.24-1.07c2,0,2.87,1.34,2.87,3.4v5.05h-1.16l-.11-1h0a4.51,4.51,0,0,1-2.73,1.19A2.26,2.26,0,0,1,269.9,25C269.9,23.16,271.46,22.26,275,21.87Zm-2.26,4.31A3.36,3.36,0,0,0,275,25.07V22.78c-2.77.34-3.7,1-3.7,2.07A1.27,1.27,0,0,0,272.72,26.18Z" transform="translate(-7.5 -14.81)"/><path class="cls-2" d="M287.46,27a5.14,5.14,0,0,1-1.52.31c-1.77,0-2.36-1.12-2.36-2.75V20h-2.95v7.11h-1.4V20h-1.12V18.93l1.12-.08V17.54c0-1.68.77-2.73,2.41-2.73a3.85,3.85,0,0,1,1.38.27l-.31,1.07a2.24,2.24,0,0,0-.93-.21c-.78,0-1.15.55-1.15,1.6v1.31h3l.17-2.31H285v2.31h2.24V20H285v4.58c0,1,.34,1.6,1.29,1.6a3,3,0,0,0,.93-.22Z" transform="translate(-7.5 -14.81)"/><path class="cls-2" d="M292,18.64c2.11,0,3.29,1.51,3.29,3.87a4.2,4.2,0,0,1,0,.76h-5.56a2.75,2.75,0,0,0,2.75,2.91,3.72,3.72,0,0,0,2.05-.65l.49.92a4.87,4.87,0,0,1-2.71.85c-2.21,0-4-1.62-4-4.31S290.11,18.64,292,18.64Zm2.07,3.72c0-1.68-.74-2.61-2-2.61a2.57,2.57,0,0,0-2.38,2.61Z" transform="translate(-7.5 -14.81)"/><path class="cls-2" d="M297.32,18.85h1.15l.12,1.49h.05a2.82,2.82,0,0,1,2.34-1.7,2.08,2.08,0,0,1,.89.17L301.59,20a2.38,2.38,0,0,0-.79-.13c-.7,0-1.53.51-2.09,1.9v5.29h-1.39Z" transform="translate(-7.5 -14.81)"/><path class="cls-2" d="M309.72,18.64c2.1,0,3.29,1.51,3.29,3.87a5.36,5.36,0,0,1-.05.76h-5.57a2.76,2.76,0,0,0,2.75,2.91,3.75,3.75,0,0,0,2.06-.65l.49.92a4.91,4.91,0,0,1-2.72.85c-2.2,0-4-1.62-4-4.31S307.84,18.64,309.72,18.64Zm2.07,3.72c0-1.68-.75-2.61-2-2.61a2.57,2.57,0,0,0-2.37,2.61Z" transform="translate(-7.5 -14.81)"/><path class="cls-2" d="M316.47,22.78,314,18.85h1.51l1.1,1.81c.25.44.53.92.81,1.38h.07c.24-.46.49-.94.75-1.38l1-1.81h1.46l-2.5,4.09,2.69,4.15h-1.51l-1.21-1.92c-.29-.49-.59-1-.9-1.47h-.07c-.28.47-.56,1-.83,1.47l-1.12,1.92h-1.46Z" transform="translate(-7.5 -14.81)"/><path class="cls-2" d="M323.88,27.79v2.78h-1.39V18.85h1.16l.12.95h.05a4.24,4.24,0,0,1,2.63-1.16c2.12,0,3.26,1.65,3.26,4.21,0,2.8-1.68,4.45-3.57,4.45a3.85,3.85,0,0,1-2.29-.95Zm2-1.67c1.36,0,2.36-1.23,2.36-3.27,0-1.82-.61-3-2.17-3a3.48,3.48,0,0,0-2.21,1.12v4.33A3.25,3.25,0,0,0,325.9,26.12Z" transform="translate(-7.5 -14.81)"/><path class="cls-2" d="M335.12,18.64c2,0,3.81,1.58,3.81,4.35s-1.8,4.31-3.81,4.31S331.3,25.72,331.3,23,333.1,18.64,335.12,18.64Zm0,7.5c1.42,0,2.37-1.27,2.37-3.15s-.95-3.19-2.37-3.19-2.38,1.29-2.38,3.19S333.71,26.14,335.12,26.14Z" transform="translate(-7.5 -14.81)"/><path class="cls-2" d="M340.88,25.23a3.77,3.77,0,0,0,2.43,1c1.09,0,1.63-.58,1.63-1.29s-1-1.22-1.89-1.56c-1.17-.42-2.46-1-2.46-2.38s1.06-2.34,2.84-2.34a4.12,4.12,0,0,1,2.56.94l-.66.88a3,3,0,0,0-1.88-.73c-1,0-1.51.56-1.51,1.19s.89,1.06,1.83,1.42c1.19.44,2.51.93,2.51,2.5,0,1.34-1.07,2.46-3,2.46a5,5,0,0,1-3.07-1.14Z" transform="translate(-7.5 -14.81)"/><path class="cls-2" d="M348.09,18.85h1.41v5c0,1.54.46,2.2,1.54,2.2.85,0,1.45-.42,2.23-1.39V18.85h1.39v8.24h-1.15l-.12-1.29h-.05a3.51,3.51,0,0,1-2.72,1.5c-1.75,0-2.53-1.12-2.53-3.23Z" transform="translate(-7.5 -14.81)"/><path class="cls-2" d="M357.44,18.85h1.15l.12,1.49h.05a2.82,2.82,0,0,1,2.35-1.7,2,2,0,0,1,.88.17L361.72,20a2.48,2.48,0,0,0-.8-.13c-.7,0-1.53.51-2.09,1.9v5.29h-1.39Z" transform="translate(-7.5 -14.81)"/><path class="cls-2" d="M366.25,18.64c2.1,0,3.29,1.51,3.29,3.87a5.36,5.36,0,0,1-.05.76h-5.57a2.75,2.75,0,0,0,2.75,2.91,3.72,3.72,0,0,0,2.05-.65l.49.92a4.87,4.87,0,0,1-2.71.85c-2.21,0-3.95-1.62-3.95-4.31S364.36,18.64,366.25,18.64Zm2.07,3.72c0-1.68-.75-2.61-2-2.61a2.58,2.58,0,0,0-2.38,2.61Z" transform="translate(-7.5 -14.81)"/><path class="cls-2" d="M375.24,20H374V18.93l1.29-.08.17-2.31h1.17v2.31h2.23V20h-2.23v4.58c0,1,.33,1.6,1.28,1.6a3,3,0,0,0,.93-.22l.27,1a5.21,5.21,0,0,1-1.53.31c-1.76,0-2.35-1.12-2.35-2.75Z" transform="translate(-7.5 -14.81)"/><path class="cls-2" d="M383.77,18.64c2,0,3.82,1.58,3.82,4.35s-1.8,4.31-3.82,4.31S380,25.72,380,23,381.75,18.64,383.77,18.64Zm0,7.5c1.43,0,2.38-1.27,2.38-3.15s-.95-3.19-2.38-3.19-2.38,1.29-2.38,3.19S382.36,26.14,383.77,26.14Z" transform="translate(-7.5 -14.81)"/><path class="cls-2" d="M393.18,18.85h1.16l.12,1.49h.05a2.82,2.82,0,0,1,2.34-1.7,2,2,0,0,1,.88.17L397.46,20a2.44,2.44,0,0,0-.8-.13c-.69,0-1.52.51-2.08,1.9v5.29h-1.4Z" transform="translate(-7.5 -14.81)"/><path class="cls-2" d="M402,18.64c2.1,0,3.29,1.51,3.29,3.87a4.2,4.2,0,0,1,0,.76h-5.56a2.74,2.74,0,0,0,2.74,2.91,3.73,3.73,0,0,0,2.06-.65l.49.92a4.88,4.88,0,0,1-2.72.85c-2.2,0-3.95-1.62-3.95-4.31S400.11,18.64,402,18.64Zm2.07,3.72c0-1.68-.75-2.61-2-2.61a2.57,2.57,0,0,0-2.37,2.61Z" transform="translate(-7.5 -14.81)"/><path class="cls-2" d="M410.3,18.64a3.42,3.42,0,0,1,2.31.95l-.07-1.41V15H414V27.09H412.8l-.12-1h-.05a3.74,3.74,0,0,1-2.5,1.18c-2.07,0-3.41-1.57-3.41-4.31S408.42,18.64,410.3,18.64Zm.14,7.48a2.79,2.79,0,0,0,2.1-1.13V20.68a2.85,2.85,0,0,0-2-.87c-1.32,0-2.38,1.28-2.38,3.16S409,26.12,410.44,26.12Z" transform="translate(-7.5 -14.81)"/><path class="cls-2" d="M424.82,21.87c0-1.06-.35-2.07-1.69-2.07a4.42,4.42,0,0,0-2.46.88l-.56-1a6.14,6.14,0,0,1,3.24-1.07c2,0,2.87,1.34,2.87,3.4v5.05h-1.16l-.12-1h0a4.51,4.51,0,0,1-2.73,1.19A2.26,2.26,0,0,1,419.75,25C419.75,23.16,421.31,22.26,424.82,21.87Zm-2.25,4.31a3.32,3.32,0,0,0,2.25-1.11V22.78c-2.76.34-3.69,1-3.69,2.07A1.26,1.26,0,0,0,422.57,26.18Z" transform="translate(-7.5 -14.81)"/><path class="cls-2" d="M428.84,18.85H430l.12,1.18h.05a3.89,3.89,0,0,1,2.76-1.39c1.73,0,2.52,1.12,2.52,3.23v5.22h-1.4v-5c0-1.54-.47-2.2-1.56-2.2-.85,0-1.42.44-2.25,1.27v6h-1.4Z" transform="translate(-7.5 -14.81)"/><path class="cls-2" d="M441.11,18.64a3.42,3.42,0,0,1,2.31.95l-.07-1.41V15h1.41V27.09h-1.15l-.12-1h-.05a3.74,3.74,0,0,1-2.5,1.18c-2.07,0-3.41-1.57-3.41-4.31S439.23,18.64,441.11,18.64Zm.14,7.48a2.79,2.79,0,0,0,2.1-1.13V20.68a2.87,2.87,0,0,0-2-.87C440,19.81,439,21.09,439,23S439.8,26.12,441.25,26.12Z" transform="translate(-7.5 -14.81)"/><path class="cls-2" d="M454.68,16.15a2.24,2.24,0,0,0-.93-.21c-.78,0-1.15.55-1.15,1.6v1.31h1.74V20H452.6v7.11h-1.4V20h-1.12V18.93l1.12-.08V17.54c0-1.68.77-2.73,2.41-2.73a3.81,3.81,0,0,1,1.38.27Z" transform="translate(-7.5 -14.81)"/><path class="cls-2" d="M460.25,21.87c0-1.06-.36-2.07-1.7-2.07a4.42,4.42,0,0,0-2.46.88l-.56-1a6.14,6.14,0,0,1,3.24-1.07c2,0,2.87,1.34,2.87,3.4v5.05h-1.16l-.11-1h0a4.51,4.51,0,0,1-2.73,1.19A2.26,2.26,0,0,1,455.17,25C455.17,23.16,456.73,22.26,460.25,21.87ZM458,26.18a3.36,3.36,0,0,0,2.26-1.11V22.78c-2.77.34-3.7,1-3.7,2.07A1.27,1.27,0,0,0,458,26.18Z" transform="translate(-7.5 -14.81)"/><path class="cls-2" d="M464.27,18.85h1.15l.12,1.49h0a2.82,2.82,0,0,1,2.34-1.7,2,2,0,0,1,.88.17L468.54,20a2.42,2.42,0,0,0-.79-.13c-.7,0-1.53.51-2.09,1.9v5.29h-1.39Z" transform="translate(-7.5 -14.81)"/><path class="cls-2" d="M473.58,18.85h1.15l.12,1.49h0a2.82,2.82,0,0,1,2.35-1.7,2,2,0,0,1,.88.17L477.86,20a2.48,2.48,0,0,0-.8-.13c-.7,0-1.53.51-2.09,1.9v5.29h-1.39Z" transform="translate(-7.5 -14.81)"/><path class="cls-2" d="M482.39,18.64c2.1,0,3.29,1.51,3.29,3.87a5.36,5.36,0,0,1-.05.76h-5.57a2.75,2.75,0,0,0,2.75,2.91,3.72,3.72,0,0,0,2.05-.65l.5.92a4.93,4.93,0,0,1-2.72.85c-2.21,0-3.95-1.62-3.95-4.31S480.5,18.64,482.39,18.64Zm2.07,3.72c0-1.68-.75-2.61-2-2.61A2.58,2.58,0,0,0,480,22.36Z" transform="translate(-7.5 -14.81)"/><path class="cls-2" d="M490.7,18.64a3.42,3.42,0,0,1,2.31.95l-.07-1.41V15h1.41V27.09h-1.16l-.12-1H493a3.69,3.69,0,0,1-2.49,1.18c-2.07,0-3.41-1.57-3.41-4.31S488.81,18.64,490.7,18.64Zm.13,7.48A2.8,2.8,0,0,0,492.94,25V20.68a2.88,2.88,0,0,0-2-.87c-1.33,0-2.38,1.28-2.38,3.16S489.39,26.12,490.83,26.12Z" transform="translate(-7.5 -14.81)"/><path class="cls-2" d="M228.87,35.37h1.39V45.89c0,.44.18.61.39.61a1.29,1.29,0,0,0,.3,0l.19,1.05a2,2,0,0,1-.8.13c-1.05,0-1.47-.66-1.47-1.86Z" transform="translate(-7.5 -14.81)"/><path class="cls-2" d="M232.94,36.61a1,1,0,0,1,1.93,0,1,1,0,0,1-1.93,0Zm.25,2.59h1.39v8.25h-1.39Z" transform="translate(-7.5 -14.81)"/><path class="cls-2" d="M237.94,47.16v-.07a1.5,1.5,0,0,1-.73-1.34,1.93,1.93,0,0,1,.9-1.52v-.07a2.91,2.91,0,0,1,2-5.16,3.28,3.28,0,0,1,1.17.2h2.87v1.07h-1.7a2.41,2.41,0,0,1,.68,1.7,3,3,0,0,1-4.26,2.58,1.23,1.23,0,0,0-.53,1c0,.53.34.9,1.46.9h1.6c1.91,0,2.88.6,2.88,2,0,1.53-1.61,2.85-4.17,2.85-2,0-3.41-.8-3.41-2.22A2.37,2.37,0,0,1,237.94,47.16Zm2.41,3.12c1.58,0,2.61-.81,2.61-1.68s-.59-1-1.66-1h-1.42a4,4,0,0,1-1.07-.14,1.72,1.72,0,0,0-.85,1.39C238,49.72,238.86,50.28,240.35,50.28Zm1.55-8.34a1.76,1.76,0,1,0-3.5,0,1.76,1.76,0,1,0,3.5,0Z" transform="translate(-7.5 -14.81)"/><path class="cls-2" d="M245.92,35.37h1.39v3.29l-.05,1.7A3.92,3.92,0,0,1,250,39c1.73,0,2.52,1.12,2.52,3.22v5.23h-1.4v-5c0-1.54-.47-2.2-1.56-2.2-.85,0-1.42.44-2.25,1.27v6h-1.39Z" transform="translate(-7.5 -14.81)"/><path class="cls-2" d="M255.38,40.34h-1.22V39.29l1.29-.09.17-2.3h1.17v2.3H259v1.14h-2.22v4.58c0,1,.32,1.6,1.27,1.6a3.14,3.14,0,0,0,.94-.22l.27,1.05a5.2,5.2,0,0,1-1.53.3c-1.77,0-2.36-1.12-2.36-2.74Z" transform="translate(-7.5 -14.81)"/><path class="cls-2" d="M264.05,36.61a1,1,0,0,1,1.93,0,1,1,0,0,1-1.93,0Zm.25,2.59h1.4v8.25h-1.4Z" transform="translate(-7.5 -14.81)"/><path class="cls-2" d="M268.48,39.2h1.15l.12,1.19h.05A3.89,3.89,0,0,1,272.57,39c1.73,0,2.51,1.12,2.51,3.22v5.23h-1.39v-5c0-1.54-.48-2.2-1.56-2.2a3.16,3.16,0,0,0-2.26,1.27v6h-1.39Z" transform="translate(-7.5 -14.81)"/><path class="cls-2" d="M281,45.58a3.73,3.73,0,0,0,2.43,1c1.09,0,1.63-.58,1.63-1.29s-1-1.22-1.89-1.56c-1.17-.43-2.46-1-2.46-2.38S281.73,39,283.51,39a4.12,4.12,0,0,1,2.56.93l-.66.89a3,3,0,0,0-1.88-.73c-1,0-1.51.56-1.51,1.18s.89,1.07,1.83,1.43c1.19.44,2.51.93,2.51,2.49,0,1.34-1.07,2.46-3,2.46a5,5,0,0,1-3.07-1.13Z" transform="translate(-7.5 -14.81)"/><path class="cls-2" d="M291.38,39c2.1,0,3.29,1.51,3.29,3.87a5.36,5.36,0,0,1-.05.76h-5.57a2.75,2.75,0,0,0,2.75,2.9,3.75,3.75,0,0,0,2.06-.64l.49.92a5,5,0,0,1-2.72.84c-2.2,0-3.95-1.61-3.95-4.31S289.5,39,291.38,39Zm2.07,3.72c0-1.68-.75-2.62-2-2.62s-2.2.95-2.37,2.62Z" transform="translate(-7.5 -14.81)"/><path class="cls-2" d="M299.69,39a3.38,3.38,0,0,1,2.36,1h0l.14-.78h1.12V50.93h-1.41V48l.07-1.46a3.78,3.78,0,0,1-2.48,1.12c-2.07,0-3.41-1.56-3.41-4.31S297.81,39,299.69,39Zm.14,7.48a2.79,2.79,0,0,0,2.1-1.13V41a2.85,2.85,0,0,0-2-.87c-1.32,0-2.38,1.27-2.38,3.16S298.39,46.48,299.83,46.48Z" transform="translate(-7.5 -14.81)"/><path class="cls-2" d="M305.92,39.2h1.41v5c0,1.55.45,2.21,1.54,2.21.85,0,1.44-.43,2.22-1.39V39.2h1.39v8.25h-1.15l-.12-1.29h0a3.48,3.48,0,0,1-2.71,1.49c-1.75,0-2.53-1.12-2.53-3.22Z" transform="translate(-7.5 -14.81)"/><path class="cls-2" d="M318.35,39c2.11,0,3.29,1.51,3.29,3.87a4.2,4.2,0,0,1-.05.76H316a2.74,2.74,0,0,0,2.75,2.9,3.71,3.71,0,0,0,2.05-.64l.49.92a5,5,0,0,1-2.71.84c-2.21,0-4-1.61-4-4.31S316.47,39,318.35,39Zm2.07,3.72c0-1.68-.74-2.62-2-2.62s-2.21.95-2.38,2.62Z" transform="translate(-7.5 -14.81)"/><path class="cls-2" d="M323.68,39.2h1.15l.12,1.19H325A3.89,3.89,0,0,1,327.77,39c1.73,0,2.51,1.12,2.51,3.22v5.23h-1.39v-5c0-1.54-.48-2.2-1.56-2.2a3.16,3.16,0,0,0-2.26,1.27v6h-1.39Z" transform="translate(-7.5 -14.81)"/><path class="cls-2" d="M336.32,39a3.44,3.44,0,0,1,2.41,1l-.7.9a2.51,2.51,0,0,0-1.66-.73c-1.49,0-2.58,1.29-2.58,3.19s1,3.16,2.55,3.16a2.93,2.93,0,0,0,1.93-.83l.63.91a4.06,4.06,0,0,1-2.68,1.07c-2.19,0-3.87-1.57-3.87-4.31A4,4,0,0,1,336.32,39Z" transform="translate(-7.5 -14.81)"/><path class="cls-2" d="M343.43,39c2.1,0,3.29,1.51,3.29,3.87a5.36,5.36,0,0,1-.05.76H341.1a2.75,2.75,0,0,0,2.75,2.9,3.71,3.71,0,0,0,2-.64l.5.92a5,5,0,0,1-2.72.84c-2.2,0-3.95-1.61-3.95-4.31S341.54,39,343.43,39Zm2.07,3.72c0-1.68-.75-2.62-2-2.62s-2.2.95-2.37,2.62Z" transform="translate(-7.5 -14.81)"/></svg>