<svg id="Layer_1" data-name="Layer 1" xmlns="http://www.w3.org/2000/svg" viewBox="0 0 281.5 267.5"><defs><style>.cls-1{fill:#d5d6d5;stroke:#000;stroke-miterlimit:10;opacity:0.2;}.cls-1,.cls-3{stroke-width:0.5px;}.cls-2{fill:#d9d2cf;}.cls-3,.cls-5{fill:none;}.cls-3{stroke:#fff;}.cls-4{fill:#f05b66;}.cls-5{stroke:#a1938f;stroke-width:0.81px;}.cls-6{fill:#231f20;}.cls-7{fill:#ec1c24;}</style></defs><title>Practice_Exercise _1</title><rect class="cls-1" x="0.25" y="0.25" width="281" height="267"/><rect class="cls-2" x="100.39" y="20.64" width="171.77" height="184.15"/><line class="cls-3" x1="100.91" y1="51.83" x2="272.15" y2="51.83"/><line class="cls-3" x1="100.91" y1="82.29" x2="272.15" y2="82.29"/><line class="cls-3" x1="100.91" y1="112.76" x2="272.15" y2="112.76"/><line class="cls-3" x1="100.91" y1="143.23" x2="272.15" y2="143.23"/><line class="cls-3" x1="100.91" y1="173.69" x2="272.15" y2="173.69"/><line class="cls-3" x1="273.25" y1="20.64" x2="273.25" y2="204.8"/><line class="cls-3" x1="244.04" y1="20.64" x2="244.04" y2="204.8"/><line class="cls-3" x1="215.31" y1="20.64" x2="215.31" y2="204.8"/><line class="cls-3" x1="186.58" y1="20.64" x2="186.58" y2="204.8"/><line class="cls-3" x1="157.85" y1="20.64" x2="157.85" y2="204.8"/><line class="cls-3" x1="129.12" y1="20.64" x2="129.12" y2="204.8"/><line class="cls-3" x1="100.39" y1="20.64" x2="100.39" y2="204.8"/><line class="cls-3" x1="100.39" y1="20.64" x2="100.39" y2="206"/><rect class="cls-4" x="129.12" y="174.13" width="28.46" height="30.66"/><rect class="cls-4" x="215.44" y="67.06" width="28.46" height="137.73"/><polyline class="cls-5" points="272.15 204.79 100.39 204.79 100.39 20.64"/><path class="cls-6" d="M21.73,177.63a27,27,0,0,1-.35-4.73,7.6,7.6,0,0,1,1.38-5,4.77,4.77,0,0,1,3.74-1.66,5.09,5.09,0,0,1,3.84,1.46,7.46,7.46,0,0,1,1.81,5.34,8.28,8.28,0,0,1-.1,1.51h6.38v3.07Zm7.89-3.07a6.28,6.28,0,0,0,.12-1.51c0-2.31-1.13-3.71-3.11-3.71s-2.89,1.3-2.89,3.44a8.18,8.18,0,0,0,.15,1.78Z" transform="translate(0.25 0.25)"/><path class="cls-6" d="M33.18,162.06c2.21-.08,3.17-1.81,3.17-3.77a9,9,0,0,0-.56-3.39l2.14-.45a11.44,11.44,0,0,1,.75,4.27c0,4-2.43,6.3-6.18,6.3-3.39,0-6.58-2.06-6.58-6s3.27-5.27,6-5.27a7.57,7.57,0,0,1,1.3.1ZM31,156.68c-1.13,0-3,.48-3,2.54a3,3,0,0,0,3,2.84Z" transform="translate(0.25 0.25)"/><path class="cls-6" d="M30.14,151.81c-1.65,0-2.84,0-3.94.1v-2.69l2.34-.1V149a3.64,3.64,0,0,1-2.62-3.34A3.17,3.17,0,0,1,26,145h2.91a4.23,4.23,0,0,0-.1.9,2.72,2.72,0,0,0,2.34,2.76,5.23,5.23,0,0,0,1,.1h6.33v3.09Z" transform="translate(0.25 0.25)"/><path class="cls-6" d="M38.05,134.41a8.74,8.74,0,0,1,.63,3.46c0,3.82-2.43,6.31-6.23,6.31s-6.53-2.51-6.53-6.81a7.64,7.64,0,0,1,.58-3l2.31.55a5.6,5.6,0,0,0-.48,2.34,3.65,3.65,0,0,0,4,3.74,3.63,3.63,0,0,0,4-3.74,6.1,6.1,0,0,0-.48-2.44Z" transform="translate(0.25 0.25)"/><path class="cls-6" d="M33.18,130.47c2.21-.08,3.17-1.81,3.17-3.77a9,9,0,0,0-.56-3.39l2.14-.45a11.44,11.44,0,0,1,.75,4.27c0,4-2.43,6.3-6.18,6.3-3.39,0-6.58-2.06-6.58-6s3.27-5.27,6-5.27a7.57,7.57,0,0,1,1.3.1ZM31,125.09c-1.13,0-3,.48-3,2.54a3,3,0,0,0,3,2.84Z" transform="translate(0.25 0.25)"/><path class="cls-6" d="M29.84,120.22c-1.4,0-2.59,0-3.64.1v-2.71l1.83-.15v-.08a4.42,4.42,0,0,1-2.11-3.89c0-2.14,1.38-4.35,5.25-4.35h7.26v3.09H31.52c-1.75,0-3.08.66-3.08,2.34a2.59,2.59,0,0,0,1.8,2.41,3.21,3.21,0,0,0,1,.13h7.18v3.11Z" transform="translate(0.25 0.25)"/><path class="cls-6" d="M22.71,102.84H26.2V99.9h2.31v2.94h5.4c1.48,0,2.26-.4,2.26-1.58a4.42,4.42,0,0,0-.15-1.21l2.36,0a6.75,6.75,0,0,1,.3,2.24,3.56,3.56,0,0,1-1,2.66,4.86,4.86,0,0,1-3.42,1H28.51v1.75H26.2v-1.75H23.44Z" transform="translate(0.25 0.25)"/><path class="cls-7" d="M18.87,90.64v0L20,92.92l-1.76.39-1.47-3V88.4H29v2.24Z" transform="translate(0.25 0.25)"/><path class="cls-7" d="M25.87,84.35a3.38,3.38,0,0,1-3.18-2.3h-.06a3,3,0,0,1-2.71,1.87c-2,0-3.35-1.77-3.35-4.09,0-2.64,1.58-3.84,3.09-3.84a3,3,0,0,1,2.76,1.88h.06a3.28,3.28,0,0,1,3.09-2.33c2.18,0,3.65,1.84,3.65,4.46C29.22,82.86,27.58,84.35,25.87,84.35Zm-6-2.64c1,0,1.6-.83,1.92-2a2,2,0,0,0-1.85-1.53,1.64,1.64,0,0,0-1.73,1.75A1.62,1.62,0,0,0,19.83,81.71Zm5.93-3.82c-1.25,0-1.92.92-2.3,2.28A2.24,2.24,0,0,0,25.61,82a1.94,1.94,0,0,0,2-2.06A1.85,1.85,0,0,0,25.76,77.89Z" transform="translate(0.25 0.25)"/><path class="cls-7" d="M29.79,58.09c5.68,0,8.92,3.44,8.92,8.11S35.07,74,30.09,74c-5.2,0-8.86-3.27-8.86-8C21.23,61,25,58.09,29.79,58.09ZM30,70.72c3.44,0,6.18-1.73,6.18-4.69s-2.76-4.67-6.3-4.67c-3.19,0-6.21,1.58-6.21,4.67S26.55,70.72,30,70.72Z" transform="translate(0.25 0.25)"/><path class="cls-6" d="M44.71,56.41H43.3L42,55c-2.67-2.89-4.14-4.24-5.76-4.26a1.92,1.92,0,0,0-2.05,2.18,4.44,4.44,0,0,0,1,2.62l-1.64.68a6.1,6.1,0,0,1-1.26-3.77c0-2.71,1.72-4,3.71-4,2.15,0,3.88,1.55,5.86,3.68l.92,1.07h0v-5h1.92Z" transform="translate(0.25 0.25)"/><path class="cls-6" d="M117.47,215.46v16.93h-2.19V215.46Z" transform="translate(0.25 0.25)"/><path class="cls-6" d="M121.21,223.52c0-1.26,0-2.29-.1-3.29h2l.12,2h0a4.47,4.47,0,0,1,4-2.29c1.69,0,4.3,1,4.3,5.18v7.26h-2.21v-7c0-2-.73-3.59-2.81-3.59a3.24,3.24,0,0,0-3.12,3.29v7.31h-2.21Z" transform="translate(0.25 0.25)"/><path class="cls-6" d="M137.61,216.81a1.37,1.37,0,0,1-2.74,0,1.35,1.35,0,0,1,1.38-1.38A1.32,1.32,0,0,1,137.61,216.81Zm-2.46,15.58V220.23h2.21v12.16Z" transform="translate(0.25 0.25)"/><path class="cls-6" d="M143.69,216.74v3.49h3.16v1.68h-3.16v6.56c0,1.5.42,2.36,1.65,2.36a5.1,5.1,0,0,0,1.28-.15l.1,1.66a5.48,5.48,0,0,1-1.95.3,3.09,3.09,0,0,1-2.39-.93,4.52,4.52,0,0,1-.85-3.17v-6.63h-1.89v-1.68h1.89v-2.91Z" transform="translate(0.25 0.25)"/><path class="cls-6" d="M151.8,216.81a1.37,1.37,0,0,1-2.74,0,1.35,1.35,0,0,1,1.38-1.38A1.32,1.32,0,0,1,151.8,216.81Zm-2.46,15.58V220.23h2.2v12.16Z" transform="translate(0.25 0.25)"/><path class="cls-6" d="M161.94,232.39l-.17-1.54h-.08a4.51,4.51,0,0,1-3.72,1.81,3.46,3.46,0,0,1-3.71-3.49c0-2.94,2.61-4.54,7.31-4.52v-.25a2.51,2.51,0,0,0-2.77-2.81,6.05,6.05,0,0,0-3.16.9l-.5-1.46a7.55,7.55,0,0,1,4-1.08c3.72,0,4.62,2.54,4.62,5v4.54a17.24,17.24,0,0,0,.2,2.92Zm-.32-6.21c-2.41-.05-5.15.38-5.15,2.74a2,2,0,0,0,2.08,2.11,3,3,0,0,0,2.94-2,2.22,2.22,0,0,0,.13-.71Z" transform="translate(0.25 0.25)"/><path class="cls-6" d="M167.32,214.55h2.21v17.84h-2.21Z" transform="translate(0.25 0.25)"/><path class="cls-6" d="M205.44,215.46h9.11v1.83h-6.93v5.63H214v1.81h-6.41v7.66h-2.18Z" transform="translate(0.25 0.25)"/><path class="cls-6" d="M220.05,216.81a1.3,1.3,0,0,1-1.41,1.36,1.32,1.32,0,0,1-1.33-1.36,1.35,1.35,0,0,1,1.39-1.38A1.32,1.32,0,0,1,220.05,216.81Zm-2.46,15.58V220.23h2.21v12.16Z" transform="translate(0.25 0.25)"/><path class="cls-6" d="M223.47,223.52c0-1.26,0-2.29-.1-3.29h1.95l.13,2h.05a4.46,4.46,0,0,1,4-2.29c1.68,0,4.29,1,4.29,5.18v7.26H231.6v-7c0-2-.72-3.59-2.81-3.59a3.24,3.24,0,0,0-3.11,3.29v7.31h-2.21Z" transform="translate(0.25 0.25)"/><path class="cls-6" d="M244.13,232.39l-.17-1.54h-.08a4.49,4.49,0,0,1-3.71,1.81,3.46,3.46,0,0,1-3.72-3.49c0-2.94,2.61-4.54,7.31-4.52v-.25a2.5,2.5,0,0,0-2.76-2.81,6.09,6.09,0,0,0-3.17.9l-.5-1.46a7.55,7.55,0,0,1,4-1.08c3.72,0,4.62,2.54,4.62,5v4.54a17.24,17.24,0,0,0,.2,2.92Zm-.32-6.21c-2.41-.05-5.15.38-5.15,2.74a2,2,0,0,0,2.08,2.11,3,3,0,0,0,2.94-2,2.22,2.22,0,0,0,.13-.71Z" transform="translate(0.25 0.25)"/><path class="cls-6" d="M249.51,214.55h2.21v17.84h-2.21Z" transform="translate(0.25 0.25)"/><path class="cls-6" d="M74.89,172.3c0,5.56-2.06,8.62-5.68,8.62-3.19,0-5.35-3-5.4-8.39S66.17,164,69.49,164,74.89,167.11,74.89,172.3Zm-8.87.26c0,4.24,1.31,6.65,3.32,6.65,2.26,0,3.34-2.63,3.34-6.8,0-4-1-6.66-3.32-6.66C67.43,165.75,66,168.11,66,172.56Z" transform="translate(0.25 0.25)"/><path class="cls-6" d="M77.1,179.34a1.5,1.5,0,1,1,3,0,1.5,1.5,0,1,1-3,0Z" transform="translate(0.25 0.25)"/><path class="cls-6" d="M82.12,180.64v-1.35l1.73-1.69c4.17-4,6.05-6.07,6.08-8.53a2.91,2.91,0,0,0-3.24-3.19,5.58,5.58,0,0,0-3.47,1.38l-.7-1.56A7.19,7.19,0,0,1,87.14,164c3.52,0,5,2.41,5,4.75,0,3-2.18,5.45-5.63,8.76l-1.3,1.21v.05h7.33v1.83Z" transform="translate(0.25 0.25)"/><path class="cls-6" d="M74.89,142.11c0,5.55-2.06,8.61-5.68,8.61-3.19,0-5.35-3-5.4-8.39s2.36-8.49,5.68-8.49S74.89,136.91,74.89,142.11Zm-8.87.25c0,4.24,1.31,6.65,3.32,6.65,2.26,0,3.34-2.63,3.34-6.8s-1-6.66-3.32-6.66C67.43,135.55,66,137.91,66,142.36Z" transform="translate(0.25 0.25)"/><path class="cls-6" d="M77.1,149.14a1.5,1.5,0,1,1,1.48,1.58A1.48,1.48,0,0,1,77.1,149.14Z" transform="translate(0.25 0.25)"/><path class="cls-6" d="M89,150.45V146H81.37v-1.46l7.28-10.42H91v10.15h2.28V146H91v4.45Zm0-6.18v-5.45c0-.86,0-1.71.08-2.56H89c-.5,1-.9,1.65-1.36,2.41l-4,5.55v.05Z" transform="translate(0.25 0.25)"/><path class="cls-6" d="M74.89,111.91c0,5.55-2.06,8.61-5.68,8.61-3.19,0-5.35-3-5.4-8.39s2.36-8.48,5.68-8.48S74.89,106.71,74.89,111.91Zm-8.87.25c0,4.24,1.31,6.66,3.32,6.66,2.26,0,3.34-2.64,3.34-6.81s-1-6.66-3.32-6.66C67.43,105.35,66,107.71,66,112.16Z" transform="translate(0.25 0.25)"/><path class="cls-6" d="M77.1,118.94a1.5,1.5,0,1,1,1.48,1.58A1.48,1.48,0,0,1,77.1,118.94Z" transform="translate(0.25 0.25)"/><path class="cls-6" d="M91.44,105.48a7.68,7.68,0,0,0-1.66.1,6.64,6.64,0,0,0-5.68,5.8h.08a4.85,4.85,0,0,1,3.94-1.88c2.89,0,4.92,2.08,4.92,5.27a5.45,5.45,0,0,1-5.42,5.75c-3.49,0-5.78-2.71-5.78-7a10.24,10.24,0,0,1,2.77-7.36,8.86,8.86,0,0,1,5.22-2.41,10.79,10.79,0,0,1,1.61-.13Zm-.63,9.42c0-2.34-1.33-3.74-3.37-3.74a3.62,3.62,0,0,0-3.16,2,1.92,1.92,0,0,0-.25,1c0,2.69,1.28,4.68,3.59,4.68C89.53,118.82,90.81,117.23,90.81,114.9Z" transform="translate(0.25 0.25)"/><path class="cls-6" d="M74.89,81.71c0,5.55-2.06,8.62-5.68,8.62-3.19,0-5.35-3-5.4-8.39s2.36-8.49,5.68-8.49S74.89,76.51,74.89,81.71ZM66,82c0,4.25,1.31,6.66,3.32,6.66,2.26,0,3.34-2.64,3.34-6.81,0-4-1-6.65-3.32-6.65C67.43,75.16,66,77.52,66,82Z" transform="translate(0.25 0.25)"/><path class="cls-6" d="M77.1,88.75a1.5,1.5,0,1,1,3,0,1.5,1.5,0,1,1-3,0Z" transform="translate(0.25 0.25)"/><path class="cls-6" d="M81.92,85.91a4.66,4.66,0,0,1,3.24-4.37l0-.08a4,4,0,0,1-2.58-3.67c0-2.58,2.18-4.34,5-4.34,3.17,0,4.75,2,4.75,4a4.16,4.16,0,0,1-2.69,3.82v.07c2,.81,3.29,2.24,3.29,4.22,0,2.84-2.43,4.75-5.55,4.75C84,90.33,81.92,88.29,81.92,85.91Zm8.79-.1c0-2-1.38-2.94-3.59-3.57-1.91.55-2.94,1.81-2.94,3.37a3,3,0,0,0,3.26,3.11A3,3,0,0,0,90.71,85.81Zm-6.08-8.17c0,1.64,1.23,2.52,3.12,3a3.22,3.22,0,0,0,2.48-3A2.54,2.54,0,0,0,87.47,75,2.6,2.6,0,0,0,84.63,77.64Z" transform="translate(0.25 0.25)"/><path class="cls-6" d="M68.84,45.59h0L66,47.12l-.43-1.68,3.57-1.91H71V59.85H68.84Z" transform="translate(0.25 0.25)"/><path class="cls-6" d="M77.1,58.55a1.5,1.5,0,1,1,3,0,1.5,1.5,0,1,1-3,0Z" transform="translate(0.25 0.25)"/><path class="cls-6" d="M93,51.51c0,5.55-2.06,8.62-5.68,8.62-3.19,0-5.35-3-5.4-8.39s2.36-8.49,5.68-8.49S93,46.31,93,51.51Zm-8.87.25c0,4.25,1.31,6.66,3.32,6.66,2.26,0,3.34-2.64,3.34-6.81,0-4-1-6.65-3.32-6.65C85.51,45,84.1,47.32,84.1,51.76Z" transform="translate(0.25 0.25)"/><path class="cls-6" d="M68.84,15.39h0L66,16.92l-.43-1.68,3.57-1.91H71V29.66H68.84Z" transform="translate(0.25 0.25)"/><path class="cls-6" d="M77.1,28.35a1.5,1.5,0,1,1,1.48,1.58A1.48,1.48,0,0,1,77.1,28.35Z" transform="translate(0.25 0.25)"/><path class="cls-6" d="M82.12,29.66V28.3l1.73-1.68c4.17-4,6.05-6.08,6.08-8.54a2.91,2.91,0,0,0-3.24-3.19,5.58,5.58,0,0,0-3.47,1.38l-.7-1.56a7.19,7.19,0,0,1,4.62-1.65c3.52,0,5,2.41,5,4.74,0,3-2.18,5.45-5.63,8.77l-1.3,1.2v.05h7.33v1.84Z" transform="translate(0.25 0.25)"/></svg>