<?xml version="1.0" encoding="utf-8"?>
<!-- Generator: Adobe Illustrator 22.0.1, SVG Export Plug-In . SVG Version: 6.00 Build 0)  -->
<svg version="1.1" id="Layer_1" xmlns="http://www.w3.org/2000/svg" xmlns:xlink="http://www.w3.org/1999/xlink" x="0px" y="0px"
	 viewBox="0 0 19.9 20" style="enable-background:new 0 0 19.9 20;" xml:space="preserve">
<style type="text/css">
	.st0{fill:#3E823E;}
</style>
<g>
	<polygon class="st0" points="8.3,11.9 5.9,9.5 4.5,10.9 6.9,13.2 6.9,13.3 8.3,14.7 8.3,14.7 8.3,14.7 8.6,14.3 15.5,7.9 14.1,6.5 
			"/>
	<path class="st0" d="M10,0C4.5,0,0,4.5,0,10s4.5,10,10,10s10-4.5,10-10S15.5,0,10,0z M10,18c-4.4,0-8-3.6-8-8s3.6-8,8-8s8,3.6,8,8
		S14.4,18,10,18z"/>
</g>
</svg>
