<?xml version="1.0" encoding="utf-8"?>
<!-- Generator: Adobe Illustrator 22.1.0, SVG Export Plug-In . SVG Version: 6.00 Build 0)  -->
<svg version="1.1" id="Layer_1" xmlns="http://www.w3.org/2000/svg" xmlns:xlink="http://www.w3.org/1999/xlink" x="0px" y="0px"
	 viewBox="0 0 492.5 451.5" style="enable-background:new 0 0 492.5 451.5;" xml:space="preserve">
<style type="text/css">
	.st0{fill:none;stroke:#000000;stroke-width:0.5;}
	.st1{fill:#383838;}
	.st2{fill:#6893CC;}
</style>
<title>Build_the_Graph</title>
<g id="xy">
	<line class="st0" x1="67.3" y1="309" x2="492.5" y2="309"/>
	<line class="st0" x1="67.3" y1="286.3" x2="492.5" y2="286.3"/>
	<line class="st0" x1="67.3" y1="263.7" x2="492.5" y2="263.7"/>
	<line class="st0" x1="67.3" y1="241.1" x2="492.5" y2="241.1"/>
	<line class="st0" x1="67.3" y1="218.5" x2="492.5" y2="218.5"/>
	<line class="st0" x1="67.3" y1="195.9" x2="492.5" y2="195.9"/>
	<line class="st0" x1="67.3" y1="173.2" x2="492.5" y2="173.2"/>
	<line class="st0" x1="67.3" y1="150.6" x2="492.5" y2="150.6"/>
	<line class="st0" x1="67.3" y1="128" x2="492.5" y2="128"/>
	<line class="st0" x1="67.3" y1="105.4" x2="492.5" y2="105.4"/>
	<line class="st0" x1="67.3" y1="82.8" x2="492.5" y2="82.8"/>
	<line class="st0" x1="67.3" y1="60.1" x2="492.5" y2="60.1"/>
</g>
<path class="st1" d="M186,445.3c0.8,0.9,1.9,1.4,3.1,1.4c1.5,0,2.3-0.7,2.3-1.8s-0.8-1.5-1.9-2l-1.6-0.7c-1.3-0.4-2.2-1.5-2.3-2.9
	c0-1.7,1.5-3,3.5-3c1.2,0,2.4,0.5,3.3,1.4l-0.8,0.9c-0.7-0.7-1.6-1.1-2.5-1c-1.3,0-2.1,0.6-2.1,1.6s1,1.5,1.9,1.9l1.6,0.7
	c1.3,0.6,2.3,1.3,2.3,3s-1.5,3.2-3.8,3.2c-1.5,0-2.9-0.6-3.9-1.6L186,445.3z"/>
<path class="st1" d="M198,439.3c2.1,0,3.3,1.5,3.3,3.9c0,0.3,0,0.5-0.1,0.8h-5.6c-0.1,1.5,1.1,2.8,2.6,2.9c0.1,0,0.1,0,0.2,0
	c0.7,0,1.4-0.2,2.1-0.6l0.5,0.9c-0.8,0.5-1.7,0.8-2.7,0.9c-2.2,0-4-1.6-4-4.3S196.1,439.3,198,439.3z M200,443c0-1.7-0.7-2.6-2-2.6
	c-1.4,0.1-2.4,1.2-2.4,2.6H200z"/>
<path class="st1" d="M206.3,439.3c0.9,0,1.7,0.4,2.4,1l0,0l0.1-0.8h1.1v11.7h-1.4v-2.9l0.1-1.5c-0.7,0.7-1.5,1.1-2.5,1.1
	c-2.1,0-3.4-1.6-3.4-4.3S204.4,439.3,206.3,439.3z M206.4,446.8c0.8,0,1.6-0.5,2.1-1.1v-4.3c-0.5-0.5-1.2-0.9-2-0.9
	c-1.3,0-2.4,1.3-2.4,3.2S205,446.8,206.4,446.8z"/>
<path class="st1" d="M212.5,439.5h1.4v5c0,1.5,0.5,2.2,1.5,2.2c0.9,0,1.4-0.4,2.2-1.4v-5.9h1.4v8.2h-1.2l-0.1-1.3h-0.1
	c-0.6,0.9-1.6,1.5-2.7,1.5c-1.8,0-2.5-1.1-2.5-3.2L212.5,439.5z"/>
<path class="st1" d="M224.9,439.3c2.1,0,3.3,1.5,3.3,3.9c0,0.3,0,0.5,0,0.8h-5.6c-0.1,1.5,1.1,2.8,2.6,2.9c0.1,0,0.1,0,0.2,0
	c0.7,0,1.4-0.2,2-0.6l0.5,0.9c-0.8,0.5-1.7,0.8-2.7,0.9c-2.2,0-3.9-1.6-3.9-4.3S223.1,439.3,224.9,439.3z M227,443
	c0-1.7-0.8-2.6-2-2.6c-1.4,0.1-2.4,1.2-2.4,2.6H227z"/>
<path class="st1" d="M230.3,439.5h1.2l0.1,1.2h0.1c0.7-0.8,1.7-1.3,2.8-1.4c1.7,0,2.5,1.1,2.5,3.2v5.2h-1.4v-5
	c0-1.5-0.5-2.2-1.6-2.2c-0.9,0-1.4,0.4-2.3,1.3v6h-1.4L230.3,439.5z"/>
<path class="st1" d="M242.9,439.3c0.9,0,1.8,0.4,2.4,1l-0.7,0.9c-0.4-0.4-1-0.7-1.7-0.7c-1.5,0-2.6,1.3-2.6,3.2s1,3.1,2.6,3.1
	c0.7,0,1.4-0.3,1.9-0.8l0.6,0.9c-0.7,0.7-1.7,1.1-2.7,1.1c-2.2,0-3.9-1.6-3.9-4.3c-0.2-2.2,1.4-4.1,3.6-4.3
	C242.7,439.3,242.8,439.3,242.9,439.3z"/>
<path class="st1" d="M250,439.3c2.1,0,3.3,1.5,3.3,3.9c0,0.3,0,0.5,0,0.8h-5.6c-0.1,1.5,1.1,2.8,2.6,2.9c0.1,0,0.1,0,0.2,0
	c0.7,0,1.4-0.2,2.1-0.6l0.5,0.9c-0.8,0.5-1.7,0.8-2.7,0.9c-2.2,0-4-1.6-4-4.3S248.1,439.3,250,439.3z M252.1,443
	c0-1.7-0.8-2.6-2-2.6c-1.4,0.1-2.4,1.2-2.4,2.6H252.1z"/>
<path class="st1" d="M262,439.3c2,0,3.8,1.6,3.8,4.4s-1.8,4.3-3.8,4.3s-3.8-1.6-3.8-4.3S260,439.3,262,439.3z M262,446.8
	c1.4,0,2.4-1.3,2.4-3.1s-1-3.2-2.4-3.2s-2.4,1.3-2.4,3.2S260.6,446.8,262,446.8z"/>
<path class="st1" d="M271.7,436.8c-0.3-0.1-0.6-0.2-0.9-0.2c-0.8,0-1.1,0.5-1.1,1.6v1.3h1.8v1.1h-1.8v7.1h-1.4v-7.1h-1.1v-1l1.1-0.1
	v-1.3c0-1.7,0.8-2.7,2.4-2.7c0.5,0,0.9,0.1,1.4,0.3L271.7,436.8z"/>
<path class="st1" d="M276.3,435.6h1.4v10.6c0,0.4,0.2,0.6,0.4,0.6c0.1,0,0.2,0,0.3,0l0.2,1c-0.2,0.1-0.5,0.2-0.8,0.1
	c-1.1,0-1.5-0.7-1.5-1.9V435.6z"/>
<path class="st1" d="M280.4,436.9c-0.1-0.5,0.3-1,0.9-1.1c0.5-0.1,1,0.3,1.1,0.9c0.1,0.5-0.3,1-0.9,1.1c0,0-0.1,0-0.1,0
	c-0.5,0.1-0.9-0.3-1-0.8C280.4,436.9,280.4,436.9,280.4,436.9z M280.7,439.5h1.4v8.2h-1.4V439.5z"/>
<path class="st1" d="M285.4,447.4L285.4,447.4c-0.5-0.4-0.7-0.9-0.7-1.4c0-0.6,0.4-1.2,0.9-1.5v-0.1c-1.2-1-1.4-2.9-0.4-4.1
	c0.6-0.7,1.5-1.1,2.4-1c0.4,0,0.8,0.1,1.2,0.2h2.9v1.1h-1.7c0.4,0.5,0.7,1.1,0.7,1.7c-0.1,1.7-1.5,2.9-3.1,2.9
	c-0.4,0-0.8-0.1-1.1-0.3c-0.3,0.2-0.5,0.6-0.5,1c0,0.5,0.3,0.9,1.5,0.9h1.6c1.9,0,2.9,0.6,2.9,2c0,1.5-1.6,2.9-4.2,2.9
	c-2,0-3.4-0.8-3.4-2.2C284.2,448.5,284.7,447.8,285.4,447.4z M287.8,450.5c1.6,0,2.6-0.8,2.6-1.7s-0.6-1-1.7-1h-1.4
	c-0.4,0-0.7,0-1.1-0.1c-0.5,0.3-0.8,0.8-0.9,1.4C285.4,450,286.3,450.5,287.8,450.5z M289.4,442.2c0.1-1-0.6-1.8-1.6-1.9
	c-1-0.1-1.8,0.6-1.9,1.6c0,0.1,0,0.3,0,0.4c-0.1,1,0.6,1.8,1.6,1.9c1,0.1,1.8-0.6,1.9-1.6C289.4,442.5,289.4,442.3,289.4,442.2z"/>
<path class="st1" d="M293.4,435.6h1.4v3.3v1.7c0.7-0.8,1.7-1.3,2.8-1.4c1.7,0,2.5,1.1,2.5,3.2v5.2h-1.4v-5c0-1.5-0.5-2.2-1.6-2.2
	c-0.9,0.1-1.7,0.5-2.3,1.3v6h-1.4L293.4,435.6z"/>
<path class="st1" d="M302.9,440.6h-1.2v-1l1.3-0.1l0.2-2.3h1.2v2.3h2.2v1.1h-2.2v4.6c0,1,0.3,1.6,1.3,1.6c0.3,0,0.6-0.1,0.9-0.2
	l0.3,1c-0.5,0.2-1,0.3-1.5,0.3c-1.8,0-2.4-1.1-2.4-2.8L302.9,440.6z"/>
<path class="st1" d="M314.9,439.3c2.1,0,3.3,1.5,3.3,3.9c0,0.3,0,0.5,0,0.8h-5.6c-0.1,1.5,1.1,2.8,2.6,2.9c0.1,0,0.1,0,0.2,0
	c0.7,0,1.4-0.2,2-0.6l0.5,0.9c-0.8,0.5-1.7,0.8-2.7,0.9c-2.2,0-4-1.6-4-4.3S313,439.3,314.9,439.3z M316.9,443c0-1.7-0.8-2.6-2-2.6
	c-1.4,0.1-2.4,1.2-2.4,2.6H316.9z"/>
<path class="st1" d="M321.6,443.4l-2.5-3.9h1.5l1.1,1.8c0.3,0.4,0.5,0.9,0.8,1.4h0.1c0.2-0.5,0.5-0.9,0.8-1.4l1-1.8h1.5l-2.5,4.1
	l2.7,4.1h-1.5l-1.2-1.9c-0.3-0.5-0.6-1-0.9-1.5h-0.1c-0.3,0.5-0.6,1-0.8,1.5l-1.1,1.9h-1.5L321.6,443.4z"/>
<path class="st1" d="M329,448.4v2.8h-1.4v-11.7h1.1l0.1,1l0,0c0.7-0.7,1.6-1.1,2.6-1.2c2.1,0,3.3,1.6,3.3,4.2c0,2.8-1.7,4.5-3.6,4.5
	c-0.9-0.1-1.7-0.4-2.3-1L329,448.4z M331,446.8c1.4,0,2.4-1.2,2.4-3.3c0-1.8-0.6-3-2.2-3c-0.8,0.1-1.6,0.5-2.2,1.1v4.3
	C329.6,446.4,330.3,446.7,331,446.8L331,446.8z"/>
<path class="st1" d="M340.3,439.3c2,0,3.8,1.6,3.8,4.4s-1.8,4.3-3.8,4.3s-3.8-1.6-3.8-4.3S338.2,439.3,340.3,439.3z M340.3,446.8
	c1.4,0,2.4-1.3,2.4-3.1s-1-3.2-2.4-3.2s-2.4,1.3-2.4,3.2S338.9,446.8,340.3,446.8z"/>
<path class="st1" d="M346,445.9c0.7,0.6,1.5,1,2.4,1c1.1,0,1.6-0.6,1.6-1.3s-1-1.2-1.9-1.6c-1.2-0.4-2.5-1-2.5-2.4s1-2.4,2.8-2.4
	c0.9,0,1.8,0.3,2.6,0.9l-0.7,0.9c-0.5-0.5-1.2-0.7-1.9-0.7c-1,0-1.5,0.6-1.5,1.2s0.9,1.1,1.8,1.4c1.2,0.4,2.5,0.9,2.5,2.5
	c0,1.3-1.1,2.5-3,2.5c-1.1,0-2.2-0.4-3.1-1.1L346,445.9z"/>
<path class="st1" d="M353.2,439.5h1.4v5c0,1.5,0.5,2.2,1.5,2.2c0.9,0,1.4-0.4,2.2-1.4v-5.9h1.4v8.2h-1.2l-0.1-1.3l0,0
	c-0.6,0.9-1.6,1.5-2.7,1.5c-1.8,0-2.5-1.1-2.5-3.2L353.2,439.5z"/>
<path class="st1" d="M362.6,439.5h1.1l0.1,1.5h0c0.4-1,1.3-1.6,2.3-1.7c0.3,0,0.6,0,0.9,0.2l-0.3,1.2c-0.3-0.1-0.5-0.1-0.8-0.1
	c-0.7,0-1.5,0.5-2.1,1.9v5.3h-1.4V439.5z"/>
<path class="st1" d="M371.4,439.3c2.1,0,3.3,1.5,3.3,3.9c0,0.3,0,0.5,0,0.8h-5.6c-0.1,1.5,1.1,2.8,2.6,2.9c0.1,0,0.1,0,0.2,0
	c0.7,0,1.4-0.2,2-0.6l0.5,0.9c-0.8,0.5-1.7,0.8-2.7,0.9c-2.2,0-4-1.6-4-4.3S369.5,439.3,371.4,439.3z M373.5,443
	c0-1.7-0.8-2.6-2-2.6c-1.4,0.1-2.4,1.2-2.4,2.6H373.5z"/>
<path class="st1" d="M12.3,283.3l-11.5-6.1v-0.9l11.5,6.1V283.3z M4.3,286.2c-2.2,0-3.5-1-3.5-2.5s1.3-2.5,3.5-2.5s3.5,1,3.5,2.5
	S6.5,286.2,4.3,286.2L4.3,286.2z M4.3,282.2c-1.8,0-2.6,0.6-2.6,1.5s0.8,1.5,2.6,1.5s2.7-0.6,2.7-1.5S6,282.2,4.3,282.2L4.3,282.2z
	 M8.8,278.4c-2.2,0-3.5-1-3.5-2.5s1.3-2.5,3.5-2.5s3.5,1,3.5,2.5S11,278.4,8.8,278.4L8.8,278.4z M8.8,274.4c-1.8,0-2.6,0.6-2.6,1.5
	s0.9,1.5,2.6,1.5s2.7-0.6,2.7-1.5S10.5,274.4,8.8,274.4L8.8,274.4z"/>
<path class="st1" d="M9.7,267.8c0.9-0.8,1.4-1.9,1.4-3.1c0-1.5-0.7-2.3-1.8-2.3s-1.5,0.8-2,1.9l-0.7,1.6c-0.4,1.3-1.5,2.2-2.8,2.3
	c-1.7,0-2.9-1.5-2.9-3.5c0-1.2,0.5-2.4,1.4-3.3l0.9,0.8c-0.7,0.7-1,1.6-1,2.5c0,1.3,0.6,2.1,1.6,2.1s1.5-1,1.9-1.9l0.7-1.6
	c0.6-1.3,1.3-2.3,3-2.3s3.2,1.5,3.2,3.8c0,1.5-0.6,2.9-1.6,3.9L9.7,267.8z"/>
<path class="st1" d="M3.8,259.1v-1.4h5c1.5,0,2.2-0.5,2.2-1.5c0-0.9-0.4-1.4-1.4-2.2H3.8v-1.4h8.3v1.1l-1.3,0.1v0
	c0.9,0.6,1.4,1.6,1.5,2.7c0,1.7-1.1,2.5-3.2,2.5L3.8,259.1z"/>
<path class="st1" d="M0,249.8v-1.4h3.3h1.5c-0.7-0.7-1.1-1.6-1.1-2.6c0-2.1,1.6-3.3,4.2-3.3c2.8,0,4.5,1.7,4.5,3.6
	c0,0.9-0.4,1.7-1,2.4v0l0.8,0.1v1.1L0,249.8z M11.1,246.4c0-1.4-1.2-2.4-3.3-2.4c-1.8,0-3,0.6-3,2.2c0.1,0.9,0.5,1.6,1.1,2.2h4.3
	C10.8,247.8,11.1,247.1,11.1,246.4z"/>
<path class="st1" d="M10.2,240.6c0.6-0.7,1-1.5,1-2.4c0-1.1-0.6-1.6-1.3-1.6s-1.2,1-1.6,1.9c-0.4,1.2-1,2.5-2.4,2.5s-2.3-1-2.3-2.8
	c0-0.9,0.3-1.8,0.9-2.6l0.9,0.7c-0.4,0.5-0.7,1.2-0.7,1.9c0,1,0.6,1.5,1.2,1.5s1.1-0.9,1.4-1.8c0.4-1.2,0.9-2.5,2.5-2.5
	c1.3,0,2.5,1.1,2.5,3c0,1.1-0.4,2.2-1.1,3.1L10.2,240.6z"/>
<path class="st1" d="M5,233v1.2H3.9l-0.1-1.3l-2.3-0.1v-1.2h2.3v-2.2h1.1v2.2h4.6c1,0,1.6-0.3,1.6-1.3c0-0.3-0.1-0.6-0.2-0.9l1-0.3
	c0.2,0.5,0.3,1,0.3,1.5c0,1.8-1.1,2.4-2.8,2.4H5z"/>
<path class="st1" d="M3.8,227.5v-1.1l1.5-0.1l0,0c-1-0.4-1.6-1.3-1.7-2.4c0-0.3,0-0.6,0.2-0.9l1.2,0.3c-0.1,0.3-0.1,0.5-0.1,0.8
	c0,0.7,0.5,1.5,1.9,2.1h5.3v1.4L3.8,227.5z"/>
<path class="st1" d="M6.9,217.4c-1,0-2.1,0.4-2.1,1.7c0,0.9,0.3,1.7,0.9,2.5l-1,0.6c-0.7-1-1-2.1-1.1-3.2c0-2,1.3-2.9,3.4-2.9h5.1
	v1.1l-1,0.1l0,0c0.7,0.8,1.1,1.7,1.2,2.7c0.1,1.2-0.8,2.3-2.1,2.4c-0.1,0-0.2,0-0.3,0C8.1,222.4,7.3,220.9,6.9,217.4z M11.2,219.6
	c-0.1-0.9-0.5-1.7-1.1-2.3H7.8c0.3,2.8,1,3.7,2.1,3.7c0.7,0,1.3-0.5,1.3-1.2C11.2,219.8,11.2,219.7,11.2,219.6L11.2,219.6z"/>
<path class="st1" d="M5,213.1v1.2H3.9l-0.1-1.3l-2.3-0.2v-1.2h2.3v-2.2h1.1v2.2h4.6c1,0,1.6-0.3,1.6-1.3c0-0.3-0.1-0.6-0.2-0.9
	l1-0.3c0.2,0.5,0.3,1,0.3,1.5c0,1.8-1.1,2.4-2.8,2.4L5,213.1z"/>
<path class="st1" d="M3.6,204.7c0-2.1,1.5-3.3,3.9-3.3c0.3,0,0.5,0,0.8,0.1v5.6c1.5,0.1,2.8-1.1,2.9-2.6c0-0.1,0-0.1,0-0.2
	c0-0.7-0.2-1.5-0.7-2.1l0.9-0.5c0.5,0.8,0.8,1.7,0.9,2.7c0,2.2-1.6,4-4.3,4S3.6,206.6,3.6,204.7z M7.4,202.6c-1.7,0-2.6,0.7-2.6,2
	C4.8,206,6,207,7.4,207V202.6z"/>
<path class="st1" d="M0,184.9v-1.4h10.5c0.5,0,0.6-0.2,0.6-0.4c0-0.1,0-0.2,0-0.3l1-0.2c0.1,0.3,0.2,0.5,0.1,0.8
	c0,1.1-0.7,1.5-1.9,1.5H0z"/>
<path class="st1" d="M3.6,177.5c0-2.1,1.5-3.3,3.9-3.3c0.3,0,0.5,0,0.8,0v5.6c1.5,0.1,2.8-1.1,2.9-2.6c0-0.1,0-0.1,0-0.2
	c0-0.7-0.2-1.5-0.6-2.1l0.9-0.5c0.5,0.8,0.8,1.7,0.9,2.7c0,2.2-1.6,3.9-4.3,3.9S3.6,179.4,3.6,177.5z M7.4,175.5
	c-1.7,0-2.6,0.8-2.6,2c0.1,1.4,1.2,2.4,2.6,2.4V175.5z"/>
<path class="st1" d="M3.8,173.3v-1.4l4.7-1.6c0.8-0.2,1.6-0.5,2.4-0.8v-0.1c-0.8-0.2-1.6-0.5-2.4-0.7l-4.7-1.5v-1.4l8.3,2.9v1.6
	L3.8,173.3z"/>
<path class="st1" d="M3.6,161.2c0-2.1,1.5-3.3,3.9-3.3c0.3,0,0.5,0,0.8,0.1v5.6c1.5,0.1,2.8-1.1,2.9-2.6c0-0.1,0-0.1,0-0.2
	c0-0.7-0.2-1.4-0.6-2.1l0.9-0.5c0.5,0.8,0.8,1.7,0.9,2.7c0,2.2-1.6,4-4.3,4S3.6,163.1,3.6,161.2z M7.4,159.1c-1.7,0-2.6,0.7-2.6,2
	c0.1,1.4,1.2,2.4,2.6,2.4V159.1z"/>
<path class="st1" d="M0,155.9v-1.4h10.5c0.5,0,0.6-0.2,0.6-0.4c0-0.1,0-0.2,0-0.3l1-0.2c0.1,0.3,0.2,0.5,0.1,0.8
	c0,1.1-0.7,1.5-1.9,1.5L0,155.9z"/>
<path class="st1" d="M11.8,147.5L11.8,147.5c-0.4,0.5-0.9,0.7-1.4,0.7c-0.6,0-1.2-0.4-1.5-0.9H8.8c-1,1.2-2.9,1.4-4.1,0.4
	c-0.7-0.6-1.1-1.5-1.1-2.4c0-0.4,0.1-0.8,0.2-1.2v-2.9h1.1v1.7c0.5-0.4,1.1-0.7,1.7-0.7c1.7,0.1,2.9,1.5,2.9,3.1
	c0,0.4-0.1,0.8-0.3,1.1c0.2,0.3,0.6,0.5,1,0.5c0.5,0,0.9-0.3,0.9-1.5v-1.6c0-1.9,0.6-2.9,2-2.9s2.9,1.6,2.9,4.2c0,2-0.8,3.4-2.2,3.4
	C12.9,148.7,12.2,148.2,11.8,147.5z M6.6,143.5c-1-0.1-1.8,0.6-1.9,1.6c-0.1,1,0.6,1.8,1.6,1.9c0.1,0,0.2,0,0.3,0
	c1,0.1,1.8-0.6,2-1.5c0.1-1-0.6-1.8-1.5-2C6.9,143.5,6.7,143.5,6.6,143.5z M14.9,145.1c0-1.6-0.8-2.6-1.7-2.6s-1,0.6-1,1.7v1.4
	c0,0.4,0,0.7-0.1,1.1c0.3,0.5,0.8,0.8,1.4,0.8C14.4,147.5,14.9,146.6,14.9,145.1L14.9,145.1z"/>
<path class="st1" d="M3.6,136.7c0-2.1,1.5-3.3,3.9-3.3c0.3,0,0.5,0,0.8,0.1v5.6c1.5,0.1,2.8-1.1,2.9-2.6c0-0.1,0-0.1,0-0.2
	c0-0.7-0.2-1.5-0.7-2.1l0.9-0.5c0.5,0.8,0.8,1.7,0.9,2.7c0,2.2-1.6,4-4.3,4S3.6,138.6,3.6,136.7z M7.4,134.6c-1.7,0-2.6,0.7-2.6,2
	C4.8,138,6,139,7.4,139V134.6z"/>
<path class="st1" d="M3.8,131.4v-1.2l1.5-0.1l0,0c-1-0.4-1.6-1.3-1.7-2.3c0-0.3,0-0.6,0.2-0.9l1.2,0.3c-0.1,0.3-0.1,0.5-0.1,0.8
	c0,0.7,0.5,1.5,1.9,2.1h5.3v1.4L3.8,131.4z"/>
<path class="st1" d="M3.8,125.5v-1.1l1.2-0.1v0c-0.8-0.6-1.3-1.5-1.4-2.6c-0.1-1,0.6-2,1.6-2.3c-0.9-0.6-1.5-1.6-1.6-2.7
	c0-1.7,1.1-2.5,3.2-2.5h5.2v1.4h-5c-1.6,0-2.2,0.5-2.2,1.5c0.1,0.8,0.6,1.6,1.3,2.1h6v1.4h-5c-1.6,0-2.2,0.5-2.2,1.5
	c0.1,0.8,0.6,1.6,1.3,2.1h6v1.4L3.8,125.5z"/>
<path class="st1" d="M1.2,111.7c-0.5,0.1-1-0.3-1.1-0.9c-0.1-0.5,0.3-1,0.9-1.1c0.5-0.1,1,0.3,1.1,0.9c0,0,0,0.1,0,0.1
	c0.1,0.5-0.3,0.9-0.8,1C1.3,111.7,1.3,111.7,1.2,111.7z M3.8,111.4V110h8.3v1.4H3.8z"/>
<path class="st1" d="M3.8,107.3v-1.2L5,106v-0.1c-0.8-0.7-1.3-1.7-1.4-2.7c0-1.7,1.1-2.5,3.2-2.5h5.2v1.4h-5c-1.6,0-2.2,0.5-2.2,1.6
	c0,0.9,0.4,1.4,1.3,2.3h6v1.4L3.8,107.3z"/>
<path class="st1" d="M6.9,93.3c-1,0-2.1,0.4-2.1,1.7c0,0.9,0.3,1.7,0.9,2.5l-1,0.6c-0.7-1-1-2.1-1.1-3.2c0-2,1.3-2.9,3.4-2.9h5.1
	v1.2l-1,0.1l0,0c0.7,0.7,1.1,1.7,1.2,2.7c0.1,1.2-0.8,2.3-2.1,2.4c-0.1,0-0.2,0-0.3,0C8.1,98.4,7.3,96.8,6.9,93.3z M11.2,95.6
	c-0.1-0.9-0.5-1.7-1.1-2.3H7.8c0.3,2.8,1,3.7,2.1,3.7c0.7,0,1.3-0.5,1.3-1.2C11.2,95.7,11.2,95.6,11.2,95.6z"/>
<path class="st1" d="M5,89v1.2H3.9L3.8,89l-2.3-0.2v-1.2h2.3v-2.2h1.1v2.2h4.6c1,0,1.6-0.3,1.6-1.3c0-0.3-0.1-0.6-0.2-0.9l1-0.3
	c0.2,0.5,0.3,1,0.3,1.5c0,1.8-1.1,2.3-2.8,2.3L5,89z"/>
<path class="st1" d="M1.2,83.8c-0.5,0.1-1-0.3-1.1-0.9c-0.1-0.5,0.3-1,0.9-1.1c0.5-0.1,1,0.3,1.1,0.9c0,0,0,0.1,0,0.1
	c0.1,0.5-0.3,0.9-0.8,1C1.3,83.8,1.3,83.8,1.2,83.8z M3.8,83.6v-1.4h8.3v1.4L3.8,83.6z"/>
<path class="st1" d="M3.6,76.2c0-2,1.6-3.8,4.3-3.8s4.3,1.8,4.3,3.8S10.7,80,8,80S3.6,78.2,3.6,76.2z M11.1,76.2
	c0-1.4-1.3-2.4-3.2-2.4s-3.2,1-3.2,2.4s1.3,2.4,3.2,2.4S11.1,77.6,11.1,76.2z"/>
<path class="st1" d="M3.8,70.2V69L5,68.9l0,0c-0.8-0.7-1.3-1.7-1.4-2.8c0-1.7,1.1-2.5,3.2-2.5h5.2V65h-5c-1.6,0-2.2,0.5-2.2,1.6
	c0.1,0.9,0.5,1.7,1.3,2.3h6v1.3H3.8z"/>
<path class="st1" d="M81.3,345.3l2-2c2.4-2.4,5.1-2.3,7.6,0.2s2.7,5.3,0.3,7.6l-2,2L81.3,345.3z M90.2,350.4
	c1.8-1.9,1.6-3.9-0.4-5.9s-4-2.2-5.8-0.3l-0.9,0.9l6.2,6.2L90.2,350.4z"/>
<path class="st1" d="M96,338.9c-0.7-0.7-1.7-1.2-2.7-0.3c-0.6,0.7-1,1.5-1.1,2.4l-1.1-0.3c0.2-1.1,0.7-2.2,1.5-3
	c1.4-1.4,3-1.1,4.4,0.4l3.6,3.6l-0.8,0.8l-0.8-0.6l0,0c0,1-0.4,2-1.1,2.8c-0.8,0.9-2.2,1.1-3.2,0.3c-0.1-0.1-0.1-0.1-0.2-0.2
	C93.3,343.4,93.8,341.6,96,338.9z M97.5,343.5c0.6-0.7,0.9-1.5,0.8-2.4l-1.6-1.6c-1.7,2.2-1.9,3.3-1.2,4.1c0.5,0.5,1.3,0.6,1.8,0.1
	C97.4,343.7,97.4,343.6,97.5,343.5L97.5,343.5z"/>
<path class="st1" d="M96.7,333.9l0.8-0.8l1.1,1l0,0c-0.4-1-0.2-2.1,0.5-2.9c0.2-0.2,0.5-0.4,0.7-0.5l0.7,1c-0.2,0.1-0.5,0.3-0.7,0.5
	c-0.5,0.5-0.7,1.4-0.1,2.8l3.8,3.7l-1,1L96.7,333.9z"/>
<path class="st1" d="M98.2,327l1-1l5.8,5.8l0,0l-0.6-5.6l1.1-1.1l0.4,4.3l5.7,1.3l-1.1,1.1l-4.5-1.1l0.2,2.4l1.5,1.5l-1,1L98.2,327z
	"/>
<path class="st1" d="M148.5,344.6l-5.2-1.4l-1.4,1.4l3.3,3.3l-1,1l-7.9-7.9l2.5-2.5c1.6-1.6,3.3-2.2,5-0.5c1.2,1,1.4,2.7,0.5,4
	l5.4,1.4L148.5,344.6z M141.1,343.8l1.3-1.3c1.2-1.2,1.4-2.4,0.4-3.4s-2.1-0.7-3.3,0.5l-1.3,1.3L141.1,343.8z"/>
<path class="st1" d="M147.1,334c1.5-1.5,3.4-1.3,5.1,0.4c0.2,0.2,0.4,0.4,0.5,0.6l-3.9,3.9c1,1.1,2.7,1.2,3.9,0.2
	c0,0,0.1-0.1,0.1-0.1c0.5-0.5,0.9-1.2,1-1.9l1,0.3c-0.2,0.9-0.6,1.8-1.3,2.5c-1.6,1.6-3.9,1.7-5.9-0.3S145.8,335.4,147.1,334z
	 M151.2,335.2c-1.2-1.2-2.4-1.3-3.3-0.4c-0.9,1-0.8,2.6,0.2,3.5L151.2,335.2z"/>
<path class="st1" d="M153,328.2c0.6-0.6,1.4-1,2.3-1l-1-1l-2.3-2.3l1-1l8.5,8.5l-0.8,0.8l-0.8-0.6l0,0c0,1-0.3,1.9-0.9,2.6
	c-1.5,1.5-3.5,1.3-5.5-0.6S151.7,329.5,153,328.2z M158.4,333.4c0.6-0.6,0.8-1.5,0.7-2.3l-3-3c-0.7,0-1.5,0.3-2,0.8
	c-0.9,0.9-0.8,2.6,0.6,3.9S157.4,334.4,158.4,333.4L158.4,333.4z"/>
<path class="st1" d="M194.9,349.1l-5.2-1.4l-1.4,1.4l3.3,3.3l-1,1l-7.9-7.9l2.5-2.5c1.6-1.6,3.3-2.2,4.9-0.5c1.2,1,1.4,2.7,0.5,4
	l5.4,1.4L194.9,349.1z M187.5,348.3l1.3-1.3c1.2-1.2,1.4-2.4,0.4-3.4s-2.1-0.7-3.3,0.5l-1.3,1.3L187.5,348.3z"/>
<path class="st1" d="M191.3,335.7l0.7-0.7l7.2,13.6l-0.7,0.7L191.3,335.7z"/>
<path class="st1" d="M193.9,334.5l4.6-4.5l0.8,0.8l-3.5,3.5l2.7,2.7l3-3l0.8,0.8l-3,3l3.5,3.5l-1,1L193.9,334.5z"/>
<path class="st1" d="M211.9,332.1l-5.2-1.4l-1.4,1.4l3.3,3.3l-1,1l-7.9-7.9l2.5-2.5c1.6-1.6,3.3-2.2,5-0.5c1.1,1,1.3,2.7,0.5,4
	l5.4,1.4L211.9,332.1z M204.5,331.3l1.3-1.3c1.2-1.2,1.4-2.4,0.4-3.4s-2.1-0.7-3.3,0.5l-1.4,1.3L204.5,331.3z"/>
<path class="st1" d="M234.7,360.2l-5.2-1.4l-1.4,1.4l3.3,3.3l-1,1l-7.9-7.8l2.5-2.5c1.6-1.6,3.3-2.2,5-0.5c1.1,1,1.3,2.7,0.5,4
	l5.4,1.4L234.7,360.2z M227.3,359.4l1.3-1.3c1.2-1.2,1.4-2.4,0.4-3.4s-2.1-0.7-3.3,0.5l-1.3,1.3L227.3,359.4z"/>
<path class="st1" d="M231.1,346.8l0.7-0.7l7.2,13.6l-0.7,0.7L231.1,346.8z"/>
<path class="st1" d="M233.6,345.6l4.6-4.5l0.8,0.8l-3.5,3.5l2.7,2.7l3-3l0.8,0.8l-3,3l3.5,3.5l-1,1L233.6,345.6z"/>
<path class="st1" d="M251.7,343.2l-5.2-1.4l-1.4,1.4l3.3,3.3l-1,1l-7.9-7.8l2.5-2.5c1.6-1.6,3.3-2.2,5-0.5c1.1,1,1.3,2.7,0.5,4
	l5.4,1.4L251.7,343.2z M244.3,342.4l1.3-1.3c1.2-1.2,1.4-2.4,0.4-3.4s-2.1-0.7-3.3,0.5l-1.3,1.3L244.3,342.4z"/>
<path class="st1" d="M248.1,329.9l0.7-0.7l7.3,13.6l-0.7,0.7L248.1,329.9z"/>
<path class="st1" d="M262.8,332.1l-5.2-1.4l-1.4,1.4l3.3,3.3l-1,1l-7.9-7.9l2.5-2.5c1.6-1.6,3.3-2.2,5-0.5c1.1,1,1.3,2.7,0.5,4
	l5.4,1.4L262.8,332.1z M255.4,331.3l1.3-1.3c1.2-1.2,1.4-2.4,0.4-3.4s-2.1-0.7-3.3,0.5l-1.3,1.3L255.4,331.3z"/>
<path class="st1" d="M268.6,377.2l-5.2-1.4l-1.4,1.4l3.3,3.3l-1,1l-7.8-7.9l2.5-2.5c1.6-1.6,3.3-2.2,5-0.5c1.1,1,1.3,2.7,0.5,4
	l5.4,1.4L268.6,377.2z M261.2,376.4l1.3-1.3c1.2-1.2,1.4-2.4,0.4-3.4s-2.1-0.7-3.3,0.5l-1.3,1.3L261.2,376.4z"/>
<path class="st1" d="M265,363.8l0.7-0.7l7.3,13.6l-0.7,0.7L265,363.8z"/>
<path class="st1" d="M267.6,362.5l4.5-4.5l0.8,0.8l-3.5,3.5l2.7,2.7l3-3l0.8,0.8l-3,3l3.5,3.5l-1,1L267.6,362.5z"/>
<path class="st1" d="M285.6,360.2l-5.2-1.4l-1.4,1.4l3.3,3.3l-1,1l-7.9-7.9l2.5-2.5c1.6-1.6,3.3-2.2,5-0.5c1.2,1,1.4,2.7,0.5,4
	l5.4,1.4L285.6,360.2z M278.2,359.4l1.3-1.3c1.2-1.2,1.4-2.4,0.4-3.4s-2.1-0.7-3.3,0.5l-1.3,1.3L278.2,359.4z"/>
<path class="st1" d="M282,346.8l0.7-0.7l7.3,13.6l-0.7,0.7L282,346.8z"/>
<path class="st1" d="M296.7,349.1l-5.2-1.4l-1.4,1.4l3.3,3.3l-1,1l-7.9-7.9l2.5-2.5c1.6-1.6,3.3-2.2,5-0.5c1.2,1,1.4,2.7,0.5,4
	l5.4,1.4L296.7,349.1z M289.3,348.3l1.3-1.3c1.2-1.2,1.4-2.4,0.4-3.4s-2.1-0.7-3.3,0.5l-1.3,1.3L289.3,348.3z"/>
<path class="st1" d="M293.1,335.7l0.7-0.7l7.2,13.6l-0.7,0.7L293.1,335.7z"/>
<path class="st1" d="M295.6,334.5l4.5-4.5l0.8,0.8l-3.5,3.5l2.7,2.7l3-3l0.8,0.8l-3,3l3.5,3.5l-1,1L295.6,334.5z"/>
<path class="st1" d="M313.7,332.1l-5.2-1.4l-1.4,1.4l3.3,3.3l-1,1l-7.9-7.9l2.5-2.5c1.6-1.6,3.3-2.2,5-0.5c1.1,1,1.3,2.7,0.5,4
	l5.4,1.4L313.7,332.1z M306.3,331.3l1.3-1.3c1.2-1.2,1.4-2.4,0.4-3.4s-2.1-0.7-3.3,0.5l-1.3,1.3L306.3,331.3z"/>
<path class="st1" d="M308.4,388.3l-5.2-1.4l-1.4,1.4l3.3,3.3l-1,1l-7.9-7.9l2.5-2.5c1.6-1.6,3.3-2.2,5-0.5c1.1,1,1.3,2.7,0.5,4
	l5.4,1.4L308.4,388.3z M301,387.5l1.3-1.3c1.2-1.2,1.4-2.4,0.4-3.4s-2.1-0.7-3.3,0.5l-1.3,1.3L301,387.5z"/>
<path class="st1" d="M304.8,374.9l0.7-0.7l7.3,13.6l-0.7,0.7L304.8,374.9z"/>
<path class="st1" d="M307.4,373.6l4.5-4.5l0.8,0.8l-3.5,3.5l2.7,2.7l3-3l0.8,0.8l-3,3l3.5,3.5l-1,1L307.4,373.6z"/>
<path class="st1" d="M325.4,371.3l-5.2-1.4l-1.4,1.4l3.3,3.3l-1,1l-7.9-7.9l2.5-2.5c1.6-1.6,3.3-2.2,5-0.5c1.1,1,1.3,2.7,0.5,4
	l5.4,1.4L325.4,371.3z M318,370.5l1.3-1.3c1.2-1.2,1.4-2.4,0.4-3.4s-2.1-0.7-3.3,0.5l-1.3,1.3L318,370.5z"/>
<path class="st1" d="M321.8,357.9l0.7-0.8l7.2,13.6l-0.7,0.7L321.8,357.9z"/>
<path class="st1" d="M336.5,360.2l-5.2-1.4l-1.4,1.4l3.3,3.3l-1,1l-7.9-7.9l2.5-2.5c1.6-1.6,3.3-2.2,5-0.5c1.1,1,1.3,2.7,0.5,4
	l5.4,1.4L336.5,360.2z M329,359.4l1.3-1.3c1.2-1.2,1.4-2.4,0.4-3.4s-2.1-0.7-3.3,0.5l-1.3,1.3L329,359.4z"/>
<path class="st1" d="M332.9,346.8l0.7-0.7l7.3,13.6l-0.7,0.7L332.9,346.8z"/>
<path class="st1" d="M335.4,345.6l4.5-4.5l0.8,0.8l-3.5,3.5l2.7,2.7l3-3l0.8,0.8l-3,3l3.5,3.5l-1,1L335.4,345.6z"/>
<path class="st1" d="M353.5,343.2l-5.2-1.4l-1.4,1.4l3.3,3.3l-1,1l-7.9-7.9l2.5-2.5c1.6-1.6,3.3-2.2,5-0.5c1.1,1,1.3,2.7,0.5,4
	l5.4,1.4L353.5,343.2z M346,342.4l1.3-1.3c1.2-1.2,1.4-2.4,0.4-3.4s-2.1-0.7-3.3,0.5l-1.3,1.3L346,342.4z"/>
<path class="st1" d="M349.8,329.9l0.7-0.7l7.2,13.6l-0.7,0.7L349.8,329.9z"/>
<path class="st1" d="M364.6,332.2l-5.2-1.4l-1.4,1.4l3.3,3.3l-1,1l-7.9-7.9l2.5-2.5c1.6-1.6,3.3-2.2,5-0.5c1.1,1,1.3,2.7,0.5,4
	l5.4,1.4L364.6,332.2z M357.1,331.4l1.4-1.4c1.2-1.2,1.4-2.4,0.4-3.4s-2.1-0.7-3.3,0.5l-1.3,1.3L357.1,331.4z"/>
<path class="st1" d="M342.4,405.3l-5.2-1.4l-1.4,1.4l3.3,3.3l-1,1l-7.9-7.9l2.5-2.5c1.6-1.6,3.3-2.2,5-0.5c1.1,1,1.3,2.7,0.5,4
	l5.4,1.4L342.4,405.3z M334.9,404.4l1.3-1.3c1.2-1.2,1.4-2.4,0.4-3.4s-2.1-0.7-3.3,0.5l-1.3,1.3L334.9,404.4z"/>
<path class="st1" d="M338.7,391.9l0.7-0.7l7.3,13.6l-0.7,0.7L338.7,391.9z"/>
<path class="st1" d="M341.3,390.6l4.5-4.5l0.8,0.8l-3.5,3.5l2.7,2.7l3-3l0.8,0.8l-3,3l3.5,3.5l-1,1L341.3,390.6z"/>
<path class="st1" d="M359.3,388.3l-5.2-1.4l-1.4,1.4l3.3,3.3l-1,1l-7.9-7.9l2.5-2.5c1.6-1.6,3.3-2.2,5-0.5c1.2,1,1.4,2.7,0.5,4
	l5.5,1.5L359.3,388.3z M351.9,387.5l1.3-1.3c1.2-1.2,1.4-2.4,0.4-3.4s-2.1-0.7-3.3,0.5l-1.3,1.3L351.9,387.5z"/>
<path class="st1" d="M355.7,374.9l0.7-0.7l7.2,13.6l-0.7,0.7L355.7,374.9z"/>
<path class="st1" d="M370.4,377.2l-5.2-1.4l-1.4,1.4l3.3,3.3l-1,1l-7.9-7.9l2.5-2.5c1.6-1.6,3.3-2.2,5-0.5c1.1,1,1.3,2.7,0.5,4
	l5.4,1.4L370.4,377.2z M363,376.4l1.3-1.3c1.2-1.2,1.4-2.4,0.4-3.4s-2.1-0.7-3.3,0.5l-1.3,1.3L363,376.4z"/>
<path class="st1" d="M366.8,363.8l0.7-0.7l7.3,13.6l-0.7,0.7L366.8,363.8z"/>
<path class="st1" d="M369.4,362.5l4.5-4.5l0.8,0.8l-3.5,3.5l2.7,2.7l3-3l0.8,0.8l-3,3l3.5,3.5l-1,1L369.4,362.5z"/>
<path class="st1" d="M387.4,360.2l-5.2-1.4l-1.4,1.4l3.3,3.3l-1,1l-7.9-7.9l2.5-2.5c1.6-1.6,3.3-2.2,5-0.5c1.1,1,1.3,2.7,0.5,4
	l5.4,1.4L387.4,360.2z M380,359.4l1.3-1.3c1.2-1.2,1.4-2.4,0.4-3.4s-2.1-0.7-3.3,0.5l-1.3,1.3L380,359.4z"/>
<path class="st1" d="M383.8,346.8l0.7-0.7l7.2,13.6l-0.7,0.7L383.8,346.8z"/>
<path class="st1" d="M398.5,349.1l-5.2-1.4l-1.4,1.4l3.3,3.3l-1,1l-7.9-7.9l2.5-2.5c1.6-1.6,3.3-2.2,5-0.5c1.2,1,1.4,2.7,0.5,4
	l5.4,1.4L398.5,349.1z M391,348.3l1.3-1.3c1.2-1.2,1.4-2.4,0.4-3.4s-2.1-0.7-3.3,0.5l-1.3,1.3L391,348.3z"/>
<path class="st1" d="M394.9,335.7l0.7-0.7l7.2,13.6l-0.7,0.7L394.9,335.7z"/>
<path class="st1" d="M397.4,334.5l4.5-4.5l0.8,0.8l-3.5,3.5l2.7,2.7l3-3l0.8,0.8l-3,3l3.5,3.5l-1,1L397.4,334.5z"/>
<path class="st1" d="M415.5,332.1l-5.2-1.4l-1.4,1.4l3.3,3.3l-1,1l-7.9-7.9l2.5-2.5c1.6-1.6,3.3-2.2,5-0.5c1.1,1,1.3,2.7,0.5,4
	l5.4,1.4L415.5,332.1z M408,331.3l1.3-1.3c1.2-1.2,1.4-2.4,0.4-3.4s-2.1-0.7-3.3,0.5l-1.3,1.3L408,331.3z"/>
<path class="st1" d="M382.1,416.4l-5.2-1.4l-1.4,1.4l3.3,3.3l-1,1l-7.9-7.9l2.5-2.5c1.6-1.6,3.3-2.2,5-0.5c1.1,1,1.3,2.7,0.5,4
	l5.4,1.4L382.1,416.4z M374.7,415.6l1.3-1.3c1.2-1.2,1.4-2.4,0.4-3.4s-2.1-0.7-3.3,0.5l-1.3,1.3L374.7,415.6z"/>
<path class="st1" d="M378.5,403l0.7-0.7l7.3,13.6l-0.7,0.7L378.5,403z"/>
<path class="st1" d="M381.1,401.7l4.5-4.5l0.8,0.8l-3.5,3.5l2.7,2.7l3-3l0.8,0.8l-3,3l3.5,3.5l-1,1L381.1,401.7z"/>
<path class="st1" d="M399.1,399.4l-5.2-1.4l-1.4,1.4l3.3,3.3l-1,1l-7.9-7.9l2.5-2.5c1.6-1.6,3.3-2.2,5-0.5c1.1,1,1.3,2.7,0.5,4
	l5.4,1.4L399.1,399.4z M391.7,398.6l1.3-1.3c1.2-1.2,1.4-2.4,0.4-3.4s-2.1-0.7-3.3,0.5l-1.3,1.3L391.7,398.6z"/>
<path class="st1" d="M395.5,386l0.7-0.7l7.3,13.6l-0.7,0.7L395.5,386z"/>
<path class="st1" d="M410.2,388.3l-5.2-1.4l-1.4,1.4l3.3,3.3l-1,1l-7.9-7.9l2.5-2.5c1.6-1.6,3.3-2.2,5-0.5c1.1,1,1.3,2.7,0.5,4
	l5.4,1.4L410.2,388.3z M402.8,387.5l1.3-1.3c1.2-1.2,1.4-2.4,0.4-3.4s-2.1-0.7-3.3,0.5l-1.3,1.3L402.8,387.5z"/>
<path class="st1" d="M406.6,374.9l0.7-0.7l7.2,13.6l-0.7,0.7L406.6,374.9z"/>
<path class="st1" d="M409.1,373.6l4.5-4.5l0.8,0.8l-3.5,3.5l2.7,2.7l3-3l0.8,0.8l-3,3l3.5,3.5l-1,1L409.1,373.6z"/>
<path class="st1" d="M427.2,371.3l-5.2-1.4l-1.4,1.4l3.3,3.3l-1,1l-7.9-7.9l2.5-2.5c1.6-1.6,3.3-2.2,5-0.5c1.1,1,1.3,2.7,0.5,4
	l5.4,1.4L427.2,371.3z M419.7,370.5l1.3-1.3c1.2-1.2,1.4-2.4,0.4-3.4s-2.1-0.7-3.3,0.5l-1.3,1.3L419.7,370.5z"/>
<path class="st1" d="M423.5,357.9l0.7-0.7l7.2,13.6l-0.7,0.7L423.5,357.9z"/>
<path class="st1" d="M438.3,360.2l-5.2-1.4l-1.4,1.4l3.3,3.3l-1,1l-7.9-7.9l2.5-2.5c1.6-1.6,3.3-2.2,5-0.5c1.1,1,1.3,2.7,0.5,4
	l5.4,1.4L438.3,360.2z M430.8,359.4l1.3-1.3c1.2-1.2,1.4-2.4,0.4-3.4s-2.1-0.7-3.3,0.5l-1.3,1.3L430.8,359.4z"/>
<path class="st1" d="M434.6,346.8l0.7-0.7l7.3,13.6l-0.7,0.7L434.6,346.8z"/>
<path class="st1" d="M437.2,345.6l4.5-4.5l0.8,0.8l-3.5,3.5l2.7,2.7l3-3l0.8,0.8l-3,3l3.5,3.5l-1,1L437.2,345.6z"/>
<path class="st1" d="M455.3,343.2l-5.2-1.4l-1.4,1.4l3.3,3.3l-1,1l-7.9-7.9l2.5-2.5c1.6-1.6,3.3-2.2,5-0.5c1.1,1,1.3,2.7,0.5,4
	l5.4,1.4L455.3,343.2z M447.8,342.4l1.3-1.3c1.2-1.2,1.4-2.4,0.4-3.4s-2.1-0.7-3.3,0.5l-1.3,1.3L447.8,342.4z"/>
<path class="st1" d="M451.6,329.9l0.7-0.7l7.3,13.6l-0.7,0.7L451.6,329.9z"/>
<path class="st1" d="M466.4,332.2l-5.2-1.4l-1.4,1.4l3.3,3.3l-1,1l-7.9-7.9l2.5-2.5c1.6-1.6,3.3-2.2,5-0.5c1.1,1,1.3,2.7,0.5,4
	l5.4,1.4L466.4,332.2z M458.9,331.4l1.3-1.3c1.2-1.2,1.4-2.4,0.4-3.4s-2.1-0.7-3.3,0.5l-1.3,1.3L458.9,331.4z"/>
<path class="st1" d="M30.9,64.3h2.5v-8h-2v-0.9c0.8-0.1,1.6-0.4,2.3-0.8h1.1v9.7H37v1.2h-6.1V64.3z"/>
<path class="st1" d="M39.3,64.3h2.5v-8h-2v-0.9c0.8-0.1,1.6-0.4,2.3-0.8h1.1v9.7h2.2v1.2h-6.1V64.3z"/>
<path class="st1" d="M47.2,60c0-3.6,1.3-5.6,3.5-5.6s3.5,2,3.5,5.6s-1.3,5.7-3.5,5.7S47.2,63.6,47.2,60z M52.8,60
	c0-3.2-0.8-4.5-2.1-4.5s-2.2,1.3-2.2,4.5s0.8,4.5,2.1,4.5S52.8,63.2,52.8,60z"/>
<path class="st1" d="M30.9,86.9h2.5v-8h-2V78c0.8-0.1,1.6-0.4,2.3-0.8h1.1v9.7H37V88h-6.1V86.9z"/>
<path class="st1" d="M38.7,82.6c0-3.6,1.3-5.6,3.5-5.6s3.5,2,3.5,5.6s-1.3,5.7-3.5,5.7S38.7,86.2,38.7,82.6z M44.3,82.6
	c0-3.2-0.8-4.5-2.1-4.5s-2.1,1.3-2.1,4.5s0.8,4.5,2.1,4.5S44.3,85.8,44.3,82.6z"/>
<path class="st1" d="M47.2,82.6c0-3.6,1.3-5.6,3.5-5.6s3.5,2,3.5,5.6s-1.3,5.7-3.5,5.7S47.2,86.2,47.2,82.6z M52.8,82.6
	c0-3.2-0.8-4.5-2.1-4.5s-2.2,1.3-2.2,4.5s0.8,4.5,2.1,4.5S52.8,85.8,52.8,82.6z"/>
<path class="st1" d="M39.6,108.9c0.4,0.5,1.1,0.9,1.8,0.9c1.5,0,2.8-1.2,2.9-4.7c-0.6,0.8-1.5,1.3-2.5,1.4c-1.9,0-3.1-1.1-3.1-3.3
	c-0.1-1.8,1.3-3.4,3.1-3.5c0,0,0.1,0,0.1,0c2.1,0,3.7,1.7,3.7,5.2c0,4.3-2,6-4.1,6c-1,0-1.9-0.4-2.6-1.1L39.6,108.9z M44.3,104
	c-0.2-2.1-1-3.2-2.4-3.2c-1,0-1.9,1-1.9,2.4s0.7,2.3,2,2.3C42.9,105.3,43.8,104.8,44.3,104z"/>
<path class="st1" d="M47.2,105.2c0-3.6,1.3-5.6,3.5-5.6s3.5,2,3.5,5.6s-1.3,5.7-3.5,5.7S47.2,108.9,47.2,105.2z M52.8,105.2
	c0-3.2-0.8-4.5-2.1-4.5s-2.2,1.3-2.2,4.5s0.8,4.5,2.1,4.5S52.8,108.4,52.8,105.2z"/>
<path class="st1" d="M40.7,127.6L40.7,127.6c-0.9-0.6-1.5-1.5-1.5-2.6c0-1.6,1.3-2.8,2.9-2.8c0.1,0,0.1,0,0.2,0
	c1.5-0.1,2.9,1,3.1,2.5c0,0.1,0,0.2,0,0.4c-0.1,1.1-0.6,2-1.5,2.6v0.1c1.1,0.5,1.9,1.6,1.9,2.8c0,1.6-1.4,2.9-3.5,2.9
	s-3.5-1.3-3.5-3C38.8,129.3,39.5,128.1,40.7,127.6z M42.3,132.5c1.1,0.1,2-0.7,2.1-1.7c0-0.1,0-0.1,0-0.2c0-1.4-1.4-1.9-2.9-2.5
	c-0.9,0.5-1.4,1.4-1.5,2.4c0,1.2,1,2.1,2.2,2.1C42.2,132.5,42.2,132.5,42.3,132.5z M44.1,125.2c0.1-1-0.7-1.9-1.7-1.9
	c-0.1,0-0.1,0-0.2,0c-0.9,0-1.7,0.7-1.8,1.6c0,0.1,0,0.1,0,0.2c0,1.3,1.2,1.8,2.5,2.3C43.7,126.9,44.1,126.1,44.1,125.2z"/>
<path class="st1" d="M47.2,127.9c0-3.6,1.3-5.6,3.5-5.6s3.5,1.9,3.5,5.6s-1.3,5.6-3.5,5.6S47.2,131.5,47.2,127.9z M52.8,127.9
	c0-3.2-0.8-4.5-2.1-4.5s-2.2,1.3-2.2,4.5s0.8,4.5,2.1,4.5S52.8,131,52.8,127.9z"/>
<path class="st1" d="M44.1,146.3h-5.4v-1.2h7v0.9c-2.6,3.3-3.1,5.7-3.3,10H41C41,152.5,42.1,149.1,44.1,146.3z"/>
<path class="st1" d="M47.2,150.5c0-3.6,1.3-5.6,3.5-5.6s3.5,2,3.5,5.6s-1.3,5.6-3.5,5.6S47.2,154.1,47.2,150.5z M52.8,150.5
	c0-3.2-0.8-4.5-2.1-4.5s-2.2,1.3-2.2,4.5s0.8,4.5,2.1,4.5S52.8,153.6,52.8,150.5z"/>
<path class="st1" d="M44.8,169.5c-0.4-0.5-1.1-0.8-1.8-0.9c-1.5,0-2.8,1.2-2.8,4.6c0.6-0.8,1.5-1.3,2.5-1.4c1.9,0,3.1,1.1,3.1,3.3
	c0.1,1.8-1.3,3.4-3.1,3.5c0,0-0.1,0-0.1,0c-2.1,0-3.7-1.7-3.7-5.2c0-4.3,2-6,4.1-6c1,0,1.9,0.4,2.6,1.1L44.8,169.5z M44.4,175.3
	c0-1.4-0.7-2.3-2-2.3c-0.9,0.1-1.8,0.6-2.3,1.4c0.2,2.1,1,3.2,2.4,3.2C43.6,177.6,44.4,176.7,44.4,175.3L44.4,175.3z"/>
<path class="st1" d="M47.2,173.1c0-3.6,1.3-5.6,3.5-5.6s3.5,2,3.5,5.6s-1.3,5.6-3.5,5.6S47.2,176.7,47.2,173.1z M52.8,173.1
	c0-3.2-0.8-4.5-2.1-4.5s-2.2,1.3-2.2,4.5s0.8,4.5,2.1,4.5S52.8,176.3,52.8,173.1z"/>
<path class="st1" d="M39.1,199c0.7,0.8,1.7,1.2,2.7,1.2c1.3,0,2.4-1,2.4-2.3c0-0.1,0-0.1,0-0.2c0.1-1.2-0.8-2.3-2-2.4
	c-0.1,0-0.2,0-0.4,0c-0.7,0-1.3,0.2-1.8,0.7l-0.7-0.5l0.3-5.2h5.4v1.2h-4.2l-0.3,3.2c0.5-0.3,1.1-0.4,1.7-0.4
	c1.7-0.1,3.2,1.1,3.4,2.9c0,0.2,0,0.4,0,0.5c0.1,2-1.5,3.6-3.4,3.7c-0.1,0-0.2,0-0.2,0c-1.3,0-2.6-0.5-3.5-1.5L39.1,199z"/>
<path class="st1" d="M47.2,195.7c0-3.6,1.3-5.6,3.5-5.6s3.5,1.9,3.5,5.6s-1.3,5.6-3.5,5.6S47.2,199.3,47.2,195.7z M52.8,195.7
	c0-3.2-0.8-4.5-2.1-4.5s-2.2,1.3-2.2,4.5s0.8,4.5,2.1,4.5S52.8,198.9,52.8,195.7z"/>
<path class="st1" d="M46,220.8h-1.5v3h-1.3v-3h-4.9v-0.9l4.6-6.9h1.6v6.7H46L46,220.8z M43.2,219.7v-3.1c0-0.6,0-1.5,0.1-2.1h-0.1
	c-0.3,0.5-0.6,1-0.9,1.5l-2.5,3.7H43.2z"/>
<path class="st1" d="M47.2,218.3c0-3.6,1.3-5.6,3.5-5.6s3.5,1.9,3.5,5.6s-1.3,5.6-3.5,5.6S47.2,222,47.2,218.3z M52.8,218.3
	c0-3.2-0.8-4.5-2.1-4.5s-2.2,1.3-2.2,4.5s0.8,4.5,2.1,4.5S52.8,221.5,52.8,218.3z"/>
<path class="st1" d="M39.1,244.2c0.7,0.8,1.7,1.3,2.8,1.3c1.1,0.1,2.1-0.6,2.2-1.7c0-0.1,0-0.2,0-0.3c0-1.3-0.9-2.1-3.5-2.1v-1.1
	c2.3,0,3.1-0.9,3.1-2c0-0.9-0.7-1.7-1.6-1.7c-0.1,0-0.2,0-0.3,0c-0.9,0-1.7,0.4-2.3,1.1l-0.7-0.9c0.8-0.8,1.9-1.3,3.1-1.4
	c1.9,0,3.2,1,3.2,2.8c0,1.2-0.8,2.3-2,2.6v0.1c1.3,0.2,2.3,1.4,2.3,2.7c0,1.9-1.6,3.1-3.6,3.1c-1.4,0-2.7-0.5-3.6-1.5L39.1,244.2z"
	/>
<path class="st1" d="M47.2,240.9c0-3.6,1.3-5.6,3.5-5.6s3.5,1.9,3.5,5.6c0,3.6-1.3,5.7-3.5,5.7S47.2,244.6,47.2,240.9z M52.8,240.9
	c0-3.2-0.8-4.5-2.1-4.5s-2.2,1.3-2.2,4.5s0.8,4.5,2.1,4.5S52.8,244.1,52.8,240.9z"/>
<path class="st1" d="M38.7,268.2c3.3-3.3,5.1-5.2,5.1-6.9c0.1-1.1-0.6-2-1.7-2.1c-0.1,0-0.2,0-0.3,0c-0.9,0.1-1.8,0.6-2.3,1.3
	l-0.8-0.8c0.8-1,2-1.6,3.3-1.6c1.7-0.1,3.1,1.1,3.2,2.8c0,0.1,0,0.3,0,0.4c0,2-1.8,4-4.4,6.7c0.6,0,1.3-0.1,1.8-0.1h3.1v1.2h-7
	L38.7,268.2z"/>
<path class="st1" d="M47.2,263.6c0-3.6,1.3-5.6,3.5-5.6s3.5,2,3.5,5.6s-1.3,5.6-3.5,5.6S47.2,267.2,47.2,263.6z M52.8,263.6
	c0-3.2-0.8-4.5-2.1-4.5s-2.2,1.3-2.2,4.5s0.8,4.5,2.1,4.5S52.8,266.7,52.8,263.6z"/>
<path class="st1" d="M39.3,290.5h2.5v-8h-2v-0.9c0.8-0.1,1.6-0.4,2.3-0.8h1.1v9.7h2.2v1.2h-6.1V290.5z"/>
<path class="st1" d="M47.2,286.2c0-3.6,1.3-5.6,3.5-5.6s3.5,2,3.5,5.6s-1.3,5.6-3.5,5.6S47.2,289.8,47.2,286.2z M52.8,286.2
	c0-3.2-0.8-4.5-2.1-4.5s-2.2,1.3-2.2,4.5s0.8,4.5,2.1,4.5S52.8,289.4,52.8,286.2z"/>
<path class="st1" d="M47.2,308.8c0-3.6,1.3-5.6,3.5-5.6s3.5,2,3.5,5.6s-1.3,5.6-3.5,5.6S47.2,312.4,47.2,308.8z M52.8,308.8
	c0-3.2-0.8-4.5-2.1-4.5s-2.2,1.3-2.2,4.5s0.8,4.5,2.1,4.5S52.8,312,52.8,308.8z"/>
<rect x="100.2" y="287.5" class="st2" width="14.9" height="21.5"/>
<rect x="151.1" y="86.2" class="st2" width="14.9" height="222.8"/>
<rect x="202" y="190.2" class="st2" width="14.9" height="118.7"/>
<rect x="252.9" y="82.8" class="st2" width="14.9" height="226.2"/>
<rect x="303.8" y="216.6" class="st2" width="14.9" height="92.3"/>
<rect x="354.7" y="82.8" class="st2" width="14.9" height="226.2"/>
<rect x="405.6" y="190.2" class="st2" width="14.9" height="118.7"/>
<rect x="456.5" y="86.2" class="st2" width="14.9" height="222.8"/>
<path class="st1" d="M73.1,1.2h1.4v9.9h4.9v1.2h-6.3V1.2z"/>
<path class="st1" d="M84,3.8c2.1,0,3.3,1.5,3.3,3.9c0,0.3,0,0.5,0,0.8h-5.6c-0.1,1.5,1.1,2.8,2.6,2.9c0.1,0,0.1,0,0.2,0
	c0.7,0,1.4-0.2,2-0.6l0.5,0.9c-0.8,0.5-1.7,0.8-2.7,0.9c-2.2,0-4-1.6-4-4.3S82.2,3.8,84,3.8z M86.1,7.5c0-1.7-0.8-2.6-2-2.6
	c-1.4,0.1-2.4,1.2-2.4,2.6H86.1z"/>
<path class="st1" d="M89.4,5.2h-1.2V4.1L89.4,4l0.2-2.3h1.2V4H93v1.1h-2.2v4.6c0,1,0.3,1.6,1.3,1.6c0.3,0,0.6-0.1,0.9-0.2l0.3,1
	c-0.5,0.2-1,0.3-1.5,0.3c-1.8,0-2.4-1.1-2.4-2.8L89.4,5.2z"/>
<path class="st1" d="M95.1,5.2h-1.2V4.1L95.2,4l0.2-2.3h1.2V4h2.2v1.1h-2.2v4.6c0,1,0.3,1.6,1.3,1.6c0.3,0,0.6-0.1,0.9-0.2l0.3,1
	c-0.5,0.2-1,0.3-1.5,0.3c-1.8,0-2.4-1.1-2.4-2.8L95.1,5.2z"/>
<path class="st1" d="M100.4,4h1.4v5c0,1.5,0.5,2.2,1.6,2.2c0.8,0,1.4-0.4,2.2-1.4V4h1.4v8.2h-1.2l-0.1-1.3l0,0
	c-0.6,0.9-1.6,1.5-2.7,1.5c-1.7,0-2.5-1.1-2.5-3.2L100.4,4z"/>
<path class="st1" d="M113.1,3.8c0.9,0,1.8,0.4,2.4,1l-0.7,0.9c-0.4-0.4-1-0.7-1.7-0.7c-1.5,0-2.6,1.3-2.6,3.2s1,3.1,2.6,3.1
	c0.7,0,1.4-0.3,1.9-0.8l0.6,0.9c-0.7,0.7-1.7,1-2.7,1.1c-2.2,0-3.9-1.6-3.9-4.3c-0.2-2.2,1.4-4.1,3.6-4.3
	C112.8,3.8,113,3.8,113.1,3.8z"/>
<path class="st1" d="M120.2,3.8c2.1,0,3.3,1.5,3.3,3.9c0,0.3,0,0.5,0,0.8h-5.6c-0.1,1.5,1.1,2.8,2.6,2.9c0,0,0.1,0,0.1,0
	c0.7,0,1.5-0.2,2.1-0.6l0.5,0.9c-0.8,0.5-1.7,0.8-2.7,0.9c-2.2,0-4-1.6-4-4.3S118.3,3.8,120.2,3.8z M122.3,7.5c0-1.7-0.8-2.6-2-2.6
	c-1.4,0.1-2.4,1.2-2.4,2.6H122.3z"/>
<path class="st1" d="M128.7,10.4c0.7,0.6,1.5,1,2.4,1c1.1,0,1.6-0.6,1.6-1.3s-1-1.2-1.9-1.6c-1.2-0.4-2.5-1-2.5-2.4s1.1-2.3,2.8-2.3
	c0.9,0,1.8,0.3,2.6,0.9l-0.7,0.9c-0.5-0.5-1.2-0.7-1.9-0.7c-1,0-1.5,0.6-1.5,1.2s0.9,1.1,1.8,1.4c1.2,0.4,2.5,0.9,2.5,2.5
	c0,1.3-1.1,2.5-3,2.5c-1.1,0-2.2-0.4-3.1-1.1L128.7,10.4z"/>
<path class="st1" d="M139.1,3.8c2.1,0,3.3,1.5,3.3,3.9c0,0.3,0,0.5-0.1,0.8h-5.6c-0.1,1.5,1.1,2.8,2.6,2.9c0.1,0,0.1,0,0.2,0
	c0.7,0,1.5-0.2,2.1-0.6l0.5,0.9c-0.8,0.5-1.7,0.8-2.7,0.9c-2.2,0-3.9-1.6-3.9-4.3S137.3,3.8,139.1,3.8z M141.2,7.5
	c0-1.7-0.8-2.6-2-2.6c-1.4,0.1-2.4,1.2-2.4,2.6H141.2z"/>
<path class="st1" d="M147.6,3.8c2.1,0,3.3,1.5,3.3,3.9c0,0.3,0,0.5-0.1,0.8h-5.6c-0.1,1.5,1.1,2.8,2.6,2.9c0.1,0,0.1,0,0.2,0
	c0.7,0,1.4-0.2,2.1-0.6l0.5,0.9c-0.8,0.5-1.7,0.8-2.7,0.9c-2.2,0-4-1.6-4-4.3S145.7,3.8,147.6,3.8z M149.6,7.5c0-1.7-0.7-2.6-2-2.6
	c-1.4,0.1-2.4,1.2-2.4,2.6H149.6z"/>
<path class="st1" d="M155.9,3.8c0.9,0,1.7,0.4,2.3,1l-0.1-1.4V0.2h1.4v12.1h-1.1l-0.1-1h-0.1c-0.6,0.7-1.5,1.1-2.5,1.2
	c-2.1,0-3.4-1.6-3.4-4.3S154,3.8,155.9,3.8z M156,11.3c0.8,0,1.6-0.5,2.1-1.1V5.9c-0.5-0.5-1.2-0.9-2-0.9c-1.3,0-2.4,1.3-2.4,3.2
	S154.6,11.3,156,11.3z"/>
<path class="st1" d="M162.1,10.4c0.7,0.6,1.5,1,2.4,1c1.1,0,1.6-0.6,1.6-1.3s-1-1.2-1.9-1.6c-1.2-0.4-2.5-1-2.5-2.4s1.1-2.3,2.8-2.3
	c0.9,0,1.8,0.3,2.6,0.9l-0.7,0.9c-0.5-0.5-1.2-0.7-1.9-0.7c-1,0-1.5,0.6-1.5,1.2s0.9,1.1,1.8,1.4c1.2,0.4,2.5,0.9,2.5,2.5
	c0,1.3-1.1,2.5-3,2.5c-1.1,0-2.2-0.4-3.1-1.1L162.1,10.4z"/>
<path class="st1" d="M173.4,12L173.4,12c-0.5-0.3-0.7-0.9-0.7-1.4c0-0.6,0.4-1.2,0.9-1.5V9c-0.7-0.5-1.1-1.4-1.1-2.2
	c0-1.6,1.3-2.9,2.9-2.9c0.1,0,0.1,0,0.2,0c0.4,0,0.8,0.1,1.2,0.2h2.9v1.1h-1.7c0.4,0.5,0.7,1.1,0.7,1.7c0,1.6-1.2,2.8-2.8,2.9
	c-0.1,0-0.1,0-0.2,0c-0.4,0-0.9-0.1-1.2-0.3c-0.3,0.2-0.5,0.6-0.5,1c0,0.5,0.3,0.9,1.5,0.9h1.6c1.9,0,2.9,0.6,2.9,2
	c0,1.5-1.6,2.8-4.2,2.8c-2,0-3.4-0.8-3.4-2.2C172.3,13.1,172.7,12.4,173.4,12z M175.8,15.1c1.6,0,2.6-0.8,2.6-1.7s-0.6-1-1.7-1h-1.4
	c-0.4,0-0.7,0-1.1-0.1c-0.5,0.3-0.8,0.8-0.9,1.4C173.4,14.6,174.3,15.1,175.8,15.1z M177.4,6.8c0.1-1-0.6-1.8-1.6-1.9
	c-1-0.1-1.8,0.6-1.9,1.6c0,0.1,0,0.3,0,0.4c-0.1,1,0.6,1.8,1.6,1.9c1,0.1,1.8-0.6,1.9-1.6C177.4,7,177.4,6.9,177.4,6.8z"/>
<path class="st1" d="M184.2,3.8c2.1,0,3.3,1.5,3.3,3.9c0,0.3,0,0.5-0.1,0.8h-5.6c-0.1,1.5,1.1,2.8,2.6,2.9c0.1,0,0.1,0,0.2,0
	c0.7,0,1.5-0.2,2.1-0.6l0.5,0.9c-0.8,0.5-1.7,0.8-2.7,0.9c-2.2,0-3.9-1.6-3.9-4.3S182.4,3.8,184.2,3.8z M186.3,7.5
	c0-1.7-0.8-2.6-2-2.6c-1.4,0.1-2.4,1.2-2.4,2.6H186.3z"/>
<path class="st1" d="M189.6,4h1.1l0.1,1.5l0,0c0.4-1,1.3-1.6,2.3-1.7c0.3,0,0.6,0,0.9,0.2l-0.2,1.2c-0.3-0.1-0.5-0.1-0.8-0.1
	c-0.7,0-1.5,0.5-2.1,1.9v5.3h-1.4L189.6,4z"/>
<path class="st1" d="M195.4,4h1.2l0.1,1.2h0.1c0.6-0.8,1.5-1.3,2.6-1.4c1-0.1,2,0.6,2.3,1.6c0.6-0.9,1.6-1.5,2.7-1.6
	c1.7,0,2.5,1.1,2.5,3.2v5.2h-1.4v-5c0-1.5-0.5-2.2-1.5-2.2c-0.8,0.1-1.6,0.6-2.1,1.3v6h-1.3v-5c0-1.5-0.5-2.2-1.5-2.2
	c-0.8,0.1-1.6,0.6-2.1,1.3v6h-1.4L195.4,4z"/>
<path class="st1" d="M209.3,1.4c-0.1-0.5,0.3-1,0.9-1.1s1,0.3,1.1,0.9s-0.3,1-0.9,1.1c0,0-0.1,0-0.1,0C209.7,2.4,209.3,2,209.3,1.4
	C209.3,1.5,209.3,1.5,209.3,1.4z M209.5,4h1.4v8.2h-1.4L209.5,4z"/>
<path class="st1" d="M213.7,4h1.1l0.1,1.2h0.1c0.7-0.8,1.7-1.3,2.8-1.4c1.7,0,2.5,1.1,2.5,3.2v5.2h-1.4v-5c0-1.5-0.5-2.2-1.6-2.2
	c-0.9,0.1-1.7,0.5-2.3,1.3v6h-1.4V4z"/>
<path class="st1" d="M227.6,7.1c0-1.1-0.4-2.1-1.7-2.1c-0.9,0-1.7,0.3-2.5,0.9l-0.6-1c1-0.7,2.1-1,3.2-1.1c2,0,2.9,1.3,2.9,3.4v5.1
	h-1.2l-0.1-1l0,0c-0.7,0.7-1.7,1.1-2.7,1.2c-1.2,0.1-2.3-0.8-2.5-2c0-0.1,0-0.1,0-0.2C222.6,8.3,224.1,7.4,227.6,7.1z M225.4,11.4
	c0.9-0.1,1.7-0.5,2.3-1.1V8c-2.8,0.3-3.7,1-3.7,2.1c0,0.7,0.5,1.3,1.2,1.3C225.2,11.4,225.3,11.4,225.4,11.4L225.4,11.4z"/>
<path class="st1" d="M231.9,5.2h-1.2V4.1l1.3-0.1l0.2-2.3h1.2V4h2.2v1.1h-2.2v4.6c0,1,0.3,1.6,1.3,1.6c0.3,0,0.6-0.1,0.9-0.2l0.3,1
	c-0.5,0.2-1,0.3-1.5,0.3c-1.8,0-2.4-1.1-2.4-2.8L231.9,5.2z"/>
<path class="st1" d="M237.1,1.4c-0.1-0.5,0.3-1,0.9-1.1s1,0.3,1.1,0.9s-0.3,1-0.9,1.1c0,0-0.1,0-0.1,0c-0.5,0.1-0.9-0.3-1-0.8
	C237.1,1.5,237.1,1.5,237.1,1.4z M237.4,4h1.4v8.2h-1.4V4z"/>
<path class="st1" d="M241.6,4h1.2l0.1,1.2l0,0c0.7-0.8,1.7-1.3,2.8-1.4c1.7,0,2.5,1.1,2.5,3.2v5.2h-1.4v-5c0-1.5-0.5-2.2-1.6-2.2
	c-0.9,0-1.4,0.4-2.3,1.3v6h-1.4L241.6,4z"/>
<path class="st1" d="M251.4,12L251.4,12c-0.5-0.3-0.7-0.9-0.7-1.4c0-0.6,0.4-1.2,0.9-1.5V9c-1.2-1-1.4-2.8-0.4-4.1
	c0.6-0.7,1.5-1.1,2.4-1.1c0.4,0,0.8,0.1,1.2,0.2h2.9v1.1h-1.7c0.4,0.5,0.7,1.1,0.7,1.7c-0.1,1.7-1.5,2.9-3.1,2.9
	c-0.4,0-0.8-0.1-1.1-0.3c-0.3,0.2-0.5,0.6-0.5,1c0,0.5,0.3,0.9,1.5,0.9h1.6c1.9,0,2.9,0.6,2.9,2c0,1.5-1.6,2.8-4.2,2.8
	c-2,0-3.4-0.8-3.4-2.2C250.2,13.1,250.7,12.4,251.4,12z M253.8,15.1c1.6,0,2.6-0.8,2.6-1.7s-0.6-1-1.7-1h-1.4c-0.4,0-0.7,0-1.1-0.1
	c-0.5,0.3-0.8,0.8-0.9,1.4C251.4,14.6,252.3,15.1,253.8,15.1z M255.4,6.8c0.1-1-0.6-1.8-1.6-1.9c-1-0.1-1.8,0.6-1.9,1.6
	c0,0.1,0,0.2,0,0.3c-0.1,1,0.6,1.8,1.5,2c1,0.1,1.8-0.6,2-1.5C255.4,7.1,255.4,6.9,255.4,6.8z"/>
<path class="st1" d="M267.5,7.1c0-1.1-0.4-2.1-1.7-2.1c-0.9,0-1.7,0.3-2.5,0.9l-0.6-1c1-0.7,2.1-1,3.2-1.1c2,0,2.9,1.3,2.9,3.4v5.1
	h-1.2l-0.1-1l0,0c-0.7,0.7-1.7,1.1-2.7,1.2c-1.2,0.1-2.4-0.8-2.5-2c0-0.1,0-0.2,0-0.2C262.4,8.3,264,7.4,267.5,7.1z M265.2,11.4
	c0.9-0.1,1.7-0.5,2.3-1.1V8c-2.8,0.3-3.7,1-3.7,2.1c0,0.7,0.5,1.3,1.2,1.3C265.1,11.4,265.1,11.4,265.2,11.4L265.2,11.4z"/>
<path class="st1" d="M280,12.2c-0.5,0.2-1,0.3-1.5,0.3c-1.8,0-2.4-1.1-2.4-2.8V5.2h-3v7.1h-1.4V5.2h-1.1V4.1l1.1-0.1V2.7
	c0-1.7,0.8-2.7,2.4-2.7c0.5,0,0.9,0.1,1.4,0.3l-0.3,1.1c-0.3-0.1-0.6-0.2-0.9-0.2c-0.8,0-1.1,0.6-1.1,1.6V4h3l0.2-2.3h1.2V4h2.2v1.1
	h-2.2v4.6c0,1,0.3,1.6,1.3,1.6c0.3,0,0.6-0.1,0.9-0.2L280,12.2z"/>
<path class="st1" d="M284.5,3.8c2.1,0,3.3,1.5,3.3,3.9c0,0.3,0,0.5,0,0.8h-5.6c-0.1,1.5,1.1,2.8,2.6,2.9c0.1,0,0.1,0,0.2,0
	c0.7,0,1.4-0.2,2-0.6l0.5,0.9c-0.8,0.5-1.7,0.8-2.7,0.9c-2.2,0-4-1.6-4-4.3S282.6,3.8,284.5,3.8z M286.6,7.5c0-1.7-0.7-2.6-2-2.6
	c-1.4,0.1-2.4,1.2-2.4,2.6H286.6z"/>
<path class="st1" d="M289.8,4h1.1l0.1,1.5h0c0.4-1,1.3-1.6,2.3-1.7c0.3,0,0.6,0,0.9,0.2l-0.3,1.2c-0.3-0.1-0.5-0.1-0.8-0.1
	c-0.7,0-1.5,0.5-2.1,1.9v5.3h-1.4L289.8,4z"/>
<path class="st1" d="M302.2,3.8c2.1,0,3.3,1.5,3.3,3.9c0,0.3,0,0.5,0,0.8h-5.6c-0.1,1.5,1.1,2.8,2.6,2.9c0,0,0.1,0,0.1,0
	c0.7,0,1.5-0.2,2.1-0.6l0.5,0.9c-0.8,0.5-1.7,0.8-2.7,0.9c-2.2,0-4-1.6-4-4.3S300.3,3.8,302.2,3.8z M304.3,7.5c0-1.7-0.8-2.6-2-2.6
	c-1.4,0.1-2.4,1.2-2.4,2.6H304.3z"/>
<path class="st1" d="M309,8L306.5,4h1.5l1.1,1.8c0.3,0.4,0.5,0.9,0.8,1.4h0.1c0.2-0.5,0.5-0.9,0.8-1.4l1-1.8h1.5l-2.5,4.1l2.7,4.1
	h-1.5l-1.2-1.9c-0.3-0.5-0.6-1-0.9-1.5h-0.1c-0.3,0.5-0.6,1-0.8,1.5l-1.1,1.9h-1.5L309,8z"/>
<path class="st1" d="M316.4,13v2.8H315V4h1.2l0.1,1h0c0.7-0.7,1.6-1.1,2.6-1.2c2.1,0,3.3,1.6,3.3,4.2c0,2.8-1.7,4.5-3.6,4.5
	c-0.8-0.1-1.7-0.4-2.3-1L316.4,13z M318.4,11.3c1.4,0,2.4-1.2,2.4-3.3c0-1.8-0.6-3-2.2-3c-0.8,0.1-1.6,0.5-2.2,1.1v4.3
	C316.9,11,317.6,11.3,318.4,11.3L318.4,11.3z"/>
<path class="st1" d="M327.6,3.8c2,0,3.8,1.6,3.8,4.4s-1.8,4.3-3.8,4.3s-3.8-1.6-3.8-4.3S325.6,3.8,327.6,3.8z M327.6,11.3
	c1.4,0,2.4-1.3,2.4-3.1S329,5,327.6,5s-2.4,1.3-2.4,3.2S326.2,11.3,327.6,11.3z"/>
<path class="st1" d="M333.4,10.4c0.7,0.6,1.5,1,2.4,1c1.1,0,1.6-0.6,1.6-1.3s-1-1.2-1.9-1.6c-1.2-0.4-2.5-1-2.5-2.4s1.1-2.3,2.8-2.3
	c0.9,0,1.8,0.3,2.6,0.9l-0.7,0.9c-0.5-0.5-1.2-0.7-1.9-0.7c-1,0-1.5,0.6-1.5,1.2s0.9,1.1,1.8,1.4c1.2,0.4,2.5,0.9,2.5,2.5
	c0,1.3-1.1,2.5-3,2.5c-1.1,0-2.2-0.4-3.1-1.1L333.4,10.4z"/>
<path class="st1" d="M340.6,4h1.4v5c0,1.5,0.5,2.2,1.5,2.2c0.9,0,1.5-0.4,2.2-1.4V4h1.4v8.2H346l-0.1-1.3h0
	c-0.6,0.9-1.6,1.5-2.7,1.5c-1.8,0-2.5-1.1-2.5-3.2L340.6,4z"/>
<path class="st1" d="M349.9,4h1.1l0.1,1.5h0c0.4-1,1.3-1.6,2.4-1.7c0.3,0,0.6,0,0.9,0.2l-0.3,1.2c-0.3-0.1-0.5-0.1-0.8-0.1
	c-0.7,0-1.5,0.5-2.1,1.9v5.3h-1.4V4z"/>
<path class="st1" d="M358.8,3.8c2.1,0,3.3,1.5,3.3,3.9c0,0.3,0,0.5,0,0.8h-5.6c-0.1,1.5,1.1,2.8,2.6,2.9c0.1,0,0.1,0,0.2,0
	c0.7,0,1.4-0.2,2-0.6l0.5,0.9c-0.8,0.5-1.7,0.8-2.7,0.9c-2.2,0-4-1.6-4-4.3S356.9,3.8,358.8,3.8z M360.8,7.5c0-1.7-0.8-2.6-2-2.6
	c-1.4,0.1-2.4,1.2-2.4,2.6H360.8z"/>
<path class="st1" d="M367.7,5.2h-1.2V4.1l1.3-0.1l0.2-2.3h1.2V4h2.2v1.1h-2.2v4.6c0,1,0.3,1.6,1.3,1.6c0.3,0,0.6-0.1,0.9-0.2l0.3,1
	c-0.5,0.2-1,0.3-1.5,0.3c-1.8,0-2.4-1.1-2.4-2.8L367.7,5.2z"/>
<path class="st1" d="M376.3,3.8c2,0,3.8,1.6,3.8,4.4s-1.8,4.3-3.8,4.3s-3.8-1.6-3.8-4.3S374.3,3.8,376.3,3.8z M376.3,11.3
	c1.4,0,2.4-1.3,2.4-3.1s-1-3.2-2.4-3.2s-2.4,1.3-2.4,3.2S374.9,11.3,376.3,11.3z"/>
<path class="st1" d="M385.7,4h1.2l0.1,1.5h0c0.4-1,1.3-1.6,2.3-1.7c0.3,0,0.6,0,0.9,0.2L390,5.2c-0.3-0.1-0.5-0.1-0.8-0.1
	c-0.7,0-1.5,0.5-2.1,1.9v5.3h-1.4L385.7,4z"/>
<path class="st1" d="M394.5,3.8c2.1,0,3.3,1.5,3.3,3.9c0,0.3,0,0.5,0,0.8h-5.6c-0.1,1.5,1.1,2.8,2.6,2.9c0.1,0,0.1,0,0.2,0
	c0.7,0,1.5-0.2,2.1-0.6l0.5,0.9c-0.8,0.5-1.7,0.8-2.7,0.9c-2.2,0-4-1.6-4-4.3S392.6,3.8,394.5,3.8z M396.6,7.5c0-1.7-0.8-2.6-2-2.6
	c-1.4,0.1-2.4,1.2-2.4,2.6H396.6z"/>
<path class="st1" d="M402.8,3.8c0.9,0,1.7,0.4,2.3,1L405,3.4V0.2h1.5v12.1h-1.2l-0.1-1h0c-0.7,0.7-1.5,1.1-2.5,1.2
	c-2.1,0-3.4-1.6-3.4-4.3S400.9,3.8,402.8,3.8z M402.9,11.3c0.8,0,1.6-0.5,2.1-1.1V5.9c-0.5-0.5-1.2-0.9-2-0.9
	c-1.3,0-2.4,1.3-2.4,3.2S401.5,11.3,402.9,11.3z"/>
<path class="st1" d="M417.3,7.1c0-1.1-0.4-2.1-1.7-2.1c-0.9,0-1.7,0.3-2.5,0.9l-0.6-1c1-0.7,2.1-1,3.2-1.1c2,0,2.9,1.3,2.9,3.4v5.1
	h-1.2l-0.1-1l0,0c-0.7,0.7-1.7,1.1-2.7,1.2c-1.2,0.1-2.3-0.8-2.5-2.1c0-0.1,0-0.1,0-0.2C412.3,8.3,413.8,7.4,417.3,7.1z M415.1,11.4
	c0.9-0.1,1.7-0.5,2.3-1.1V8c-2.8,0.3-3.7,1-3.7,2.1c0,0.7,0.5,1.3,1.2,1.3C414.9,11.4,415,11.4,415.1,11.4z"/>
<path class="st1" d="M421.3,4h1.2l0.1,1.2h0c0.7-0.8,1.7-1.3,2.8-1.4c1.7,0,2.5,1.1,2.5,3.2v5.2h-1.4v-5c0-1.5-0.5-2.2-1.6-2.2
	c-0.9,0-1.4,0.4-2.3,1.3v6h-1.4V4z"/>
<path class="st1" d="M433.6,3.8c0.9,0,1.7,0.4,2.3,1l-0.1-1.4V0.2h1.4v12.1h-1.1l-0.1-1h0c-0.7,0.7-1.5,1.1-2.5,1.2
	c-2.1,0-3.4-1.6-3.4-4.3S431.7,3.8,433.6,3.8z M433.8,11.3c0.8,0,1.6-0.5,2.1-1.1V5.9c-0.5-0.5-1.2-0.9-2-0.9
	c-1.4,0-2.4,1.3-2.4,3.2S432.3,11.3,433.8,11.3z"/>
<path class="st1" d="M447.2,1.3c-0.3-0.1-0.6-0.2-0.9-0.2c-0.8,0-1.1,0.6-1.1,1.6V4h1.7v1.2h-1.7v7.1h-1.4V5.2h-1.1V4.1l1.1-0.1V2.7
	c0-1.7,0.8-2.7,2.4-2.7c0.5,0,0.9,0.1,1.4,0.3L447.2,1.3z"/>
<path class="st1" d="M452.8,7.1c0-1.1-0.4-2.1-1.7-2.1c-0.9,0-1.7,0.3-2.5,0.9l-0.6-1c1-0.7,2.1-1,3.2-1.1c2,0,2.9,1.3,2.9,3.4v5.1
	H453l-0.1-1l0,0c-0.7,0.7-1.7,1.1-2.7,1.2c-1.2,0.1-2.3-0.8-2.5-2c0-0.1,0-0.1,0-0.2C447.7,8.3,449.2,7.4,452.8,7.1z M450.5,11.4
	c0.9-0.1,1.7-0.5,2.3-1.1V8c-2.8,0.3-3.7,1-3.7,2.1c0,0.7,0.5,1.3,1.2,1.3C450.3,11.4,450.4,11.4,450.5,11.4z"/>
<path class="st1" d="M456.8,4h1.1l0.1,1.5l0,0c0.4-1,1.3-1.6,2.3-1.7c0.3,0,0.6,0,0.9,0.2L461,5.2c-0.3-0.1-0.5-0.1-0.8-0.1
	c-0.7,0-1.5,0.5-2.1,1.9v5.3h-1.4V4z"/>
<path class="st1" d="M466.1,4h1.1l0.1,1.5l0,0c0.4-1,1.3-1.6,2.4-1.7c0.3,0,0.6,0,0.9,0.2l-0.2,1.2c-0.3-0.1-0.5-0.1-0.8-0.1
	c-0.7,0-1.5,0.5-2.1,1.9v5.3h-1.4V4z"/>
<path class="st1" d="M474.9,3.8c2.1,0,3.3,1.5,3.3,3.9c0,0.3,0,0.5,0,0.8h-5.6c-0.1,1.5,1.1,2.8,2.6,2.9c0.1,0,0.1,0,0.2,0
	c0.7,0,1.4-0.2,2-0.6l0.5,0.9c-0.8,0.5-1.7,0.8-2.7,0.9c-2.2,0-4-1.6-4-4.3S473,3.8,474.9,3.8z M477,7.5c0-1.7-0.8-2.6-2-2.6
	c-1.4,0.1-2.5,1.2-2.5,2.6L477,7.5z"/>
<path class="st1" d="M483.2,3.8c0.9,0,1.7,0.4,2.3,1l-0.1-1.4V0.2h1.4v12.1h-1.2l-0.1-1h-0.1c-0.6,0.7-1.5,1.1-2.5,1.2
	c-2.1,0-3.4-1.6-3.4-4.3S481.3,3.8,483.2,3.8z M483.3,11.3c0.8,0,1.6-0.5,2.1-1.1V5.9c-0.5-0.5-1.2-0.9-2-0.9
	c-1.3,0-2.4,1.3-2.4,3.2S481.9,11.3,483.3,11.3L483.3,11.3z"/>
<path class="st1" d="M221.4,20.6h1.4v10.5c0,0.4,0.2,0.6,0.4,0.6c0.1,0,0.2,0,0.3,0l0.2,1c-0.3,0.1-0.5,0.1-0.8,0.1
	c-1.1,0-1.5-0.7-1.5-1.9V20.6z"/>
<path class="st1" d="M225.4,21.8c0.1-0.5,0.7-0.8,1.2-0.7c0.3,0.1,0.6,0.4,0.7,0.7c-0.1,0.5-0.7,0.8-1.2,0.7
	C225.8,22.4,225.5,22.1,225.4,21.8z M225.7,24.4h1.4v8.3h-1.4V24.4z"/>
<path class="st1" d="M230.4,32.3L230.4,32.3c-0.5-0.4-0.7-0.9-0.7-1.4c0-0.6,0.4-1.2,0.9-1.5v-0.1c-1.2-1-1.4-2.8-0.4-4.1
	c0.6-0.7,1.5-1.1,2.4-1.1c0.4,0,0.8,0.1,1.2,0.2h2.9v1.1h-1.7c0.4,0.5,0.7,1.1,0.7,1.7c-0.1,1.7-1.5,2.9-3.1,2.9
	c-0.4,0-0.8-0.1-1.1-0.3c-0.3,0.2-0.5,0.6-0.5,1c0,0.5,0.3,0.9,1.5,0.9h1.6c1.9,0,2.9,0.6,2.9,2c0,1.5-1.6,2.8-4.2,2.8
	c-2,0-3.4-0.8-3.4-2.2C229.3,33.5,229.7,32.7,230.4,32.3z M232.9,35.5c1.6,0,2.6-0.8,2.6-1.7s-0.6-1-1.7-1h-1.4
	c-0.4,0-0.7,0-1.1-0.1c-0.5,0.3-0.8,0.8-0.9,1.4C230.5,34.9,231.4,35.5,232.9,35.5z M234.4,27.1c0.1-1-0.6-1.8-1.6-1.9
	c-1-0.1-1.8,0.6-1.9,1.6c0,0.1,0,0.3,0,0.4c-0.1,1,0.6,1.8,1.6,1.9c1,0.1,1.8-0.6,1.9-1.6C234.4,27.4,234.4,27.3,234.4,27.1z"/>
<path class="st1" d="M238.4,20.6h1.4v3.3l-0.1,1.7c0.7-0.8,1.7-1.3,2.7-1.4c1.7,0,2.5,1.1,2.5,3.2v5.2h-1.4v-5
	c0-1.5-0.5-2.2-1.6-2.2c-0.9,0-1.4,0.4-2.3,1.3v6h-1.4L238.4,20.6z"/>
<path class="st1" d="M247.9,25.5h-1.2v-1l1.3-0.1l0.2-2.3h1.2v2.3h2.2v1.1h-2.2v4.6c0,1,0.3,1.6,1.3,1.6c0.3,0,0.6-0.1,0.9-0.2
	l0.3,1c-0.5,0.2-1,0.3-1.5,0.3c-1.8,0-2.4-1.1-2.4-2.7L247.9,25.5z"/>
<path class="st1" d="M256.5,21.8c0.1-0.5,0.7-0.8,1.2-0.7c0.3,0.1,0.6,0.4,0.7,0.7c-0.1,0.5-0.7,0.8-1.2,0.7
	C256.9,22.4,256.6,22.1,256.5,21.8z M256.8,24.4h1.4v8.3h-1.4V24.4z"/>
<path class="st1" d="M261,24.4h1.1l0.1,1.2h0c0.7-0.8,1.7-1.3,2.8-1.4c1.7,0,2.5,1.1,2.5,3.2v5.2h-1.4v-5c0-1.5-0.5-2.2-1.6-2.2
	c-0.9,0.1-1.7,0.5-2.3,1.3v6H261L261,24.4z"/>
<path class="st1" d="M273.5,30.8c0.7,0.6,1.5,1,2.4,1c1.1,0,1.6-0.6,1.6-1.3s-1-1.2-1.9-1.6c-1.2-0.4-2.5-1-2.5-2.4s1-2.3,2.8-2.3
	c0.9,0,1.8,0.3,2.6,0.9l-0.7,0.9c-0.5-0.5-1.2-0.7-1.9-0.7c-1,0-1.5,0.6-1.5,1.2s0.9,1.1,1.8,1.4c1.2,0.4,2.5,0.9,2.5,2.5
	c0,1.3-1.1,2.5-3,2.5c-1.1,0-2.2-0.4-3.1-1.1L273.5,30.8z"/>
<path class="st1" d="M283.9,24.2c2.1,0,3.3,1.5,3.3,3.9c0,0.3,0,0.5,0,0.8h-5.6c-0.1,1.5,1.1,2.8,2.6,2.9c0.1,0,0.1,0,0.2,0
	c0.7,0,1.5-0.2,2.1-0.6l0.5,0.9c-0.8,0.5-1.8,0.8-2.7,0.8c-2.2,0-4-1.6-4-4.3S282,24.2,283.9,24.2z M286,27.9c0-1.7-0.8-2.6-2-2.6
	s-2.2,1-2.4,2.6H286z"/>
<path class="st1" d="M292.2,24.2c0.9,0,1.7,0.4,2.4,1l0,0l0.1-0.8h1.1v11.7h-1.4v-2.9l0.1-1.5c-0.7,0.7-1.5,1.1-2.5,1.1
	c-2.1,0-3.4-1.6-3.4-4.3S290.3,24.2,292.2,24.2z M292.3,31.7c0.8,0,1.6-0.5,2.1-1.1v-4.3c-0.5-0.5-1.2-0.9-2-0.9
	c-1.3,0-2.4,1.3-2.4,3.2S290.9,31.7,292.3,31.7L292.3,31.7z"/>
<path class="st1" d="M298.4,24.4h1.4v5c0,1.5,0.5,2.2,1.5,2.2c0.9,0,1.4-0.4,2.2-1.4v-5.8h1.4v8.3h-1.1l-0.1-1.3l0,0
	c-0.6,0.9-1.6,1.4-2.7,1.5c-1.8,0-2.5-1.1-2.5-3.2L298.4,24.4z"/>
<path class="st1" d="M310.9,24.2c2.1,0,3.3,1.5,3.3,3.9c0,0.3,0,0.5,0,0.8h-5.6c-0.1,1.5,1.1,2.8,2.6,2.9c0.1,0,0.1,0,0.2,0
	c0.7,0,1.4-0.2,2-0.6l0.5,0.9c-0.8,0.5-1.7,0.8-2.7,0.8c-2.2,0-4-1.6-4-4.3S309,24.2,310.9,24.2z M312.9,27.9c0-1.7-0.7-2.6-2-2.6
	s-2.2,1-2.4,2.6H312.9z"/>
<path class="st1" d="M316.2,24.4h1.1l0.1,1.2h0.1c0.7-0.8,1.7-1.3,2.8-1.4c1.7,0,2.5,1.1,2.5,3.2v5.2h-1.4v-5c0-1.5-0.5-2.2-1.6-2.2
	c-0.9,0.1-1.7,0.5-2.3,1.3v6h-1.4L316.2,24.4z"/>
<path class="st1" d="M328.8,24.2c0.9,0,1.8,0.4,2.4,1l-0.7,0.9c-0.4-0.4-1-0.7-1.7-0.7c-1.5,0-2.6,1.3-2.6,3.2s1,3.2,2.5,3.2
	c0.7,0,1.4-0.3,1.9-0.8l0.6,0.9c-0.7,0.7-1.7,1.1-2.7,1.1c-2.2,0-3.9-1.6-3.9-4.3c-0.2-2.2,1.4-4.1,3.6-4.3
	C328.6,24.2,328.7,24.2,328.8,24.2z"/>
<path class="st1" d="M335.9,24.2c2.1,0,3.3,1.5,3.3,3.9c0,0.3,0,0.5,0,0.8h-5.6c-0.1,1.5,1.1,2.8,2.6,2.9c0.1,0,0.1,0,0.2,0
	c0.7,0,1.4-0.2,2-0.6l0.5,0.9c-0.8,0.5-1.8,0.8-2.7,0.8c-2.2,0-4-1.6-4-4.3S334,24.2,335.9,24.2z M338,27.9c0-1.7-0.8-2.6-2-2.6
	s-2.2,1-2.4,2.6H338z"/>
<rect x="7.4" y="188.5" class="st1" width="1.4" height="8.3"/>
</svg>
