<svg id="Layer_1" data-name="Layer 1" xmlns="http://www.w3.org/2000/svg" viewBox="0 0 30.83 45.27"><defs><style>.cls-1{fill:#00768e;stroke:#fff;stroke-miterlimit:10;}.cls-2{fill:#fff;}</style></defs><title>bule_label</title><path class="cls-1" d="M21,4A14.9,14.9,0,0,0,6.08,18.87v.07C6.08,30.4,21,48,21,48S35.92,30.4,35.92,18.94A14.92,14.92,0,0,0,21,4Zm0,21.19a6.38,6.38,0,1,1,6.38-6.38h0A6.38,6.38,0,0,1,21,25.21h0Z" transform="translate(-5.58 -3.5)"/><path class="cls-2" d="M21,25.19a6.38,6.38,0,1,1,6.38-6.38h0A6.38,6.38,0,0,1,21,25.21h0Z" transform="translate(-5.58 -3.5)"/></svg>