<?xml version="1.0" encoding="utf-8"?>
<!-- Generator: Adobe Illustrator 22.1.0, SVG Export Plug-In . SVG Version: 6.00 Build 0)  -->
<svg version="1.1" id="Layer_1" xmlns="http://www.w3.org/2000/svg" xmlns:xlink="http://www.w3.org/1999/xlink" x="0px" y="0px"
	 viewBox="0 0 30.8 45.3" style="enable-background:new 0 0 30.8 45.3;" xml:space="preserve">
<style type="text/css">
	.st0{fill:#FFFFFF;stroke:#00768E;stroke-miterlimit:10;}
	.st1{fill:#FFFFFF;}
	.st2{fill:#00768E;stroke:#00768E;stroke-miterlimit:10;}
</style>
<title>bule_label</title>
<path class="st0" d="M15.4,0.5C7.2,0.5,0.5,7.1,0.5,15.4v0.1c0,11.5,14.9,29.1,14.9,29.1s14.9-17.6,14.9-29.1
	C30.4,7.2,23.7,0.5,15.4,0.5C15.4,0.5,15.4,0.5,15.4,0.5z M15.4,21.7c-3.5,0-6.4-2.9-6.4-6.4c0-3.5,2.9-6.4,6.4-6.4
	c3.5,0,6.4,2.9,6.4,6.4l0,0l0,0C21.8,18.8,19,21.7,15.4,21.7C15.4,21.7,15.4,21.7,15.4,21.7L15.4,21.7L15.4,21.7z"/>
<path class="st1" d="M15.4,21.7c-3.5,0-6.4-2.9-6.4-6.4c0-3.5,2.9-6.4,6.4-6.4c3.5,0,6.4,2.9,6.4,6.4l0,0l0,0
	C21.8,18.8,19,21.7,15.4,21.7C15.4,21.7,15.4,21.7,15.4,21.7L15.4,21.7L15.4,21.7z"/>
<path class="st2" d="M15.4,21.7c-3.5,0-6.4-2.9-6.4-6.4c0-3.5,2.9-6.4,6.4-6.4c3.5,0,6.4,2.9,6.4,6.4l0,0l0,0
	C21.8,18.8,19,21.7,15.4,21.7C15.4,21.7,15.4,21.7,15.4,21.7L15.4,21.7L15.4,21.7z"/>
</svg>
