<?xml version="1.0" encoding="utf-8"?>
<!-- Generator: Adobe Illustrator 22.1.0, SVG Export Plug-In . SVG Version: 6.00 Build 0)  -->
<svg version="1.1" id="Layer_1" xmlns="http://www.w3.org/2000/svg" xmlns:xlink="http://www.w3.org/1999/xlink" x="0px" y="0px"
	 viewBox="0 0 364.7 348.7" style="enable-background:new 0 0 364.7 348.7;" xml:space="preserve">
<style type="text/css">
	.st0{fill:#383838;}
	.st1{fill:none;stroke:#000000;stroke-width:2;}
</style>
<title>Graphs_4</title>
<path class="st0" d="M15.2,285.6L0.9,278v-1.2l14.3,7.6V285.6z M5.2,289.1c-2.8,0-4.3-1.2-4.3-3.1s1.6-3.1,4.3-3.1s4.4,1.3,4.4,3.1
	S8,289.1,5.2,289.1L5.2,289.1z M5.2,284.2c-2.2,0-3.3,0.7-3.3,1.8s1.1,1.8,3.3,1.8s3.3-0.7,3.3-1.8S7.4,284.2,5.2,284.2L5.2,284.2z
	 M10.8,279.5c-2.8,0-4.3-1.2-4.3-3.1s1.6-3.1,4.3-3.1s4.4,1.3,4.4,3.1S13.6,279.5,10.8,279.5L10.8,279.5z M10.8,274.6
	c-2.2,0-3.3,0.7-3.3,1.8s1.1,1.8,3.3,1.8s3.3-0.8,3.3-1.8S13,274.6,10.8,274.6L10.8,274.6z"/>
<path class="st0" d="M11.9,266.4c1.1-1,1.7-2.4,1.7-3.8c0-1.8-0.9-2.9-2.3-2.9s-1.9,1-2.4,2.3l-0.9,2c-0.5,1.3-1.5,2.8-3.5,2.8
	s-3.7-1.9-3.7-4.4c0-1.5,0.6-3,1.7-4l1.1,0.9c-0.8,0.8-1.3,2-1.3,3.1c0,1.5,0.8,2.6,2,2.6s1.8-1.2,2.3-2.3l0.8-2
	c0.7-1.6,1.6-2.8,3.7-2.8c2.2,0,3.9,1.8,3.9,4.7c0,1.8-0.7,3.5-2,4.8L11.9,266.4z"/>
<path class="st0" d="M4.7,255.6v-1.7H11c1.9,0,2.7-0.6,2.7-1.9c0-1-0.5-1.8-1.7-2.8H4.7v-1.7h10.2v1.5l-1.6,0.1v0.1
	c1.1,0.8,1.8,2,1.9,3.4c0,2.2-1.4,3.1-4,3.1L4.7,255.6z"/>
<path class="st0" d="M0,244.1v-1.7h4.1h1.9c-0.8-0.8-1.3-2-1.4-3.2c0-2.6,2-4,5.2-4c3.5,0,5.5,2.1,5.5,4.4c-0.1,1.1-0.5,2.1-1.3,2.9
	v0.1l1,0.1v1.4L0,244.1z M13.8,239.9c0-1.7-1.5-2.9-4.1-2.9c-2.3,0-3.8,0.8-3.8,2.7c0.1,1.1,0.6,2,1.4,2.7h5.4
	C13.3,241.7,13.7,240.8,13.8,239.9z"/>
<path class="st0" d="M12.6,232.7c0.8-0.8,1.2-1.9,1.2-3c0-1.4-0.7-2-1.6-2c-1,0-1.5,1.2-1.9,2.3c-0.5,1.4-1.2,3.1-2.9,3.1
	s-2.9-1.3-2.9-3.5c0-1.2,0.4-2.3,1.2-3.2l1.1,0.8c-0.6,0.7-0.9,1.5-0.9,2.3c0,1.3,0.7,1.9,1.5,1.9c0.9,0,1.3-1.1,1.8-2.3
	c0.5-1.5,1.1-3.1,3.1-3.1c1.6,0,3,1.3,3,3.7c0,1.4-0.5,2.7-1.4,3.8L12.6,232.7z"/>
<path class="st0" d="M6.1,223.3v1.5H4.8l-0.1-1.6L1.9,223v-1.4h2.9v-2.8h1.4v2.8h5.7c1.3,0,2-0.4,2-1.6c0-0.4-0.1-0.8-0.3-1.2
	l1.3-0.3c0.2,0.6,0.4,1.2,0.4,1.9c0,2.2-1.4,2.9-3.4,2.9L6.1,223.3z"/>
<path class="st0" d="M4.7,216.5v-1.4l1.9-0.1v-0.1c-1.2-0.5-2-1.6-2.1-2.9c0-0.4,0.1-0.7,0.2-1.1l1.5,0.3c-0.1,0.3-0.2,0.7-0.2,1
	c0,0.9,0.6,1.9,2.3,2.6h6.5v1.7L4.7,216.5z"/>
<path class="st0" d="M8.5,204c-1.3,0-2.6,0.4-2.6,2.1c0.1,1.1,0.4,2.1,1.1,3l-1.2,0.7c-0.8-1.2-1.3-2.6-1.3-4c0-2.5,1.7-3.6,4.2-3.6
	H15v1.4l-1.2,0.1l0,0c0.9,0.9,1.4,2.1,1.5,3.4c0.1,1.5-1,2.9-2.5,3c-0.1,0-0.2,0-0.4,0C10.1,210.3,9,208.3,8.5,204z M13.8,206.8
	c-0.1-1.1-0.5-2.1-1.3-2.8H9.6c0.4,3.4,1.3,4.6,2.6,4.6C13.3,208.6,13.8,207.8,13.8,206.8L13.8,206.8z"/>
<path class="st0" d="M6.1,198.7v1.5H4.8l-0.1-1.6l-2.9-0.2V197h2.9v-2.8h1.4v2.8h5.7c1.3,0,2-0.4,2-1.6c0-0.4-0.1-0.8-0.3-1.1
	l1.3-0.3c0.2,0.6,0.4,1.2,0.4,1.9c0,2.2-1.4,2.9-3.4,2.9L6.1,198.7z"/>
<path class="st0" d="M4.5,188.3c0-2.6,1.9-4.1,4.8-4.1c0.3,0,0.6,0,0.9,0.1v6.9c2.2-0.1,3.6-1.4,3.6-3.4c0-0.9-0.3-1.8-0.8-2.5
	l1.1-0.6c0.7,1,1,2.2,1,3.4c0,2.7-2,4.9-5.3,4.9S4.5,190.6,4.5,188.3z M9.1,185.7c-2.1,0-3.2,0.9-3.2,2.5c0,1.4,1.2,2.7,3.2,2.9
	V185.7z"/>
<path class="st0" d="M0,166.5v-1.7h13c0.5,0,0.8-0.2,0.8-0.5c0-0.1,0-0.3,0-0.4l1.3-0.2c0.1,0.3,0.2,0.7,0.2,1
	c0,1.3-0.8,1.8-2.3,1.8L0,166.5z"/>
<path class="st0" d="M4.5,157.3c0-2.6,1.9-4.1,4.8-4.1c0.3,0,0.6,0,0.9,0.1v6.9c2.2-0.1,3.6-1.4,3.6-3.4c0-0.9-0.3-1.8-0.8-2.5
	l1.1-0.6c0.7,1,1,2.2,1,3.4c0,2.7-2,4.9-5.3,4.9S4.5,159.6,4.5,157.3z M9.1,154.7c-2.1,0-3.2,0.9-3.2,2.5c0,1.4,1.2,2.7,3.2,2.9
	V154.7z"/>
<path class="st0" d="M4.7,152.1v-1.8l5.8-1.9c1-0.3,2-0.6,3-1v-0.1c-1-0.3-2-0.6-3-0.9l-5.8-1.9v-1.7l10.2,3.6v2L4.7,152.1z"/>
<path class="st0" d="M4.5,137c0-2.6,1.9-4.1,4.8-4.1c0.3,0,0.6,0,0.9,0.1v6.9c2.2-0.1,3.6-1.4,3.6-3.4c0-0.9-0.3-1.8-0.8-2.5
	l1.1-0.6c0.7,1,1,2.2,1,3.4c0,2.7-2,4.9-5.3,4.9S4.5,139.4,4.5,137z M9.1,134.4c-2.1,0-3.2,0.9-3.2,2.5c0,1.4,1.2,2.7,3.2,2.9V134.4
	z"/>
<path class="st0" d="M0,130.4v-1.7h13c0.5,0,0.8-0.2,0.8-0.5c0-0.1,0-0.3,0-0.4l1.3-0.2c0.1,0.3,0.2,0.7,0.2,1
	c0,1.3-0.8,1.8-2.3,1.8L0,130.4z"/>
<path class="st0" d="M14.6,120.1h-0.1c-0.4,0.6-1,0.9-1.7,0.9c-0.8,0-1.5-0.5-1.9-1.1h-0.1c-1.3,1.5-3.5,1.7-5.1,0.5
	c-0.9-0.7-1.4-1.8-1.3-3c0-0.5,0.1-1,0.3-1.4v-3.6h1.3v2.1c0.6-0.5,1.3-0.8,2.1-0.8c1.9,0,3.5,1.5,3.5,3.5c0,0.1,0,0.2,0,0.3
	c0,0.5-0.1,1.1-0.4,1.5c0.3,0.4,0.7,0.6,1.2,0.6c0.6,0,1.1-0.4,1.1-1.8v-2c0-2.4,0.7-3.6,2.4-3.6c1.9,0,3.5,2,3.5,5.2
	c0,2.5-1,4.2-2.8,4.2C15.9,121.5,15.1,121,14.6,120.1z M8.1,115.2c-1.2-0.1-2.2,0.8-2.3,2c-0.1,1.2,0.8,2.2,2,2.3c0.1,0,0.2,0,0.3,0
	c1.2,0.1,2.3-0.7,2.4-1.9s-0.7-2.3-1.9-2.4C8.5,115.2,8.3,115.2,8.1,115.2z M18.5,117.1c0-2-1-3.2-2.1-3.2s-1.3,0.7-1.3,2.1v1.8
	c0,0.4-0.1,0.9-0.2,1.3c0.4,0.6,1,1,1.7,1.1C17.8,120.1,18.5,119,18.5,117.1z"/>
<path class="st0" d="M4.5,106.7c0-2.6,1.9-4.1,4.8-4.1c0.3,0,0.6,0,0.9,0.1v6.9c2.2-0.1,3.6-1.4,3.6-3.4c0-0.9-0.3-1.8-0.8-2.5
	l1.1-0.6c0.7,1,1,2.2,1,3.4c0,2.7-2,4.9-5.3,4.9S4.5,109.1,4.5,106.7z M9.1,104.2c-2.1,0-3.2,0.9-3.2,2.5c0,1.4,1.2,2.7,3.2,2.9
	V104.2z"/>
<path class="st0" d="M4.7,100.1v-1.4l1.9-0.2v-0.1c-1.2-0.5-2-1.6-2.1-2.9c0-0.4,0.1-0.7,0.2-1.1l1.5,0.3c-0.1,0.3-0.2,0.7-0.2,1
	c0,0.9,0.6,1.9,2.3,2.6h6.5v1.7L4.7,100.1z"/>
<path class="st0" d="M4.7,92.9v-1.4l1.5-0.2v-0.1c-1-0.8-1.6-1.9-1.7-3.2c-0.1-1.3,0.7-2.5,2-2.8c-1.1-1.1-1.9-2.1-1.9-3.4
	c0-2.1,1.4-3.1,4-3.1H15v1.7H8.7c-1.9,0-2.7,0.6-2.7,1.9c0.1,1,0.7,2,1.6,2.6h7.4v1.7H8.7c-1.9,0-2.7,0.6-2.7,1.9
	c0.2,1,0.7,2,1.6,2.6h7.4v1.7H4.7z"/>
<path class="st0" d="M1.5,75.8c-0.7-0.1-1.1-0.6-1.1-1.3c0.1-0.6,0.5-1,1.1-1.1c0.7,0.1,1.1,0.6,1.1,1.3C2.5,75.3,2.1,75.7,1.5,75.8
	z M4.7,75.5v-1.7h10.2v1.7H4.7z"/>
<path class="st0" d="M4.7,70.3v-1.4l1.5-0.2v-0.1c-1-0.9-1.6-2.1-1.7-3.4c0-2.1,1.4-3.1,4-3.1H15v1.7H8.7c-1.9,0-2.7,0.6-2.7,1.9
	c0,1,0.5,1.8,1.6,2.8h7.4v1.7L4.7,70.3z"/>
<path class="st0" d="M8.5,53c-1.3,0-2.6,0.4-2.6,2.1c0.1,1.1,0.4,2.1,1.1,3l-1.2,0.7c-0.8-1.2-1.3-2.6-1.3-4c0-2.5,1.7-3.6,4.2-3.6
	H15v1.4l-1.2,0.2l0,0c0.9,0.9,1.4,2.1,1.5,3.4c0.1,1.5-1,2.9-2.5,3c-0.1,0-0.2,0-0.4,0C10.1,59.3,9,57.4,8.5,53z M13.8,55.8
	c-0.1-1.1-0.5-2.1-1.3-2.8H9.6c0.4,3.4,1.3,4.6,2.6,4.6c0.9,0,1.6-0.6,1.6-1.5C13.8,56,13.8,55.9,13.8,55.8L13.8,55.8z"/>
<path class="st0" d="M6.1,47.8v1.5H4.8l-0.1-1.6l-2.9-0.2V46h2.9v-2.7h1.4V46h5.7c1.3,0,2-0.4,2-1.6c0-0.4-0.2-0.8-0.3-1.1l1.3-0.3
	c0.2,0.6,0.4,1.2,0.4,1.9c0,2.2-1.4,2.9-3.4,2.9H6.1z"/>
<path class="st0" d="M1.5,41.3c-0.7,0-1.2-0.4-1.3-1.1c0-0.7,0.4-1.2,1.1-1.3c0.7,0,1.2,0.4,1.3,1.1c0,0,0,0.1,0,0.1
	C2.6,40.7,2.2,41.2,1.5,41.3C1.5,41.3,1.5,41.3,1.5,41.3z M4.7,41v-1.8h10.2V41H4.7z"/>
<path class="st0" d="M4.5,31.8c0-2.5,1.9-4.7,5.4-4.7s5.3,2.2,5.3,4.7s-2,4.7-5.3,4.7S4.5,34.3,4.5,31.8z M13.8,31.8
	c0-1.8-1.6-2.9-3.9-2.9s-3.9,1.2-3.9,2.9s1.6,2.9,3.9,2.9S13.8,33.6,13.8,31.8z"/>
<path class="st0" d="M4.7,24.4V23l1.5-0.2v-0.1c-1-0.9-1.7-2.1-1.7-3.4c0-2.1,1.4-3.1,4-3.1H15V18H8.7C6.8,18,6,18.6,6,19.9
	c0,1,0.5,1.8,1.6,2.8h7.4v1.7H4.7z"/>
<path class="st0" d="M363.2,320.7l-1.3-2.2c-0.5-0.9-0.9-1.4-1.2-2l0,0c-0.3,0.6-0.6,1.1-1.1,2l-1.2,2.2h-1.5l3.1-5.1l-3-5h1.5
	l1.3,2.4c0.4,0.7,0.7,1.2,0.9,1.7l0,0c0.3-0.6,0.5-1.1,0.9-1.7l1.4-2.4h1.5l-3.1,4.9l3.1,5.2H363.2z"/>
<path class="st0" d="M71.8,341c1,1.1,2.4,1.7,3.8,1.7c1.8,0,2.9-0.9,2.9-2.2s-1-1.9-2.3-2.4l-2-0.9c-1.3-0.5-2.8-1.5-2.8-3.5
	s1.8-3.6,4.3-3.6c1.5,0,3,0.6,4.1,1.7l-0.9,1.1c-0.8-0.8-2-1.3-3.1-1.3c-1.6,0-2.6,0.8-2.6,2s1.2,1.8,2.3,2.3l2,0.8
	c1.6,0.7,2.8,1.6,2.8,3.7s-1.8,3.9-4.7,3.9c-1.8,0-3.5-0.7-4.8-2L71.8,341z"/>
<path class="st0" d="M86.5,333.5c2.6,0,4.1,1.9,4.1,4.8c0,0.3,0,0.6-0.1,0.9h-6.9c0.1,2.2,1.4,3.6,3.4,3.6c0.9,0,1.8-0.3,2.6-0.8
	l0.6,1.1c-1,0.7-2.2,1-3.4,1c-2.7,0-4.9-2-4.9-5.3S84.2,333.5,86.5,333.5z M89.1,338.1c0-2.1-0.9-3.2-2.5-3.2
	c-1.4,0-2.7,1.2-2.9,3.2H89.1z"/>
<path class="st0" d="M96.8,333.5c1.1,0,2.1,0.4,2.9,1.2l0,0l0.2-1h1.4v14.5h-1.7v-3.6l0.1-1.8c-0.8,0.8-1.9,1.3-3.1,1.4
	c-2.6,0-4.2-1.9-4.2-5.3S94.5,333.5,96.8,333.5z M97,342.8c1-0.1,2-0.6,2.6-1.4V336c-0.7-0.7-1.5-1.1-2.5-1.1
	c-1.6,0-2.9,1.6-2.9,3.9S95.2,342.8,97,342.8L97,342.8z"/>
<path class="st0" d="M104.5,333.8h1.7v6.2c0,1.9,0.6,2.7,1.9,2.7c1,0,1.8-0.5,2.8-1.7v-7.2h1.7V344h-1.4l-0.1-1.6H111
	c-0.8,1.1-2,1.8-3.3,1.9c-2.2,0-3.1-1.4-3.1-4L104.5,333.8z"/>
<path class="st0" d="M119.9,333.5c2.6,0,4.1,1.9,4.1,4.8c0,0.3,0,0.6-0.1,0.9h-6.9c0.1,2.2,1.4,3.6,3.4,3.6c0.9,0,1.8-0.3,2.5-0.8
	l0.6,1.1c-1,0.7-2.2,1-3.4,1c-2.7,0-4.9-2-4.9-5.3S117.6,333.5,119.9,333.5z M122.5,338.1c0-2.1-0.9-3.2-2.5-3.2
	c-1.4,0-2.7,1.2-2.9,3.2H122.5z"/>
<path class="st0" d="M126.5,333.8h1.4l0.2,1.5h0.1c0.9-1,2.1-1.6,3.4-1.7c2.1,0,3.1,1.4,3.1,4v6.5h-1.7v-6.2c0-1.9-0.6-2.7-1.9-2.7
	c-1.1,0-1.8,0.5-2.8,1.6v7.4h-1.7V333.8z"/>
<path class="st0" d="M142.2,333.5c1.1,0,2.2,0.4,3,1.2l-0.9,1.1c-0.6-0.5-1.3-0.9-2.1-0.9c-1.9,0-3.2,1.6-3.2,3.9s1.3,3.9,3.1,3.9
	c0.9,0,1.7-0.4,2.4-1l0.8,1.1c-0.9,0.8-2.1,1.3-3.3,1.3c-2.7,0-4.8-2-4.8-5.3S139.5,333.5,142.2,333.5z"/>
<path class="st0" d="M151,333.5c2.6,0,4.1,1.9,4.1,4.8c0,0.3,0,0.6-0.1,0.9h-6.9c0.1,2.2,1.4,3.6,3.4,3.6c0.9,0,1.8-0.3,2.5-0.8
	l0.6,1.1c-1,0.7-2.2,1-3.4,1c-2.7,0-4.9-2-4.9-5.3S148.6,333.5,151,333.5z M153.5,338.1c0-2.1-0.9-3.2-2.5-3.2
	c-1.4,0-2.7,1.2-2.9,3.2H153.5z"/>
<path class="st0" d="M165.8,333.5c2.5,0,4.7,2,4.7,5.4s-2.2,5.3-4.7,5.3s-4.7-2-4.7-5.3S163.3,333.5,165.8,333.5z M165.8,342.8
	c1.8,0,2.9-1.6,2.9-3.9s-1.2-3.9-2.9-3.9s-2.9,1.6-2.9,3.9S164,342.8,165.8,342.8z"/>
<path class="st0" d="M177.8,330.4c-0.4-0.2-0.8-0.2-1.1-0.3c-1,0-1.4,0.7-1.4,2v1.6h2.2v1.4h-2.2v8.8h-1.7v-8.8h-1.4v-1.3l1.4-0.1
	v-1.6c0-2.1,0.9-3.4,3-3.4c0.6,0,1.2,0.1,1.7,0.3L177.8,330.4z"/>
<path class="st0" d="M183.6,329h1.7v13c0,0.5,0.2,0.8,0.5,0.8c0.1,0,0.3,0,0.4,0l0.2,1.3c-0.3,0.1-0.7,0.2-1,0.2
	c-1.3,0-1.8-0.8-1.8-2.3L183.6,329z"/>
<path class="st0" d="M188.6,330.5c0.1-0.7,0.6-1.1,1.3-1.1c0.6,0.1,1,0.5,1.1,1.1c-0.1,0.7-0.6,1.1-1.3,1.1
	C189.1,331.6,188.7,331.1,188.6,330.5z M188.9,333.8h1.7V344h-1.7V333.8z"/>
<path class="st0" d="M194.8,343.6L194.8,343.6c-0.6-0.4-0.9-1.1-0.9-1.7c0-0.8,0.5-1.5,1.1-1.9v-0.1c-1.5-1.3-1.8-3.5-0.5-5.1
	c0.7-0.9,1.9-1.4,3-1.3c0.5,0,1,0.1,1.4,0.3h3.5v1.3h-2.1c0.5,0.6,0.8,1.3,0.8,2.1c0,1.9-1.5,3.5-3.4,3.6c-0.1,0-0.2,0-0.3,0
	c-0.5,0-1.1-0.1-1.5-0.4c-0.4,0.3-0.6,0.7-0.6,1.2c0,0.6,0.4,1.1,1.8,1.1h2c2.4,0,3.6,0.7,3.6,2.4c0,1.9-2,3.5-5.2,3.5
	c-2.5,0-4.2-1-4.2-2.8C193.4,345,193.9,344.1,194.8,343.6z M197.8,347.5c2,0,3.2-1,3.2-2.1s-0.7-1.3-2.1-1.3h-1.8
	c-0.4,0-0.9-0.1-1.3-0.2c-0.6,0.4-1,1-1.1,1.7C194.8,346.8,195.9,347.5,197.8,347.5L197.8,347.5z M199.7,337.1
	c0.1-1.2-0.8-2.3-2-2.4c-1.2-0.1-2.3,0.8-2.4,2c0,0.1,0,0.3,0,0.4c-0.2,1.2,0.7,2.3,1.9,2.5c1.2,0.2,2.3-0.7,2.5-1.9
	C199.7,337.5,199.7,337.3,199.7,337.1z"/>
<path class="st0" d="M204.7,329h1.7v4.1l-0.1,2.1c0.9-1,2.1-1.6,3.4-1.7c2.1,0,3.1,1.4,3.1,4v6.5h-1.7v-6.2c0-1.9-0.6-2.7-1.9-2.7
	c-1.1,0-1.8,0.5-2.8,1.6v7.4h-1.7V329z"/>
<path class="st0" d="M216.4,335.2h-1.5v-1.3l1.6-0.1l0.2-2.9h1.4v2.9h2.8v1.4h-2.8v5.7c0,1.3,0.4,2,1.6,2c0.4,0,0.8-0.1,1.1-0.3
	l0.3,1.3c-0.6,0.2-1.2,0.4-1.9,0.4c-2.2,0-2.9-1.4-2.9-3.4V335.2z"/>
<path class="st0" d="M231.3,333.5c2.6,0,4.1,1.9,4.1,4.8c0,0.3,0,0.6-0.1,0.9h-6.9c0.1,2.2,1.4,3.6,3.4,3.6c0.9,0,1.8-0.3,2.5-0.8
	l0.6,1.1c-1,0.7-2.2,1-3.4,1c-2.7,0-4.9-2-4.9-5.3S228.9,333.5,231.3,333.5z M233.8,338.1c0-2.1-0.9-3.2-2.5-3.2
	c-1.4,0-2.7,1.2-2.9,3.2H233.8z"/>
<path class="st0" d="M239.6,338.6l-3.1-4.9h1.9l1.4,2.3c0.3,0.5,0.6,1.1,1,1.7h0.1c0.3-0.6,0.6-1.2,0.9-1.7l1.2-2.3h1.8l-3.1,5.1
	l3.3,5.1h-1.9l-1.5-2.4c-0.4-0.6-0.7-1.2-1.1-1.8h0c-0.4,0.6-0.7,1.2-1,1.8l-1.4,2.4h-1.8L239.6,338.6z"/>
<path class="st0" d="M248.8,344.8v3.4h-1.7v-14.5h1.4l0.1,1.2h0.1c0.9-0.8,2-1.3,3.3-1.4c2.6,0,4,2,4,5.2c0,3.5-2.1,5.5-4.4,5.5
	c-1-0.1-2-0.5-2.8-1.2L248.8,344.8z M251.3,342.8c1.7,0,2.9-1.5,2.9-4c0-2.3-0.8-3.8-2.7-3.8c-1,0.1-2,0.6-2.7,1.4v5.4
	C249.5,342.4,250.4,342.7,251.3,342.8z"/>
<path class="st0" d="M262.7,333.5c2.5,0,4.7,2,4.7,5.4s-2.2,5.3-4.7,5.3s-4.7-2-4.7-5.3S260.2,333.5,262.7,333.5z M262.7,342.8
	c1.8,0,2.9-1.6,2.9-3.9s-1.2-3.9-2.9-3.9s-2.9,1.6-2.9,3.9S260.9,342.8,262.7,342.8z"/>
<path class="st0" d="M269.8,341.7c0.8,0.8,1.9,1.2,3,1.2c1.3,0,2-0.7,2-1.6c0-1-1.2-1.5-2.3-1.9c-1.5-0.5-3-1.2-3-2.9
	s1.3-2.9,3.5-2.9c1.2,0,2.3,0.4,3.2,1.1l-0.8,1.1c-0.6-0.6-1.5-0.9-2.3-0.9c-1.3,0-1.9,0.7-1.9,1.5c0,1,1.1,1.3,2.3,1.8
	c1.5,0.5,3.1,1.1,3.1,3.1c0,1.7-1.3,3-3.7,3c-1.4,0-2.7-0.5-3.8-1.4L269.8,341.7z"/>
<path class="st0" d="M278.8,333.8h1.7v6.2c0,1.9,0.6,2.7,1.9,2.7c1,0,1.8-0.5,2.8-1.7v-7.2h1.7V344h-1.4l-0.1-1.6h-0.1
	c-0.8,1.1-2,1.8-3.4,1.9c-2.2,0-3.1-1.4-3.1-4L278.8,333.8z"/>
<path class="st0" d="M290.3,333.8h1.4l0.1,1.9h0.1c0.5-1.2,1.6-2,2.9-2.1c0.4,0,0.7,0.1,1.1,0.2l-0.3,1.5c-0.3-0.1-0.7-0.2-1-0.2
	c-0.9,0-1.9,0.6-2.6,2.4v6.6h-1.7L290.3,333.8z"/>
<path class="st0" d="M301.2,333.5c2.6,0,4.1,1.9,4.1,4.8c0,0.3,0,0.6-0.1,0.9h-6.9c0.1,2.2,1.5,3.6,3.4,3.6c0.9,0,1.8-0.3,2.5-0.8
	l0.6,1.1c-1,0.7-2.2,1-3.4,1c-2.7,0-4.9-2-4.9-5.3S298.9,333.5,301.2,333.5z M303.8,338.1c0-2.1-0.9-3.2-2.5-3.2
	c-1.4,0-2.7,1.2-2.9,3.2H303.8z"/>
<g id="xy">
	<line class="st1" x1="28.5" y1="316" x2="344.5" y2="316"/>
	<line class="st1" x1="29.2" y1="316" x2="29.2" y2="0"/>
</g>
<rect x="8.7" y="170.7" class="st0" width="1.8" height="10.2"/>
</svg>
