<svg id="Layer_1" data-name="Layer 1" xmlns="http://www.w3.org/2000/svg" viewBox="0 0 261.13 222.38"><defs><style>.cls-1{fill:#eae6e4;}.cls-2,.cls-3{fill:none;}.cls-2{stroke:#fff;stroke-width:0.5px;}.cls-3{stroke:#cbc1bf;}.cls-4{fill:#f05b66;}.cls-5{fill:#fff;opacity:0.5;isolation:isolate;}.cls-6{fill:#6893cc;}.cls-7{fill:#231f20;}</style></defs><title>Practice_Exercise_4</title><g id="Layer_1-2" data-name="Layer 1"><g id="Layer_1-2-2" data-name="Layer 1-2"><polygon class="cls-1" points="261.13 199.39 24.52 199.39 24.62 0 261.13 0 261.13 199.39"/><line class="cls-2" x1="24.01" y1="171.61" x2="261.13" y2="171.61"/><line class="cls-2" x1="24.01" y1="88.62" x2="261.13" y2="88.62"/><line class="cls-2" x1="24.01" y1="143.95" x2="261.13" y2="143.95"/><line class="cls-2" x1="24.01" y1="116.28" x2="261.13" y2="116.28"/><line class="cls-2" x1="24.01" y1="60.95" x2="261.13" y2="60.95"/><line class="cls-2" x1="24.01" y1="33.29" x2="261.13" y2="33.29"/><line class="cls-2" x1="24.01" y1="5.62" x2="261.13" y2="5.62"/><polyline class="cls-3" points="261.13 199.67 24.74 199.67 24.74 0.07"/><rect class="cls-4" x="27.05" y="168.41" width="3.29" height="31.25"/><rect class="cls-4" x="33.73" y="149.67" width="3.29" height="50"/><rect class="cls-4" x="47.1" y="135.72" width="3.29" height="63.95"/><rect class="cls-4" x="60.47" y="19.94" width="3.29" height="179.73"/><rect class="cls-5" x="209.94" y="14.16" width="40.82" height="23.07"/><rect class="cls-4" x="213.18" y="17.89" width="5" height="5"/><rect class="cls-6" x="213.18" y="27.06" width="5" height="5"/><rect class="cls-4" x="40.41" y="151.96" width="3.29" height="47.71"/><rect class="cls-6" x="40.41" y="197.01" width="3.29" height="2.66"/><rect class="cls-4" x="53.78" y="83.03" width="3.29" height="116.63"/><rect class="cls-6" x="53.78" y="197.01" width="3.29" height="2.66"/><rect class="cls-4" x="67.15" y="13.69" width="3.29" height="185.98"/><rect class="cls-6" x="67.15" y="197.01" width="3.29" height="2.66"/><rect class="cls-6" x="133.99" y="116.42" width="3.29" height="83.25"/><rect class="cls-6" x="140.67" y="78.32" width="3.29" height="121.35"/><rect class="cls-6" x="147.36" y="96.85" width="3.29" height="102.82"/><rect class="cls-6" x="154.04" y="129.75" width="3.29" height="69.92"/><rect class="cls-6" x="160.72" y="152.24" width="3.29" height="47.43"/><rect class="cls-6" x="167.41" y="140.99" width="3.29" height="58.67"/><rect class="cls-6" x="174.09" y="144.74" width="3.29" height="54.92"/><rect class="cls-6" x="180.78" y="157.24" width="3.29" height="42.43"/><rect class="cls-6" x="187.46" y="170.98" width="3.29" height="28.69"/><rect class="cls-6" x="194.14" y="184.1" width="3.29" height="15.57"/><rect class="cls-6" x="214.2" y="195.14" width="3.29" height="4.53"/><rect class="cls-6" x="220.88" y="195.14" width="3.29" height="4.53"/><rect class="cls-6" x="247.62" y="195.97" width="3.29" height="3.7"/><rect class="cls-6" x="234.25" y="193.05" width="3.29" height="6.61"/><rect class="cls-4" x="73.83" y="46.39" width="3.29" height="153.28"/><rect class="cls-6" x="73.83" y="191.63" width="3.29" height="8"/><rect class="cls-4" x="80.52" y="91.36" width="3.29" height="108.24"/><rect class="cls-6" x="80.52" y="191.01" width="3.29" height="8.62"/><rect class="cls-4" x="87.2" y="101.78" width="3.29" height="97.89"/><rect class="cls-6" x="87.2" y="183.72" width="3.29" height="15.91"/><rect class="cls-4" x="93.89" y="113.02" width="3.29" height="86.65"/><rect class="cls-6" x="93.89" y="174.56" width="3.29" height="25.07"/><rect class="cls-6" x="100.57" y="144.33" width="3.29" height="55.34"/><rect class="cls-4" x="100.57" y="175.28" width="3.29" height="24.38"/><rect class="cls-6" x="107.25" y="92.27" width="3.29" height="107.4"/><rect class="cls-4" x="107.25" y="167.37" width="3.29" height="32.3"/><rect class="cls-6" x="113.94" y="89.14" width="3.29" height="110.52"/><rect class="cls-4" x="113.94" y="189.03" width="3.29" height="10.64"/><rect class="cls-6" x="120.62" y="129.96" width="3.29" height="69.71"/><rect class="cls-4" x="120.62" y="191.94" width="3.29" height="7.72"/><rect class="cls-6" x="127.31" y="83.73" width="3.29" height="115.94"/><rect class="cls-4" x="127.31" y="194.44" width="3.29" height="5.23"/><path class="cls-7" d="M6.4,147.21H1v-1.12l2.31-1.39a15.38,15.38,0,0,1,1.81-.92h0c-.72.06-1.42.08-2.24.08H1V143H6.4v1L4,145.34a18.46,18.46,0,0,1-1.86,1H6.39Z" transform="translate(-0.63 -5.33)"/><path class="cls-7" d="M5.23,138.34H6.4v.86H5.81a1.39,1.39,0,0,1,.68,1.25c0,.71-.43,1.36-1.7,1.36H2.51v-1H4.65c.65,0,1.07-.21,1.07-.73a.79.79,0,0,0-.53-.75,1.59,1.59,0,0,0-.3-.06H2.51v-1Z" transform="translate(-0.63 -5.33)"/><path class="cls-7" d="M3.65,137.34H2.53v-.76H3.1a1.37,1.37,0,0,1-.66-1.2,1.13,1.13,0,0,1,.72-1.08h0a1.72,1.72,0,0,1-.49-.48,1.48,1.48,0,0,1-.23-.79c0-.64.44-1.3,1.68-1.3h2.3v1H4.25c-.65,0-1,.23-1,.7a.74.74,0,0,0,.52.68.86.86,0,0,0,.32,0H6.43v1H4.14c-.54,0-.92.22-.92.67a.77.77,0,0,0,.56.71.86.86,0,0,0,.32,0H6.4v1Z" transform="translate(-0.63 -5.33)"/><path class="cls-7" d="M6.4,130.53H.65v-1H3a1.45,1.45,0,0,1-.62-1.25c0-1,.79-1.63,2-1.62a1.87,1.87,0,0,1,2.11,1.61.15.15,0,0,1,0,.07v.14a1.33,1.33,0,0,1-.67,1.23h0l.58,0Zm-1.61-1H5a.88.88,0,0,0,.69-.87c0-.62-.49-1-1.28-1s-1.25.33-1.25,1a.94.94,0,0,0,.72.87Z" transform="translate(-0.63 -5.33)"/><path class="cls-7" d="M4.73,125.13a1,1,0,0,0,1-1s0-.07,0-.11v-.09a2.82,2.82,0,0,0-.18-1.08l.68-.14a3.49,3.49,0,0,1,.24,1.36,1.85,1.85,0,0,1-1.67,2H4.47a1.94,1.94,0,0,1-2.08-1.73v-.15a1.69,1.69,0,0,1,1.74-1.64h.61ZM4,123.42a.84.84,0,0,0-.94.7v.11a1,1,0,0,0,1,.9Z" transform="translate(-0.63 -5.33)"/><path class="cls-7" d="M3.76,121.7H2.51v-.85h.74a1.19,1.19,0,0,1-.83-1.06v-.23h.93a1.4,1.4,0,0,0,0,.29.88.88,0,0,0,.74.88h2.3v1Z" transform="translate(-0.63 -5.33)"/><path class="cls-7" d="M4.42,113.53a1.93,1.93,0,0,1,2.07,1.8h0a.74.74,0,0,1,0,.21,1.88,1.88,0,0,1-1.73,2H4.49a1.91,1.91,0,0,1-2.05-1.74h0a1,1,0,0,1,0-.25,1.88,1.88,0,0,1,1.73-2Zm0,2.94c.75,0,1.32-.37,1.32-1s-.56-1-1.34-1c-.61,0-1.3.27-1.3.94s.71,1,1.36,1Z" transform="translate(-0.63 -5.33)"/><path class="cls-7" d="M6.4,112.53H3.24v.53H2.51v-.53H2.34A1.8,1.8,0,0,1,1,112.06a1.54,1.54,0,0,1-.38-1,2,2,0,0,1,.1-.64l.76.08a1.14,1.14,0,0,0-.07.41c0,.49.41.66.89.66h.2v-.86h.73v.85H6.4Z" transform="translate(-0.63 -5.33)"/><path class="cls-7" d="M1.42,107.43A.53.53,0,0,1,2,108H2a.54.54,0,0,1-1.07.15V108a.54.54,0,0,1,.5-.56Zm5,1H2.51v-1H6.4Z" transform="translate(-0.63 -5.33)"/><path class="cls-7" d="M3.65,106.43H2.53v-.86l.58,0h0a1.43,1.43,0,0,1-.67-1.24c0-.68.44-1.39,1.67-1.39H6.42v1H4.22c-.56,0-1,.2-1,.74a.85.85,0,0,0,.57.77.86.86,0,0,0,.32,0H6.4v1Z" transform="translate(-0.63 -5.33)"/><path class="cls-7" d="M.65,98.26H6.33v.88H5.71a1.37,1.37,0,0,1,.71,1.27,1.79,1.79,0,0,1-1.88,1.67H4.45a1.84,1.84,0,0,1-2.06-1.59h0v-.14a1.24,1.24,0,0,1,.51-1.1H.65Zm3.41,1H3.8a.87.87,0,0,0-.69.85c0,.63.56,1,1.28,1s1.24-.35,1.24-1a.86.86,0,0,0-.7-.85Z" transform="translate(-0.63 -5.33)"/><path class="cls-7" d="M1.42,96.16a.52.52,0,0,1,.53.51H2a.54.54,0,0,1-.56.52h0a.54.54,0,0,1-.52-.56h0A.56.56,0,0,1,1.42,96.16Zm5,1H2.51v-1H6.4Z" transform="translate(-0.63 -5.33)"/><path class="cls-7" d="M2.51,94.53l2-.63a7,7,0,0,1,1-.26h0c-.32-.07-.63-.16-1-.26l-2-.61v-1L6.4,93.25v1L2.51,95.7Z" transform="translate(-0.63 -5.33)"/><path class="cls-7" d="M1.42,90.05a.55.55,0,0,1,.56.54H2a.54.54,0,0,1-.52.56h0a.56.56,0,0,1-.56-.54h0a.53.53,0,0,1,.49-.55Zm5,1H2.51v-1H6.4Z" transform="translate(-0.63 -5.33)"/><path class="cls-7" d="M.65,85.46H6.33v.88H5.71a1.37,1.37,0,0,1,.71,1.27,1.79,1.79,0,0,1-1.88,1.67H4.45a1.83,1.83,0,0,1-2-1.63v-.11A1.24,1.24,0,0,1,3,86.44H.65Zm3.41,1H3.8a.87.87,0,0,0-.69.85c0,.63.56,1,1.28,1s1.24-.35,1.24-1a.86.86,0,0,0-.7-.85Z" transform="translate(-0.63 -5.33)"/><path class="cls-7" d="M5.23,80.91H6.4v.86H5.81A1.36,1.36,0,0,1,6.49,83c0,.72-.43,1.36-1.7,1.36H2.51v-1H4.65c.65,0,1.07-.21,1.07-.73a.79.79,0,0,0-.53-.75,1.5,1.5,0,0,0-.3,0H2.51v-1Z" transform="translate(-0.63 -5.33)"/><path class="cls-7" d="M6.4,77.65,6,77.72H6a1.44,1.44,0,0,1,.52,1.15A1.17,1.17,0,0,1,5.41,80.1H5.33c-1,0-1.48-.87-1.47-2.31H3.79c-.25,0-.68.1-.68.79a2.36,2.36,0,0,0,.29,1l-.64.19a2.91,2.91,0,0,1-.34-1.41,1.46,1.46,0,0,1,1.29-1.61,2,2,0,0,1,.35,0h1.4a4.92,4.92,0,0,0,.94,0Zm-1.9.13c0,.7.13,1.36.72,1.36a.51.51,0,0,0,.56-.45.2.2,0,0,0,0-.11.76.76,0,0,0-.53-.76H5Z" transform="translate(-0.63 -5.33)"/><path class="cls-7" d="M.65,75.78v-1H6.33v1Z" transform="translate(-0.63 -5.33)"/><path class="cls-7" d="M5.5,73.77a2.21,2.21,0,0,0,.28-1c0-.43-.18-.62-.44-.62s-.4.16-.56.64c-.27.76-.68,1.08-1.14,1.07A1.31,1.31,0,0,1,2.41,72.5v-.11a2.29,2.29,0,0,1,.23-1l.7.19a1.8,1.8,0,0,0-.23.82c0,.36.17.55.41.55s.37-.18.54-.68c.26-.71.62-1,1.19-1s1.22.55,1.22,1.58A2.47,2.47,0,0,1,6.2,74Z" transform="translate(-0.63 -5.33)"/><path class="cls-7" d="M98.86,220.64H102v.81H99.84v1.49h2v.8h-2V226h-1Z" transform="translate(-0.63 -5.33)"/><path class="cls-7" d="M106.59,224.05a1.93,1.93,0,0,1-1.78,2.07h-.22a1.88,1.88,0,0,1-2-1.75v-.25a1.91,1.91,0,0,1,1.78-2h.22a1.86,1.86,0,0,1,2,1.73A.67.67,0,0,1,106.59,224.05Zm-2.93,0c0,.75.36,1.32,1,1.32s1-.55,1-1.34c0-.61-.27-1.3-.94-1.3s-1,.71-1,1.36Z" transform="translate(-0.63 -5.33)"/><path class="cls-7" d="M107.4,223.39v-1.25h.85v.74h0a1.15,1.15,0,0,1,1.06-.83h.23V223h-.29a.87.87,0,0,0-.88.74V226h-1Z" transform="translate(-0.63 -5.33)"/><path class="cls-7" d="M112.44,226l-.07-.43h0a1.45,1.45,0,0,1-1.15.52A1.16,1.16,0,0,1,110,225h0V225c0-1,.87-1.48,2.31-1.47v-.07c0-.25-.11-.68-.8-.68a2.07,2.07,0,0,0-1,.29l-.19-.64a2.84,2.84,0,0,1,1.4-.34,1.46,1.46,0,0,1,1.62,1.29,1,1,0,0,1,0,.35v1.4a7.54,7.54,0,0,0,.06.94Zm-.13-1.9c-.7,0-1.36.13-1.36.73a.52.52,0,0,0,.47.55h.09a.79.79,0,0,0,.77-.53.81.81,0,0,0,0-.22Z" transform="translate(-0.63 -5.33)"/><path class="cls-7" d="M117.87,222.14v3.32a1.88,1.88,0,0,1-1.46,2.22,2.15,2.15,0,0,1-.62,0,2.8,2.8,0,0,1-1.36-.31l.22-.74a2.38,2.38,0,0,0,1.13.29,1,1,0,0,0,1.13-.85,1.71,1.71,0,0,0,0-.32v-.34h0a1.31,1.31,0,0,1-1.13.58,1.74,1.74,0,0,1-1.67-1.79h0v-.12a1.87,1.87,0,0,1,1.66-2h.11a1.25,1.25,0,0,1,1.13.61h0v-.52Zm-1,1.56a.85.85,0,0,0-.82-.9h0c-.55,0-1,.48-1,1.27s.34,1.2,1,1.2a.84.84,0,0,0,.8-.59,1,1,0,0,0,0-.35Z" transform="translate(-0.63 -5.33)"/><path class="cls-7" d="M119.94,221.05a.54.54,0,0,1-.52.56h0a.56.56,0,0,1-.56-.54h0a.56.56,0,0,1,.54-.56h0a.52.52,0,0,1,.55.48h0Zm-1,5v-3.89h1v3.89Z" transform="translate(-0.63 -5.33)"/><path class="cls-7" d="M120.94,223.34v-1.2h.87v.58h0a1.43,1.43,0,0,1,1.24-.67c.68,0,1.38.44,1.38,1.67V226h-1v-2.2c0-.56-.21-1-.75-1a.84.84,0,0,0-.77.57,1.71,1.71,0,0,0,0,.32V226h-1Z" transform="translate(-0.63 -5.33)"/><path class="cls-7" d="M129.08,222.14v3.32a1.88,1.88,0,0,1-1.46,2.22,2.15,2.15,0,0,1-.62,0,2.8,2.8,0,0,1-1.36-.31l.21-.74a2.38,2.38,0,0,0,1.14.29,1,1,0,0,0,1.13-.85,1.71,1.71,0,0,0,0-.32v-.34h0A1.31,1.31,0,0,1,127,226a1.74,1.74,0,0,1-1.67-1.79h0v-.12a1.87,1.87,0,0,1,1.66-2h.11a1.25,1.25,0,0,1,1.13.61h0v-.52Zm-1,1.56a1.22,1.22,0,0,0,0-.27.79.79,0,0,0-.8-.63c-.55,0-1,.48-1,1.27s.34,1.2,1,1.2a.84.84,0,0,0,.8-.59,1,1,0,0,0,0-.35Z" transform="translate(-0.63 -5.33)"/><path class="cls-7" d="M132.89,221v1.11h.93v.73h-.93v1.72c0,.47.12.72.5.72a1.21,1.21,0,0,0,.38,0v.75a2.14,2.14,0,0,1-.71.1,1.16,1.16,0,0,1-.85-.32,1.59,1.59,0,0,1-.3-1.09v-1.83h-.56v-.73h.56v-.85Z" transform="translate(-0.63 -5.33)"/><path class="cls-7" d="M134.57,223.39v-1.25h.85v.74h0a1.18,1.18,0,0,1,1.07-.83h.23V223h-.29a.87.87,0,0,0-.88.74V226h-1Z" transform="translate(-0.63 -5.33)"/><path class="cls-7" d="M139.65,226l-.07-.43h0a1.45,1.45,0,0,1-1.15.52,1.16,1.16,0,0,1-1.22-1.08h0V225c0-1,.87-1.48,2.31-1.47v-.07c0-.25-.1-.68-.79-.68a2.07,2.07,0,0,0-1,.29l-.2-.64a2.91,2.91,0,0,1,1.41-.34,1.46,1.46,0,0,1,1.62,1.29,1,1,0,0,1,0,.35v1.4a7.5,7.5,0,0,0,.05.94Zm-.13-1.9c-.7,0-1.36.13-1.36.73a.52.52,0,0,0,.47.55h0a.79.79,0,0,0,.77-.53.81.81,0,0,0,0-.22Z" transform="translate(-0.63 -5.33)"/><path class="cls-7" d="M142.53,221.05a.56.56,0,0,1-.54.58h0a.58.58,0,0,1-.58-.54.56.56,0,0,1,.54-.58h0a.53.53,0,0,1,.56.49h0Zm-1,5v-3.89h1v3.89Z" transform="translate(-0.63 -5.33)"/><path class="cls-7" d="M143.53,220.34h1V226h-1Z" transform="translate(-0.63 -5.33)"/><path class="cls-7" d="M147.24,220.34h1V226h-1Z" transform="translate(-0.63 -5.33)"/><path class="cls-7" d="M150,224.34a1.06,1.06,0,0,0,1.11,1h.09a2.82,2.82,0,0,0,1.08-.18l.14.68a3.52,3.52,0,0,1-1.36.24,1.84,1.84,0,0,1-2-1.66A2.32,2.32,0,0,1,150.8,222H151a1.7,1.7,0,0,1,1.7,1.69.67.67,0,0,1,0,.2,2.94,2.94,0,0,1,0,.42Zm1.71-.69a.82.82,0,0,0-.68-.94h-.13a1,1,0,0,0-.9.95Z" transform="translate(-0.63 -5.33)"/><path class="cls-7" d="M153.42,223.34v-1.2h.86l.05.58h0a1.38,1.38,0,0,1,1.23-.67c.68,0,1.39.44,1.39,1.67V226h-1v-2.2c0-.56-.21-1-.75-1a.84.84,0,0,0-.77.57,1.71,1.71,0,0,0,0,.32V226h-1Z" transform="translate(-0.63 -5.33)"/><path class="cls-7" d="M161.56,222.14v3.32a1.87,1.87,0,0,1-1.44,2.22h0a2.22,2.22,0,0,1-.63,0,2.8,2.8,0,0,1-1.36-.31l.21-.74a2.38,2.38,0,0,0,1.14.29,1,1,0,0,0,1.13-.85,1.71,1.71,0,0,0,0-.32v-.34h0a1.31,1.31,0,0,1-1.13.58,1.74,1.74,0,0,1-1.67-1.79h0v-.12a1.87,1.87,0,0,1,1.66-2h.11a1.2,1.2,0,0,1,1.12.61h0v-.52Zm-1,1.56a1.22,1.22,0,0,0,0-.27.79.79,0,0,0-.8-.63c-.55,0-1,.48-1,1.27s.34,1.2,1,1.2a.84.84,0,0,0,.8-.59,2,2,0,0,0,0-.35Z" transform="translate(-0.63 -5.33)"/><path class="cls-7" d="M163.65,221v1.11h1v.73h-1v1.72c0,.47.13.72.5.72a1.28,1.28,0,0,0,.39,0v.75a2.14,2.14,0,0,1-.71.1,1.16,1.16,0,0,1-.85-.32,1.65,1.65,0,0,1-.3-1.09v-1.83h-.56v-.73h.56v-.85Z" transform="translate(-0.63 -5.33)"/><path class="cls-7" d="M165.39,220.34h1v2.32h0a1.5,1.5,0,0,1,.49-.45,1.45,1.45,0,0,1,.67-.17c.66,0,1.36.44,1.36,1.69V226h-1v-2.18c0-.57-.21-1-.75-1a.83.83,0,0,0-.76.55,1.4,1.4,0,0,0,0,.29V226h-1Z" transform="translate(-0.63 -5.33)"/><path class="cls-7" d="M173.28,220.53a6.24,6.24,0,0,0,0,6.48h-.72a5.44,5.44,0,0,1-1-3.23,5.62,5.62,0,0,1,1-3.25Z" transform="translate(-0.63 -5.33)"/><path class="cls-7" d="M176.89,225.91a2.75,2.75,0,0,1-1.1.2,1.87,1.87,0,0,1-2-1.73v-.27A2,2,0,0,1,175.7,222H176a2.55,2.55,0,0,1,.95.18l-.18.74a1.88,1.88,0,0,0-.74-.15,1.27,1.27,0,0,0-1.14,1.37,1.25,1.25,0,0,0,1.14,1.14,1.73,1.73,0,0,0,.78-.15Z" transform="translate(-0.63 -5.33)"/><path class="cls-7" d="M177.65,223.34v-1.2h.85v.57h0a1.36,1.36,0,0,1,1.2-.66,1.12,1.12,0,0,1,1.08.72h0a1.41,1.41,0,0,1,.48-.49,1.28,1.28,0,0,1,.78-.23c.65,0,1.3.44,1.3,1.69V226h-1v-2.15c0-.65-.22-1-.69-1a.75.75,0,0,0-.69.52,1.75,1.75,0,0,0-.05.33v2.33h-1v-2.25c0-.55-.21-.93-.67-.93a.76.76,0,0,0-.7.56.87.87,0,0,0-.06.32v2.3h-1Z" transform="translate(-0.63 -5.33)"/><path class="cls-7" d="M184.1,227a6.28,6.28,0,0,0,0-6.48h.71a5.83,5.83,0,0,1,0,6.48Z" transform="translate(-0.63 -5.33)"/><path class="cls-7" d="M15.08,152.24v-.43l.55-.54c1.33-1.26,1.93-1.94,1.94-2.72a.93.93,0,0,0-.85-1h-.15a1.8,1.8,0,0,0-1.1.45l-.22-.5a2.33,2.33,0,0,1,1.47-.53,1.47,1.47,0,0,1,1.59,1.32v.05a.54.54,0,0,1,0,.18c0,1-.7,1.74-1.79,2.79l-.42.39h2.34v.59Z" transform="translate(-0.63 -5.33)"/><path class="cls-7" d="M22.65,149.58c0,1.77-.66,2.74-1.81,2.74s-1.7-1-1.72-2.67.75-2.7,1.81-2.7S22.65,147.93,22.65,149.58Zm-2.83.08c0,1.35.42,2.12,1.06,2.12s1.06-.84,1.06-2.17-.32-2.12-1-2.12-1.16.76-1.16,2.17Z" transform="translate(-0.63 -5.33)"/><path class="cls-7" d="M16.65,175.44h0l-.9.48-.14-.53,1.14-.61h.59V180h-.69Z" transform="translate(-0.63 -5.33)"/><path class="cls-7" d="M22.65,177.34c0,1.77-.66,2.74-1.81,2.74s-1.7-1-1.72-2.67.75-2.7,1.81-2.7S22.65,175.67,22.65,177.34Zm-2.83.08c0,1.35.42,2.12,1.06,2.12s1.06-.84,1.06-2.17-.33-2.11-1-2.11-1.16.75-1.16,2.16Z" transform="translate(-0.63 -5.33)"/><path class="cls-7" d="M22.65,211.06c0,1.77-.65,2.74-1.8,2.74s-1.71-1-1.72-2.67.75-2.7,1.8-2.7S22.65,209.41,22.65,211.06Zm-2.82.08c0,1.35.42,2.12,1.06,2.12s1.06-.84,1.06-2.17S21.62,209,20.89,209s-1.11.76-1.11,2.17Z" transform="translate(-0.63 -5.33)"/><path class="cls-7" d="M41.27,213.72v-.44l.55-.53c1.33-1.26,1.93-1.94,1.94-2.72a.93.93,0,0,0-.85-1h-.15a1.76,1.76,0,0,0-1.11.44l-.22-.49a2.3,2.3,0,0,1,1.47-.53,1.46,1.46,0,0,1,1.59,1.32h0a.54.54,0,0,1,0,.18c0,1-.7,1.74-1.79,2.79l-.42.39h2.37v.59Z" transform="translate(-0.63 -5.33)"/><path class="cls-7" d="M56.82,213.72v-1.38H54.4v-.46l2.25-3.35h.76v3.23h.73v.58h-.69v1.42Zm0-2v-2.55h0c-.16.3-.29.53-.43.77l-1.28,1.76h0Z" transform="translate(-0.63 -5.33)"/><path class="cls-7" d="M71,209h-.53a2.09,2.09,0,0,0-1.8,1.84h0a1.62,1.62,0,0,1,1.26-.6,1.56,1.56,0,0,1,1.57,1.52v.16a1.73,1.73,0,0,1-1.6,1.83h-.12c-1.12,0-1.84-.86-1.84-2.21a3.3,3.3,0,0,1,.88-2.34,2.76,2.76,0,0,1,1.66-.77H71Zm-.2,3a1,1,0,0,0-.8-1.17h-.33a1.16,1.16,0,0,0-1,.64.65.65,0,0,0-.08.31c0,.86.41,1.49,1.15,1.49S70.78,212.76,70.78,212Z" transform="translate(-0.63 -5.33)"/><path class="cls-7" d="M81.32,212.4a1.51,1.51,0,0,1,1-1.4h0a1.3,1.3,0,0,1-.83-1.17A1.45,1.45,0,0,1,83,208.45h.08a1.33,1.33,0,0,1,1.55,1.08v.18a1.29,1.29,0,0,1-.85,1.21h0a1.42,1.42,0,0,1,1,1.34,1.6,1.6,0,0,1-1.66,1.52H83A1.5,1.5,0,0,1,81.32,212.4Zm2.8,0c0-.63-.44-.93-1.14-1.13a1.12,1.12,0,0,0-.94,1.07,1,1,0,0,0,1,1,.93.93,0,0,0,1.07-.77h0a.67.67,0,0,0,0-.2Zm-1.93-2.59c0,.52.39.8,1,1a1,1,0,0,0,.79-1,.81.81,0,0,0-.76-.85H83.1a.84.84,0,0,0-.91.75h0Z" transform="translate(-0.63 -5.33)"/><path class="cls-7" d="M94.24,209.17h0l-.9.49-.14-.53,1.14-.61h.6v5.2h-.68Z" transform="translate(-0.63 -5.33)"/><path class="cls-7" d="M100.27,211.06c0,1.77-.66,2.74-1.81,2.74s-1.7-1-1.72-2.67.75-2.7,1.81-2.7S100.27,209.41,100.27,211.06Zm-2.83.08c0,1.35.42,2.12,1.06,2.12s1.06-.84,1.06-2.17-.33-2.12-1-2.12S97.44,209.73,97.44,211.14Z" transform="translate(-0.63 -5.33)"/><path class="cls-7" d="M107.65,209.17h0l-.9.49-.14-.53,1.11-.6h.6v5.2h-.67Z" transform="translate(-0.63 -5.33)"/><path class="cls-7" d="M110.18,213.72v-.44l.56-.53c1.32-1.26,1.92-1.94,1.93-2.72a.93.93,0,0,0-.85-1h-.17a1.79,1.79,0,0,0-1.1.44l-.23-.49a2.3,2.3,0,0,1,1.47-.53,1.46,1.46,0,0,1,1.59,1.32h0a.54.54,0,0,1,0,.18c0,1-.69,1.74-1.79,2.79l-.41.39h2.33v.59Z" transform="translate(-0.63 -5.33)"/><path class="cls-7" d="M121,209.17h0l-.91.49-.13-.53,1.13-.61h.6v5.2H121Z" transform="translate(-0.63 -5.33)"/><path class="cls-7" d="M125.73,213.72v-1.38h-2.41v-.46l2.36-3.31h.76v3.23h.72v.54h-.72v1.42Zm0-2v-2.55h0c-.16.3-.29.53-.43.77L124,211.7h0Z" transform="translate(-0.63 -5.33)"/><path class="cls-7" d="M134.35,209.17h0l-.91.49-.13-.53,1.13-.61h.6v5.2h-.68Z" transform="translate(-0.63 -5.33)"/><path class="cls-7" d="M139.9,209h-.53a2.11,2.11,0,0,0-1.81,1.84h0a1.58,1.58,0,0,1,2.22-.27,1.6,1.6,0,0,1,.6,1.35,1.75,1.75,0,0,1-1.64,1.83h-.09c-1.11,0-1.84-.86-1.84-2.21a3.3,3.3,0,0,1,.88-2.34,2.79,2.79,0,0,1,1.67-.77h.51Zm-.2,3a1,1,0,0,0-.9-1.18h-.15a1.15,1.15,0,0,0-1,.64.65.65,0,0,0-.08.31c0,.86.41,1.49,1.14,1.49s1-.5,1-1.25Z" transform="translate(-0.63 -5.33)"/><path class="cls-7" d="M147.73,209.17h0l-.9.49-.14-.53,1.14-.61h.6v5.2h-.68Z" transform="translate(-0.63 -5.33)"/><path class="cls-7" d="M150.24,212.4a1.51,1.51,0,0,1,1-1.4h0a1.33,1.33,0,0,1-.82-1.17,1.43,1.43,0,0,1,1.5-1.38H152a1.33,1.33,0,0,1,1.5,1.16h0v.12a1.32,1.32,0,0,1-.86,1.21h0a1.42,1.42,0,0,1,1,1.34A1.6,1.6,0,0,1,152,213.8h-.11a1.49,1.49,0,0,1-1.65-1.31A.28.28,0,0,1,150.24,212.4Zm2.8,0c0-.63-.44-.93-1.15-1.13a1.13,1.13,0,0,0-.93,1.07,1,1,0,0,0,1,1,.93.93,0,0,0,1.07-.77h0a.67.67,0,0,0,0-.2Zm-1.94-2.59c0,.52.39.8,1,1a1,1,0,0,0,.8-1,.81.81,0,0,0-.76-.85H152a.82.82,0,0,0-.91.74v.11Z" transform="translate(-0.63 -5.33)"/><path class="cls-7" d="M159.57,213.72v-.44l.55-.53c1.33-1.26,1.93-1.94,1.94-2.72a.93.93,0,0,0-.85-1h-.15a1.76,1.76,0,0,0-1.11.44l-.22-.49a2.3,2.3,0,0,1,1.47-.53,1.46,1.46,0,0,1,1.59,1.32h0a.54.54,0,0,1,0,.18c0,1-.69,1.74-1.79,2.79l-.41.39h2.33v.59Z" transform="translate(-0.63 -5.33)"/><path class="cls-7" d="M167.13,211.06c0,1.77-.66,2.74-1.81,2.74s-1.7-1-1.72-2.67.75-2.7,1.81-2.7S167.13,209.41,167.13,211.06Zm-2.82.08c0,1.35.41,2.12,1.05,2.12s1.07-.84,1.07-2.17-.33-2.12-1.06-2.12-1.06.76-1.06,2.17Z" transform="translate(-0.63 -5.33)"/><path class="cls-7" d="M172.94,213.72v-.44l.56-.53c1.32-1.26,1.92-1.94,1.93-2.72a.93.93,0,0,0-.85-1h-.15a1.79,1.79,0,0,0-1.1.44l-.23-.49a2.3,2.3,0,0,1,1.47-.53,1.48,1.48,0,0,1,1.6,1.34V210c0,1-.7,1.74-1.8,2.79l-.41.39h2.33v.59Z" transform="translate(-0.63 -5.33)"/><path class="cls-7" d="M177.05,213.72v-.44l.55-.53c1.33-1.26,1.93-1.94,1.94-2.72a.93.93,0,0,0-.85-1h-.15a1.79,1.79,0,0,0-1.1.44l-.22-.49a2.3,2.3,0,0,1,1.47-.53,1.46,1.46,0,0,1,1.59,1.32h0V210c0,1-.7,1.74-1.79,2.79l-.42.39h2.34v.59Z" transform="translate(-0.63 -5.33)"/><path class="cls-7" d="M186.32,213.72v-.44l.55-.53c1.33-1.26,1.93-1.94,1.93-2.72a.93.93,0,0,0-.85-1h-.15a1.79,1.79,0,0,0-1.1.44l-.23-.49a2.35,2.35,0,0,1,1.48-.53,1.46,1.46,0,0,1,1.59,1.32h0V210c0,1-.7,1.74-1.79,2.79l-.42.39h2.32v.59Z" transform="translate(-0.63 -5.33)"/><path class="cls-7" d="M192.65,213.72v-1.38h-2.42v-.46l2.32-3.32h.76v3.23H194v.55h-.73v1.42Zm0-2v-2.55h0c-.16.3-.29.53-.44.77l-1.27,1.76h0Z" transform="translate(-0.63 -5.33)"/><path class="cls-7" d="M199.65,213.72v-.44l.55-.53c1.33-1.26,1.93-1.94,1.94-2.72a.93.93,0,0,0-.85-1h-.15a1.76,1.76,0,0,0-1.11.44l-.22-.49a2.3,2.3,0,0,1,1.47-.53,1.46,1.46,0,0,1,1.59,1.32h0a.54.54,0,0,1,0,.18c0,1-.7,1.74-1.79,2.79l-.42.39H203v.59Z" transform="translate(-0.63 -5.33)"/><path class="cls-7" d="M206.76,209h-.53a2.09,2.09,0,0,0-1.8,1.84h0a1.59,1.59,0,0,1,1.25-.6,1.56,1.56,0,0,1,1.58,1.53v.15a1.75,1.75,0,0,1-1.64,1.83h-.08c-1.12,0-1.84-.86-1.84-2.21a3.26,3.26,0,0,1,.88-2.34,2.76,2.76,0,0,1,1.66-.77h.51Zm-.2,3a1,1,0,0,0-.8-1.17h-.27a1.15,1.15,0,0,0-1,.64.65.65,0,0,0-.08.31c0,.86.41,1.49,1.15,1.49S206.56,212.76,206.56,212Z" transform="translate(-0.63 -5.33)"/><path class="cls-7" d="M213.06,213.72v-.44l.55-.53c1.33-1.26,1.93-1.94,1.94-2.72a.93.93,0,0,0-.85-1h-.15a1.76,1.76,0,0,0-1.11.44l-.22-.49a2.3,2.3,0,0,1,1.47-.53,1.46,1.46,0,0,1,1.59,1.32h0a.54.54,0,0,1,0,.18c0,1-.69,1.74-1.79,2.79l-.41.39h2.33v.59Z" transform="translate(-0.63 -5.33)"/><path class="cls-7" d="M217.1,212.4a1.51,1.51,0,0,1,1-1.4h0a1.3,1.3,0,0,1-.83-1.17,1.45,1.45,0,0,1,1.53-1.38h.08a1.33,1.33,0,0,1,1.5,1.16h0v.12a1.32,1.32,0,0,1-.86,1.21h0a1.41,1.41,0,0,1,1,1.34,1.6,1.6,0,0,1-1.66,1.52h-.1a1.51,1.51,0,0,1-1.7-1.3S217.1,212.43,217.1,212.4Zm2.8,0c0-.63-.44-.93-1.14-1.13a1.12,1.12,0,0,0-.94,1.07,1,1,0,0,0,1,1,.93.93,0,0,0,1.07-.77h0a.67.67,0,0,0,0-.2ZM218,209.81c0,.52.39.8,1,1a1,1,0,0,0,.79-1A.81.81,0,0,0,219,209h-.12a.84.84,0,0,0-.91.75h0Z" transform="translate(-0.63 -5.33)"/><path class="cls-7" d="M226.65,212.91a2.43,2.43,0,0,0,1.15.33c.91,0,1.19-.58,1.18-1,0-.73-.66-1-1.34-1h-.4v-.53h.4c.51,0,1.16-.26,1.16-.88,0-.41-.27-.78-.92-.78a2,2,0,0,0-1,.34l-.19-.51a2.54,2.54,0,0,1,1.36-.4c1,0,1.49.61,1.49,1.24a1.27,1.27,0,0,1-1,1.22h0a1.36,1.36,0,0,1,1.16,1.33c0,.84-.65,1.56-1.9,1.56a2.57,2.57,0,0,1-1.35-.35Z" transform="translate(-0.63 -5.33)"/><path class="cls-7" d="M234,211.06c0,1.77-.65,2.74-1.8,2.74s-1.71-1-1.72-2.67.75-2.7,1.8-2.7S234,209.41,234,211.06Zm-2.82.08c0,1.35.42,2.12,1.06,2.12s1.06-.84,1.06-2.17S233,209,232.23,209,231.17,209.73,231.17,211.14Z" transform="translate(-0.63 -5.33)"/><path class="cls-7" d="M240,212.91a2.47,2.47,0,0,0,1.16.33c.9,0,1.18-.58,1.17-1,0-.73-.66-1-1.34-1h-.39v-.53H241c.51,0,1.16-.26,1.16-.88,0-.41-.27-.78-.91-.78a2,2,0,0,0-1,.34l-.19-.51a2.54,2.54,0,0,1,1.36-.4c1,0,1.49.61,1.49,1.24a1.27,1.27,0,0,1-1,1.22h0a1.36,1.36,0,0,1,1.16,1.33c0,.84-.65,1.56-1.89,1.56a2.68,2.68,0,0,1-1.36-.35Z" transform="translate(-0.63 -5.33)"/><path class="cls-7" d="M243.91,213.72v-.44l.55-.53c1.33-1.26,1.93-1.94,1.94-2.72a.93.93,0,0,0-.85-1h-.15a1.76,1.76,0,0,0-1.11.44l-.22-.49a2.3,2.3,0,0,1,1.47-.53,1.46,1.46,0,0,1,1.59,1.32h0a.54.54,0,0,1,0,.18c0,1-.69,1.74-1.79,2.79l-.42.39h2.34v.59Z" transform="translate(-0.63 -5.33)"/><path class="cls-7" d="M253.35,212.91a2.32,2.32,0,0,0,1.15.33c.9,0,1.18-.58,1.17-1,0-.73-.66-1-1.34-1h-.39v-.53h.39c.51,0,1.16-.26,1.16-.88,0-.41-.27-.78-.91-.78a2,2,0,0,0-1,.34l-.18-.51a2.48,2.48,0,0,1,1.35-.4c1,0,1.49.61,1.49,1.24a1.27,1.27,0,0,1-1,1.22h0a1.36,1.36,0,0,1,1.16,1.33c0,.84-.65,1.56-1.89,1.56a2.68,2.68,0,0,1-1.36-.35Z" transform="translate(-0.63 -5.33)"/><path class="cls-7" d="M259.46,213.72v-1.38H257v-.46l2.32-3.32h.76v3.23h.73v.55h-.73v1.42Zm0-2v-2.55h0c-.16.3-.29.53-.43.77l-1.28,1.76h0Z" transform="translate(-0.63 -5.33)"/><path class="cls-7" d="M18,36.58h-.52a2.1,2.1,0,0,0-1.87,1.88h0a1.6,1.6,0,0,1,2.22-.37,1.56,1.56,0,0,1,.66,1.44,1.74,1.74,0,0,1-1.61,1.81h-.09c-1.11,0-1.84-.87-1.84-2.22a3.3,3.3,0,0,1,.88-2.34A2.91,2.91,0,0,1,17.53,36H18Zm-.19,3a1.05,1.05,0,0,0-.91-1.19h-.17a1.16,1.16,0,0,0-1,.64.84.84,0,0,0-.12.31c0,.85.4,1.48,1.14,1.48S17.85,40.34,17.85,39.58Z" transform="translate(-0.63 -5.33)"/><path class="cls-7" d="M22.65,38.62c0,1.77-.66,2.75-1.81,2.75s-1.7-1-1.72-2.67S19.87,36,20.93,36,22.65,37,22.65,38.62Zm-2.83.08c0,1.36.42,2.12,1.06,2.12s1.06-.84,1.06-2.16-.32-2.12-1-2.12-1.16.75-1.16,2.16Z" transform="translate(-0.63 -5.33)"/><path class="cls-7" d="M18.45,8.34v.47l-2.26,4.72h-.73l2.26-4.6H15.17V8.34Z" transform="translate(-0.63 -5.33)"/><path class="cls-7" d="M22.65,10.89c0,1.76-.66,2.74-1.81,2.74s-1.7-1-1.72-2.67.75-2.7,1.81-2.7S22.65,9.23,22.65,10.89ZM19.82,11c0,1.35.42,2.11,1.06,2.11s1.06-.84,1.06-2.16-.32-2.12-1-2.12-1.16.73-1.16,2.17Z" transform="translate(-0.63 -5.33)"/><path class="cls-7" d="M18.18,64.41h-2L16,65.75h.42a2.19,2.19,0,0,1,1.12.28,1.47,1.47,0,0,1,.74,1.33,1.81,1.81,0,0,1-1.81,1.79h-.12a2.58,2.58,0,0,1-1.3-.32l.18-.54a2.27,2.27,0,0,0,1.11.29,1.14,1.14,0,0,0,1.23-1v-.09c0-.67-.45-1.15-1.49-1.15a4.37,4.37,0,0,0-.72.06l.33-2.5h2.51Z" transform="translate(-0.63 -5.33)"/><path class="cls-7" d="M22.65,66.34c0,1.77-.66,2.75-1.81,2.75s-1.7-1-1.72-2.67.75-2.71,1.81-2.71S22.65,64.71,22.65,66.34Zm-2.83.09c0,1.35.42,2.11,1.06,2.11s1.06-.84,1.06-2.16-.33-2.12-1-2.12-1.16.75-1.16,2.17Z" transform="translate(-0.63 -5.33)"/><path class="cls-7" d="M17.25,96.76V95.34H14.83v-.46l2.32-3.35h.76v3.23h.74v.58H18v1.42Zm0-2V92.21h0c-.16.3-.29.53-.43.77l-1.27,1.77h1.7Z" transform="translate(-0.63 -5.33)"/><path class="cls-7" d="M22.65,94.1c0,1.77-.65,2.75-1.8,2.75s-1.71-.95-1.72-2.67.75-2.71,1.8-2.71S22.65,92.45,22.65,94.1Zm-2.82.08c0,1.36.42,2.12,1.06,2.12S22,95.46,22,94.14,21.62,92,20.89,92s-1.11.75-1.11,2.16Z" transform="translate(-0.63 -5.33)"/><path class="cls-7" d="M15.24,123.69a2.43,2.43,0,0,0,1.15.33c.91,0,1.19-.58,1.18-1,0-.73-.66-1-1.34-1h-.4v-.53h.4c.51,0,1.16-.26,1.16-.88,0-.41-.27-.78-.92-.78a2,2,0,0,0-1,.34l-.18-.51a2.54,2.54,0,0,1,1.36-.4c1,0,1.49.61,1.49,1.24a1.28,1.28,0,0,1-1,1.23h0a1.36,1.36,0,0,1,1.16,1.34c0,.83-.65,1.56-1.9,1.56a2.68,2.68,0,0,1-1.35-.36Z" transform="translate(-0.63 -5.33)"/><path class="cls-7" d="M22.65,121.84c0,1.77-.65,2.75-1.8,2.75s-1.71-1-1.72-2.68.75-2.7,1.8-2.7S22.65,120.19,22.65,121.84Zm-2.82.08c0,1.35.42,2.12,1.06,2.12S22,123.2,22,121.88s-.33-2.12-1.06-2.12-1.11.77-1.11,2.16Z" transform="translate(-0.63 -5.33)"/><path class="cls-7" d="M225.26,27.53a2.41,2.41,0,0,0,1.25.35c.71,0,1.13-.37,1.13-.92s-.29-.79-1-1.07c-.88-.31-1.42-.77-1.42-1.53a1.56,1.56,0,0,1,1.63-1.47H227a2.6,2.6,0,0,1,1.2.26l-.2.57a2.18,2.18,0,0,0-1-.25c-.74,0-1,.44-1,.8,0,.51.33.75,1.07,1,.92.35,1.38.79,1.38,1.59s-.62,1.55-1.89,1.55a2.64,2.64,0,0,1-1.37-.35Z" transform="translate(-0.63 -5.33)"/><path class="cls-7" d="M230.06,23.4a.4.4,0,0,1-.37.43h0a.43.43,0,0,1-.43-.41h0a.44.44,0,0,1,.42-.44h0a.42.42,0,0,1,.43.41h0Zm-.78,5V24.53h.7V28.4Z" transform="translate(-0.63 -5.33)"/><path class="cls-7" d="M232,23.34v1.15h1V25h-1v2.09c0,.48.14.75.53.75a1.07,1.07,0,0,0,.4-.05v.53a1.52,1.52,0,0,1-.63.1,1,1,0,0,1-.76-.3,1.44,1.44,0,0,1-.27-1V25h-.62v-.54h.6v-1Z" transform="translate(-0.63 -5.33)"/><path class="cls-7" d="M234.65,23.34v1.15h1V25h-1v2.09c0,.48.13.75.53.75a1.07,1.07,0,0,0,.4-.05v.53a1.65,1.65,0,0,1-.62.1,1,1,0,0,1-.76-.3,1.44,1.44,0,0,1-.27-1V25h-.6v-.54h.6v-1Z" transform="translate(-0.63 -5.33)"/><path class="cls-7" d="M236.79,26.53a1.24,1.24,0,0,0,1.13,1.34h.2a2.32,2.32,0,0,0,1.07-.2l.12.51a3.18,3.18,0,0,1-1.29.24,1.79,1.79,0,0,1-1.9-1.68h0v-.26a1.89,1.89,0,0,1,1.66-2.08h.15A1.63,1.63,0,0,1,239.54,26h0a.48.48,0,0,1,0,.17,1.82,1.82,0,0,1,0,.33Zm2.06-.5a1,1,0,0,0-.84-1.14h-.16A1.19,1.19,0,0,0,236.77,26Z" transform="translate(-0.63 -5.33)"/><path class="cls-7" d="M240.41,25.69v-1.2H241v.76h0a1.16,1.16,0,0,1,1.07-.85h.2v.67h-.24a1,1,0,0,0-.94.91,1.71,1.71,0,0,0,0,.32v2h-.69Z" transform="translate(-0.63 -5.33)"/><path class="cls-7" d="M242.93,27.64a2,2,0,0,0,.92.28c.52,0,.76-.26.76-.58s-.2-.52-.72-.71c-.7-.25-1-.63-1-1.1a1.2,1.2,0,0,1,1.26-1.13h.08a1.85,1.85,0,0,1,1,.24l-.18.51a1.47,1.47,0,0,0-.79-.22c-.41,0-.64.24-.64.52s.23.47.73.66c.67.26,1,.59,1,1.17a1.28,1.28,0,0,1-1.4,1.16h0a2.18,2.18,0,0,1-1.09-.27Z" transform="translate(-0.63 -5.33)"/><path class="cls-7" d="M225.36,32.41a7.5,7.5,0,0,1,1.34-.12,2.21,2.21,0,0,1,1.55.44,1.3,1.3,0,0,1,.43,1,1.42,1.42,0,0,1-1,1.37h0a1.29,1.29,0,0,1,.79,1.08,9.59,9.59,0,0,0,.42,1.48h-.72a7.41,7.41,0,0,1-.36-1.28c-.16-.75-.45-1-1.08-1h-.65v2.33h-.7Zm.7,2.45h.71c.74,0,1.21-.41,1.21-1s-.5-1-1.24-1a3.82,3.82,0,0,0-.68.06Z" transform="translate(-0.63 -5.33)"/><path class="cls-7" d="M233.17,35.76a1.9,1.9,0,0,1-1.72,2.05h-.2a1.84,1.84,0,0,1-1.86-1.8h0v-.19a1.89,1.89,0,0,1,1.72-2.05h.2a1.84,1.84,0,0,1,1.87,1.81h0A1.09,1.09,0,0,1,233.17,35.76Zm-3.07,0c0,.84.49,1.48,1.18,1.48s1.17-.63,1.17-1.5c0-.66-.32-1.49-1.15-1.49s-1.2.81-1.2,1.55Z" transform="translate(-0.63 -5.33)"/><path class="cls-7" d="M234.28,33.85,235,36a6.82,6.82,0,0,1,.31,1h0c.09-.34.2-.67.32-1l.75-2.18h.74l-1.51,3.87H235l-1.47-3.87Z" transform="translate(-0.63 -5.33)"/><path class="cls-7" d="M238.17,35.92a1.24,1.24,0,0,0,1.11,1.34h0a.74.74,0,0,0,.21,0,2.66,2.66,0,0,0,1.08-.2l.12.5a3.18,3.18,0,0,1-1.29.24,1.79,1.79,0,0,1-1.91-1.66V35.8a1.87,1.87,0,0,1,1.64-2.07h.17a1.65,1.65,0,0,1,1.61,1.69.33.33,0,0,1,0,.14v.33Zm2.06-.51a1,1,0,0,0-.85-1.13h-.15a1.16,1.16,0,0,0-1.08,1.14Z" transform="translate(-0.63 -5.33)"/><path class="cls-7" d="M241.78,35.06V33.85h.62v.76h0a1.19,1.19,0,0,1,1.07-.85h.2v.66h-.23a1,1,0,0,0-.95.9v2.39h-.7Z" transform="translate(-0.63 -5.33)"/><path class="cls-7" d="M244.3,37a1.81,1.81,0,0,0,.93.28c.51,0,.75-.25.75-.57s-.2-.52-.72-.71c-.69-.25-1-.64-1-1.1a1.2,1.2,0,0,1,1.25-1.14h.14a2,2,0,0,1,1,.24l-.18.52a1.46,1.46,0,0,0-.82-.18c-.42,0-.65.24-.65.53s.23.46.74.66c.67.25,1,.59,1,1.16a1.29,1.29,0,0,1-1.4,1.16h0a2.17,2.17,0,0,1-1.09-.26Z" transform="translate(-0.63 -5.33)"/></g></g></svg>