<svg id="Layer_1" data-name="Layer 1" xmlns="http://www.w3.org/2000/svg" viewBox="0 0 257.83 118.17"><defs><style>.cls-1{fill:#eae6e4;}.cls-2,.cls-3{fill:none;}.cls-2{stroke:#fff;stroke-width:0.5px;}.cls-3{stroke:#cbc1bf;}.cls-4{fill:#6893cc;}.cls-5{fill:#231f20;}</style></defs><title>Practice_Exercise_5</title><g id="Layer_1-2" data-name="Layer 1"><polygon class="cls-1" points="257.47 114.39 38.32 114.39 38.42 0 257.47 0 257.47 114.39"/><line class="cls-2" x1="37.82" y1="101.05" x2="257.82" y2="101.05"/><line class="cls-2" x1="37.82" y1="88.09" x2="257.82" y2="88.09"/><line class="cls-2" x1="37.82" y1="75.13" x2="257.82" y2="75.13"/><line class="cls-2" x1="37.82" y1="49.21" x2="257.82" y2="49.21"/><line class="cls-2" x1="37.82" y1="62.17" x2="257.82" y2="62.17"/><line class="cls-2" x1="37.83" y1="36.25" x2="257.83" y2="36.25"/><line class="cls-2" x1="37.83" y1="10.25" x2="257.83" y2="10.25"/><line class="cls-2" x1="37.83" y1="23.25" x2="257.83" y2="23.25"/><polyline class="cls-3" points="257.47 114.39 38.54 114.39 38.54 0"/><rect class="cls-4" x="39.3" y="112.27" width="7.17" height="1.63"/><rect class="cls-4" x="49.81" y="110.64" width="7.17" height="3.27"/><rect class="cls-4" x="60.33" y="110" width="7.17" height="3.9"/><rect class="cls-4" x="70.84" y="108" width="7.17" height="5.9"/><rect class="cls-4" x="81.35" y="107.37" width="7.17" height="6.54"/><rect class="cls-4" x="91.87" y="107.37" width="7.17" height="6.54"/><rect class="cls-4" x="102.38" y="105.17" width="7.17" height="8.74"/><rect class="cls-4" x="112.89" y="102.83" width="7.17" height="11.08"/><rect class="cls-4" x="123.41" y="101.34" width="7.17" height="12.57"/><rect class="cls-4" x="133.92" y="100.84" width="7.17" height="13.07"/><rect class="cls-4" x="144.43" y="99.25" width="7.17" height="14.65"/><rect class="cls-4" x="154.95" y="95.46" width="7.17" height="18.45"/><rect class="cls-4" x="165.46" y="91.75" width="7.17" height="22.15"/><rect class="cls-4" x="175.97" y="82.04" width="7.17" height="31.87"/><rect class="cls-4" x="186.49" y="80.17" width="7.17" height="33.74"/><rect class="cls-4" x="197" y="79.47" width="7.17" height="34.44"/><rect class="cls-4" x="207.51" y="77" width="7.17" height="36.9"/><rect class="cls-4" x="218.03" y="76.34" width="7.17" height="37.57"/><rect class="cls-4" x="228.54" y="66.92" width="7.17" height="46.99"/><rect class="cls-4" x="239.05" y="50.17" width="7.17" height="63.74"/><rect class="cls-4" x="249.56" y="45.03" width="7.17" height="68.88"/><path class="cls-5" d="M.29,104.24v-1H2.77c-.2-.12-.39-.25-.58-.39l-1.9-1.4v-1.22l2.3,1.86,3.09-2v1.15l-2.47,1.53.57.48h1.9v1Z" transform="translate(0 -4.22)"/><path class="cls-5" d="M.7,98.58a.53.53,0,0,1,.53.53v0a.54.54,0,1,1-1.07.15.38.38,0,0,1,0-.15.53.53,0,0,1,.5-.56Zm5,1H1.79v-1H5.68Z" transform="translate(0 -4.22)"/><path class="cls-5" d="M0,97.58v-1H5.68v1Z" transform="translate(0 -4.22)"/><path class="cls-5" d="M3.7,91.82A1.93,1.93,0,0,1,5.77,93.6v.22a1.88,1.88,0,0,1-1.8,2,1.34,1.34,0,0,1-.2,0A1.92,1.92,0,0,1,1.71,94v-.23a1.86,1.86,0,0,1,1.78-2Zm0,2.94c.75,0,1.32-.37,1.32-1s-.56-1-1.34-1c-.61,0-1.3.27-1.3.94s.71,1.06,1.36,1.06Z" transform="translate(0 -4.22)"/><path class="cls-5" d="M1.79,90.42,3.55,90c.42-.08.84-.17,1.27-.24h0c-.43-.08-.86-.21-1.26-.32L1.79,89v-.81l1.68-.5c.46-.12.88-.23,1.31-.31h0c-.43-.06-.85-.15-1.31-.25l-1.72-.44v-1l3.89,1.22v.91l-1.58.46c-.41.12-.83.22-1.25.3h0a10.78,10.78,0,0,1,1.25.29l1.58.5v.92L1.75,91.39Z" transform="translate(0 -4.22)"/><path class="cls-5" d="M5.68,82.83l-.43.06h0A1.45,1.45,0,0,1,5.77,84a1.16,1.16,0,0,1-1.1,1.22H4.61c-1,0-1.48-.87-1.47-2.31H3.07c-.25,0-.68.11-.68.79a2.05,2.05,0,0,0,.29,1.05L2,85a2.88,2.88,0,0,1-.34-1.41A1.44,1.44,0,0,1,3,82a1.09,1.09,0,0,1,.36,0h1.4a7.42,7.42,0,0,0,.94-.06ZM3.78,83c0,.69.13,1.36.72,1.36a.51.51,0,0,0,.56-.45v-.11A.81.81,0,0,0,4.53,83H4.31Z" transform="translate(0 -4.22)"/><path class="cls-5" d="M.67,79.83H1.79v-.94h.73v.94H4.24c.47,0,.72-.13.72-.5a1.27,1.27,0,0,0,0-.39h.75a1.91,1.91,0,0,1,.1.71,1.1,1.1,0,0,1-.32.84,1.52,1.52,0,0,1-1.09.31H2.52v.56H1.79V80.8H.91Z" transform="translate(0 -4.22)"/><path class="cls-5" d="M.67,77H1.79v-.88h.73v.93H4.24c.47,0,.72-.13.72-.5a1.27,1.27,0,0,0,0-.39h.75a1.91,1.91,0,0,1,.1.71,1.16,1.16,0,0,1-.32.85A1.57,1.57,0,0,1,4.4,78H2.52v.56H1.79V78H.91Z" transform="translate(0 -4.22)"/><path class="cls-5" d="M0,73.68v-1H2.32a1.39,1.39,0,0,1-.62-1.16c0-.67.44-1.36,1.69-1.36H5.68v1H3.47c-.57,0-1,.21-1,.75a.8.8,0,0,0,.55.76.71.71,0,0,0,.29,0H5.64v1Z" transform="translate(0 -4.22)"/><path class="cls-5" d="M3.7,65.41a1.93,1.93,0,0,1,2.07,1.78v.22a1.88,1.88,0,0,1-1.75,2,1,1,0,0,1-.25,0,1.92,1.92,0,0,1-2.06-1.77v-.23a1.87,1.87,0,0,1,1.71-2Zm0,2.93c.75,0,1.32-.37,1.32-1s-.56-1-1.34-1c-.61,0-1.3.27-1.3,1s.71,1,1.36,1Z" transform="translate(0 -4.22)"/><path class="cls-5" d="M4.47,61.14H5.64V62H5.05a1.37,1.37,0,0,1,.68,1.24C5.73,64,5.3,64.6,4,64.6H1.79v-1H3.91c.64,0,1.06-.21,1.06-.73a.82.82,0,0,0-.5-.73.8.8,0,0,0-.3-.06H1.79v-.94Z" transform="translate(0 -4.22)"/><path class="cls-5" d="M3,60H1.79v-.86h.74a1.16,1.16,0,0,1-.83-1,.89.89,0,0,1,0-.23h.93a1.41,1.41,0,0,0,0,.29.87.87,0,0,0,.74.88,1.5,1.5,0,0,0,.3,0h2v1Z" transform="translate(0 -4.22)"/><path class="cls-5" d="M4.78,57.25a2.34,2.34,0,0,0,.28-1c0-.44-.18-.63-.44-.63s-.4.16-.56.64c-.27.76-.68,1.08-1.14,1.07-.69,0-1.22-.56-1.22-1.47a2.29,2.29,0,0,1,.23-1l.7.19a1.62,1.62,0,0,0-.23.83c0,.35.17.54.41.54s.37-.18.54-.68c.26-.7.62-1,1.19-1s1.22.55,1.22,1.58a2.59,2.59,0,0,1-.29,1.12Z" transform="translate(0 -4.22)"/><path class="cls-5" d="M3.08,52.2H1.79v-.87h.6A1.52,1.52,0,0,1,1.7,50a1.76,1.76,0,0,1,1.89-1.64H3.7A1.85,1.85,0,0,1,5.76,50c0,.05,0,.11,0,.16a1.29,1.29,0,0,1-.52,1.1h2v1Zm1-1h.27A.91.91,0,0,0,5,50.34c0-.63-.52-1-1.29-1s-1.25.33-1.25,1a.91.91,0,0,0,.73.88h.25Z" transform="translate(0 -4.22)"/><path class="cls-5" d="M4,46.83a1.06,1.06,0,0,0,1-1.11s0-.06,0-.09a2.85,2.85,0,0,0-.18-1.08l.68-.14a3.52,3.52,0,0,1,.24,1.36,1.84,1.84,0,0,1-1.66,2H3.75A1.92,1.92,0,0,1,1.67,46a.86.86,0,0,1,0-.16,1.69,1.69,0,0,1,1.69-1.69H4Zm-.69-1.69a.83.83,0,0,0-.94.7.41.41,0,0,0,0,.11,1,1,0,0,0,.95.9Z" transform="translate(0 -4.22)"/><path class="cls-5" d="M3,43.4H1.79v-.86h.74a1.17,1.17,0,0,1-.83-1.06,1,1,0,0,1,0-.24h.93a1.41,1.41,0,0,0,0,.29.87.87,0,0,0,.74.88,1.5,1.5,0,0,0,.3,0h2v1Z" transform="translate(0 -4.22)"/><path class="cls-5" d="M12.08,98.3H10.79v-.87h.6a1.52,1.52,0,0,1-.69-1.33,1.76,1.76,0,0,1,1.88-1.65h.12a1.86,1.86,0,0,1,2.08,1.59c0,.06,0,.12,0,.18a1.29,1.29,0,0,1-.52,1.1h2v1Zm1-1a1.22,1.22,0,0,0,.27,0,.91.91,0,0,0,.69-.86c0-.63-.52-1-1.29-1s-1.25.33-1.25,1a.91.91,0,0,0,.73.88,1,1,0,0,0,.25,0Z" transform="translate(0 -4.22)"/><path class="cls-5" d="M13,92.92a1.06,1.06,0,0,0,1-1.11s0-.06,0-.09a2.85,2.85,0,0,0-.18-1.08l.68-.14a3.52,3.52,0,0,1,.24,1.36,1.84,1.84,0,0,1-1.66,2,1.93,1.93,0,0,1-.34,0,1.92,1.92,0,0,1-2.08-1.74.86.86,0,0,1,0-.16,1.69,1.69,0,0,1,1.69-1.69h.2a2.94,2.94,0,0,1,.42,0Zm-.69-1.71a.83.83,0,0,0-1,.64,1,1,0,0,0,0,.17,1,1,0,0,0,1,.9Z" transform="translate(0 -4.22)"/><path class="cls-5" d="M12,89.49H10.79v-.85h.74a1.17,1.17,0,0,1-.83-1.06.89.89,0,0,1,0-.23h.93a1.31,1.31,0,0,0,0,.28.86.86,0,0,0,.74.88h2.3v1Z" transform="translate(0 -4.22)"/><path class="cls-5" d="M13.78,86.69a2.34,2.34,0,0,0,.28-1c0-.43-.18-.62-.44-.62s-.4.16-.56.63c-.27.76-.68,1.08-1.14,1.08a1.3,1.3,0,0,1-1.23-1.37s0-.07,0-.1a2.29,2.29,0,0,1,.23-1l.7.2a1.59,1.59,0,0,0-.23.82c0,.35.17.54.41.54s.37-.18.54-.68c.26-.7.62-1,1.19-1s1.22.56,1.22,1.59A2.55,2.55,0,0,1,14.49,87Z" transform="translate(0 -4.22)"/><path class="cls-5" d="M12.7,79.6a1.93,1.93,0,0,1,2.07,1.78v.22a1.88,1.88,0,0,1-1.75,2,1,1,0,0,1-.25,0,1.92,1.92,0,0,1-2.06-1.77V81.6a1.87,1.87,0,0,1,1.73-2Zm0,2.94c.75,0,1.32-.37,1.32-1s-.56-1-1.34-1c-.61,0-1.3.27-1.3.94s.71,1.06,1.36,1.06Z" transform="translate(0 -4.22)"/><path class="cls-5" d="M12,78.79H10.79v-.87h.58a1.42,1.42,0,0,1-.67-1.24c0-.68.44-1.38,1.67-1.38h2.31v1H12.47c-.56,0-1,.21-1,.74a.81.81,0,0,0,.57.77.86.86,0,0,0,.32,0h2.29v1Z" transform="translate(0 -4.22)"/><path class="cls-5" d="M12.08,72.56H10.79V71.7h.6a1.52,1.52,0,0,1-.69-1.34,1.76,1.76,0,0,1,1.88-1.65h.12a1.87,1.87,0,0,1,2.08,1.61c0,.06,0,.11,0,.17a1.28,1.28,0,0,1-.52,1.09h2v1Zm1-1h.27a.91.91,0,0,0,.69-.87c0-.62-.52-1-1.29-1s-1.25.34-1.25,1a.92.92,0,0,0,.73.88,1,1,0,0,0,.25,0Z" transform="translate(0 -4.22)"/><path class="cls-5" d="M13,67.14a1.05,1.05,0,0,0,1-1.09s0-.07,0-.1a2.85,2.85,0,0,0-.18-1.08l.68-.15a3.52,3.52,0,0,1,.24,1.36,1.84,1.84,0,0,1-1.66,2,1.93,1.93,0,0,1-.34,0,1.92,1.92,0,0,1-2.08-1.76.66.66,0,0,1,0-.14,1.69,1.69,0,0,1,1.69-1.69h.2a2.94,2.94,0,0,1,.42,0Zm-.69-1.71a.86.86,0,0,0-1,.69s0,.08,0,.12a1,1,0,0,0,1,.9Z" transform="translate(0 -4.22)"/><path class="cls-5" d="M12,63.75H10.79V62.9h.74a1.16,1.16,0,0,1-.83-1.07.89.89,0,0,1,0-.23h.93a1.41,1.41,0,0,0,0,.29.87.87,0,0,0,.74.88h2.3v1Z" transform="translate(0 -4.22)"/><path class="cls-5" d="M9,55.66h5.68v.88h-.62a1.4,1.4,0,0,1,.71,1.27,1.79,1.79,0,0,1-1.89,1.68h-.11a1.85,1.85,0,0,1-2.07-1.6c0-.05,0-.1,0-.15a1.23,1.23,0,0,1,.51-1.09H9Zm3.41,1h-.26a.86.86,0,0,0-.69.84c0,.64.56,1,1.28,1s1.24-.35,1.24-1a.89.89,0,0,0-.7-.85h-.87Z" transform="translate(0 -4.22)"/><path class="cls-5" d="M14.68,52.41l-.43.06h0a1.45,1.45,0,0,1,.52,1.15,1.16,1.16,0,0,1-1.1,1.22h-.06c-1,0-1.48-.87-1.47-2.31h-.07c-.25,0-.68.11-.68.79a2.05,2.05,0,0,0,.29,1l-.64.19a2.84,2.84,0,0,1-.34-1.4A1.46,1.46,0,0,1,12,51.55a1,1,0,0,1,.35,0h1.4a7.42,7.42,0,0,0,.94-.06Zm-1.9.13c0,.69.13,1.36.72,1.36a.51.51,0,0,0,.56-.45v-.11a.81.81,0,0,0-.53-.77h-.22Z" transform="translate(0 -4.22)"/><path class="cls-5" d="M10.79,49.92l2.08-.7c.24-.08.54-.16.76-.22h0l-.76-.21-2.08-.65v-1l2.65,1a5.89,5.89,0,0,1,2.5,1.36,2,2,0,0,1,.51,1l-.83.23a1.56,1.56,0,0,0-.28-.58,1.83,1.83,0,0,0-.61-.53.4.4,0,0,0-.18-.07.42.42,0,0,0-.19.06L10.79,51Z" transform="translate(0 -4.22)"/><path class="cls-5" d="M23,69.75v-.43l.56-.53c1.32-1.27,1.92-1.94,1.93-2.72a.93.93,0,0,0-.85-1h-.15a1.77,1.77,0,0,0-1.1.44L23.11,65a2.25,2.25,0,0,1,1.47-.53,1.47,1.47,0,0,1,1.59,1.32V66c0,1-.69,1.73-1.79,2.79l-.41.38h2.3v.58Z" transform="translate(0 -4.22)"/><path class="cls-5" d="M30.47,67.14c0,1.77-.65,2.74-1.81,2.74-1,0-1.7-1-1.71-2.67s.75-2.7,1.8-2.7S30.47,65.44,30.47,67.14Zm-2.82.08c0,1.35.42,2.12,1.05,2.12s1.07-.84,1.07-2.17-.33-2.12-1.06-2.12-1,.71-1,2.09Z" transform="translate(0 -4.22)"/><path class="cls-5" d="M34.62,67.14c0,1.77-.66,2.74-1.81,2.74s-1.7-1-1.72-2.67.75-2.7,1.81-2.7S34.62,65.44,34.62,67.14Zm-2.83.08c0,1.35.42,2.12,1.06,2.12s1.06-.84,1.06-2.17-.33-2.12-1-2.12-1.12.71-1.12,2.09Z" transform="translate(0 -4.22)"/><path class="cls-5" d="M23.12,42.3a2.32,2.32,0,0,0,1.15.33c.91,0,1.19-.58,1.18-1,0-.73-.67-1-1.34-1h-.4V40.1h.4c.51,0,1.15-.26,1.15-.88,0-.41-.26-.78-.91-.78a2,2,0,0,0-1,.34l-.18-.51a2.51,2.51,0,0,1,1.36-.4c1,0,1.49.61,1.49,1.24a1.31,1.31,0,0,1-1,1.23h0a1.36,1.36,0,0,1,1.16,1.34c0,.83-.65,1.56-1.9,1.56a2.68,2.68,0,0,1-1.35-.36Z" transform="translate(0 -4.22)"/><path class="cls-5" d="M30.47,40.45c0,1.77-.65,2.75-1.81,2.75-1,0-1.7-1-1.71-2.67s.75-2.71,1.8-2.71S30.47,38.8,30.47,40.45Zm-2.82.08c0,1.36.42,2.12,1.05,2.12s1.07-.84,1.07-2.16-.33-2.12-1.06-2.12-1,.77-1,2.16Z" transform="translate(0 -4.22)"/><path class="cls-5" d="M34.62,40.45c0,1.77-.66,2.75-1.81,2.75s-1.7-1-1.72-2.67.75-2.71,1.81-2.71S34.62,38.8,34.62,40.45Zm-2.83.08c0,1.36.42,2.12,1.06,2.12s1.06-.84,1.06-2.16-.33-2.12-1-2.12S31.79,39.14,31.79,40.53Z" transform="translate(0 -4.22)"/><path class="cls-5" d="M24.47,91.14h0l-.91.49-.13-.53,1.13-.61h.6v5.19h-.69Z" transform="translate(0 -4.22)"/><path class="cls-5" d="M30.47,93c0,1.77-.65,2.74-1.81,2.74-1,0-1.7-1-1.71-2.67s.75-2.7,1.8-2.7S30.47,91.34,30.47,93Zm-2.82.08c0,1.35.42,2.12,1.05,2.12s1.07-.84,1.07-2.17-.33-2.12-1.06-2.12-1,.75-1,2.17Z" transform="translate(0 -4.22)"/><path class="cls-5" d="M34.62,93c0,1.77-.66,2.74-1.81,2.74s-1.7-1-1.72-2.67.75-2.7,1.81-2.7S34.62,91.34,34.62,93Zm-2.83.08c0,1.35.42,2.12,1.06,2.12s1.06-.84,1.06-2.17-.33-2.12-1-2.12-1.12.75-1.12,2.17Z" transform="translate(0 -4.22)"/><path class="cls-5" d="M34.61,119.65c0,1.76-.65,2.74-1.8,2.74s-1.71-1-1.72-2.67.75-2.7,1.81-2.7S34.61,118,34.61,119.65Zm-2.82.07c0,1.36.42,2.12,1.06,2.12s1.06-.84,1.06-2.16-.33-2.12-1-2.12S31.79,118.31,31.79,119.72Z" transform="translate(0 -4.22)"/><path class="cls-5" d="M77.09,109.48H71.7v-.76L74.47,107a16.81,16.81,0,0,1,1.75-1h0c-.72.06-1.38.08-2.22.08H71.7v-.66h5.39v.7l-2.74,1.72a17.55,17.55,0,0,1-1.8,1h0c.68,0,1.33-.06,2.23-.06h2.3Z" transform="translate(0 -4.22)"/><path class="cls-5" d="M72.13,103.45a.44.44,0,0,1,.37.5.45.45,0,0,1-.37.37.43.43,0,0,1-.44-.42v0a.42.42,0,0,1,.41-.43Zm5,.79H73.22v-.71h3.87Z" transform="translate(0 -4.22)"/><path class="cls-5" d="M73.22,99h3.31a2.24,2.24,0,0,1,1.77.55,2.07,2.07,0,0,1,.46,1.41,2.52,2.52,0,0,1-.32,1.29l-.54-.18a2.14,2.14,0,0,0,.31-1.13c0-.72-.38-1.25-1.35-1.25h-.39a1.38,1.38,0,0,1,.65,1.23,1.72,1.72,0,0,1-1.79,1.65h-.1a1.86,1.86,0,0,1-2-1.69v-.05a1.29,1.29,0,0,1,.67-1.21h-.58Zm1.53.73a.86.86,0,0,0-.32,0,1,1,0,0,0-.75,1c0,.67.57,1.15,1.46,1.15s1.4-.38,1.4-1.14a1.05,1.05,0,0,0-.72-1,1.21,1.21,0,0,0-.38,0Z" transform="translate(0 -4.22)"/><path class="cls-5" d="M75.28,97.5a1.24,1.24,0,0,0,1.34-1.13.89.89,0,0,0,0-.23,2.44,2.44,0,0,0-.15-1L77,95a3.18,3.18,0,0,1,.24,1.29,1.8,1.8,0,0,1-1.69,1.91h-.31a1.88,1.88,0,0,1-2.08-1.66s0-.1,0-.15a1.63,1.63,0,0,1,1.65-1.61h.5Zm-.5-2.06a1,1,0,0,0-1.14.84.86.86,0,0,0,0,.16,1.18,1.18,0,0,0,1.15,1.08Z" transform="translate(0 -4.22)"/><path class="cls-5" d="M74.47,93.88H73.26v-.62H74a1.15,1.15,0,0,1-.85-1.07.67.67,0,0,1,0-.2h.67a1,1,0,0,0,0,.24,1,1,0,0,0,.91,1h2.39v.69Z" transform="translate(0 -4.22)"/><path class="cls-5" d="M72.13,90.48a.44.44,0,0,1,0,.88.43.43,0,0,1-.44-.42v0a.42.42,0,0,1,.4-.44Zm5,.79H73.22v-.71h3.87Z" transform="translate(0 -4.22)"/><path class="cls-5" d="M77.09,87.25l-.49.06h0a1.48,1.48,0,0,1,.58,1.19,1.12,1.12,0,0,1-1,1.18h-.08c-.93,0-1.44-.83-1.43-2.33h-.08a.8.8,0,0,0-.9.69.61.61,0,0,0,0,.19,1.88,1.88,0,0,0,.29,1l-.47.16a2.44,2.44,0,0,1-.34-1.27c0-1.18.81-1.47,1.58-1.47h1.45a5.82,5.82,0,0,0,.93-.07Zm-2,.11c0,.76.12,1.64.87,1.64a.63.63,0,0,0,.68-.58v-.09A1,1,0,0,0,76,87.4a.45.45,0,0,0-.23,0Z" transform="translate(0 -4.22)"/><path class="cls-5" d="M61.2,110.92h5.39v.7H61.2Z" transform="translate(0 -4.22)"/><path class="cls-5" d="M63.77,109.73h-1v-.59h.64a1.43,1.43,0,0,1-.72-1.28c0-.53.32-1.37,1.64-1.37h2.31v.65H64.36c-.62,0-1.14.23-1.14.89a1,1,0,0,0,.72,1,.91.91,0,0,0,.33,0h2.32v.71Z" transform="translate(0 -4.22)"/><path class="cls-5" d="M60.92,102h4.67a8.34,8.34,0,0,0,1,0v.64h-.67a1.45,1.45,0,0,1,.76,1.32,1.76,1.76,0,0,1-1.86,1.67h-.14A1.85,1.85,0,0,1,62.62,104s0-.09,0-.13a1.28,1.28,0,0,1,.59-1.16H60.92Zm3.38.7a1.5,1.5,0,0,0-.3,0,1,1,0,0,0-.81,1c0,.73.64,1.16,1.49,1.16s1.43-.39,1.43-1.15a1.06,1.06,0,0,0-.84-1h-1Z" transform="translate(0 -4.22)"/><path class="cls-5" d="M61.64,100a.44.44,0,0,1,.37.5.45.45,0,0,1-.37.37.43.43,0,0,1-.44-.42v0a.42.42,0,0,1,.41-.43Zm5,.79H62.72v-.71h3.87Z" transform="translate(0 -4.22)"/><path class="cls-5" d="M66.59,96.76l-.48.06h0A1.44,1.44,0,0,1,66.68,98a1.1,1.1,0,0,1-1,1.19h-.1c-.94,0-1.45-.83-1.44-2.33h-.08a.8.8,0,0,0-.9.69.61.61,0,0,0,0,.19,2.07,2.07,0,0,0,.29,1L63,98.9a2.35,2.35,0,0,1-.34-1.27c0-1.19.8-1.47,1.58-1.47h1.45a5.62,5.62,0,0,0,.92-.07Zm-2,.1c0,.77.12,1.64.87,1.64a.62.62,0,0,0,.67-.57v-.09a1,1,0,0,0-.65-.94.81.81,0,0,0-.22,0Z" transform="translate(0 -4.22)"/><path class="cls-5" d="M50.71,112v-.69h2.6c-.21-.14-.4-.28-.58-.42l-2-1.65v-.86l2.29,2,3.1-2.1V109l-2.65,1.75.59.51h2.06V112Z" transform="translate(0 -4.22)"/><path class="cls-5" d="M54.29,107.28a1.24,1.24,0,0,0,1.34-1.13,1.34,1.34,0,0,0,0-.2,2.32,2.32,0,0,0-.2-1.07l.51-.12a3.18,3.18,0,0,1,.24,1.29,1.8,1.8,0,0,1-1.69,1.9h-.26a1.88,1.88,0,0,1-2.08-1.66c0-.05,0-.1,0-.15a1.63,1.63,0,0,1,1.65-1.61h.5Zm-.5-2.06a1,1,0,0,0-1.14.84.86.86,0,0,0,0,.16,1.18,1.18,0,0,0,1.15,1.08Z" transform="translate(0 -4.22)"/><path class="cls-5" d="M53.28,103.66h-1V103h.64a1.44,1.44,0,0,1-.73-1.28c0-.54.32-1.37,1.65-1.37h2.31v.7H53.87c-.63,0-1.15.24-1.15.9a1,1,0,0,0,.72.94.91.91,0,0,0,.33,0H56.1v.7Z" transform="translate(0 -4.22)"/><path class="cls-5" d="M52.23,99l2.24-.83.8-.25h0l-.81-.25-2.27-.77v-.73l2.76,1a5.94,5.94,0,0,1,2.42,1.33,1.88,1.88,0,0,1,.45.86l-.59.18a1.64,1.64,0,0,0-.34-.62,2.15,2.15,0,0,0-.78-.59h-.36l-3.56,1.43Z" transform="translate(0 -4.22)"/><path class="cls-5" d="M56.1,93.31l-.49.06h0a1.45,1.45,0,0,1,.58,1.19,1.12,1.12,0,0,1-1,1.18h-.08c-.93,0-1.44-.83-1.43-2.33h-.09a.8.8,0,0,0-.89.7.54.54,0,0,0,0,.18,1.88,1.88,0,0,0,.29,1l-.47.16a2.44,2.44,0,0,1-.34-1.27c0-1.19.81-1.47,1.58-1.47h1.45a5.82,5.82,0,0,0,.93-.07Zm-2,.11c0,.76.12,1.64.87,1.64a.63.63,0,0,0,.68-.58v-.09a1,1,0,0,0-.65-.93.45.45,0,0,0-.23,0Z" transform="translate(0 -4.22)"/><path class="cls-5" d="M40.29,113.62a6,6,0,0,1-.11-1.27,2.17,2.17,0,0,1,.39-1.48,1.11,1.11,0,0,1,1-.45,1.27,1.27,0,0,1,1.18.91h0a1.39,1.39,0,0,1,1.35-1.11,1.46,1.46,0,0,1,1.08.45,2.77,2.77,0,0,1,.5,1.87,9.77,9.77,0,0,1-.06,1.08Zm2.2-.7v-.63c0-.74-.38-1.17-.9-1.17s-.88.48-.88,1.19a3.11,3.11,0,0,0,0,.61Zm2.59,0a5.61,5.61,0,0,0,0-.58c0-.72-.27-1.39-1-1.39s-1,.64-1,1.4v.57Z" transform="translate(0 -4.22)"/><path class="cls-5" d="M45.6,107.14l-.48.06h0a1.46,1.46,0,0,1,.57,1.19,1.11,1.11,0,0,1-1,1.18h-.09c-.94,0-1.45-.83-1.44-2.33h-.08a.8.8,0,0,0-.89.7.54.54,0,0,0,0,.18,2,2,0,0,0,.28,1l-.46.16a2.35,2.35,0,0,1-.34-1.27c0-1.19.8-1.47,1.58-1.47h1.45a5.62,5.62,0,0,0,.92-.07Zm-2,.11c0,.76.12,1.63.87,1.63a.62.62,0,0,0,.67-.57v-.09a1,1,0,0,0-.65-.93.81.81,0,0,0-.22,0Z" transform="translate(0 -4.22)"/><path class="cls-5" d="M42.78,105.45H41.73v-.62h.64a1.43,1.43,0,0,1-.72-1.28c0-.53.32-1.37,1.64-1.37H45.6v.71H43.37c-.62,0-1.14.23-1.14.89a1,1,0,0,0,.72,1,1.26,1.26,0,0,0,.33,0H45.6v.7Z" transform="translate(0 -4.22)"/><path class="cls-5" d="M41.73,97.67H45a2.24,2.24,0,0,1,1.77.55,2.07,2.07,0,0,1,.46,1.41,2.58,2.58,0,0,1-.31,1.28l-.54-.17a2.19,2.19,0,0,0,.3-1.14c0-.72-.37-1.25-1.35-1.25h-.43a1.38,1.38,0,0,1,.65,1.23,1.73,1.73,0,0,1-1.82,1.65H43.7a1.87,1.87,0,0,1-2-1.71v0a1.29,1.29,0,0,1,.67-1.21h-.59Zm1.53.73a.86.86,0,0,0-.32,0,1,1,0,0,0-.74,1c0,.67.56,1.15,1.46,1.15s1.39-.39,1.39-1.15a1,1,0,0,0-.72-1,1.15,1.15,0,0,0-.37-.06Z" transform="translate(0 -4.22)"/><path class="cls-5" d="M39.93,96.54v-.71H45.6v.71Z" transform="translate(0 -4.22)"/><path class="cls-5" d="M45.6,92.51h-.48a1.44,1.44,0,0,1,.57,1.18,1.11,1.11,0,0,1-1,1.18h-.09c-.94,0-1.45-.83-1.44-2.32h-.08a.79.79,0,0,0-.89.68.67.67,0,0,0,0,.2,2,2,0,0,0,.28,1l-.46.16a2.35,2.35,0,0,1-.34-1.27c0-1.18.8-1.47,1.58-1.47h1.45a7,7,0,0,0,.92-.06Zm-2,.1c0,.77.12,1.64.87,1.64a.62.62,0,0,0,.67-.57v-.1a1,1,0,0,0-.65-.93.81.81,0,0,0-.22,0Z" transform="translate(0 -4.22)"/><path class="cls-5" d="M39.93,87.45H45.6v.63h-.67a1.43,1.43,0,0,1,.76,1.32,1.75,1.75,0,0,1-1.85,1.66h-.15a1.84,1.84,0,0,1-2.06-1.59s0-.09,0-.14a1.31,1.31,0,0,1,.59-1.17H39.93Zm3.38.7a1.12,1.12,0,0,0-1.11,1c0,.73.64,1.16,1.49,1.16s1.43-.38,1.43-1.14a1,1,0,0,0-.84-1,.76.76,0,0,0-.3,0Z" transform="translate(0 -4.22)"/><path class="cls-5" d="M43.8,85.89a1.24,1.24,0,0,0,1.34-1.13,1.34,1.34,0,0,0,0-.2,2.61,2.61,0,0,0-.2-1.07l.5-.12a3,3,0,0,1,.24,1.29A1.79,1.79,0,0,1,44,86.57a1.9,1.9,0,0,1-.34,0,1.88,1.88,0,0,1-2.07-1.67.66.66,0,0,1,0-.14,1.63,1.63,0,0,1,1.63-1.63l.24,0h.33Zm-.51-2.06a1,1,0,0,0-1.13.85.76.76,0,0,0,0,.15,1.16,1.16,0,0,0,1.14,1.08Z" transform="translate(0 -4.22)"/><path class="cls-5" d="M44.88,82.37a1.81,1.81,0,0,0,.28-.93c0-.51-.25-.75-.57-.75s-.52.2-.71.72c-.25.69-.63,1-1.1,1a1.19,1.19,0,0,1-1.13-1.25v0a2,2,0,0,1,.24-1l.51.17a1.48,1.48,0,0,0-.23.79c0,.42.24.65.53.65s.47-.23.66-.73c.25-.68.59-1,1.16-1a1.3,1.3,0,0,1,1.16,1.45,2.19,2.19,0,0,1-.26,1.09Z" transform="translate(0 -4.22)"/><path class="cls-5" d="M39.93,79.14v-.7h2.41a1.27,1.27,0,0,1-.49-.51,1.42,1.42,0,0,1-.2-.72c0-.52.32-1.35,1.65-1.35h2.3v.71H43.38c-.62,0-1.15.23-1.15.89a1,1,0,0,0,.7.94.78.78,0,0,0,.34,0H45.6v.7Z" transform="translate(0 -4.22)"/><path class="cls-5" d="M82.19,108.14h5.39v.69H82.19Z" transform="translate(0 -4.22)"/><path class="cls-5" d="M84.76,106.9H83.71v-.63h.64a1.44,1.44,0,0,1-.73-1.28c0-.54.32-1.37,1.65-1.37h2.31v.71H85.35c-.62,0-1.14.23-1.14.89a1,1,0,0,0,.72.94.76.76,0,0,0,.33,0h2.32v.71Z" transform="translate(0 -4.22)"/><path class="cls-5" d="M81.91,99.14h5.67v.63h-.67a1.45,1.45,0,0,1,.76,1.32,1.76,1.76,0,0,1-1.86,1.67h-.14a1.87,1.87,0,0,1-2.07-1.64.38.38,0,0,1,0-.1,1.28,1.28,0,0,1,.6-1.17H81.91Zm3.38.71H85a1,1,0,0,0-.81,1c0,.72.64,1.15,1.49,1.15s1.43-.38,1.43-1.14a1.06,1.06,0,0,0-.84-1,1.5,1.5,0,0,0-.3,0Z" transform="translate(0 -4.22)"/><path class="cls-5" d="M85.62,94.44a1.89,1.89,0,0,1,2,1.78v.15a1.84,1.84,0,0,1-1.82,1.86h-.18a1.89,1.89,0,0,1-2.05-1.71,1.34,1.34,0,0,1,0-.2,1.84,1.84,0,0,1,1.8-1.88Zm0,3.07c.84,0,1.48-.49,1.48-1.17a1.32,1.32,0,0,0-1.46-1.2c-.66,0-1.49.33-1.49,1.16s.77,1.21,1.51,1.21Z" transform="translate(0 -4.22)"/><path class="cls-5" d="M84.76,93.55H83.71v-.62h.64a1.39,1.39,0,0,1-.73-1.27c0-.54.32-1.37,1.65-1.37h2.31V91H85.35c-.62,0-1.14.23-1.14.9a1,1,0,0,0,.72.94,1.26,1.26,0,0,0,.33,0h2.32v.7Z" transform="translate(0 -4.22)"/><path class="cls-5" d="M85.78,88.72a1.23,1.23,0,0,0,1.34-1.11.81.81,0,0,0,0-.22,2.61,2.61,0,0,0-.2-1.07l.5-.12a3.18,3.18,0,0,1,.24,1.29A1.79,1.79,0,0,1,86,89.4a1.9,1.9,0,0,1-.34,0,1.87,1.87,0,0,1-2.08-1.64s0-.11,0-.17A1.63,1.63,0,0,1,85.24,86h.49Zm-.51-2.06a1,1,0,0,0-1.13.85.76.76,0,0,0,0,.15,1.16,1.16,0,0,0,1.14,1.08Z" transform="translate(0 -4.22)"/><path class="cls-5" d="M86.86,85.2a1.81,1.81,0,0,0,.28-.93c0-.51-.25-.75-.57-.75s-.52.2-.72.72c-.24.7-.63,1-1.09,1A1.19,1.19,0,0,1,83.61,84s0-.07,0-.1a2,2,0,0,1,.24-1l.52.17a1.48,1.48,0,0,0-.23.79c0,.42.24.65.53.65s.46-.23.66-.73c.25-.68.59-1,1.16-1a1.3,1.3,0,0,1,1.16,1.45,2.19,2.19,0,0,1-.26,1.09Z" transform="translate(0 -4.22)"/><path class="cls-5" d="M82.63,81.14a.44.44,0,0,1,.37.5.45.45,0,0,1-.37.37.43.43,0,0,1-.45-.41v0a.43.43,0,0,1,.43-.43Zm5,.79H83.71v-.71h3.87Z" transform="translate(0 -4.22)"/><path class="cls-5" d="M87.58,77.92,87.1,78h0a1.44,1.44,0,0,1,.57,1.18,1.1,1.1,0,0,1-1,1.19h-.1c-.94,0-1.45-.83-1.44-2.33H85a.8.8,0,0,0-.9.69.61.61,0,0,0,0,.19,2.07,2.07,0,0,0,.29,1l-.46.16a2.45,2.45,0,0,1-.35-1.27c0-1.19.81-1.47,1.59-1.47h1.44a5.82,5.82,0,0,0,.93-.07Zm-2,.1c0,.77.12,1.64.87,1.64a.62.62,0,0,0,.67-.57V79a1,1,0,0,0-.65-.94.81.81,0,0,0-.22,0Z" transform="translate(0 -4.22)"/><path class="cls-5" d="M95.55,105.51v2.09h1.92v-2.33h.59v3H92.67v-2.91h.58v2.21H95v-2.09Z" transform="translate(0 -4.22)"/><path class="cls-5" d="M94.21,101.05h3.31a2.22,2.22,0,0,1,1.76.55,2,2,0,0,1,.47,1.41,2.52,2.52,0,0,1-.32,1.29l-.54-.18A2.14,2.14,0,0,0,99.2,103c0-.72-.38-1.25-1.35-1.25h-.44a1.38,1.38,0,0,1,.65,1.23,1.72,1.72,0,0,1-1.79,1.65h-.1a1.86,1.86,0,0,1-2-1.69v0a1.29,1.29,0,0,1,.67-1.21h-.58Zm1.52.73a.81.81,0,0,0-.31,0,1,1,0,0,0-.75,1c0,.67.57,1.15,1.46,1.15s1.4-.38,1.4-1.14a1.05,1.05,0,0,0-.72-1,1.2,1.2,0,0,0-.38-.05Z" transform="translate(0 -4.22)"/><path class="cls-5" d="M94.21,99.66l2.28-.85c.26-.09.56-.19.8-.25h0l-.81-.24-2.27-.77v-.74l2.76,1a5.94,5.94,0,0,1,2.42,1.33,1.88,1.88,0,0,1,.45.86l-.59.18a1.64,1.64,0,0,0-.34-.62,2.15,2.15,0,0,0-.78-.59.49.49,0,0,0-.17-.06h-.19l-3.56,1.43Z" transform="translate(0 -4.22)"/><path class="cls-5" d="M95.47,96.14H94.21V95.5h.66a1.55,1.55,0,0,1-.75-1.38A1.76,1.76,0,0,1,96,92.47h.14A1.82,1.82,0,0,1,98.18,94a1.39,1.39,0,0,1-.59,1.39h2.1v.71Zm1-.69h.29a1.09,1.09,0,0,0,.82-1.06c0-.74-.6-1.17-1.49-1.17s-1.44.4-1.44,1.15a1.11,1.11,0,0,0,.87,1.06,1.35,1.35,0,0,0,.29,0Z" transform="translate(0 -4.22)"/><path class="cls-5" d="M93.1,90.74h1.11v-1h.53v1h2.09c.48,0,.75-.13.75-.52a1.41,1.41,0,0,0,0-.41h.53a1.65,1.65,0,0,1,.1.62,1,1,0,0,1-.3.76,1.43,1.43,0,0,1-1,.27H94.8v.6h-.53v-.6h-.93Z" transform="translate(0 -4.22)"/><path class="cls-5" d="M103.25,106.44a6.74,6.74,0,0,1-.11-1.27,2.23,2.23,0,0,1,.39-1.48,1.14,1.14,0,0,1,1-.44,1.27,1.27,0,0,1,1.18.91h0a1.4,1.4,0,0,1,1.36-1.11,1.46,1.46,0,0,1,1.08.45,2.74,2.74,0,0,1,.5,1.86,9.77,9.77,0,0,1-.06,1.08Zm2.21-.69v-.61c0-.74-.38-1.17-.9-1.17s-.88.48-.88,1.18a2.56,2.56,0,0,0,0,.62Zm2.58,0a2.81,2.81,0,0,0,0-.58c0-.72-.27-1.39-1-1.39s-1,.63-1,1.39v.58Z" transform="translate(0 -4.22)"/><path class="cls-5" d="M105.91,102.14H104.7v-.61h.76a1.15,1.15,0,0,1-.85-1.07.67.67,0,0,1,0-.2h.66a1,1,0,0,0,0,.24,1,1,0,0,0,.9.94,1.82,1.82,0,0,0,.33,0h2.06v.7Z" transform="translate(0 -4.22)"/><path class="cls-5" d="M108.57,97.37l-.49.06h0a1.45,1.45,0,0,1,.58,1.19,1.11,1.11,0,0,1-1,1.18h-.09c-.94,0-1.45-.83-1.44-2.33H106a.8.8,0,0,0-.9.69.61.61,0,0,0,0,.19,2.07,2.07,0,0,0,.29,1l-.46.16a2.36,2.36,0,0,1-.35-1.27c0-1.18.81-1.47,1.59-1.47h1.44a5.82,5.82,0,0,0,.93-.07Zm-2,.11c0,.77.12,1.64.87,1.64a.63.63,0,0,0,.67-.59v-.08a1,1,0,0,0-.65-.93h-.22Z" transform="translate(0 -4.22)"/><path class="cls-5" d="M108.16,96.14l-2.27-1.75-.6-.5h0V96h-.57V93h.44l2.25,1.72.61.5h0V92.94h.56v3.2Z" transform="translate(0 -4.22)"/><path class="cls-5" d="M103.61,91.45a.43.43,0,0,1,.44.42v0a.42.42,0,0,1-.42.42h0a.44.44,0,0,1-.13-.87A.29.29,0,0,1,103.61,91.45Zm5,.79h-3.87v-.71h3.87Z" transform="translate(0 -4.22)"/><path class="cls-5" d="M102.89,90.36v-.7h5.68v.7Z" transform="translate(0 -4.22)"/><path class="cls-5" d="M118.89,100.27a3.29,3.29,0,0,1,.26,1.42,2.52,2.52,0,0,1-2.37,2.66,2.16,2.16,0,0,1-.36,0,2.68,2.68,0,0,1-2.83-2.52v-.29a2.81,2.81,0,0,1,.24-1.28l.57.17a2.4,2.4,0,0,0-.23,1.09,2,2,0,0,0,1.88,2.11,2,2,0,0,0,.35,0,2,2,0,0,0,2.15-1.83,1.93,1.93,0,0,0,0-.24,3,3,0,0,0-.22-1.14Z" transform="translate(0 -4.22)"/><path class="cls-5" d="M113.39,99.42v-.7h2.41a1.24,1.24,0,0,1-.49-.5,1.42,1.42,0,0,1-.2-.72c0-.52.32-1.36,1.65-1.36h2.31v.71h-2.23c-.62,0-1.15.23-1.15.89a1,1,0,0,0,.71,1,.76.76,0,0,0,.33,0h2.34v.7Z" transform="translate(0 -4.22)"/><path class="cls-5" d="M114.11,94.19a.44.44,0,1,1,0,.88h0a.43.43,0,0,1-.44-.42v0a.42.42,0,0,1,.4-.44Zm5,.79h-3.87v-.71h3.87Z" transform="translate(0 -4.22)"/><path class="cls-5" d="M116.24,93.14h-1v-.63h.64a1.44,1.44,0,0,1-.73-1.28c0-.54.32-1.37,1.65-1.37h2.31v.71h-2.23c-.63,0-1.15.23-1.15.89a1,1,0,0,0,.72.94.92.92,0,0,0,.33,0h2.33v.74Z" transform="translate(0 -4.22)"/><path class="cls-5" d="M119.07,86.52l-.49.06h0a1.46,1.46,0,0,1,.57,1.19,1.11,1.11,0,0,1-1,1.18H118c-.93,0-1.44-.83-1.44-2.33h-.08a.8.8,0,0,0-.89.7.54.54,0,0,0,0,.18,1.88,1.88,0,0,0,.29,1l-.47.16a2.35,2.35,0,0,1-.34-1.27c0-1.18.81-1.47,1.58-1.47h1.45a5.82,5.82,0,0,0,.93-.07Zm-2,.11c0,.77.12,1.64.87,1.64a.63.63,0,0,0,.68-.58V87.6a1,1,0,0,0-.65-.93.45.45,0,0,0-.23,0Z" transform="translate(0 -4.22)"/><path class="cls-5" d="M124.76,101v1.64h-.59v-4h.59v1.65h4.8v.7Z" transform="translate(0 -4.22)"/><path class="cls-5" d="M123.89,98.08v-.7h2.41a1.33,1.33,0,0,1-.5-.5,1.42,1.42,0,0,1-.2-.72c0-.52.32-1.35,1.66-1.35h2.3v.7h-2.22c-.62,0-1.15.23-1.15.9a1,1,0,0,0,.7.94.78.78,0,0,0,.34.05h2.33v.7Z" transform="translate(0 -4.22)"/><path class="cls-5" d="M129.56,91.5l-.49.06h0a1.45,1.45,0,0,1,.58,1.18,1.1,1.1,0,0,1-1,1.19h-.1c-.94,0-1.45-.84-1.44-2.33H127a.8.8,0,0,0-.9.69.61.61,0,0,0,0,.19,2.07,2.07,0,0,0,.29,1l-.46.16a2.42,2.42,0,0,1-.35-1.28c0-1.18.81-1.47,1.59-1.47h1.44a4.85,4.85,0,0,0,.93-.06Zm-2,.1c0,.77.12,1.64.87,1.64a.62.62,0,0,0,.67-.57v-.09a1,1,0,0,0-.65-.94.81.81,0,0,0-.22,0Z" transform="translate(0 -4.22)"/><path class="cls-5" d="M124.6,89a.43.43,0,0,1,.44.42v0a.42.42,0,0,1-.42.42h0a.43.43,0,0,1-.44-.42v0a.42.42,0,0,1,.41-.43Zm5,.79h-3.87v-.71h3.87Z" transform="translate(0 -4.22)"/><path class="cls-5" d="M123.89,87.91v-.7h5.67v.7Z" transform="translate(0 -4.22)"/><path class="cls-5" d="M129.56,83.88l-.49.06h0a1.45,1.45,0,0,1,.58,1.19,1.11,1.11,0,0,1-1,1.18h-.09c-.94,0-1.45-.83-1.44-2.33H127a.8.8,0,0,0-.9.69.61.61,0,0,0,0,.19,2.07,2.07,0,0,0,.29,1L126,86a2.36,2.36,0,0,1-.35-1.27c0-1.18.81-1.47,1.59-1.47h1.44a5.82,5.82,0,0,0,.93-.07Zm-2,.11c0,.77.12,1.64.87,1.64a.63.63,0,0,0,.67-.59V85a1,1,0,0,0-.65-.93.81.81,0,0,0-.22,0Z" transform="translate(0 -4.22)"/><path class="cls-5" d="M126.74,82.14h-1v-.62h.64a1.44,1.44,0,0,1-.73-1.28c0-.53.32-1.36,1.65-1.36h2.31v.7h-2.23c-.62,0-1.14.23-1.14.9a1,1,0,0,0,.72.94.86.86,0,0,0,.32,0h2.33v.7Z" transform="translate(0 -4.22)"/><path class="cls-5" d="M123.89,74.39h5.67V75h-.67a1.42,1.42,0,0,1,.76,1.31A1.76,1.76,0,0,1,127.79,78h-.14a1.85,1.85,0,0,1-2.07-1.6s0-.09,0-.14a1.26,1.26,0,0,1,.6-1.16h-2.31Zm3.38.7a1.5,1.5,0,0,0-.3,0,1,1,0,0,0-.81,1c0,.73.64,1.16,1.49,1.16s1.43-.39,1.43-1.15a1.06,1.06,0,0,0-.84-1h-1Z" transform="translate(0 -4.22)"/><path class="cls-5" d="M137.69,97c-.75,0-1.66.09-2.33.08h0c.63.18,1.31.41,2,.68l2.61,1v.53l-2.55.86c-.76.25-1.46.47-2.1.62h0a20.25,20.25,0,0,1,2.39.1l2.31.15v.66l-5.39-.38v-.88l2.6-.92c.67-.23,1.26-.41,1.82-.55h0c-.54-.14-1.14-.33-1.82-.57l-2.6-1v-.89l5.39-.33v.68Z" transform="translate(0 -4.22)"/><path class="cls-5" d="M138.25,94.79a1.24,1.24,0,0,0,1.34-1.13,1.34,1.34,0,0,0,0-.2,2.61,2.61,0,0,0-.2-1.07l.51-.12a3.13,3.13,0,0,1,.24,1.28,1.8,1.8,0,0,1-1.67,1.92h-.33a1.88,1.88,0,0,1-2.07-1.67.76.76,0,0,1,0-.15A1.63,1.63,0,0,1,137.73,92h.15a1.82,1.82,0,0,1,.33,0Zm-.5-2.07a1,1,0,0,0-1.14.84.86.86,0,0,0,0,.16,1.18,1.18,0,0,0,1.15,1.08Z" transform="translate(0 -4.22)"/><path class="cls-5" d="M136.19,90.84l.83-.55c.21-.14.41-.26.63-.39h0c-.23-.12-.43-.25-.64-.38l-.82-.54v-.76l1.87,1.32,2-1.36V89l-.88.57c-.22.15-.44.27-.67.41h0c.23.12.44.26.67.4l.88.56v.78l-2-1.38-1.89,1.32Z" transform="translate(0 -4.22)"/><path class="cls-5" d="M135.1,86.68a.44.44,0,0,1,.37.5.45.45,0,0,1-.37.37.43.43,0,0,1-.44-.42v0a.42.42,0,0,1,.41-.43Zm5,.79h-3.87v-.71h3.87Z" transform="translate(0 -4.22)"/><path class="cls-5" d="M139.91,82.84a2.51,2.51,0,0,1,.23,1.11,1.84,1.84,0,0,1-1.75,1.93h-.25a2,2,0,0,1-2-2v-.13a2.29,2.29,0,0,1,.2-1l.54.16a1.63,1.63,0,0,0-.18.81,1.46,1.46,0,0,0,2.91,0,2,2,0,0,0-.2-.87Z" transform="translate(0 -4.22)"/><path class="cls-5" d="M138.09,78.51a1.89,1.89,0,0,1,2,1.78v.14a1.85,1.85,0,0,1-1.81,1.87h-.19a1.88,1.88,0,0,1-2-1.72,1.34,1.34,0,0,1,0-.2,1.83,1.83,0,0,1,1.79-1.87Zm0,3.07c.85,0,1.49-.49,1.49-1.18s-.64-1.17-1.51-1.17c-.65,0-1.48.33-1.48,1.16s.8,1.19,1.54,1.19Z" transform="translate(0 -4.22)"/><path class="cls-5" d="M150.38,96.89a3.61,3.61,0,0,1,.25,1.42,2.52,2.52,0,0,1-2.37,2.66,2.16,2.16,0,0,1-.36,0,2.68,2.68,0,0,1-2.83-2.52,1.61,1.61,0,0,1,0-.31,3.1,3.1,0,0,1,.24-1.28l.57.17a2.52,2.52,0,0,0-.22,1.08,2.21,2.21,0,0,0,4.38.29,2.26,2.26,0,0,0,0-.26,2.6,2.6,0,0,0-.23-1.13Z" transform="translate(0 -4.22)"/><path class="cls-5" d="M144.87,96v-.71h2.42a1.36,1.36,0,0,1-.5-.51,1.42,1.42,0,0,1-.2-.72c0-.52.32-1.35,1.66-1.35h2.3v.71h-2.22c-.63,0-1.15.23-1.15.89a1,1,0,0,0,.7.94.78.78,0,0,0,.34,0h2.33v.71Z" transform="translate(0 -4.22)"/><path class="cls-5" d="M145.59,90.81a.44.44,0,0,1,.13.87h-.13a.43.43,0,0,1-.44-.42v0a.42.42,0,0,1,.41-.43Zm5,.79h-3.87v-.71h3.87Z" transform="translate(0 -4.22)"/><path class="cls-5" d="M144.87,89.72V89h5.68v.7Z" transform="translate(0 -4.22)"/><path class="cls-5" d="M148.74,87.44a1.23,1.23,0,0,0,1.35-1.1,1.62,1.62,0,0,0,0-.22,2.61,2.61,0,0,0-.2-1.07l.5-.12a3.13,3.13,0,0,1,.24,1.28A1.8,1.8,0,0,1,149,88.12h-.27a1.88,1.88,0,0,1-2.08-1.66s0-.11,0-.16a1.63,1.63,0,0,1,1.67-1.61h.48Zm-.5-2.06a1,1,0,0,0-1.13.85.76.76,0,0,0,0,.15,1.17,1.17,0,0,0,1.14,1.08Z" transform="translate(0 -4.22)"/><path class="cls-5" d="M158.68,91.53c-.75,0-1.66.09-2.33.08h0c.63.19,1.31.41,2.05.68l2.61,1v.53l-2.56.87q-1.14.39-2.1.63h0c.67,0,1.58.06,2.38.11l2.32.14v.66l-5.39-.37V95l2.6-.92c.67-.22,1.26-.41,1.82-.54h0a14.23,14.23,0,0,1-1.82-.57l-2.6-1v-.89l5.39-.34v.68Z" transform="translate(0 -4.22)"/><path class="cls-5" d="M161.05,87.52l-.49,0h0a1.44,1.44,0,0,1,.57,1.18,1.1,1.1,0,0,1-1,1.19H160c-.93,0-1.45-.84-1.44-2.33h-.11a.8.8,0,0,0-.89.7.54.54,0,0,0,0,.18,2,2,0,0,0,.28,1l-.46.16a2.41,2.41,0,0,1-.34-1.28c0-1.18.8-1.47,1.58-1.47h1.45a4.85,4.85,0,0,0,.93-.06Zm-2,.1c0,.77.12,1.64.87,1.64a.62.62,0,0,0,.67-.57V88.6a1,1,0,0,0-.64-.94h-.23Z" transform="translate(0 -4.22)"/><path class="cls-5" d="M155.37,85.81v-.67h5.68v.71Z" transform="translate(0 -4.22)"/><path class="cls-5" d="M161.05,81.77l-.49.06h0a1.46,1.46,0,0,1,.57,1.19,1.11,1.11,0,0,1-1,1.18H160c-.93,0-1.45-.83-1.44-2.33h-.11a.8.8,0,0,0-.89.7.54.54,0,0,0,0,.18,2,2,0,0,0,.28,1l-.46.16a2.35,2.35,0,0,1-.34-1.27c0-1.18.8-1.47,1.58-1.47h1.45a7.26,7.26,0,0,0,.93-.06Zm-2,.11c0,.77.12,1.64.87,1.64a.62.62,0,0,0,.67-.57v-.1a1,1,0,0,0-.64-.93.89.89,0,0,0-.23,0Z" transform="translate(0 -4.22)"/><path class="cls-5" d="M157.18,79.81l2.28-.85c.26-.09.56-.19.79-.25h0l-.8-.24-2.27-.77V77l2.75,1a6,6,0,0,1,2.43,1.33,1.88,1.88,0,0,1,.45.86l-.59.18a2,2,0,0,0-.34-.62,2.41,2.41,0,0,0-.79-.59.43.43,0,0,0-.16-.05h-.19l-3.56,1.43Z" transform="translate(0 -4.22)"/><path class="cls-5" d="M160.33,76.39a1.91,1.91,0,0,0,.28-.93c0-.51-.26-.75-.58-.75s-.52.2-.71.72c-.25.7-.63,1-1.1,1a1.19,1.19,0,0,1-1.14-1.24s0-.06,0-.09a1.92,1.92,0,0,1,.24-1l.51.17a1.47,1.47,0,0,0-.22.79c0,.42.23.65.52.65s.47-.23.66-.73c.25-.68.59-1,1.17-1a1.29,1.29,0,0,1,1.16,1.45,2.29,2.29,0,0,1-.27,1.09Z" transform="translate(0 -4.22)"/><path class="cls-5" d="M156.09,72.34a.44.44,0,0,1,.37.5.45.45,0,0,1-.37.37.43.43,0,0,1-.44-.42v0a.42.42,0,0,1,.41-.43Zm5,.79h-3.87v-.71h3.87Z" transform="translate(0 -4.22)"/><path class="cls-5" d="M161.05,69.14l-.49.06h0a1.44,1.44,0,0,1,.57,1.18,1.1,1.1,0,0,1-1,1.19H160c-.93,0-1.45-.83-1.44-2.33h-.11a.8.8,0,0,0-.89.7.54.54,0,0,0,0,.18,2,2,0,0,0,.28,1l-.46.16a2.35,2.35,0,0,1-.34-1.27c0-1.19.8-1.47,1.58-1.47h1.45a5.82,5.82,0,0,0,.93-.07Zm-2,.1c0,.77.12,1.64.87,1.64a.62.62,0,0,0,.67-.57v-.09a1,1,0,0,0-.64-.94.89.89,0,0,0-.23,0Z" transform="translate(0 -4.22)"/><path class="cls-5" d="M170.69,92.8a2.41,2.41,0,0,0,.35-1.25c0-.71-.37-1.13-.91-1.13s-.8.29-1.08,1c-.31.88-.76,1.42-1.52,1.42a1.55,1.55,0,0,1-1.48-1.62.49.49,0,0,1,0-.12,2.47,2.47,0,0,1,.27-1.19l.56.19a2.31,2.31,0,0,0-.25,1c0,.74.44,1,.81,1s.75-.33,1-1.07c.35-.91.79-1.38,1.58-1.38s1.55.62,1.55,1.89a2.73,2.73,0,0,1-.34,1.37Z" transform="translate(0 -4.22)"/><path class="cls-5" d="M169.57,85.28A1.89,1.89,0,0,1,171.62,87a1.34,1.34,0,0,1,0,.2,1.84,1.84,0,0,1-1.82,1.86h-.18a1.89,1.89,0,0,1-2-1.71,1.48,1.48,0,0,1,0-.21,1.83,1.83,0,0,1,1.79-1.87Zm0,3.07c.85,0,1.49-.49,1.49-1.17s-.63-1.18-1.5-1.18c-.66,0-1.49.33-1.49,1.16s.81,1.19,1.54,1.19Z" transform="translate(0 -4.22)"/><path class="cls-5" d="M170.47,81.14h1.06v.62h-.63a1.45,1.45,0,0,1,.72,1.28c0,.61-.34,1.33-1.7,1.33h-2.25v-.7h2.14c.74,0,1.23-.22,1.23-.86a1,1,0,0,0-.64-.93,1,1,0,0,0-.35-.06h-2.38v-.68Z" transform="translate(0 -4.22)"/><path class="cls-5" d="M166.56,79.14h1.11v-1h.54v1h2.08c.48,0,.75-.13.75-.52a1.41,1.41,0,0,0,0-.41h.52a1.65,1.65,0,0,1,.1.62,1,1,0,0,1-.3.76,1.43,1.43,0,0,1-1,.27h-2.11v.6h-.54v-.6h-.93Z" transform="translate(0 -4.22)"/><path class="cls-5" d="M165.86,77.33v-.7h2.42a1.33,1.33,0,0,1-.5-.5,1.42,1.42,0,0,1-.2-.72c0-.52.32-1.35,1.66-1.35h2.3v.7h-2.22c-.63,0-1.15.24-1.15.9a1,1,0,0,0,.7.94,1,1,0,0,0,.34,0h2.33v.7Z" transform="translate(0 -4.22)"/><path class="cls-5" d="M169.85,70.3l1.69.56v.72l-5.39-1.83v-.84l5.39-1.84v.75l-1.69.57Zm-.55-1.76-1.55.52c-.35.12-.67.2-1,.28h0l1,.27,1.56.53Z" transform="translate(0 -4.22)"/><path class="cls-5" d="M171.54,66.23h-3.33v.54h-.54v-.54h-.2a1.81,1.81,0,0,1-1.35-.45,1.3,1.3,0,0,1-.36-.94,1.52,1.52,0,0,1,.11-.6l.54.1a1.12,1.12,0,0,0-.09.44c0,.6.53.75,1.12.75h.21V64.6h.54v.93h3.33Z" transform="translate(0 -4.22)"/><path class="cls-5" d="M168.88,64h-1.21v-.62h.76a1.18,1.18,0,0,1-.85-1.07.67.67,0,0,1,0-.2h.66a1,1,0,0,0,0,.24,1,1,0,0,0,.9.94,1.82,1.82,0,0,0,.33,0h2.06V64Z" transform="translate(0 -4.22)"/><path class="cls-5" d="M166.58,60.57A.41.41,0,0,1,167,61v0a.42.42,0,0,1-.41.43h0a.44.44,0,0,1-.44-.44h0a.42.42,0,0,1,.41-.43Zm5,.78h-3.91v-.7h3.87Z" transform="translate(0 -4.22)"/><path class="cls-5" d="M171.4,56.72a2.65,2.65,0,0,1,.22,1.11,1.84,1.84,0,0,1-1.74,1.93,1.13,1.13,0,0,1-.26,0,2,2,0,0,1-2.06-1.94v-.14a2.29,2.29,0,0,1,.2-1l.54.16a1.67,1.67,0,0,0-.18.82,1.46,1.46,0,0,0,2.91,0,2,2,0,0,0-.19-.86Z" transform="translate(0 -4.22)"/><path class="cls-5" d="M171.54,53.75l-.49.06h0a1.43,1.43,0,0,1,.58,1.19,1.11,1.11,0,0,1-1,1.18h-.09c-.94,0-1.45-.83-1.44-2.33H169a.8.8,0,0,0-.9.69.61.61,0,0,0,0,.19,1.88,1.88,0,0,0,.29,1l-.46.16a2.45,2.45,0,0,1-.35-1.27c0-1.19.81-1.47,1.59-1.47h1.44a5.82,5.82,0,0,0,.93-.07Zm-2,.1c0,.77.12,1.64.87,1.64a.62.62,0,0,0,.67-.57v-.09a1,1,0,0,0-.65-.94h-.22Z" transform="translate(0 -4.22)"/><path class="cls-5" d="M176.65,82.39h3.19c1.2,0,1.72-.54,1.72-1.26s-.53-1.31-1.72-1.31h-3.19v-.68h3.14c1.65,0,2.33.87,2.33,2s-.65,2-2.3,2h-3.17Z" transform="translate(0 -4.22)"/><path class="cls-5" d="M179.21,77.93h-1v-.62h.63a1.43,1.43,0,0,1-.72-1.28c0-.53.32-1.36,1.64-1.36h2.32v.7h-2.24c-.62,0-1.14.23-1.14.89a1,1,0,0,0,.72,1,.92.92,0,0,0,.33,0h2.33V78Z" transform="translate(0 -4.22)"/><path class="cls-5" d="M177.08,72.71a.41.41,0,0,1,.43.39v.05a.42.42,0,0,1-.41.43h0a.43.43,0,0,1-.44-.42v0a.41.41,0,0,1,.39-.43Zm5,.78h-3.91v-.7H182Z" transform="translate(0 -4.22)"/><path class="cls-5" d="M177.05,70.77h1.12v-1h.53v1h2.09c.48,0,.75-.14.75-.53a1.41,1.41,0,0,0,0-.41h.53a1.7,1.7,0,0,1,.1.63,1,1,0,0,1-.3.75,1.37,1.37,0,0,1-1,.28h-2.11v.6h-.53v-.6h-.93Z" transform="translate(0 -4.22)"/><path class="cls-5" d="M180.23,68.58a1.24,1.24,0,0,0,1.34-1.13,1.34,1.34,0,0,0,0-.2,2.61,2.61,0,0,0-.2-1.07l.51-.12a3.18,3.18,0,0,1,.24,1.29,1.8,1.8,0,0,1-1.69,1.91h-.31a1.88,1.88,0,0,1-2.07-1.67.76.76,0,0,1,0-.15,1.63,1.63,0,0,1,1.66-1.6h.49Zm-.51-2.06a1,1,0,0,0-1.13.85.76.76,0,0,0,0,.15,1.17,1.17,0,0,0,1.14,1.08Z" transform="translate(0 -4.22)"/><path class="cls-5" d="M176.36,61.62H182v.63h-.68a1.4,1.4,0,0,1,.76,1.32,1.75,1.75,0,0,1-1.85,1.66h-.15a1.85,1.85,0,0,1-2.07-1.6s0-.09,0-.13a1.31,1.31,0,0,1,.59-1.17h-2.31Zm3.38.7h-.3a1,1,0,0,0-.81,1c0,.73.64,1.16,1.49,1.16s1.44-.38,1.44-1.14a1.07,1.07,0,0,0-.84-1,1.61,1.61,0,0,0-.31,0Z" transform="translate(0 -4.22)"/><path class="cls-5" d="M176.65,58.73V58h2.6c-.21-.14-.4-.29-.58-.42l-2-1.65V55.1l2.28,2L182.06,55v.83l-2.65,1.77.59.51h2.06v.7Z" transform="translate(0 -4.22)"/><path class="cls-5" d="M177.08,53.63a.44.44,0,0,1,0,.88.43.43,0,0,1-.44-.42v0a.42.42,0,0,1,.4-.44Zm5,.79h-3.91v-.71H182Z" transform="translate(0 -4.22)"/><path class="cls-5" d="M179.21,52.55h-1v-.63h.63a1.43,1.43,0,0,1-.72-1.28c0-.54.32-1.37,1.64-1.37h2.32V50h-2.24c-.62,0-1.14.23-1.14.89a1,1,0,0,0,.72.94.92.92,0,0,0,.33,0h2.33v.71Z" transform="translate(0 -4.22)"/><path class="cls-5" d="M178.17,44.77h3.3a2.19,2.19,0,0,1,1.76.56,2,2,0,0,1,.47,1.4,2.52,2.52,0,0,1-.32,1.29l-.54-.18a2.13,2.13,0,0,0,.3-1.13c0-.72-.37-1.25-1.35-1.25h-.43a1.38,1.38,0,0,1,.65,1.23,1.73,1.73,0,0,1-1.82,1.65h-.07a1.87,1.87,0,0,1-2-1.71v0a1.26,1.26,0,0,1,.67-1.2h-.58Zm1.52.73a.86.86,0,0,0-.32,0,1,1,0,0,0-.74,1c0,.67.57,1.15,1.46,1.15s1.39-.38,1.39-1.14a1,1,0,0,0-.72-1,1.15,1.15,0,0,0-.37-.06Z" transform="translate(0 -4.22)"/><path class="cls-5" d="M176.36,40.29H182v.63h-.68a1.4,1.4,0,0,1,.76,1.32,1.75,1.75,0,0,1-1.85,1.66h-.15a1.84,1.84,0,0,1-2-1.65.34.34,0,0,1,0-.1,1.31,1.31,0,0,1,.59-1.17h-2.31Zm3.38.7a1.11,1.11,0,0,0-1.11,1c0,.73.64,1.16,1.49,1.16s1.44-.38,1.44-1.14A1.13,1.13,0,0,0,180.41,41Z" transform="translate(0 -4.22)"/><path class="cls-5" d="M180.07,35.62a1.88,1.88,0,0,1,2,1.72,1.48,1.48,0,0,1,0,.21,1.84,1.84,0,0,1-1.82,1.86h-.18a1.89,1.89,0,0,1-2-1.78v-.14a1.83,1.83,0,0,1,1.8-1.86Zm0,3.07c.85,0,1.49-.49,1.49-1.17s-.64-1.18-1.51-1.18c-.65,0-1.48.33-1.48,1.16s.8,1.19,1.54,1.19Z" transform="translate(0 -4.22)"/><path class="cls-5" d="M179.21,34.73h-1v-.59h.62a1.3,1.3,0,0,1-.71-1.21,1.14,1.14,0,0,1,.77-1.1h0a1.71,1.71,0,0,1-.5-.43,1.29,1.29,0,0,1-.27-.85c0-.51.33-1.27,1.68-1.27h2.28V30h-2.19c-.75,0-1.2.27-1.2.84a.91.91,0,0,0,.64.83,1,1,0,0,0,.35.06h2.4v.69h-2.32c-.62,0-1.07.27-1.07.8a1,1,0,0,0,.71.88,1,1,0,0,0,.34,0h2.34v.69Z" transform="translate(0 -4.22)"/><path class="cls-5" d="M187.14,79.68V79h3.61c1.43,0,1.87.7,1.87,1.63a2.35,2.35,0,0,1-.13.74l-.57-.1a1.71,1.71,0,0,0,.11-.59c0-.62-.28-1-1.34-1Z" transform="translate(0 -4.22)"/><path class="cls-5" d="M192.53,75.71l-.49.05h0a1.44,1.44,0,0,1,.58,1.18,1.11,1.11,0,0,1-1,1.2h-.16c-.94,0-1.45-.83-1.44-2.32H190a.8.8,0,0,0-.9.67.67.67,0,0,0,0,.2,1.88,1.88,0,0,0,.29,1l-.46.16a2.36,2.36,0,0,1-.35-1.27c0-1.18.81-1.47,1.59-1.47h1.44a7.26,7.26,0,0,0,.93-.06Zm-2,.1c0,.77.12,1.64.87,1.64a.63.63,0,0,0,.67-.59v-.08a1,1,0,0,0-.65-.93h-.22Z" transform="translate(0 -4.22)"/><path class="cls-5" d="M189.92,74h-1.26v-.63h.66a1.51,1.51,0,0,1-.75-1.37,1.75,1.75,0,0,1,1.84-1.66l.16,0a1.82,1.82,0,0,1,2.06,1.56A1.39,1.39,0,0,1,192,73.3h2.1V74Zm1-.69a1.41,1.41,0,0,0,.29,0,1.08,1.08,0,0,0,.83-1c0-.74-.61-1.18-1.5-1.18s-1.44.41-1.44,1.15a1.14,1.14,0,0,0,.87,1.07h.95Z" transform="translate(0 -4.22)"/><path class="cls-5" d="M192.53,67.3H192a1.44,1.44,0,0,1,.58,1.18,1.1,1.1,0,0,1-.93,1.25h-.22c-.94,0-1.45-.83-1.44-2.32H190a.8.8,0,0,0-.9.69.61.61,0,0,0,0,.19,1.88,1.88,0,0,0,.29,1l-.46.16a2.36,2.36,0,0,1-.35-1.27c0-1.18.81-1.47,1.59-1.47h1.44a4.85,4.85,0,0,0,.93-.06Zm-2,.1c0,.77.12,1.64.87,1.64a.62.62,0,0,0,.67-.57v-.09a1,1,0,0,0-.65-.94h-.22Z" transform="translate(0 -4.22)"/><path class="cls-5" d="M189.71,65.58h-1.05V65h.64a1.44,1.44,0,0,1-.73-1.28c0-.54.32-1.37,1.65-1.37h2.31V63H190.3c-.62,0-1.14.24-1.14.9a1,1,0,0,0,.72.94.86.86,0,0,0,.32,0h2.33v.7Z" transform="translate(0 -4.22)"/><path class="cls-5" d="M202.78,76.52a4.68,4.68,0,0,1,.3,1.65,2.55,2.55,0,0,1-2.29,2.77,3.09,3.09,0,0,1-.43,0,2.71,2.71,0,0,1-2.79-2.63,2.81,2.81,0,0,1,0-.29,3.48,3.48,0,0,1,.25-1.35l.56.17a2.87,2.87,0,0,0-.23,1.19A2,2,0,0,0,200,80.2h.36a2,2,0,0,0,2.14-1.85v-.21a2.27,2.27,0,0,0-.15-.93h-1.61v1.1h-.56V76.54Z" transform="translate(0 -4.22)"/><path class="cls-5" d="M201.22,75.08A1.24,1.24,0,0,0,202.56,74a1.34,1.34,0,0,0,0-.2,2.61,2.61,0,0,0-.2-1.07l.5-.12a3,3,0,0,1,.24,1.29,1.78,1.78,0,0,1-1.67,1.9,1.31,1.31,0,0,1-.28,0,1.88,1.88,0,0,1-2.07-1.67.66.66,0,0,1,0-.14,1.63,1.63,0,0,1,1.65-1.61h.5ZM200.71,73a1,1,0,0,0-1.13.85.76.76,0,0,0,0,.15,1.17,1.17,0,0,0,1.14,1.08Z" transform="translate(0 -4.22)"/><path class="cls-5" d="M200.36,71.46h-1.21v-.62h.76a1.17,1.17,0,0,1-.84-1.07.67.67,0,0,1,0-.2h.66a1,1,0,0,0,0,.24,1,1,0,0,0,.9,1H203v.69Z" transform="translate(0 -4.22)"/><path class="cls-5" d="M200.2,68.85h-1v-.61h.63a1.35,1.35,0,0,1-.71-1.22,1.15,1.15,0,0,1,.77-1.09h0a1.71,1.71,0,0,1-.5-.43,1.29,1.29,0,0,1-.27-.85c0-.52.33-1.28,1.68-1.28h2.27v.69h-2.19c-.74,0-1.19.27-1.19.84a.91.91,0,0,0,.64.83,1,1,0,0,0,.35.06h2.39v.69h-2.31c-.62,0-1.07.27-1.07.8a1,1,0,0,0,.71.87,1,1,0,0,0,.34.06h2.33v.69Z" transform="translate(0 -4.22)"/><path class="cls-5" d="M203,60l-.48.06h0a1.46,1.46,0,0,1,.57,1.19,1.11,1.11,0,0,1-1,1.18H202c-.93,0-1.45-.83-1.44-2.33h-.09a.8.8,0,0,0-.89.7.54.54,0,0,0,0,.18,2,2,0,0,0,.28,1l-.46.16a2.35,2.35,0,0,1-.34-1.27c0-1.18.8-1.47,1.58-1.47h1.45a5.62,5.62,0,0,0,.92-.07Zm-2,.11c0,.77.12,1.64.87,1.64a.62.62,0,0,0,.67-.57v-.1a1,1,0,0,0-.64-.93h-.23Z" transform="translate(0 -4.22)"/><path class="cls-5" d="M200.2,58.32h-1V57.7h.64a1.43,1.43,0,0,1-.72-1.28c0-.53.32-1.36,1.64-1.36h2.31v.7h-2.23c-.62,0-1.14.23-1.14.9a1,1,0,0,0,.72.94.91.91,0,0,0,.33,0h2.32v.7Z" transform="translate(0 -4.22)"/><path class="cls-5" d="M199.15,53.62l2.29-.84c.26-.09.56-.19.79-.25h0l-.8-.24-2.28-.77v-.75l2.76,1.06a5.93,5.93,0,0,1,2.43,1.31,1.88,1.88,0,0,1,.45.86l-.59.18a2,2,0,0,0-.34-.62,2.41,2.41,0,0,0-.79-.59.49.49,0,0,0-.17-.06h-.18l-3.57,1.43Z" transform="translate(0 -4.22)"/><path class="cls-5" d="M208.13,78.2V75.3h.58v2.21h1.76v-2H211v2h2.44v.69Z" transform="translate(0 -4.22)"/><path class="cls-5" d="M210.86,74.33h-1.21v-.61h.76a1.18,1.18,0,0,1-.85-1.07.67.67,0,0,1,0-.2h.66a1,1,0,0,0,0,.24,1,1,0,0,0,.9.94,1.82,1.82,0,0,0,.33,0h2.06v.7Z" transform="translate(0 -4.22)"/><path class="cls-5" d="M213.52,69.57l-.49.06h0a1.43,1.43,0,0,1,.58,1.19,1.11,1.11,0,0,1-1,1.18h-.09c-.94,0-1.45-.83-1.44-2.33H211a.8.8,0,0,0-.9.69.61.61,0,0,0,0,.19,1.88,1.88,0,0,0,.29,1l-.46.16a2.45,2.45,0,0,1-.35-1.27c0-1.19.81-1.47,1.58-1.47h1.45a5.82,5.82,0,0,0,.93-.07Zm-2,.11c0,.76.13,1.63.88,1.63a.62.62,0,0,0,.67-.57v-.09a1,1,0,0,0-.65-.93.81.81,0,0,0-.22,0Z" transform="translate(0 -4.22)"/><path class="cls-5" d="M210.7,67.86h-1v-.62h.64a1.44,1.44,0,0,1-.73-1.28c0-.53.32-1.37,1.65-1.37h2.31v.71h-2.23c-.62,0-1.14.23-1.14.89a1,1,0,0,0,.71,1,.91.91,0,0,0,.33,0h2.33v.71Z" transform="translate(0 -4.22)"/><path class="cls-5" d="M213.38,60.66a2.65,2.65,0,0,1,.22,1.11,1.84,1.84,0,0,1-1.74,1.93h-.26a2,2,0,0,1-2-2v-.13a2.29,2.29,0,0,1,.2-1l.54.16a1.67,1.67,0,0,0-.18.82,1.46,1.46,0,0,0,2.91,0,2.11,2.11,0,0,0-.19-.86Z" transform="translate(0 -4.22)"/><path class="cls-5" d="M211.71,59.44a1.25,1.25,0,0,0,1.35-1.12v-.18a2.51,2.51,0,0,0-.21-1.08l.51-.12a3.18,3.18,0,0,1,.24,1.29,1.78,1.78,0,0,1-1.67,1.9h-.28a1.87,1.87,0,0,1-2.08-1.64c0-.05,0-.11,0-.17a1.63,1.63,0,0,1,1.67-1.61h.48Zm-.5-2.06a1,1,0,0,0-1.13.85.76.76,0,0,0,0,.15,1.15,1.15,0,0,0,1.14,1.07Z" transform="translate(0 -4.22)"/><path class="cls-5" d="M218.7,77.64a7.5,7.5,0,0,1-.11-1.34,2.2,2.2,0,0,1,.43-1.55,1.32,1.32,0,0,1,1-.43,1.41,1.41,0,0,1,1.37,1h0a1.3,1.3,0,0,1,1.08-.79,9.59,9.59,0,0,0,1.48-.42v.72a6.94,6.94,0,0,1-1.28.36c-.75.16-1,.45-1,1.08v.65H224v.7Zm2.45-.7v-.71c0-.74-.41-1.21-1-1.21s-1,.5-1,1.24a2.57,2.57,0,0,0,.06.68Z" transform="translate(0 -4.22)"/><path class="cls-5" d="M223,70.14h1v.62h-.63a1.45,1.45,0,0,1,.72,1.28c0,.61-.33,1.33-1.69,1.33h-2.27v-.7h2.15c.73,0,1.23-.22,1.23-.86a1,1,0,0,0-.64-.93,1.13,1.13,0,0,0-.36-.06h-2.38v-.68Z" transform="translate(0 -4.22)"/><path class="cls-5" d="M223.29,69.05a1.81,1.81,0,0,0,.28-.93c0-.51-.25-.75-.57-.75s-.52.2-.71.72c-.25.69-.63,1-1.1,1a1.19,1.19,0,0,1-1.14-1.24s0-.06,0-.09a2,2,0,0,1,.24-1l.51.18a1.48,1.48,0,0,0-.23.79c0,.42.24.65.53.65s.47-.23.66-.74c.25-.67.59-1,1.16-1a1.3,1.3,0,0,1,1.16,1.45,2.13,2.13,0,0,1-.26,1.08Z" transform="translate(0 -4.22)"/><path class="cls-5" d="M223.29,65.88a1.81,1.81,0,0,0,.28-.93c0-.51-.25-.75-.57-.75s-.52.2-.71.72c-.25.7-.63,1-1.1,1a1.19,1.19,0,0,1-1.14-1.24s0-.06,0-.09a1.92,1.92,0,0,1,.24-1l.51.17a1.48,1.48,0,0,0-.23.79c0,.42.24.65.53.65s.47-.23.66-.73c.25-.68.59-1,1.16-1a1.3,1.3,0,0,1,1.16,1.45,2.19,2.19,0,0,1-.26,1.09Z" transform="translate(0 -4.22)"/><path class="cls-5" d="M219.06,61.83a.44.44,0,0,1,.37.5.45.45,0,0,1-.37.37.43.43,0,0,1-.44-.42v0a.42.42,0,0,1,.41-.43Zm4.95.79h-3.87v-.71H224Z" transform="translate(0 -4.22)"/><path class="cls-5" d="M224,58.6l-.48.06h0a1.44,1.44,0,0,1,.57,1.18,1.1,1.1,0,0,1-1,1.19H223c-.94,0-1.45-.83-1.44-2.33h-.08a.8.8,0,0,0-.89.7.54.54,0,0,0,0,.18,2,2,0,0,0,.28,1l-.46.16a2.35,2.35,0,0,1-.34-1.27c0-1.19.8-1.47,1.58-1.47h1.45a5.62,5.62,0,0,0,.92-.07Zm-2,.1c0,.77.12,1.64.87,1.64a.62.62,0,0,0,.67-.57v-.09a1,1,0,0,0-.65-.94.81.81,0,0,0-.22,0Z" transform="translate(0 -4.22)"/><path class="cls-5" d="M233.66,67.63a2.41,2.41,0,0,0,.35-1.25c0-.71-.37-1.12-.92-1.12s-.79.28-1.07,1c-.31.88-.76,1.42-1.52,1.42A1.55,1.55,0,0,1,229,66.06a.49.49,0,0,1,0-.12,2.47,2.47,0,0,1,.27-1.19l.56.19a2.31,2.31,0,0,0-.25,1c0,.74.44,1,.81,1s.75-.33,1-1.07c.36-.91.8-1.38,1.59-1.38s1.55.62,1.55,1.89a2.77,2.77,0,0,1-.34,1.38Z" transform="translate(0 -4.22)"/><path class="cls-5" d="M230.64,63.33l2-.51c.43-.11.83-.21,1.23-.29h0c-.39-.09-.81-.22-1.23-.34l-2-.63V61l1.93-.6c.47-.14.88-.25,1.27-.34h0c-.39-.07-.8-.17-1.26-.3l-1.94-.58v-.7l3.83,1.24v.64l-1.85.59a11.38,11.38,0,0,1-1.27.35h0c.46.1.86.22,1.28.35l1.84.63v.64L230.6,64Z" transform="translate(0 -4.22)"/><path class="cls-5" d="M232.7,57.33a1.24,1.24,0,0,0,1.35-1.12V56a2.61,2.61,0,0,0-.2-1.07l.5-.12a3.13,3.13,0,0,1,.24,1.28,1.81,1.81,0,0,1-1.7,1.92h-.3a1.88,1.88,0,0,1-2.08-1.66c0-.05,0-.11,0-.16a1.63,1.63,0,0,1,1.67-1.61h.15a1.82,1.82,0,0,1,.33,0Zm-.5-2.06a1,1,0,0,0-1.14.84.86.86,0,0,0,0,.16,1.18,1.18,0,0,0,1.15,1.08Z" transform="translate(0 -4.22)"/><path class="cls-5" d="M228.83,50.38h5.64V51h-.67a1.45,1.45,0,0,1,.76,1.32A1.76,1.76,0,0,1,232.7,54h-.14a1.85,1.85,0,0,1-2.07-1.6s0-.09,0-.14a1.28,1.28,0,0,1,.59-1.16h-2.31Zm3.38.7h-.29a1,1,0,0,0-.82,1c0,.72.64,1.16,1.5,1.16s1.43-.39,1.43-1.15a1.06,1.06,0,0,0-.84-1,1.5,1.5,0,0,0-.3,0Z" transform="translate(0 -4.22)"/><path class="cls-5" d="M232.7,48.81a1.24,1.24,0,0,0,1.35-1.12v-.2a2.61,2.61,0,0,0-.2-1.07l.5-.12a3.13,3.13,0,0,1,.24,1.28,1.81,1.81,0,0,1-1.7,1.92h-.3a1.88,1.88,0,0,1-2.08-1.66s0-.11,0-.16a1.63,1.63,0,0,1,1.67-1.61h.48Zm-.5-2.06a1,1,0,0,0-1.14.84.86.86,0,0,0,0,.16,1.18,1.18,0,0,0,1.15,1.08Z" transform="translate(0 -4.22)"/><path class="cls-5" d="M231.69,45.2h-1.05v-.62h.64a1.44,1.44,0,0,1-.73-1.28c0-.53.32-1.37,1.65-1.37h2.27v.71h-2.23c-.63,0-1.14.23-1.14.89a1,1,0,0,0,.71,1,.92.92,0,0,0,.33,0h2.33v.7Z" transform="translate(0 -4.22)"/><path class="cls-5" d="M239.61,50.82h3.19c1.21,0,1.72-.54,1.72-1.26s-.52-1.31-1.72-1.31h-3.19v-.7h3.15c1.65,0,2.33.87,2.33,2s-.63,1.93-2.3,1.93h-3.18Z" transform="translate(0 -4.22)"/><path class="cls-5" d="M242.18,46.36h-1.05v-.62h.64a1.43,1.43,0,0,1-.72-1.28c0-.54.32-1.37,1.64-1.37H245v.7h-2.23c-.62,0-1.14.23-1.14.9a1,1,0,0,0,.72.94.92.92,0,0,0,.33,0H245v.7Z" transform="translate(0 -4.22)"/><path class="cls-5" d="M240.05,41.14a.44.44,0,0,1,.37.5.45.45,0,0,1-.37.37.43.43,0,0,1-.44-.42v0a.42.42,0,0,1,.41-.43Zm4.95.78h-3.87v-.7H245Z" transform="translate(0 -4.22)"/><path class="cls-5" d="M240,39.2h1.11v-1h.54v1h2.09c.48,0,.75-.13.75-.52a1.84,1.84,0,0,0,0-.41H245a1.64,1.64,0,0,1,.09.62,1,1,0,0,1-.29.76,1.43,1.43,0,0,1-1,.27h-2.12v.6h-.54v-.6h-.92Z" transform="translate(0 -4.22)"/><path class="cls-5" d="M243.2,37a1.23,1.23,0,0,0,1.34-1.11.81.81,0,0,0,0-.22,2.61,2.61,0,0,0-.2-1.07l.5-.12a3,3,0,0,1,.24,1.29,1.79,1.79,0,0,1-1.66,1.91,1.9,1.9,0,0,1-.34,0A1.87,1.87,0,0,1,241,36c0-.05,0-.11,0-.16a1.63,1.63,0,0,1,1.65-1.61h.5ZM242.69,35a1,1,0,0,0-1.13.85.76.76,0,0,0,0,.15A1.16,1.16,0,0,0,242.69,37Z" transform="translate(0 -4.22)"/><path class="cls-5" d="M239.33,30.05H245v.63h-.67A1.45,1.45,0,0,1,245.1,32a1.76,1.76,0,0,1-1.86,1.67h-.14A1.86,1.86,0,0,1,241,32s0-.07,0-.11a1.31,1.31,0,0,1,.59-1.17h-2.31Zm3.38.71a1.5,1.5,0,0,0-.3,0,1,1,0,0,0-.81,1c0,.73.64,1.16,1.49,1.16s1.43-.38,1.43-1.14a1.06,1.06,0,0,0-.84-1,1.5,1.5,0,0,0-.3,0Z" transform="translate(0 -4.22)"/><path class="cls-5" d="M244.16,27.26a2.41,2.41,0,0,0,.35-1.25c0-.71-.38-1.13-.92-1.13s-.79.29-1.07,1c-.32.88-.77,1.42-1.53,1.42a1.54,1.54,0,0,1-1.47-1.61.57.57,0,0,1,0-.13,2.58,2.58,0,0,1,.26-1.19l.57.19a2.07,2.07,0,0,0-.26,1c0,.74.44,1,.81,1s.75-.33,1-1.07c.35-.91.79-1.38,1.58-1.38S245,24.73,245,26a2.73,2.73,0,0,1-.34,1.37Z" transform="translate(0 -4.22)"/><path class="cls-5" d="M240,22.39h1.11v-1h.54v1h2.09c.48,0,.75-.13.75-.52a1.84,1.84,0,0,0,0-.41H245a1.64,1.64,0,0,1,.09.62,1,1,0,0,1-.29.76,1.43,1.43,0,0,1-1,.27h-2.12v.6h-.54v-.6h-.92Z" transform="translate(0 -4.22)"/><path class="cls-5" d="M245,18.45l-.48.06h0a1.46,1.46,0,0,1,.57,1.19,1.11,1.11,0,0,1-1,1.18H244c-.94,0-1.45-.83-1.44-2.33h-.07a.8.8,0,0,0-.89.7.54.54,0,0,0,0,.18,2,2,0,0,0,.28,1l-.46.16a2.35,2.35,0,0,1-.34-1.27c0-1.19.8-1.47,1.58-1.47h1.45a5.62,5.62,0,0,0,.92-.07Zm-2,.11c0,.76.12,1.64.87,1.64a.62.62,0,0,0,.67-.57v-.1a1,1,0,0,0-.64-.93.89.89,0,0,0-.23,0Z" transform="translate(0 -4.22)"/><path class="cls-5" d="M240,15.89h1.11v-1h.54v1h2.09c.48,0,.75-.13.75-.53a1.83,1.83,0,0,0,0-.4H245a2.23,2.23,0,0,1,.09.63,1,1,0,0,1-.29.76,1.43,1.43,0,0,1-1,.27h-2.12v.52h-.54v-.6h-.92Z" transform="translate(0 -4.22)"/><path class="cls-5" d="M243.2,13.7a1.24,1.24,0,0,0,1.34-1.13,1.34,1.34,0,0,0,0-.2,2.61,2.61,0,0,0-.2-1.07l.5-.12a3,3,0,0,1,.24,1.29,1.79,1.79,0,0,1-1.66,1.91,1.9,1.9,0,0,1-.34,0A1.88,1.88,0,0,1,241,12.7a.66.66,0,0,1,0-.14A1.63,1.63,0,0,1,242.65,11h.5Zm-.51-2.06a1,1,0,0,0-1.13.85.76.76,0,0,0,0,.15,1.16,1.16,0,0,0,1.14,1.08Z" transform="translate(0 -4.22)"/><path class="cls-5" d="M244.28,10.14a1.81,1.81,0,0,0,.28-.93c0-.51-.25-.75-.57-.75s-.52.2-.71.72c-.25.7-.63,1-1.1,1A1.19,1.19,0,0,1,241,8.94s0-.06,0-.09a1.92,1.92,0,0,1,.24-1l.51.17a1.48,1.48,0,0,0-.23.79c0,.42.24.65.53.65s.47-.23.66-.73c.25-.68.59-1,1.17-1s1.15.53,1.15,1.45a2.19,2.19,0,0,1-.26,1.09Z" transform="translate(0 -4.22)"/><path class="cls-5" d="M255.32,41.87a3.33,3.33,0,0,1,.26,1.43A2.52,2.52,0,0,1,253.21,46h-.36A2.68,2.68,0,0,1,250,43.44a1.5,1.5,0,0,1,0-.3,2.9,2.9,0,0,1,.24-1.27l.57.16a2.4,2.4,0,0,0-.23,1.09,2,2,0,0,0,1.88,2.11,2,2,0,0,0,.35,0A2,2,0,0,0,255,43.39v-.25a2.74,2.74,0,0,0-.22-1.13Z" transform="translate(0 -4.22)"/><path class="cls-5" d="M255.47,38.88l-.49.06h0a1.48,1.48,0,0,1,.58,1.18,1.11,1.11,0,0,1-1,1.21h-.08c-.93,0-1.44-.83-1.43-2.33H253a.8.8,0,0,0-.9.69.61.61,0,0,0,0,.19,1.88,1.88,0,0,0,.29,1l-.47.16a2.44,2.44,0,0,1-.34-1.27c0-1.19.81-1.47,1.58-1.47h1.45a5.82,5.82,0,0,0,.93-.07Zm-2,.11c0,.76.12,1.63.87,1.63a.63.63,0,0,0,.68-.56V40a1,1,0,0,0-.65-.94.89.89,0,0,0-.23,0Z" transform="translate(0 -4.22)"/><path class="cls-5" d="M252.68,37.14h-1v-.62h.64a1.44,1.44,0,0,1-.73-1.28c0-.53.32-1.37,1.65-1.37h2.23v.71h-2.2c-.63,0-1.15.23-1.15.89a1,1,0,0,0,.72,1,.91.91,0,0,0,.33,0h2.3v.67Z" transform="translate(0 -4.22)"/><path class="cls-5" d="M255.47,30.59H255a1.45,1.45,0,0,1,.58,1.18,1.11,1.11,0,0,1-.95,1.25h-.14c-.93,0-1.44-.83-1.43-2.32H253a.8.8,0,0,0-.9.69.61.61,0,0,0,0,.19,1.88,1.88,0,0,0,.29,1l-.47.16a2.44,2.44,0,0,1-.34-1.27c0-1.18.81-1.47,1.58-1.47h1.45a7.26,7.26,0,0,0,.93-.06Zm-2,.1c0,.77.12,1.64.87,1.64a.63.63,0,0,0,.68-.58v-.09a1,1,0,0,0-.65-.93.89.89,0,0,0-.23,0Z" transform="translate(0 -4.22)"/><path class="cls-5" d="M249.82,25.53h5.65v.61h-.67a1.43,1.43,0,0,1,.76,1.32,1.77,1.77,0,0,1-1.87,1.66h-.13a1.85,1.85,0,0,1-2.07-1.6s0-.09,0-.13a1.31,1.31,0,0,1,.59-1.17h-2.31Zm3.38.7a1.41,1.41,0,0,0-.29,0,1,1,0,0,0-.82,1c0,.73.64,1.16,1.5,1.16S255,28,255,27.25a1,1,0,0,0-.84-1,.76.76,0,0,0-.3,0Z" transform="translate(0 -4.22)"/><path class="cls-5" d="M255.47,22.22l-.49.05h0a1.45,1.45,0,0,1,.58,1.18,1.11,1.11,0,0,1-1,1.21h-.08c-.93,0-1.44-.83-1.43-2.32H253a.8.8,0,0,0-.9.69.61.61,0,0,0,0,.19,1.88,1.88,0,0,0,.29,1l-.47.16a2.44,2.44,0,0,1-.34-1.27c0-1.18.81-1.47,1.58-1.47h1.45a4.85,4.85,0,0,0,.93-.06Zm-2,.1c0,.77.12,1.64.87,1.64a.63.63,0,0,0,.68-.56v-.1a1,1,0,0,0-.65-.94h-.23Z" transform="translate(0 -4.22)"/></g></svg>