<svg id="Layer_1" data-name="Layer 1" xmlns="http://www.w3.org/2000/svg" viewBox="0 0 407.81 125.55"><defs><style>.cls-1{fill:#231f20;}.cls-2{fill:#636363;}.cls-3{fill:#a5a5a5;}.cls-4{fill:#ffc000;}.cls-5{fill:#4472c4;}.cls-6{fill:#70ad47;}.cls-7{fill:#255e91;}.cls-8{fill:#9e480e;}</style></defs><title>Slide_11</title><path class="cls-1" d="M47.3,26.13A7.26,7.26,0,0,1,48.58,26a2.21,2.21,0,0,1,1.47.39,1.14,1.14,0,0,1,.45,1,1.27,1.27,0,0,1-.91,1.18v0a1.38,1.38,0,0,1,1.11,1.35A1.47,1.47,0,0,1,50.25,31a2.76,2.76,0,0,1-1.87.5,8.78,8.78,0,0,1-1.08-.06Zm.7,2.21h.63c.74,0,1.17-.38,1.17-.9s-.48-.88-1.18-.88a2.6,2.6,0,0,0-.62.05Zm0,2.58a3,3,0,0,0,.58,0c.72,0,1.39-.27,1.39-1.05s-.64-1-1.39-1H48Z" transform="translate(-5.31 -9.9)"/><path class="cls-1" d="M52.92,26.91h0l-.9.49-.14-.54L53,26.25h.6v5.2h-.68Z" transform="translate(-5.31 -9.9)"/><path class="cls-1" d="M47.3,39.13A7.26,7.26,0,0,1,48.58,39a2.21,2.21,0,0,1,1.47.39,1.14,1.14,0,0,1,.45,1,1.27,1.27,0,0,1-.91,1.18v0a1.38,1.38,0,0,1,1.11,1.35A1.47,1.47,0,0,1,50.25,44a2.76,2.76,0,0,1-1.87.5,8.78,8.78,0,0,1-1.08-.06Zm.7,2.21h.63c.74,0,1.17-.38,1.17-.9s-.48-.88-1.18-.88a2.6,2.6,0,0,0-.62,0Zm0,2.58a3,3,0,0,0,.58,0c.72,0,1.39-.27,1.39-1.05s-.64-1-1.39-1H48Z" transform="translate(-5.31 -9.9)"/><path class="cls-1" d="M51.39,44.45V44l.55-.54c1.33-1.26,1.93-1.93,1.94-2.71a.93.93,0,0,0-1-1,1.79,1.79,0,0,0-1.11.44l-.22-.5A2.29,2.29,0,0,1,53,39.17a1.46,1.46,0,0,1,1.59,1.51c0,1-.69,1.73-1.79,2.79l-.41.38v0h2.33v.58Z" transform="translate(-5.31 -9.9)"/><path class="cls-1" d="M47.3,52.06h2.91v.59H48v1.79h2V55H48v2.44h-.7Z" transform="translate(-5.31 -9.9)"/><path class="cls-1" d="M52.48,52.91h0l-.9.49-.14-.54,1.14-.61h.6v5.2h-.68Z" transform="translate(-5.31 -9.9)"/><path class="cls-1" d="M47.3,65.06h2.91v.59H48v1.79h2V68H48v2.44h-.7Z" transform="translate(-5.31 -9.9)"/><path class="cls-1" d="M51,70.45V70l.55-.54c1.33-1.26,1.93-1.93,1.94-2.71a.93.93,0,0,0-1-1,1.79,1.79,0,0,0-1.11.44l-.22-.5a2.29,2.29,0,0,1,1.47-.52,1.46,1.46,0,0,1,1.59,1.51c0,1-.69,1.73-1.79,2.79l-.41.38v0h2.33v.58Z" transform="translate(-5.31 -9.9)"/><path class="cls-1" d="M47.3,78.06h2.91v.59H48v1.79h2V81H48v2.44h-.7Z" transform="translate(-5.31 -9.9)"/><path class="cls-1" d="M51.12,82.64a2.31,2.31,0,0,0,1.15.33c.91,0,1.19-.57,1.18-1,0-.72-.67-1-1.35-1h-.39V80.4h.39c.52,0,1.16-.27,1.16-.88,0-.42-.26-.79-.91-.79a2,2,0,0,0-1,.35l-.18-.51a2.47,2.47,0,0,1,1.36-.4c1,0,1.48.6,1.48,1.24A1.28,1.28,0,0,1,53,80.63h0A1.35,1.35,0,0,1,54.17,82c0,.83-.64,1.56-1.89,1.56a2.61,2.61,0,0,1-1.35-.35Z" transform="translate(-5.31 -9.9)"/><path class="cls-1" d="M47.3,91.06h2.91v.59H48v1.79h2V94H48v2.44h-.7Z" transform="translate(-5.31 -9.9)"/><path class="cls-1" d="M53.13,96.45V95H50.71v-.47L53,91.25h.76v3.23h.73V95h-.73v1.41Zm0-2V92.75c0-.27,0-.54,0-.82h0c-.16.31-.29.53-.43.77l-1.28,1.77h1.71Z" transform="translate(-5.31 -9.9)"/><path class="cls-1" d="M47.3,104.06h2.91v.59H48v1.79h2V107H48v2.44h-.7Z" transform="translate(-5.31 -9.9)"/><path class="cls-1" d="M54.05,104.85h-2l-.2,1.33a3.91,3.91,0,0,1,.43,0,2.22,2.22,0,0,1,1.12.28,1.49,1.49,0,0,1,.74,1.33,1.81,1.81,0,0,1-1.94,1.78,2.55,2.55,0,0,1-1.29-.32l.17-.54a2.33,2.33,0,0,0,1.12.29,1.15,1.15,0,0,0,1.23-1.13c0-.67-.46-1.15-1.5-1.15a4.52,4.52,0,0,0-.72.06l.34-2.5h2.48Z" transform="translate(-5.31 -9.9)"/><path class="cls-1" d="M47.3,117.06h2.91v.59H48v1.79h2V120H48v2.44h-.7Z" transform="translate(-5.31 -9.9)"/><path class="cls-1" d="M53.92,117.75a2.56,2.56,0,0,0-.53,0,2.12,2.12,0,0,0-1.81,1.85h0a1.58,1.58,0,0,1,2.82,1.08,1.74,1.74,0,0,1-1.73,1.83c-1.11,0-1.84-.86-1.84-2.22a3.27,3.27,0,0,1,.88-2.34,2.89,2.89,0,0,1,1.67-.77,3.64,3.64,0,0,1,.51,0Zm-.2,3a1.05,1.05,0,0,0-1.07-1.19,1.14,1.14,0,0,0-1,.64.57.57,0,0,0-.08.31c0,.85.41,1.49,1.14,1.49S53.72,121.49,53.72,120.75Z" transform="translate(-5.31 -9.9)"/><path class="cls-1" d="M47.3,130.06h2.91v.59H48v1.79h2V133H48v2.44h-.7Z" transform="translate(-5.31 -9.9)"/><path class="cls-1" d="M54.33,130.25v.47l-2.27,4.73h-.72l2.25-4.6H51.05v-.59Z" transform="translate(-5.31 -9.9)"/><path class="cls-1" d="M153.6,28.8c0,1.76-.66,2.74-1.81,2.74s-1.7-.95-1.72-2.67.75-2.7,1.81-2.7S153.6,27.14,153.6,28.8Zm-2.83.08c0,1.35.42,2.12,1.06,2.12s1.06-.84,1.06-2.17-.33-2.12-1-2.12S150.77,27.46,150.77,28.88Z" transform="translate(-5.31 -9.9)"/><path class="cls-1" d="M153.6,41.8c0,1.76-.66,2.74-1.81,2.74s-1.7-.95-1.72-2.67.75-2.7,1.81-2.7S153.6,40.14,153.6,41.8Zm-2.83.08c0,1.35.42,2.12,1.06,2.12s1.06-.84,1.06-2.17-.33-2.12-1-2.12S150.77,40.46,150.77,41.88Z" transform="translate(-5.31 -9.9)"/><path class="cls-1" d="M150.55,57a3,3,0,0,0,.57,0,1.93,1.93,0,0,0,1.09-.5,2.27,2.27,0,0,0,.68-1.39h0a1.56,1.56,0,0,1-2.76-1,1.78,1.78,0,0,1,1.77-1.84c1.07,0,1.72.86,1.72,2.19a3.31,3.31,0,0,1-.89,2.44,2.57,2.57,0,0,1-1.51.69,3.16,3.16,0,0,1-.65,0Zm.26-3a1,1,0,0,0,1,1.1,1.17,1.17,0,0,0,1-.54.5.5,0,0,0,.06-.26c0-.89-.33-1.57-1.06-1.57S150.81,53.23,150.81,54Z" transform="translate(-5.31 -9.9)"/><path class="cls-1" d="M148.09,70.45V70l.55-.54c1.33-1.26,1.93-1.93,1.94-2.71a.93.93,0,0,0-1-1,1.77,1.77,0,0,0-1.11.44l-.22-.5a2.29,2.29,0,0,1,1.47-.52,1.46,1.46,0,0,1,1.59,1.51c0,1-.7,1.73-1.79,2.79l-.42.38v0h2.34v.58Z" transform="translate(-5.31 -9.9)"/><path class="cls-1" d="M155.3,65.85h-2l-.2,1.33a3.91,3.91,0,0,1,.43,0,2.22,2.22,0,0,1,1.12.28,1.49,1.49,0,0,1,.74,1.33,1.81,1.81,0,0,1-1.94,1.78,2.55,2.55,0,0,1-1.29-.32l.18-.54a2.28,2.28,0,0,0,1.11.29,1.15,1.15,0,0,0,1.23-1.13c0-.67-.46-1.15-1.5-1.15a4.63,4.63,0,0,0-.72.06l.34-2.5h2.49Z" transform="translate(-5.31 -9.9)"/><path class="cls-1" d="M149.62,78.91h0l-.9.49-.14-.54,1.14-.61h.6v5.2h-.68Z" transform="translate(-5.31 -9.9)"/><path class="cls-1" d="M152.19,83.45V83l.56-.54c1.32-1.26,1.92-1.93,1.93-2.71a.93.93,0,0,0-1-1,1.76,1.76,0,0,0-1.1.44l-.23-.5a2.29,2.29,0,0,1,1.47-.52,1.46,1.46,0,0,1,1.59,1.51c0,1-.69,1.73-1.79,2.79l-.41.38v0h2.33v.58Z" transform="translate(-5.31 -9.9)"/><path class="cls-1" d="M148.09,96.45V96l.55-.54c1.33-1.26,1.93-1.93,1.94-2.71a.93.93,0,0,0-1-1,1.77,1.77,0,0,0-1.11.44l-.22-.5a2.29,2.29,0,0,1,1.47-.52,1.46,1.46,0,0,1,1.59,1.51c0,1-.7,1.73-1.79,2.79l-.42.38v0h2.34v.58Z" transform="translate(-5.31 -9.9)"/><path class="cls-1" d="M152.19,96.45V96l.56-.54c1.32-1.26,1.92-1.93,1.93-2.71a.93.93,0,0,0-1-1,1.76,1.76,0,0,0-1.1.44l-.23-.5a2.29,2.29,0,0,1,1.47-.52,1.46,1.46,0,0,1,1.59,1.51c0,1-.69,1.73-1.79,2.79l-.41.38v0h2.33v.58Z" transform="translate(-5.31 -9.9)"/><path class="cls-1" d="M153.24,104.85h-2l-.2,1.33a3.91,3.91,0,0,1,.43,0,2.18,2.18,0,0,1,1.11.28,1.48,1.48,0,0,1,.75,1.33,1.81,1.81,0,0,1-1.94,1.78,2.55,2.55,0,0,1-1.29-.32l.17-.54a2.33,2.33,0,0,0,1.12.29,1.15,1.15,0,0,0,1.23-1.13c0-.67-.46-1.15-1.5-1.15a4.52,4.52,0,0,0-.72.06l.34-2.5h2.48Z" transform="translate(-5.31 -9.9)"/><path class="cls-1" d="M148.09,122.45V122l.55-.54c1.33-1.26,1.93-1.93,1.94-2.71a.93.93,0,0,0-1-1,1.77,1.77,0,0,0-1.11.44l-.22-.5a2.29,2.29,0,0,1,1.47-.52,1.46,1.46,0,0,1,1.59,1.51c0,1-.7,1.73-1.79,2.79l-.42.38v0h2.34v.58Z" transform="translate(-5.31 -9.9)"/><path class="cls-1" d="M152.36,121.64a2.35,2.35,0,0,0,1.15.33c.91,0,1.19-.57,1.18-1,0-.72-.67-1-1.35-1H153v-.52h.39c.52,0,1.16-.27,1.16-.88,0-.42-.26-.79-.91-.79a2,2,0,0,0-1,.35l-.18-.51a2.47,2.47,0,0,1,1.36-.4c1,0,1.49.6,1.49,1.24a1.29,1.29,0,0,1-1,1.22h0a1.36,1.36,0,0,1,1.16,1.34c0,.83-.65,1.56-1.9,1.56a2.64,2.64,0,0,1-1.35-.35Z" transform="translate(-5.31 -9.9)"/><path class="cls-1" d="M152.32,135.45V134H149.9v-.47l2.32-3.32H153v3.23h.73V134H153v1.41Zm0-2v-1.73c0-.27,0-.54,0-.82h0c-.16.31-.29.53-.44.77l-1.27,1.77h1.71Z" transform="translate(-5.31 -9.9)"/><path class="cls-1" d="M6.85,11.1H5.31v-.83H9.38v.83H7.83v4.56h-1Z" transform="translate(-5.31 -9.9)"/><path class="cls-1" d="M10.59,11.77l.71,2.09c.08.24.16.53.21.76h0c.06-.23.13-.52.2-.77l.61-2.08h1.06l-1,2.65a5.72,5.72,0,0,1-1.36,2.51,2,2,0,0,1-1,.5l-.22-.83a1.71,1.71,0,0,0,.57-.27,1.67,1.67,0,0,0,.54-.62.38.38,0,0,0,.06-.17.55.55,0,0,0-.05-.2L9.51,11.77Z" transform="translate(-5.31 -9.9)"/><path class="cls-1" d="M14,13.06c0-.51,0-.92,0-1.29h.86l0,.6h0a1.53,1.53,0,0,1,1.34-.69,1.77,1.77,0,0,1,1.64,2,1.86,1.86,0,0,1-1.78,2.09A1.27,1.27,0,0,1,15,15.23h0v2H14Zm1,1a1.12,1.12,0,0,0,0,.27.9.9,0,0,0,.87.69c.62,0,1-.52,1-1.29s-.34-1.24-1-1.24a.91.91,0,0,0-.88.73,1,1,0,0,0,0,.24Z" transform="translate(-5.31 -9.9)"/><path class="cls-1" d="M19.35,14a1.06,1.06,0,0,0,1.2,1,2.73,2.73,0,0,0,1.08-.18l.15.68a3.6,3.6,0,0,1-1.36.24,1.84,1.84,0,0,1-2-2,1.93,1.93,0,0,1,1.9-2.1A1.69,1.69,0,0,1,22,13.58,2.07,2.07,0,0,1,22,14Zm1.71-.69a.83.83,0,0,0-.8-1,1,1,0,0,0-.91,1Z" transform="translate(-5.31 -9.9)"/><path class="cls-1" d="M28.14,13.68a1.93,1.93,0,0,1-2,2.07,1.88,1.88,0,0,1-1.95-2,1.93,1.93,0,0,1,2-2.06A1.87,1.87,0,0,1,28.14,13.68Zm-2.93,0c0,.75.37,1.32,1,1.32s.95-.55.95-1.34c0-.6-.27-1.3-.95-1.3S25.21,13.07,25.21,13.72Z" transform="translate(-5.31 -9.9)"/><path class="cls-1" d="M29.06,15.66V12.51h-.52v-.74h.52V11.6a1.82,1.82,0,0,1,.48-1.33,1.47,1.47,0,0,1,1-.37,2.06,2.06,0,0,1,.63.09l-.07.76a1.12,1.12,0,0,0-.41-.07c-.49,0-.66.41-.66.89v.2h.86v.74h-.85v3.15Z" transform="translate(-5.31 -9.9)"/><path class="cls-1" d="M33.2,10.35a7.55,7.55,0,0,1,1.43-.12,2.54,2.54,0,0,1,1.55.35,1.14,1.14,0,0,1,.55,1,1.24,1.24,0,0,1-.89,1.16v0a1.35,1.35,0,0,1,1.09,1.33,1.43,1.43,0,0,1-.52,1.12,3.05,3.05,0,0,1-2,.5,10,10,0,0,1-1.21-.07Zm1,2.12h.5c.68,0,1.06-.32,1.06-.77s-.38-.74-1-.74a3,3,0,0,0-.56,0Zm0,2.48a3.36,3.36,0,0,0,.52,0c.63,0,1.19-.24,1.19-.91s-.55-.88-1.23-.88h-.48Z" transform="translate(-5.31 -9.9)"/><path class="cls-1" d="M40,15.66l-.06-.43h0a1.43,1.43,0,0,1-1.15.52,1.16,1.16,0,0,1-1.22-1.16c0-1,.87-1.48,2.31-1.47v-.06c0-.26-.11-.68-.79-.68a2,2,0,0,0-1.05.29L37.78,12a2.72,2.72,0,0,1,1.4-.35,1.46,1.46,0,0,1,1.61,1.64v1.41a6.12,6.12,0,0,0,.06.93Zm-.13-1.9c-.69,0-1.36.14-1.36.73a.52.52,0,0,0,.56.56.81.81,0,0,0,.77-.54.82.82,0,0,0,0-.21Z" transform="translate(-5.31 -9.9)"/><path class="cls-1" d="M44.7,15.54a2.81,2.81,0,0,1-1.11.2,1.86,1.86,0,0,1-2-2,2,2,0,0,1,2.16-2.08,2.32,2.32,0,0,1,1,.19l-.17.73a1.77,1.77,0,0,0-.75-.15,1.16,1.16,0,0,0-1.19,1.26A1.16,1.16,0,0,0,43.78,15a1.92,1.92,0,0,0,.78-.15Z" transform="translate(-5.31 -9.9)"/><path class="cls-1" d="M46.55,10.66v1.11h.94v.74h-.94v1.71c0,.48.13.72.51.72a1.76,1.76,0,0,0,.38,0l0,.75a2.43,2.43,0,0,1-.72.09,1.11,1.11,0,0,1-.84-.32,1.52,1.52,0,0,1-.31-1.08V12.51H45v-.74h.56v-.88Z" transform="translate(-5.31 -9.9)"/><path class="cls-1" d="M48.93,14c0,.71.57,1,1.2,1a2.8,2.8,0,0,0,1.08-.18l.14.68a3.57,3.57,0,0,1-1.36.24,1.84,1.84,0,0,1-2-2,1.94,1.94,0,0,1,1.91-2.1,1.7,1.7,0,0,1,1.68,1.9,1.93,1.93,0,0,1,0,.41Zm1.71-.69a.83.83,0,0,0-.81-1,1,1,0,0,0-.9,1Z" transform="translate(-5.31 -9.9)"/><path class="cls-1" d="M52.36,13c0-.52,0-.9,0-1.25h.85l0,.74h0a1.16,1.16,0,0,1,1.06-.83.8.8,0,0,1,.23,0v.92a1.84,1.84,0,0,0-.28,0,.86.86,0,0,0-.88.74,1.46,1.46,0,0,0,0,.31v2h-1Z" transform="translate(-5.31 -9.9)"/><path class="cls-1" d="M56.26,10.68a.56.56,0,1,1-.56-.53A.53.53,0,0,1,56.26,10.68Zm-1,5V11.77h1v3.89Z" transform="translate(-5.31 -9.9)"/><path class="cls-1" d="M59.45,15.66l-.07-.43h0a1.43,1.43,0,0,1-1.15.52A1.16,1.16,0,0,1,57,14.59c0-1,.88-1.48,2.32-1.47v-.06c0-.26-.11-.68-.8-.68a2,2,0,0,0-1,.29L57.27,12a2.72,2.72,0,0,1,1.4-.35,1.46,1.46,0,0,1,1.61,1.64v1.41a6.12,6.12,0,0,0,.06.93Zm-.13-1.9c-.7,0-1.36.14-1.36.73a.52.52,0,0,0,.56.56.81.81,0,0,0,.77-.54.82.82,0,0,0,0-.21Z" transform="translate(-5.31 -9.9)"/><path class="cls-1" d="M64,10.68a.55.55,0,1,1-.55-.53A.52.52,0,0,1,64,10.68Zm-1,5V11.77h1v3.89Z" transform="translate(-5.31 -9.9)"/><path class="cls-1" d="M65,12.93c0-.45,0-.82,0-1.16h.87l0,.58h0a1.41,1.41,0,0,1,1.24-.67c.68,0,1.38.44,1.38,1.67v2.31h-1v-2.2c0-.55-.21-1-.75-1a.81.81,0,0,0-.76.58.83.83,0,0,0,0,.32v2.28H65Z" transform="translate(-5.31 -9.9)"/><path class="cls-1" d="M72.38,10.66v1.11h.94v.74h-.94v1.71c0,.48.13.72.51.72a1.76,1.76,0,0,0,.38,0l0,.75a2.43,2.43,0,0,1-.72.09,1.11,1.11,0,0,1-.84-.32,1.52,1.52,0,0,1-.31-1.08V12.51h-.56v-.74h.56v-.88Z" transform="translate(-5.31 -9.9)"/><path class="cls-1" d="M74.06,10h1v2.32h0a1.25,1.25,0,0,1,.49-.45,1.34,1.34,0,0,1,.67-.18c.66,0,1.36.44,1.36,1.69v2.29h-1V13.48c0-.57-.21-1-.76-1a.82.82,0,0,0-.76.55.91.91,0,0,0,0,.3v2.32h-1Z" transform="translate(-5.31 -9.9)"/><path class="cls-1" d="M79.33,14a1.06,1.06,0,0,0,1.2,1,2.73,2.73,0,0,0,1.08-.18l.15.68a3.6,3.6,0,0,1-1.36.24,1.84,1.84,0,0,1-2-2,1.93,1.93,0,0,1,1.9-2.1A1.69,1.69,0,0,1,82,13.58a2.07,2.07,0,0,1,0,.41Zm1.72-.69a.85.85,0,0,0-.81-1,1,1,0,0,0-.91,1Z" transform="translate(-5.31 -9.9)"/><path class="cls-1" d="M88.78,15.42a5.52,5.52,0,0,1-1.73.3A2.92,2.92,0,0,1,84.93,15a2.75,2.75,0,0,1-.75-2,2.74,2.74,0,0,1,3-2.8,3.53,3.53,0,0,1,1.43.25l-.21.8A2.89,2.89,0,0,0,87.17,11a1.81,1.81,0,0,0-2,1.94,1.79,1.79,0,0,0,1.88,1.95,2,2,0,0,0,.74-.11V13.46h-1v-.77h1.9Z" transform="translate(-5.31 -9.9)"/><path class="cls-1" d="M93.24,14.5c0,.46,0,.84,0,1.16h-.86l0-.59h0a1.41,1.41,0,0,1-1.25.68c-.71,0-1.35-.42-1.35-1.69V11.77h1v2.12c0,.65.21,1.06.73,1.06a.83.83,0,0,0,.75-.53.9.9,0,0,0,0-.3V11.77h1Z" transform="translate(-5.31 -9.9)"/><path class="cls-1" d="M95.43,10.66v1.11h.94v.74h-.94v1.71c0,.48.13.72.5.72a1.79,1.79,0,0,0,.39,0v.75a2.35,2.35,0,0,1-.71.09,1.15,1.15,0,0,1-.85-.32,1.57,1.57,0,0,1-.3-1.08V12.51h-.56v-.74h.56v-.88Z" transform="translate(-5.31 -9.9)"/><path class="cls-1" d="M114,11.92c0,1.1-.64,1.65-1.35,1.65S111.35,13,111.34,12a1.44,1.44,0,0,1,1.37-1.63C113.53,10.38,114,11,114,11.92Zm-1.93.06c0,.6.21,1,.6,1s.58-.42.58-1-.16-1-.58-1S112.09,11.39,112.09,12Zm.59,3.77,3-5.37h.56l-3,5.37Zm4.92-1.67c0,1.09-.63,1.65-1.35,1.65a1.38,1.38,0,0,1-1.32-1.57,1.45,1.45,0,0,1,1.36-1.63C117.11,12.53,117.6,13.15,117.6,14.08Zm-1.93.06c0,.59.21,1,.6,1s.59-.42.59-1-.16-1-.59-1S115.67,13.55,115.67,14.14Z" transform="translate(-5.31 -9.9)"/><path class="cls-1" d="M121,10.27v5.39h-1V10.27Z" transform="translate(-5.31 -9.9)"/><path class="cls-1" d="M122.13,12.93c0-.45,0-.82,0-1.16H123l.05.58h0a1.39,1.39,0,0,1,1.23-.67c.68,0,1.39.44,1.39,1.67v2.31h-1v-2.2c0-.55-.2-1-.74-1a.83.83,0,0,0-.77.58,1.08,1.08,0,0,0,0,.32v2.28h-1Z" transform="translate(-5.31 -9.9)"/><path class="cls-1" d="M131.42,13.27h-2v1.59h2.27v.8H128.4V10.27h3.14v.81h-2.15v1.39h2Z" transform="translate(-5.31 -9.9)"/><path class="cls-1" d="M136,14.5c0,.46,0,.84,0,1.16h-.86l0-.59h0a1.39,1.39,0,0,1-1.24.68c-.72,0-1.36-.42-1.36-1.69V11.77h1v2.12c0,.65.21,1.06.73,1.06a.82.82,0,0,0,.75-.53.89.89,0,0,0,.06-.3V11.77h1Z" transform="translate(-5.31 -9.9)"/><path class="cls-1" d="M137,13c0-.52,0-.9,0-1.25h.86l0,.74h0a1.16,1.16,0,0,1,1.07-.83.85.85,0,0,1,.23,0v.92a2,2,0,0,0-.29,0,.88.88,0,0,0-.88.74,1.48,1.48,0,0,0,0,.31v2h-1Z" transform="translate(-5.31 -9.9)"/><path class="cls-1" d="M143.58,13.68a1.93,1.93,0,0,1-2,2.07,1.88,1.88,0,0,1-2-2,1.93,1.93,0,0,1,2-2.06A1.87,1.87,0,0,1,143.58,13.68Zm-2.93,0c0,.75.37,1.32,1,1.32s.95-.55.95-1.34c0-.6-.27-1.3-.94-1.3S140.65,13.07,140.65,13.72Z" transform="translate(-5.31 -9.9)"/><path class="cls-1" d="M144.39,13.06c0-.51,0-.92,0-1.29h.87l0,.6h0a1.52,1.52,0,0,1,1.34-.69,1.77,1.77,0,0,1,1.63,2,1.85,1.85,0,0,1-1.77,2.09,1.29,1.29,0,0,1-1.1-.52h0v2h-1Zm1,1a1.12,1.12,0,0,0,0,.27.89.89,0,0,0,.86.69c.63,0,1-.52,1-1.29s-.33-1.24-1-1.24a.9.9,0,0,0-.88.73.67.67,0,0,0,0,.24Z" transform="translate(-5.31 -9.9)"/><path class="cls-1" d="M149.77,14a1.06,1.06,0,0,0,1.2,1,2.77,2.77,0,0,0,1.08-.18l.14.68a3.57,3.57,0,0,1-1.36.24,1.83,1.83,0,0,1-2-2,1.93,1.93,0,0,1,1.9-2.1,1.7,1.7,0,0,1,1.68,1.9,3.32,3.32,0,0,1,0,.41Zm1.71-.69a.83.83,0,0,0-.81-1,1,1,0,0,0-.9,1Z" transform="translate(-5.31 -9.9)"/><path class="cls-1" d="M155.39,15.66l-.06-.43h0a1.44,1.44,0,0,1-1.16.52,1.16,1.16,0,0,1-1.22-1.16c0-1,.87-1.48,2.31-1.47v-.06c0-.26-.1-.68-.79-.68a2.08,2.08,0,0,0-1,.29l-.19-.64a2.76,2.76,0,0,1,1.41-.35,1.45,1.45,0,0,1,1.6,1.64v1.41a6.12,6.12,0,0,0,.06.93Zm-.12-1.9c-.7,0-1.36.14-1.36.73a.51.51,0,0,0,.56.56.78.78,0,0,0,.76-.54.56.56,0,0,0,0-.21Z" transform="translate(-5.31 -9.9)"/><path class="cls-1" d="M157.27,12.93c0-.45,0-.82,0-1.16h.87l.05.58h0a1.41,1.41,0,0,1,1.24-.67c.68,0,1.38.44,1.38,1.67v2.31h-1v-2.2c0-.55-.21-1-.74-1a.81.81,0,0,0-.77.58,1.08,1.08,0,0,0,0,.32v2.28h-1Z" transform="translate(-5.31 -9.9)"/><path class="cls-1" d="M167.4,15.5a3.38,3.38,0,0,1-1.39.24A2.54,2.54,0,0,1,163.26,13a2.71,2.71,0,0,1,2.88-2.84,3,3,0,0,1,1.31.24l-.22.78a2.59,2.59,0,0,0-1-.21,1.79,1.79,0,0,0-1.89,2,1.77,1.77,0,0,0,1.88,1.95,2.76,2.76,0,0,0,1.07-.2Z" transform="translate(-5.31 -9.9)"/><path class="cls-1" d="M168.2,10h1v2.32h0a1.25,1.25,0,0,1,.49-.45,1.34,1.34,0,0,1,.67-.18c.66,0,1.36.44,1.36,1.69v2.29h-1V13.48c0-.57-.2-1-.75-1a.82.82,0,0,0-.76.55.91.91,0,0,0,0,.3v2.32h-1Z" transform="translate(-5.31 -9.9)"/><path class="cls-1" d="M173.83,10.68a.56.56,0,1,1-.56-.53A.53.53,0,0,1,173.83,10.68Zm-1.05,5V11.77h1v3.89Z" transform="translate(-5.31 -9.9)"/><path class="cls-1" d="M174.83,10h1v5.67h-1Z" transform="translate(-5.31 -9.9)"/><path class="cls-1" d="M180.47,10v4.58c0,.4,0,.83,0,1.09h-.88l0-.61h0a1.41,1.41,0,0,1-1.27.7,1.79,1.79,0,0,1-1.67-2,1.86,1.86,0,0,1,1.75-2.08,1.25,1.25,0,0,1,1.09.51h0V10Zm-1,3.4a1.07,1.07,0,0,0,0-.25.85.85,0,0,0-.84-.7c-.64,0-1,.56-1,1.29s.35,1.23,1,1.23a.87.87,0,0,0,.85-.7,1.2,1.2,0,0,0,0-.28Z" transform="translate(-5.31 -9.9)"/><path class="cls-1" d="M181.53,13c0-.52,0-.9,0-1.25h.85l0,.74h0a1.15,1.15,0,0,1,1.06-.83.8.8,0,0,1,.23,0v.92a2,2,0,0,0-.29,0,.88.88,0,0,0-.88.74,2.72,2.72,0,0,0,0,.31v2h-1Z" transform="translate(-5.31 -9.9)"/><path class="cls-1" d="M185.07,14a1.06,1.06,0,0,0,1.2,1,2.73,2.73,0,0,0,1.08-.18l.15.68a3.6,3.6,0,0,1-1.36.24,1.84,1.84,0,0,1-2-2,1.93,1.93,0,0,1,1.9-2.1,1.69,1.69,0,0,1,1.68,1.9,2.07,2.07,0,0,1,0,.41Zm1.71-.69a.83.83,0,0,0-.8-1,1,1,0,0,0-.91,1Z" transform="translate(-5.31 -9.9)"/><path class="cls-1" d="M188.5,12.93c0-.45,0-.82,0-1.16h.87l0,.58h0a1.41,1.41,0,0,1,1.24-.67c.68,0,1.38.44,1.38,1.67v2.31h-1v-2.2c0-.55-.21-1-.75-1a.81.81,0,0,0-.76.58.83.83,0,0,0,0,.32v2.28h-1Z" transform="translate(-5.31 -9.9)"/><path class="cls-1" d="M206.82,10.35a7.82,7.82,0,0,1,1.5-.12,2.47,2.47,0,0,1,1.59.44,1.54,1.54,0,0,1,.53,1.2,1.64,1.64,0,0,1-.46,1.22,2.41,2.41,0,0,1-1.71.57,2.33,2.33,0,0,1-.48,0v2h-1Zm1,2.51a2.09,2.09,0,0,0,.48,0c.74,0,1.19-.36,1.19-1S209,11,208.36,11a3.35,3.35,0,0,0-.57,0Z" transform="translate(-5.31 -9.9)"/><path class="cls-1" d="M211.29,10.35a8.61,8.61,0,0,1,1.49-.12,2.46,2.46,0,0,1,1.66.44,1.33,1.33,0,0,1,.46,1.08,1.45,1.45,0,0,1-1,1.35v0a1.4,1.4,0,0,1,.75,1,11.15,11.15,0,0,0,.42,1.5h-1a7.43,7.43,0,0,1-.36-1.27c-.15-.7-.41-.93-1-.94h-.49v2.21h-1Zm1,2.38h.58c.66,0,1.08-.35,1.08-.89s-.42-.86-1.06-.86a2.34,2.34,0,0,0-.6,0Z" transform="translate(-5.31 -9.9)"/><path class="cls-1" d="M218.86,13.27h-2v1.59h2.27v.8h-3.26V10.27H219v.81h-2.15v1.39h2Z" transform="translate(-5.31 -9.9)"/><path class="cls-1" d="M223.82,15.5a3.38,3.38,0,0,1-1.39.24A2.54,2.54,0,0,1,219.68,13a2.71,2.71,0,0,1,2.88-2.84,3,3,0,0,1,1.31.24l-.21.78A2.68,2.68,0,0,0,222.6,11a1.8,1.8,0,0,0-1.89,2,1.77,1.77,0,0,0,1.88,1.95,2.72,2.72,0,0,0,1.07-.2Z" transform="translate(-5.31 -9.9)"/><path class="cls-1" d="M227.68,13.27h-2v1.59h2.27v.8h-3.25V10.27h3.13v.81h-2.15v1.39h2Z" transform="translate(-5.31 -9.9)"/><path class="cls-1" d="M228.79,15.66V10.27h1.12l1.39,2.32a15.34,15.34,0,0,1,.92,1.8h0c-.06-.72-.09-1.41-.09-2.24V10.27h.92v5.39h-1l-1.41-2.36a18.36,18.36,0,0,1-1-1.87h0c0,.7.05,1.41.05,2.3v1.92Z" transform="translate(-5.31 -9.9)"/><path class="cls-1" d="M235.23,11.1h-1.54v-.83h4.07v.83h-1.55v4.56h-1Z" transform="translate(-5.31 -9.9)"/><path class="cls-1" d="M239.47,14.14,239,15.66h-1l1.73-5.39H241l1.75,5.39h-1.06l-.49-1.52Zm1.55-.75-.43-1.32c-.1-.33-.19-.7-.27-1h0c-.08.31-.16.69-.25,1l-.42,1.32Z" transform="translate(-5.31 -9.9)"/><path class="cls-1" d="M247.8,15.42a5.59,5.59,0,0,1-1.74.3A2.89,2.89,0,0,1,244,15a2.67,2.67,0,0,1-.75-2,2.74,2.74,0,0,1,3-2.8,3.61,3.61,0,0,1,1.43.25l-.21.8a2.89,2.89,0,0,0-1.23-.24,1.81,1.81,0,0,0-2,1.94,1.79,1.79,0,0,0,1.87,1.95,2,2,0,0,0,.75-.11V13.46h-.95v-.77h1.9Z" transform="translate(-5.31 -9.9)"/><path class="cls-1" d="M251.82,13.27h-2v1.59h2.27v.8h-3.25V10.27h3.13v.81h-2.15v1.39h2Z" transform="translate(-5.31 -9.9)"/><path class="cls-1" d="M259.37,12.91a2.55,2.55,0,0,1-2.58,2.84A2.49,2.49,0,0,1,254.31,13a2.58,2.58,0,0,1,2.56-2.82A2.49,2.49,0,0,1,259.37,12.91Zm-4,.08c0,1.1.55,2,1.49,2s1.49-.88,1.49-2-.51-2-1.49-2S255.35,11.88,255.35,13Z" transform="translate(-5.31 -9.9)"/><path class="cls-1" d="M260.22,10.27h3.11v.81H261.2v1.49h2v.81h-2v2.28h-1Z" transform="translate(-5.31 -9.9)"/><path class="cls-1" d="M266,10.35a7.55,7.55,0,0,1,1.43-.12,2.53,2.53,0,0,1,1.54.35,1.13,1.13,0,0,1,.56,1,1.24,1.24,0,0,1-.9,1.16v0a1.35,1.35,0,0,1,1.09,1.33,1.43,1.43,0,0,1-.52,1.12,3,3,0,0,1-2,.5,9.82,9.82,0,0,1-1.2-.07Zm1,2.12h.5c.68,0,1.07-.32,1.07-.77s-.39-.74-1-.74a3,3,0,0,0-.56,0Zm0,2.48a3.54,3.54,0,0,0,.52,0c.63,0,1.19-.24,1.19-.91s-.54-.88-1.22-.88h-.49Z" transform="translate(-5.31 -9.9)"/><path class="cls-1" d="M271.63,14.14l-.46,1.52h-1l1.73-5.39h1.26l1.75,5.39h-1.06l-.49-1.52Zm1.55-.75-.43-1.32c-.1-.33-.19-.7-.27-1h0c-.08.31-.16.69-.25,1l-.42,1.32Z" transform="translate(-5.31 -9.9)"/><path class="cls-1" d="M279.5,15.5a3.38,3.38,0,0,1-1.39.24A2.54,2.54,0,0,1,275.36,13a2.71,2.71,0,0,1,2.88-2.84,3,3,0,0,1,1.31.24l-.21.78a2.68,2.68,0,0,0-1.06-.21,1.8,1.8,0,0,0-1.89,2,1.77,1.77,0,0,0,1.88,1.95,2.72,2.72,0,0,0,1.07-.2Z" transform="translate(-5.31 -9.9)"/><path class="cls-1" d="M281.38,11.1h-1.54v-.83h4.07v.83h-1.55v4.56h-1Z" transform="translate(-5.31 -9.9)"/><path class="cls-1" d="M287.56,13.27h-2v1.59h2.27v.8h-3.26V10.27h3.14v.81h-2.15v1.39h2Z" transform="translate(-5.31 -9.9)"/><path class="cls-1" d="M288.67,10.35a8.4,8.4,0,0,1,1.48-.12,2.47,2.47,0,0,1,1.67.44,1.36,1.36,0,0,1,.46,1.08,1.44,1.44,0,0,1-1,1.35v0a1.39,1.39,0,0,1,.76,1,9.79,9.79,0,0,0,.42,1.5h-1a8.57,8.57,0,0,1-.36-1.27c-.15-.7-.4-.93-1-.94h-.5v2.21h-1Zm1,2.38h.58c.67,0,1.08-.35,1.08-.89s-.41-.86-1.05-.86a2.49,2.49,0,0,0-.61,0Z" transform="translate(-5.31 -9.9)"/><path class="cls-1" d="M294.2,10.27v5.39h-1V10.27Z" transform="translate(-5.31 -9.9)"/><path class="cls-1" d="M296.41,14.14,296,15.66h-1l1.73-5.39h1.25l1.75,5.39h-1.05l-.49-1.52Zm1.54-.75-.42-1.32c-.11-.33-.19-.7-.27-1h0c-.08.31-.16.69-.26,1l-.41,1.32Z" transform="translate(-5.31 -9.9)"/><path class="cls-1" d="M303.06,10.27v5.39h-1V10.27Z" transform="translate(-5.31 -9.9)"/><path class="cls-1" d="M304.18,15.66V10.27h1.12l1.4,2.32a15.34,15.34,0,0,1,.92,1.8h0c-.06-.72-.09-1.41-.09-2.24V10.27h.91v5.39h-1L306,13.3a20.75,20.75,0,0,1-1-1.87h0c0,.7,0,1.41,0,2.3v1.92Z" transform="translate(-5.31 -9.9)"/><path class="cls-1" d="M314.26,13.27h-2v1.59h2.27v.8h-3.25V10.27h3.13v.81h-2.15v1.39h2Z" transform="translate(-5.31 -9.9)"/><path class="cls-1" d="M316.34,10.27v3.15c0,1.05.44,1.54,1.11,1.54s1.13-.49,1.13-1.54V10.27h1v3.08c0,1.67-.86,2.4-2.15,2.4s-2.06-.69-2.06-2.39V10.27Z" transform="translate(-5.31 -9.9)"/><path class="cls-1" d="M320.7,10.35a8.49,8.49,0,0,1,1.48-.12,2.47,2.47,0,0,1,1.67.44,1.36,1.36,0,0,1,.46,1.08,1.44,1.44,0,0,1-1,1.35v0a1.39,1.39,0,0,1,.76,1,9.79,9.79,0,0,0,.42,1.5h-1a8.13,8.13,0,0,1-.37-1.27c-.15-.7-.4-.93-1-.94h-.5v2.21h-1Zm1,2.38h.59c.66,0,1.07-.35,1.07-.89s-.41-.86-1.05-.86a2.49,2.49,0,0,0-.61,0Z" transform="translate(-5.31 -9.9)"/><path class="cls-1" d="M330,12.91a2.55,2.55,0,0,1-2.58,2.84A2.49,2.49,0,0,1,325,13a2.58,2.58,0,0,1,2.56-2.82A2.49,2.49,0,0,1,330,12.91ZM326,13c0,1.1.55,2,1.49,2s1.49-.88,1.49-2-.5-2-1.49-2S326,11.88,326,13Z" transform="translate(-5.31 -9.9)"/><path class="cls-1" d="M330.88,10.35a7.82,7.82,0,0,1,1.5-.12,2.47,2.47,0,0,1,1.59.44,1.54,1.54,0,0,1,.53,1.2,1.64,1.64,0,0,1-.46,1.22,2.39,2.39,0,0,1-1.71.57,2.18,2.18,0,0,1-.47,0v2h-1Zm1,2.51a2.05,2.05,0,0,0,.47,0c.74,0,1.19-.36,1.19-1s-.42-.92-1.1-.92a3.12,3.12,0,0,0-.56,0Z" transform="translate(-5.31 -9.9)"/><path class="cls-1" d="M338.37,13.27h-2v1.59h2.27v.8h-3.26V10.27h3.14v.81h-2.15v1.39h2Z" transform="translate(-5.31 -9.9)"/><path class="cls-1" d="M340.55,14.14l-.46,1.52h-1l1.73-5.39h1.25l1.76,5.39h-1.06l-.49-1.52Zm1.54-.75-.42-1.32c-.1-.33-.19-.7-.27-1h0c-.08.31-.16.69-.25,1l-.42,1.32Z" transform="translate(-5.31 -9.9)"/><path class="cls-1" d="M344.56,15.66V10.27h1.12l1.39,2.32a15.34,15.34,0,0,1,.92,1.8h0c-.07-.72-.09-1.41-.09-2.24V10.27h.91v5.39h-1l-1.4-2.36a16.62,16.62,0,0,1-1-1.87h0c0,.7,0,1.41,0,2.3v1.92Z" transform="translate(-5.31 -9.9)"/><path class="cls-1" d="M355.49,15.5a3.48,3.48,0,0,1-1.4.24A2.54,2.54,0,0,1,351.34,13a2.71,2.71,0,0,1,2.88-2.84,3,3,0,0,1,1.31.24l-.21.78a2.68,2.68,0,0,0-1.06-.21,1.79,1.79,0,0,0-1.88,2,1.77,1.77,0,0,0,1.87,1.95,2.81,2.81,0,0,0,1.08-.2Z" transform="translate(-5.31 -9.9)"/><path class="cls-1" d="M357.31,10.27v2.16h2.28V10.27h1v5.39h-1V13.29h-2.28v2.37h-1V10.27Z" transform="translate(-5.31 -9.9)"/><path class="cls-1" d="M362.69,10.27v5.39h-1V10.27Z" transform="translate(-5.31 -9.9)"/><path class="cls-1" d="M363.82,10.27h1v4.57H367v.82h-3.19Z" transform="translate(-5.31 -9.9)"/><path class="cls-1" d="M367.76,10.35a9,9,0,0,1,1.57-.12,3.28,3.28,0,0,1,2.2.63,2.4,2.4,0,0,1,.84,2,2.78,2.78,0,0,1-.84,2.14,3.61,3.61,0,0,1-2.44.74,10.81,10.81,0,0,1-1.33-.07Zm1,4.56a3,3,0,0,0,.55,0,1.85,1.85,0,0,0,2-2.07A1.71,1.71,0,0,0,369.42,11a3.28,3.28,0,0,0-.68.06Z" transform="translate(-5.31 -9.9)"/><path class="cls-1" d="M373.22,10.35a8.61,8.61,0,0,1,1.49-.12,2.44,2.44,0,0,1,1.66.44,1.34,1.34,0,0,1,.47,1.08,1.44,1.44,0,0,1-1,1.35v0a1.35,1.35,0,0,1,.75,1,10.74,10.74,0,0,0,.43,1.5h-1a7.43,7.43,0,0,1-.36-1.27c-.15-.7-.41-.93-1-.94h-.5v2.21h-1Zm1,2.38h.58c.67,0,1.08-.35,1.08-.89s-.41-.86-1.05-.86a2.43,2.43,0,0,0-.61,0Z" transform="translate(-5.31 -9.9)"/><path class="cls-1" d="M380.79,13.27h-2v1.59H381v.8h-3.25V10.27h3.13v.81h-2.15v1.39h2Z" transform="translate(-5.31 -9.9)"/><path class="cls-1" d="M381.9,15.66V10.27H383l1.39,2.32a15.34,15.34,0,0,1,.92,1.8h0c-.06-.72-.09-1.41-.09-2.24V10.27h.92v5.39h-1l-1.41-2.36a18.36,18.36,0,0,1-1-1.87h0c0,.7.05,1.41.05,2.3v1.92Z" transform="translate(-5.31 -9.9)"/><path class="cls-1" d="M388.44,10.19a10,10,0,0,1-.86,2l-.6.06a12.82,12.82,0,0,0,.51-2Z" transform="translate(-5.31 -9.9)"/><path class="cls-1" d="M389.17,14.59a2.65,2.65,0,0,0,1.3.35c.63,0,1-.3,1-.74s-.27-.65-.95-.9c-.89-.32-1.46-.79-1.46-1.56s.74-1.55,1.9-1.55a2.77,2.77,0,0,1,1.3.27l-.24.79a2.32,2.32,0,0,0-1.07-.26c-.63,0-.9.34-.9.65s.31.61,1,.89c.94.35,1.39.82,1.39,1.6s-.65,1.61-2,1.61a3.32,3.32,0,0,1-1.46-.33Z" transform="translate(-5.31 -9.9)"/><path class="cls-1" d="M399.32,15.42a5.65,5.65,0,0,1-1.74.3,2.89,2.89,0,0,1-2.11-.72,2.67,2.67,0,0,1-.75-2,2.73,2.73,0,0,1,3-2.8,3.61,3.61,0,0,1,1.43.25l-.22.8a2.81,2.81,0,0,0-1.22-.24,1.81,1.81,0,0,0-2,1.94,1.78,1.78,0,0,0,1.87,1.95,2,2,0,0,0,.75-.11V13.46h-1v-.77h1.91Z" transform="translate(-5.31 -9.9)"/><path class="cls-1" d="M401.3,10.27v3.15c0,1.05.44,1.54,1.11,1.54s1.13-.49,1.13-1.54V10.27h1v3.08c0,1.67-.86,2.4-2.16,2.4s-2.05-.69-2.05-2.39V10.27Z" transform="translate(-5.31 -9.9)"/><path class="cls-1" d="M406.69,11.1h-1.54v-.83h4.07v.83h-1.55v4.56h-1Z" transform="translate(-5.31 -9.9)"/><path class="cls-1" d="M409.83,14.59a2.65,2.65,0,0,0,1.3.35c.64,0,1-.3,1-.74s-.27-.65-1-.9c-.89-.32-1.46-.79-1.46-1.56s.74-1.55,1.91-1.55a2.76,2.76,0,0,1,1.29.27l-.24.79a2.32,2.32,0,0,0-1.07-.26c-.62,0-.89.34-.89.65s.31.61,1,.89c.93.35,1.39.82,1.39,1.6s-.66,1.61-2.05,1.61a3.23,3.23,0,0,1-1.45-.33Z" transform="translate(-5.31 -9.9)"/><path class="cls-2" d="M317.33,88.51l.75-43.09a42.55,42.55,0,0,0-11.18,1.27Z" transform="translate(-5.31 -9.9)"/><path class="cls-3" d="M317.33,88.51,340.8,52.36a40.77,40.77,0,0,0-22.72-6.94Z" transform="translate(-5.31 -9.9)"/><path class="cls-4" d="M317.33,88.51,353.47,112A43.11,43.11,0,0,0,340.8,52.36h0Z" transform="translate(-5.31 -9.9)"/><path class="cls-5" d="M317.33,88.51l10.43,41.81A41.27,41.27,0,0,0,353.47,112Z" transform="translate(-5.31 -9.9)"/><path class="cls-6" d="M317.33,88.51,278,106a43,43,0,0,0,49.8,24.29Z" transform="translate(-5.31 -9.9)"/><path class="cls-7" d="M317.33,88.51,274.47,93A41.21,41.21,0,0,0,278,106Z" transform="translate(-5.31 -9.9)"/><path class="cls-8" d="M317.33,88.51,306.9,46.69A42.49,42.49,0,0,0,274.47,93Z" transform="translate(-5.31 -9.9)"/><path class="cls-1" d="M340.69,76.78h3.11v.81h-2.13v1.49h2v.8h-2v2.29h-1Z" transform="translate(-5.31 -9.9)"/><path class="cls-1" d="M344.54,82.17v-.6l.61-.57c1.23-1.13,1.8-1.76,1.81-2.44a.82.82,0,0,0-.93-.88,1.9,1.9,0,0,0-1.11.44l-.29-.7a2.62,2.62,0,0,1,1.6-.54,1.54,1.54,0,0,1,1.71,1.58c0,.91-.65,1.65-1.56,2.49l-.45.39h2.13v.82Z" transform="translate(-5.31 -9.9)"/><path class="cls-1" d="M337,91.77v-.6l.61-.57c1.22-1.13,1.8-1.76,1.81-2.44a.82.82,0,0,0-.93-.87,1.87,1.87,0,0,0-1.11.43l-.29-.7a2.6,2.6,0,0,1,1.6-.53,1.54,1.54,0,0,1,1.71,1.57c0,.91-.65,1.65-1.56,2.49l-.45.39v0h2.13v.81Z" transform="translate(-5.31 -9.9)"/><path class="cls-1" d="M344.58,87.39h-2l-.16,1a2.17,2.17,0,0,1,.38,0,2.31,2.31,0,0,1,1.26.34,1.48,1.48,0,0,1,.68,1.32,1.9,1.9,0,0,1-2.1,1.8,2.85,2.85,0,0,1-1.37-.31l.2-.74a2.61,2.61,0,0,0,1.14.27,1,1,0,0,0,1.13-1c0-.59-.44-1-1.48-1a3.8,3.8,0,0,0-.72,0l.35-2.63h2.68Z" transform="translate(-5.31 -9.9)"/><path class="cls-1" d="M348.13,88c0,1.09-.64,1.65-1.35,1.65s-1.32-.56-1.33-1.56.57-1.63,1.37-1.63S348.13,87.09,348.13,88Zm-1.93,0c0,.6.21,1,.6,1s.59-.41.59-1-.16-1-.59-1S346.2,87.5,346.2,88.08Zm.59,3.78,3-5.37h.56l-3,5.37Zm4.92-1.67c0,1.08-.63,1.64-1.35,1.64A1.38,1.38,0,0,1,349,90.27a1.44,1.44,0,0,1,1.36-1.63C351.22,88.64,351.71,89.25,351.71,90.19Zm-1.92,0c0,.59.2,1,.59,1s.59-.41.59-1-.16-1-.59-1S349.79,89.66,349.79,90.24Z" transform="translate(-5.31 -9.9)"/><path class="cls-3" d="M328,28.16h3.11V29h-2.13v1.49h2v.8h-2v2.29h-1Z" transform="translate(-5.31 -9.9)"/><path class="cls-3" d="M333.35,29.24h0l-.95.48-.16-.74,1.26-.63h.82v5.2h-.95Z" transform="translate(-5.31 -9.9)"/><path class="cls-3" d="M326.81,42.45a2.6,2.6,0,0,0,.54,0,2,2,0,0,0,1.06-.4,1.85,1.85,0,0,0,.66-1.15h0a1.44,1.44,0,0,1-1.14.47,1.54,1.54,0,0,1-1.57-1.62,1.84,1.84,0,0,1,1.88-1.85c1.2,0,1.85,1,1.85,2.21a3.26,3.26,0,0,1-.9,2.42,2.91,2.91,0,0,1-1.78.71,4,4,0,0,1-.59,0Zm.51-2.78a.87.87,0,0,0,.86.95,1,1,0,0,0,.84-.43.67.67,0,0,0,.05-.28c0-.71-.25-1.32-.89-1.32S327.32,39,327.32,39.67Z" transform="translate(-5.31 -9.9)"/><path class="cls-3" d="M333.26,39.41c0,1.09-.64,1.65-1.35,1.65s-1.32-.56-1.33-1.56.57-1.63,1.37-1.63S333.26,38.47,333.26,39.41Zm-1.93.06c0,.59.21,1,.6,1s.58-.41.58-1-.16-1-.58-1S331.33,38.88,331.33,39.47Zm.59,3.77,3-5.37h.56l-3,5.37Zm4.92-1.67c0,1.09-.63,1.65-1.35,1.65a1.38,1.38,0,0,1-1.32-1.57A1.44,1.44,0,0,1,335.53,40C336.35,40,336.84,40.63,336.84,41.57Zm-1.93,0c0,.6.21,1,.6,1s.59-.41.59-1-.16-1-.59-1S334.91,41,334.91,41.62Z" transform="translate(-5.31 -9.9)"/><path class="cls-2" d="M308.88,28.16H312V29h-2.13v1.49h2v.8h-2v2.29h-1Z" transform="translate(-5.31 -9.9)"/><path class="cls-2" d="M316.3,28.35V29l-2.2,4.56h-1l2.19-4.36v0h-2.45v-.82Z" transform="translate(-5.31 -9.9)"/><path class="cls-2" d="M309.5,43.15V41.83h-2.35v-.64L309.27,38h1.16v3.14h.67v.74h-.67v1.32Zm0-2.06V39.67c0-.29,0-.6,0-.9h0c-.16.33-.3.59-.46.88l-1,1.42v0Z" transform="translate(-5.31 -9.9)"/><path class="cls-2" d="M314.18,39.41c0,1.09-.64,1.65-1.35,1.65s-1.32-.56-1.33-1.56.57-1.63,1.37-1.63S314.18,38.47,314.18,39.41Zm-1.93.06c0,.59.21,1,.6,1s.59-.41.59-1-.16-1-.59-1S312.25,38.88,312.25,39.47Zm.59,3.77,3-5.37h.56l-3,5.37Zm4.92-1.67c0,1.09-.63,1.65-1.35,1.65a1.38,1.38,0,0,1-1.32-1.57A1.44,1.44,0,0,1,316.45,40C317.27,40,317.76,40.63,317.76,41.57Zm-1.93,0c0,.6.21,1,.6,1s.59-.41.59-1-.16-1-.59-1S315.83,41,315.83,41.62Z" transform="translate(-5.31 -9.9)"/><path class="cls-1" d="M291.16,64.46h3.11v.81h-2.12v1.49h2v.8h-2v2.29h-1Z" transform="translate(-5.31 -9.9)"/><path class="cls-1" d="M298.18,65.35a4.79,4.79,0,0,0-.51,0,1.85,1.85,0,0,0-1.74,1.52h0a1.52,1.52,0,0,1,1.17-.5,1.56,1.56,0,0,1,1.59,1.69,1.8,1.8,0,0,1-1.83,1.86,2,2,0,0,1-2-2.24,3.13,3.13,0,0,1,.91-2.33,3,3,0,0,1,1.84-.77,2.27,2.27,0,0,1,.5,0Zm-.47,2.79c0-.6-.32-1-.9-1a1,1,0,0,0-.85.53.7.7,0,0,0-.06.32c0,.68.34,1.24,1,1.24S297.71,68.76,297.71,68.14Z" transform="translate(-5.31 -9.9)"/><path class="cls-1" d="M287.47,79.45v-.6l.61-.57c1.23-1.13,1.8-1.76,1.81-2.44A.82.82,0,0,0,289,75a1.92,1.92,0,0,0-1.11.43l-.28-.7a2.57,2.57,0,0,1,1.6-.53,1.54,1.54,0,0,1,1.71,1.57c0,.91-.66,1.65-1.56,2.49l-.46.39v0H291v.81Z" transform="translate(-5.31 -9.9)"/><path class="cls-1" d="M292,78.44a2.59,2.59,0,0,0,1.18.31c.75,0,1.06-.42,1.05-.83,0-.61-.58-.88-1.18-.88h-.45v-.72H293c.45,0,1-.2,1-.72,0-.35-.27-.65-.83-.65a2.05,2.05,0,0,0-1.07.33l-.22-.71a2.8,2.8,0,0,1,1.5-.4c1.07,0,1.62.59,1.62,1.27a1.26,1.26,0,0,1-1,1.21v0A1.31,1.31,0,0,1,295.21,78c0,.88-.73,1.58-2,1.58a2.9,2.9,0,0,1-1.46-.36Z" transform="translate(-5.31 -9.9)"/><path class="cls-1" d="M298.6,75.71c0,1.09-.64,1.65-1.35,1.65a1.38,1.38,0,0,1-1.32-1.56c0-1,.56-1.63,1.36-1.63S298.6,74.77,298.6,75.71Zm-1.92.05c0,.6.21,1,.6,1s.58-.41.58-1-.16-1-.58-1S296.68,75.18,296.68,75.76Zm.59,3.78,3-5.37h.56l-3,5.37Zm4.92-1.67c0,1.09-.64,1.64-1.36,1.64S299.52,79,299.52,78s.56-1.63,1.36-1.63S302.19,76.93,302.19,77.87Zm-1.93,0c0,.6.21,1,.6,1s.58-.41.58-1-.16-1-.58-1S300.26,77.34,300.26,77.92Z" transform="translate(-5.31 -9.9)"/><path class="cls-7" d="M261.16,94.46h3.11v.81h-2.12v1.49h2v.8h-2v2.29h-1Z" transform="translate(-5.31 -9.9)"/><path class="cls-7" d="M268.31,95.47h-2l-.15,1a2.17,2.17,0,0,1,.38,0,2.33,2.33,0,0,1,1.26.34,1.5,1.5,0,0,1,.68,1.32,1.9,1.9,0,0,1-2.1,1.8,2.9,2.9,0,0,1-1.38-.31l.2-.74a2.66,2.66,0,0,0,1.15.27,1,1,0,0,0,1.12-1c0-.59-.44-1-1.48-1a3.76,3.76,0,0,0-.71,0l.35-2.63h2.68Z" transform="translate(-5.31 -9.9)"/><path class="cls-7" d="M262.92,105.07h-2l-.15,1a2.05,2.05,0,0,1,.37,0,2.37,2.37,0,0,1,1.27.34,1.49,1.49,0,0,1,.67,1.32,1.9,1.9,0,0,1-2.1,1.8,3,3,0,0,1-1.37-.3l.2-.75a2.61,2.61,0,0,0,1.14.27,1,1,0,0,0,1.13-1c0-.59-.44-1-1.48-1a3.63,3.63,0,0,0-.71,0l.34-2.63h2.69Z" transform="translate(-5.31 -9.9)"/><path class="cls-7" d="M266.46,105.71c0,1.09-.64,1.65-1.35,1.65s-1.32-.56-1.33-1.56.57-1.63,1.37-1.63S266.46,104.77,266.46,105.71Zm-1.93.05c0,.6.21,1,.6,1s.59-.41.59-1-.16-1-.59-1S264.53,105.18,264.53,105.76Zm.6,3.78,3-5.37h.56l-3,5.37Zm4.91-1.67c0,1.09-.63,1.64-1.35,1.64a1.37,1.37,0,0,1-1.32-1.56,1.44,1.44,0,0,1,1.36-1.63C269.56,106.32,270,106.93,270,107.87Zm-1.92,0c0,.6.2,1,.6,1s.58-.41.58-1-.16-1-.58-1S268.12,107.34,268.12,107.92Z" transform="translate(-5.31 -9.9)"/><path class="cls-1" d="M303.29,104.67h3.11v.81h-2.12V107h2v.81h-2v2.29h-1Z" transform="translate(-5.31 -9.9)"/><path class="cls-1" d="M309.31,110.06v-1.32H307v-.64l2.12-3.24h1.16V108h.67v.75h-.67v1.32Zm0-2.07v-1.41c0-.3,0-.6,0-.91h0c-.16.33-.3.6-.46.88l-1,1.43h1.41Z" transform="translate(-5.31 -9.9)"/><path class="cls-1" d="M299.6,119.66v-.6l.61-.57c1.23-1.14,1.8-1.76,1.81-2.45a.82.82,0,0,0-.93-.87,1.92,1.92,0,0,0-1.11.43l-.28-.69a2.51,2.51,0,0,1,1.59-.54A1.55,1.55,0,0,1,303,116c0,.91-.66,1.64-1.56,2.48l-.46.4h2.14v.82Z" transform="translate(-5.31 -9.9)"/><path class="cls-1" d="M303.89,119.66v-.6l.61-.57c1.23-1.14,1.8-1.76,1.81-2.45a.82.82,0,0,0-.93-.87,1.92,1.92,0,0,0-1.11.43l-.29-.69a2.56,2.56,0,0,1,1.6-.54,1.54,1.54,0,0,1,1.71,1.58c0,.91-.65,1.64-1.56,2.48l-.45.4h2.13v.82Z" transform="translate(-5.31 -9.9)"/><path class="cls-1" d="M310.73,115.92c0,1.09-.64,1.64-1.35,1.64a1.38,1.38,0,0,1-1.32-1.56c0-1,.56-1.63,1.36-1.63S310.73,115,310.73,115.92Zm-1.92,0c0,.6.21,1,.6,1s.58-.42.58-1.05-.16-1-.58-1S308.81,115.39,308.81,116Zm.59,3.78,3-5.38H313l-3,5.38Zm4.92-1.68c0,1.09-.64,1.65-1.36,1.65s-1.31-.56-1.31-1.57.56-1.63,1.35-1.63S314.32,117.14,314.32,118.07Zm-1.93.06c0,.59.21,1,.6,1s.58-.42.58-1-.16-1-.58-1S312.39,117.55,312.39,118.13Z" transform="translate(-5.31 -9.9)"/><path class="cls-1" d="M331,104.67h3.11v.81h-2.13V107h2v.81h-2v2.29h-1Z" transform="translate(-5.31 -9.9)"/><path class="cls-1" d="M335,109a2.58,2.58,0,0,0,1.18.32c.75,0,1.06-.42,1.05-.83,0-.61-.58-.88-1.18-.88h-.45v-.72h.44c.45,0,1-.21,1-.73,0-.35-.27-.64-.83-.64a2.15,2.15,0,0,0-1.07.32l-.22-.71a2.8,2.8,0,0,1,1.5-.4c1.07,0,1.62.59,1.62,1.27a1.26,1.26,0,0,1-1,1.22v0a1.31,1.31,0,0,1,1.14,1.29c0,.88-.73,1.58-2,1.58a2.9,2.9,0,0,1-1.46-.36Z" transform="translate(-5.31 -9.9)"/><path class="cls-1" d="M328.81,115.35h0l-1,.48-.17-.75,1.27-.62h.82v5.2h-.95Z" transform="translate(-5.31 -9.9)"/><path class="cls-1" d="M331.55,119.66v-.6l.62-.57c1.22-1.14,1.8-1.76,1.81-2.45a.82.82,0,0,0-.93-.87,1.87,1.87,0,0,0-1.11.43l-.29-.69a2.54,2.54,0,0,1,1.6-.54A1.54,1.54,0,0,1,335,116c0,.91-.65,1.64-1.56,2.48l-.45.4h2.13v.82Z" transform="translate(-5.31 -9.9)"/><path class="cls-1" d="M338.4,115.92c0,1.09-.64,1.64-1.35,1.64s-1.32-.56-1.33-1.56a1.44,1.44,0,0,1,1.37-1.63C337.91,114.37,338.4,115,338.4,115.92Zm-1.93,0c0,.6.21,1,.6,1s.59-.42.59-1.05-.16-1-.59-1S336.47,115.39,336.47,116Zm.6,3.78,3-5.38h.56l-3,5.38Zm4.91-1.68c0,1.09-.63,1.65-1.35,1.65a1.38,1.38,0,0,1-1.32-1.57,1.45,1.45,0,0,1,1.36-1.63C341.5,116.52,342,117.14,342,118.07Zm-1.92.06c0,.59.2,1,.6,1s.58-.42.58-1-.16-1-.58-1S340.06,117.55,340.06,118.13Z" transform="translate(-5.31 -9.9)"/></svg>