<svg id="Layer_1" data-name="Layer 1" xmlns="http://www.w3.org/2000/svg" viewBox="0 0 303.02 148"><defs><style>.cls-1{fill:#231f20;}</style></defs><title>Slide_7</title><path class="cls-1" d="M48.3,26.13A7.26,7.26,0,0,1,49.58,26a2.21,2.21,0,0,1,1.47.39,1.14,1.14,0,0,1,.45,1,1.27,1.27,0,0,1-.91,1.18v0a1.38,1.38,0,0,1,1.11,1.35A1.47,1.47,0,0,1,51.25,31a2.76,2.76,0,0,1-1.87.5,8.78,8.78,0,0,1-1.08-.06Zm.7,2.21h.63c.74,0,1.17-.38,1.17-.9s-.48-.88-1.18-.88a2.6,2.6,0,0,0-.62.05Zm0,2.58a3,3,0,0,0,.58,0c.72,0,1.39-.27,1.39-1.05s-.64-1-1.39-1H49Z"/><path class="cls-1" d="M53.92,26.91h0l-.9.49-.14-.54L54,26.25h.6v5.2h-.68Z"/><path class="cls-1" d="M48.3,39.13A7.26,7.26,0,0,1,49.58,39a2.21,2.21,0,0,1,1.47.39,1.14,1.14,0,0,1,.45,1,1.27,1.27,0,0,1-.91,1.18v0a1.38,1.38,0,0,1,1.11,1.35A1.47,1.47,0,0,1,51.25,44a2.76,2.76,0,0,1-1.87.5,8.78,8.78,0,0,1-1.08-.06Zm.7,2.21h.63c.74,0,1.17-.38,1.17-.9s-.48-.88-1.18-.88a2.6,2.6,0,0,0-.62,0Zm0,2.58a3,3,0,0,0,.58,0c.72,0,1.39-.27,1.39-1.05s-.64-1-1.39-1H49Z"/><path class="cls-1" d="M52.39,44.45V44l.55-.54c1.33-1.26,1.93-1.93,1.94-2.71a.93.93,0,0,0-1-1,1.79,1.79,0,0,0-1.11.44l-.22-.5A2.29,2.29,0,0,1,54,39.17a1.46,1.46,0,0,1,1.59,1.51c0,1-.69,1.73-1.79,2.79l-.41.38v0h2.33v.58Z"/><path class="cls-1" d="M48.3,52.06h2.91v.59H49v1.79h2V55H49v2.44h-.7Z"/><path class="cls-1" d="M53.48,52.91h0l-.9.49-.14-.54,1.14-.61h.6v5.2h-.68Z"/><path class="cls-1" d="M48.3,65.06h2.91v.59H49v1.79h2V68H49v2.44h-.7Z"/><path class="cls-1" d="M52,70.45V70l.55-.54c1.33-1.26,1.93-1.93,1.94-2.71a.93.93,0,0,0-1-1,1.79,1.79,0,0,0-1.11.44l-.22-.5a2.29,2.29,0,0,1,1.47-.52,1.46,1.46,0,0,1,1.59,1.51c0,1-.69,1.73-1.79,2.79l-.41.38v0h2.33v.58Z"/><path class="cls-1" d="M48.3,78.06h2.91v.59H49v1.79h2V81H49v2.44h-.7Z"/><path class="cls-1" d="M52.12,82.64a2.31,2.31,0,0,0,1.15.33c.91,0,1.19-.57,1.18-1,0-.72-.67-1-1.35-1h-.39V80.4h.39c.52,0,1.16-.27,1.16-.88,0-.42-.26-.79-.91-.79a2,2,0,0,0-1,.35l-.18-.51a2.47,2.47,0,0,1,1.36-.4c1,0,1.48.6,1.48,1.24A1.28,1.28,0,0,1,54,80.63v0A1.33,1.33,0,0,1,55.17,82c0,.83-.64,1.56-1.89,1.56a2.61,2.61,0,0,1-1.35-.35Z"/><path class="cls-1" d="M48.3,91.06h2.91v.59H49v1.79h2V94H49v2.44h-.7Z"/><path class="cls-1" d="M54.13,96.45V95H51.71v-.47L54,91.25h.76v3.23h.73V95h-.73v1.41Zm0-2V92.75c0-.27,0-.54,0-.82h0c-.16.31-.29.53-.43.77l-1.28,1.77h1.71Z"/><path class="cls-1" d="M48.3,104.06h2.91v.59H49v1.79h2V107H49v2.44h-.7Z"/><path class="cls-1" d="M55.05,104.85h-2l-.2,1.33a3.91,3.91,0,0,1,.43,0,2.22,2.22,0,0,1,1.12.28,1.49,1.49,0,0,1,.74,1.33,1.81,1.81,0,0,1-1.94,1.78,2.55,2.55,0,0,1-1.29-.32l.17-.54a2.33,2.33,0,0,0,1.12.29,1.15,1.15,0,0,0,1.23-1.13c0-.67-.46-1.15-1.5-1.15a6.1,6.1,0,0,0-.72.06l.34-2.5h2.48Z"/><path class="cls-1" d="M48.3,117.06h2.91v.59H49v1.79h2V120H49v2.44h-.7Z"/><path class="cls-1" d="M54.92,117.75a2.56,2.56,0,0,0-.53,0,2.12,2.12,0,0,0-1.81,1.85h0a1.58,1.58,0,0,1,2.82,1.08,1.74,1.74,0,0,1-1.73,1.83c-1.11,0-1.84-.86-1.84-2.22a3.27,3.27,0,0,1,.88-2.34,2.89,2.89,0,0,1,1.67-.77,3.64,3.64,0,0,1,.51,0Zm-.2,3a1.05,1.05,0,0,0-1.07-1.19,1.14,1.14,0,0,0-1,.64.57.57,0,0,0-.08.31c0,.85.41,1.49,1.14,1.49S54.72,121.49,54.72,120.75Z"/><path class="cls-1" d="M48.3,130.06h2.91v.59H49v1.79h2V133H49v2.44h-.7Z"/><path class="cls-1" d="M55.33,130.25v.47l-2.27,4.73h-.72l2.25-4.6H52.05v-.59Z"/><path class="cls-1" d="M152.19,26.85h-2l-.2,1.33a3.89,3.89,0,0,1,.42,0,2.22,2.22,0,0,1,1.12.28,1.48,1.48,0,0,1,.75,1.33,1.81,1.81,0,0,1-1.94,1.78,2.49,2.49,0,0,1-1.29-.32l.17-.54a2.32,2.32,0,0,0,1.11.29,1.14,1.14,0,0,0,1.23-1.13c0-.67-.45-1.15-1.49-1.15a5.92,5.92,0,0,0-.72.06l.34-2.5h2.48Z"/><path class="cls-1" d="M153.36,30.64a2.31,2.31,0,0,0,1.15.33c.91,0,1.19-.57,1.18-1,0-.72-.67-1-1.35-1H154V28.4h.39c.52,0,1.16-.27,1.16-.88,0-.42-.26-.79-.91-.79a2,2,0,0,0-1,.35l-.18-.51a2.47,2.47,0,0,1,1.36-.4c1,0,1.49.6,1.49,1.24a1.29,1.29,0,0,1-1,1.22v0A1.34,1.34,0,0,1,156.42,30c0,.83-.65,1.56-1.9,1.56a2.64,2.64,0,0,1-1.35-.35Z"/><path class="cls-1" d="M149.09,44.45V44l.55-.54c1.33-1.26,1.93-1.93,1.94-2.71a.93.93,0,0,0-1-1,1.77,1.77,0,0,0-1.11.44l-.22-.5a2.29,2.29,0,0,1,1.47-.52,1.46,1.46,0,0,1,1.59,1.51c0,1-.7,1.73-1.79,2.79l-.42.38v0h2.34v.58Z"/><path class="cls-1" d="M156.65,41.8c0,1.76-.66,2.74-1.81,2.74s-1.7-.95-1.72-2.67.75-2.7,1.81-2.7S156.65,40.14,156.65,41.8Zm-2.83.08c0,1.35.42,2.12,1.06,2.12s1.06-.84,1.06-2.17-.32-2.12-1.05-2.12S153.82,40.46,153.82,41.88Z"/><path class="cls-1" d="M153.32,57.45V56H150.9v-.47l2.32-3.32H154v3.23h.73V56H154v1.41Zm0-2V53.75c0-.27,0-.54,0-.82h0c-.16.31-.29.53-.44.77l-1.27,1.77h1.71Z"/><path class="cls-1" d="M153.32,70.45V69H150.9v-.47l2.32-3.32H154v3.23h.73V69H154v1.41Zm0-2V66.75c0-.27,0-.54,0-.82h0c-.16.31-.29.53-.44.77l-1.27,1.77h1.71Z"/><path class="cls-1" d="M153.32,83.45V82H150.9v-.47l2.32-3.32H154v3.23h.73V82H154v1.41Zm0-2V79.75c0-.27,0-.54,0-.82h0c-.16.31-.29.53-.44.77l-1.27,1.77h1.71Z"/><path class="cls-1" d="M150.62,91.91h0l-.9.49-.14-.54,1.14-.61h.6v5.2h-.68Z"/><path class="cls-1" d="M156.3,91.85h-2l-.2,1.33a3.91,3.91,0,0,1,.43,0,2.22,2.22,0,0,1,1.12.28,1.49,1.49,0,0,1,.74,1.33,1.81,1.81,0,0,1-1.94,1.78,2.55,2.55,0,0,1-1.29-.32l.18-.54a2.25,2.25,0,0,0,1.11.29,1.15,1.15,0,0,0,1.23-1.13c0-.67-.46-1.15-1.5-1.15a6.3,6.3,0,0,0-.72.06l.34-2.5h2.49Z"/><path class="cls-1" d="M154.6,106.8c0,1.76-.66,2.74-1.81,2.74s-1.7-1-1.72-2.67.75-2.7,1.81-2.7S154.6,105.14,154.6,106.8Zm-2.83.08c0,1.35.42,2.12,1.06,2.12s1.06-.84,1.06-2.17-.33-2.12-1-2.12S151.77,105.46,151.77,106.88Z"/><path class="cls-1" d="M154.6,119.8c0,1.76-.66,2.74-1.81,2.74s-1.7-1-1.72-2.67.75-2.7,1.81-2.7S154.6,118.14,154.6,119.8Zm-2.83.08c0,1.35.42,2.12,1.06,2.12s1.06-.84,1.06-2.17-.33-2.12-1-2.12S151.77,118.46,151.77,119.88Z"/><path class="cls-1" d="M154.6,132.8c0,1.76-.66,2.74-1.81,2.74s-1.7-.95-1.72-2.67.75-2.7,1.81-2.7S154.6,131.14,154.6,132.8Zm-2.83.08c0,1.35.42,2.12,1.06,2.12s1.06-.84,1.06-2.17-.33-2.12-1-2.12S151.77,131.46,151.77,132.88Z"/><path class="cls-1" d="M252.57,28.8c0,1.76-.66,2.74-1.81,2.74s-1.7-.95-1.72-2.67.75-2.7,1.81-2.7S252.57,27.14,252.57,28.8Zm-2.82.08c0,1.35.41,2.12,1.05,2.12s1.06-.84,1.06-2.17-.32-2.12-1.05-2.12S249.75,27.46,249.75,28.88Z"/><path class="cls-1" d="M252.57,41.8c0,1.76-.66,2.74-1.81,2.74s-1.7-.95-1.72-2.67.75-2.7,1.81-2.7S252.57,40.14,252.57,41.8Zm-2.82.08c0,1.35.41,2.12,1.05,2.12s1.06-.84,1.06-2.17-.32-2.12-1.05-2.12S249.75,40.46,249.75,41.88Z"/><path class="cls-1" d="M249.52,57a3,3,0,0,0,.57,0,1.93,1.93,0,0,0,1.09-.5,2.27,2.27,0,0,0,.68-1.39h0a1.56,1.56,0,0,1-2.76-1,1.78,1.78,0,0,1,1.78-1.84c1.06,0,1.72.86,1.72,2.19a3.31,3.31,0,0,1-.9,2.44,2.57,2.57,0,0,1-1.51.69,3.16,3.16,0,0,1-.65,0Zm.26-3a1,1,0,0,0,1,1.1,1.16,1.16,0,0,0,1-.54.5.5,0,0,0,.06-.26c0-.89-.32-1.57-1.06-1.57S249.78,53.23,249.78,54Z"/><path class="cls-1" d="M247.06,70.45V70l.55-.54c1.33-1.26,1.93-1.93,1.94-2.71a.93.93,0,0,0-1-1,1.79,1.79,0,0,0-1.11.44l-.22-.5a2.29,2.29,0,0,1,1.47-.52,1.46,1.46,0,0,1,1.59,1.51c0,1-.69,1.73-1.79,2.79l-.41.38v0h2.33v.58Z"/><path class="cls-1" d="M254.27,65.85h-2l-.2,1.33a3.89,3.89,0,0,1,.42,0,2.22,2.22,0,0,1,1.12.28,1.47,1.47,0,0,1,.74,1.33,1.8,1.8,0,0,1-1.93,1.78,2.56,2.56,0,0,1-1.3-.32l.18-.54a2.28,2.28,0,0,0,1.11.29,1.15,1.15,0,0,0,1.23-1.13c0-.67-.46-1.15-1.49-1.15a5.92,5.92,0,0,0-.72.06l.33-2.5h2.49Z"/><path class="cls-1" d="M248.59,78.91h0l-.9.49-.14-.54,1.14-.61h.6v5.2h-.68Z"/><path class="cls-1" d="M251.17,83.45V83l.55-.54c1.32-1.26,1.93-1.93,1.93-2.71a.93.93,0,0,0-1-1,1.76,1.76,0,0,0-1.1.44l-.23-.5a2.32,2.32,0,0,1,1.48-.52,1.46,1.46,0,0,1,1.59,1.51c0,1-.7,1.73-1.8,2.79l-.41.38v0h2.33v.58Z"/><path class="cls-1" d="M247.06,96.45V96l.55-.54c1.33-1.26,1.93-1.93,1.94-2.71a.93.93,0,0,0-1-1,1.79,1.79,0,0,0-1.11.44l-.22-.5a2.29,2.29,0,0,1,1.47-.52,1.46,1.46,0,0,1,1.59,1.51c0,1-.69,1.73-1.79,2.79l-.41.38v0h2.33v.58Z"/><path class="cls-1" d="M251.17,96.45V96l.55-.54c1.32-1.26,1.93-1.93,1.93-2.71a.93.93,0,0,0-1-1,1.76,1.76,0,0,0-1.1.44l-.23-.5a2.32,2.32,0,0,1,1.48-.52,1.46,1.46,0,0,1,1.59,1.51c0,1-.7,1.73-1.8,2.79l-.41.38v0h2.33v.58Z"/><path class="cls-1" d="M252.22,104.85h-2l-.2,1.33a4.11,4.11,0,0,1,.43,0,2.22,2.22,0,0,1,1.12.28,1.49,1.49,0,0,1,.74,1.33,1.8,1.8,0,0,1-1.93,1.78,2.56,2.56,0,0,1-1.3-.32l.18-.54a2.28,2.28,0,0,0,1.11.29,1.15,1.15,0,0,0,1.23-1.13c0-.67-.46-1.15-1.5-1.15a6.3,6.3,0,0,0-.72.06l.34-2.5h2.49Z"/><path class="cls-1" d="M247.06,122.45V122l.55-.54c1.33-1.26,1.93-1.93,1.94-2.71a.93.93,0,0,0-1-1,1.79,1.79,0,0,0-1.11.44l-.22-.5a2.29,2.29,0,0,1,1.47-.52,1.46,1.46,0,0,1,1.59,1.51c0,1-.69,1.73-1.79,2.79l-.41.38v0h2.33v.58Z"/><path class="cls-1" d="M251.33,121.64a2.35,2.35,0,0,0,1.15.33c.91,0,1.19-.57,1.18-1,0-.72-.66-1-1.34-1h-.39v-.52h.39c.51,0,1.16-.27,1.16-.88,0-.42-.27-.79-.92-.79a1.88,1.88,0,0,0-1,.35l-.19-.51a2.47,2.47,0,0,1,1.36-.4c1,0,1.49.6,1.49,1.24a1.29,1.29,0,0,1-1,1.22h0a1.36,1.36,0,0,1,1.16,1.34c0,.83-.65,1.56-1.9,1.56a2.64,2.64,0,0,1-1.35-.35Z"/><path class="cls-1" d="M251.29,135.45V134h-2.42v-.47l2.32-3.32H252v3.23h.73V134H252v1.41Zm0-2v-1.73c0-.27,0-.54,0-.82h0c-.16.31-.29.53-.43.77l-1.27,1.77h1.7Z"/><path class="cls-1" d="M7.85,11.1H6.31v-.83h4.07v.83H8.83v4.56h-1Z"/><path class="cls-1" d="M11.59,11.77l.71,2.09c.08.24.16.53.21.76h0c.06-.23.13-.52.2-.77l.61-2.08h1.06l-1,2.65a5.72,5.72,0,0,1-1.36,2.51,2,2,0,0,1-1,.5l-.22-.83a1.71,1.71,0,0,0,.57-.27,1.67,1.67,0,0,0,.54-.62.38.38,0,0,0,.06-.17.55.55,0,0,0-.05-.2l-1.43-3.57Z"/><path class="cls-1" d="M15,13.06c0-.51,0-.92,0-1.29h.86l0,.6h0a1.53,1.53,0,0,1,1.34-.69,1.77,1.77,0,0,1,1.64,2,1.86,1.86,0,0,1-1.78,2.09A1.27,1.27,0,0,1,16,15.23h0v2H15Zm1,1a1.12,1.12,0,0,0,0,.27.9.9,0,0,0,.87.69c.62,0,1-.52,1-1.29s-.34-1.24-1-1.24a.91.91,0,0,0-.88.73,1,1,0,0,0,0,.24Z"/><path class="cls-1" d="M20.35,14a1.06,1.06,0,0,0,1.2,1,2.73,2.73,0,0,0,1.08-.18l.15.68a3.6,3.6,0,0,1-1.36.24,1.84,1.84,0,0,1-2-2,1.93,1.93,0,0,1,1.9-2.1A1.69,1.69,0,0,1,23,13.58,2.07,2.07,0,0,1,23,14Zm1.71-.69a.83.83,0,0,0-.8-1,1,1,0,0,0-.91,1Z"/><path class="cls-1" d="M29.14,13.68a1.93,1.93,0,0,1-2,2.07,1.88,1.88,0,0,1-1.95-2,1.93,1.93,0,0,1,2-2.06A1.87,1.87,0,0,1,29.14,13.68Zm-2.93,0c0,.75.37,1.32,1,1.32s.95-.55.95-1.34c0-.6-.27-1.3-.95-1.3S26.21,13.07,26.21,13.72Z"/><path class="cls-1" d="M30.06,15.66V12.51h-.52v-.74h.52V11.6a1.82,1.82,0,0,1,.48-1.33,1.47,1.47,0,0,1,1-.37,2.06,2.06,0,0,1,.63.09l-.07.76a1.12,1.12,0,0,0-.41-.07c-.49,0-.66.41-.66.89v.2h.86v.74h-.85v3.15Z"/><path class="cls-1" d="M34.2,10.35a7.55,7.55,0,0,1,1.43-.12,2.54,2.54,0,0,1,1.55.35,1.14,1.14,0,0,1,.55,1,1.24,1.24,0,0,1-.89,1.16v0a1.35,1.35,0,0,1,1.09,1.33,1.43,1.43,0,0,1-.52,1.12,3.05,3.05,0,0,1-2,.5,10,10,0,0,1-1.21-.07Zm1,2.12h.5c.68,0,1.06-.32,1.06-.77s-.38-.74-1-.74a3,3,0,0,0-.56,0Zm0,2.48a3.36,3.36,0,0,0,.52,0c.63,0,1.19-.24,1.19-.91s-.55-.88-1.23-.88h-.48Z"/><path class="cls-1" d="M41,15.66l-.06-.43h0a1.43,1.43,0,0,1-1.15.52,1.16,1.16,0,0,1-1.22-1.16c0-1,.87-1.48,2.31-1.47v-.06c0-.26-.11-.68-.79-.68a2,2,0,0,0-1.05.29L38.78,12a2.72,2.72,0,0,1,1.4-.35,1.46,1.46,0,0,1,1.61,1.64v1.41a6.12,6.12,0,0,0,.06.93Zm-.13-1.9c-.69,0-1.36.14-1.36.73a.52.52,0,0,0,.56.56.81.81,0,0,0,.77-.54.82.82,0,0,0,0-.21Z"/><path class="cls-1" d="M45.7,15.54a2.81,2.81,0,0,1-1.11.2,1.86,1.86,0,0,1-2-2,2,2,0,0,1,2.16-2.08,2.32,2.32,0,0,1,1,.19l-.17.73a1.77,1.77,0,0,0-.75-.15,1.16,1.16,0,0,0-1.19,1.26A1.16,1.16,0,0,0,44.78,15a1.92,1.92,0,0,0,.78-.15Z"/><path class="cls-1" d="M47.55,10.66v1.11h.94v.74h-.94v1.71c0,.48.13.72.51.72a1.76,1.76,0,0,0,.38,0l0,.75a2.43,2.43,0,0,1-.72.09,1.11,1.11,0,0,1-.84-.32,1.52,1.52,0,0,1-.31-1.08V12.51H46v-.74h.56v-.88Z"/><path class="cls-1" d="M49.93,14c0,.71.57,1,1.2,1a2.8,2.8,0,0,0,1.08-.18l.14.68a3.57,3.57,0,0,1-1.36.24,1.84,1.84,0,0,1-2-2,1.94,1.94,0,0,1,1.91-2.1,1.7,1.7,0,0,1,1.68,1.9,1.93,1.93,0,0,1,0,.41Zm1.71-.69a.83.83,0,0,0-.81-1,1,1,0,0,0-.9,1Z"/><path class="cls-1" d="M53.36,13c0-.52,0-.9,0-1.25h.85l0,.74h0a1.16,1.16,0,0,1,1.06-.83.8.8,0,0,1,.23,0v.92a1.84,1.84,0,0,0-.28,0,.86.86,0,0,0-.88.74,1.46,1.46,0,0,0,0,.31v2h-1Z"/><path class="cls-1" d="M57.26,10.68a.56.56,0,1,1-.56-.53A.53.53,0,0,1,57.26,10.68Zm-1,5V11.77h1v3.89Z"/><path class="cls-1" d="M60.45,15.66l-.07-.43h0a1.43,1.43,0,0,1-1.15.52A1.16,1.16,0,0,1,58,14.59c0-1,.88-1.48,2.32-1.47v-.06c0-.26-.11-.68-.8-.68a2,2,0,0,0-1,.29L58.27,12a2.72,2.72,0,0,1,1.4-.35,1.46,1.46,0,0,1,1.61,1.64v1.41a6.12,6.12,0,0,0,.06.93Zm-.13-1.9c-.7,0-1.36.14-1.36.73a.52.52,0,0,0,.56.56.81.81,0,0,0,.77-.54.82.82,0,0,0,0-.21Z"/><path class="cls-1" d="M65,10.68a.55.55,0,1,1-.55-.53A.52.52,0,0,1,65,10.68Zm-1,5V11.77h1v3.89Z"/><path class="cls-1" d="M66,12.93c0-.45,0-.82,0-1.16h.87l0,.58h0a1.41,1.41,0,0,1,1.24-.67c.68,0,1.38.44,1.38,1.67v2.31h-1v-2.2c0-.55-.21-1-.75-1a.81.81,0,0,0-.76.58.83.83,0,0,0,0,.32v2.28H66Z"/><path class="cls-1" d="M73.38,10.66v1.11h.94v.74h-.94v1.71c0,.48.13.72.51.72a1.69,1.69,0,0,0,.38,0l0,.75a2.43,2.43,0,0,1-.72.09,1.13,1.13,0,0,1-.84-.32,1.52,1.52,0,0,1-.31-1.08V12.51h-.56v-.74h.56v-.88Z"/><path class="cls-1" d="M75.06,10h1v2.32h0a1.25,1.25,0,0,1,.49-.45,1.34,1.34,0,0,1,.67-.18c.66,0,1.36.44,1.36,1.69v2.29h-1V13.48c0-.57-.21-1-.76-1a.8.8,0,0,0-.75.55.71.71,0,0,0,0,.3v2.32h-1Z"/><path class="cls-1" d="M80.34,14a1,1,0,0,0,1.19,1,2.73,2.73,0,0,0,1.08-.18l.15.68a3.6,3.6,0,0,1-1.36.24,1.84,1.84,0,0,1-2-2,1.93,1.93,0,0,1,1.9-2.1A1.69,1.69,0,0,1,83,13.58a2.07,2.07,0,0,1,0,.41Zm1.71-.69a.85.85,0,0,0-.81-1,1,1,0,0,0-.9,1Z"/><path class="cls-1" d="M89.78,15.42a5.52,5.52,0,0,1-1.73.3A2.89,2.89,0,0,1,85.94,15a2.71,2.71,0,0,1-.76-2,2.74,2.74,0,0,1,3-2.8,3.53,3.53,0,0,1,1.43.25l-.21.8A2.89,2.89,0,0,0,88.17,11a1.8,1.8,0,0,0-2,1.94,1.78,1.78,0,0,0,1.87,1.95,2,2,0,0,0,.74-.11V13.46h-1v-.77h1.9Z"/><path class="cls-1" d="M94.24,14.5c0,.46,0,.84,0,1.16h-.86l0-.59h0a1.4,1.4,0,0,1-1.24.68c-.72,0-1.36-.42-1.36-1.69V11.77h1v2.12c0,.65.21,1.06.73,1.06a.83.83,0,0,0,.75-.53.9.9,0,0,0,0-.3V11.77h1Z"/><path class="cls-1" d="M96.43,10.66v1.11h.94v.74h-.94v1.71c0,.48.13.72.51.72a1.76,1.76,0,0,0,.38,0v.75a2.3,2.3,0,0,1-.71.09,1.15,1.15,0,0,1-.85-.32,1.57,1.57,0,0,1-.3-1.08V12.51h-.56v-.74h.56v-.88Z"/><path class="cls-1" d="M119.37,11.92c0,1.1-.64,1.65-1.35,1.65S116.7,13,116.69,12a1.44,1.44,0,0,1,1.37-1.63C118.89,10.38,119.37,11,119.37,11.92Zm-1.92.06c0,.6.2,1,.6,1s.58-.42.58-1-.16-1-.58-1S117.45,11.39,117.45,12Zm.59,3.77,3-5.37h.56l-3,5.37ZM123,14.08c0,1.09-.64,1.65-1.36,1.65a1.38,1.38,0,0,1-1.32-1.57,1.45,1.45,0,0,1,1.36-1.63C122.47,12.53,123,13.15,123,14.08Zm-1.93.06c0,.59.21,1,.6,1s.58-.42.58-1-.16-1-.58-1S121,13.55,121,14.14Z"/><path class="cls-1" d="M126.4,10.27v5.39h-1V10.27Z"/><path class="cls-1" d="M127.49,12.93c0-.45,0-.82,0-1.16h.86l.05.58h0a1.41,1.41,0,0,1,1.24-.67c.68,0,1.38.44,1.38,1.67v2.31h-1v-2.2c0-.55-.21-1-.74-1a.81.81,0,0,0-.77.58,1.08,1.08,0,0,0,0,.32v2.28h-1Z"/><path class="cls-1" d="M134.84,14.14l-.47,1.52h-1l1.72-5.39h1.26l1.75,5.39H137l-.49-1.52Zm1.54-.75L136,12.07c-.11-.33-.2-.7-.27-1h0c-.08.31-.16.69-.26,1L135,13.39Z"/><path class="cls-1" d="M138.92,15.66V12.51h-.53v-.74h.53V11.6a1.81,1.81,0,0,1,.47-1.33,1.5,1.5,0,0,1,1-.37A2.11,2.11,0,0,1,141,10l-.08.76a1.12,1.12,0,0,0-.41-.07c-.49,0-.66.41-.66.89v.2h.86v.74h-.85v3.15Z"/><path class="cls-1" d="M141.36,13c0-.52,0-.9,0-1.25h.85l0,.74h0a1.15,1.15,0,0,1,1.06-.83.85.85,0,0,1,.23,0v.92a2,2,0,0,0-.29,0,.88.88,0,0,0-.88.74,2.72,2.72,0,0,0,0,.31v2h-1Z"/><path class="cls-1" d="M145.25,10.68a.55.55,0,1,1-.55-.53A.52.52,0,0,1,145.25,10.68Zm-1,5V11.77h1v3.89Z"/><path class="cls-1" d="M149.12,15.54a2.81,2.81,0,0,1-1.11.2,1.86,1.86,0,0,1-2-2,2,2,0,0,1,2.16-2.08,2.32,2.32,0,0,1,1,.19l-.17.73a1.77,1.77,0,0,0-.75-.15A1.16,1.16,0,0,0,147,13.71,1.16,1.16,0,0,0,148.2,15a1.92,1.92,0,0,0,.78-.15Z"/><path class="cls-1" d="M152,15.66l-.07-.43h0a1.43,1.43,0,0,1-1.15.52,1.16,1.16,0,0,1-1.23-1.16c0-1,.88-1.48,2.31-1.47v-.06c0-.26-.1-.68-.79-.68a2,2,0,0,0-1,.29l-.2-.64a2.79,2.79,0,0,1,1.41-.35,1.46,1.46,0,0,1,1.61,1.64v1.41a6.27,6.27,0,0,0,0,.93Zm-.13-1.9c-.7,0-1.36.14-1.36.73a.52.52,0,0,0,.56.56.81.81,0,0,0,.77-.54.82.82,0,0,0,0-.21Z"/><path class="cls-1" d="M153.91,12.93c0-.45,0-.82,0-1.16h.86l0,.58h0a1.41,1.41,0,0,1,1.24-.67c.68,0,1.39.44,1.39,1.67v2.31h-1v-2.2c0-.55-.21-1-.74-1a.82.82,0,0,0-.77.58,1.08,1.08,0,0,0,0,.32v2.28h-1Z"/><path class="cls-1" d="M164,15.5a3.38,3.38,0,0,1-1.39.24A2.54,2.54,0,0,1,159.9,13a2.71,2.71,0,0,1,2.88-2.84,3,3,0,0,1,1.31.24l-.21.78a2.68,2.68,0,0,0-1.06-.21,1.79,1.79,0,0,0-1.89,2,1.77,1.77,0,0,0,1.88,1.95,2.72,2.72,0,0,0,1.07-.2Z"/><path class="cls-1" d="M164.84,10h1v2.32h0a1.25,1.25,0,0,1,.49-.45,1.34,1.34,0,0,1,.67-.18c.67,0,1.36.44,1.36,1.69v2.29h-1V13.48c0-.57-.21-1-.75-1a.8.8,0,0,0-.76.55.71.71,0,0,0,0,.3v2.32h-1Z"/><path class="cls-1" d="M170.47,10.68a.52.52,0,0,1-.56.53.51.51,0,0,1-.54-.53.52.52,0,0,1,.55-.53A.53.53,0,0,1,170.47,10.68Zm-1.05,5V11.77h1v3.89Z"/><path class="cls-1" d="M171.47,10h1v5.67h-1Z"/><path class="cls-1" d="M177.12,10v4.58c0,.4,0,.83,0,1.09h-.88l0-.61h0a1.4,1.4,0,0,1-1.27.7,1.78,1.78,0,0,1-1.66-2A1.85,1.85,0,0,1,175,11.68a1.27,1.27,0,0,1,1.1.51h0V10Zm-1,3.4a2.11,2.11,0,0,0,0-.25.86.86,0,0,0-.85-.7c-.63,0-1,.56-1,1.29s.35,1.23,1,1.23a.87.87,0,0,0,.85-.7,1.2,1.2,0,0,0,0-.28Z"/><path class="cls-1" d="M178.17,13c0-.52,0-.9,0-1.25H179l0,.74h0a1.16,1.16,0,0,1,1.06-.83.88.88,0,0,1,.24,0v.92a2,2,0,0,0-.29,0,.88.88,0,0,0-.88.74,1.48,1.48,0,0,0,0,.31v2h-1Z"/><path class="cls-1" d="M181.72,14c0,.71.57,1,1.2,1a2.8,2.8,0,0,0,1.08-.18l.14.68a3.6,3.6,0,0,1-1.36.24,1.84,1.84,0,0,1-2-2,1.94,1.94,0,0,1,1.91-2.1,1.7,1.7,0,0,1,1.68,1.9,1.93,1.93,0,0,1,0,.41Zm1.71-.69a.83.83,0,0,0-.81-1,1,1,0,0,0-.9,1Z"/><path class="cls-1" d="M185.15,12.93c0-.45,0-.82,0-1.16H186l.05.58h0a1.41,1.41,0,0,1,1.24-.67c.68,0,1.38.44,1.38,1.67v2.31h-1v-2.2c0-.55-.21-1-.74-1a.82.82,0,0,0-.77.58,1.08,1.08,0,0,0,0,.32v2.28h-1Z"/><path class="cls-1" d="M213,11.92c0,1.1-.64,1.65-1.35,1.65S210.32,13,210.31,12a1.44,1.44,0,0,1,1.37-1.63C212.5,10.38,213,11,213,11.92Zm-1.93.06c0,.6.21,1,.6,1s.59-.42.59-1-.16-1-.59-1S211.06,11.39,211.06,12Zm.6,3.77,3-5.37h.56l-3,5.37Zm4.91-1.67c0,1.09-.63,1.65-1.35,1.65a1.38,1.38,0,0,1-1.32-1.57,1.45,1.45,0,0,1,1.36-1.63C216.08,12.53,216.57,13.15,216.57,14.08Zm-1.92.06c0,.59.2,1,.6,1s.58-.42.58-1-.16-1-.58-1S214.65,13.55,214.65,14.14Z"/><path class="cls-1" d="M220,10.27v5.39h-1V10.27Z"/><path class="cls-1" d="M221.1,12.93c0-.45,0-.82,0-1.16h.87l0,.58h0a1.41,1.41,0,0,1,1.24-.67c.68,0,1.38.44,1.38,1.67v2.31h-1v-2.2c0-.55-.21-1-.75-1a.81.81,0,0,0-.76.58.83.83,0,0,0,0,.32v2.28h-1Z"/><path class="cls-1" d="M230.39,13.27h-2v1.59h2.27v.8h-3.25V10.27h3.13v.81h-2.15v1.39h2Z"/><path class="cls-1" d="M234.94,14.5c0,.46,0,.84,0,1.16h-.86l-.05-.59h0a1.42,1.42,0,0,1-1.25.68c-.71,0-1.36-.42-1.36-1.69V11.77h1v2.12c0,.65.21,1.06.73,1.06a.82.82,0,0,0,.75-.53.89.89,0,0,0,.06-.3V11.77h1Z"/><path class="cls-1" d="M236,13c0-.52,0-.9,0-1.25h.85l0,.74h0a1.17,1.17,0,0,1,1.07-.83.85.85,0,0,1,.23,0v.92a2,2,0,0,0-.29,0,.88.88,0,0,0-.88.74,2.72,2.72,0,0,0,0,.31v2h-1Z"/><path class="cls-1" d="M242.56,13.68a1.93,1.93,0,0,1-2,2.07,1.88,1.88,0,0,1-1.95-2,1.92,1.92,0,0,1,2-2.06A1.87,1.87,0,0,1,242.56,13.68Zm-2.94,0c0,.75.37,1.32,1,1.32s.95-.55.95-1.34c0-.6-.27-1.3-.94-1.3S239.62,13.07,239.62,13.72Z"/><path class="cls-1" d="M243.37,13.06c0-.51,0-.92,0-1.29h.87l.05.6h0a1.53,1.53,0,0,1,1.34-.69,1.77,1.77,0,0,1,1.64,2,1.86,1.86,0,0,1-1.78,2.09,1.27,1.27,0,0,1-1.09-.52h0v2h-1Zm1,1a1.12,1.12,0,0,0,0,.27.9.9,0,0,0,.87.69c.62,0,1-.52,1-1.29s-.34-1.24-1-1.24a.91.91,0,0,0-.88.73,1,1,0,0,0,0,.24Z"/><path class="cls-1" d="M248.74,14a1.06,1.06,0,0,0,1.2,1,2.73,2.73,0,0,0,1.08-.18l.15.68a3.6,3.6,0,0,1-1.36.24,1.84,1.84,0,0,1-2-2,1.93,1.93,0,0,1,1.9-2.1,1.69,1.69,0,0,1,1.68,1.9,2.07,2.07,0,0,1,0,.41Zm1.71-.69a.83.83,0,0,0-.8-1,1,1,0,0,0-.91,1Z"/><path class="cls-1" d="M254.37,15.66l-.07-.43h0a1.43,1.43,0,0,1-1.15.52,1.16,1.16,0,0,1-1.23-1.16c0-1,.87-1.48,2.31-1.47v-.06c0-.26-.1-.68-.79-.68a2,2,0,0,0-1,.29l-.2-.64a2.76,2.76,0,0,1,1.41-.35,1.46,1.46,0,0,1,1.61,1.64v1.41a6.27,6.27,0,0,0,.05.93Zm-.13-1.9c-.7,0-1.36.14-1.36.73a.52.52,0,0,0,.56.56.81.81,0,0,0,.77-.54.82.82,0,0,0,0-.21Z"/><path class="cls-1" d="M256.24,12.93c0-.45,0-.82,0-1.16h.86l.05.58h0a1.41,1.41,0,0,1,1.24-.67c.68,0,1.38.44,1.38,1.67v2.31h-1v-2.2c0-.55-.21-1-.74-1a.82.82,0,0,0-.77.58,1.08,1.08,0,0,0,0,.32v2.28h-1Z"/><path class="cls-1" d="M266.37,15.5a3.38,3.38,0,0,1-1.39.24A2.54,2.54,0,0,1,262.23,13a2.71,2.71,0,0,1,2.88-2.84,3,3,0,0,1,1.31.24l-.21.78a2.68,2.68,0,0,0-1.06-.21,1.79,1.79,0,0,0-1.89,2,1.77,1.77,0,0,0,1.88,1.95,2.72,2.72,0,0,0,1.07-.2Z"/><path class="cls-1" d="M267.17,10h1v2.32h0a1.25,1.25,0,0,1,.49-.45,1.34,1.34,0,0,1,.67-.18c.66,0,1.36.44,1.36,1.69v2.29h-1V13.48c0-.57-.21-1-.76-1a.8.8,0,0,0-.75.55.71.71,0,0,0,0,.3v2.32h-1Z"/><path class="cls-1" d="M272.8,10.68a.56.56,0,0,1-1.11,0,.56.56,0,0,1,1.11,0Zm-1.05,5V11.77h1v3.89Z"/><path class="cls-1" d="M273.8,10h1v5.67h-1Z"/><path class="cls-1" d="M279.44,10v4.58c0,.4,0,.83,0,1.09h-.88l0-.61h0a1.4,1.4,0,0,1-1.27.7,1.78,1.78,0,0,1-1.66-2,1.85,1.85,0,0,1,1.74-2.08,1.25,1.25,0,0,1,1.09.51h0V10Zm-1,3.4a2.11,2.11,0,0,0,0-.25.86.86,0,0,0-.85-.7c-.63,0-1,.56-1,1.29s.35,1.23,1,1.23a.87.87,0,0,0,.85-.7,1.2,1.2,0,0,0,0-.28Z"/><path class="cls-1" d="M280.5,13c0-.52,0-.9,0-1.25h.86l0,.74h0a1.16,1.16,0,0,1,1.06-.83.88.88,0,0,1,.24,0v.92a2,2,0,0,0-.29,0,.88.88,0,0,0-.88.74,1.48,1.48,0,0,0,0,.31v2h-1Z"/><path class="cls-1" d="M284.05,14c0,.71.57,1,1.2,1a2.71,2.71,0,0,0,1.07-.18l.15.68a3.6,3.6,0,0,1-1.36.24,1.84,1.84,0,0,1-2-2,1.93,1.93,0,0,1,1.9-2.1,1.69,1.69,0,0,1,1.68,1.9,2.07,2.07,0,0,1,0,.41Zm1.71-.69a.85.85,0,0,0-.81-1,1,1,0,0,0-.9,1Z"/><path class="cls-1" d="M287.48,12.93c0-.45,0-.82,0-1.16h.86l.05.58h0a1.41,1.41,0,0,1,1.24-.67c.68,0,1.38.44,1.38,1.67v2.31h-1v-2.2c0-.55-.21-1-.74-1a.81.81,0,0,0-.77.58,1.08,1.08,0,0,0,0,.32v2.28h-1Z"/></svg>