<svg id="Layer_1" data-name="Layer 1" xmlns="http://www.w3.org/2000/svg" viewBox="0 0 734.02 174"><defs><style>.cls-1{fill:#42719b;}.cls-2{fill:#fff;}.cls-3{fill:#231f20;}.cls-4{fill:none;stroke:#231f20;stroke-miterlimit:10;}.cls-5{fill:#70ad47;}.cls-6{fill:#4472c4;}.cls-7{fill:#ffc000;}.cls-8{fill:#a5a5a5;}.cls-9{fill:#ed7d31;}.cls-10{fill:#5b9bd5;}</style></defs><title>Slide_8</title><rect class="cls-1" x="3" y="2" width="729" height="25"/><path class="cls-2" d="M135.7,11.58h3.11v.81h-2.13v1.48h2v.81h-2V17h-1Z"/><path class="cls-2" d="M139.73,14.33c0-.53,0-.91,0-1.26h.86l0,.75h0a1.16,1.16,0,0,1,1.06-.84.88.88,0,0,1,.24,0v.93a1.12,1.12,0,0,0-.29,0,.88.88,0,0,0-.88.75,1.39,1.39,0,0,0,0,.3v2h-1Z"/><path class="cls-2" d="M144.77,17l-.06-.43h0a1.44,1.44,0,0,1-1.15.51,1.15,1.15,0,0,1-1.22-1.15c0-1,.87-1.48,2.31-1.48v-.06c0-.26-.1-.68-.79-.68a2,2,0,0,0-1.05.29l-.19-.64A2.76,2.76,0,0,1,144,13a1.46,1.46,0,0,1,1.6,1.64V16a6.27,6.27,0,0,0,.06.94Zm-.13-1.91c-.69,0-1.36.14-1.36.73a.51.51,0,0,0,.56.56.79.79,0,0,0,.77-.53.61.61,0,0,0,0-.22Z"/><path class="cls-2" d="M146.65,14.23c0-.45,0-.82,0-1.16h.85l0,.58h0a1.36,1.36,0,0,1,1.2-.67,1.11,1.11,0,0,1,1.08.72h0a1.57,1.57,0,0,1,.48-.48,1.23,1.23,0,0,1,.78-.24c.65,0,1.31.44,1.31,1.69V17h-1V14.82c0-.65-.23-1-.7-1a.77.77,0,0,0-.69.52,1.75,1.75,0,0,0,0,.33V17h-1V14.71c0-.54-.22-.93-.68-.93a.78.78,0,0,0-.7.56.87.87,0,0,0-.06.32V17h-.95Z"/><path class="cls-2" d="M154.12,15.3a1.06,1.06,0,0,0,1.2,1,2.94,2.94,0,0,0,1.08-.17l.15.68a3.81,3.81,0,0,1-1.36.24,1.84,1.84,0,0,1-2-2,1.93,1.93,0,0,1,1.9-2.1,1.69,1.69,0,0,1,1.68,1.9,2.19,2.19,0,0,1,0,.42Zm1.72-.69a.85.85,0,0,0-.81-.95,1,1,0,0,0-.91.95Z"/><path class="cls-2" d="M160.57,12.66h0l-1,.48-.16-.75,1.26-.62h.82V17h-1Z"/><path class="cls-3" d="M47.3,54.13A7.26,7.26,0,0,1,48.58,54a2.21,2.21,0,0,1,1.47.39,1.14,1.14,0,0,1,.45,1,1.27,1.27,0,0,1-.91,1.18v0a1.38,1.38,0,0,1,1.11,1.35A1.47,1.47,0,0,1,50.25,59a2.76,2.76,0,0,1-1.87.5,8.78,8.78,0,0,1-1.08-.06Zm.7,2.21h.63c.74,0,1.17-.38,1.17-.9s-.48-.88-1.18-.88a2.6,2.6,0,0,0-.62,0Zm0,2.58a3,3,0,0,0,.58,0c.72,0,1.39-.27,1.39-1.05s-.64-1-1.39-1H48Z"/><path class="cls-3" d="M52.92,54.91h0l-.9.49-.14-.54L53,54.25h.6v5.2h-.68Z"/><path class="cls-3" d="M47.3,67.13A7.26,7.26,0,0,1,48.58,67a2.21,2.21,0,0,1,1.47.39,1.14,1.14,0,0,1,.45,1,1.27,1.27,0,0,1-.91,1.18v0a1.38,1.38,0,0,1,1.11,1.35A1.47,1.47,0,0,1,50.25,72a2.76,2.76,0,0,1-1.87.5,8.78,8.78,0,0,1-1.08-.06Zm.7,2.21h.63c.74,0,1.17-.38,1.17-.9s-.48-.88-1.18-.88a2.6,2.6,0,0,0-.62,0Zm0,2.58a3,3,0,0,0,.58,0c.72,0,1.39-.27,1.39-1s-.64-1-1.39-1H48Z"/><path class="cls-3" d="M51.39,72.45V72l.55-.54c1.33-1.26,1.93-1.93,1.94-2.71a.93.93,0,0,0-1-1,1.79,1.79,0,0,0-1.11.44l-.22-.5A2.29,2.29,0,0,1,53,67.17a1.46,1.46,0,0,1,1.59,1.51c0,1-.69,1.73-1.79,2.79l-.41.38v0h2.33v.58Z"/><path class="cls-3" d="M47.3,80.06h2.91v.59H48v1.79h2V83H48v2.44h-.7Z"/><path class="cls-3" d="M52.48,80.91h0l-.9.49-.14-.54,1.14-.61h.6v5.2h-.68Z"/><path class="cls-3" d="M47.3,93.06h2.91v.59H48v1.79h2V96H48v2.44h-.7Z"/><path class="cls-3" d="M51,98.45V98l.55-.54c1.33-1.26,1.93-1.93,1.94-2.71a.93.93,0,0,0-1-1,1.79,1.79,0,0,0-1.11.44l-.22-.5a2.29,2.29,0,0,1,1.47-.52,1.46,1.46,0,0,1,1.59,1.51c0,1-.69,1.73-1.79,2.79l-.41.38v0h2.33v.58Z"/><path class="cls-3" d="M47.3,106.06h2.91v.59H48v1.79h2V109H48v2.44h-.7Z"/><path class="cls-3" d="M51.12,110.64a2.31,2.31,0,0,0,1.15.33c.91,0,1.19-.57,1.18-1,0-.72-.67-1-1.35-1h-.39v-.52h.39c.52,0,1.16-.27,1.16-.88,0-.42-.26-.79-.91-.79a2,2,0,0,0-1,.35l-.18-.51a2.47,2.47,0,0,1,1.36-.4c1,0,1.48.6,1.48,1.24a1.28,1.28,0,0,1-.95,1.22h0A1.35,1.35,0,0,1,54.17,110c0,.83-.64,1.56-1.89,1.56a2.61,2.61,0,0,1-1.35-.35Z"/><path class="cls-3" d="M47.3,119.06h2.91v.59H48v1.79h2V122H48v2.44h-.7Z"/><path class="cls-3" d="M53.13,124.45V123H50.71v-.47L53,119.25h.76v3.23h.73V123h-.73v1.41Zm0-2v-1.73c0-.27,0-.54,0-.82h0c-.16.31-.29.53-.43.77l-1.28,1.77h1.71Z"/><path class="cls-3" d="M47.3,132.06h2.91v.59H48v1.79h2V135H48v2.44h-.7Z"/><path class="cls-3" d="M54.05,132.85h-2l-.2,1.33a3.91,3.91,0,0,1,.43,0,2.22,2.22,0,0,1,1.12.28,1.49,1.49,0,0,1,.74,1.33,1.81,1.81,0,0,1-1.94,1.78,2.55,2.55,0,0,1-1.29-.32l.17-.54a2.33,2.33,0,0,0,1.12.29,1.15,1.15,0,0,0,1.23-1.13c0-.67-.46-1.15-1.5-1.15a4.52,4.52,0,0,0-.72.06l.34-2.5h2.48Z"/><path class="cls-3" d="M47.3,145.06h2.91v.59H48v1.79h2V148H48v2.44h-.7Z"/><path class="cls-3" d="M53.92,145.75a2.56,2.56,0,0,0-.53,0,2.12,2.12,0,0,0-1.81,1.85h0a1.58,1.58,0,0,1,2.82,1.08,1.74,1.74,0,0,1-1.73,1.83c-1.11,0-1.84-.86-1.84-2.22a3.27,3.27,0,0,1,.88-2.34,2.89,2.89,0,0,1,1.67-.77,3.64,3.64,0,0,1,.51,0Zm-.2,3a1.05,1.05,0,0,0-1.07-1.19,1.14,1.14,0,0,0-1,.64.57.57,0,0,0-.08.31c0,.85.41,1.49,1.14,1.49S53.72,149.49,53.72,148.75Z"/><path class="cls-3" d="M47.3,158.06h2.91v.59H48v1.79h2V161H48v2.44h-.7Z"/><path class="cls-3" d="M54.33,158.25v.47l-2.27,4.73h-.72l2.25-4.6H51.05v-.59Z"/><path class="cls-3" d="M151.19,54.85h-2l-.2,1.33a3.89,3.89,0,0,1,.42,0,2.22,2.22,0,0,1,1.12.28,1.48,1.48,0,0,1,.75,1.33,1.81,1.81,0,0,1-1.94,1.78,2.49,2.49,0,0,1-1.29-.32l.17-.54a2.32,2.32,0,0,0,1.11.29,1.14,1.14,0,0,0,1.23-1.13c0-.67-.45-1.15-1.49-1.15a5.92,5.92,0,0,0-.72.06l.34-2.5h2.48Z"/><path class="cls-3" d="M152.36,58.64a2.31,2.31,0,0,0,1.15.33c.91,0,1.19-.57,1.18-1,0-.72-.67-1-1.35-1H153V56.4h.39c.52,0,1.16-.27,1.16-.88,0-.42-.26-.79-.91-.79a2,2,0,0,0-1,.35l-.18-.51a2.47,2.47,0,0,1,1.36-.4c1,0,1.49.6,1.49,1.24a1.29,1.29,0,0,1-1,1.22v0A1.34,1.34,0,0,1,155.42,58c0,.83-.65,1.56-1.9,1.56a2.64,2.64,0,0,1-1.35-.35Z"/><path class="cls-3" d="M148.09,72.45V72l.55-.54c1.33-1.26,1.93-1.93,1.94-2.71a.93.93,0,0,0-1-1,1.77,1.77,0,0,0-1.11.44l-.22-.5a2.29,2.29,0,0,1,1.47-.52,1.46,1.46,0,0,1,1.59,1.51c0,1-.7,1.73-1.79,2.79l-.42.38v0h2.34v.58Z"/><path class="cls-3" d="M155.65,69.8c0,1.76-.66,2.74-1.81,2.74s-1.7-1-1.72-2.67.75-2.7,1.81-2.7S155.65,68.14,155.65,69.8Zm-2.83.08c0,1.35.42,2.12,1.06,2.12s1.06-.84,1.06-2.17-.32-2.12-1.05-2.12S152.82,68.46,152.82,69.88Z"/><path class="cls-3" d="M152.32,85.45V84H149.9v-.47l2.32-3.32H153v3.23h.73V84H153v1.41Zm0-2V81.75c0-.27,0-.54,0-.82h0c-.16.31-.29.53-.44.77l-1.27,1.77h1.71Z"/><path class="cls-3" d="M152.32,98.45V97H149.9v-.47l2.32-3.32H153v3.23h.73V97H153v1.41Zm0-2V94.75c0-.27,0-.54,0-.82h0c-.16.31-.29.53-.44.77l-1.27,1.77h1.71Z"/><path class="cls-3" d="M152.32,111.45V110H149.9v-.47l2.32-3.32H153v3.23h.73V110H153v1.41Zm0-2v-1.73c0-.27,0-.54,0-.82h0c-.16.31-.29.53-.44.77l-1.27,1.77h1.71Z"/><path class="cls-3" d="M149.62,119.91h0l-.9.49-.14-.54,1.14-.61h.6v5.2h-.68Z"/><path class="cls-3" d="M155.3,119.85h-2l-.2,1.33a3.91,3.91,0,0,1,.43,0,2.22,2.22,0,0,1,1.12.28,1.49,1.49,0,0,1,.74,1.33,1.81,1.81,0,0,1-1.94,1.78,2.55,2.55,0,0,1-1.29-.32l.18-.54a2.25,2.25,0,0,0,1.11.29,1.15,1.15,0,0,0,1.23-1.13c0-.67-.46-1.15-1.5-1.15a4.63,4.63,0,0,0-.72.06l.34-2.5h2.49Z"/><path class="cls-3" d="M153.6,134.8c0,1.76-.66,2.74-1.81,2.74s-1.7-.95-1.72-2.67.75-2.7,1.81-2.7S153.6,133.14,153.6,134.8Zm-2.83.08c0,1.35.42,2.12,1.06,2.12s1.06-.84,1.06-2.17-.33-2.12-1-2.12S150.77,133.46,150.77,134.88Z"/><path class="cls-3" d="M153.6,147.8c0,1.76-.66,2.74-1.81,2.74s-1.7-.95-1.72-2.67.75-2.7,1.81-2.7S153.6,146.14,153.6,147.8Zm-2.83.08c0,1.35.42,2.12,1.06,2.12s1.06-.84,1.06-2.17-.33-2.12-1-2.12S150.77,146.46,150.77,147.88Z"/><path class="cls-3" d="M153.6,160.8c0,1.76-.66,2.74-1.81,2.74s-1.7-.95-1.72-2.67.75-2.7,1.81-2.7S153.6,159.14,153.6,160.8Zm-2.83.08c0,1.35.42,2.12,1.06,2.12s1.06-.84,1.06-2.17-.33-2.12-1-2.12S150.77,159.46,150.77,160.88Z"/><path class="cls-3" d="M251.57,56.8c0,1.76-.66,2.74-1.81,2.74s-1.7-.95-1.72-2.67.75-2.7,1.81-2.7S251.57,55.14,251.57,56.8Zm-2.82.08c0,1.35.41,2.12,1.05,2.12s1.06-.84,1.06-2.17-.32-2.12-1.05-2.12S248.75,55.46,248.75,56.88Z"/><path class="cls-3" d="M251.57,69.8c0,1.76-.66,2.74-1.81,2.74s-1.7-1-1.72-2.67.75-2.7,1.81-2.7S251.57,68.14,251.57,69.8Zm-2.82.08c0,1.35.41,2.12,1.05,2.12s1.06-.84,1.06-2.17-.32-2.12-1.05-2.12S248.75,68.46,248.75,69.88Z"/><path class="cls-3" d="M248.52,85a3,3,0,0,0,.57,0,1.93,1.93,0,0,0,1.09-.5,2.27,2.27,0,0,0,.68-1.39h0a1.56,1.56,0,0,1-2.76-1,1.78,1.78,0,0,1,1.78-1.84c1.06,0,1.72.86,1.72,2.19a3.31,3.31,0,0,1-.9,2.44,2.57,2.57,0,0,1-1.51.69,3.16,3.16,0,0,1-.65,0Zm.26-3a1,1,0,0,0,1,1.1,1.16,1.16,0,0,0,1-.54.5.5,0,0,0,.06-.26c0-.89-.32-1.57-1.06-1.57S248.78,81.23,248.78,82Z"/><path class="cls-3" d="M246.06,98.45V98l.55-.54c1.33-1.26,1.93-1.93,1.94-2.71a.93.93,0,0,0-1-1,1.79,1.79,0,0,0-1.11.44l-.22-.5a2.29,2.29,0,0,1,1.47-.52,1.46,1.46,0,0,1,1.59,1.51c0,1-.69,1.73-1.79,2.79l-.41.38v0h2.33v.58Z"/><path class="cls-3" d="M253.27,93.85h-2l-.2,1.33a3.89,3.89,0,0,1,.42,0,2.22,2.22,0,0,1,1.12.28,1.47,1.47,0,0,1,.74,1.33,1.8,1.8,0,0,1-1.93,1.78,2.56,2.56,0,0,1-1.3-.32l.18-.54a2.28,2.28,0,0,0,1.11.29,1.15,1.15,0,0,0,1.23-1.13c0-.67-.46-1.15-1.49-1.15a5.92,5.92,0,0,0-.72.06l.33-2.5h2.49Z"/><path class="cls-3" d="M247.59,106.91h0l-.9.49-.14-.54,1.14-.61h.6v5.2h-.68Z"/><path class="cls-3" d="M250.17,111.45V111l.55-.54c1.32-1.26,1.93-1.93,1.93-2.71a.93.93,0,0,0-1-1,1.76,1.76,0,0,0-1.1.44l-.23-.5a2.32,2.32,0,0,1,1.48-.52,1.46,1.46,0,0,1,1.59,1.51c0,1-.7,1.73-1.8,2.79l-.41.38v0h2.33v.58Z"/><path class="cls-3" d="M246.06,124.45V124l.55-.54c1.33-1.26,1.93-1.93,1.94-2.71a.93.93,0,0,0-1-1,1.79,1.79,0,0,0-1.11.44l-.22-.5a2.29,2.29,0,0,1,1.47-.52,1.46,1.46,0,0,1,1.59,1.51c0,1-.69,1.73-1.79,2.79l-.41.38v0h2.33v.58Z"/><path class="cls-3" d="M250.17,124.45V124l.55-.54c1.32-1.26,1.93-1.93,1.93-2.71a.93.93,0,0,0-1-1,1.76,1.76,0,0,0-1.1.44l-.23-.5a2.32,2.32,0,0,1,1.48-.52,1.46,1.46,0,0,1,1.59,1.51c0,1-.7,1.73-1.8,2.79l-.41.38v0h2.33v.58Z"/><path class="cls-3" d="M251.22,132.85h-2l-.2,1.33a4.11,4.11,0,0,1,.43,0,2.22,2.22,0,0,1,1.12.28,1.49,1.49,0,0,1,.74,1.33,1.8,1.8,0,0,1-1.93,1.78,2.56,2.56,0,0,1-1.3-.32l.18-.54a2.28,2.28,0,0,0,1.11.29,1.15,1.15,0,0,0,1.23-1.13c0-.67-.46-1.15-1.5-1.15a4.63,4.63,0,0,0-.72.06l.34-2.5h2.49Z"/><path class="cls-3" d="M246.06,150.45V150l.55-.54c1.33-1.26,1.93-1.93,1.94-2.71a.93.93,0,0,0-1-1,1.79,1.79,0,0,0-1.11.44l-.22-.5a2.29,2.29,0,0,1,1.47-.52,1.46,1.46,0,0,1,1.59,1.51c0,1-.69,1.73-1.79,2.79l-.41.38v0h2.33v.58Z"/><path class="cls-3" d="M250.33,149.64a2.35,2.35,0,0,0,1.15.33c.91,0,1.19-.57,1.18-1,0-.72-.66-1-1.34-1h-.39v-.52h.39c.51,0,1.16-.27,1.16-.88,0-.42-.27-.79-.92-.79a1.88,1.88,0,0,0-1,.35l-.19-.51a2.47,2.47,0,0,1,1.36-.4c1,0,1.49.6,1.49,1.24a1.29,1.29,0,0,1-1,1.22h0a1.36,1.36,0,0,1,1.16,1.34c0,.83-.65,1.56-1.9,1.56a2.64,2.64,0,0,1-1.35-.35Z"/><path class="cls-3" d="M250.29,163.45V162h-2.42v-.47l2.32-3.32H251v3.23h.73V162H251v1.41Zm0-2v-1.73c0-.27,0-.54,0-.82h0c-.16.31-.29.53-.43.77l-1.27,1.77h1.7Z"/><path class="cls-3" d="M6.85,39.1H5.31v-.83H9.38v.83H7.83v4.56h-1Z"/><path class="cls-3" d="M10.59,39.77l.71,2.09c.08.24.16.53.21.76h0c.06-.23.13-.52.2-.77l.61-2.08h1.06l-1,2.65a5.72,5.72,0,0,1-1.36,2.51,2,2,0,0,1-1,.5l-.22-.83a1.71,1.71,0,0,0,.57-.27,1.67,1.67,0,0,0,.54-.62.38.38,0,0,0,.06-.17.55.55,0,0,0-.05-.2L9.51,39.77Z"/><path class="cls-3" d="M14,41.06c0-.51,0-.92,0-1.29h.86l0,.6h0a1.53,1.53,0,0,1,1.34-.69,1.77,1.77,0,0,1,1.64,2,1.86,1.86,0,0,1-1.78,2.09A1.27,1.27,0,0,1,15,43.23h0v2H14Zm1,1a1.12,1.12,0,0,0,0,.27.9.9,0,0,0,.87.69c.62,0,1-.52,1-1.29s-.34-1.24-1-1.24a.91.91,0,0,0-.88.73,1,1,0,0,0,0,.24Z"/><path class="cls-3" d="M19.35,42a1.06,1.06,0,0,0,1.2,1,2.73,2.73,0,0,0,1.08-.18l.15.68a3.6,3.6,0,0,1-1.36.24,1.84,1.84,0,0,1-2-2,1.93,1.93,0,0,1,1.9-2.1A1.69,1.69,0,0,1,22,41.58,2.07,2.07,0,0,1,22,42Zm1.71-.69a.83.83,0,0,0-.8-.95,1,1,0,0,0-.91.95Z"/><path class="cls-3" d="M28.14,41.68a1.93,1.93,0,0,1-2,2.07,1.88,1.88,0,0,1-1.95-2,1.93,1.93,0,0,1,2-2.06A1.87,1.87,0,0,1,28.14,41.68Zm-2.93,0c0,.75.37,1.32,1,1.32s.95-.55.95-1.34c0-.6-.27-1.3-.95-1.3S25.21,41.07,25.21,41.72Z"/><path class="cls-3" d="M29.06,43.66V40.51h-.52v-.74h.52V39.6a1.82,1.82,0,0,1,.48-1.33,1.47,1.47,0,0,1,1-.37,2.06,2.06,0,0,1,.63.09l-.07.76a1.12,1.12,0,0,0-.41-.07c-.49,0-.66.41-.66.89v.2h.86v.74h-.85v3.15Z"/><path class="cls-3" d="M33.2,38.35a7.55,7.55,0,0,1,1.43-.12,2.54,2.54,0,0,1,1.55.35,1.14,1.14,0,0,1,.55,1,1.24,1.24,0,0,1-.89,1.16v0a1.35,1.35,0,0,1,1.09,1.33,1.43,1.43,0,0,1-.52,1.12,3.05,3.05,0,0,1-2,.5,10,10,0,0,1-1.21-.07Zm1,2.12h.5c.68,0,1.06-.32,1.06-.77s-.38-.74-1-.74a3,3,0,0,0-.56,0Zm0,2.48a3.36,3.36,0,0,0,.52,0c.63,0,1.19-.24,1.19-.91s-.55-.88-1.23-.88h-.48Z"/><path class="cls-3" d="M40,43.66l-.06-.43h0a1.43,1.43,0,0,1-1.15.52,1.16,1.16,0,0,1-1.22-1.16c0-1,.87-1.48,2.31-1.47v-.06c0-.26-.11-.68-.79-.68a2,2,0,0,0-1.05.29L37.78,40a2.72,2.72,0,0,1,1.4-.35,1.46,1.46,0,0,1,1.61,1.64v1.41a6.12,6.12,0,0,0,.06.93Zm-.13-1.9c-.69,0-1.36.14-1.36.73a.52.52,0,0,0,.56.56.81.81,0,0,0,.77-.54.82.82,0,0,0,0-.21Z"/><path class="cls-3" d="M44.7,43.54a2.81,2.81,0,0,1-1.11.2,1.86,1.86,0,0,1-2-2,2,2,0,0,1,2.16-2.08,2.32,2.32,0,0,1,1,.19l-.17.73a1.77,1.77,0,0,0-.75-.15,1.26,1.26,0,0,0,0,2.52,1.92,1.92,0,0,0,.78-.15Z"/><path class="cls-3" d="M46.55,38.66v1.11h.94v.74h-.94v1.71c0,.48.13.72.51.72a1.76,1.76,0,0,0,.38,0l0,.75a2.43,2.43,0,0,1-.72.09,1.11,1.11,0,0,1-.84-.32,1.52,1.52,0,0,1-.31-1.08V40.51H45v-.74h.56v-.88Z"/><path class="cls-3" d="M48.93,42c0,.71.57,1,1.2,1a2.8,2.8,0,0,0,1.08-.18l.14.68a3.57,3.57,0,0,1-1.36.24,1.84,1.84,0,0,1-2-2,1.94,1.94,0,0,1,1.91-2.1,1.7,1.7,0,0,1,1.68,1.9,1.93,1.93,0,0,1,0,.41Zm1.71-.69a.83.83,0,0,0-.81-.95,1,1,0,0,0-.9.95Z"/><path class="cls-3" d="M52.36,41c0-.52,0-.9,0-1.25h.85l0,.74h0a1.16,1.16,0,0,1,1.06-.83.8.8,0,0,1,.23,0v.92a1.84,1.84,0,0,0-.28,0,.86.86,0,0,0-.88.74,1.46,1.46,0,0,0,0,.31v2h-1Z"/><path class="cls-3" d="M56.26,38.68a.56.56,0,1,1-.56-.53A.53.53,0,0,1,56.26,38.68Zm-1,5V39.77h1v3.89Z"/><path class="cls-3" d="M59.45,43.66l-.07-.43h0a1.43,1.43,0,0,1-1.15.52A1.16,1.16,0,0,1,57,42.59c0-1,.88-1.48,2.32-1.47v-.06c0-.26-.11-.68-.8-.68a2,2,0,0,0-1,.29L57.27,40a2.72,2.72,0,0,1,1.4-.35,1.46,1.46,0,0,1,1.61,1.64v1.41a6.12,6.12,0,0,0,.06.93Zm-.13-1.9c-.7,0-1.36.14-1.36.73a.52.52,0,0,0,.56.56.81.81,0,0,0,.77-.54.82.82,0,0,0,0-.21Z"/><path class="cls-3" d="M64,38.68a.55.55,0,1,1-.55-.53A.52.52,0,0,1,64,38.68Zm-1,5V39.77h1v3.89Z"/><path class="cls-3" d="M65,40.93c0-.45,0-.82,0-1.16h.87l0,.58h0a1.41,1.41,0,0,1,1.24-.67c.68,0,1.38.44,1.38,1.67v2.31h-1v-2.2c0-.55-.21-1-.75-1a.81.81,0,0,0-.76.58.83.83,0,0,0,0,.32v2.28H65Z"/><path class="cls-3" d="M72.38,38.66v1.11h.94v.74h-.94v1.71c0,.48.13.72.51.72a1.69,1.69,0,0,0,.38,0l0,.75a2.43,2.43,0,0,1-.72.09,1.13,1.13,0,0,1-.84-.32,1.52,1.52,0,0,1-.31-1.08V40.51h-.56v-.74h.56v-.88Z"/><path class="cls-3" d="M74.06,38h1v2.32h0a1.25,1.25,0,0,1,.49-.45,1.34,1.34,0,0,1,.67-.18c.66,0,1.36.44,1.36,1.69v2.29h-1V41.48c0-.57-.21-1-.76-1a.8.8,0,0,0-.75.55.71.71,0,0,0,0,.3v2.32h-1Z"/><path class="cls-3" d="M79.34,42a1,1,0,0,0,1.19,1,2.73,2.73,0,0,0,1.08-.18l.15.68a3.6,3.6,0,0,1-1.36.24,1.84,1.84,0,0,1-2-2,1.93,1.93,0,0,1,1.9-2.1A1.69,1.69,0,0,1,82,41.58a2.07,2.07,0,0,1,0,.41Zm1.71-.69a.85.85,0,0,0-.81-.95,1,1,0,0,0-.9.95Z"/><path class="cls-3" d="M88.78,43.42a5.52,5.52,0,0,1-1.73.3A2.89,2.89,0,0,1,84.94,43a2.85,2.85,0,0,1,2.24-4.78,3.53,3.53,0,0,1,1.43.25l-.21.8A2.89,2.89,0,0,0,87.17,39a1.95,1.95,0,0,0-.08,3.89,2,2,0,0,0,.74-.11V41.46h-1v-.77h1.9Z"/><path class="cls-3" d="M93.24,42.5c0,.46,0,.84,0,1.16h-.86l0-.59h0a1.4,1.4,0,0,1-1.24.68c-.72,0-1.36-.42-1.36-1.69V39.77h1v2.12c0,.65.21,1.06.73,1.06a.83.83,0,0,0,.75-.53.9.9,0,0,0,0-.3V39.77h1Z"/><path class="cls-3" d="M95.43,38.66v1.11h.94v.74h-.94v1.71c0,.48.13.72.51.72a1.76,1.76,0,0,0,.38,0v.75a2.3,2.3,0,0,1-.71.09,1.15,1.15,0,0,1-.85-.32,1.57,1.57,0,0,1-.3-1.08V40.51h-.56v-.74h.56v-.88Z"/><path class="cls-3" d="M118.37,39.92c0,1.1-.64,1.65-1.35,1.65S115.7,41,115.69,40a1.44,1.44,0,0,1,1.37-1.63C117.89,38.38,118.37,39,118.37,39.92Zm-1.92.06c0,.6.2,1,.6,1s.58-.42.58-1.05-.16-1-.58-1S116.45,39.39,116.45,40Zm.59,3.77,3-5.37h.56l-3,5.37ZM122,42.08c0,1.09-.64,1.65-1.36,1.65a1.38,1.38,0,0,1-1.32-1.57,1.45,1.45,0,0,1,1.36-1.63C121.47,40.53,122,41.15,122,42.08Zm-1.93.06c0,.59.21,1,.6,1s.58-.42.58-1-.16-1-.58-1S120,41.55,120,42.14Z"/><path class="cls-3" d="M125.4,38.27v5.39h-1V38.27Z"/><path class="cls-3" d="M126.49,40.93c0-.45,0-.82,0-1.16h.86l.05.58h0a1.41,1.41,0,0,1,1.24-.67c.68,0,1.38.44,1.38,1.67v2.31h-1v-2.2c0-.55-.21-1-.74-1a.81.81,0,0,0-.77.58,1.08,1.08,0,0,0,0,.32v2.28h-1Z"/><path class="cls-3" d="M133.84,42.14l-.47,1.52h-1l1.72-5.39h1.26l1.75,5.39H136l-.49-1.52Zm1.54-.75L135,40.07c-.11-.33-.2-.7-.27-1h0c-.08.31-.16.69-.26,1L134,41.39Z"/><path class="cls-3" d="M137.92,43.66V40.51h-.53v-.74h.53V39.6a1.81,1.81,0,0,1,.47-1.33,1.5,1.5,0,0,1,1-.37A2.11,2.11,0,0,1,140,38l-.08.76a1.12,1.12,0,0,0-.41-.07c-.49,0-.66.41-.66.89v.2h.86v.74h-.85v3.15Z"/><path class="cls-3" d="M140.36,41c0-.52,0-.9,0-1.25h.85l0,.74h0a1.15,1.15,0,0,1,1.06-.83.85.85,0,0,1,.23,0v.92a2,2,0,0,0-.29,0,.88.88,0,0,0-.88.74,2.72,2.72,0,0,0,0,.31v2h-1Z"/><path class="cls-3" d="M144.25,38.68a.55.55,0,1,1-.55-.53A.52.52,0,0,1,144.25,38.68Zm-1,5V39.77h1v3.89Z"/><path class="cls-3" d="M148.12,43.54a2.81,2.81,0,0,1-1.11.2,1.86,1.86,0,0,1-2-2,2,2,0,0,1,2.16-2.08,2.32,2.32,0,0,1,1,.19l-.17.73a1.77,1.77,0,0,0-.75-.15,1.26,1.26,0,0,0,0,2.52,1.92,1.92,0,0,0,.78-.15Z"/><path class="cls-3" d="M151,43.66l-.07-.43h0a1.43,1.43,0,0,1-1.15.52,1.16,1.16,0,0,1-1.23-1.16c0-1,.88-1.48,2.31-1.47v-.06c0-.26-.1-.68-.79-.68a2,2,0,0,0-1,.29l-.2-.64a2.79,2.79,0,0,1,1.41-.35,1.46,1.46,0,0,1,1.61,1.64v1.41a6.27,6.27,0,0,0,0,.93Zm-.13-1.9c-.7,0-1.36.14-1.36.73a.52.52,0,0,0,.56.56.81.81,0,0,0,.77-.54.82.82,0,0,0,0-.21Z"/><path class="cls-3" d="M152.91,40.93c0-.45,0-.82,0-1.16h.86l0,.58h0a1.41,1.41,0,0,1,1.24-.67c.68,0,1.39.44,1.39,1.67v2.31h-1v-2.2c0-.55-.21-1-.74-1a.82.82,0,0,0-.77.58,1.08,1.08,0,0,0,0,.32v2.28h-1Z"/><path class="cls-3" d="M163,43.5a3.38,3.38,0,0,1-1.39.24A2.54,2.54,0,0,1,158.9,41a2.71,2.71,0,0,1,2.88-2.84,3,3,0,0,1,1.31.24l-.21.78a2.68,2.68,0,0,0-1.06-.21,1.79,1.79,0,0,0-1.89,2,1.77,1.77,0,0,0,1.88,2,2.72,2.72,0,0,0,1.07-.2Z"/><path class="cls-3" d="M163.84,38h1v2.32h0a1.25,1.25,0,0,1,.49-.45,1.34,1.34,0,0,1,.67-.18c.67,0,1.36.44,1.36,1.69v2.29h-1V41.48c0-.57-.21-1-.75-1a.8.8,0,0,0-.76.55.71.71,0,0,0,0,.3v2.32h-1Z"/><path class="cls-3" d="M169.47,38.68a.52.52,0,0,1-.56.53.51.51,0,0,1-.54-.53.52.52,0,0,1,.55-.53A.53.53,0,0,1,169.47,38.68Zm-1.05,5V39.77h1v3.89Z"/><path class="cls-3" d="M170.47,38h1v5.67h-1Z"/><path class="cls-3" d="M176.12,38v4.58c0,.4,0,.83,0,1.09h-.88l0-.61h0a1.4,1.4,0,0,1-1.27.7,1.78,1.78,0,0,1-1.66-2A1.85,1.85,0,0,1,174,39.68a1.27,1.27,0,0,1,1.1.51h0V38Zm-1,3.4a2.11,2.11,0,0,0,0-.25.86.86,0,0,0-.85-.7c-.63,0-1,.56-1,1.29s.35,1.23,1,1.23a.87.87,0,0,0,.85-.7,1.2,1.2,0,0,0,0-.28Z"/><path class="cls-3" d="M177.17,41c0-.52,0-.9,0-1.25H178l0,.74h0a1.16,1.16,0,0,1,1.06-.83.88.88,0,0,1,.24,0v.92a2,2,0,0,0-.29,0,.88.88,0,0,0-.88.74,1.48,1.48,0,0,0,0,.31v2h-1Z"/><path class="cls-3" d="M180.72,42c0,.71.57,1,1.2,1a2.8,2.8,0,0,0,1.08-.18l.14.68a3.6,3.6,0,0,1-1.36.24,1.84,1.84,0,0,1-2-2,1.94,1.94,0,0,1,1.91-2.1,1.7,1.7,0,0,1,1.68,1.9,1.93,1.93,0,0,1,0,.41Zm1.71-.69a.83.83,0,0,0-.81-.95,1,1,0,0,0-.9.95Z"/><path class="cls-3" d="M184.15,40.93c0-.45,0-.82,0-1.16H185l.05.58h0a1.41,1.41,0,0,1,1.24-.67c.68,0,1.38.44,1.38,1.67v2.31h-1v-2.2c0-.55-.21-1-.74-1a.82.82,0,0,0-.77.58,1.08,1.08,0,0,0,0,.32v2.28h-1Z"/><path class="cls-3" d="M348.3,54.13a7.26,7.26,0,0,1,1.28-.11,2.21,2.21,0,0,1,1.47.39,1.14,1.14,0,0,1,.45,1,1.27,1.27,0,0,1-.91,1.18v0a1.38,1.38,0,0,1,1.11,1.35,1.47,1.47,0,0,1-.45,1.08,2.76,2.76,0,0,1-1.87.5,8.78,8.78,0,0,1-1.08-.06Zm.7,2.21h.63c.74,0,1.17-.38,1.17-.9s-.48-.88-1.18-.88a2.6,2.6,0,0,0-.62,0Zm0,2.58a3,3,0,0,0,.58,0c.72,0,1.39-.27,1.39-1.05s-.64-1-1.39-1H349Z"/><path class="cls-3" d="M353.92,54.91h0l-.9.49-.14-.54,1.14-.61h.6v5.2h-.68Z"/><path class="cls-3" d="M348.3,67.13a7.26,7.26,0,0,1,1.28-.11,2.21,2.21,0,0,1,1.47.39,1.14,1.14,0,0,1,.45,1,1.27,1.27,0,0,1-.91,1.18v0a1.38,1.38,0,0,1,1.11,1.35,1.47,1.47,0,0,1-.45,1.08,2.76,2.76,0,0,1-1.87.5,8.78,8.78,0,0,1-1.08-.06Zm.7,2.21h.63c.74,0,1.17-.38,1.17-.9s-.48-.88-1.18-.88a2.6,2.6,0,0,0-.62,0Zm0,2.58a3,3,0,0,0,.58,0c.72,0,1.39-.27,1.39-1s-.64-1-1.39-1H349Z"/><path class="cls-3" d="M352.39,72.45V72l.55-.54c1.33-1.26,1.93-1.93,1.94-2.71a.93.93,0,0,0-1-1,1.79,1.79,0,0,0-1.11.44l-.22-.5a2.29,2.29,0,0,1,1.47-.52,1.46,1.46,0,0,1,1.59,1.51c0,1-.69,1.73-1.79,2.79l-.41.38v0h2.33v.58Z"/><path class="cls-3" d="M348.3,80.06h2.91v.59H349v1.79h2V83h-2v2.44h-.7Z"/><path class="cls-3" d="M353.48,80.91h0l-.9.49-.14-.54,1.14-.61h.6v5.2h-.68Z"/><path class="cls-3" d="M348.3,93.06h2.91v.59H349v1.79h2V96h-2v2.44h-.7Z"/><path class="cls-3" d="M352,98.45V98l.55-.54c1.33-1.26,1.93-1.93,1.94-2.71a.93.93,0,0,0-1-1,1.79,1.79,0,0,0-1.11.44l-.22-.5a2.29,2.29,0,0,1,1.47-.52,1.46,1.46,0,0,1,1.59,1.51c0,1-.69,1.73-1.79,2.79l-.41.38v0h2.33v.58Z"/><path class="cls-3" d="M348.3,106.06h2.91v.59H349v1.79h2V109h-2v2.44h-.7Z"/><path class="cls-3" d="M352.12,110.64a2.31,2.31,0,0,0,1.15.33c.91,0,1.19-.57,1.18-1,0-.72-.67-1-1.35-1h-.39v-.52h.39c.52,0,1.16-.27,1.16-.88,0-.42-.26-.79-.91-.79a2,2,0,0,0-1,.35l-.18-.51a2.47,2.47,0,0,1,1.36-.4c1,0,1.48.6,1.48,1.24a1.28,1.28,0,0,1-1,1.22h0a1.35,1.35,0,0,1,1.15,1.34c0,.83-.64,1.56-1.89,1.56a2.61,2.61,0,0,1-1.35-.35Z"/><path class="cls-3" d="M348.3,119.06h2.91v.59H349v1.79h2V122h-2v2.44h-.7Z"/><path class="cls-3" d="M354.13,124.45V123h-2.42v-.47l2.32-3.32h.76v3.23h.73V123h-.73v1.41Zm0-2v-1.73c0-.27,0-.54,0-.82h0c-.16.31-.29.53-.43.77l-1.28,1.77h1.71Z"/><path class="cls-3" d="M348.3,132.06h2.91v.59H349v1.79h2V135h-2v2.44h-.7Z"/><path class="cls-3" d="M355.05,132.85h-2l-.2,1.33a3.91,3.91,0,0,1,.43,0,2.22,2.22,0,0,1,1.12.28,1.49,1.49,0,0,1,.74,1.33,1.81,1.81,0,0,1-1.94,1.78,2.55,2.55,0,0,1-1.29-.32l.17-.54a2.33,2.33,0,0,0,1.12.29,1.15,1.15,0,0,0,1.23-1.13c0-.67-.46-1.15-1.5-1.15a4.52,4.52,0,0,0-.72.06l.34-2.5h2.48Z"/><path class="cls-3" d="M348.3,145.06h2.91v.59H349v1.79h2V148h-2v2.44h-.7Z"/><path class="cls-3" d="M354.92,145.75a2.56,2.56,0,0,0-.53,0,2.12,2.12,0,0,0-1.81,1.85h0a1.58,1.58,0,0,1,2.82,1.08,1.74,1.74,0,0,1-1.73,1.83c-1.11,0-1.84-.86-1.84-2.22a3.27,3.27,0,0,1,.88-2.34,2.89,2.89,0,0,1,1.67-.77,3.64,3.64,0,0,1,.51,0Zm-.2,3a1.05,1.05,0,0,0-1.07-1.19,1.14,1.14,0,0,0-1,.64.57.57,0,0,0-.08.31c0,.85.41,1.49,1.14,1.49S354.72,149.49,354.72,148.75Z"/><path class="cls-3" d="M348.3,158.06h2.91v.59H349v1.79h2V161h-2v2.44h-.7Z"/><path class="cls-3" d="M355.33,158.25v.47l-2.27,4.73h-.72l2.25-4.6h-2.54v-.59Z"/><path class="cls-3" d="M452.19,54.85h-2l-.2,1.33a3.89,3.89,0,0,1,.42,0,2.22,2.22,0,0,1,1.12.28,1.48,1.48,0,0,1,.75,1.33,1.81,1.81,0,0,1-1.94,1.78,2.49,2.49,0,0,1-1.29-.32l.17-.54a2.32,2.32,0,0,0,1.11.29,1.14,1.14,0,0,0,1.23-1.13c0-.67-.45-1.15-1.49-1.15a5.92,5.92,0,0,0-.72.06l.34-2.5h2.48Z"/><path class="cls-3" d="M453.36,58.64a2.35,2.35,0,0,0,1.15.33c.91,0,1.19-.57,1.18-1,0-.72-.67-1-1.35-1H454V56.4h.39c.52,0,1.16-.27,1.16-.88,0-.42-.26-.79-.91-.79a2,2,0,0,0-1,.35l-.18-.51a2.47,2.47,0,0,1,1.36-.4c1,0,1.49.6,1.49,1.24a1.29,1.29,0,0,1-1,1.22v0A1.34,1.34,0,0,1,456.42,58c0,.83-.65,1.56-1.9,1.56a2.64,2.64,0,0,1-1.35-.35Z"/><path class="cls-3" d="M449.09,72.45V72l.55-.54c1.33-1.26,1.93-1.93,1.94-2.71a.93.93,0,0,0-1-1,1.77,1.77,0,0,0-1.11.44l-.22-.5a2.29,2.29,0,0,1,1.47-.52,1.46,1.46,0,0,1,1.59,1.51c0,1-.7,1.73-1.79,2.79l-.42.38v0h2.34v.58Z"/><path class="cls-3" d="M456.65,69.8c0,1.76-.66,2.74-1.81,2.74s-1.7-1-1.72-2.67.75-2.7,1.81-2.7S456.65,68.14,456.65,69.8Zm-2.82.08c0,1.35.41,2.12,1.05,2.12s1.06-.84,1.06-2.17-.32-2.12-1.05-2.12S453.83,68.46,453.83,69.88Z"/><path class="cls-3" d="M453.32,85.45V84H450.9v-.47l2.32-3.32H454v3.23h.73V84H454v1.41Zm0-2V81.75c0-.27,0-.54,0-.82h0c-.16.31-.29.53-.44.77l-1.27,1.77h1.71Z"/><path class="cls-3" d="M453.32,98.45V97H450.9v-.47l2.32-3.32H454v3.23h.73V97H454v1.41Zm0-2V94.75c0-.27,0-.54,0-.82h0c-.16.31-.29.53-.44.77l-1.27,1.77h1.71Z"/><path class="cls-3" d="M453.32,111.45V110H450.9v-.47l2.32-3.32H454v3.23h.73V110H454v1.41Zm0-2v-1.73c0-.27,0-.54,0-.82h0c-.16.31-.29.53-.44.77l-1.27,1.77h1.71Z"/><path class="cls-3" d="M450.62,119.91h0l-.9.49-.14-.54,1.14-.61h.6v5.2h-.68Z"/><path class="cls-3" d="M456.3,119.85h-2l-.2,1.33a3.91,3.91,0,0,1,.43,0,2.22,2.22,0,0,1,1.12.28,1.49,1.49,0,0,1,.74,1.33,1.81,1.81,0,0,1-1.94,1.78,2.55,2.55,0,0,1-1.29-.32l.18-.54a2.28,2.28,0,0,0,1.11.29,1.15,1.15,0,0,0,1.23-1.13c0-.67-.46-1.15-1.5-1.15a4.63,4.63,0,0,0-.72.06l.34-2.5h2.49Z"/><path class="cls-3" d="M454.6,134.8c0,1.76-.66,2.74-1.81,2.74s-1.7-.95-1.72-2.67.75-2.7,1.81-2.7S454.6,133.14,454.6,134.8Zm-2.83.08c0,1.35.42,2.12,1.06,2.12s1.06-.84,1.06-2.17-.33-2.12-1.05-2.12S451.77,133.46,451.77,134.88Z"/><path class="cls-3" d="M454.6,147.8c0,1.76-.66,2.74-1.81,2.74s-1.7-.95-1.72-2.67.75-2.7,1.81-2.7S454.6,146.14,454.6,147.8Zm-2.83.08c0,1.35.42,2.12,1.06,2.12s1.06-.84,1.06-2.17-.33-2.12-1.05-2.12S451.77,146.46,451.77,147.88Z"/><path class="cls-3" d="M454.6,160.8c0,1.76-.66,2.74-1.81,2.74s-1.7-.95-1.72-2.67.75-2.7,1.81-2.7S454.6,159.14,454.6,160.8Zm-2.83.08c0,1.35.42,2.12,1.06,2.12s1.06-.84,1.06-2.17-.33-2.12-1.05-2.12S451.77,159.46,451.77,160.88Z"/><path class="cls-3" d="M307.85,39.1h-1.54v-.83h4.07v.83h-1.55v4.56h-1Z"/><path class="cls-3" d="M311.59,39.77l.71,2.09c.08.24.16.53.21.76h0c.06-.23.13-.52.2-.77l.61-2.08h1.06l-1,2.65a5.72,5.72,0,0,1-1.36,2.51,2,2,0,0,1-1,.5l-.22-.83a1.71,1.71,0,0,0,.57-.27,1.67,1.67,0,0,0,.54-.62.38.38,0,0,0,.06-.17.55.55,0,0,0-.05-.2l-1.43-3.57Z"/><path class="cls-3" d="M315,41.06c0-.51,0-.92,0-1.29h.86l.05.6h0a1.53,1.53,0,0,1,1.34-.69,1.77,1.77,0,0,1,1.64,2,1.86,1.86,0,0,1-1.78,2.09,1.27,1.27,0,0,1-1.09-.52h0v2h-1Zm1,1a1.12,1.12,0,0,0,0,.27.9.9,0,0,0,.87.69c.62,0,1-.52,1-1.29s-.34-1.24-1-1.24a.91.91,0,0,0-.88.73,1,1,0,0,0,0,.24Z"/><path class="cls-3" d="M320.35,42a1.06,1.06,0,0,0,1.2,1,2.73,2.73,0,0,0,1.08-.18l.15.68a3.6,3.6,0,0,1-1.36.24,1.84,1.84,0,0,1-2-2,1.93,1.93,0,0,1,1.9-2.1,1.69,1.69,0,0,1,1.68,1.9,2.07,2.07,0,0,1,0,.41Zm1.71-.69a.83.83,0,0,0-.8-.95,1,1,0,0,0-.91.95Z"/><path class="cls-3" d="M329.14,41.68a1.93,1.93,0,0,1-2,2.07,1.88,1.88,0,0,1-1.95-2,1.93,1.93,0,0,1,2-2.06A1.87,1.87,0,0,1,329.14,41.68Zm-2.93,0c0,.75.37,1.32,1,1.32s.95-.55.95-1.34c0-.6-.27-1.3-.95-1.3S326.21,41.07,326.21,41.72Z"/><path class="cls-3" d="M330.06,43.66V40.51h-.52v-.74h.52V39.6a1.82,1.82,0,0,1,.48-1.33,1.47,1.47,0,0,1,1-.37,2.06,2.06,0,0,1,.63.09l-.07.76a1.12,1.12,0,0,0-.41-.07c-.49,0-.66.41-.66.89v.2h.86v.74h-.85v3.15Z"/><path class="cls-3" d="M334.2,38.35a7.55,7.55,0,0,1,1.43-.12,2.54,2.54,0,0,1,1.55.35,1.14,1.14,0,0,1,.55,1,1.24,1.24,0,0,1-.89,1.16v0a1.35,1.35,0,0,1,1.09,1.33,1.43,1.43,0,0,1-.52,1.12,3.05,3.05,0,0,1-2,.5,10,10,0,0,1-1.21-.07Zm1,2.12h.5c.68,0,1.06-.32,1.06-.77s-.38-.74-1-.74a3,3,0,0,0-.56,0Zm0,2.48a3.36,3.36,0,0,0,.52,0c.63,0,1.19-.24,1.19-.91s-.55-.88-1.23-.88h-.48Z"/><path class="cls-3" d="M341,43.66l-.06-.43h0a1.43,1.43,0,0,1-1.15.52,1.16,1.16,0,0,1-1.22-1.16c0-1,.87-1.48,2.31-1.47v-.06c0-.26-.11-.68-.79-.68a2,2,0,0,0-1,.29l-.19-.64a2.72,2.72,0,0,1,1.4-.35,1.46,1.46,0,0,1,1.61,1.64v1.41a6.12,6.12,0,0,0,.06.93Zm-.13-1.9c-.69,0-1.36.14-1.36.73a.52.52,0,0,0,.56.56.81.81,0,0,0,.77-.54.82.82,0,0,0,0-.21Z"/><path class="cls-3" d="M345.7,43.54a2.81,2.81,0,0,1-1.11.2,1.86,1.86,0,0,1-2-2,2,2,0,0,1,2.16-2.08,2.32,2.32,0,0,1,.95.19l-.17.73a1.77,1.77,0,0,0-.75-.15,1.26,1.26,0,0,0,0,2.52,1.92,1.92,0,0,0,.78-.15Z"/><path class="cls-3" d="M347.55,38.66v1.11h.94v.74h-.94v1.71c0,.48.13.72.51.72a1.76,1.76,0,0,0,.38,0l0,.75a2.43,2.43,0,0,1-.72.09,1.11,1.11,0,0,1-.84-.32,1.52,1.52,0,0,1-.31-1.08V40.51H346v-.74h.56v-.88Z"/><path class="cls-3" d="M349.93,42c0,.71.57,1,1.2,1a2.8,2.8,0,0,0,1.08-.18l.14.68a3.57,3.57,0,0,1-1.36.24,1.84,1.84,0,0,1-2-2,1.94,1.94,0,0,1,1.91-2.1,1.7,1.7,0,0,1,1.68,1.9,1.93,1.93,0,0,1,0,.41Zm1.71-.69a.83.83,0,0,0-.81-.95,1,1,0,0,0-.9.95Z"/><path class="cls-3" d="M353.36,41c0-.52,0-.9,0-1.25h.85l0,.74h0a1.16,1.16,0,0,1,1.06-.83.8.8,0,0,1,.23,0v.92a1.84,1.84,0,0,0-.28,0,.86.86,0,0,0-.88.74,1.46,1.46,0,0,0,0,.31v2h-1Z"/><path class="cls-3" d="M357.26,38.68a.56.56,0,1,1-.56-.53A.53.53,0,0,1,357.26,38.68Zm-1.05,5V39.77h1v3.89Z"/><path class="cls-3" d="M360.45,43.66l-.07-.43h0a1.43,1.43,0,0,1-1.15.52A1.16,1.16,0,0,1,358,42.59c0-1,.88-1.48,2.32-1.47v-.06c0-.26-.11-.68-.8-.68a2,2,0,0,0-1,.29l-.19-.64a2.72,2.72,0,0,1,1.4-.35,1.46,1.46,0,0,1,1.61,1.64v1.41a6.12,6.12,0,0,0,.06.93Zm-.13-1.9c-.7,0-1.36.14-1.36.73a.52.52,0,0,0,.56.56.81.81,0,0,0,.77-.54.82.82,0,0,0,0-.21Z"/><path class="cls-3" d="M365,38.68a.55.55,0,1,1-.55-.53A.52.52,0,0,1,365,38.68Zm-1,5V39.77h1v3.89Z"/><path class="cls-3" d="M366,40.93c0-.45,0-.82,0-1.16h.87l0,.58h0a1.41,1.41,0,0,1,1.24-.67c.68,0,1.38.44,1.38,1.67v2.31h-1v-2.2c0-.55-.21-1-.75-1a.81.81,0,0,0-.76.58.83.83,0,0,0,0,.32v2.28h-1Z"/><path class="cls-3" d="M373.38,38.66v1.11h.94v.74h-.94v1.71c0,.48.13.72.51.72a1.69,1.69,0,0,0,.38,0l0,.75a2.43,2.43,0,0,1-.72.09,1.13,1.13,0,0,1-.84-.32,1.52,1.52,0,0,1-.31-1.08V40.51h-.56v-.74h.56v-.88Z"/><path class="cls-3" d="M375.06,38h1v2.32h0a1.25,1.25,0,0,1,.49-.45,1.34,1.34,0,0,1,.67-.18c.66,0,1.36.44,1.36,1.69v2.29h-1V41.48c0-.57-.21-1-.76-1a.8.8,0,0,0-.75.55.71.71,0,0,0,0,.3v2.32h-1Z"/><path class="cls-3" d="M380.34,42a1,1,0,0,0,1.19,1,2.73,2.73,0,0,0,1.08-.18l.15.68a3.6,3.6,0,0,1-1.36.24,1.84,1.84,0,0,1-2-2,1.93,1.93,0,0,1,1.9-2.1,1.69,1.69,0,0,1,1.68,1.9,2.07,2.07,0,0,1,0,.41Zm1.71-.69a.85.85,0,0,0-.81-.95,1,1,0,0,0-.9.95Z"/><path class="cls-3" d="M389.78,43.42a5.52,5.52,0,0,1-1.73.3,2.92,2.92,0,0,1-2.12-.72,2.85,2.85,0,0,1,2.25-4.78,3.53,3.53,0,0,1,1.43.25l-.21.8a2.89,2.89,0,0,0-1.23-.24,1.95,1.95,0,0,0-.08,3.89,2,2,0,0,0,.74-.11V41.46h-.95v-.77h1.9Z"/><path class="cls-3" d="M394.24,42.5c0,.46,0,.84,0,1.16h-.86l-.05-.59h0a1.41,1.41,0,0,1-1.25.68c-.71,0-1.35-.42-1.35-1.69V39.77h1v2.12c0,.65.21,1.06.73,1.06a.83.83,0,0,0,.75-.53.9.9,0,0,0,.05-.3V39.77h1Z"/><path class="cls-3" d="M396.43,38.66v1.11h.94v.74h-.94v1.71c0,.48.13.72.5.72a1.79,1.79,0,0,0,.39,0v.75a2.35,2.35,0,0,1-.71.09,1.15,1.15,0,0,1-.85-.32,1.57,1.57,0,0,1-.3-1.08V40.51h-.56v-.74h.56v-.88Z"/><path class="cls-3" d="M419.37,39.92c0,1.1-.64,1.65-1.35,1.65S416.7,41,416.69,40a1.44,1.44,0,0,1,1.37-1.63C418.89,38.38,419.37,39,419.37,39.92Zm-1.92.06c0,.6.2,1,.6,1s.58-.42.58-1.05-.16-1-.58-1S417.45,39.39,417.45,40Zm.59,3.77,3-5.37h.56l-3,5.37ZM423,42.08c0,1.09-.64,1.65-1.36,1.65a1.38,1.38,0,0,1-1.32-1.57,1.45,1.45,0,0,1,1.36-1.63C422.47,40.53,423,41.15,423,42.08Zm-1.93.06c0,.59.21,1,.6,1s.58-.42.58-1-.16-1-.58-1S421,41.55,421,42.14Z"/><path class="cls-3" d="M426.4,38.27v5.39h-1V38.27Z"/><path class="cls-3" d="M427.49,40.93c0-.45,0-.82,0-1.16h.86l.05.58h0a1.41,1.41,0,0,1,1.24-.67c.68,0,1.38.44,1.38,1.67v2.31h-1v-2.2c0-.55-.21-1-.74-1a.81.81,0,0,0-.77.58,1.08,1.08,0,0,0,0,.32v2.28h-1Z"/><path class="cls-3" d="M434.84,42.14l-.47,1.52h-1l1.72-5.39h1.26l1.75,5.39h-1l-.49-1.52Zm1.54-.75L436,40.07c-.11-.33-.2-.7-.27-1h0c-.08.31-.16.69-.26,1L435,41.39Z"/><path class="cls-3" d="M438.92,43.66V40.51h-.53v-.74h.53V39.6a1.81,1.81,0,0,1,.47-1.33,1.5,1.5,0,0,1,1-.37A2.11,2.11,0,0,1,441,38l-.08.76a1.12,1.12,0,0,0-.41-.07c-.49,0-.66.41-.66.89v.2h.86v.74h-.85v3.15Z"/><path class="cls-3" d="M441.36,41c0-.52,0-.9,0-1.25h.85l0,.74h0a1.15,1.15,0,0,1,1.06-.83.85.85,0,0,1,.23,0v.92a2,2,0,0,0-.29,0,.88.88,0,0,0-.88.74,2.72,2.72,0,0,0,0,.31v2h-1Z"/><path class="cls-3" d="M445.25,38.68a.55.55,0,1,1-.55-.53A.52.52,0,0,1,445.25,38.68Zm-1,5V39.77h1v3.89Z"/><path class="cls-3" d="M449.12,43.54a2.81,2.81,0,0,1-1.11.2,1.86,1.86,0,0,1-2-2,2,2,0,0,1,2.16-2.08,2.32,2.32,0,0,1,.95.19l-.17.73a1.77,1.77,0,0,0-.75-.15,1.26,1.26,0,0,0,0,2.52,1.92,1.92,0,0,0,.78-.15Z"/><path class="cls-3" d="M452,43.66l-.07-.43h0a1.43,1.43,0,0,1-1.15.52,1.16,1.16,0,0,1-1.23-1.16c0-1,.88-1.48,2.31-1.47v-.06c0-.26-.1-.68-.79-.68a2,2,0,0,0-1,.29l-.2-.64a2.79,2.79,0,0,1,1.41-.35,1.46,1.46,0,0,1,1.61,1.64v1.41a6.27,6.27,0,0,0,.05.93Zm-.13-1.9c-.7,0-1.36.14-1.36.73a.52.52,0,0,0,.56.56.81.81,0,0,0,.77-.54.82.82,0,0,0,0-.21Z"/><path class="cls-3" d="M453.91,40.93c0-.45,0-.82,0-1.16h.86l.05.58h0a1.41,1.41,0,0,1,1.24-.67c.68,0,1.39.44,1.39,1.67v2.31h-1v-2.2c0-.55-.21-1-.74-1a.82.82,0,0,0-.77.58,1.08,1.08,0,0,0,0,.32v2.28h-1Z"/><path class="cls-3" d="M464,43.5a3.38,3.38,0,0,1-1.39.24A2.54,2.54,0,0,1,459.9,41a2.71,2.71,0,0,1,2.88-2.84,3,3,0,0,1,1.31.24l-.21.78a2.68,2.68,0,0,0-1.06-.21,1.79,1.79,0,0,0-1.89,2,1.77,1.77,0,0,0,1.88,2,2.72,2.72,0,0,0,1.07-.2Z"/><path class="cls-3" d="M464.84,38h1v2.32h0a1.25,1.25,0,0,1,.49-.45,1.34,1.34,0,0,1,.67-.18c.67,0,1.36.44,1.36,1.69v2.29h-1V41.48c0-.57-.21-1-.75-1a.8.8,0,0,0-.76.55.71.71,0,0,0,0,.3v2.32h-1Z"/><path class="cls-3" d="M470.47,38.68a.52.52,0,0,1-.56.53.51.51,0,0,1-.54-.53.52.52,0,0,1,.55-.53A.53.53,0,0,1,470.47,38.68Zm-1.05,5V39.77h1v3.89Z"/><path class="cls-3" d="M471.47,38h1v5.67h-1Z"/><path class="cls-3" d="M477.12,38v4.58c0,.4,0,.83,0,1.09h-.88l0-.61h0a1.4,1.4,0,0,1-1.27.7,1.78,1.78,0,0,1-1.66-2A1.85,1.85,0,0,1,475,39.68a1.27,1.27,0,0,1,1.1.51h0V38Zm-1,3.4a2.11,2.11,0,0,0,0-.25.86.86,0,0,0-.85-.7c-.63,0-1,.56-1,1.29s.35,1.23,1,1.23a.87.87,0,0,0,.85-.7,1.2,1.2,0,0,0,0-.28Z"/><path class="cls-3" d="M478.17,41c0-.52,0-.9,0-1.25H479l0,.74h0a1.16,1.16,0,0,1,1.06-.83.88.88,0,0,1,.24,0v.92a2,2,0,0,0-.29,0,.88.88,0,0,0-.88.74,1.48,1.48,0,0,0,0,.31v2h-1Z"/><path class="cls-3" d="M481.72,42c0,.71.57,1,1.2,1a2.8,2.8,0,0,0,1.08-.18l.14.68a3.6,3.6,0,0,1-1.36.24,1.84,1.84,0,0,1-2-2,1.94,1.94,0,0,1,1.91-2.1,1.7,1.7,0,0,1,1.68,1.9,1.93,1.93,0,0,1,0,.41Zm1.71-.69a.83.83,0,0,0-.81-.95,1,1,0,0,0-.9.95Z"/><path class="cls-3" d="M485.15,40.93c0-.45,0-.82,0-1.16H486l0,.58h0a1.41,1.41,0,0,1,1.24-.67c.68,0,1.38.44,1.38,1.67v2.31h-1v-2.2c0-.55-.21-1-.74-1a.82.82,0,0,0-.77.58,1.08,1.08,0,0,0,0,.32v2.28h-1Z"/><path class="cls-3" d="M520.13,38.35a7.94,7.94,0,0,1,1.51-.12,2.49,2.49,0,0,1,1.59.44,1.54,1.54,0,0,1,.53,1.2,1.61,1.61,0,0,1-.47,1.22,2.37,2.37,0,0,1-1.7.58,2.27,2.27,0,0,1-.48,0v2h-1Zm1,2.51a2.09,2.09,0,0,0,.48,0c.74,0,1.18-.36,1.18-1s-.41-.92-1.09-.92a3.26,3.26,0,0,0-.57,0Z"/><path class="cls-3" d="M524.61,38.35a8.49,8.49,0,0,1,1.48-.12,2.47,2.47,0,0,1,1.67.44,1.36,1.36,0,0,1,.46,1.08,1.44,1.44,0,0,1-1,1.35v0a1.39,1.39,0,0,1,.76,1,9.79,9.79,0,0,0,.42,1.5h-1a8.57,8.57,0,0,1-.36-1.27c-.15-.7-.4-.92-1-.94h-.5v2.21h-1Zm1,2.38h.59c.66,0,1.07-.35,1.07-.89s-.41-.86-1-.86a2.49,2.49,0,0,0-.61.05Z"/><path class="cls-3" d="M532.17,41.27h-2v1.59h2.27v.8h-3.25V38.27h3.13v.81h-2.15v1.39h2Z"/><path class="cls-3" d="M537.14,43.5a3.38,3.38,0,0,1-1.39.24A2.54,2.54,0,0,1,533,41a2.71,2.71,0,0,1,2.88-2.84,3,3,0,0,1,1.31.24l-.22.78a2.63,2.63,0,0,0-1.05-.21A1.8,1.8,0,0,0,534,41a1.77,1.77,0,0,0,1.88,1.94,2.76,2.76,0,0,0,1.07-.2Z"/><path class="cls-3" d="M541,41.27h-2v1.59h2.28v.8H538V38.27h3.14v.81H539v1.39h2Z"/><path class="cls-3" d="M542.1,43.66V38.27h1.12l1.39,2.32a15.34,15.34,0,0,1,.92,1.8h0c-.07-.72-.09-1.41-.09-2.24V38.27h.91v5.39h-1L544,41.3a20.75,20.75,0,0,1-1-1.87h0c0,.7,0,1.41,0,2.3v1.92Z"/><path class="cls-3" d="M548.54,39.1H547v-.83h4.07v.83h-1.55v4.56h-1Z"/><path class="cls-3" d="M552.79,42.14l-.46,1.52h-1L553,38.27h1.25L556,43.66h-1l-.49-1.52Zm1.54-.75-.42-1.32c-.11-.33-.19-.7-.27-1h0c-.08.31-.16.69-.25,1L553,41.39Z"/><path class="cls-3" d="M561.12,43.42a5.65,5.65,0,0,1-1.74.3,2.89,2.89,0,0,1-2.11-.72,2.67,2.67,0,0,1-.75-2,2.73,2.73,0,0,1,3-2.8,3.41,3.41,0,0,1,1.43.26l-.22.79a2.81,2.81,0,0,0-1.22-.24,1.81,1.81,0,0,0-2,1.94,1.78,1.78,0,0,0,1.87,2,1.93,1.93,0,0,0,.74-.11V41.47h-.95v-.78h1.91Z"/><path class="cls-3" d="M565.14,41.27h-2v1.59h2.27v.8h-3.25V38.27h3.13v.81h-2.15v1.39h2Z"/><path class="cls-3" d="M572.68,40.91a2.54,2.54,0,0,1-2.58,2.84A2.49,2.49,0,0,1,567.62,41a2.58,2.58,0,0,1,2.56-2.82A2.48,2.48,0,0,1,572.68,40.91Zm-4,.08c0,1.1.55,2,1.5,2s1.48-.88,1.48-2-.5-2-1.48-2S568.66,39.88,568.66,41Z"/><path class="cls-3" d="M573.53,38.27h3.11v.81h-2.12v1.49h2v.81h-2v2.28h-1Z"/><path class="cls-3" d="M579.26,38.35a7.55,7.55,0,0,1,1.43-.12,2.54,2.54,0,0,1,1.55.35,1.14,1.14,0,0,1,.55,1,1.24,1.24,0,0,1-.89,1.16v0A1.35,1.35,0,0,1,583,42.1a1.43,1.43,0,0,1-.52,1.12,3.05,3.05,0,0,1-2,.5,10,10,0,0,1-1.21-.07Zm1,2.12h.5c.68,0,1.06-.32,1.06-.77s-.38-.74-1-.74a3,3,0,0,0-.56,0Zm0,2.48a3.36,3.36,0,0,0,.52,0c.63,0,1.19-.24,1.19-.91s-.55-.88-1.23-.88h-.48Z"/><path class="cls-3" d="M585,42.14l-.46,1.52h-1l1.73-5.39h1.25l1.75,5.39h-1.05l-.49-1.52Zm1.54-.75-.42-1.32c-.11-.33-.19-.7-.27-1h0c-.08.31-.16.69-.26,1l-.41,1.32Z"/><path class="cls-3" d="M592.82,43.5a3.38,3.38,0,0,1-1.39.24A2.54,2.54,0,0,1,588.68,41a2.71,2.71,0,0,1,2.88-2.84,3,3,0,0,1,1.31.24l-.22.78a2.63,2.63,0,0,0-1-.21,1.8,1.8,0,0,0-1.89,2,1.77,1.77,0,0,0,1.88,1.94,2.76,2.76,0,0,0,1.07-.2Z"/><path class="cls-3" d="M594.69,39.1h-1.53v-.83h4.07v.83h-1.55v4.56h-1Z"/><path class="cls-3" d="M600.88,41.27h-2v1.59h2.28v.8h-3.26V38.27H601v.81h-2.16v1.39h2Z"/><path class="cls-3" d="M602,38.35a8.61,8.61,0,0,1,1.49-.12,2.46,2.46,0,0,1,1.66.44,1.33,1.33,0,0,1,.46,1.08,1.45,1.45,0,0,1-1,1.35v0a1.38,1.38,0,0,1,.75,1,11.15,11.15,0,0,0,.42,1.5h-1a7.43,7.43,0,0,1-.36-1.27c-.15-.7-.41-.92-1-.94H603v2.21h-1Zm1,2.38h.58c.66,0,1.08-.35,1.08-.89s-.42-.86-1.06-.86a2.34,2.34,0,0,0-.6.05Z"/><path class="cls-3" d="M607.52,38.27v5.39h-1V38.27Z"/><path class="cls-3" d="M609.72,42.14l-.46,1.52h-1L610,38.27h1.26L613,43.66h-1.06l-.48-1.52Zm1.55-.75-.43-1.32c-.1-.33-.19-.7-.27-1h0c-.08.31-.16.69-.26,1l-.42,1.32Z"/><path class="cls-3" d="M616.37,38.27v5.39h-1V38.27Z"/><path class="cls-3" d="M617.5,43.66V38.27h1.12L620,40.59a15.34,15.34,0,0,1,.92,1.8h0c-.07-.72-.09-1.41-.09-2.24V38.27h.91v5.39h-1l-1.4-2.36a16.62,16.62,0,0,1-1-1.87h0c0,.7,0,1.41,0,2.3v1.92Z"/><path class="cls-3" d="M625.64,42.14l-.46,1.52h-1l1.73-5.39h1.26l1.75,5.39h-1.06l-.49-1.52Zm1.55-.75-.43-1.32c-.1-.33-.19-.7-.27-1h0c-.08.31-.16.69-.25,1l-.42,1.32Z"/><path class="cls-3" d="M629.65,38.27h3.11v.81h-2.13v1.49h2v.81h-2v2.28h-1Z"/><path class="cls-3" d="M633.72,38.35a8.61,8.61,0,0,1,1.49-.12,2.44,2.44,0,0,1,1.66.44,1.34,1.34,0,0,1,.47,1.08,1.44,1.44,0,0,1-1,1.35v0a1.35,1.35,0,0,1,.75,1,10.74,10.74,0,0,0,.43,1.5h-1a7.43,7.43,0,0,1-.36-1.27c-.15-.7-.41-.92-1-.94h-.5v2.21h-1Zm1,2.38h.58c.67,0,1.08-.35,1.08-.89S636,39,635.31,39a2.43,2.43,0,0,0-.61.05Z"/><path class="cls-3" d="M639.26,38.27v5.39h-1V38.27Z"/><path class="cls-3" d="M644.25,43.5a3.38,3.38,0,0,1-1.39.24A2.54,2.54,0,0,1,640.11,41,2.71,2.71,0,0,1,643,38.19a3,3,0,0,1,1.31.24l-.22.78A2.63,2.63,0,0,0,643,39a1.8,1.8,0,0,0-1.89,2A1.77,1.77,0,0,0,643,42.93a2.76,2.76,0,0,0,1.07-.2Z"/><path class="cls-3" d="M646.17,42.14l-.46,1.52h-1l1.73-5.39h1.25l1.76,5.39h-1.06l-.49-1.52Zm1.54-.75-.42-1.32c-.1-.33-.19-.7-.27-1h0c-.08.31-.16.69-.25,1l-.42,1.32Z"/><path class="cls-3" d="M650.18,43.66V38.27h1.12l1.39,2.32a15.34,15.34,0,0,1,.92,1.8h0c-.07-.72-.09-1.41-.09-2.24V38.27h.91v5.39h-1L652,41.3a16.62,16.62,0,0,1-1-1.87h0c0,.7,0,1.41,0,2.3v1.92Z"/><path class="cls-3" d="M661.11,43.5a3.48,3.48,0,0,1-1.4.24A2.54,2.54,0,0,1,657,41a2.71,2.71,0,0,1,2.88-2.84,3,3,0,0,1,1.31.24l-.21.78a2.68,2.68,0,0,0-1.06-.21A1.8,1.8,0,0,0,658,41a1.76,1.76,0,0,0,1.87,1.94,2.81,2.81,0,0,0,1.08-.2Z"/><path class="cls-3" d="M662.93,38.27v2.16h2.28V38.27h1v5.39h-1V41.29h-2.28v2.37h-1V38.27Z"/><path class="cls-3" d="M668.31,38.27v5.39h-1V38.27Z"/><path class="cls-3" d="M669.44,38.27h1v4.57h2.21v.82h-3.19Z"/><path class="cls-3" d="M673.38,38.35a9,9,0,0,1,1.57-.12,3.28,3.28,0,0,1,2.2.63,2.39,2.39,0,0,1,.83,2,2.78,2.78,0,0,1-.83,2.14,3.61,3.61,0,0,1-2.44.74,10.81,10.81,0,0,1-1.33-.07Zm1,4.56a3,3,0,0,0,.55,0,1.85,1.85,0,0,0,2-2.07A1.72,1.72,0,0,0,675,39a3.24,3.24,0,0,0-.67.06Z"/><path class="cls-3" d="M678.84,38.35a8.61,8.61,0,0,1,1.49-.12,2.44,2.44,0,0,1,1.66.44,1.34,1.34,0,0,1,.47,1.08,1.44,1.44,0,0,1-1,1.35v0a1.35,1.35,0,0,1,.75,1,9.48,9.48,0,0,0,.43,1.5h-1a7.43,7.43,0,0,1-.36-1.27c-.15-.7-.41-.92-1-.94h-.49v2.21h-1Zm1,2.38h.58c.67,0,1.08-.35,1.08-.89s-.41-.86-1.05-.86a2.38,2.38,0,0,0-.61.05Z"/><path class="cls-3" d="M686.41,41.27h-2v1.59h2.27v.8H683.4V38.27h3.13v.81h-2.15v1.39h2Z"/><path class="cls-3" d="M687.51,43.66V38.27h1.12l1.4,2.32a15.34,15.34,0,0,1,.92,1.8h0c-.06-.72-.09-1.41-.09-2.24V38.27h.91v5.39h-1l-1.41-2.36a20.75,20.75,0,0,1-1-1.87h0c0,.7,0,1.41,0,2.3v1.92Z"/><path class="cls-3" d="M692.9,42.59a2.65,2.65,0,0,0,1.3.35c.63,0,1-.3,1-.74s-.28-.65-1-.89c-.89-.32-1.46-.8-1.46-1.57s.74-1.55,1.9-1.55a2.77,2.77,0,0,1,1.3.27l-.24.79a2.32,2.32,0,0,0-1.07-.26c-.63,0-.9.34-.9.65s.31.61,1,.89c.94.35,1.4.82,1.4,1.6s-.66,1.61-2.05,1.61a3.32,3.32,0,0,1-1.46-.33Z"/><path class="cls-3" d="M703.05,43.42a5.59,5.59,0,0,1-1.74.3A2.89,2.89,0,0,1,699.2,43a2.67,2.67,0,0,1-.75-2,2.74,2.74,0,0,1,3-2.8,3.41,3.41,0,0,1,1.43.26l-.21.79a2.89,2.89,0,0,0-1.23-.24,1.81,1.81,0,0,0-2,1.94,1.78,1.78,0,0,0,1.87,2,2,2,0,0,0,.75-.11V41.47h-1v-.78h1.9Z"/><path class="cls-3" d="M705,38.27v3.15c0,1,.44,1.54,1.11,1.54s1.13-.49,1.13-1.54V38.27h1v3.08c0,1.67-.86,2.4-2.15,2.4s-2.06-.69-2.06-2.39V38.27Z"/><path class="cls-3" d="M710.42,39.1h-1.54v-.83H713v.83H711.4v4.56h-1Z"/><path class="cls-3" d="M713.56,42.59a2.66,2.66,0,0,0,1.31.35c.63,0,1-.3,1-.74s-.27-.65-1-.89c-.89-.32-1.45-.8-1.45-1.57s.73-1.55,1.9-1.55a2.76,2.76,0,0,1,1.29.27l-.24.79a2.29,2.29,0,0,0-1.07-.26c-.62,0-.89.34-.89.65s.31.61,1,.89c.93.35,1.39.82,1.39,1.6s-.66,1.61-2.05,1.61a3.23,3.23,0,0,1-1.45-.33Z"/><path class="cls-3" d="M212,39.92c0,1.1-.64,1.65-1.35,1.65S209.32,41,209.31,40a1.44,1.44,0,0,1,1.37-1.63C211.5,38.38,212,39,212,39.92Zm-1.93.06c0,.6.21,1,.6,1s.59-.42.59-1.05-.16-1-.59-1S210.06,39.39,210.06,40Zm.6,3.77,3-5.37h.56l-3,5.37Zm4.91-1.67c0,1.09-.63,1.65-1.35,1.65a1.38,1.38,0,0,1-1.32-1.57,1.45,1.45,0,0,1,1.36-1.63C215.08,40.53,215.57,41.15,215.57,42.08Zm-1.92.06c0,.59.2,1,.6,1s.58-.42.58-1-.16-1-.58-1S213.65,41.55,213.65,42.14Z"/><path class="cls-3" d="M219,38.27v5.39h-1V38.27Z"/><path class="cls-3" d="M220.1,40.93c0-.45,0-.82,0-1.16h.87l0,.58h0a1.41,1.41,0,0,1,1.24-.67c.68,0,1.38.44,1.38,1.67v2.31h-1v-2.2c0-.55-.21-1-.75-1a.81.81,0,0,0-.76.58.83.83,0,0,0,0,.32v2.28h-1Z"/><path class="cls-3" d="M229.39,41.27h-2v1.59h2.27v.8h-3.25V38.27h3.13v.81h-2.15v1.39h2Z"/><path class="cls-3" d="M233.94,42.5c0,.46,0,.84,0,1.16h-.86l-.05-.59h0a1.42,1.42,0,0,1-1.25.68c-.71,0-1.36-.42-1.36-1.69V39.77h1v2.12c0,.65.21,1.06.73,1.06a.82.82,0,0,0,.75-.53.89.89,0,0,0,.06-.3V39.77h1Z"/><path class="cls-3" d="M235,41c0-.52,0-.9,0-1.25h.85l0,.74h0a1.17,1.17,0,0,1,1.07-.83.85.85,0,0,1,.23,0v.92a2,2,0,0,0-.29,0,.88.88,0,0,0-.88.74,2.72,2.72,0,0,0,0,.31v2h-1Z"/><path class="cls-3" d="M241.56,41.68a1.93,1.93,0,0,1-2,2.07,1.88,1.88,0,0,1-1.95-2,1.92,1.92,0,0,1,2-2.06A1.87,1.87,0,0,1,241.56,41.68Zm-2.94,0c0,.75.37,1.32,1,1.32s.95-.55.95-1.34c0-.6-.27-1.3-.94-1.3S238.62,41.07,238.62,41.72Z"/><path class="cls-3" d="M242.37,41.06c0-.51,0-.92,0-1.29h.87l.05.6h0a1.53,1.53,0,0,1,1.34-.69,1.77,1.77,0,0,1,1.64,2,1.86,1.86,0,0,1-1.78,2.09,1.27,1.27,0,0,1-1.09-.52h0v2h-1Zm1,1a1.12,1.12,0,0,0,0,.27.9.9,0,0,0,.87.69c.62,0,1-.52,1-1.29s-.34-1.24-1-1.24a.91.91,0,0,0-.88.73,1,1,0,0,0,0,.24Z"/><path class="cls-3" d="M247.74,42a1.06,1.06,0,0,0,1.2,1,2.73,2.73,0,0,0,1.08-.18l.15.68a3.6,3.6,0,0,1-1.36.24,1.84,1.84,0,0,1-2-2,1.93,1.93,0,0,1,1.9-2.1,1.69,1.69,0,0,1,1.68,1.9,2.07,2.07,0,0,1,0,.41Zm1.71-.69a.83.83,0,0,0-.8-.95,1,1,0,0,0-.91.95Z"/><path class="cls-3" d="M253.37,43.66l-.07-.43h0a1.43,1.43,0,0,1-1.15.52,1.16,1.16,0,0,1-1.23-1.16c0-1,.87-1.48,2.31-1.47v-.06c0-.26-.1-.68-.79-.68a2,2,0,0,0-1,.29l-.2-.64a2.76,2.76,0,0,1,1.41-.35,1.46,1.46,0,0,1,1.61,1.64v1.41a6.27,6.27,0,0,0,.05.93Zm-.13-1.9c-.7,0-1.36.14-1.36.73a.52.52,0,0,0,.56.56.81.81,0,0,0,.77-.54.82.82,0,0,0,0-.21Z"/><path class="cls-3" d="M255.24,40.93c0-.45,0-.82,0-1.16h.86l.05.58h0a1.41,1.41,0,0,1,1.24-.67c.68,0,1.38.44,1.38,1.67v2.31h-1v-2.2c0-.55-.21-1-.74-1a.82.82,0,0,0-.77.58,1.08,1.08,0,0,0,0,.32v2.28h-1Z"/><path class="cls-3" d="M265.37,43.5a3.38,3.38,0,0,1-1.39.24A2.54,2.54,0,0,1,261.23,41a2.71,2.71,0,0,1,2.88-2.84,3,3,0,0,1,1.31.24l-.21.78a2.68,2.68,0,0,0-1.06-.21,1.79,1.79,0,0,0-1.89,2,1.77,1.77,0,0,0,1.88,2,2.72,2.72,0,0,0,1.07-.2Z"/><path class="cls-3" d="M266.17,38h1v2.32h0a1.25,1.25,0,0,1,.49-.45,1.34,1.34,0,0,1,.67-.18c.66,0,1.36.44,1.36,1.69v2.29h-1V41.48c0-.57-.21-1-.76-1a.8.8,0,0,0-.75.55.71.71,0,0,0,0,.3v2.32h-1Z"/><path class="cls-3" d="M271.8,38.68a.56.56,0,0,1-1.11,0,.56.56,0,0,1,1.11,0Zm-1.05,5V39.77h1v3.89Z"/><path class="cls-3" d="M272.8,38h1v5.67h-1Z"/><path class="cls-3" d="M278.44,38v4.58c0,.4,0,.83,0,1.09h-.88l0-.61h0a1.4,1.4,0,0,1-1.27.7,1.78,1.78,0,0,1-1.66-2,1.85,1.85,0,0,1,1.74-2.08,1.25,1.25,0,0,1,1.09.51h0V38Zm-1,3.4a2.11,2.11,0,0,0,0-.25.86.86,0,0,0-.85-.7c-.63,0-1,.56-1,1.29s.35,1.23,1,1.23a.87.87,0,0,0,.85-.7,1.2,1.2,0,0,0,0-.28Z"/><path class="cls-3" d="M279.5,41c0-.52,0-.9,0-1.25h.86l0,.74h0a1.16,1.16,0,0,1,1.06-.83.88.88,0,0,1,.24,0v.92a2,2,0,0,0-.29,0,.88.88,0,0,0-.88.74,1.48,1.48,0,0,0,0,.31v2h-1Z"/><path class="cls-3" d="M283.05,42c0,.71.57,1,1.2,1a2.71,2.71,0,0,0,1.07-.18l.15.68a3.6,3.6,0,0,1-1.36.24,1.84,1.84,0,0,1-2-2,1.93,1.93,0,0,1,1.9-2.1,1.69,1.69,0,0,1,1.68,1.9,2.07,2.07,0,0,1,0,.41Zm1.71-.69a.85.85,0,0,0-.81-.95,1,1,0,0,0-.9.95Z"/><path class="cls-3" d="M286.48,40.93c0-.45,0-.82,0-1.16h.86l.05.58h0a1.41,1.41,0,0,1,1.24-.67c.68,0,1.38.44,1.38,1.67v2.31h-1v-2.2c0-.55-.21-1-.74-1a.81.81,0,0,0-.77.58,1.08,1.08,0,0,0,0,.32v2.28h-1Z"/><rect class="cls-4" x="2.55" y="2.5" width="293" height="169.5"/><path class="cls-2" d="M385.65,11.58h3.11v.81h-2.13v1.48h2v.81h-2V17h-1Z"/><path class="cls-2" d="M389.68,14.33c0-.53,0-.91,0-1.26h.85l0,.75h0a1.15,1.15,0,0,1,1.06-.84.8.8,0,0,1,.23,0v.93a1.11,1.11,0,0,0-.28,0,.86.86,0,0,0-.88.75,1.36,1.36,0,0,0,0,.3v2h-1Z"/><path class="cls-2" d="M394.72,17l-.06-.43h0a1.45,1.45,0,0,1-1.15.51,1.15,1.15,0,0,1-1.22-1.15c0-1,.87-1.48,2.31-1.48v-.06c0-.26-.11-.68-.79-.68a2,2,0,0,0-1,.29l-.19-.64a2.72,2.72,0,0,1,1.4-.35,1.46,1.46,0,0,1,1.61,1.64V16a6.27,6.27,0,0,0,.06.94Zm-.13-1.91c-.69,0-1.36.14-1.36.73a.51.51,0,0,0,.56.56.8.8,0,0,0,.77-.53,1,1,0,0,0,0-.22Z"/><path class="cls-2" d="M396.59,14.23c0-.45,0-.82,0-1.16h.85l0,.58h0a1.34,1.34,0,0,1,1.2-.67,1.13,1.13,0,0,1,1.08.72h0a1.38,1.38,0,0,1,.48-.48A1.23,1.23,0,0,1,401,13c.65,0,1.3.44,1.3,1.69V17h-1V14.82c0-.65-.22-1-.69-1a.74.74,0,0,0-.69.52,1.75,1.75,0,0,0-.05.33V17h-1V14.71c0-.54-.21-.93-.67-.93a.77.77,0,0,0-.7.56.87.87,0,0,0-.06.32V17h-1Z"/><path class="cls-2" d="M404.07,15.3a1.06,1.06,0,0,0,1.2,1,3,3,0,0,0,1.08-.17l.14.68a3.77,3.77,0,0,1-1.36.24,1.84,1.84,0,0,1-2-2A1.93,1.93,0,0,1,405,13a1.7,1.7,0,0,1,1.68,1.9,3.52,3.52,0,0,1,0,.42Zm1.71-.69a.83.83,0,0,0-.81-.95,1,1,0,0,0-.9.95Z"/><path class="cls-2" d="M409,17v-.6l.61-.57c1.22-1.14,1.8-1.76,1.81-2.45a.82.82,0,0,0-.93-.87,1.87,1.87,0,0,0-1.11.43l-.29-.69a2.54,2.54,0,0,1,1.6-.54,1.54,1.54,0,0,1,1.71,1.58c0,.91-.65,1.64-1.56,2.48l-.45.4h2.13V17Z"/><rect class="cls-4" x="295.5" y="2.5" width="207" height="169.5"/><path class="cls-2" d="M603.9,11.58H607v.81h-2.13v1.48h2v.81h-2V17h-1Z"/><path class="cls-2" d="M607.93,14.33c0-.53,0-.91,0-1.26h.85l0,.75h0a1.15,1.15,0,0,1,1.06-.84.8.8,0,0,1,.23,0v.93a1.11,1.11,0,0,0-.28,0,.86.86,0,0,0-.88.75,1.36,1.36,0,0,0,0,.3v2h-1Z"/><path class="cls-2" d="M613,17l-.06-.43h0a1.45,1.45,0,0,1-1.15.51,1.15,1.15,0,0,1-1.22-1.15c0-1,.87-1.48,2.31-1.48v-.06c0-.26-.11-.68-.79-.68a2,2,0,0,0-1,.29l-.19-.64a2.72,2.72,0,0,1,1.4-.35,1.46,1.46,0,0,1,1.61,1.64V16a6.27,6.27,0,0,0,.06.94Zm-.13-1.91c-.69,0-1.36.14-1.36.73a.51.51,0,0,0,.56.56.8.8,0,0,0,.77-.53,1,1,0,0,0,0-.22Z"/><path class="cls-2" d="M614.84,14.23c0-.45,0-.82,0-1.16h.85l0,.58h0a1.34,1.34,0,0,1,1.2-.67,1.13,1.13,0,0,1,1.08.72h0a1.38,1.38,0,0,1,.48-.48,1.23,1.23,0,0,1,.78-.24c.65,0,1.3.44,1.3,1.69V17h-1V14.82c0-.65-.22-1-.69-1a.74.74,0,0,0-.69.52,1.75,1.75,0,0,0,0,.33V17h-1V14.71c0-.54-.21-.93-.67-.93a.77.77,0,0,0-.7.56.87.87,0,0,0-.06.32V17h-1Z"/><path class="cls-2" d="M622.32,15.3a1.06,1.06,0,0,0,1.2,1,3,3,0,0,0,1.08-.17l.14.68a3.77,3.77,0,0,1-1.36.24,1.84,1.84,0,0,1-2-2,1.93,1.93,0,0,1,1.9-2.1,1.7,1.7,0,0,1,1.68,1.9,3.52,3.52,0,0,1,0,.42Zm1.71-.69a.83.83,0,0,0-.81-.95,1,1,0,0,0-.9.95Z"/><path class="cls-2" d="M627.43,16a2.54,2.54,0,0,0,1.18.32c.75,0,1-.42,1-.83,0-.62-.58-.88-1.18-.88H628v-.72h.43c.46,0,1-.21,1-.73,0-.35-.27-.64-.83-.64a2.15,2.15,0,0,0-1.07.32l-.22-.71a2.76,2.76,0,0,1,1.49-.4c1.07,0,1.63.59,1.63,1.27a1.27,1.27,0,0,1-1,1.22h0a1.32,1.32,0,0,1,1.14,1.3c0,.88-.74,1.57-2,1.57a2.8,2.8,0,0,1-1.46-.36Z"/><rect class="cls-4" x="502.25" y="2.5" width="230" height="169.5"/><path class="cls-5" d="M619.73,104.63,579,91.38a42.22,42.22,0,0,1,40.78-29.62Z"/><path class="cls-6" d="M619.73,104.63l-42.82-2.24a42.55,42.55,0,0,1,2-11Z"/><path class="cls-7" d="M619.73,104.63l-42.09,8.18a39.62,39.62,0,0,1-.73-10.42Z"/><path class="cls-8" d="M619.73,104.63l-38.54,18.8a42.41,42.41,0,0,1-3.55-10.62Z"/><path class="cls-9" d="M619.73,104.63l-7.45,42.23a41.59,41.59,0,0,1-31.09-23.43Z"/><path class="cls-10" d="M619.73,104.63V61.76a42.88,42.88,0,0,1,0,85.75,38,38,0,0,1-7.45-.65Z"/><path class="cls-3" d="M635.51,99.31A8.78,8.78,0,0,1,637,99.2a2.53,2.53,0,0,1,1.54.35,1.12,1.12,0,0,1,.56,1,1.24,1.24,0,0,1-.9,1.17v0a1.35,1.35,0,0,1,1.09,1.33,1.39,1.39,0,0,1-.52,1.11,3,3,0,0,1-2,.51,10.16,10.16,0,0,1-1.21-.07Zm1,2.13h.5c.68,0,1.07-.32,1.07-.77s-.39-.74-1-.74a3,3,0,0,0-.56,0Zm0,2.48a3.79,3.79,0,0,0,.52,0c.63,0,1.19-.24,1.19-.9s-.54-.88-1.22-.88h-.49Z"/><path class="cls-3" d="M641.44,100.32h0l-.95.48-.17-.74,1.26-.63h.82v5.2h-.95Z"/><path class="cls-3" d="M635.39,109.85h-2l-.15,1a2.24,2.24,0,0,1,.38,0,2.33,2.33,0,0,1,1.26.33,1.5,1.5,0,0,1,.68,1.32,1.9,1.9,0,0,1-2.1,1.8,3,3,0,0,1-1.38-.3l.2-.75a2.66,2.66,0,0,0,1.15.27,1,1,0,0,0,1.12-1c0-.59-.44-1-1.48-1a4.83,4.83,0,0,0-.71,0l.35-2.63h2.68Z"/><path class="cls-3" d="M636.58,113.22a2.58,2.58,0,0,0,1.18.32c.75,0,1.06-.43,1-.84,0-.61-.58-.87-1.18-.87h-.45v-.72h.44c.45,0,1-.21,1-.73,0-.35-.26-.65-.83-.65a2.05,2.05,0,0,0-1.07.33l-.22-.71a2.8,2.8,0,0,1,1.5-.4c1.07,0,1.62.59,1.62,1.27a1.26,1.26,0,0,1-1,1.21v0a1.31,1.31,0,0,1,1.14,1.29c0,.88-.73,1.58-2,1.58a2.9,2.9,0,0,1-1.46-.36Z"/><path class="cls-3" d="M643.23,110.49c0,1.09-.64,1.65-1.36,1.65a1.38,1.38,0,0,1-1.32-1.56c0-1,.57-1.63,1.36-1.63S643.23,109.55,643.23,110.49Zm-1.93.06c0,.6.21,1,.6,1s.58-.41.58-1-.16-1-.58-1S641.3,110,641.3,110.55Zm.59,3.77,3-5.37h.56l-3,5.37Zm4.92-1.67c0,1.09-.63,1.65-1.35,1.65a1.38,1.38,0,0,1-1.32-1.57,1.44,1.44,0,0,1,1.36-1.63C646.32,111.1,646.81,111.71,646.81,112.65Zm-1.93,0c0,.6.21,1,.6,1s.58-.41.58-1-.16-1-.58-1S644.88,112.12,644.88,112.7Z"/><path class="cls-3" d="M601.78,77.81h3.11v.8h-2.12V80.1h2v.81h-2v2.28h-1Z"/><path class="cls-3" d="M607.8,83.19V81.88h-2.35v-.64L607.57,78h1.16v3.13h.67v.75h-.67v1.31Zm0-2.06V79.72c0-.3,0-.6,0-.91h0c-.16.33-.3.59-.46.88l-1,1.43h1.41Z"/><path class="cls-3" d="M599.63,88.48h0l-1,.48-.17-.74,1.26-.62h.83v5.19h-1Z"/><path class="cls-3" d="M605.68,88.41h-2l-.15,1,.38,0a2.33,2.33,0,0,1,1.26.33,1.5,1.5,0,0,1,.68,1.32,1.9,1.9,0,0,1-2.1,1.8,3,3,0,0,1-1.38-.3l.2-.75a2.46,2.46,0,0,0,1.14.28,1,1,0,0,0,1.13-1c0-.6-.44-1-1.48-1a4.73,4.73,0,0,0-.71,0L603,87.6h2.68Z"/><path class="cls-3" d="M609.23,89.05c0,1.1-.64,1.65-1.36,1.65a1.38,1.38,0,0,1-1.32-1.56,1.44,1.44,0,0,1,1.36-1.63C608.74,87.51,609.23,88.12,609.23,89.05Zm-1.93.06c0,.6.21,1,.6,1s.58-.42.58-1.05-.16-1-.58-1S607.3,88.52,607.3,89.11Zm.59,3.77,3-5.37h.56l-3,5.37Zm4.92-1.67c0,1.09-.63,1.65-1.35,1.65a1.38,1.38,0,0,1-1.32-1.57,1.45,1.45,0,0,1,1.36-1.63C612.32,89.66,612.81,90.28,612.81,91.21Zm-1.93.06c0,.59.21,1,.6,1s.58-.42.58-1-.16-1-.58-1S610.88,90.68,610.88,91.27Z"/><path class="cls-3" d="M600.26,118.11a8.78,8.78,0,0,1,1.44-.11,2.61,2.61,0,0,1,1.54.34,1.13,1.13,0,0,1,.56,1,1.26,1.26,0,0,1-.9,1.17h0a1.36,1.36,0,0,1,1.09,1.34,1.41,1.41,0,0,1-.52,1.11,3,3,0,0,1-2,.5,10.16,10.16,0,0,1-1.21-.07Zm1,2.13h.5c.68,0,1.07-.32,1.07-.78s-.39-.73-1-.73a2.28,2.28,0,0,0-.56,0Zm0,2.48.52,0c.63,0,1.19-.24,1.19-.9s-.54-.88-1.22-.88h-.49Z"/><path class="cls-3" d="M604.65,123.43v-.6l.61-.57c1.23-1.14,1.8-1.76,1.81-2.45a.82.82,0,0,0-.93-.87,1.92,1.92,0,0,0-1.11.43l-.28-.69a2.51,2.51,0,0,1,1.59-.54,1.55,1.55,0,0,1,1.72,1.58c0,.91-.66,1.64-1.56,2.48l-.46.4h2.14v.82Z"/><path class="cls-3" d="M596.84,133v-.6l.62-.57c1.22-1.14,1.8-1.76,1.8-2.45a.81.81,0,0,0-.92-.87,1.92,1.92,0,0,0-1.12.43l-.28-.69a2.52,2.52,0,0,1,1.6-.54,1.54,1.54,0,0,1,1.71,1.58c0,.91-.66,1.64-1.56,2.48l-.46.4h2.14V133Z"/><path class="cls-3" d="M604.8,130.4c0,1.67-.66,2.72-1.9,2.72s-1.83-1.09-1.84-2.68.69-2.7,1.9-2.7S604.8,128.86,604.8,130.4Zm-2.75,0c0,1.27.34,1.92.89,1.92s.88-.7.88-2-.29-1.92-.88-1.92S602,129.14,602.05,130.44Z"/><path class="cls-3" d="M608,129.29c0,1.09-.64,1.64-1.36,1.64a1.38,1.38,0,0,1-1.32-1.56,1.44,1.44,0,0,1,1.36-1.63C607.49,127.74,608,128.35,608,129.29Zm-1.93.05c0,.6.21,1,.6,1s.58-.42.58-1-.16-1-.58-1S606.05,128.76,606.05,129.34Zm.59,3.78,3-5.38h.56l-3,5.38Zm4.92-1.68c0,1.09-.63,1.65-1.35,1.65a1.38,1.38,0,0,1-1.32-1.57,1.45,1.45,0,0,1,1.36-1.63C611.07,129.89,611.56,130.51,611.56,131.44Zm-1.93.06c0,.59.21,1,.6,1s.58-.42.58-1-.16-1-.58-1S609.63,130.92,609.63,131.5Z"/><path class="cls-6" d="M566.12,80.47h3.11v.81H567.1v1.49h2v.8h-2v2.29h-1Z"/><path class="cls-6" d="M570.17,84.85a2.5,2.5,0,0,0,1.18.32c.75,0,1-.43,1-.84,0-.61-.58-.88-1.18-.88h-.46v-.72h.44c.46,0,1-.2,1-.72,0-.35-.27-.65-.84-.65a2,2,0,0,0-1.06.33l-.22-.71a2.76,2.76,0,0,1,1.49-.4c1.07,0,1.63.59,1.63,1.27a1.26,1.26,0,0,1-1,1.21v0a1.31,1.31,0,0,1,1.14,1.29c0,.88-.74,1.58-2,1.58a2.87,2.87,0,0,1-1.46-.36Z"/><path class="cls-6" d="M566.74,95.46V94.14h-2.36V93.5l2.12-3.24h1.16V93.4h.67v.74h-.67v1.32Zm0-2.06V92c0-.29,0-.6,0-.9h0c-.16.33-.3.59-.46.88l-.95,1.42v0Z"/><path class="cls-6" d="M571.42,91.72c0,1.09-.64,1.65-1.36,1.65a1.38,1.38,0,0,1-1.32-1.56c0-1,.56-1.63,1.36-1.63S571.42,90.78,571.42,91.72Zm-1.93,0c0,.6.21,1,.6,1s.58-.41.58-1-.16-1-.58-1S569.49,91.19,569.49,91.77Zm.59,3.78,3-5.37h.56l-3,5.37ZM575,93.88c0,1.09-.63,1.64-1.35,1.64A1.37,1.37,0,0,1,572.33,94c0-1,.56-1.63,1.36-1.63S575,92.94,575,93.88Zm-1.93.05c0,.6.21,1,.6,1s.58-.41.58-1-.16-1-.58-1S573.07,93.35,573.07,93.93Z"/><path class="cls-7" d="M561.12,100h3.11v.81H562.1v1.48h2v.81h-2v2.29h-1Z"/><path class="cls-7" d="M565,105.39v-.6l.62-.57c1.22-1.14,1.8-1.76,1.81-2.45a.82.82,0,0,0-.93-.87,1.87,1.87,0,0,0-1.11.43l-.29-.69a2.54,2.54,0,0,1,1.6-.54,1.54,1.54,0,0,1,1.71,1.58c0,.91-.65,1.64-1.56,2.48l-.45.4h2.13v.82Z"/><path class="cls-7" d="M561.74,115v-1.32h-2.36V113l2.12-3.24h1.16v3.13h.67v.75h-.67V115Zm0-2.07v-1.41c0-.3,0-.6,0-.9h0c-.16.32-.3.59-.46.88l-.95,1.42h1.41Z"/><path class="cls-7" d="M566.42,111.25c0,1.09-.64,1.64-1.36,1.64a1.38,1.38,0,0,1-1.32-1.56c0-1,.56-1.63,1.36-1.63S566.42,110.31,566.42,111.25Zm-1.93,0c0,.6.21,1,.6,1s.58-.41.58-1-.16-1-.58-1S564.49,110.72,564.49,111.3Zm.59,3.78,3-5.38h.56l-3,5.38Zm4.92-1.67c0,1.08-.63,1.64-1.35,1.64a1.38,1.38,0,0,1-1.32-1.57,1.44,1.44,0,0,1,1.36-1.63C569.51,111.85,570,112.47,570,113.41Zm-1.93,0c0,.59.21,1,.6,1s.58-.42.58-1-.16-1-.58-1S568.07,112.88,568.07,113.46Z"/><path class="cls-8" d="M567,118.42h3.11v.81h-2.13v1.49h2v.81h-2v2.28h-1Z"/><path class="cls-8" d="M572.34,119.5h0l-1,.48-.17-.74,1.26-.62h.82v5.19h-.95Z"/><path class="cls-8" d="M567.57,133.41v-1.32h-2.35v-.64l2.12-3.23h1.16v3.13h.67v.74h-.67v1.32Zm0-2.06v-1.42c0-.29,0-.6,0-.9h0c-.16.33-.3.59-.46.88l-1,1.42v0Z"/><path class="cls-8" d="M572.25,129.67c0,1.1-.64,1.65-1.35,1.65s-1.32-.56-1.33-1.56a1.44,1.44,0,0,1,1.37-1.63C571.76,128.13,572.25,128.74,572.25,129.67Zm-1.93.06c0,.6.21,1,.6,1s.59-.42.59-1.05-.16-1-.59-1S570.32,129.14,570.32,129.73Zm.59,3.77,3-5.37h.56l-3,5.37Zm4.92-1.67c0,1.09-.63,1.65-1.35,1.65a1.38,1.38,0,0,1-1.32-1.57,1.44,1.44,0,0,1,1.36-1.63C575.34,130.28,575.83,130.89,575.83,131.83Zm-1.93.06c0,.59.21,1,.6,1s.59-.41.59-1-.16-1-.59-1S573.9,131.3,573.9,131.89Z"/></svg>