<svg id="Layer_1" data-name="Layer 1" xmlns="http://www.w3.org/2000/svg" viewBox="0 0 429.02 141"><defs><style>.cls-1{fill:#231f20;}.cls-2{fill:#70ad47;}.cls-3{fill:#4472c4;}.cls-4{fill:#ffc000;}.cls-5{fill:#a5a5a5;}.cls-6{fill:#ed7d31;}.cls-7{fill:#5b9bd5;}</style></defs><title>Slide_9</title><path class="cls-1" d="M54.3,26.13A7.26,7.26,0,0,1,55.58,26a2.21,2.21,0,0,1,1.47.39,1.14,1.14,0,0,1,.45,1,1.27,1.27,0,0,1-.91,1.18v0a1.38,1.38,0,0,1,1.11,1.35A1.47,1.47,0,0,1,57.25,31a2.76,2.76,0,0,1-1.87.5,8.78,8.78,0,0,1-1.08-.06Zm.7,2.21h.63c.74,0,1.17-.38,1.17-.9s-.48-.88-1.18-.88a2.6,2.6,0,0,0-.62.05Zm0,2.58a3,3,0,0,0,.58,0c.72,0,1.39-.27,1.39-1.05s-.64-1-1.39-1H55Z"/><path class="cls-1" d="M59.92,26.91h0l-.9.49-.14-.54L60,26.25h.6v5.2h-.68Z"/><path class="cls-1" d="M54.3,39.13A7.26,7.26,0,0,1,55.58,39a2.21,2.21,0,0,1,1.47.39,1.14,1.14,0,0,1,.45,1,1.27,1.27,0,0,1-.91,1.18v0a1.38,1.38,0,0,1,1.11,1.35A1.47,1.47,0,0,1,57.25,44a2.76,2.76,0,0,1-1.87.5,8.78,8.78,0,0,1-1.08-.06Zm.7,2.21h.63c.74,0,1.17-.38,1.17-.9s-.48-.88-1.18-.88a2.6,2.6,0,0,0-.62,0Zm0,2.58a3,3,0,0,0,.58,0c.72,0,1.39-.27,1.39-1.05s-.64-1-1.39-1H55Z"/><path class="cls-1" d="M58.39,44.45V44l.55-.54c1.33-1.26,1.93-1.93,1.94-2.71a.93.93,0,0,0-1-1,1.79,1.79,0,0,0-1.11.44l-.22-.5A2.29,2.29,0,0,1,60,39.17a1.46,1.46,0,0,1,1.59,1.51c0,1-.69,1.73-1.79,2.79l-.41.38v0h2.33v.58Z"/><path class="cls-1" d="M54.3,52.06h2.91v.59H55v1.79h2V55H55v2.44h-.7Z"/><path class="cls-1" d="M59.48,52.91h0l-.9.49-.14-.54,1.14-.61h.6v5.2h-.68Z"/><path class="cls-1" d="M54.3,65.06h2.91v.59H55v1.79h2V68H55v2.44h-.7Z"/><path class="cls-1" d="M58,70.45V70l.55-.54c1.33-1.26,1.93-1.93,1.94-2.71a.93.93,0,0,0-1-1,1.79,1.79,0,0,0-1.11.44l-.22-.5a2.29,2.29,0,0,1,1.47-.52,1.46,1.46,0,0,1,1.59,1.51c0,1-.69,1.73-1.79,2.79l-.41.38v0h2.33v.58Z"/><path class="cls-1" d="M54.3,78.06h2.91v.59H55v1.79h2V81H55v2.44h-.7Z"/><path class="cls-1" d="M58.12,82.64a2.31,2.31,0,0,0,1.15.33c.91,0,1.19-.57,1.18-1,0-.72-.67-1-1.35-1h-.39V80.4h.39c.52,0,1.16-.27,1.16-.88,0-.42-.26-.79-.91-.79a2,2,0,0,0-1,.35l-.18-.51a2.47,2.47,0,0,1,1.36-.4c1,0,1.48.6,1.48,1.24A1.28,1.28,0,0,1,60,80.63h0A1.35,1.35,0,0,1,61.17,82c0,.83-.64,1.56-1.89,1.56a2.61,2.61,0,0,1-1.35-.35Z"/><path class="cls-1" d="M54.3,91.06h2.91v.59H55v1.79h2V94H55v2.44h-.7Z"/><path class="cls-1" d="M60.13,96.45V95H57.71v-.47L60,91.25h.76v3.23h.73V95h-.73v1.41Zm0-2V92.75c0-.27,0-.54,0-.82h0c-.16.31-.29.53-.43.77l-1.28,1.77h1.71Z"/><path class="cls-1" d="M54.3,104.06h2.91v.59H55v1.79h2V107H55v2.44h-.7Z"/><path class="cls-1" d="M61.05,104.85h-2l-.2,1.33a3.91,3.91,0,0,1,.43,0,2.22,2.22,0,0,1,1.12.28,1.49,1.49,0,0,1,.74,1.33,1.81,1.81,0,0,1-1.94,1.78,2.55,2.55,0,0,1-1.29-.32l.17-.54a2.33,2.33,0,0,0,1.12.29,1.15,1.15,0,0,0,1.23-1.13c0-.67-.46-1.15-1.5-1.15a4.52,4.52,0,0,0-.72.06l.34-2.5h2.48Z"/><path class="cls-1" d="M54.3,117.06h2.91v.59H55v1.79h2V120H55v2.44h-.7Z"/><path class="cls-1" d="M60.92,117.75a2.56,2.56,0,0,0-.53,0,2.12,2.12,0,0,0-1.81,1.85h0a1.58,1.58,0,0,1,2.82,1.08,1.74,1.74,0,0,1-1.73,1.83c-1.11,0-1.84-.86-1.84-2.22a3.27,3.27,0,0,1,.88-2.34,2.89,2.89,0,0,1,1.67-.77,3.64,3.64,0,0,1,.51,0Zm-.2,3a1.05,1.05,0,0,0-1.07-1.19,1.14,1.14,0,0,0-1,.64.57.57,0,0,0-.08.31c0,.85.41,1.49,1.14,1.49S60.72,121.49,60.72,120.75Z"/><path class="cls-1" d="M54.3,130.06h2.91v.59H55v1.79h2V133H55v2.44h-.7Z"/><path class="cls-1" d="M61.33,130.25v.47l-2.27,4.73h-.72l2.25-4.6H58.05v-.59Z"/><path class="cls-1" d="M158.19,26.85h-2l-.2,1.33a3.89,3.89,0,0,1,.42,0,2.22,2.22,0,0,1,1.12.28,1.48,1.48,0,0,1,.75,1.33,1.81,1.81,0,0,1-1.94,1.78,2.49,2.49,0,0,1-1.29-.32l.17-.54a2.32,2.32,0,0,0,1.11.29,1.14,1.14,0,0,0,1.23-1.13c0-.67-.45-1.15-1.49-1.15a5.92,5.92,0,0,0-.72.06l.34-2.5h2.48Z"/><path class="cls-1" d="M159.36,30.64a2.35,2.35,0,0,0,1.15.33c.91,0,1.19-.57,1.18-1,0-.72-.67-1-1.35-1H160V28.4h.39c.52,0,1.16-.27,1.16-.88,0-.42-.26-.79-.91-.79a2,2,0,0,0-1,.35l-.18-.51a2.47,2.47,0,0,1,1.36-.4c1,0,1.49.6,1.49,1.24a1.29,1.29,0,0,1-1,1.22v0A1.34,1.34,0,0,1,162.42,30c0,.83-.65,1.56-1.9,1.56a2.64,2.64,0,0,1-1.35-.35Z"/><path class="cls-1" d="M155.09,44.45V44l.55-.54c1.33-1.26,1.93-1.93,1.94-2.71a.93.93,0,0,0-1-1,1.77,1.77,0,0,0-1.11.44l-.22-.5a2.29,2.29,0,0,1,1.47-.52,1.46,1.46,0,0,1,1.59,1.51c0,1-.7,1.73-1.79,2.79l-.42.38v0h2.34v.58Z"/><path class="cls-1" d="M162.65,41.8c0,1.76-.66,2.74-1.81,2.74s-1.7-.95-1.72-2.67.75-2.7,1.81-2.7S162.65,40.14,162.65,41.8Zm-2.82.08c0,1.35.41,2.12,1,2.12s1.06-.84,1.06-2.17-.32-2.12-1.05-2.12S159.83,40.46,159.83,41.88Z"/><path class="cls-1" d="M159.32,57.45V56H156.9v-.47l2.32-3.32H160v3.23h.73V56H160v1.41Zm0-2V53.75c0-.27,0-.54,0-.82h0c-.16.31-.29.53-.44.77l-1.27,1.77h1.71Z"/><path class="cls-1" d="M159.32,70.45V69H156.9v-.47l2.32-3.32H160v3.23h.73V69H160v1.41Zm0-2V66.75c0-.27,0-.54,0-.82h0c-.16.31-.29.53-.44.77l-1.27,1.77h1.71Z"/><path class="cls-1" d="M159.32,83.45V82H156.9v-.47l2.32-3.32H160v3.23h.73V82H160v1.41Zm0-2V79.75c0-.27,0-.54,0-.82h0c-.16.31-.29.53-.44.77l-1.27,1.77h1.71Z"/><path class="cls-1" d="M156.62,91.91h0l-.9.49-.14-.54,1.14-.61h.6v5.2h-.68Z"/><path class="cls-1" d="M162.3,91.85h-2l-.2,1.33a3.91,3.91,0,0,1,.43,0,2.22,2.22,0,0,1,1.12.28,1.49,1.49,0,0,1,.74,1.33,1.81,1.81,0,0,1-1.94,1.78,2.55,2.55,0,0,1-1.29-.32l.18-.54a2.28,2.28,0,0,0,1.11.29,1.15,1.15,0,0,0,1.23-1.13c0-.67-.46-1.15-1.5-1.15a4.63,4.63,0,0,0-.72.06l.34-2.5h2.49Z"/><path class="cls-1" d="M160.6,106.8c0,1.76-.66,2.74-1.81,2.74s-1.7-1-1.72-2.67.75-2.7,1.81-2.7S160.6,105.14,160.6,106.8Zm-2.83.08c0,1.35.42,2.12,1.06,2.12s1.06-.84,1.06-2.17-.33-2.12-1-2.12S157.77,105.46,157.77,106.88Z"/><path class="cls-1" d="M160.6,119.8c0,1.76-.66,2.74-1.81,2.74s-1.7-1-1.72-2.67.75-2.7,1.81-2.7S160.6,118.14,160.6,119.8Zm-2.83.08c0,1.35.42,2.12,1.06,2.12s1.06-.84,1.06-2.17-.33-2.12-1-2.12S157.77,118.46,157.77,119.88Z"/><path class="cls-1" d="M160.6,132.8c0,1.76-.66,2.74-1.81,2.74s-1.7-.95-1.72-2.67.75-2.7,1.81-2.7S160.6,131.14,160.6,132.8Zm-2.83.08c0,1.35.42,2.12,1.06,2.12s1.06-.84,1.06-2.17-.33-2.12-1-2.12S157.77,131.46,157.77,132.88Z"/><path class="cls-1" d="M13.85,11.1H12.31v-.83h4.07v.83H14.83v4.56h-1Z"/><path class="cls-1" d="M17.59,11.77l.71,2.09c.08.24.16.53.21.76h0c.06-.23.13-.52.2-.77l.61-2.08h1.06l-1,2.65a5.72,5.72,0,0,1-1.36,2.51,2,2,0,0,1-1,.5l-.22-.83a1.71,1.71,0,0,0,.57-.27,1.67,1.67,0,0,0,.54-.62.38.38,0,0,0,.06-.17.55.55,0,0,0,0-.2l-1.43-3.57Z"/><path class="cls-1" d="M21,13.06c0-.51,0-.92,0-1.29h.86l.05.6h0a1.53,1.53,0,0,1,1.34-.69,1.77,1.77,0,0,1,1.64,2,1.86,1.86,0,0,1-1.78,2.09A1.27,1.27,0,0,1,22,15.23h0v2H21Zm1,1a1.12,1.12,0,0,0,0,.27.9.9,0,0,0,.87.69c.62,0,1-.52,1-1.29s-.34-1.24-1-1.24a.91.91,0,0,0-.88.73,1,1,0,0,0,0,.24Z"/><path class="cls-1" d="M26.35,14a1.06,1.06,0,0,0,1.2,1,2.73,2.73,0,0,0,1.08-.18l.15.68a3.6,3.6,0,0,1-1.36.24,1.84,1.84,0,0,1-2-2,1.93,1.93,0,0,1,1.9-2.1A1.69,1.69,0,0,1,29,13.58,2.07,2.07,0,0,1,29,14Zm1.71-.69a.83.83,0,0,0-.8-1,1,1,0,0,0-.91,1Z"/><path class="cls-1" d="M35.14,13.68a1.93,1.93,0,0,1-2,2.07,1.88,1.88,0,0,1-1.95-2,1.93,1.93,0,0,1,2-2.06A1.87,1.87,0,0,1,35.14,13.68Zm-2.93,0c0,.75.37,1.32,1,1.32s1-.55,1-1.34c0-.6-.27-1.3-1-1.3S32.21,13.07,32.21,13.72Z"/><path class="cls-1" d="M36.06,15.66V12.51h-.52v-.74h.52V11.6a1.82,1.82,0,0,1,.48-1.33,1.47,1.47,0,0,1,1-.37,2.06,2.06,0,0,1,.63.09l-.07.76a1.12,1.12,0,0,0-.41-.07c-.49,0-.66.41-.66.89v.2h.86v.74h-.85v3.15Z"/><path class="cls-1" d="M40.2,10.35a7.55,7.55,0,0,1,1.43-.12,2.54,2.54,0,0,1,1.55.35,1.14,1.14,0,0,1,.55,1,1.24,1.24,0,0,1-.89,1.16v0a1.35,1.35,0,0,1,1.09,1.33,1.43,1.43,0,0,1-.52,1.12,3.05,3.05,0,0,1-2,.5,10,10,0,0,1-1.21-.07Zm1,2.12h.5c.68,0,1.06-.32,1.06-.77s-.38-.74-1-.74a3,3,0,0,0-.56,0Zm0,2.48a3.36,3.36,0,0,0,.52,0c.63,0,1.19-.24,1.19-.91s-.55-.88-1.23-.88h-.48Z"/><path class="cls-1" d="M47,15.66l-.06-.43h0a1.43,1.43,0,0,1-1.15.52,1.16,1.16,0,0,1-1.22-1.16c0-1,.87-1.48,2.31-1.47v-.06c0-.26-.11-.68-.79-.68a2,2,0,0,0-1.05.29L44.78,12a2.72,2.72,0,0,1,1.4-.35,1.46,1.46,0,0,1,1.61,1.64v1.41a6.12,6.12,0,0,0,.06.93Zm-.13-1.9c-.69,0-1.36.14-1.36.73a.52.52,0,0,0,.56.56.81.81,0,0,0,.77-.54.82.82,0,0,0,0-.21Z"/><path class="cls-1" d="M51.7,15.54a2.81,2.81,0,0,1-1.11.2,1.86,1.86,0,0,1-2-2,2,2,0,0,1,2.16-2.08,2.32,2.32,0,0,1,1,.19l-.17.73a1.77,1.77,0,0,0-.75-.15,1.16,1.16,0,0,0-1.19,1.26A1.16,1.16,0,0,0,50.78,15a1.92,1.92,0,0,0,.78-.15Z"/><path class="cls-1" d="M53.55,10.66v1.11h.94v.74h-.94v1.71c0,.48.13.72.51.72a1.76,1.76,0,0,0,.38,0l0,.75a2.43,2.43,0,0,1-.72.09,1.11,1.11,0,0,1-.84-.32,1.52,1.52,0,0,1-.31-1.08V12.51H52v-.74h.56v-.88Z"/><path class="cls-1" d="M55.93,14c0,.71.57,1,1.2,1a2.8,2.8,0,0,0,1.08-.18l.14.68a3.57,3.57,0,0,1-1.36.24,1.84,1.84,0,0,1-2-2,1.94,1.94,0,0,1,1.91-2.1,1.7,1.7,0,0,1,1.68,1.9,1.93,1.93,0,0,1,0,.41Zm1.71-.69a.83.83,0,0,0-.81-1,1,1,0,0,0-.9,1Z"/><path class="cls-1" d="M59.36,13c0-.52,0-.9,0-1.25h.85l0,.74h0a1.16,1.16,0,0,1,1.06-.83.8.8,0,0,1,.23,0v.92a1.84,1.84,0,0,0-.28,0,.86.86,0,0,0-.88.74,1.46,1.46,0,0,0,0,.31v2h-1Z"/><path class="cls-1" d="M63.26,10.68a.56.56,0,1,1-.56-.53A.53.53,0,0,1,63.26,10.68Zm-1,5V11.77h1v3.89Z"/><path class="cls-1" d="M66.45,15.66l-.07-.43h0a1.43,1.43,0,0,1-1.15.52A1.16,1.16,0,0,1,64,14.59c0-1,.88-1.48,2.32-1.47v-.06c0-.26-.11-.68-.8-.68a2,2,0,0,0-1,.29L64.27,12a2.72,2.72,0,0,1,1.4-.35,1.46,1.46,0,0,1,1.61,1.64v1.41a6.12,6.12,0,0,0,.06.93Zm-.13-1.9c-.7,0-1.36.14-1.36.73a.52.52,0,0,0,.56.56.81.81,0,0,0,.77-.54.82.82,0,0,0,0-.21Z"/><path class="cls-1" d="M71,10.68a.55.55,0,1,1-.55-.53A.52.52,0,0,1,71,10.68Zm-1,5V11.77h1v3.89Z"/><path class="cls-1" d="M72,12.93c0-.45,0-.82,0-1.16h.87l0,.58h0a1.41,1.41,0,0,1,1.24-.67c.68,0,1.38.44,1.38,1.67v2.31h-1v-2.2c0-.55-.21-1-.75-1a.81.81,0,0,0-.76.58.83.83,0,0,0,0,.32v2.28H72Z"/><path class="cls-1" d="M79.38,10.66v1.11h.94v.74h-.94v1.71c0,.48.13.72.51.72a1.76,1.76,0,0,0,.38,0l0,.75a2.43,2.43,0,0,1-.72.09,1.11,1.11,0,0,1-.84-.32,1.52,1.52,0,0,1-.31-1.08V12.51h-.56v-.74h.56v-.88Z"/><path class="cls-1" d="M81.06,10h1v2.32h0a1.25,1.25,0,0,1,.49-.45,1.34,1.34,0,0,1,.67-.18c.66,0,1.36.44,1.36,1.69v2.29h-1V13.48c0-.57-.21-1-.76-1a.82.82,0,0,0-.76.55.91.91,0,0,0,0,.3v2.32h-1Z"/><path class="cls-1" d="M86.33,14a1.06,1.06,0,0,0,1.2,1,2.73,2.73,0,0,0,1.08-.18l.15.68a3.6,3.6,0,0,1-1.36.24,1.84,1.84,0,0,1-2-2,1.93,1.93,0,0,1,1.9-2.1A1.69,1.69,0,0,1,89,13.58a2.07,2.07,0,0,1,0,.41Zm1.72-.69a.85.85,0,0,0-.81-1,1,1,0,0,0-.91,1Z"/><path class="cls-1" d="M95.78,15.42a5.52,5.52,0,0,1-1.73.3A2.92,2.92,0,0,1,91.93,15a2.75,2.75,0,0,1-.75-2,2.74,2.74,0,0,1,3-2.8,3.53,3.53,0,0,1,1.43.25l-.21.8A2.89,2.89,0,0,0,94.17,11a1.81,1.81,0,0,0-2,1.94,1.79,1.79,0,0,0,1.88,1.95,2,2,0,0,0,.74-.11V13.46h-1v-.77h1.9Z"/><path class="cls-1" d="M100.24,14.5c0,.46,0,.84,0,1.16h-.86l0-.59h0a1.41,1.41,0,0,1-1.25.68c-.71,0-1.35-.42-1.35-1.69V11.77h1v2.12c0,.65.21,1.06.73,1.06a.83.83,0,0,0,.75-.53.9.9,0,0,0,0-.3V11.77h1Z"/><path class="cls-1" d="M102.43,10.66v1.11h.94v.74h-.94v1.71c0,.48.13.72.5.72a1.79,1.79,0,0,0,.39,0v.75a2.35,2.35,0,0,1-.71.09,1.15,1.15,0,0,1-.85-.32,1.57,1.57,0,0,1-.3-1.08V12.51h-.56v-.74h.56v-.88Z"/><path class="cls-1" d="M125.37,11.92c0,1.1-.64,1.65-1.35,1.65S122.7,13,122.69,12a1.44,1.44,0,0,1,1.37-1.63C124.89,10.38,125.37,11,125.37,11.92Zm-1.92.06c0,.6.2,1,.6,1s.58-.42.58-1-.16-1-.58-1S123.45,11.39,123.45,12Zm.59,3.77,3-5.37h.56l-3,5.37ZM129,14.08c0,1.09-.64,1.65-1.36,1.65a1.38,1.38,0,0,1-1.32-1.57,1.45,1.45,0,0,1,1.36-1.63C128.47,12.53,129,13.15,129,14.08Zm-1.93.06c0,.59.21,1,.6,1s.58-.42.58-1-.16-1-.58-1S127,13.55,127,14.14Z"/><path class="cls-1" d="M132.4,10.27v5.39h-1V10.27Z"/><path class="cls-1" d="M133.49,12.93c0-.45,0-.82,0-1.16h.86l.05.58h0a1.41,1.41,0,0,1,1.24-.67c.68,0,1.38.44,1.38,1.67v2.31h-1V13.47c0-.56-.21-1-.74-1a.81.81,0,0,0-.77.58,1.08,1.08,0,0,0,0,.32v2.28h-1Z"/><path class="cls-1" d="M140.84,14.14l-.47,1.52h-1l1.72-5.39h1.26l1.75,5.39H143l-.49-1.52Zm1.54-.75L142,12.07c-.11-.33-.2-.7-.27-1h0c-.08.31-.16.69-.26,1L141,13.39Z"/><path class="cls-1" d="M144.92,15.66V12.51h-.53v-.74h.53V11.6a1.81,1.81,0,0,1,.47-1.33,1.5,1.5,0,0,1,1-.37,1.8,1.8,0,0,1,.63.1l-.08.75a1.12,1.12,0,0,0-.41-.07c-.49,0-.66.41-.66.89v.2h.86v.74h-.85v3.15Z"/><path class="cls-1" d="M147.36,13c0-.53,0-.91,0-1.26h.85l0,.74h0a1.15,1.15,0,0,1,1.06-.83.85.85,0,0,1,.23,0v.92a2,2,0,0,0-.29,0,.88.88,0,0,0-.88.75,2.33,2.33,0,0,0,0,.3v2h-1Z"/><path class="cls-1" d="M151.25,10.68a.55.55,0,1,1-.55-.53A.52.52,0,0,1,151.25,10.68Zm-1,5V11.77h1v3.89Z"/><path class="cls-1" d="M155.12,15.54a2.81,2.81,0,0,1-1.11.2,1.86,1.86,0,0,1-2-2,2,2,0,0,1,2.16-2.08,2.32,2.32,0,0,1,1,.19l-.17.73a1.77,1.77,0,0,0-.75-.15A1.16,1.16,0,0,0,153,13.71,1.16,1.16,0,0,0,154.2,15a1.92,1.92,0,0,0,.78-.15Z"/><path class="cls-1" d="M158,15.66l-.07-.43h0a1.43,1.43,0,0,1-1.15.52,1.16,1.16,0,0,1-1.23-1.16c0-1,.88-1.48,2.31-1.47v-.06c0-.26-.1-.68-.79-.68a2,2,0,0,0-1,.29l-.2-.64a2.79,2.79,0,0,1,1.41-.35,1.46,1.46,0,0,1,1.61,1.64v1.41a6.27,6.27,0,0,0,0,.93Zm-.13-1.9c-.7,0-1.36.14-1.36.73a.52.52,0,0,0,.56.56.81.81,0,0,0,.77-.54.82.82,0,0,0,0-.21Z"/><path class="cls-1" d="M159.91,12.93c0-.45,0-.82,0-1.16h.86l0,.58h0a1.41,1.41,0,0,1,1.24-.67c.68,0,1.39.44,1.39,1.67v2.31h-1V13.47c0-.56-.21-1-.74-1a.82.82,0,0,0-.77.58,1.08,1.08,0,0,0,0,.32v2.28h-1Z"/><path class="cls-1" d="M170,15.5a3.38,3.38,0,0,1-1.39.24A2.54,2.54,0,0,1,165.9,13a2.71,2.71,0,0,1,2.88-2.84,3,3,0,0,1,1.31.24l-.21.78a2.68,2.68,0,0,0-1.06-.21,1.8,1.8,0,0,0-1.89,2,1.77,1.77,0,0,0,1.88,1.94,2.72,2.72,0,0,0,1.07-.2Z"/><path class="cls-1" d="M170.84,10h1v2.32h0a1.25,1.25,0,0,1,.49-.45,1.34,1.34,0,0,1,.67-.18c.67,0,1.36.44,1.36,1.69v2.29h-1V13.48c0-.57-.21-1-.75-1a.8.8,0,0,0-.76.55.71.71,0,0,0,0,.3v2.32h-1Z"/><path class="cls-1" d="M176.47,10.68a.52.52,0,0,1-.56.53.51.51,0,0,1-.54-.53.52.52,0,0,1,.55-.53A.53.53,0,0,1,176.47,10.68Zm-1.05,5V11.77h1v3.89Z"/><path class="cls-1" d="M177.47,10h1v5.67h-1Z"/><path class="cls-1" d="M183.12,10v4.58c0,.4,0,.83,0,1.09h-.88l0-.61h0a1.4,1.4,0,0,1-1.27.7,1.78,1.78,0,0,1-1.66-2A1.85,1.85,0,0,1,181,11.68a1.27,1.27,0,0,1,1.1.51h0V10Zm-1,3.4a2.11,2.11,0,0,0,0-.25.86.86,0,0,0-.85-.7c-.63,0-1,.56-1,1.29s.35,1.23,1,1.23a.87.87,0,0,0,.85-.7,1.2,1.2,0,0,0,0-.28Z"/><path class="cls-1" d="M184.17,13c0-.53,0-.91,0-1.26H185l0,.74h0a1.16,1.16,0,0,1,1.06-.83.88.88,0,0,1,.24,0v.92a2,2,0,0,0-.29,0,.88.88,0,0,0-.88.75,1.32,1.32,0,0,0,0,.3v2h-1Z"/><path class="cls-1" d="M187.72,14c0,.71.57,1,1.2,1a2.8,2.8,0,0,0,1.08-.18l.14.68a3.6,3.6,0,0,1-1.36.24,1.84,1.84,0,0,1-2-2,1.94,1.94,0,0,1,1.91-2.1,1.7,1.7,0,0,1,1.68,1.9,1.86,1.86,0,0,1,0,.41Zm1.71-.68a.84.84,0,0,0-.81-1,1,1,0,0,0-.9,1Z"/><path class="cls-1" d="M191.15,12.93c0-.45,0-.82,0-1.16H192l.05.58h0a1.41,1.41,0,0,1,1.24-.67c.68,0,1.38.44,1.38,1.67v2.31h-1V13.47c0-.56-.21-1-.74-1a.82.82,0,0,0-.77.58,1.08,1.08,0,0,0,0,.32v2.28h-1Z"/><path class="cls-1" d="M223,10.35a7.82,7.82,0,0,1,1.5-.12,2.47,2.47,0,0,1,1.59.44,1.54,1.54,0,0,1,.53,1.2,1.64,1.64,0,0,1-.46,1.22,2.39,2.39,0,0,1-1.7.58,2.15,2.15,0,0,1-.48,0v2h-1Zm1,2.51a2.09,2.09,0,0,0,.48,0c.73,0,1.18-.36,1.18-1s-.42-.92-1.1-.92a3.12,3.12,0,0,0-.56,0Z"/><path class="cls-1" d="M227.42,10.35a8.61,8.61,0,0,1,1.49-.12,2.46,2.46,0,0,1,1.66.44,1.34,1.34,0,0,1,.47,1.08,1.46,1.46,0,0,1-1,1.35v0a1.38,1.38,0,0,1,.75,1,9.48,9.48,0,0,0,.43,1.5h-1a7.43,7.43,0,0,1-.36-1.27c-.15-.7-.41-.92-1-.94h-.49v2.21h-1Zm1,2.38H229c.66,0,1.08-.35,1.08-.89S229.64,11,229,11a2.34,2.34,0,0,0-.6,0Z"/><path class="cls-1" d="M235,13.27h-2v1.59h2.27v.8H232V10.27h3.14v.81H233v1.39h2Z"/><path class="cls-1" d="M240,15.5a3.48,3.48,0,0,1-1.4.24A2.54,2.54,0,0,1,235.81,13a2.71,2.71,0,0,1,2.88-2.84,3,3,0,0,1,1.31.24l-.21.78a2.68,2.68,0,0,0-1.06-.21,1.8,1.8,0,0,0-1.88,2,1.76,1.76,0,0,0,1.87,1.94,2.81,2.81,0,0,0,1.08-.2Z"/><path class="cls-1" d="M243.81,13.27h-2v1.59h2.27v.8H240.8V10.27h3.13v.81h-2.15v1.39h2Z"/><path class="cls-1" d="M244.92,15.66V10.27H246l1.39,2.32a15.34,15.34,0,0,1,.92,1.8h0c-.06-.72-.08-1.41-.08-2.24V10.27h.91v5.39h-1l-1.4-2.36a16.62,16.62,0,0,1-1-1.87h0c0,.7,0,1.41,0,2.3v1.92Z"/><path class="cls-1" d="M251.36,11.1h-1.54v-.83h4.07v.83h-1.55v4.56h-1Z"/><path class="cls-1" d="M255.61,14.14l-.47,1.52h-1l1.72-5.39h1.26l1.75,5.39H257.8l-.48-1.52Zm1.54-.75-.42-1.32c-.11-.33-.2-.7-.28-1h0c-.08.31-.16.69-.26,1l-.41,1.32Z"/><path class="cls-1" d="M263.93,15.42a5.52,5.52,0,0,1-1.73.3,2.89,2.89,0,0,1-2.11-.72,2.71,2.71,0,0,1-.76-2,2.74,2.74,0,0,1,3-2.8,3.33,3.33,0,0,1,1.43.26l-.21.79a2.88,2.88,0,0,0-1.22-.24,1.8,1.8,0,0,0-2,1.94,1.78,1.78,0,0,0,1.87,1.95,2,2,0,0,0,.74-.11V13.47h-1v-.78h1.9Z"/><path class="cls-1" d="M268,13.27h-2v1.59h2.28v.8h-3.26V10.27h3.14v.81h-2.16v1.39h2Z"/><path class="cls-1" d="M275.5,12.91a2.55,2.55,0,0,1-2.58,2.84A2.49,2.49,0,0,1,270.44,13,2.58,2.58,0,0,1,273,10.19,2.49,2.49,0,0,1,275.5,12.91Zm-4,.08c0,1.1.55,2,1.49,2s1.49-.88,1.49-2-.5-2-1.49-2S271.48,11.88,271.48,13Z"/><path class="cls-1" d="M276.35,10.27h3.11v.81h-2.13v1.49h2v.81h-2v2.28h-1Z"/><path class="cls-1" d="M282.08,10.35a7.55,7.55,0,0,1,1.43-.12,2.51,2.51,0,0,1,1.54.35,1.13,1.13,0,0,1,.56,1,1.24,1.24,0,0,1-.89,1.16v0a1.35,1.35,0,0,1,1.08,1.33,1.4,1.4,0,0,1-.52,1.12,3,3,0,0,1-2,.5,10,10,0,0,1-1.21-.07Zm1,2.12h.51c.68,0,1.06-.32,1.06-.77s-.38-.74-1-.74a3.12,3.12,0,0,0-.56,0Zm0,2.48a3.54,3.54,0,0,0,.52,0c.63,0,1.19-.24,1.19-.91s-.54-.88-1.22-.88h-.49Z"/><path class="cls-1" d="M287.77,14.14l-.47,1.52h-1L288,10.27h1.26L291,15.66H290l-.48-1.52Zm1.54-.75-.43-1.32c-.1-.33-.19-.7-.27-1h0c-.08.31-.16.69-.26,1l-.42,1.32Z"/><path class="cls-1" d="M295.64,15.5a3.48,3.48,0,0,1-1.4.24A2.54,2.54,0,0,1,291.49,13a2.71,2.71,0,0,1,2.88-2.84,3,3,0,0,1,1.31.24l-.21.78a2.68,2.68,0,0,0-1.06-.21,1.8,1.8,0,0,0-1.88,2,1.76,1.76,0,0,0,1.87,1.94,2.81,2.81,0,0,0,1.08-.2Z"/><path class="cls-1" d="M297.51,11.1H296v-.83H300v.83h-1.55v4.56h-1Z"/><path class="cls-1" d="M303.69,13.27h-2v1.59h2.27v.8h-3.25V10.27h3.13v.81h-2.15v1.39h2Z"/><path class="cls-1" d="M304.8,10.35a8.58,8.58,0,0,1,1.48-.12,2.47,2.47,0,0,1,1.67.44,1.36,1.36,0,0,1,.46,1.08,1.45,1.45,0,0,1-1,1.35v0a1.4,1.4,0,0,1,.75,1,11.15,11.15,0,0,0,.42,1.5h-1a7.43,7.43,0,0,1-.36-1.27c-.16-.7-.41-.92-1-.94h-.5v2.21h-1Zm1,2.38h.59c.66,0,1.08-.35,1.08-.89S307,11,306.38,11a2.49,2.49,0,0,0-.61,0Z"/><path class="cls-1" d="M310.33,10.27v5.39h-1V10.27Z"/><path class="cls-1" d="M312.54,14.14l-.46,1.52h-1l1.73-5.39H314l1.75,5.39h-1.05l-.49-1.52Zm1.54-.75-.42-1.32c-.1-.33-.19-.7-.27-1h0c-.08.31-.16.69-.25,1l-.42,1.32Z"/><path class="cls-1" d="M319.19,10.27v5.39h-1V10.27Z"/><path class="cls-1" d="M320.32,15.66V10.27h1.12l1.39,2.32a15.34,15.34,0,0,1,.92,1.8h0c-.06-.72-.09-1.41-.09-2.24V10.27h.92v5.39h-1l-1.41-2.36a18.36,18.36,0,0,1-1-1.87h0c0,.7.05,1.41.05,2.3v1.92Z"/><path class="cls-1" d="M328.46,14.14,328,15.66h-1l1.73-5.39H330l1.75,5.39h-1l-.49-1.52Zm1.54-.75-.42-1.32c-.11-.33-.19-.7-.27-1h0c-.08.31-.16.69-.25,1l-.42,1.32Z"/><path class="cls-1" d="M332.47,10.27h3.11v.81h-2.13v1.49h2v.81h-2v2.28h-1Z"/><path class="cls-1" d="M336.54,10.35a8.61,8.61,0,0,1,1.49-.12,2.46,2.46,0,0,1,1.66.44,1.33,1.33,0,0,1,.46,1.08,1.45,1.45,0,0,1-1,1.35v0a1.4,1.4,0,0,1,.75,1,11.15,11.15,0,0,0,.42,1.5h-1a7.43,7.43,0,0,1-.36-1.27c-.15-.7-.41-.92-1-.94h-.49v2.21h-1Zm1,2.38h.58c.66,0,1.08-.35,1.08-.89s-.42-.86-1.06-.86a2.34,2.34,0,0,0-.6,0Z"/><path class="cls-1" d="M342.08,10.27v5.39h-1V10.27Z"/><path class="cls-1" d="M347.07,15.5a3.48,3.48,0,0,1-1.4.24A2.54,2.54,0,0,1,342.92,13a2.71,2.71,0,0,1,2.88-2.84,3,3,0,0,1,1.31.24l-.21.78a2.68,2.68,0,0,0-1.06-.21A1.8,1.8,0,0,0,344,13a1.76,1.76,0,0,0,1.87,1.94,2.81,2.81,0,0,0,1.08-.2Z"/><path class="cls-1" d="M349,14.14l-.47,1.52h-1l1.73-5.39h1.25l1.75,5.39h-1.05l-.49-1.52Zm1.54-.75-.42-1.32c-.11-.33-.19-.7-.27-1h0c-.08.31-.16.69-.26,1l-.41,1.32Z"/><path class="cls-1" d="M353,15.66V10.27h1.12l1.39,2.32a15.34,15.34,0,0,1,.92,1.8h0c-.06-.72-.09-1.41-.09-2.24V10.27h.92v5.39h-1l-1.41-2.36a18.36,18.36,0,0,1-1-1.87h0c0,.7,0,1.41,0,2.3v1.92Z"/><path class="cls-1" d="M363.92,15.5a3.38,3.38,0,0,1-1.39.24A2.54,2.54,0,0,1,359.78,13a2.71,2.71,0,0,1,2.88-2.84,3,3,0,0,1,1.31.24l-.22.78A2.59,2.59,0,0,0,362.7,11a1.8,1.8,0,0,0-1.89,2,1.77,1.77,0,0,0,1.88,1.94,2.72,2.72,0,0,0,1.07-.2Z"/><path class="cls-1" d="M365.75,10.27v2.16H368V10.27h1v5.39h-1V13.29h-2.28v2.37h-1V10.27Z"/><path class="cls-1" d="M371.12,10.27v5.39h-1V10.27Z"/><path class="cls-1" d="M372.25,10.27h1v4.57h2.21v.82h-3.2Z"/><path class="cls-1" d="M376.2,10.35a8.92,8.92,0,0,1,1.56-.12,3.25,3.25,0,0,1,2.2.63,2.4,2.4,0,0,1,.84,2A2.78,2.78,0,0,1,380,15a3.58,3.58,0,0,1-2.44.74,10.75,10.75,0,0,1-1.32-.07Zm1,4.56a2.92,2.92,0,0,0,.54,0,1.85,1.85,0,0,0,2-2.07A1.71,1.71,0,0,0,377.85,11a3.24,3.24,0,0,0-.67.06Z"/><path class="cls-1" d="M381.66,10.35a8.61,8.61,0,0,1,1.49-.12,2.46,2.46,0,0,1,1.66.44,1.33,1.33,0,0,1,.46,1.08,1.45,1.45,0,0,1-1,1.35v0a1.4,1.4,0,0,1,.75,1,11.15,11.15,0,0,0,.42,1.5h-1a7.43,7.43,0,0,1-.36-1.27c-.15-.7-.41-.92-1-.94h-.5v2.21h-1Zm1,2.38h.59c.66,0,1.08-.35,1.08-.89s-.42-.86-1.06-.86a2.49,2.49,0,0,0-.61,0Z"/><path class="cls-1" d="M389.23,13.27h-2v1.59h2.27v.8h-3.26V10.27h3.14v.81H387.2v1.39h2Z"/><path class="cls-1" d="M390.33,15.66V10.27h1.12l1.39,2.32a15.34,15.34,0,0,1,.92,1.8h0c-.07-.72-.09-1.41-.09-2.24V10.27h.91v5.39h-1l-1.41-2.36a16.62,16.62,0,0,1-1-1.87h0c0,.7,0,1.41,0,2.3v1.92Z"/><path class="cls-1" d="M395.72,14.59a2.65,2.65,0,0,0,1.3.35c.63,0,1-.3,1-.74s-.27-.65-1-.89c-.88-.32-1.45-.8-1.45-1.57s.73-1.55,1.9-1.55a2.81,2.81,0,0,1,1.3.27l-.24.79a2.37,2.37,0,0,0-1.08-.26c-.62,0-.89.34-.89.65s.31.61,1,.89c.94.35,1.39.82,1.39,1.6s-.65,1.61-2,1.61a3.32,3.32,0,0,1-1.46-.33Z"/><path class="cls-1" d="M405.87,15.42a5.65,5.65,0,0,1-1.74.3A2.89,2.89,0,0,1,402,15a2.67,2.67,0,0,1-.75-2,2.73,2.73,0,0,1,3-2.8,3.41,3.41,0,0,1,1.43.26l-.22.79a2.81,2.81,0,0,0-1.22-.24,1.81,1.81,0,0,0-2,1.94,1.78,1.78,0,0,0,1.87,1.95,1.93,1.93,0,0,0,.74-.11V13.47h-1v-.78h1.91Z"/><path class="cls-1" d="M407.85,10.27v3.15c0,1.05.44,1.54,1.1,1.54s1.14-.49,1.14-1.54V10.27h1v3.08c0,1.67-.85,2.4-2.15,2.4s-2.05-.69-2.05-2.39V10.27Z"/><path class="cls-1" d="M413.23,11.1H411.7v-.83h4.07v.83h-1.55v4.56h-1Z"/><path class="cls-1" d="M416.38,14.59a2.65,2.65,0,0,0,1.3.35c.63,0,1-.3,1-.74s-.28-.65-1-.89c-.89-.32-1.46-.8-1.46-1.57s.74-1.55,1.9-1.55a2.77,2.77,0,0,1,1.3.27l-.24.79a2.32,2.32,0,0,0-1.07-.26c-.63,0-.9.34-.9.65s.31.61,1,.89c.94.35,1.4.82,1.4,1.6s-.66,1.61-2.05,1.61a3.32,3.32,0,0,1-1.46-.33Z"/><path class="cls-2" d="M330,82.13,289.22,68.88A42.22,42.22,0,0,1,330,39.26Z"/><path class="cls-3" d="M330,82.13l-42.82-2.24a42.55,42.55,0,0,1,2-11Z"/><path class="cls-4" d="M330,82.13l-42.09,8.18a40.05,40.05,0,0,1-.73-10.42Z"/><path class="cls-5" d="M330,82.13l-38.54,18.8a42.82,42.82,0,0,1-3.55-10.62Z"/><path class="cls-6" d="M330,82.13l-7.45,42.22a41.56,41.56,0,0,1-31.09-23.42Z"/><path class="cls-7" d="M330,82.13V39.26A42.88,42.88,0,1,1,330,125a37.27,37.27,0,0,1-7.45-.66Z"/><path class="cls-1" d="M345.79,76.81a8.65,8.65,0,0,1,1.43-.11,2.53,2.53,0,0,1,1.54.35,1.12,1.12,0,0,1,.56,1,1.25,1.25,0,0,1-.9,1.17v0a1.35,1.35,0,0,1,1.09,1.33,1.39,1.39,0,0,1-.52,1.11,3,3,0,0,1-2,.51,9.82,9.82,0,0,1-1.2-.07Zm1,2.13h.5c.68,0,1.07-.32,1.07-.77s-.39-.74-1-.74a3,3,0,0,0-.56,0Zm0,2.48a3.79,3.79,0,0,0,.52,0c.63,0,1.19-.24,1.19-.9s-.54-.88-1.22-.88h-.49Z"/><path class="cls-1" d="M351.71,77.82h0l-.95.48-.17-.74,1.26-.63h.83v5.2h-1Z"/><path class="cls-1" d="M345.66,87.35h-2l-.16,1a2.24,2.24,0,0,1,.38,0,2.33,2.33,0,0,1,1.26.33,1.5,1.5,0,0,1,.68,1.32,1.9,1.9,0,0,1-2.1,1.8,3.07,3.07,0,0,1-1.38-.3l.2-.75a2.66,2.66,0,0,0,1.15.27,1,1,0,0,0,1.12-1c0-.59-.44-1-1.48-1a4.83,4.83,0,0,0-.71,0l.35-2.63h2.68Z"/><path class="cls-1" d="M346.85,90.72A2.58,2.58,0,0,0,348,91c.75,0,1.06-.43,1.05-.84,0-.61-.58-.88-1.18-.88h-.45V88.6h.44c.45,0,1-.2,1-.72,0-.35-.26-.65-.83-.65a2,2,0,0,0-1.06.33l-.23-.71a2.8,2.8,0,0,1,1.5-.4c1.07,0,1.62.59,1.62,1.27a1.26,1.26,0,0,1-1,1.21v0a1.31,1.31,0,0,1,1.14,1.29c0,.88-.73,1.58-2,1.58a2.86,2.86,0,0,1-1.45-.36Z"/><path class="cls-1" d="M353.5,88c0,1.09-.64,1.65-1.36,1.65s-1.31-.56-1.32-1.56.57-1.63,1.36-1.63S353.5,87.05,353.5,88Zm-1.93.05c0,.6.21,1,.6,1s.58-.41.58-1-.16-1-.58-1S351.57,87.46,351.57,88Zm.59,3.78,3-5.37h.57l-3,5.37Zm4.92-1.67c0,1.09-.63,1.64-1.35,1.64a1.37,1.37,0,0,1-1.32-1.56,1.44,1.44,0,0,1,1.36-1.63C356.59,88.6,357.08,89.21,357.08,90.15Zm-1.93,0c0,.6.21,1,.6,1s.58-.41.58-1-.16-1-.58-1S355.15,89.62,355.15,90.2Z"/><path class="cls-1" d="M312.05,55.3h3.11v.81H313V57.6h2v.81h-2v2.28h-1Z"/><path class="cls-1" d="M318.07,60.69V59.37h-2.35v-.64l2.12-3.23H319v3.13h.67v.74H319v1.32Zm0-2.06V57.22c0-.3,0-.6,0-.91h0c-.16.33-.3.59-.46.88l-.95,1.42v0Z"/><path class="cls-1" d="M309.9,66h0l-.95.48-.17-.74L310,65.1h.83v5.19h-1Z"/><path class="cls-1" d="M316,65.91h-2l-.15,1,.38,0a2.33,2.33,0,0,1,1.26.33,1.5,1.5,0,0,1,.68,1.32,1.9,1.9,0,0,1-2.1,1.8,3,3,0,0,1-1.38-.3l.2-.75a2.63,2.63,0,0,0,1.14.28,1,1,0,0,0,1.13-1c0-.59-.44-1-1.48-1a4.73,4.73,0,0,0-.71,0l.35-2.62H316Z"/><path class="cls-1" d="M319.5,66.55c0,1.1-.64,1.65-1.36,1.65s-1.31-.56-1.32-1.56A1.44,1.44,0,0,1,318.18,65C319,65,319.5,65.62,319.5,66.55Zm-1.93.06c0,.6.21,1,.6,1s.58-.42.58-1.05-.16-1-.58-1S317.57,66,317.57,66.61Zm.59,3.77,3-5.37h.57l-3,5.37Zm4.92-1.67c0,1.09-.63,1.65-1.35,1.65a1.38,1.38,0,0,1-1.32-1.57,1.45,1.45,0,0,1,1.36-1.63C322.59,67.16,323.08,67.78,323.08,68.71Zm-1.93.06c0,.59.21,1,.6,1s.58-.42.58-1-.16-1-.58-1S321.15,68.18,321.15,68.77Z"/><path class="cls-1" d="M310.54,95.61A8.65,8.65,0,0,1,312,95.5a2.61,2.61,0,0,1,1.54.34,1.13,1.13,0,0,1,.56,1,1.26,1.26,0,0,1-.9,1.17h0a1.36,1.36,0,0,1,1.09,1.34,1.41,1.41,0,0,1-.52,1.11,3,3,0,0,1-2,.5,9.82,9.82,0,0,1-1.2-.07Zm1,2.13h.5c.68,0,1.07-.32,1.07-.78s-.39-.73-1-.73a3.35,3.35,0,0,0-.56,0Zm0,2.47a3.54,3.54,0,0,0,.52,0c.63,0,1.19-.24,1.19-.91s-.54-.87-1.22-.87h-.49Z"/><path class="cls-1" d="M314.92,100.93v-.6l.62-.57c1.22-1.14,1.79-1.76,1.8-2.45a.82.82,0,0,0-.92-.87,1.92,1.92,0,0,0-1.12.43l-.28-.69a2.52,2.52,0,0,1,1.6-.54,1.54,1.54,0,0,1,1.71,1.58c0,.91-.66,1.64-1.56,2.48l-.46.39v0h2.14v.82Z"/><path class="cls-1" d="M307.11,110.53v-.6l.62-.57c1.22-1.14,1.8-1.76,1.8-2.45a.81.81,0,0,0-.92-.87,1.87,1.87,0,0,0-1.11.43l-.29-.69a2.52,2.52,0,0,1,1.6-.54,1.54,1.54,0,0,1,1.71,1.58c0,.91-.66,1.64-1.56,2.48l-.46.4h2.14v.82Z"/><path class="cls-1" d="M315.07,107.9c0,1.67-.66,2.71-1.9,2.71s-1.83-1.08-1.84-2.67.69-2.7,1.9-2.7S315.07,106.36,315.07,107.9Zm-2.75,0c0,1.27.34,1.92.89,1.92s.88-.7.88-2-.29-1.92-.88-1.92S312.31,106.64,312.32,107.94Z"/><path class="cls-1" d="M318.25,106.79c0,1.09-.64,1.64-1.36,1.64s-1.31-.56-1.32-1.56a1.44,1.44,0,0,1,1.36-1.63C317.76,105.24,318.25,105.85,318.25,106.79Zm-1.93,0c0,.6.21,1,.6,1s.58-.42.58-1-.16-1-.58-1S316.32,106.26,316.32,106.84Zm.59,3.77,3-5.37h.57l-3,5.37Zm4.92-1.67c0,1.09-.63,1.65-1.35,1.65a1.38,1.38,0,0,1-1.32-1.57,1.45,1.45,0,0,1,1.36-1.63C321.34,107.39,321.83,108,321.83,108.94Zm-1.93.06c0,.59.21,1,.6,1s.58-.42.58-1.05-.16-1-.58-1S319.9,108.42,319.9,109Z"/><path class="cls-3" d="M276.39,58h3.11v.81h-2.13v1.49h2v.8h-2v2.29h-1Z"/><path class="cls-3" d="M280.44,62.34a2.54,2.54,0,0,0,1.18.32c.75,0,1.05-.42,1.05-.83,0-.61-.58-.88-1.18-.88H281v-.72h.44c.45,0,1-.2,1-.72,0-.36-.27-.65-.83-.65a2.05,2.05,0,0,0-1.07.33l-.22-.71a2.76,2.76,0,0,1,1.49-.4c1.08,0,1.63.59,1.63,1.27a1.26,1.26,0,0,1-1,1.21v0a1.31,1.31,0,0,1,1.14,1.29c0,.88-.73,1.58-2,1.58a2.9,2.9,0,0,1-1.46-.36Z"/><path class="cls-3" d="M277,73V71.64h-2.35V71l2.11-3.24h1.16V70.9h.68v.74h-.68V73Zm0-2.06V69.48c0-.29,0-.6,0-.9h0c-.16.33-.3.59-.46.88l-.95,1.42v0Z"/><path class="cls-3" d="M281.69,69.22c0,1.09-.64,1.65-1.36,1.65S279,70.31,279,69.31s.57-1.63,1.37-1.63S281.69,68.28,281.69,69.22Zm-1.93,0c0,.6.21,1,.6,1s.58-.41.58-1-.16-1-.58-1S279.76,68.69,279.76,69.27Zm.59,3.78,3-5.37h.56l-3,5.37Zm4.92-1.67c0,1.08-.63,1.64-1.35,1.64a1.38,1.38,0,0,1-1.32-1.56A1.44,1.44,0,0,1,284,69.83C284.78,69.83,285.27,70.44,285.27,71.38Zm-1.93.05c0,.6.21,1,.6,1s.59-.41.59-1-.16-1-.59-1S283.34,70.85,283.34,71.43Z"/><path class="cls-4" d="M271.39,77.5h3.11v.81h-2.13v1.48h2v.81h-2v2.29h-1Z"/><path class="cls-4" d="M275.24,82.89v-.6l.61-.57c1.22-1.14,1.8-1.76,1.81-2.45a.82.82,0,0,0-.93-.87,1.87,1.87,0,0,0-1.11.43l-.29-.69a2.54,2.54,0,0,1,1.6-.54,1.54,1.54,0,0,1,1.71,1.58c0,.91-.65,1.64-1.56,2.48l-.45.4h2.13v.82Z"/><path class="cls-4" d="M272,92.49V91.17h-2.35v-.64l2.11-3.24h1.16v3.13h.67v.75h-.67v1.32Zm0-2.07V89c0-.3,0-.6,0-.9h0c-.16.32-.3.59-.46.88l-.95,1.42H272Z"/><path class="cls-4" d="M276.69,88.75c0,1.09-.64,1.64-1.36,1.64A1.38,1.38,0,0,1,274,88.83a1.44,1.44,0,0,1,1.36-1.63C276.2,87.2,276.69,87.81,276.69,88.75Zm-1.93,0c0,.6.21,1,.6,1s.58-.42.58-1-.16-1-.58-1S274.76,88.22,274.76,88.8Zm.59,3.78,3-5.38h.56l-3,5.38Zm4.92-1.68c0,1.09-.63,1.65-1.35,1.65A1.38,1.38,0,0,1,277.6,91,1.45,1.45,0,0,1,279,89.35C279.78,89.35,280.27,90,280.27,90.9Zm-1.93.06c0,.59.21,1,.6,1s.58-.42.58-1-.16-1-.58-1S278.34,90.38,278.34,91Z"/><path class="cls-5" d="M277.22,95.92h3.11v.81H278.2v1.49h2V99h-2v2.28h-1Z"/><path class="cls-5" d="M282.61,97h0l-1,.48-.17-.74,1.26-.62h.82v5.19h-.95Z"/><path class="cls-5" d="M277.84,110.91v-1.32h-2.35V109l2.12-3.24h1.16v3.14h.67v.74h-.67v1.32Zm0-2.06v-1.42c0-.29,0-.6,0-.9h0c-.16.33-.3.59-.46.88l-.95,1.42v0Z"/><path class="cls-5" d="M282.52,107.17c0,1.1-.64,1.65-1.35,1.65s-1.32-.56-1.33-1.56a1.44,1.44,0,0,1,1.37-1.63C282,105.63,282.52,106.24,282.52,107.17Zm-1.93.06c0,.6.21,1,.6,1s.59-.42.59-1-.16-1-.59-1S280.59,106.64,280.59,107.23Zm.59,3.77,3-5.37h.56l-3,5.37Zm4.92-1.67c0,1.09-.63,1.65-1.35,1.65a1.38,1.38,0,0,1-1.32-1.57,1.44,1.44,0,0,1,1.36-1.63C285.61,107.78,286.1,108.39,286.1,109.33Zm-1.93,0c0,.6.21,1,.6,1s.59-.41.59-1-.16-1-.59-1S284.17,108.8,284.17,109.38Z"/></svg>