<svg xmlns="http://www.w3.org/2000/svg" viewBox="0 0 501.81 160.57"><defs><style>.cls-1{fill:#eae6e4;}.cls-2{fill:#ffcc4e;}.cls-3{fill:#f58233;}.cls-4{fill:#e25949;}.cls-5{fill:#df1e42;}.cls-6{fill:#50c6dd;}.cls-7{fill:#00a651;}.cls-8{fill:none;stroke:#231f20;stroke-linecap:round;stroke-linejoin:round;stroke-width:0.5px;}.cls-9{fill:#231f20;}.cls-10{fill:#9a1c1f;}</style></defs><title>Slide_13</title><g id="text"><rect class="cls-1" y="30.78" width="80.14" height="21.89"/><path class="cls-2" d="M148.19,102.79,87.3,83C96,56.1,119.91,38.77,148.19,38.77Z" transform="translate(-5.43 -6.24)"/><path class="cls-3" d="M148.19,102.79,84.26,99.44A63,63,0,0,1,87.3,83Z" transform="translate(-5.43 -6.24)"/><path class="cls-4" d="M148.19,102.79,85.35,115a59,59,0,0,1-1.09-15.57Z" transform="translate(-5.43 -6.24)"/><path class="cls-5" d="M148.19,102.79,90.65,130.86A63.46,63.46,0,0,1,85.35,115Z" transform="translate(-5.43 -6.24)"/><path class="cls-6" d="M148.19,102.79l-11.12,63.05c-20.89-3.68-37.12-15.92-46.42-35Z" transform="translate(-5.43 -6.24)"/><path class="cls-7" d="M148.19,102.79v-64a64,64,0,1,1,0,128,56.08,56.08,0,0,1-11.12-1Z" transform="translate(-5.43 -6.24)"/><rect class="cls-7" x="3.23" y="34.38" width="5" height="5"/><rect class="cls-5" x="3.23" y="44.41" width="5" height="5"/><rect class="cls-6" x="9.26" y="34.38" width="5" height="5"/><rect class="cls-4" x="9.26" y="44.41" width="5" height="5"/><rect class="cls-3" x="15.29" y="44.41" width="5" height="5"/><rect class="cls-2" x="21.32" y="44.41" width="5" height="5"/><line class="cls-8" x1="69.62" y1="120.64" x2="84.56" y2="116.17"/><line class="cls-8" x1="70.87" y1="101.08" x2="85.44" y2="101"/><line class="cls-8" x1="71.84" y1="81.73" x2="85.22" y2="84.95"/><path class="cls-9" d="M163.37,95.36a5.47,5.47,0,0,1,1.17-.12,2,2,0,0,1,1.31.41,1.26,1.26,0,0,1,.4,1A1.87,1.87,0,0,1,165.6,98a2.56,2.56,0,0,1-1.63.51,4.43,4.43,0,0,1-.55,0l-.41,2.16h-.66Zm.15,2.59a2.42,2.42,0,0,0,.54.06,1.37,1.37,0,0,0,1.51-1.33c0-.64-.45-.9-1.07-.9a2.49,2.49,0,0,0-.58.06Z" transform="translate(-5.43 -6.24)"/><path class="cls-9" d="M166.38,100.67l.48-2.5c.09-.5.16-1,.2-1.37h.58c0,.27-.06.54-.1.84h0a1.4,1.4,0,0,1,1.18-.93l.19,0-.13.65h-.18c-.57,0-1.08.69-1.25,1.59l-.32,1.71Z" transform="translate(-5.43 -6.24)"/><path class="cls-9" d="M171.72,100.44a2.65,2.65,0,0,1-1.28.31A1.4,1.4,0,0,1,169,99.2a2.4,2.4,0,0,1,2.11-2.49,1,1,0,0,1,1.13,1c0,1-1.14,1.29-2.57,1.26a1.62,1.62,0,0,0,.08.74.88.88,0,0,0,.86.52,2.13,2.13,0,0,0,1-.27ZM171,97.23c-.63,0-1.1.62-1.26,1.22,1,0,1.85-.12,1.85-.72C171.57,97.41,171.33,97.23,171,97.23Z" transform="translate(-5.43 -6.24)"/><path class="cls-9" d="M173.42,96.8l.33,2.2c.06.44.11.74.12,1h0a8.88,8.88,0,0,1,.4-.91l1.19-2.25h.72l-2.15,3.87h-.65l-.67-3.87Z" transform="translate(-5.43 -6.24)"/><path class="cls-9" d="M179.9,98.33a2.32,2.32,0,0,1-2.14,2.43,1.47,1.47,0,0,1-1.51-1.59,2.31,2.31,0,0,1,2.14-2.46A1.47,1.47,0,0,1,179.9,98.33Zm-3,.81c0,.63.34,1.09.91,1.09.78,0,1.37-1,1.37-1.91a1,1,0,0,0-.9-1.08C177.49,97.24,176.93,98.25,176.94,99.14Z" transform="translate(-5.43 -6.24)"/><path class="cls-9" d="M182.1,95.76l-.2,1h.93l-.1.52h-.93l-.36,1.88a3.27,3.27,0,0,0-.07.62.33.33,0,0,0,.36.37,1.51,1.51,0,0,0,.32,0l0,.52a1.47,1.47,0,0,1-.51.08.72.72,0,0,1-.81-.76,3.29,3.29,0,0,1,.08-.72l.38-2h-.56l.11-.52h.55l.17-.87Z" transform="translate(-5.43 -6.24)"/><path class="cls-9" d="M185.66,100.44a2.65,2.65,0,0,1-1.28.31,1.4,1.4,0,0,1-1.47-1.55A2.4,2.4,0,0,1,185,96.71a1,1,0,0,1,1.14,1c0,1-1.15,1.29-2.58,1.26a1.77,1.77,0,0,0,.08.74.89.89,0,0,0,.87.52,2.16,2.16,0,0,0,1-.27Zm-.73-3.21c-.64,0-1.11.62-1.27,1.22,1,0,1.86-.12,1.86-.72C185.52,97.41,185.28,97.23,184.93,97.23Z" transform="translate(-5.43 -6.24)"/><path class="cls-9" d="M186.5,100.67,187.58,95h.67l-1.09,5.68Z" transform="translate(-5.43 -6.24)"/><path class="cls-9" d="M188.33,100.67,189.42,95h.66L189,100.67Z" transform="translate(-5.43 -6.24)"/><path class="cls-9" d="M192.73,100.67c0-.23,0-.6.08-1h0a1.7,1.7,0,0,1-1.51,1.09,1.15,1.15,0,0,1-1.11-1.28,2.7,2.7,0,0,1,2.68-2.77,3.52,3.52,0,0,1,1,.15l-.39,2a9.16,9.16,0,0,0-.17,1.79Zm.43-3.38a2.13,2.13,0,0,0-.47-.05,2.07,2.07,0,0,0-1.82,2.12c0,.43.15.85.66.85s1.21-.72,1.4-1.75Z" transform="translate(-5.43 -6.24)"/><path class="cls-9" d="M174.3,105.66h-2l-.2,1.34a2.34,2.34,0,0,1,.42,0,2.12,2.12,0,0,1,1.12.28,1.46,1.46,0,0,1,.74,1.33,1.8,1.8,0,0,1-1.93,1.78,2.56,2.56,0,0,1-1.3-.32l.18-.54a2.28,2.28,0,0,0,1.11.29,1.15,1.15,0,0,0,1.23-1.13c0-.67-.45-1.15-1.49-1.15a4.41,4.41,0,0,0-.72.06l.33-2.5h2.49Z" transform="translate(-5.43 -6.24)"/><path class="cls-9" d="M175.47,109.46a2.31,2.31,0,0,0,1.15.33c.9,0,1.18-.58,1.17-1,0-.73-.66-1-1.34-1h-.39v-.53h.39c.51,0,1.16-.26,1.16-.88,0-.41-.26-.78-.91-.78a1.89,1.89,0,0,0-1,.34l-.18-.51a2.46,2.46,0,0,1,1.35-.4c1,0,1.49.61,1.49,1.24a1.3,1.3,0,0,1-1,1.23h0a1.36,1.36,0,0,1,1.16,1.34c0,.83-.64,1.56-1.89,1.56a2.57,2.57,0,0,1-1.35-.36Z" transform="translate(-5.43 -6.24)"/><path class="cls-9" d="M181.75,106.53c0,1.1-.58,1.64-1.25,1.64s-1.21-.52-1.21-1.56.56-1.63,1.25-1.63S181.75,105.54,181.75,106.53Zm-1.91,0c0,.67.24,1.17.68,1.17s.67-.5.67-1.18-.19-1.16-.67-1.16S179.84,105.93,179.84,106.58Zm.61,3.78,3.06-5.38H184l-3,5.38Zm4.68-1.68c0,1.1-.58,1.64-1.24,1.64s-1.21-.52-1.22-1.56.57-1.63,1.26-1.63S185.13,107.69,185.13,108.68Zm-1.9,0c0,.67.24,1.17.68,1.17s.67-.5.67-1.18-.19-1.16-.67-1.16S183.23,108.08,183.23,108.73Z" transform="translate(-5.43 -6.24)"/><path class="cls-9" d="M120.32,66.93a2.52,2.52,0,0,1-2.5,2.84A2.48,2.48,0,0,1,115.4,67a2.56,2.56,0,0,1,2.5-2.83A2.45,2.45,0,0,1,120.32,66.93Zm-4.18.09c0,1.15.62,2.18,1.72,2.18s1.73-1,1.73-2.24c0-1.07-.56-2.19-1.72-2.19S116.14,65.83,116.14,67Z" transform="translate(-5.43 -6.24)"/><path class="cls-9" d="M122.05,64.7v1.11h1v.53h-1v2.09c0,.48.14.75.53.75a1.37,1.37,0,0,0,.41-.05l0,.53a1.63,1.63,0,0,1-.62.1,1,1,0,0,1-.76-.3,1.44,1.44,0,0,1-.28-1V66.34h-.6v-.53h.6v-.93Z" transform="translate(-5.43 -6.24)"/><path class="cls-9" d="M123.85,64h.71v2.42h0a1.29,1.29,0,0,1,.51-.5,1.41,1.41,0,0,1,.72-.2c.52,0,1.35.32,1.35,1.66v2.3h-.71V67.46c0-.63-.23-1.16-.89-1.16a1,1,0,0,0-1,.71.83.83,0,0,0,0,.33v2.34h-.71Z" transform="translate(-5.43 -6.24)"/><path class="cls-9" d="M128.68,67.87A1.24,1.24,0,0,0,130,69.21a2.38,2.38,0,0,0,1.07-.2l.12.51a3.12,3.12,0,0,1-1.28.24,1.8,1.8,0,0,1-1.91-2,1.88,1.88,0,0,1,1.82-2.09,1.64,1.64,0,0,1,1.6,1.82,2.06,2.06,0,0,1,0,.33Zm2.07-.5a1,1,0,0,0-1-1.15,1.18,1.18,0,0,0-1.08,1.15Z" transform="translate(-5.43 -6.24)"/><path class="cls-9" d="M132.3,67c0-.46,0-.85,0-1.21h.61l0,.76h0a1.17,1.17,0,0,1,1.07-.85l.2,0v.67a.83.83,0,0,0-.24,0,1,1,0,0,0-.94.91,1.61,1.61,0,0,0,0,.33v2.06h-.7Z" transform="translate(-5.43 -6.24)"/><path class="cls-9" d="M134.82,69a1.93,1.93,0,0,0,.93.28c.51,0,.75-.26.75-.58s-.2-.52-.72-.71c-.7-.25-1-.63-1-1.09a1.19,1.19,0,0,1,1.33-1.14A1.89,1.89,0,0,1,137,66l-.17.51a1.55,1.55,0,0,0-.79-.22c-.42,0-.65.24-.65.53s.23.46.73.65c.68.26,1,.59,1,1.17s-.53,1.16-1.45,1.16a2.25,2.25,0,0,1-1.09-.27Z" transform="translate(-5.43 -6.24)"/><path class="cls-9" d="M120.92,74.74h0l-.91.48-.13-.53,1.13-.61h.6v5.2h-.68Z" transform="translate(-5.43 -6.24)"/><path class="cls-9" d="M126.6,74.67h-2l-.2,1.34a2.34,2.34,0,0,1,.42,0,2.21,2.21,0,0,1,1.12.27,1.49,1.49,0,0,1,.74,1.34,1.8,1.8,0,0,1-1.93,1.78,2.56,2.56,0,0,1-1.3-.32l.18-.54a2.32,2.32,0,0,0,1.11.29A1.15,1.15,0,0,0,126,77.67c0-.67-.45-1.15-1.49-1.15a4.41,4.41,0,0,0-.72.06l.33-2.5h2.49Z" transform="translate(-5.43 -6.24)"/><path class="cls-9" d="M129.94,75.54c0,1.1-.57,1.64-1.24,1.64s-1.21-.52-1.22-1.56.57-1.63,1.26-1.63S129.94,74.55,129.94,75.54Zm-1.9,0c0,.66.23,1.17.67,1.17s.67-.5.67-1.18-.18-1.16-.67-1.16S128,74.94,128,75.59Zm.61,3.78,3-5.38h.45l-3.05,5.38Zm4.68-1.68c0,1.1-.58,1.64-1.24,1.64s-1.21-.52-1.22-1.56.57-1.63,1.26-1.63S133.33,76.7,133.33,77.69Zm-1.91,0c0,.67.25,1.17.68,1.17s.68-.5.68-1.18-.19-1.16-.68-1.16S131.42,77.09,131.42,77.74Z" transform="translate(-5.43 -6.24)"/><path class="cls-9" d="M102.89,134l-.51-1.34c-.14-.36-.25-.66-.34-.94h0c-.17.26-.36.55-.63.93l-1,1.35h-.79l2.1-2.74-1-2.65h.7l.51,1.38c.11.32.2.57.28.82h0c.18-.27.36-.55.55-.82l1-1.38h.8l-2.08,2.64L103.6,134Z" transform="translate(-5.43 -6.24)"/><path class="cls-9" d="M105.11,130.12l.38,2.09c.09.43.14.72.18,1h0c.1-.25.21-.52.41-.94l1-2.16h.71l-1.45,2.94a7.44,7.44,0,0,1-1.33,2,2.5,2.5,0,0,1-1.13.67l-.16-.56a2.64,2.64,0,0,0,.71-.38,2.79,2.79,0,0,0,.74-.89.21.21,0,0,0,0-.17l-.78-3.64Z" transform="translate(-5.43 -6.24)"/><path class="cls-9" d="M107.8,134l1.08-5.68h.66L108.45,134Z" transform="translate(-5.43 -6.24)"/><path class="cls-9" d="M112.19,134a9.57,9.57,0,0,1,.09-1h0a1.69,1.69,0,0,1-1.5,1.09,1.15,1.15,0,0,1-1.11-1.28,2.7,2.7,0,0,1,2.67-2.77,3.52,3.52,0,0,1,1,.15l-.39,2a9.16,9.16,0,0,0-.17,1.79Zm.43-3.38a2.1,2.1,0,0,0-.46-.05,2.07,2.07,0,0,0-1.83,2.12c0,.43.16.85.67.85s1.2-.72,1.4-1.75Z" transform="translate(-5.43 -6.24)"/><path class="cls-9" d="M113.8,134l.52-2.74c.09-.44.13-.81.18-1.13h.59l-.09.76h0a1.7,1.7,0,0,1,1.43-.85,1,1,0,0,1,1,1.08,3.57,3.57,0,0,1-.07.62l-.44,2.26h-.66l.42-2.23a2.07,2.07,0,0,0,.06-.5c0-.39-.15-.68-.61-.68a1.71,1.71,0,0,0-1.32,1.53l-.35,1.88Z" transform="translate(-5.43 -6.24)"/><path class="cls-9" d="M118.07,134l.74-3.87h.67l-.75,3.87Zm.86-5a.44.44,0,0,1,.44-.45.39.39,0,0,1,.39.42.43.43,0,0,1-.44.45A.39.39,0,0,1,118.93,129Z" transform="translate(-5.43 -6.24)"/><path class="cls-9" d="M121.61,128.31l-.51,2.51h0a1.62,1.62,0,0,1,1.36-.79c.84,0,1.16.7,1.16,1.39a2.56,2.56,0,0,1-2.4,2.66c-.68,0-1.19-.28-1.19-1a3.93,3.93,0,0,1,.06-.6l.84-4.17Zm-.84,4.18a1.76,1.76,0,0,0,0,.49c0,.37.2.58.62.58,1,0,1.61-1.19,1.61-2.05,0-.48-.21-.93-.74-.93s-1.17.59-1.36,1.5Z" transform="translate(-5.43 -6.24)"/><path class="cls-9" d="M126.67,134a9.57,9.57,0,0,1,.09-1h0a1.69,1.69,0,0,1-1.5,1.09,1.15,1.15,0,0,1-1.11-1.28A2.7,2.7,0,0,1,126.8,130a3.52,3.52,0,0,1,1,.15l-.39,2a9.16,9.16,0,0,0-.17,1.79Zm.43-3.38a2.1,2.1,0,0,0-.46-.05,2.07,2.07,0,0,0-1.83,2.12c0,.43.16.85.67.85s1.2-.72,1.4-1.75Z" transform="translate(-5.43 -6.24)"/><path class="cls-9" d="M130.94,133.84a2.78,2.78,0,0,1-1.12.23,1.39,1.39,0,0,1-1.49-1.5A2.45,2.45,0,0,1,130.7,130a1.88,1.88,0,0,1,.81.17l-.19.52a1.58,1.58,0,0,0-.66-.14,1.8,1.8,0,0,0-1.64,1.9.91.91,0,0,0,1,1,2.16,2.16,0,0,0,.9-.21Z" transform="translate(-5.43 -6.24)"/><path class="cls-9" d="M133.4,129.08l-.2,1h.92l-.1.52h-.93l-.36,1.88a3.27,3.27,0,0,0-.07.62.33.33,0,0,0,.37.37,1.48,1.48,0,0,0,.31,0l0,.52a1.47,1.47,0,0,1-.51.08.73.73,0,0,1-.82-.76,3.29,3.29,0,0,1,.08-.72l.39-2h-.56l.1-.52h.55l.17-.87Z" transform="translate(-5.43 -6.24)"/><path class="cls-9" d="M137,133.76a2.65,2.65,0,0,1-1.28.31,1.39,1.39,0,0,1-1.47-1.55,2.4,2.4,0,0,1,2.11-2.49,1,1,0,0,1,1.13,1c0,1-1.14,1.29-2.57,1.27a1.47,1.47,0,0,0,.08.73.88.88,0,0,0,.86.52,2.13,2.13,0,0,0,1-.27Zm-.74-3.21c-.63,0-1.1.62-1.26,1.22,1,0,1.85-.12,1.85-.72C136.81,130.73,136.57,130.55,136.22,130.55Z" transform="translate(-5.43 -6.24)"/><path class="cls-9" d="M137.79,134l.47-2.5c.1-.5.16-1,.2-1.37H139c0,.27-.06.54-.1.84h0a1.41,1.41,0,0,1,1.19-.93l.18,0-.13.65H140c-.58,0-1.09.69-1.26,1.6l-.32,1.7Z" transform="translate(-5.43 -6.24)"/><path class="cls-9" d="M113.08,143.59v-.43l.55-.54c1.33-1.26,1.93-1.93,1.93-2.72a.92.92,0,0,0-1-1,1.76,1.76,0,0,0-1.1.44l-.22-.5a2.3,2.3,0,0,1,1.47-.53,1.46,1.46,0,0,1,1.59,1.51c0,1-.7,1.74-1.79,2.79l-.42.39h2.34v.59Z" transform="translate(-5.43 -6.24)"/><path class="cls-9" d="M120.63,140.93c0,1.77-.65,2.75-1.8,2.75s-1.7-1-1.72-2.68.75-2.7,1.81-2.7S120.63,139.28,120.63,140.93Zm-2.82.08c0,1.35.42,2.12,1.06,2.12s1.06-.84,1.06-2.17-.33-2.11-1.05-2.11S117.81,139.6,117.81,141Z" transform="translate(-5.43 -6.24)"/><path class="cls-9" d="M123.63,139.85c0,1.1-.58,1.64-1.25,1.64s-1.21-.52-1.21-1.56.56-1.63,1.25-1.63S123.63,138.86,123.63,139.85Zm-1.9.05c0,.67.23,1.17.67,1.17s.67-.5.67-1.18-.19-1.16-.67-1.16S121.73,139.25,121.73,139.9Zm.6,3.78,3.06-5.38h.44l-3,5.38ZM127,142c0,1.1-.58,1.64-1.24,1.64s-1.21-.52-1.21-1.56.56-1.63,1.25-1.63S127,141,127,142Zm-1.9.05c0,.67.25,1.17.68,1.17s.67-.5.67-1.18-.19-1.16-.67-1.16S125.11,141.4,125.11,142.05Z" transform="translate(-5.43 -6.24)"/><path class="cls-9" d="M8.23,128.21l-.86,1.7h-.7l2.79-5.39h.78l.75,5.39h-.68l-.22-1.7Zm1.81-.53-.21-1.56c0-.28-.08-.67-.1-1h0c-.14.32-.27.65-.43,1l-.81,1.57Z" transform="translate(-5.43 -6.24)"/><path class="cls-9" d="M14.24,129.76a2.78,2.78,0,0,1-1.12.23,1.39,1.39,0,0,1-1.49-1.5A2.45,2.45,0,0,1,14,126a1.83,1.83,0,0,1,.8.17l-.19.53a1.38,1.38,0,0,0-.65-.15,1.8,1.8,0,0,0-1.64,1.9.91.91,0,0,0,1,1,2,2,0,0,0,.89-.22Z" transform="translate(-5.43 -6.24)"/><path class="cls-9" d="M17.68,129.69a2.77,2.77,0,0,1-1.28.3,1.4,1.4,0,0,1-1.48-1.55A2.4,2.4,0,0,1,17,126a1,1,0,0,1,1.13,1c0,1-1.14,1.29-2.57,1.27a1.47,1.47,0,0,0,.08.73.87.87,0,0,0,.86.52,2.13,2.13,0,0,0,1-.27Zm-.74-3.22c-.63,0-1.1.62-1.26,1.22,1,0,1.85-.12,1.85-.72C17.53,126.65,17.29,126.47,16.94,126.47Z" transform="translate(-5.43 -6.24)"/><path class="cls-9" d="M20.24,125l-.2,1H21l-.1.52h-.93l-.36,1.88a3.27,3.27,0,0,0-.07.62.33.33,0,0,0,.37.37l.31,0,0,.52a1.81,1.81,0,0,1-.52.07.72.72,0,0,1-.81-.75,3.32,3.32,0,0,1,.08-.73l.38-2h-.56l.11-.52h.55l.17-.87Z" transform="translate(-5.43 -6.24)"/><path class="cls-9" d="M21,129.91l.75-3.87h.66l-.74,3.87Zm.87-5a.44.44,0,0,1,.44-.45.39.39,0,0,1,.39.42.44.44,0,0,1-.45.45A.38.38,0,0,1,21.88,125Z" transform="translate(-5.43 -6.24)"/><path class="cls-9" d="M24.58,125l-.2,1h.93l-.11.52h-.92l-.36,1.88a3.29,3.29,0,0,0-.08.62.33.33,0,0,0,.37.37l.31,0,0,.52A1.79,1.79,0,0,1,24,130a.72.72,0,0,1-.82-.75,4.06,4.06,0,0,1,.08-.73l.39-2h-.56l.1-.52h.55l.17-.87Z" transform="translate(-5.43 -6.24)"/><path class="cls-9" d="M29,127.57A2.32,2.32,0,0,1,26.88,130a1.48,1.48,0,0,1-1.51-1.59A2.33,2.33,0,0,1,27.52,126,1.48,1.48,0,0,1,29,127.57Zm-3,.81c0,.63.34,1.09.91,1.09.78,0,1.38-1,1.38-1.91a1,1,0,0,0-.91-1.08C26.61,126.48,26.05,127.5,26.06,128.38Z" transform="translate(-5.43 -6.24)"/><path class="cls-9" d="M29.49,129.91l.52-2.74c.08-.43.14-.81.18-1.13h.58l-.1.73h0a1.65,1.65,0,0,1,1.36-.82.84.84,0,0,1,.9.87,1.68,1.68,0,0,1,1.43-.87.92.92,0,0,1,.93,1,3.83,3.83,0,0,1-.06.65l-.43,2.29h-.65l.42-2.23a2.73,2.73,0,0,0,0-.5c0-.41-.15-.68-.58-.68s-1.05.56-1.21,1.43l-.38,2h-.64l.44-2.27a2.63,2.63,0,0,0,0-.47c0-.33-.08-.67-.57-.67s-1.09.64-1.24,1.47l-.36,1.94Z" transform="translate(-5.43 -6.24)"/><path class="cls-9" d="M38.52,129.91a9.57,9.57,0,0,1,.09-1h0a1.69,1.69,0,0,1-1.5,1.09A1.15,1.15,0,0,1,36,128.72,2.71,2.71,0,0,1,38.66,126a3.94,3.94,0,0,1,1,.15l-.39,2a8.44,8.44,0,0,0-.17,1.79Zm.44-3.37a1.62,1.62,0,0,0-.47-.06,2.07,2.07,0,0,0-1.82,2.12c0,.43.15.85.66.85s1.21-.72,1.4-1.75Z" transform="translate(-5.43 -6.24)"/><path class="cls-9" d="M42.79,129.76a2.74,2.74,0,0,1-1.12.23,1.39,1.39,0,0,1-1.48-1.5A2.45,2.45,0,0,1,42.55,126a1.88,1.88,0,0,1,.81.17l-.19.53a1.4,1.4,0,0,0-.66-.15,1.8,1.8,0,0,0-1.63,1.9.91.91,0,0,0,.95,1,2,2,0,0,0,.9-.22Z" transform="translate(-5.43 -6.24)"/><path class="cls-9" d="M47.29,126l-.52,2.74c-.08.43-.14.81-.18,1.13H46l.11-.73h0a1.7,1.7,0,0,1-1.37.82c-.49,0-1-.24-1-1.12a3.36,3.36,0,0,1,.07-.65l.42-2.19h.66l-.41,2.16a3.15,3.15,0,0,0-.07.57c0,.4.17.67.63.67s1.09-.56,1.25-1.42l.38-2Z" transform="translate(-5.43 -6.24)"/><path class="cls-9" d="M47.73,129.91l1.08-5.68h.66l-1.08,5.68Z" transform="translate(-5.43 -6.24)"/><path class="cls-9" d="M53.33,126l-.52,2.74c-.08.43-.14.81-.18,1.13H52l.11-.73h0a1.7,1.7,0,0,1-1.37.82c-.49,0-1-.24-1-1.12a3.36,3.36,0,0,1,.07-.65l.42-2.19h.66l-.41,2.16a3.15,3.15,0,0,0-.07.57c0,.4.17.67.63.67s1.09-.56,1.25-1.42l.38-2Z" transform="translate(-5.43 -6.24)"/><path class="cls-9" d="M53.76,129.91l.52-2.74c.08-.43.14-.81.18-1.13H55l-.1.73h0a1.65,1.65,0,0,1,1.36-.82.86.86,0,0,1,.91.87,1.66,1.66,0,0,1,1.42-.87.92.92,0,0,1,.93,1,3.83,3.83,0,0,1-.06.65l-.43,2.29h-.65l.42-2.23a2.73,2.73,0,0,0,0-.5c0-.41-.15-.68-.58-.68s-1,.56-1.21,1.43l-.37,2h-.64l.43-2.27a2.69,2.69,0,0,0,.05-.47c0-.33-.09-.67-.58-.67s-1.09.64-1.24,1.47l-.36,1.94Z" transform="translate(-5.43 -6.24)"/><path class="cls-9" d="M64.23,129.91v-1.42H61.82V128l2.32-3.32h.76v3.23h.73v.55H64.9v1.42Zm0-2v-1.73c0-.27,0-.55,0-.82h0c-.16.31-.28.53-.43.77l-1.27,1.77h1.7Z" transform="translate(-5.43 -6.24)"/><path class="cls-9" d="M68.51,126.18c0,1.09-.58,1.63-1.25,1.63s-1.21-.52-1.22-1.56.57-1.63,1.26-1.63S68.51,125.18,68.51,126.18Zm-1.91,0c0,.67.23,1.17.68,1.17s.67-.49.67-1.18-.19-1.16-.67-1.16S66.6,125.57,66.6,126.22Zm.61,3.78,3.06-5.38h.44l-3,5.38Zm4.68-1.67c0,1.09-.58,1.64-1.24,1.64s-1.21-.52-1.22-1.56.57-1.63,1.26-1.63S71.89,127.33,71.89,128.33Zm-1.9,0c0,.67.24,1.17.68,1.17s.67-.49.67-1.18-.19-1.16-.67-1.16S70,127.72,70,128.37Z" transform="translate(-5.43 -6.24)"/><path class="cls-9" d="M8.28,105H11l-.1.56H8.84l-.35,1.82H10.4l-.12.57H8.38l-.46,2.44H7.25Z" transform="translate(-5.43 -6.24)"/><path class="cls-9" d="M13.19,110.35a9.34,9.34,0,0,1,.09-1h0a1.68,1.68,0,0,1-1.5,1.08,1.14,1.14,0,0,1-1.11-1.28,2.7,2.7,0,0,1,2.68-2.76,3.5,3.5,0,0,1,1,.15l-.39,2a9.25,9.25,0,0,0-.17,1.8Zm.43-3.38a2.1,2.1,0,0,0-.46,0A2.06,2.06,0,0,0,11.33,109c0,.44.16.86.67.86s1.21-.72,1.4-1.75Z" transform="translate(-5.43 -6.24)"/><path class="cls-9" d="M17.59,110.12a2.65,2.65,0,0,1-1.28.31,1.4,1.4,0,0,1-1.47-1.56A2.39,2.39,0,0,1,17,106.39a1,1,0,0,1,1.13,1c0,1-1.14,1.29-2.57,1.26a1.62,1.62,0,0,0,.08.74.88.88,0,0,0,.86.52,2.24,2.24,0,0,0,1-.27Zm-.74-3.21c-.63,0-1.1.61-1.26,1.22,1,0,1.85-.13,1.85-.73C17.44,107.08,17.21,106.91,16.85,106.91Z" transform="translate(-5.43 -6.24)"/><path class="cls-9" d="M21.08,110.19a2.59,2.59,0,0,1-1.12.24,1.39,1.39,0,0,1-1.48-1.5,2.44,2.44,0,0,1,2.36-2.53,2.09,2.09,0,0,1,.81.16l-.19.53a1.55,1.55,0,0,0-.66-.14,1.8,1.8,0,0,0-1.63,1.9.91.91,0,0,0,.95,1,2.12,2.12,0,0,0,.9-.21Z" transform="translate(-5.43 -6.24)"/><path class="cls-9" d="M24.25,110.35a9.34,9.34,0,0,1,.09-1h0a1.68,1.68,0,0,1-1.5,1.08,1.14,1.14,0,0,1-1.11-1.28,2.7,2.7,0,0,1,2.68-2.76,3.57,3.57,0,0,1,1,.15l-.39,2a8.53,8.53,0,0,0-.17,1.8Zm.43-3.38a2,2,0,0,0-.46,0A2.06,2.06,0,0,0,22.4,109c0,.44.15.86.66.86s1.21-.72,1.4-1.75Z" transform="translate(-5.43 -6.24)"/><path class="cls-9" d="M25.87,110.35,27,104.67h.66l-1.08,5.68Z" transform="translate(-5.43 -6.24)"/><path class="cls-9" d="M27.69,110.35l.75-3.87h.66l-.74,3.87Zm.87-4.95A.44.44,0,0,1,29,105a.38.38,0,0,1,.39.41.44.44,0,0,1-.45.45A.38.38,0,0,1,28.56,105.4Z" transform="translate(-5.43 -6.24)"/><path class="cls-9" d="M31.24,104.67l-.52,2.51h0a1.62,1.62,0,0,1,1.36-.79c.85,0,1.17.7,1.17,1.39a2.57,2.57,0,0,1-2.41,2.65c-.68,0-1.19-.28-1.19-1a4.2,4.2,0,0,1,.06-.6l.84-4.16Zm-.84,4.18a1.72,1.72,0,0,0,0,.49c0,.37.21.57.62.57,1,0,1.61-1.19,1.61-2,0-.48-.21-.93-.74-.93s-1.16.59-1.35,1.5Z" transform="translate(-5.43 -6.24)"/><path class="cls-9" d="M36.29,110.35a9.34,9.34,0,0,1,.09-1h0a1.68,1.68,0,0,1-1.5,1.08,1.14,1.14,0,0,1-1.11-1.28,2.7,2.7,0,0,1,2.68-2.76,3.62,3.62,0,0,1,1,.15l-.39,2a8.53,8.53,0,0,0-.17,1.8Zm.43-3.38a2,2,0,0,0-.46,0A2,2,0,0,0,34.44,109c0,.44.15.86.66.86s1.21-.72,1.4-1.75Z" transform="translate(-5.43 -6.24)"/><path class="cls-9" d="M40.56,110.19a2.59,2.59,0,0,1-1.12.24,1.39,1.39,0,0,1-1.48-1.5,2.44,2.44,0,0,1,2.36-2.53,2.09,2.09,0,0,1,.81.16l-.19.53a1.55,1.55,0,0,0-.66-.14,1.8,1.8,0,0,0-1.63,1.9.91.91,0,0,0,1,1,2.12,2.12,0,0,0,.9-.21Z" transform="translate(-5.43 -6.24)"/><path class="cls-9" d="M43.07,105.44l-.2,1h.93l-.11.52h-.93l-.36,1.87a3.47,3.47,0,0,0-.07.63.33.33,0,0,0,.37.37,1.48,1.48,0,0,0,.31,0l0,.52a1.49,1.49,0,0,1-.51.07.72.72,0,0,1-.82-.75,4.15,4.15,0,0,1,.08-.73l.39-2h-.56l.1-.52h.55l.17-.88Z" transform="translate(-5.43 -6.24)"/><path class="cls-9" d="M46.6,110.12a2.65,2.65,0,0,1-1.28.31,1.4,1.4,0,0,1-1.48-1.56A2.4,2.4,0,0,1,46,106.39a1,1,0,0,1,1.13,1c0,1-1.14,1.29-2.57,1.26a1.5,1.5,0,0,0,.08.74.88.88,0,0,0,.86.52,2.24,2.24,0,0,0,1-.27Zm-.74-3.21c-.63,0-1.1.61-1.26,1.22,1,0,1.85-.13,1.85-.73C46.45,107.08,46.21,106.91,45.86,106.91Z" transform="translate(-5.43 -6.24)"/><path class="cls-9" d="M47.43,110.35l.47-2.5c.1-.5.16-1,.2-1.37h.58c0,.27-.06.54-.1.83h0a1.41,1.41,0,0,1,1.19-.92H50l-.13.66-.17,0c-.58,0-1.09.7-1.26,1.6l-.32,1.71Z" transform="translate(-5.43 -6.24)"/><path class="cls-9" d="M50,110.35l.75-3.87h.66l-.74,3.87Zm.87-4.95a.44.44,0,0,1,.44-.45.38.38,0,0,1,.39.41.44.44,0,0,1-.45.45A.38.38,0,0,1,50.84,105.4Z" transform="translate(-5.43 -6.24)"/><path class="cls-9" d="M55.58,106.48l-.52,2.74c-.08.43-.14.81-.18,1.13h-.6l.11-.73h0a1.71,1.71,0,0,1-1.37.81c-.49,0-1-.24-1-1.12a3.27,3.27,0,0,1,.07-.64l.42-2.19h.66l-.41,2.15a2.52,2.52,0,0,0-.07.57c0,.4.17.67.62.67a1.6,1.6,0,0,0,1.26-1.41l.38-2Z" transform="translate(-5.43 -6.24)"/><path class="cls-9" d="M56,110.35l.52-2.75c.08-.43.14-.8.18-1.12h.58l-.1.72h0a1.66,1.66,0,0,1,1.36-.81.84.84,0,0,1,.9.86,1.67,1.67,0,0,1,1.43-.86.91.91,0,0,1,.93,1,4,4,0,0,1-.06.66l-.43,2.29h-.65l.42-2.24a2.65,2.65,0,0,0,0-.5c0-.41-.15-.67-.58-.67s-1,.56-1.21,1.42l-.37,2h-.64l.43-2.28a2.56,2.56,0,0,0,0-.47c0-.33-.08-.66-.57-.66s-1.09.64-1.24,1.46l-.36,1.95Z" transform="translate(-5.43 -6.24)"/><path class="cls-9" d="M66.48,110.35v-1.42H64.07v-.46l2.32-3.32h.76v3.23h.72v.55h-.72v1.42Zm0-2v-1.74q0-.4,0-.81h0c-.16.3-.28.53-.43.77l-1.27,1.76v0Z" transform="translate(-5.43 -6.24)"/><path class="cls-9" d="M70.75,106.61c0,1.1-.57,1.64-1.24,1.64s-1.21-.52-1.22-1.57.57-1.62,1.26-1.62S70.75,105.62,70.75,106.61Zm-1.9,0c0,.66.23,1.17.67,1.17s.68-.5.68-1.19-.19-1.16-.68-1.16S68.85,106,68.85,106.66Zm.61,3.77,3.05-5.37H73l-3,5.37Zm4.68-1.67c0,1.1-.58,1.64-1.24,1.64s-1.21-.52-1.22-1.56.57-1.63,1.26-1.63S74.14,107.77,74.14,108.76Zm-1.91,0c0,.66.25,1.17.68,1.17s.68-.5.68-1.19-.19-1.16-.68-1.16S72.23,108.15,72.23,108.81Z" transform="translate(-5.43 -6.24)"/><path class="cls-9" d="M6.32,90.17a2,2,0,0,0,1.14.34,1.06,1.06,0,0,0,1.17-1c0-.4-.23-.7-.79-1s-1.07-.8-1.07-1.38a1.67,1.67,0,0,1,1.82-1.59,2,2,0,0,1,1.1.29l-.24.54a1.73,1.73,0,0,0-.93-.25A1,1,0,0,0,7.45,87c0,.44.28.69.84,1a1.58,1.58,0,0,1,1,1.44,1.73,1.73,0,0,1-1.94,1.66,2.24,2.24,0,0,1-1.3-.37Z" transform="translate(-5.43 -6.24)"/><path class="cls-9" d="M13.71,87.13l-.52,2.74c-.08.43-.14.81-.18,1.13h-.6l.11-.73h0a1.7,1.7,0,0,1-1.37.82c-.49,0-1-.24-1-1.12a3.44,3.44,0,0,1,.07-.65l.42-2.19h.66l-.41,2.16a2.52,2.52,0,0,0-.07.57c0,.4.17.67.62.67a1.6,1.6,0,0,0,1.26-1.42l.37-2Z" transform="translate(-5.43 -6.24)"/><path class="cls-9" d="M15.85,85.32l-.51,2.51h0A1.62,1.62,0,0,1,16.72,87c.85,0,1.16.71,1.16,1.39a2.56,2.56,0,0,1-2.4,2.66c-.68,0-1.19-.28-1.19-1a4.07,4.07,0,0,1,.06-.6l.84-4.17ZM15,89.51A1.65,1.65,0,0,0,15,90c0,.37.2.58.62.58,1,0,1.61-1.19,1.61-2,0-.48-.21-.93-.74-.93s-1.17.6-1.36,1.51Z" transform="translate(-5.43 -6.24)"/><path class="cls-9" d="M22.49,85.32l-.85,4.46A8.93,8.93,0,0,0,21.47,91h-.61l.11-.77h0a1.66,1.66,0,0,1-1.39.86c-.75,0-1.16-.62-1.16-1.41A2.55,2.55,0,0,1,20.79,87a1.76,1.76,0,0,1,.69.14l.34-1.86Zm-1.12,2.42a1.17,1.17,0,0,0-.64-.16,1.9,1.9,0,0,0-1.64,2c0,.47.16,1,.72,1s1.13-.58,1.3-1.45Z" transform="translate(-5.43 -6.24)"/><path class="cls-9" d="M26.28,88.66a2.32,2.32,0,0,1-2.15,2.43,1.48,1.48,0,0,1-1.51-1.59A2.33,2.33,0,0,1,24.77,87,1.48,1.48,0,0,1,26.28,88.66Zm-3,.81c0,.63.34,1.09.91,1.09.78,0,1.38-1,1.38-1.91a1,1,0,0,0-.91-1.08C23.86,87.57,23.3,88.59,23.31,89.47Z" transform="translate(-5.43 -6.24)"/><path class="cls-9" d="M26.75,91l1.08-5.68h.66L27.41,91Z" transform="translate(-5.43 -6.24)"/><path class="cls-9" d="M28.57,91l.75-3.87H30L29.24,91Zm.87-5a.45.45,0,0,1,.44-.45.39.39,0,0,1,.39.42.44.44,0,0,1-.45.45A.38.38,0,0,1,29.44,86.05Z" transform="translate(-5.43 -6.24)"/><path class="cls-9" d="M30.45,91.88a2.06,2.06,0,0,0,1,.26c.65,0,1.16-.34,1.39-1.39l.13-.57h0a1.53,1.53,0,0,1-1.34.82,1.22,1.22,0,0,1-1.17-1.34A2.53,2.53,0,0,1,32.9,87a3.2,3.2,0,0,1,1.24.27l-.59,3.2a2.91,2.91,0,0,1-.78,1.73,2,2,0,0,1-1.36.43,2.31,2.31,0,0,1-1.16-.27Zm3-4.17a1.54,1.54,0,0,0-.64-.13,1.88,1.88,0,0,0-1.64,2c0,.42.16.92.75.92S33,89.75,33.17,89Z" transform="translate(-5.43 -6.24)"/><path class="cls-9" d="M34.6,91l.47-2.49c.1-.51.16-1,.2-1.38h.58c0,.27-.06.54-.1.84h0A1.41,1.41,0,0,1,37,87l.18,0-.13.65h-.17c-.58,0-1.09.69-1.26,1.6L35.26,91Z" transform="translate(-5.43 -6.24)"/><path class="cls-9" d="M39.59,91a9.57,9.57,0,0,1,.09-1h0a1.69,1.69,0,0,1-1.5,1.09,1.15,1.15,0,0,1-1.11-1.28A2.71,2.71,0,0,1,39.73,87a3.86,3.86,0,0,1,1,.15l-.39,2A9,9,0,0,0,40.21,91ZM40,87.63a1.54,1.54,0,0,0-.46-.06,2.07,2.07,0,0,0-1.83,2.12c0,.43.16.85.67.85s1.21-.71,1.4-1.75Z" transform="translate(-5.43 -6.24)"/><path class="cls-9" d="M41.2,91l.52-2.74c.09-.43.13-.81.18-1.13h.59l-.09.76h0A1.72,1.72,0,0,1,43.84,87a1,1,0,0,1,1,1.08,3.79,3.79,0,0,1-.07.63L44.33,91h-.67l.42-2.23a2.07,2.07,0,0,0,.06-.5c0-.39-.15-.68-.61-.68a1.71,1.71,0,0,0-1.32,1.53L41.86,91Z" transform="translate(-5.43 -6.24)"/><path class="cls-9" d="M49.2,87.13l-.52,2.74c-.08.43-.13.81-.17,1.13h-.6l.1-.73h0a1.73,1.73,0,0,1-1.37.82c-.5,0-1-.24-1-1.12a3.56,3.56,0,0,1,.08-.65l.41-2.19h.67l-.41,2.16a2.52,2.52,0,0,0-.07.57c0,.4.16.67.62.67S48,90,48.16,89.11l.38-2Z" transform="translate(-5.43 -6.24)"/><path class="cls-9" d="M49.65,91l1.08-5.68h.66L50.3,91Z" transform="translate(-5.43 -6.24)"/><path class="cls-9" d="M55.24,87.13l-.52,2.74c-.08.43-.13.81-.17,1.13H54l.1-.73h0a1.73,1.73,0,0,1-1.37.82c-.5,0-1-.24-1-1.12a3.56,3.56,0,0,1,.08-.65l.41-2.19h.67l-.41,2.16a2.52,2.52,0,0,0-.07.57c0,.4.16.67.62.67S54,90,54.2,89.11l.38-2Z" transform="translate(-5.43 -6.24)"/><path class="cls-9" d="M55.68,91l.52-2.74c.08-.43.13-.81.17-1.13H57l-.11.73h0A1.64,1.64,0,0,1,58.24,87a.84.84,0,0,1,.9.87A1.66,1.66,0,0,1,60.56,87a.92.92,0,0,1,.94,1,3.9,3.9,0,0,1-.07.65L61,91h-.64l.41-2.23a2.63,2.63,0,0,0,.06-.5c0-.41-.16-.68-.59-.68s-1,.56-1.2,1.43l-.38,2H58l.43-2.27a2.69,2.69,0,0,0,0-.47c0-.33-.09-.67-.58-.67s-1.08.64-1.23,1.47L56.33,91Z" transform="translate(-5.43 -6.24)"/><path class="cls-9" d="M66.15,91V89.59H63.73v-.47l2.32-3.32h.76V89h.73v.56h-.73V91Zm0-2V87.3c0-.27,0-.55,0-.82h0c-.16.31-.29.53-.43.77L64.45,89h1.7Z" transform="translate(-5.43 -6.24)"/><path class="cls-9" d="M70.42,87.27c0,1.09-.58,1.64-1.25,1.64S68,88.39,68,87.34s.57-1.62,1.25-1.62S70.42,86.27,70.42,87.27Zm-1.9,0c0,.67.23,1.17.67,1.17s.67-.49.67-1.18-.18-1.16-.67-1.16S68.52,86.66,68.52,87.31Zm.61,3.78,3.05-5.37h.45l-3.06,5.37Zm4.67-1.67c0,1.09-.57,1.64-1.24,1.64s-1.2-.52-1.21-1.56.57-1.63,1.25-1.63S73.8,88.43,73.8,89.42Zm-1.9,0c0,.66.25,1.16.68,1.16s.67-.49.67-1.18-.18-1.16-.67-1.16S71.9,88.81,71.9,89.47Z" transform="translate(-5.43 -6.24)"/><path class="cls-9" d="M9,12l-.06-.49h0a1.45,1.45,0,0,1-1.18.57A1.1,1.1,0,0,1,6.51,11c0-.93.83-1.44,2.33-1.44V9.46A.8.8,0,0,0,8,8.57a1.92,1.92,0,0,0-1,.29l-.16-.47a2.49,2.49,0,0,1,1.27-.34c1.19,0,1.48.81,1.48,1.58v1.45A5.32,5.32,0,0,0,9.6,12Zm-.1-2c-.77,0-1.64.12-1.64.87a.62.62,0,0,0,.66.68,1,1,0,0,0,.94-.65.85.85,0,0,0,0-.23Z" transform="translate(-5.43 -6.24)"/><path class="cls-9" d="M10.51,11.59a.48.48,0,1,1,.47.5A.47.47,0,0,1,10.51,11.59Z" transform="translate(-5.43 -6.24)"/><path class="cls-9" d="M37.88,50.49h2.91v.58H38.58v1.79h2v.58h-2v2.44h-.7Z" transform="translate(-5.43 -6.24)"/><path class="cls-9" d="M42.54,50.92a.44.44,0,0,1-.87,0,.43.43,0,0,1,.44-.44A.42.42,0,0,1,42.54,50.92Zm-.78,5V52h.7v3.87Z" transform="translate(-5.43 -6.24)"/><path class="cls-9" d="M43.63,53.21c0-.45,0-.84,0-1.2h.61l0,.76h0a1.16,1.16,0,0,1,1.07-.85l.2,0v.67a.83.83,0,0,0-.24,0,1,1,0,0,0-.94.91,1.47,1.47,0,0,0,0,.32v2.07h-.69Z" transform="translate(-5.43 -6.24)"/><path class="cls-9" d="M46.25,53.06c0-.4,0-.73,0-1.05h.62l0,.62h0a1.34,1.34,0,0,1,1.22-.71,1.15,1.15,0,0,1,1.1.78h0a1.57,1.57,0,0,1,.43-.51,1.38,1.38,0,0,1,.86-.27c.51,0,1.27.34,1.27,1.68v2.28h-.69V53.69c0-.75-.27-1.19-.84-1.19a.9.9,0,0,0-.83.63,1.3,1.3,0,0,0,0,.36v2.39h-.69V53.56c0-.62-.27-1.06-.81-1.06a1,1,0,0,0-.87.7.93.93,0,0,0-.06.34v2.34h-.68Z" transform="translate(-5.43 -6.24)"/><path class="cls-9" d="M53.7,50.92a.44.44,0,0,1-.87,0,.43.43,0,0,1,.44-.44A.42.42,0,0,1,53.7,50.92Zm-.78,5V52h.7v3.87Z" transform="translate(-5.43 -6.24)"/><path class="cls-9" d="M57.55,55.73a2.53,2.53,0,0,1-1.11.23,1.84,1.84,0,0,1-1.93-2,2,2,0,0,1,2.08-2,2.27,2.27,0,0,1,1,.2l-.16.54a1.67,1.67,0,0,0-.81-.18,1.46,1.46,0,0,0,0,2.91,2.16,2.16,0,0,0,.87-.19Z" transform="translate(-5.43 -6.24)"/><path class="cls-9" d="M61.61,54.82c0,.4,0,.75,0,1.06H61l0-.63h0a1.45,1.45,0,0,1-1.28.72c-.6,0-1.33-.34-1.33-1.7V52h.7v2.14c0,.74.23,1.23.87,1.23a1,1,0,0,0,1-1V52h.7Z" transform="translate(-5.43 -6.24)"/><path class="cls-9" d="M63.63,50.9V52h1v.53h-1v2.09c0,.48.13.75.53.75a1.25,1.25,0,0,0,.4-.05l0,.53A1.69,1.69,0,0,1,64,56a1,1,0,0,1-.76-.3,1.44,1.44,0,0,1-.27-1V52.54h-.6V52h.6v-.93Z" transform="translate(-5.43 -6.24)"/><path class="cls-9" d="M65.82,54.07a1.24,1.24,0,0,0,1.33,1.34,2.42,2.42,0,0,0,1.07-.2l.12.51a3.17,3.17,0,0,1-1.29.24,1.8,1.8,0,0,1-1.9-2A1.88,1.88,0,0,1,67,51.92a1.63,1.63,0,0,1,1.6,1.82,2.38,2.38,0,0,1,0,.33Zm2.06-.5a1,1,0,0,0-1-1.15,1.17,1.17,0,0,0-1.08,1.15Z" transform="translate(-5.43 -6.24)"/><path class="cls-9" d="M69.34,55.16a1.93,1.93,0,0,0,.93.28c.51,0,.75-.26.75-.58s-.2-.52-.72-.71c-.69-.25-1-.63-1-1.09a1.19,1.19,0,0,1,1.33-1.14,1.89,1.89,0,0,1,1,.24l-.17.51a1.55,1.55,0,0,0-.79-.22c-.42,0-.65.24-.65.53s.23.46.73.65c.68.26,1,.59,1,1.17S71.17,56,70.25,56a2.18,2.18,0,0,1-1.08-.27Z" transform="translate(-5.43 -6.24)"/><path class="cls-9" d="M37.88,40.39a7.26,7.26,0,0,1,1.28-.11,2.26,2.26,0,0,1,1.48.39,1.13,1.13,0,0,1,.44.95,1.28,1.28,0,0,1-.91,1.19h0a1.39,1.39,0,0,1,1.11,1.35,1.44,1.44,0,0,1-.45,1.08,2.7,2.7,0,0,1-1.87.51,6.86,6.86,0,0,1-1.08-.07Zm.7,2.21h.63c.74,0,1.17-.38,1.17-.9s-.48-.88-1.18-.88a3.61,3.61,0,0,0-.62,0Zm0,2.58a3.16,3.16,0,0,0,.58,0c.72,0,1.39-.26,1.39-1s-.63-1-1.39-1h-.58Z" transform="translate(-5.43 -6.24)"/><path class="cls-9" d="M44.34,45.71l-.06-.49h0a1.43,1.43,0,0,1-1.18.58,1.1,1.1,0,0,1-1.19-1.11c0-.94.83-1.45,2.33-1.44v-.08a.8.8,0,0,0-.88-.9,1.9,1.9,0,0,0-1,.29l-.16-.46a2.4,2.4,0,0,1,1.27-.35c1.19,0,1.48.81,1.48,1.58v1.45a5.25,5.25,0,0,0,.06.93Zm-.1-2c-.77,0-1.64.12-1.64.88a.62.62,0,0,0,.66.67,1,1,0,0,0,.94-.65.85.85,0,0,0,0-.22Z" transform="translate(-5.43 -6.24)"/><path class="cls-9" d="M48.81,45.57a2.68,2.68,0,0,1-1.11.22,1.84,1.84,0,0,1-1.93-2,2,2,0,0,1,2.08-2.05,2.33,2.33,0,0,1,1,.2l-.16.54a1.71,1.71,0,0,0-.82-.18,1.46,1.46,0,0,0,0,2.91,2,2,0,0,0,.86-.19Z" transform="translate(-5.43 -6.24)"/><path class="cls-9" d="M50.48,40.73v1.11h1v.54h-1v2.08c0,.48.14.75.53.75a1.86,1.86,0,0,0,.41,0l0,.52a1.59,1.59,0,0,1-.62.1,1,1,0,0,1-.76-.3,1.41,1.41,0,0,1-.27-1V42.38h-.6v-.54h.6v-.93Z" transform="translate(-5.43 -6.24)"/><path class="cls-9" d="M52.68,43.9A1.24,1.24,0,0,0,54,45.25a2.62,2.62,0,0,0,1.08-.2l.12.5a3.21,3.21,0,0,1-1.29.24A1.8,1.8,0,0,1,52,43.84a1.88,1.88,0,0,1,1.82-2.09,1.64,1.64,0,0,1,1.6,1.82c0,.15,0,.26,0,.33Zm2.06-.5a1,1,0,0,0-1-1.14,1.17,1.17,0,0,0-1.08,1.14Z" transform="translate(-5.43 -6.24)"/><path class="cls-9" d="M56.29,43.05c0-.46,0-.85,0-1.21h.62l0,.76h0A1.17,1.17,0,0,1,58,41.75a.6.6,0,0,1,.2,0v.66a.86.86,0,0,0-.24,0,1,1,0,0,0-.94.9,1.61,1.61,0,0,0,0,.33v2.06h-.7Z" transform="translate(-5.43 -6.24)"/><path class="cls-9" d="M62.41,43.74a1.9,1.9,0,0,1-1.93,2.06,1.84,1.84,0,0,1-1.85-2,1.89,1.89,0,0,1,1.92-2.06A1.83,1.83,0,0,1,62.41,43.74Zm-3.07,0c0,.85.49,1.49,1.18,1.49s1.17-.63,1.17-1.5c0-.66-.33-1.49-1.16-1.49S59.34,43.05,59.34,43.78Z" transform="translate(-5.43 -6.24)"/><path class="cls-9" d="M64.08,40.75a.41.41,0,0,1-.44.43.42.42,0,0,1-.43-.43.43.43,0,0,1,.44-.44A.41.41,0,0,1,64.08,40.75Zm-.78,5V41.84H64v3.87Z" transform="translate(-5.43 -6.24)"/><path class="cls-9" d="M68.51,40v4.68c0,.34,0,.74,0,1h-.63l0-.67h0a1.44,1.44,0,0,1-1.32.76,1.77,1.77,0,0,1-1.66-2,1.85,1.85,0,0,1,1.74-2.08,1.28,1.28,0,0,1,1.16.59h0V40Zm-.7,3.38a1.5,1.5,0,0,0,0-.29,1,1,0,0,0-1-.82c-.72,0-1.16.64-1.16,1.5s.39,1.43,1.15,1.43a1.06,1.06,0,0,0,1-.84,1.45,1.45,0,0,0,0-.3Z" transform="translate(-5.43 -6.24)"/><path class="cls-9" d="M70.08,43.9a1.24,1.24,0,0,0,1.32,1.35,2.53,2.53,0,0,0,1.07-.2l.12.5a3.12,3.12,0,0,1-1.28.24,1.8,1.8,0,0,1-1.91-1.95,1.88,1.88,0,0,1,1.82-2.09,1.64,1.64,0,0,1,1.6,1.82,2.06,2.06,0,0,1,0,.33Zm2.06-.5a1,1,0,0,0-1-1.14,1.17,1.17,0,0,0-1.08,1.14Z" transform="translate(-5.43 -6.24)"/><path class="cls-9" d="M74.54,40.73v1.11h1v.54h-1v2.08c0,.48.14.75.53.75a1.93,1.93,0,0,0,.41,0l0,.52a1.65,1.65,0,0,1-.63.1.93.93,0,0,1-.75-.3,1.36,1.36,0,0,1-.28-1V42.38h-.6v-.54h.6v-.93Z" transform="translate(-5.43 -6.24)"/><path class="cls-9" d="M76.73,43.9a1.25,1.25,0,0,0,1.33,1.35,2.57,2.57,0,0,0,1.07-.2l.12.5a3.17,3.17,0,0,1-1.29.24,1.79,1.79,0,0,1-1.9-1.95,1.88,1.88,0,0,1,1.82-2.09,1.63,1.63,0,0,1,1.59,1.82,2.38,2.38,0,0,1,0,.33Zm2.06-.5a1,1,0,0,0-1-1.14,1.17,1.17,0,0,0-1.08,1.14Z" transform="translate(-5.43 -6.24)"/><path class="cls-9" d="M80.25,45a1.83,1.83,0,0,0,.93.28c.51,0,.75-.26.75-.58s-.2-.52-.72-.71c-.69-.25-1-.63-1-1.09a1.19,1.19,0,0,1,1.33-1.14,1.93,1.93,0,0,1,1,.24l-.18.51a1.55,1.55,0,0,0-.79-.22c-.42,0-.65.24-.65.53s.23.46.74.65c.67.26,1,.59,1,1.17s-.53,1.16-1.45,1.16a2.18,2.18,0,0,1-1.08-.26Z" transform="translate(-5.43 -6.24)"/><path class="cls-9" d="M18.09,10.31,17.53,12h-.72l1.83-5.39h.84L21.32,12h-.74L20,10.31Zm1.77-.54-.53-1.55c-.12-.35-.2-.67-.28-1h0c-.08.32-.16.65-.27,1l-.53,1.56Z" transform="translate(-5.43 -6.24)"/><path class="cls-9" d="M22.11,12V8.67h-.55V8.14h.55V8a1.85,1.85,0,0,1,.44-1.35,1.4,1.4,0,0,1,.95-.36,1.78,1.78,0,0,1,.6.11L24,6.9a1,1,0,0,0-.45-.09c-.6,0-.75.53-.75,1.12v.21h.94v.53H22.8V12Z" transform="translate(-5.43 -6.24)"/><path class="cls-9" d="M24.37,9.34c0-.45,0-.84,0-1.2H25l0,.76h0a1.17,1.17,0,0,1,1.07-.85l.2,0v.67a.83.83,0,0,0-.24,0,1,1,0,0,0-.94.91,1.51,1.51,0,0,0,0,.32V12h-.7Z" transform="translate(-5.43 -6.24)"/><path class="cls-9" d="M27.8,7.05a.44.44,0,0,1-.87,0,.43.43,0,0,1,.44-.44A.42.42,0,0,1,27.8,7.05ZM27,12V8.14h.7V12Z" transform="translate(-5.43 -6.24)"/><path class="cls-9" d="M31.65,11.86a2.53,2.53,0,0,1-1.11.23,1.84,1.84,0,0,1-1.93-2,2,2,0,0,1,2.08-2,2.33,2.33,0,0,1,1,.2l-.17.54a1.56,1.56,0,0,0-.81-.18,1.34,1.34,0,0,0-1.37,1.46,1.33,1.33,0,0,0,1.35,1.45,1.94,1.94,0,0,0,.86-.2Z" transform="translate(-5.43 -6.24)"/><path class="cls-9" d="M34.62,12l-.06-.49h0a1.46,1.46,0,0,1-1.19.57A1.1,1.1,0,0,1,32.17,11c0-.93.83-1.44,2.33-1.44V9.46a.8.8,0,0,0-.88-.89,1.9,1.9,0,0,0-1,.29l-.16-.47a2.46,2.46,0,0,1,1.27-.34c1.19,0,1.47.81,1.47,1.58v1.45a5.26,5.26,0,0,0,.07.93Zm-.11-2c-.76,0-1.64.12-1.64.87a.63.63,0,0,0,.67.68,1,1,0,0,0,.93-.65.59.59,0,0,0,0-.23Z" transform="translate(-5.43 -6.24)"/><path class="cls-9" d="M36.33,9.18c0-.4,0-.72,0-1h.62l0,.64h0a1.42,1.42,0,0,1,1.28-.73c.53,0,1.36.32,1.36,1.65V12h-.7V9.78c0-.63-.23-1.15-.9-1.15a1,1,0,0,0-.94.72,1.09,1.09,0,0,0,0,.33V12h-.7Z" transform="translate(-5.43 -6.24)"/><path class="cls-9" d="M46.26,11.83a3.44,3.44,0,0,1-1.43.26,2.52,2.52,0,0,1-2.66-2.73A2.68,2.68,0,0,1,45,6.53a2.79,2.79,0,0,1,1.28.24l-.16.57A2.52,2.52,0,0,0,45,7.11a2,2,0,0,0-2.1,2.23A2,2,0,0,0,45,11.5a2.71,2.71,0,0,0,1.13-.22Z" transform="translate(-5.43 -6.24)"/><path class="cls-9" d="M47.11,6.33h.7V8.74h0a1.24,1.24,0,0,1,.5-.49,1.47,1.47,0,0,1,.72-.2c.52,0,1.35.32,1.35,1.65V12h-.7V9.78c0-.62-.24-1.15-.9-1.15a1,1,0,0,0-.94.71.82.82,0,0,0,0,.33V12h-.7Z" transform="translate(-5.43 -6.24)"/><path class="cls-9" d="M52.33,7.05a.44.44,0,0,1-.87,0,.43.43,0,0,1,.44-.44A.42.42,0,0,1,52.33,7.05Zm-.78,5V8.14h.7V12Z" transform="translate(-5.43 -6.24)"/><path class="cls-9" d="M53.42,6.33h.7V12h-.7Z" transform="translate(-5.43 -6.24)"/><path class="cls-9" d="M58.65,6.33V11c0,.34,0,.73,0,1h-.63l0-.68h0a1.42,1.42,0,0,1-1.32.76,1.76,1.76,0,0,1-1.65-2,1.85,1.85,0,0,1,1.73-2.08,1.31,1.31,0,0,1,1.17.59h0V6.33Zm-.71,3.38a.92.92,0,0,0,0-.29,1,1,0,0,0-1-.82c-.73,0-1.16.64-1.16,1.5s.38,1.43,1.14,1.43a1.06,1.06,0,0,0,1-.84,1,1,0,0,0,0-.31Z" transform="translate(-5.43 -6.24)"/><path class="cls-9" d="M59.82,9.34c0-.45,0-.84,0-1.2h.61l0,.76h0a1.16,1.16,0,0,1,1.07-.85l.2,0v.67a.88.88,0,0,0-.24,0,1,1,0,0,0-1,.91,2.69,2.69,0,0,0,0,.32V12h-.69Z" transform="translate(-5.43 -6.24)"/><path class="cls-9" d="M62.75,10.2a1.23,1.23,0,0,0,1.32,1.34,2.38,2.38,0,0,0,1.07-.2l.12.51a3.12,3.12,0,0,1-1.28.24,1.81,1.81,0,0,1-1.91-1.95,1.88,1.88,0,0,1,1.82-2.09,1.64,1.64,0,0,1,1.6,1.82,2.06,2.06,0,0,1,0,.33Zm2.06-.5a1,1,0,0,0-1-1.15A1.18,1.18,0,0,0,62.75,9.7Z" transform="translate(-5.43 -6.24)"/><path class="cls-9" d="M66.36,9.18c0-.4,0-.72,0-1H67l0,.64h0a1.42,1.42,0,0,1,1.28-.73c.53,0,1.37.32,1.37,1.65V12H69V9.78c0-.63-.23-1.15-.89-1.15a1,1,0,0,0-1,.72,1.09,1.09,0,0,0,0,.33V12h-.7Z" transform="translate(-5.43 -6.24)"/><rect class="cls-1" x="247.03" y="30.79" width="85.87" height="21.71"/><path class="cls-6" d="M395.49,102.67l63.65,6.59a63.72,63.72,0,0,0-49.35-69Z" transform="translate(-5.43 -6.24)"/><path class="cls-10" d="M395.49,102.67l42.06,48.23c12.79-11.15,19.85-24.77,21.59-41.64Z" transform="translate(-5.43 -6.24)"/><path class="cls-5" d="M395.49,102.67l-48.23,42.06a64,64,0,0,0,90.29,6.17h0Z" transform="translate(-5.43 -6.24)"/><path class="cls-4" d="M395.49,102.67l-58.87,25.1a60.76,60.76,0,0,0,10.64,17Z" transform="translate(-5.43 -6.24)"/><path class="cls-3" d="M395.49,102.67l-63-11a62.3,62.3,0,0,0,4.17,36.11Z" transform="translate(-5.43 -6.24)"/><path class="cls-2" d="M395.49,102.67l-1.22-64a63.25,63.25,0,0,0-61.82,53Z" transform="translate(-5.43 -6.24)"/><path class="cls-7" d="M395.49,102.67l14.3-62.38a59.61,59.61,0,0,0-15.52-1.61Z" transform="translate(-5.43 -6.24)"/><rect class="cls-7" x="250.23" y="34.23" width="5" height="5"/><rect class="cls-10" x="250.23" y="44.25" width="5" height="5"/><rect class="cls-6" x="256.26" y="34.23" width="5" height="5"/><rect class="cls-5" x="256.26" y="44.25" width="5" height="5"/><rect class="cls-4" x="262.29" y="44.25" width="5" height="5"/><rect class="cls-3" x="268.32" y="44.25" width="5" height="5"/><rect class="cls-2" x="274.41" y="44.25" width="5" height="5"/><polyline class="cls-8" points="438.54 123.65 467.2 138.31 467.2 148.31"/><line class="cls-8" x1="398.05" y1="24.36" x2="395.87" y2="38.31"/><line class="cls-8" x1="334.46" y1="105.5" x2="307.38" y2="110.31"/><line class="cls-8" x1="340.2" y1="128.9" x2="328.08" y2="136.04"/><path class="cls-9" d="M363.21,70.71a2.52,2.52,0,0,1-2.5,2.84,2.47,2.47,0,0,1-2.42-2.73,2.56,2.56,0,0,1,2.5-2.83A2.45,2.45,0,0,1,363.21,70.71ZM359,70.8c0,1.15.62,2.19,1.72,2.19s1.73-1,1.73-2.24-.56-2.19-1.72-2.19S359,69.62,359,70.8Z" transform="translate(-5.43 -6.24)"/><path class="cls-9" d="M364.94,68.48v1.11h1v.54h-1v2.09c0,.48.14.75.53.75a1.37,1.37,0,0,0,.41,0l0,.53a1.89,1.89,0,0,1-.62.09,1,1,0,0,1-.76-.29,1.44,1.44,0,0,1-.28-1V70.13h-.6v-.54h.6v-.92Z" transform="translate(-5.43 -6.24)"/><path class="cls-9" d="M366.74,67.79h.71V70.2h0a1.27,1.27,0,0,1,.51-.49,1.41,1.41,0,0,1,.72-.2c.52,0,1.35.32,1.35,1.65v2.3h-.71V71.24c0-.62-.23-1.15-.89-1.15a1,1,0,0,0-.95.7.88.88,0,0,0,0,.34v2.33h-.71Z" transform="translate(-5.43 -6.24)"/><path class="cls-9" d="M371.57,71.66A1.24,1.24,0,0,0,372.9,73a2.53,2.53,0,0,0,1.07-.2l.12.5a3,3,0,0,1-1.28.24,1.8,1.8,0,0,1-1.91-2,1.88,1.88,0,0,1,1.82-2.08,1.64,1.64,0,0,1,1.6,1.82,2.19,2.19,0,0,1,0,.33Zm2.07-.51a1,1,0,0,0-1-1.14,1.17,1.17,0,0,0-1.08,1.14Z" transform="translate(-5.43 -6.24)"/><path class="cls-9" d="M375.19,70.8c0-.45,0-.84,0-1.21h.61l0,.76h0a1.16,1.16,0,0,1,1.07-.84.62.62,0,0,1,.2,0v.66l-.24,0a1,1,0,0,0-.94.9,1.69,1.69,0,0,0,0,.33v2.06h-.7Z" transform="translate(-5.43 -6.24)"/><path class="cls-9" d="M377.71,72.75a1.93,1.93,0,0,0,.93.28c.51,0,.75-.26.75-.58s-.2-.52-.72-.71c-.7-.25-1-.63-1-1.1A1.19,1.19,0,0,1,379,69.51a1.89,1.89,0,0,1,.95.24l-.17.51A1.46,1.46,0,0,0,379,70c-.42,0-.65.23-.65.52s.23.47.73.66c.68.25,1,.59,1,1.17s-.53,1.15-1.45,1.15a2.25,2.25,0,0,1-1.09-.26Z" transform="translate(-5.43 -6.24)"/><path class="cls-9" d="M362.28,83.06v-.43l.55-.53c1.33-1.27,1.93-1.94,1.94-2.72a.93.93,0,0,0-1-1,1.76,1.76,0,0,0-1.1.44l-.23-.49a2.25,2.25,0,0,1,1.47-.53,1.46,1.46,0,0,1,1.59,1.51c0,1-.69,1.74-1.79,2.79l-.41.38v0h2.33v.58Z" transform="translate(-5.43 -6.24)"/><path class="cls-9" d="M366.39,83.06v-.43l.55-.53c1.33-1.27,1.93-1.94,1.93-2.72a.93.93,0,0,0-1-1,1.76,1.76,0,0,0-1.1.44l-.23-.49a2.29,2.29,0,0,1,1.48-.53,1.46,1.46,0,0,1,1.59,1.51c0,1-.7,1.74-1.79,2.79l-.42.38v0h2.34v.58Z" transform="translate(-5.43 -6.24)"/><path class="cls-9" d="M372.83,79.33c0,1.1-.57,1.64-1.24,1.64s-1.21-.52-1.22-1.57.57-1.62,1.26-1.62S372.83,78.34,372.83,79.33Zm-1.9,0c0,.66.23,1.17.67,1.17s.67-.5.67-1.19-.18-1.16-.67-1.16S370.93,78.72,370.93,79.38Zm.61,3.77,3-5.37H375L372,83.15Zm4.68-1.67c0,1.1-.58,1.64-1.24,1.64s-1.21-.52-1.22-1.56.57-1.63,1.26-1.63S376.22,80.49,376.22,81.48Zm-1.91,0c0,.66.25,1.17.68,1.17s.68-.5.68-1.19-.19-1.16-.68-1.16S374.31,80.87,374.31,81.53Z" transform="translate(-5.43 -6.24)"/><path class="cls-9" d="M254.41,117.51a2,2,0,0,0,1.14.34,1.06,1.06,0,0,0,1.17-1c0-.4-.23-.7-.79-1s-1.07-.8-1.07-1.38a1.67,1.67,0,0,1,1.82-1.58,2,2,0,0,1,1.1.28l-.24.54a1.76,1.76,0,0,0-.93-.25,1,1,0,0,0-1.07.88c0,.44.28.69.84,1a1.58,1.58,0,0,1,1,1.44,1.74,1.74,0,0,1-2,1.66,2.15,2.15,0,0,1-1.29-.37Z" transform="translate(-5.43 -6.24)"/><path class="cls-9" d="M261.8,114.47l-.52,2.74c-.08.44-.14.81-.18,1.13h-.6l.11-.73h0a1.71,1.71,0,0,1-1.37.82c-.49,0-1-.24-1-1.12a3.44,3.44,0,0,1,.07-.65l.42-2.19h.66l-.41,2.16a2.52,2.52,0,0,0-.07.57c0,.4.17.67.62.67a1.6,1.6,0,0,0,1.26-1.41l.37-2Z" transform="translate(-5.43 -6.24)"/><path class="cls-9" d="M263.94,112.67l-.51,2.51h0a1.64,1.64,0,0,1,1.36-.8c.84,0,1.16.71,1.16,1.4a2.56,2.56,0,0,1-2.4,2.65c-.68,0-1.19-.28-1.19-1a4.07,4.07,0,0,1,.06-.6l.84-4.16Zm-.84,4.18a1.65,1.65,0,0,0,0,.48c0,.37.2.58.62.58,1,0,1.61-1.19,1.61-2,0-.48-.21-.92-.74-.92s-1.17.59-1.36,1.5Z" transform="translate(-5.43 -6.24)"/><path class="cls-9" d="M270.57,112.67l-.84,4.45a9.15,9.15,0,0,0-.17,1.22H269l.1-.77h0a1.64,1.64,0,0,1-1.39.86c-.75,0-1.16-.62-1.16-1.41a2.55,2.55,0,0,1,2.39-2.64,1.76,1.76,0,0,1,.69.14l.34-1.85Zm-1.11,2.41a1.17,1.17,0,0,0-.64-.16,1.9,1.9,0,0,0-1.64,2c0,.47.16,1,.72,1s1.13-.59,1.3-1.46Z" transform="translate(-5.43 -6.24)"/><path class="cls-9" d="M274.37,116a2.32,2.32,0,0,1-2.15,2.43,1.47,1.47,0,0,1-1.51-1.59,2.33,2.33,0,0,1,2.14-2.46A1.49,1.49,0,0,1,274.37,116Zm-3,.81c0,.64.34,1.09.91,1.09.78,0,1.38-1,1.38-1.91a1,1,0,0,0-.91-1.08C272,114.91,271.39,115.93,271.4,116.81Z" transform="translate(-5.43 -6.24)"/><path class="cls-9" d="M274.84,118.34l1.08-5.67h.66l-1.08,5.67Z" transform="translate(-5.43 -6.24)"/><path class="cls-9" d="M276.66,118.34l.75-3.87h.66l-.74,3.87Zm.87-5a.45.45,0,0,1,.44-.45.39.39,0,0,1,.39.42.44.44,0,0,1-.45.45A.38.38,0,0,1,277.53,113.39Z" transform="translate(-5.43 -6.24)"/><path class="cls-9" d="M278.54,119.22a2,2,0,0,0,1,.26c.65,0,1.16-.34,1.39-1.39l.13-.57h0a1.53,1.53,0,0,1-1.34.82,1.21,1.21,0,0,1-1.17-1.34,2.53,2.53,0,0,1,2.45-2.62,3,3,0,0,1,1.24.28l-.59,3.19a2.86,2.86,0,0,1-.79,1.73,2,2,0,0,1-1.35.43,2.31,2.31,0,0,1-1.16-.27Zm3-4.17a1.54,1.54,0,0,0-.64-.13,1.87,1.87,0,0,0-1.64,2c0,.42.16.92.75.92s1.14-.72,1.28-1.48Z" transform="translate(-5.43 -6.24)"/><path class="cls-9" d="M282.69,118.34l.47-2.49c.1-.51.16-1,.2-1.38h.58c0,.27-.06.55-.1.84h0a1.41,1.41,0,0,1,1.19-.93l.18,0-.13.66-.17,0c-.58,0-1.09.7-1.26,1.6l-.32,1.7Z" transform="translate(-5.43 -6.24)"/><path class="cls-9" d="M287.68,118.34a9.57,9.57,0,0,1,.09-1h0a1.69,1.69,0,0,1-1.5,1.09,1.14,1.14,0,0,1-1.11-1.28,2.7,2.7,0,0,1,2.67-2.77,3.5,3.5,0,0,1,1,.16l-.39,2a9.16,9.16,0,0,0-.17,1.79Zm.43-3.37a1.54,1.54,0,0,0-.46-.06,2.07,2.07,0,0,0-1.83,2.12c0,.43.15.86.67.86s1.2-.72,1.4-1.76Z" transform="translate(-5.43 -6.24)"/><path class="cls-9" d="M289.29,118.34l.52-2.74c.08-.43.13-.81.18-1.13h.59l-.09.76h0a1.72,1.72,0,0,1,1.43-.85,1,1,0,0,1,1,1.08,3.79,3.79,0,0,1-.07.63l-.44,2.25h-.66l.42-2.23a2,2,0,0,0,.06-.49c0-.4-.15-.68-.61-.68a1.7,1.7,0,0,0-1.32,1.52l-.35,1.88Z" transform="translate(-5.43 -6.24)"/><path class="cls-9" d="M297.29,114.47l-.52,2.74c-.08.44-.13.81-.17,1.13H296l.1-.73h0a1.7,1.7,0,0,1-1.36.82c-.5,0-1-.24-1-1.12a4.53,4.53,0,0,1,.07-.65l.42-2.19h.66l-.4,2.16a2.59,2.59,0,0,0-.08.57c0,.4.17.67.63.67s1.09-.56,1.25-1.41l.38-2Z" transform="translate(-5.43 -6.24)"/><path class="cls-9" d="M297.73,118.34l1.08-5.67h.67l-1.09,5.67Z" transform="translate(-5.43 -6.24)"/><path class="cls-9" d="M303.33,114.47l-.52,2.74c-.08.44-.13.81-.17,1.13H302l.1-.73h0a1.73,1.73,0,0,1-1.37.82c-.5,0-1-.24-1-1.12a4.53,4.53,0,0,1,.07-.65l.42-2.19h.66l-.4,2.16a2.59,2.59,0,0,0-.08.57c0,.4.17.67.63.67s1.09-.56,1.25-1.41l.38-2Z" transform="translate(-5.43 -6.24)"/><path class="cls-9" d="M303.77,118.34l.52-2.74c.08-.43.13-.81.17-1.13h.59l-.11.73h0a1.64,1.64,0,0,1,1.36-.82.84.84,0,0,1,.9.87,1.66,1.66,0,0,1,1.42-.87.92.92,0,0,1,.94,1,3.9,3.9,0,0,1-.07.65l-.43,2.29h-.65l.42-2.23a2.63,2.63,0,0,0,.06-.5c0-.41-.16-.67-.59-.67s-1,.56-1.2,1.42l-.38,2h-.64l.43-2.27a2.69,2.69,0,0,0,0-.47c0-.33-.09-.66-.58-.66s-1.08.64-1.24,1.46l-.36,1.94Z" transform="translate(-5.43 -6.24)"/><path class="cls-9" d="M254.84,126.85a3,3,0,0,0,.57,0,1.93,1.93,0,0,0,1.09-.5,2.27,2.27,0,0,0,.68-1.38h0a1.56,1.56,0,0,1-2.76-1,1.78,1.78,0,0,1,1.77-1.84c1.07,0,1.72.86,1.72,2.19a3.31,3.31,0,0,1-.89,2.44,2.57,2.57,0,0,1-1.51.69,3.16,3.16,0,0,1-.65,0Zm.26-3a1,1,0,0,0,1,1.1,1.17,1.17,0,0,0,1-.54.5.5,0,0,0,.06-.26c0-.89-.33-1.57-1.06-1.57S255.1,123.12,255.1,123.86Z" transform="translate(-5.43 -6.24)"/><path class="cls-9" d="M260.88,123.61c0,1.09-.58,1.64-1.25,1.64s-1.21-.52-1.21-1.57.56-1.62,1.25-1.62S260.88,122.62,260.88,123.61Zm-1.9,0c0,.66.23,1.16.67,1.16s.67-.49.67-1.18-.19-1.16-.67-1.16S259,123,259,123.66Zm.6,3.77,3.06-5.37h.44L260,127.43Zm4.68-1.67c0,1.09-.58,1.64-1.24,1.64s-1.21-.52-1.21-1.56.56-1.63,1.25-1.63S264.26,124.77,264.26,125.76Zm-1.9,0c0,.66.25,1.16.68,1.16s.67-.49.67-1.18-.19-1.16-.67-1.16S262.36,125.15,262.36,125.81Z" transform="translate(-5.43 -6.24)"/><path class="cls-9" d="M287.82,140a6.12,6.12,0,0,1,1.18-.12,1.9,1.9,0,0,1,1.28.39,1.17,1.17,0,0,1,.4.9,1.69,1.69,0,0,1-1.28,1.56h0c.37.13.56.53.6,1.09a9,9,0,0,0,.16,1.48h-.68a10.27,10.27,0,0,1-.13-1.3c0-.74-.31-1.05-.85-1.05h-.59l-.44,2.35h-.66Zm.19,2.45h.59a1.27,1.27,0,0,0,1.39-1.2c0-.58-.43-.83-1-.83a2.35,2.35,0,0,0-.56,0Z" transform="translate(-5.43 -6.24)"/><path class="cls-9" d="M294.67,143a2.31,2.31,0,0,1-2.14,2.43,1.47,1.47,0,0,1-1.51-1.59,2.32,2.32,0,0,1,2.14-2.46A1.47,1.47,0,0,1,294.67,143Zm-3,.81c0,.63.34,1.09.91,1.09.78,0,1.38-1,1.38-1.91a1,1,0,0,0-.91-1.08C292.26,141.86,291.7,142.87,291.71,143.76Z" transform="translate(-5.43 -6.24)"/><path class="cls-9" d="M295.17,144.62a1.81,1.81,0,0,0,.83.24.67.67,0,0,0,.74-.63c0-.31-.14-.49-.54-.72a1.15,1.15,0,0,1-.69-1,1.27,1.27,0,0,1,1.4-1.2,1.71,1.71,0,0,1,.81.19l-.19.51a1.35,1.35,0,0,0-.67-.18.62.62,0,0,0-.69.58c0,.28.19.46.53.65a1.24,1.24,0,0,1,.73,1,1.32,1.32,0,0,1-1.48,1.27,1.75,1.75,0,0,1-1-.26Z" transform="translate(-5.43 -6.24)"/><path class="cls-9" d="M300.92,145.07a2.77,2.77,0,0,1-1.28.3,1.39,1.39,0,0,1-1.47-1.55,2.4,2.4,0,0,1,2.11-2.49,1,1,0,0,1,1.13,1c0,1-1.14,1.29-2.57,1.27a1.47,1.47,0,0,0,.08.73.87.87,0,0,0,.86.52,2.13,2.13,0,0,0,1-.27Zm-.74-3.22c-.63,0-1.1.62-1.26,1.22,1,0,1.85-.12,1.85-.72C300.77,142,300.53,141.85,300.18,141.85Z" transform="translate(-5.43 -6.24)"/><path class="cls-9" d="M303.46,139.61l-.51,2.51h0a1.64,1.64,0,0,1,1.36-.79c.85,0,1.17.71,1.17,1.39a2.56,2.56,0,0,1-2.41,2.66c-.67,0-1.19-.28-1.19-1a3,3,0,0,1,.07-.6l.84-4.17Zm-.84,4.18a1.72,1.72,0,0,0-.05.49c0,.37.21.58.63.58,1,0,1.6-1.19,1.6-2.05,0-.48-.2-.93-.73-.93s-1.17.59-1.36,1.51Z" transform="translate(-5.43 -6.24)"/><path class="cls-9" d="M309.72,141.42l-.52,2.74c-.08.43-.13.81-.17,1.13h-.6l.1-.73h0a1.73,1.73,0,0,1-1.37.82c-.5,0-1-.24-1-1.12a3.46,3.46,0,0,1,.08-.65l.41-2.19h.67l-.41,2.16a2.51,2.51,0,0,0-.08.57c0,.4.17.67.63.67s1.09-.56,1.25-1.42l.38-2Z" transform="translate(-5.43 -6.24)"/><path class="cls-9" d="M310.16,145.29l.47-2.5c.09-.5.16-1,.2-1.37h.58c0,.27-.06.54-.1.84h0a1.41,1.41,0,0,1,1.19-.93l.18,0-.13.65h-.17c-.58,0-1.09.69-1.26,1.6l-.32,1.7Z" transform="translate(-5.43 -6.24)"/><path class="cls-9" d="M312.7,145.29l.75-3.87h.66l-.74,3.87Zm.87-4.95a.43.43,0,0,1,.43-.45.39.39,0,0,1,.4.42.45.45,0,0,1-.45.45A.38.38,0,0,1,313.57,140.34Z" transform="translate(-5.43 -6.24)"/><path class="cls-9" d="M317.1,145.29a9.57,9.57,0,0,1,.09-1h0a1.69,1.69,0,0,1-1.5,1.09,1.15,1.15,0,0,1-1.11-1.28,2.7,2.7,0,0,1,2.68-2.77,3.86,3.86,0,0,1,1,.15l-.39,2a9.16,9.16,0,0,0-.17,1.79Zm.43-3.37a1.54,1.54,0,0,0-.46-.06,2.07,2.07,0,0,0-1.83,2.12c0,.43.16.85.67.85s1.21-.72,1.4-1.75Z" transform="translate(-5.43 -6.24)"/><path class="cls-9" d="M323.64,140.68h-2l-.2,1.34a2.34,2.34,0,0,1,.42,0,2.22,2.22,0,0,1,1.12.28,1.48,1.48,0,0,1,.75,1.33,1.81,1.81,0,0,1-1.94,1.78,2.49,2.49,0,0,1-1.29-.32l.17-.54a2.32,2.32,0,0,0,1.11.29,1.15,1.15,0,0,0,1.24-1.13c0-.67-.46-1.15-1.5-1.15a4.41,4.41,0,0,0-.72.06l.34-2.5h2.48Z" transform="translate(-5.43 -6.24)"/><path class="cls-9" d="M327,141.55c0,1.1-.58,1.64-1.25,1.64s-1.21-.52-1.22-1.56.57-1.63,1.26-1.63S327,140.56,327,141.55Zm-1.91,0c0,.67.24,1.17.67,1.17s.68-.5.68-1.18-.19-1.16-.68-1.16S325.08,141,325.08,141.6Zm.61,3.78,3.06-5.38h.44l-3.05,5.38Zm4.68-1.67c0,1.09-.58,1.63-1.24,1.63s-1.21-.51-1.22-1.55.57-1.64,1.26-1.64S330.37,142.71,330.37,143.71Zm-1.9,0c0,.67.24,1.17.68,1.17s.67-.49.67-1.18-.19-1.16-.67-1.16S328.47,143.1,328.47,143.75Z" transform="translate(-5.43 -6.24)"/><path class="cls-9" d="M439.48,161.37l-.86,1.7h-.7l2.79-5.39h.78l.74,5.39h-.68l-.21-1.7Zm1.8-.53-.2-1.56c0-.28-.08-.67-.1-1h0c-.14.32-.28.65-.44,1l-.8,1.57Z" transform="translate(-5.43 -6.24)"/><path class="cls-9" d="M445.48,162.92a2.78,2.78,0,0,1-1.12.23,1.38,1.38,0,0,1-1.48-1.49,2.45,2.45,0,0,1,2.36-2.54,1.88,1.88,0,0,1,.81.17l-.19.53a1.4,1.4,0,0,0-.66-.15,1.81,1.81,0,0,0-1.64,1.91.91.91,0,0,0,1,1,2,2,0,0,0,.9-.22Z" transform="translate(-5.43 -6.24)"/><path class="cls-9" d="M448.92,162.85a2.74,2.74,0,0,1-1.28.3,1.4,1.4,0,0,1-1.47-1.55,2.4,2.4,0,0,1,2.11-2.49,1,1,0,0,1,1.14,1c0,1-1.14,1.29-2.58,1.27a1.71,1.71,0,0,0,.08.73.89.89,0,0,0,.87.52,2.16,2.16,0,0,0,1-.27Zm-.73-3.22c-.63,0-1.11.62-1.27,1.23,1,0,1.86-.13,1.86-.73C448.78,159.81,448.54,159.63,448.19,159.63Z" transform="translate(-5.43 -6.24)"/><path class="cls-9" d="M451.49,158.16l-.2,1h.93l-.1.52h-.93l-.36,1.88a3.27,3.27,0,0,0-.07.62.33.33,0,0,0,.36.37l.32,0,0,.52a1.79,1.79,0,0,1-.51.07.72.72,0,0,1-.81-.75,3.32,3.32,0,0,1,.08-.73l.38-2H450l.1-.52h.56l.16-.87Z" transform="translate(-5.43 -6.24)"/><path class="cls-9" d="M452.26,163.07l.74-3.87h.67l-.75,3.87Zm.87-4.95a.44.44,0,0,1,.43-.45.39.39,0,0,1,.4.42.45.45,0,0,1-.45.45A.38.38,0,0,1,453.13,158.12Z" transform="translate(-5.43 -6.24)"/><path class="cls-9" d="M455.83,158.16l-.2,1h.92l-.1.52h-.93l-.36,1.88a3.27,3.27,0,0,0-.07.62.33.33,0,0,0,.37.37l.31,0,0,.52a1.79,1.79,0,0,1-.51.07.72.72,0,0,1-.82-.75,4.06,4.06,0,0,1,.08-.73l.39-2h-.56l.1-.52H455l.17-.87Z" transform="translate(-5.43 -6.24)"/><path class="cls-9" d="M460.27,160.73a2.31,2.31,0,0,1-2.14,2.43,1.47,1.47,0,0,1-1.51-1.59,2.33,2.33,0,0,1,2.14-2.46A1.47,1.47,0,0,1,460.27,160.73Zm-3,.81c0,.63.34,1.09.91,1.09.78,0,1.37-1,1.37-1.91,0-.45-.2-1.08-.9-1.08S457.3,160.66,457.31,161.54Z" transform="translate(-5.43 -6.24)"/><path class="cls-9" d="M460.74,163.07l.52-2.74c.08-.43.14-.81.18-1.13H462l-.1.73h0a1.65,1.65,0,0,1,1.36-.82.84.84,0,0,1,.9.87,1.68,1.68,0,0,1,1.43-.87.92.92,0,0,1,.93,1,3.83,3.83,0,0,1-.06.65l-.43,2.29h-.65l.41-2.23a2,2,0,0,0,.06-.5c0-.41-.15-.68-.58-.68s-1.05.56-1.21,1.43l-.38,2h-.64l.43-2.27a2,2,0,0,0,.05-.47c0-.33-.09-.67-.57-.67s-1.09.64-1.24,1.47l-.36,1.94Z" transform="translate(-5.43 -6.24)"/><path class="cls-9" d="M469.77,163.07a9.57,9.57,0,0,1,.09-1h0a1.69,1.69,0,0,1-1.5,1.09,1.15,1.15,0,0,1-1.11-1.28,2.71,2.71,0,0,1,2.68-2.77,4,4,0,0,1,1,.15l-.4,2a9,9,0,0,0-.16,1.79Zm.43-3.37a1.49,1.49,0,0,0-.46-.06,2.06,2.06,0,0,0-1.82,2.12c0,.43.15.85.66.85s1.21-.71,1.4-1.75Z" transform="translate(-5.43 -6.24)"/><path class="cls-9" d="M474,162.92a2.78,2.78,0,0,1-1.12.23,1.38,1.38,0,0,1-1.48-1.49,2.45,2.45,0,0,1,2.36-2.54,1.88,1.88,0,0,1,.81.17l-.19.53a1.4,1.4,0,0,0-.66-.15,1.81,1.81,0,0,0-1.64,1.91.91.91,0,0,0,1,1,2,2,0,0,0,.9-.22Z" transform="translate(-5.43 -6.24)"/><path class="cls-9" d="M478.54,159.2l-.52,2.74c-.08.43-.14.81-.18,1.13h-.6l.11-.73h0a1.71,1.71,0,0,1-1.37.82c-.49,0-1-.24-1-1.12a3.36,3.36,0,0,1,.07-.65l.42-2.19h.66l-.41,2.16a2.52,2.52,0,0,0-.07.57c0,.4.17.67.62.67a1.6,1.6,0,0,0,1.26-1.42l.37-2Z" transform="translate(-5.43 -6.24)"/><path class="cls-9" d="M479,163.07l1.08-5.68h.66l-1.08,5.68Z" transform="translate(-5.43 -6.24)"/><path class="cls-9" d="M484.58,159.2l-.52,2.74c-.08.43-.14.81-.18,1.13h-.6l.11-.73h0a1.71,1.71,0,0,1-1.37.82c-.49,0-1-.24-1-1.12a3.36,3.36,0,0,1,.07-.65l.42-2.19h.66l-.41,2.16a2.52,2.52,0,0,0-.07.57c0,.4.17.67.62.67a1.6,1.6,0,0,0,1.26-1.42l.37-2Z" transform="translate(-5.43 -6.24)"/><path class="cls-9" d="M485,163.07l.52-2.74c.08-.43.14-.81.18-1.13h.58l-.1.73h0a1.65,1.65,0,0,1,1.36-.82.84.84,0,0,1,.9.87,1.68,1.68,0,0,1,1.43-.87.92.92,0,0,1,.93,1,3.83,3.83,0,0,1-.06.65l-.43,2.29h-.65l.42-2.23a2.65,2.65,0,0,0,.05-.5c0-.41-.15-.68-.58-.68s-1.05.56-1.21,1.43l-.38,2h-.64l.44-2.27a2.63,2.63,0,0,0,0-.47c0-.33-.08-.67-.57-.67s-1.09.64-1.24,1.47l-.36,1.94Z" transform="translate(-5.43 -6.24)"/><path class="cls-9" d="M494.83,158.53h0l-.9.49-.14-.54,1.13-.61h.6v5.2h-.68Z" transform="translate(-5.43 -6.24)"/><path class="cls-9" d="M497.41,163.07v-.43l.55-.54c1.33-1.26,1.93-1.93,1.94-2.72a.93.93,0,0,0-1-1,1.77,1.77,0,0,0-1.11.44l-.22-.5a2.29,2.29,0,0,1,1.47-.52,1.46,1.46,0,0,1,1.59,1.51c0,1-.69,1.73-1.79,2.79l-.42.38v0h2.34v.58Z" transform="translate(-5.43 -6.24)"/><path class="cls-9" d="M503.86,159.34c0,1.09-.58,1.64-1.25,1.64s-1.21-.52-1.21-1.57.56-1.62,1.25-1.62S503.86,158.34,503.86,159.34Zm-1.9,0c0,.67.23,1.17.67,1.17s.67-.49.67-1.18-.19-1.16-.67-1.16S502,158.73,502,159.38Zm.6,3.78,3.06-5.37h.44L503,163.16Zm4.68-1.67c0,1.09-.58,1.64-1.24,1.64s-1.21-.52-1.21-1.56.56-1.63,1.25-1.63S507.24,160.5,507.24,161.49Zm-1.9,0c0,.66.24,1.16.68,1.16s.67-.49.67-1.18-.19-1.16-.67-1.16S505.34,160.88,505.34,161.54Z" transform="translate(-5.43 -6.24)"/><path class="cls-9" d="M365.68,136.2h2.73l-.1.57h-2.07l-.35,1.82h1.91l-.12.56h-1.9l-.46,2.44h-.67Z" transform="translate(-5.43 -6.24)"/><path class="cls-9" d="M370.92,141.59c0-.23,0-.6.08-1h0a1.69,1.69,0,0,1-1.5,1.09,1.14,1.14,0,0,1-1.11-1.28,2.7,2.7,0,0,1,2.67-2.77,3.5,3.5,0,0,1,1,.16l-.39,2a9.16,9.16,0,0,0-.17,1.79Zm.43-3.37a1.56,1.56,0,0,0-.47-.06,2.07,2.07,0,0,0-1.82,2.12c0,.43.15.86.67.86s1.2-.72,1.4-1.75Z" transform="translate(-5.43 -6.24)"/><path class="cls-9" d="M375.32,141.37a2.66,2.66,0,0,1-1.28.3,1.39,1.39,0,0,1-1.47-1.55,2.4,2.4,0,0,1,2.11-2.49,1,1,0,0,1,1.13,1c0,1-1.14,1.28-2.57,1.26a1.62,1.62,0,0,0,.08.74.88.88,0,0,0,.86.52,2.12,2.12,0,0,0,1-.28Zm-.74-3.22c-.63,0-1.1.62-1.26,1.23,1,0,1.85-.13,1.85-.73C375.17,138.33,374.93,138.15,374.58,138.15Z" transform="translate(-5.43 -6.24)"/><path class="cls-9" d="M378.81,141.44a2.62,2.62,0,0,1-1.12.23,1.38,1.38,0,0,1-1.48-1.49,2.45,2.45,0,0,1,2.36-2.54,2,2,0,0,1,.81.17l-.19.53a1.53,1.53,0,0,0-.66-.15,1.82,1.82,0,0,0-1.64,1.91.91.91,0,0,0,1,1,2,2,0,0,0,.9-.22Z" transform="translate(-5.43 -6.24)"/><path class="cls-9" d="M382.1,141.59a9.57,9.57,0,0,1,.09-1h0a1.69,1.69,0,0,1-1.5,1.09,1.14,1.14,0,0,1-1.11-1.28,2.71,2.71,0,0,1,2.68-2.77,3.6,3.6,0,0,1,1,.16l-.4,2a9,9,0,0,0-.16,1.79Zm.43-3.37a1.49,1.49,0,0,0-.46-.06,2.06,2.06,0,0,0-1.82,2.12c0,.43.15.86.66.86s1.21-.72,1.4-1.75Z" transform="translate(-5.43 -6.24)"/><path class="cls-9" d="M383.72,141.59l1.08-5.67h.66l-1.09,5.67Z" transform="translate(-5.43 -6.24)"/><path class="cls-9" d="M385.54,141.59l.75-3.87H387l-.74,3.87Zm.87-5a.44.44,0,0,1,.44-.44.38.38,0,0,1,.39.41.44.44,0,0,1-.45.45A.38.38,0,0,1,386.41,136.64Z" transform="translate(-5.43 -6.24)"/><path class="cls-9" d="M389.08,135.92l-.51,2.51h0a1.64,1.64,0,0,1,1.36-.8c.85,0,1.17.71,1.17,1.4a2.57,2.57,0,0,1-2.41,2.65c-.68,0-1.19-.28-1.19-1a4.2,4.2,0,0,1,.06-.6l.84-4.16Zm-.83,4.18a1.42,1.42,0,0,0-.05.49c0,.36.21.57.62.57,1,0,1.61-1.19,1.61-2,0-.48-.21-.92-.74-.92s-1.16.59-1.36,1.5Z" transform="translate(-5.43 -6.24)"/><path class="cls-9" d="M394.14,141.59a9.57,9.57,0,0,1,.09-1h0a1.69,1.69,0,0,1-1.5,1.09,1.14,1.14,0,0,1-1.11-1.28,2.71,2.71,0,0,1,2.68-2.77,3.6,3.6,0,0,1,1,.16l-.4,2a9,9,0,0,0-.16,1.79Zm.43-3.37a1.49,1.49,0,0,0-.46-.06,2.06,2.06,0,0,0-1.82,2.12c0,.43.15.86.66.86s1.21-.72,1.4-1.75Z" transform="translate(-5.43 -6.24)"/><path class="cls-9" d="M398.41,141.44a2.62,2.62,0,0,1-1.12.23,1.38,1.38,0,0,1-1.48-1.49,2.45,2.45,0,0,1,2.36-2.54,2,2,0,0,1,.81.17l-.19.53a1.53,1.53,0,0,0-.66-.15,1.82,1.82,0,0,0-1.64,1.91.91.91,0,0,0,1,1,2,2,0,0,0,.9-.22Z" transform="translate(-5.43 -6.24)"/><path class="cls-9" d="M400.87,136.68l-.2,1h.93l-.11.52h-.92l-.36,1.88a3.51,3.51,0,0,0-.08.63.33.33,0,0,0,.37.36l.31,0,0,.52a1.49,1.49,0,0,1-.51.07.72.72,0,0,1-.82-.75,4.15,4.15,0,0,1,.08-.73l.39-2h-.56l.1-.52H400l.17-.87Z" transform="translate(-5.43 -6.24)"/><path class="cls-9" d="M404.43,141.37a2.66,2.66,0,0,1-1.28.3,1.39,1.39,0,0,1-1.47-1.55,2.4,2.4,0,0,1,2.11-2.49,1,1,0,0,1,1.13,1c0,1-1.14,1.28-2.57,1.26a1.62,1.62,0,0,0,.08.74.88.88,0,0,0,.86.52,2.12,2.12,0,0,0,1-.28Zm-.74-3.22c-.63,0-1.1.62-1.26,1.23,1,0,1.85-.13,1.85-.73C404.28,138.33,404,138.15,403.69,138.15Z" transform="translate(-5.43 -6.24)"/><path class="cls-9" d="M405.26,141.59l.47-2.49c.1-.51.16-1,.2-1.38h.59c0,.27-.07.55-.11.84h0a1.4,1.4,0,0,1,1.18-.93l.18,0-.12.66-.18,0c-.58,0-1.09.7-1.25,1.6l-.32,1.7Z" transform="translate(-5.43 -6.24)"/><path class="cls-9" d="M407.81,141.59l.74-3.87h.66l-.74,3.87Zm.86-5a.44.44,0,0,1,.44-.44.38.38,0,0,1,.39.41.44.44,0,0,1-.45.45A.38.38,0,0,1,408.67,136.64Z" transform="translate(-5.43 -6.24)"/><path class="cls-9" d="M413.41,137.72l-.52,2.75c-.08.43-.13.8-.17,1.12h-.6l.1-.72h0a1.71,1.71,0,0,1-1.36.81c-.5,0-1-.24-1-1.12a4.53,4.53,0,0,1,.07-.65l.42-2.19H411l-.4,2.16a2.59,2.59,0,0,0-.08.57c0,.4.17.67.63.67s1.09-.56,1.25-1.41l.38-2Z" transform="translate(-5.43 -6.24)"/><path class="cls-9" d="M413.84,141.59l.52-2.74c.08-.43.14-.81.18-1.13h.58l-.1.73h0a1.68,1.68,0,0,1,1.36-.82.85.85,0,0,1,.91.87,1.66,1.66,0,0,1,1.42-.87.92.92,0,0,1,.94,1,4.13,4.13,0,0,1-.07.66l-.43,2.28h-.65l.42-2.23a2.65,2.65,0,0,0,.05-.5c0-.41-.15-.67-.58-.67s-1.05.56-1.21,1.42l-.37,2h-.64l.43-2.27a2.69,2.69,0,0,0,.05-.47c0-.33-.09-.66-.58-.66s-1.09.64-1.24,1.46l-.36,1.94Z" transform="translate(-5.43 -6.24)"/><path class="cls-9" d="M385.33,151.19v-.43l.56-.53c1.32-1.27,1.92-1.94,1.93-2.72a.93.93,0,0,0-1-1,1.76,1.76,0,0,0-1.1.44l-.23-.49a2.25,2.25,0,0,1,1.47-.53,1.46,1.46,0,0,1,1.59,1.51c0,1-.69,1.73-1.79,2.79l-.41.38v0h2.33v.58Z" transform="translate(-5.43 -6.24)"/><path class="cls-9" d="M392.54,146.59h-2l-.2,1.33a3.89,3.89,0,0,1,.42,0,2.22,2.22,0,0,1,1.12.28,1.48,1.48,0,0,1,.74,1.34,1.8,1.8,0,0,1-1.93,1.77,2.56,2.56,0,0,1-1.3-.32l.18-.53a2.45,2.45,0,0,0,1.11.28,1.14,1.14,0,0,0,1.23-1.12c0-.68-.45-1.16-1.49-1.16a5.92,5.92,0,0,0-.72.06l.33-2.49h2.49Z" transform="translate(-5.43 -6.24)"/><path class="cls-9" d="M395.88,147.46c0,1.09-.57,1.64-1.24,1.64s-1.21-.52-1.22-1.57.57-1.62,1.26-1.62S395.88,146.47,395.88,147.46Zm-1.9,0c0,.66.23,1.16.67,1.16s.68-.49.68-1.18-.19-1.16-.68-1.16S394,146.85,394,147.51Zm.61,3.77,3.05-5.37h.45l-3,5.37Zm4.68-1.67c0,1.1-.58,1.64-1.24,1.64s-1.21-.52-1.22-1.56.57-1.63,1.26-1.63S399.27,148.62,399.27,149.61Zm-1.91,0c0,.66.25,1.17.68,1.17s.68-.5.68-1.19-.19-1.16-.68-1.16S397.36,149,397.36,149.66Z" transform="translate(-5.43 -6.24)"/><path class="cls-9" d="M412.42,78.15a5.42,5.42,0,0,1,1.15-.12,1.74,1.74,0,0,1,1.24.38,1,1,0,0,1,.4.84A1.47,1.47,0,0,1,414,80.59v0a1.19,1.19,0,0,1,.89,1.2,1.58,1.58,0,0,1-.65,1.25,2.87,2.87,0,0,1-1.74.44,6.29,6.29,0,0,1-1.12-.08Zm-.26,4.78a4.93,4.93,0,0,0,.55,0c.79,0,1.52-.32,1.52-1.18,0-.63-.54-.91-1.14-.91h-.54Zm.5-2.57h.49c.77,0,1.37-.4,1.37-1s-.39-.75-1-.75a2.14,2.14,0,0,0-.55.06Z" transform="translate(-5.43 -6.24)"/><path class="cls-9" d="M418.1,83.46a9.57,9.57,0,0,1,.09-1h0a1.69,1.69,0,0,1-1.5,1.09,1.14,1.14,0,0,1-1.11-1.28,2.7,2.7,0,0,1,2.68-2.76,3.57,3.57,0,0,1,1,.15l-.39,2a8.44,8.44,0,0,0-.17,1.79Zm.43-3.37a1.88,1.88,0,0,0-.46-.06,2.06,2.06,0,0,0-1.82,2.12c0,.43.15.86.66.86s1.21-.72,1.4-1.75Z" transform="translate(-5.43 -6.24)"/><path class="cls-9" d="M422.38,83.31a2.67,2.67,0,0,1-1.13.23,1.39,1.39,0,0,1-1.48-1.49,2.45,2.45,0,0,1,2.36-2.54,2,2,0,0,1,.81.17l-.19.53a1.55,1.55,0,0,0-.66-.14,1.8,1.8,0,0,0-1.63,1.9.91.91,0,0,0,1,1,2,2,0,0,0,.89-.22Z" transform="translate(-5.43 -6.24)"/><path class="cls-9" d="M424.83,78.55l-.2,1h.93l-.1.52h-.93L424.17,82a3.47,3.47,0,0,0-.07.63.32.32,0,0,0,.36.36,1.57,1.57,0,0,0,.32,0l0,.52a1.49,1.49,0,0,1-.51.07.72.72,0,0,1-.81-.75,3.38,3.38,0,0,1,.08-.73l.38-2h-.56l.1-.52H424l.16-.87Z" transform="translate(-5.43 -6.24)"/><path class="cls-9" d="M428.39,83.24a2.66,2.66,0,0,1-1.28.3A1.39,1.39,0,0,1,425.64,82a2.39,2.39,0,0,1,2.11-2.48,1,1,0,0,1,1.14,1c0,1-1.15,1.28-2.58,1.26a1.62,1.62,0,0,0,.08.74.89.89,0,0,0,.86.52,2.12,2.12,0,0,0,1-.28ZM427.65,80c-.63,0-1.1.61-1.26,1.22,1,0,1.86-.13,1.86-.73C428.25,80.2,428,80,427.65,80Z" transform="translate(-5.43 -6.24)"/><path class="cls-9" d="M429.22,83.46,429.7,81c.09-.5.16-1,.2-1.38h.58c0,.28-.06.55-.1.84h0a1.4,1.4,0,0,1,1.18-.92h.19l-.13.66-.18,0c-.57,0-1.08.7-1.25,1.6l-.32,1.7Z" transform="translate(-5.43 -6.24)"/><path class="cls-9" d="M435.48,81.12a2.32,2.32,0,0,1-2.15,2.43A1.48,1.48,0,0,1,431.82,82,2.32,2.32,0,0,1,434,79.51,1.48,1.48,0,0,1,435.48,81.12Zm-3,.82c0,.63.35,1.08.91,1.08.79,0,1.38-1,1.38-1.91a1,1,0,0,0-.91-1.08C433.06,80,432.5,81.05,432.51,81.94Z" transform="translate(-5.43 -6.24)"/><path class="cls-9" d="M435.94,83.46l.75-3.87h.66l-.74,3.87Zm.87-4.95a.44.44,0,0,1,.44-.44.38.38,0,0,1,.39.41.44.44,0,0,1-.45.45A.38.38,0,0,1,436.81,78.51Z" transform="translate(-5.43 -6.24)"/><path class="cls-9" d="M441.89,77.79l-.84,4.45a9.15,9.15,0,0,0-.17,1.22h-.61l.1-.76h0a1.65,1.65,0,0,1-1.39.85c-.75,0-1.16-.61-1.16-1.41a2.54,2.54,0,0,1,2.39-2.63,1.77,1.77,0,0,1,.69.13l.34-1.85Zm-1.11,2.41a1.17,1.17,0,0,0-.64-.16,1.9,1.9,0,0,0-1.64,2c0,.46.16,1,.72,1s1.13-.59,1.3-1.46Z" transform="translate(-5.43 -6.24)"/><path class="cls-9" d="M444.77,83.24a2.66,2.66,0,0,1-1.28.3A1.39,1.39,0,0,1,442,82a2.39,2.39,0,0,1,2.11-2.48,1,1,0,0,1,1.13,1c0,1-1.14,1.28-2.57,1.26a1.62,1.62,0,0,0,.08.74.88.88,0,0,0,.86.52,2.12,2.12,0,0,0,1-.28ZM444,80c-.63,0-1.1.61-1.26,1.22,1,0,1.85-.13,1.85-.73C444.62,80.2,444.38,80,444,80Z" transform="translate(-5.43 -6.24)"/><path class="cls-9" d="M445.63,82.79a1.77,1.77,0,0,0,.83.24.67.67,0,0,0,.74-.63c0-.3-.14-.49-.54-.71a1.14,1.14,0,0,1-.69-1,1.27,1.27,0,0,1,1.4-1.2,1.53,1.53,0,0,1,.8.19l-.18.5a1.39,1.39,0,0,0-.67-.17.62.62,0,0,0-.69.58c0,.28.18.46.53.65a1.21,1.21,0,0,1,.73,1,1.32,1.32,0,0,1-1.48,1.27,1.64,1.64,0,0,1-1-.26Z" transform="translate(-5.43 -6.24)"/><path class="cls-9" d="M422.85,93.06v-.43l.55-.53c1.33-1.27,1.93-1.94,1.93-2.72a.93.93,0,0,0-1-1,1.76,1.76,0,0,0-1.1.44l-.22-.49a2.25,2.25,0,0,1,1.47-.53A1.46,1.46,0,0,1,426,89.29c0,1-.7,1.73-1.79,2.79l-.42.38v0h2.34v.58Z" transform="translate(-5.43 -6.24)"/><path class="cls-9" d="M427.12,92.26a2.44,2.44,0,0,0,1.15.32c.9,0,1.18-.57,1.18-1,0-.73-.67-1-1.35-1h-.39V90h.39c.51,0,1.16-.26,1.16-.88,0-.42-.26-.78-.91-.78a1.94,1.94,0,0,0-1,.34l-.18-.51a2.47,2.47,0,0,1,1.36-.4c1,0,1.48.61,1.48,1.24a1.29,1.29,0,0,1-1,1.22v0a1.36,1.36,0,0,1,1.16,1.33c0,.83-.64,1.56-1.89,1.56a2.61,2.61,0,0,1-1.35-.35Z" transform="translate(-5.43 -6.24)"/><path class="cls-9" d="M433.4,89.33c0,1.1-.58,1.64-1.25,1.64s-1.21-.52-1.21-1.57.56-1.62,1.25-1.62S433.4,88.34,433.4,89.33Zm-1.9,0c0,.66.23,1.17.67,1.17s.67-.5.67-1.19-.18-1.16-.67-1.16S431.5,88.72,431.5,89.38Zm.6,3.77,3.06-5.37h.45l-3.06,5.37Zm4.68-1.67c0,1.1-.57,1.64-1.24,1.64s-1.21-.52-1.21-1.56.56-1.63,1.25-1.63S436.78,90.49,436.78,91.48Zm-1.9,0c0,.66.25,1.17.68,1.17s.67-.5.67-1.19-.19-1.16-.67-1.16S434.88,90.87,434.88,91.53Z" transform="translate(-5.43 -6.24)"/><path class="cls-9" d="M389.07,25.25l-.86,1.7h-.7l2.79-5.39h.78l.75,5.39h-.68l-.22-1.7Zm1.8-.53-.2-1.56c0-.28-.08-.67-.1-1h0c-.14.32-.28.66-.44,1l-.8,1.56Z" transform="translate(-5.43 -6.24)"/><path class="cls-9" d="M392.5,27l1.08-5.67h.66L393.16,27Z" transform="translate(-5.43 -6.24)"/><path class="cls-9" d="M394.32,27l.75-3.87h.66L395,27Zm.87-4.95a.44.44,0,0,1,.44-.44A.38.38,0,0,1,396,22a.44.44,0,0,1-.45.45A.38.38,0,0,1,395.19,22Z" transform="translate(-5.43 -6.24)"/><path class="cls-9" d="M396.19,26.28a1.77,1.77,0,0,0,.83.24.66.66,0,0,0,.73-.63c0-.3-.13-.49-.53-.71a1.16,1.16,0,0,1-.7-1,1.28,1.28,0,0,1,1.4-1.2,1.57,1.57,0,0,1,.81.19l-.18.5a1.42,1.42,0,0,0-.67-.17.61.61,0,0,0-.69.58c0,.28.18.46.52.65a1.19,1.19,0,0,1,.73,1A1.31,1.31,0,0,1,397,27a1.69,1.69,0,0,1-1-.26Z" transform="translate(-5.43 -6.24)"/><path class="cls-9" d="M400.87,22l-.2,1h.93l-.1.52h-.93l-.36,1.88a3.47,3.47,0,0,0-.07.63.32.32,0,0,0,.37.36,1.51,1.51,0,0,0,.31,0l0,.52a1.52,1.52,0,0,1-.52.07.72.72,0,0,1-.81-.75,3.38,3.38,0,0,1,.08-.73l.38-2h-.56l.11-.52H400l.17-.87Z" transform="translate(-5.43 -6.24)"/><path class="cls-9" d="M401.64,27l.75-3.87h.66L402.31,27Zm.87-4.95a.44.44,0,0,1,.44-.44.38.38,0,0,1,.39.41.44.44,0,0,1-.45.45A.38.38,0,0,1,402.51,22Z" transform="translate(-5.43 -6.24)"/><path class="cls-9" d="M403.13,28.54l.78-4.08c.08-.46.16-1,.21-1.38h.61l-.11.73h0A1.78,1.78,0,0,1,406,23c.84,0,1.19.68,1.19,1.4A2.52,2.52,0,0,1,405,27a1.86,1.86,0,0,1-.84-.17h0l-.31,1.67Zm1.09-2.23a1.2,1.2,0,0,0,.73.21c.86,0,1.58-1.06,1.58-2.08,0-.4-.18-.89-.74-.89s-1.18.6-1.38,1.68Z" transform="translate(-5.43 -6.24)"/><path class="cls-9" d="M410.49,26.73a2.66,2.66,0,0,1-1.28.3,1.39,1.39,0,0,1-1.47-1.55A2.39,2.39,0,0,1,409.85,23,1,1,0,0,1,411,24c0,1-1.14,1.28-2.57,1.26a1.62,1.62,0,0,0,.08.74.88.88,0,0,0,.86.52,2.12,2.12,0,0,0,1-.28Zm-.74-3.21c-.63,0-1.1.61-1.26,1.22,1,0,1.85-.13,1.85-.73C410.34,23.69,410.11,23.52,409.75,23.52Z" transform="translate(-5.43 -6.24)"/><path class="cls-9" d="M411.35,26.28a1.81,1.81,0,0,0,.84.24.67.67,0,0,0,.73-.63c0-.3-.13-.49-.53-.71a1.16,1.16,0,0,1-.7-1,1.27,1.27,0,0,1,1.4-1.2,1.6,1.6,0,0,1,.81.19l-.19.5a1.36,1.36,0,0,0-.67-.17.62.62,0,0,0-.69.58c0,.28.19.46.53.65a1.21,1.21,0,0,1,.73,1A1.31,1.31,0,0,1,412.13,27a1.67,1.67,0,0,1-1-.26Z" transform="translate(-5.43 -6.24)"/><path class="cls-9" d="M418.31,27V25.54H415.9v-.47l2.32-3.31H419V25h.72v.55H419V27Zm0-2V23.25q0-.41,0-.81h0c-.16.3-.28.52-.43.76L416.61,25v0Z" transform="translate(-5.43 -6.24)"/><path class="cls-9" d="M422.58,23.22c0,1.09-.57,1.64-1.24,1.64s-1.21-.52-1.22-1.57.57-1.62,1.26-1.62S422.58,22.23,422.58,23.22Zm-1.9.05c0,.66.23,1.17.67,1.17s.68-.5.68-1.19-.19-1.16-.68-1.16S420.68,22.61,420.68,23.27Zm.61,3.77,3-5.37h.45L421.74,27ZM426,25.37c0,1.1-.58,1.64-1.24,1.64s-1.21-.52-1.22-1.56.57-1.63,1.26-1.63S426,24.38,426,25.37Zm-1.91.05c0,.66.25,1.17.68,1.17s.68-.5.68-1.19-.19-1.16-.68-1.16S424.06,24.76,424.06,25.42Z" transform="translate(-5.43 -6.24)"/><path class="cls-9" d="M254.12,12.15c0-.26,0-.65,0-1V6.47h.7V8.91h0a1.44,1.44,0,0,1,1.32-.72c1,0,1.64.8,1.63,2a1.84,1.84,0,0,1-1.73,2.07,1.39,1.39,0,0,1-1.3-.73h0l0,.64Zm.73-1.55a1.07,1.07,0,0,0,1.08,1.08c.74,0,1.18-.6,1.18-1.49s-.4-1.44-1.15-1.44a1.18,1.18,0,0,0-1.11,1.15Z" transform="translate(-5.43 -6.24)"/><path class="cls-9" d="M258.34,11.74a.48.48,0,0,1,.48-.51.51.51,0,1,1-.48.51Z" transform="translate(-5.43 -6.24)"/><path class="cls-9" d="M290.88,50.34h2.91v.58h-2.21v1.79h2v.58h-2v2.44h-.7Z" transform="translate(-5.43 -6.24)"/><path class="cls-9" d="M295.54,50.77a.44.44,0,0,1-.87,0,.43.43,0,0,1,.44-.44A.42.42,0,0,1,295.54,50.77Zm-.78,5V51.86h.7v3.87Z" transform="translate(-5.43 -6.24)"/><path class="cls-9" d="M296.63,53.06c0-.45,0-.84,0-1.2h.61l0,.76h0a1.16,1.16,0,0,1,1.07-.85l.2,0v.67a.83.83,0,0,0-.24,0,1,1,0,0,0-.94.91,1.47,1.47,0,0,0,0,.32v2.07h-.69Z" transform="translate(-5.43 -6.24)"/><path class="cls-9" d="M299.25,52.9c0-.4,0-.72,0-1h.62l0,.62h0a1.34,1.34,0,0,1,1.22-.71,1.15,1.15,0,0,1,1.1.77h0a1.64,1.64,0,0,1,.43-.5,1.32,1.32,0,0,1,.86-.27c.51,0,1.27.33,1.27,1.68v2.28h-.69V53.54c0-.75-.27-1.2-.84-1.2a.91.91,0,0,0-.83.64,1.3,1.3,0,0,0-.05.36v2.39h-.69V53.41c0-.62-.27-1.07-.81-1.07a1,1,0,0,0-.87.71.93.93,0,0,0-.06.34v2.34h-.68Z" transform="translate(-5.43 -6.24)"/><path class="cls-9" d="M306.7,50.77a.44.44,0,0,1-.87,0,.43.43,0,0,1,.44-.44A.42.42,0,0,1,306.7,50.77Zm-.78,5V51.86h.7v3.87Z" transform="translate(-5.43 -6.24)"/><path class="cls-9" d="M310.55,55.58a2.53,2.53,0,0,1-1.11.23,1.84,1.84,0,0,1-1.93-2,2,2,0,0,1,2.08-2,2.27,2.27,0,0,1,1,.2l-.16.54a1.56,1.56,0,0,0-.81-.18,1.46,1.46,0,0,0,0,2.91,2,2,0,0,0,.87-.2Z" transform="translate(-5.43 -6.24)"/><path class="cls-9" d="M314.61,54.67c0,.4,0,.75,0,1.06H314l0-.64h0a1.43,1.43,0,0,1-1.28.72c-.6,0-1.33-.33-1.33-1.69V51.86h.7V54c0,.74.23,1.23.87,1.23a1,1,0,0,0,1-1V51.86h.7Z" transform="translate(-5.43 -6.24)"/><path class="cls-9" d="M316.63,50.75v1.11h1v.53h-1v2.09c0,.48.13.75.53.75a1.25,1.25,0,0,0,.4,0l0,.53a1.69,1.69,0,0,1-.63.1,1,1,0,0,1-.76-.3,1.44,1.44,0,0,1-.27-1V52.39h-.6v-.53h.6v-.93Z" transform="translate(-5.43 -6.24)"/><path class="cls-9" d="M318.82,53.92a1.24,1.24,0,0,0,1.33,1.34,2.57,2.57,0,0,0,1.07-.2l.12.51a3.17,3.17,0,0,1-1.29.24,1.8,1.8,0,0,1-1.9-2A1.88,1.88,0,0,1,320,51.77a1.63,1.63,0,0,1,1.6,1.82,2.38,2.38,0,0,1,0,.33Zm2.06-.5a1,1,0,0,0-1-1.15,1.17,1.17,0,0,0-1.08,1.15Z" transform="translate(-5.43 -6.24)"/><path class="cls-9" d="M322.34,55a1.93,1.93,0,0,0,.93.28c.51,0,.75-.26.75-.58s-.2-.52-.72-.71c-.69-.25-1-.63-1-1.1a1.19,1.19,0,0,1,1.33-1.13,1.89,1.89,0,0,1,.95.24l-.17.51a1.46,1.46,0,0,0-.79-.22c-.42,0-.65.24-.65.52s.23.47.73.66c.68.26,1,.59,1,1.17s-.53,1.16-1.45,1.16a2.18,2.18,0,0,1-1.08-.27Z" transform="translate(-5.43 -6.24)"/><path class="cls-9" d="M290.88,40.24a7.26,7.26,0,0,1,1.28-.11,2.26,2.26,0,0,1,1.48.39,1.13,1.13,0,0,1,.44.95,1.28,1.28,0,0,1-.91,1.19h0A1.39,1.39,0,0,1,294.28,44a1.44,1.44,0,0,1-.45,1.08,2.7,2.7,0,0,1-1.87.51,8.36,8.36,0,0,1-1.08-.07Zm.7,2.21h.63c.74,0,1.17-.39,1.17-.91s-.48-.87-1.18-.87a3.61,3.61,0,0,0-.62,0Zm0,2.58a4.4,4.4,0,0,0,.58,0c.72,0,1.39-.26,1.39-1s-.63-1-1.39-1h-.58Z" transform="translate(-5.43 -6.24)"/><path class="cls-9" d="M297.34,45.56l-.06-.49h0a1.46,1.46,0,0,1-1.18.58,1.11,1.11,0,0,1-1.19-1.11c0-.94.83-1.45,2.33-1.44V43a.8.8,0,0,0-.88-.9,1.9,1.9,0,0,0-1,.29l-.16-.47a2.49,2.49,0,0,1,1.27-.34c1.19,0,1.48.81,1.48,1.58v1.45a5.32,5.32,0,0,0,.06.93Zm-.1-2c-.77,0-1.64.12-1.64.88a.62.62,0,0,0,.66.67,1,1,0,0,0,.94-.65.85.85,0,0,0,0-.22Z" transform="translate(-5.43 -6.24)"/><path class="cls-9" d="M301.81,45.41a2.49,2.49,0,0,1-1.11.23,1.84,1.84,0,0,1-1.93-2,2,2,0,0,1,2.08-2,2.33,2.33,0,0,1,1,.2l-.16.54a1.71,1.71,0,0,0-.82-.18,1.46,1.46,0,0,0,0,2.91,2,2,0,0,0,.86-.19Z" transform="translate(-5.43 -6.24)"/><path class="cls-9" d="M303.48,40.58v1.11h1v.53h-1v2.09c0,.48.14.75.53.75a1.33,1.33,0,0,0,.41-.05l0,.53a1.59,1.59,0,0,1-.62.1,1,1,0,0,1-.76-.3,1.42,1.42,0,0,1-.27-1V42.22h-.6v-.53h.6v-.93Z" transform="translate(-5.43 -6.24)"/><path class="cls-9" d="M305.68,43.75A1.23,1.23,0,0,0,307,45.09a2.64,2.64,0,0,0,1.08-.19l.12.5a3.21,3.21,0,0,1-1.29.24,1.81,1.81,0,0,1-1.91-2,1.88,1.88,0,0,1,1.82-2.09,1.64,1.64,0,0,1,1.6,1.82c0,.15,0,.26,0,.33Zm2.06-.5a1,1,0,0,0-1-1.15,1.18,1.18,0,0,0-1.08,1.15Z" transform="translate(-5.43 -6.24)"/><path class="cls-9" d="M309.29,42.9c0-.46,0-.85,0-1.21h.62l0,.76h0A1.17,1.17,0,0,1,311,41.6a.6.6,0,0,1,.2,0v.66a.83.83,0,0,0-.24,0,1,1,0,0,0-.94.91,1.61,1.61,0,0,0,0,.33v2.06h-.7Z" transform="translate(-5.43 -6.24)"/><path class="cls-9" d="M315.41,43.59a1.9,1.9,0,0,1-1.93,2.06,1.84,1.84,0,0,1-1.85-2,1.89,1.89,0,0,1,1.92-2.06A1.83,1.83,0,0,1,315.41,43.59Zm-3.07,0c0,.85.49,1.49,1.18,1.49s1.17-.63,1.17-1.5c0-.66-.33-1.49-1.16-1.49S312.34,42.9,312.34,43.63Z" transform="translate(-5.43 -6.24)"/><path class="cls-9" d="M317.08,40.6a.41.41,0,0,1-.44.43.42.42,0,0,1-.43-.43.43.43,0,0,1,.44-.44A.41.41,0,0,1,317.08,40.6Zm-.78,5V41.69h.7v3.87Z" transform="translate(-5.43 -6.24)"/><path class="cls-9" d="M321.51,39.88v4.68c0,.34,0,.73,0,1h-.63l0-.67h0a1.44,1.44,0,0,1-1.32.76,1.77,1.77,0,0,1-1.66-2,1.85,1.85,0,0,1,1.74-2.08,1.28,1.28,0,0,1,1.16.59h0V39.88Zm-.7,3.38a1.5,1.5,0,0,0,0-.29,1,1,0,0,0-1-.82c-.72,0-1.16.64-1.16,1.5s.39,1.43,1.15,1.43a1.06,1.06,0,0,0,1-.84,1.45,1.45,0,0,0,0-.3Z" transform="translate(-5.43 -6.24)"/><path class="cls-9" d="M323.08,43.75a1.23,1.23,0,0,0,1.32,1.34,2.56,2.56,0,0,0,1.07-.19l.12.5a3.12,3.12,0,0,1-1.28.24,1.81,1.81,0,0,1-1.91-2,1.88,1.88,0,0,1,1.82-2.09,1.64,1.64,0,0,1,1.6,1.82,2.06,2.06,0,0,1,0,.33Zm2.06-.5a1,1,0,0,0-1-1.15,1.18,1.18,0,0,0-1.08,1.15Z" transform="translate(-5.43 -6.24)"/><path class="cls-9" d="M327.54,40.58v1.11h1v.53h-1v2.09c0,.48.14.75.53.75a1.37,1.37,0,0,0,.41-.05l0,.53a1.65,1.65,0,0,1-.63.1,1,1,0,0,1-.75-.3,1.38,1.38,0,0,1-.28-1V42.22h-.6v-.53h.6v-.93Z" transform="translate(-5.43 -6.24)"/><path class="cls-9" d="M329.73,43.75a1.24,1.24,0,0,0,1.33,1.34,2.59,2.59,0,0,0,1.07-.19l.12.5a3.17,3.17,0,0,1-1.29.24,1.8,1.8,0,0,1-1.9-2,1.88,1.88,0,0,1,1.82-2.09,1.63,1.63,0,0,1,1.59,1.82,2.38,2.38,0,0,1,0,.33Zm2.06-.5a1,1,0,0,0-1-1.15,1.18,1.18,0,0,0-1.08,1.15Z" transform="translate(-5.43 -6.24)"/><path class="cls-9" d="M333.25,44.84a1.83,1.83,0,0,0,.93.28c.51,0,.75-.26.75-.58s-.2-.52-.72-.71c-.69-.25-1-.63-1-1.09a1.19,1.19,0,0,1,1.33-1.14,1.93,1.93,0,0,1,1,.24l-.18.51a1.55,1.55,0,0,0-.79-.22c-.42,0-.65.24-.65.53s.23.46.74.65c.67.26,1,.59,1,1.17s-.53,1.16-1.45,1.16a2.18,2.18,0,0,1-1.08-.27Z" transform="translate(-5.43 -6.24)"/><path class="cls-9" d="M268.4,9.63h-2.1v1.94h2.34v.58h-3V6.76h2.91v.59H266.3v1.7h2.1Z" transform="translate(-5.43 -6.24)"/><path class="cls-9" d="M272.7,11.1q0,.6,0,1.05h-.62l0-.63h0a1.45,1.45,0,0,1-1.28.72c-.6,0-1.33-.34-1.33-1.7V8.28h.7v2.14c0,.74.23,1.24.87,1.24a1,1,0,0,0,.92-.64,1.1,1.1,0,0,0,.07-.36V8.28h.7Z" transform="translate(-5.43 -6.24)"/><path class="cls-9" d="M273.87,9.49c0-.46,0-.85,0-1.21h.62l0,.76h0a1.17,1.17,0,0,1,1.07-.85.6.6,0,0,1,.2,0v.66l-.24,0a1,1,0,0,0-.94.9,1.69,1.69,0,0,0,0,.33v2.06h-.7Z" transform="translate(-5.43 -6.24)"/><path class="cls-9" d="M279.91,10.18A1.89,1.89,0,0,1,278,12.24a1.84,1.84,0,0,1-1.85-2,1.89,1.89,0,0,1,1.92-2.06A1.83,1.83,0,0,1,279.91,10.18Zm-3.07,0c0,.85.49,1.49,1.17,1.49s1.18-.63,1.18-1.5c0-.66-.33-1.49-1.16-1.49S276.84,9.49,276.84,10.22Z" transform="translate(-5.43 -6.24)"/><path class="cls-9" d="M280.8,9.54c0-.49,0-.89,0-1.26h.63l0,.67h0a1.51,1.51,0,0,1,1.37-.76,1.76,1.76,0,0,1,1.64,2,1.83,1.83,0,0,1-1.76,2.08,1.34,1.34,0,0,1-1.19-.61h0v2.1h-.7Zm.7,1a1.2,1.2,0,0,0,0,.28,1.09,1.09,0,0,0,1.05.83c.75,0,1.18-.61,1.18-1.5s-.41-1.44-1.15-1.44a1.14,1.14,0,0,0-1.07.88,1.26,1.26,0,0,0,0,.28Z" transform="translate(-5.43 -6.24)"/><path class="cls-9" d="M285.74,10.34a1.25,1.25,0,0,0,1.33,1.35,2.57,2.57,0,0,0,1.07-.2l.12.5a3.17,3.17,0,0,1-1.29.24,1.79,1.79,0,0,1-1.9-2,1.88,1.88,0,0,1,1.82-2.09,1.64,1.64,0,0,1,1.6,1.83,2,2,0,0,1,0,.32Zm2.07-.5a1,1,0,0,0-1-1.14,1.17,1.17,0,0,0-1.08,1.14Z" transform="translate(-5.43 -6.24)"/><path class="cls-9" d="M291.5,12.15l-.05-.49h0a1.42,1.42,0,0,1-1.18.58,1.1,1.1,0,0,1-1.18-1.11c0-.94.83-1.45,2.32-1.44V9.61a.8.8,0,0,0-.88-.9,2,2,0,0,0-1,.29l-.17-.46a2.44,2.44,0,0,1,1.28-.35c1.18,0,1.47.81,1.47,1.59v1.44a5.25,5.25,0,0,0,.06.93Zm-.1-2c-.77,0-1.64.12-1.64.87a.62.62,0,0,0,.66.67,1,1,0,0,0,.94-.65.85.85,0,0,0,0-.22Z" transform="translate(-5.43 -6.24)"/><path class="cls-9" d="M293.22,9.33c0-.4,0-.73,0-1.05h.63l0,.64h0a1.42,1.42,0,0,1,1.28-.73c.54,0,1.37.32,1.37,1.65v2.31h-.7V9.92c0-.62-.24-1.14-.9-1.14a1,1,0,0,0-.94.72,1,1,0,0,0-.05.32v2.33h-.7Z" transform="translate(-5.43 -6.24)"/><path class="cls-9" d="M303.14,12a3.59,3.59,0,0,1-1.42.25,2.52,2.52,0,0,1-2.66-2.73,2.68,2.68,0,0,1,2.81-2.83,3,3,0,0,1,1.28.24l-.17.57a2.5,2.5,0,0,0-1.09-.22,2,2,0,0,0-2.1,2.22,2,2,0,0,0,2.07,2.17,2.72,2.72,0,0,0,1.14-.23Z" transform="translate(-5.43 -6.24)"/><path class="cls-9" d="M304,6.47h.7V8.89h0a1.33,1.33,0,0,1,.5-.5,1.47,1.47,0,0,1,.72-.2c.52,0,1.36.32,1.36,1.66v2.3h-.71V9.93c0-.63-.23-1.15-.89-1.15a1,1,0,0,0-.95.7.87.87,0,0,0-.05.34v2.33H304Z" transform="translate(-5.43 -6.24)"/><path class="cls-9" d="M309.21,7.19a.41.41,0,0,1-.44.44.43.43,0,0,1-.43-.44.44.44,0,0,1,.44-.44A.42.42,0,0,1,309.21,7.19Zm-.78,5V8.28h.7v3.87Z" transform="translate(-5.43 -6.24)"/><path class="cls-9" d="M310.3,6.47H311v5.68h-.71Z" transform="translate(-5.43 -6.24)"/><path class="cls-9" d="M315.53,6.47v4.68a9.91,9.91,0,0,0,0,1h-.64l0-.67h0a1.44,1.44,0,0,1-1.32.76,1.77,1.77,0,0,1-1.66-2,1.85,1.85,0,0,1,1.74-2.08,1.26,1.26,0,0,1,1.16.6h0V6.47Zm-.7,3.39a1.53,1.53,0,0,0,0-.3,1,1,0,0,0-1-.81c-.73,0-1.16.63-1.16,1.49s.39,1.43,1.15,1.43a1.06,1.06,0,0,0,1-.84,1.39,1.39,0,0,0,0-.3Z" transform="translate(-5.43 -6.24)"/><path class="cls-9" d="M316.7,9.49c0-.46,0-.85,0-1.21h.62l0,.76h0a1.17,1.17,0,0,1,1.07-.85.6.6,0,0,1,.2,0v.66l-.24,0a1,1,0,0,0-.94.9,1.69,1.69,0,0,0,0,.33v2.06h-.7Z" transform="translate(-5.43 -6.24)"/><path class="cls-9" d="M319.63,10.34A1.24,1.24,0,0,0,321,11.69a2.57,2.57,0,0,0,1.07-.2l.12.5a3.17,3.17,0,0,1-1.29.24,1.79,1.79,0,0,1-1.9-2,1.88,1.88,0,0,1,1.81-2.09,1.64,1.64,0,0,1,1.6,1.83,2.33,2.33,0,0,1,0,.32Zm2.06-.5a1,1,0,0,0-1-1.14,1.16,1.16,0,0,0-1.08,1.14Z" transform="translate(-5.43 -6.24)"/><path class="cls-9" d="M323.25,9.33c0-.4,0-.73,0-1.05h.63l0,.64h0a1.43,1.43,0,0,1,1.28-.73c.54,0,1.37.32,1.37,1.65v2.31h-.7V9.92c0-.62-.23-1.14-.9-1.14a1,1,0,0,0-.94.72,1,1,0,0,0-.05.32v2.33h-.7Z" transform="translate(-5.43 -6.24)"/></g></svg>