<svg id="Layer_1" data-name="Layer 1" xmlns="http://www.w3.org/2000/svg" viewBox="0 0 223.02 266"><defs><style>.cls-1{fill:#231f20;}.cls-2{fill:#636363;}.cls-3{fill:#a5a5a5;}.cls-4{fill:#ffc000;}.cls-5{fill:#4472c4;}.cls-6{fill:#70ad47;}.cls-7{fill:#255e91;}.cls-8{fill:#9e480e;}.cls-9{fill:#ed7d31;}.cls-10{fill:#5b9bd5;}.cls-11{fill:none;stroke:#231f20;stroke-miterlimit:10;}</style></defs><title>Slide_12</title><path class="cls-1" d="M12.12,137.34a7.65,7.65,0,0,1,1.34-.11,2.21,2.21,0,0,1,1.51.45,1.48,1.48,0,0,1,.47,1.13A1.55,1.55,0,0,1,15,140a2.21,2.21,0,0,1-1.64.59,2.38,2.38,0,0,1-.56-.05v2.16h-.7Zm.7,2.6a2.32,2.32,0,0,0,.57.05c.84,0,1.35-.4,1.35-1.15s-.5-1.05-1.27-1.05a3.11,3.11,0,0,0-.65.05Z"/><path class="cls-1" d="M16.38,137.35a6.49,6.49,0,0,1,1.33-.12,2.2,2.2,0,0,1,1.56.44,1.36,1.36,0,0,1,.43,1,1.41,1.41,0,0,1-1,1.37v0a1.33,1.33,0,0,1,.79,1.08,8.56,8.56,0,0,0,.42,1.48h-.72a6.51,6.51,0,0,1-.36-1.28c-.16-.75-.45-1-1.08-1h-.66v2.33h-.69Zm.69,2.45h.71c.75,0,1.22-.41,1.22-1s-.5-1-1.24-1a3,3,0,0,0-.69.06Z"/><path class="cls-1" d="M23.47,140.14H21.38v1.94h2.33v.58h-3v-5.39h2.91v.59H21.38v1.7h2.09Z"/><path class="cls-1" d="M28.38,142.49a3.38,3.38,0,0,1-1.42.25A2.51,2.51,0,0,1,24.3,140a2.68,2.68,0,0,1,2.81-2.83,2.83,2.83,0,0,1,1.28.24l-.17.56a2.64,2.64,0,0,0-1.08-.22A2,2,0,0,0,25,140a2,2,0,0,0,2.07,2.17,2.89,2.89,0,0,0,1.14-.22Z"/><path class="cls-1" d="M32.05,140.14H30v1.94h2.34v.58h-3v-5.39h2.91v.59H30v1.7h2.1Z"/><path class="cls-1" d="M33.19,142.66v-5.39H34L35.68,140a15.92,15.92,0,0,1,1,1.75h0c-.06-.72-.08-1.37-.08-2.21v-2.26h.66v5.39h-.7l-1.72-2.73a18.19,18.19,0,0,1-1-1.8h0c0,.68.06,1.33.06,2.22v2.3Z"/><path class="cls-1" d="M39.48,137.87H37.84v-.6h4v.6H40.18v4.79h-.7Z"/><path class="cls-1" d="M43.3,141l-.55,1.69H42l1.83-5.39h.84l1.83,5.39h-.74L45.21,141Zm1.77-.55-.53-1.55c-.12-.35-.2-.67-.28-1h0c-.08.32-.17.65-.27,1l-.53,1.55Z"/><path class="cls-1" d="M51.43,142.42a4.79,4.79,0,0,1-1.65.3A2.53,2.53,0,0,1,47,140a2.7,2.7,0,0,1,2.92-2.78,3.18,3.18,0,0,1,1.34.25l-.17.56a2.9,2.9,0,0,0-1.19-.23A2,2,0,0,0,47.74,140a2,2,0,0,0,2.08,2.17,2.29,2.29,0,0,0,.93-.14v-1.61H49.66v-.56h1.77Z"/><path class="cls-1" d="M55.29,140.14h-2.1v1.94h2.34v.58h-3v-5.39h2.91v.59H53.19v1.7h2.1Z"/><path class="cls-1" d="M62.73,139.91c0,1.86-1.12,2.84-2.5,2.84A2.47,2.47,0,0,1,57.81,140a2.56,2.56,0,0,1,2.5-2.83A2.45,2.45,0,0,1,62.73,139.91Zm-4.18.09c0,1.15.63,2.18,1.72,2.18S62,141.17,62,140s-.56-2.2-1.72-2.2S58.55,138.82,58.55,140Z"/><path class="cls-1" d="M63.64,137.27h2.9v.59h-2.2v1.79h2v.58h-2v2.43h-.7Z"/><path class="cls-1" d="M69.23,137.35a6.29,6.29,0,0,1,1.27-.12,2.17,2.17,0,0,1,1.48.4,1.11,1.11,0,0,1,.45,1,1.27,1.27,0,0,1-.91,1.18v0a1.39,1.39,0,0,1,1.11,1.35,1.44,1.44,0,0,1-.46,1.08,2.71,2.71,0,0,1-1.86.5,8.65,8.65,0,0,1-1.08-.06Zm.7,2.2h.63c.74,0,1.17-.38,1.17-.9s-.48-.88-1.19-.88a2.49,2.49,0,0,0-.61,0Zm0,2.59a4.2,4.2,0,0,0,.58,0c.72,0,1.39-.27,1.39-1s-.64-1-1.4-1h-.57Z"/><path class="cls-1" d="M74.44,141l-.56,1.69h-.72L75,137.27h.84l1.84,5.39h-.74L76.35,141Zm1.77-.55-.53-1.55c-.12-.35-.2-.67-.28-1h0c-.08.32-.16.65-.27,1l-.53,1.55Z"/><path class="cls-1" d="M82.23,142.49a3.46,3.46,0,0,1-1.42.25A2.52,2.52,0,0,1,78.14,140,2.68,2.68,0,0,1,81,137.19a2.86,2.86,0,0,1,1.28.24l-.17.56a2.65,2.65,0,0,0-1.09-.22,2,2,0,0,0-2.1,2.22A2,2,0,0,0,81,142.16a2.89,2.89,0,0,0,1.14-.22Z"/><path class="cls-1" d="M84.13,137.87H82.49v-.6h4v.6H84.83v4.79h-.7Z"/><path class="cls-1" d="M89.87,140.14H87.78v1.94h2.33v.58h-3v-5.39H90v.59H87.78v1.7h2.09Z"/><path class="cls-1" d="M91,137.35a6.49,6.49,0,0,1,1.33-.12,2.24,2.24,0,0,1,1.56.44,1.35,1.35,0,0,1,.42,1,1.4,1.4,0,0,1-1,1.37v0a1.35,1.35,0,0,1,.79,1.08,7.7,7.7,0,0,0,.42,1.48h-.72a6.51,6.51,0,0,1-.36-1.28c-.16-.75-.45-1-1.08-1h-.66v2.33H91Zm.69,2.45h.71c.75,0,1.22-.41,1.22-1s-.51-1-1.24-1a3,3,0,0,0-.69.06Z"/><path class="cls-1" d="M96,137.27v5.39h-.7v-5.39Z"/><path class="cls-1" d="M98.1,141l-.56,1.69h-.71l1.83-5.39h.84l1.83,5.39h-.74L100,141Zm1.77-.55-.53-1.55c-.12-.35-.2-.67-.28-1h0c-.08.32-.17.65-.27,1l-.53,1.55Z"/><path class="cls-1" d="M104.52,137.27v5.39h-.7v-5.39Z"/><path class="cls-1" d="M105.74,142.66v-5.39h.76l1.72,2.73a15.92,15.92,0,0,1,1,1.75h0a21.92,21.92,0,0,1-.08-2.21v-2.26h.65v5.39h-.7l-1.71-2.73a16.49,16.49,0,0,1-1-1.8h0c0,.68,0,1.33,0,2.22v2.3Z"/><path class="cls-1" d="M115.49,140.14h-2.1v1.94h2.34v.58h-3v-5.39h2.91v.59h-2.22v1.7h2.1Z"/><path class="cls-1" d="M117.33,137.27v3.19c0,1.21.53,1.72,1.25,1.72s1.31-.52,1.31-1.72v-3.19h.71v3.15c0,1.65-.87,2.33-2,2.33s-1.94-.63-1.94-2.3v-3.18Z"/><path class="cls-1" d="M121.81,137.35a6.49,6.49,0,0,1,1.33-.12,2.2,2.2,0,0,1,1.56.44,1.36,1.36,0,0,1,.43,1,1.41,1.41,0,0,1-1,1.37v0a1.33,1.33,0,0,1,.79,1.08,8.56,8.56,0,0,0,.42,1.48h-.72a6.51,6.51,0,0,1-.36-1.28c-.16-.75-.45-1-1.08-1h-.66v2.33h-.69Zm.69,2.45h.71c.75,0,1.22-.41,1.22-1s-.5-1-1.24-1a3.17,3.17,0,0,0-.69.06Z"/><path class="cls-1" d="M130.72,139.91a2.53,2.53,0,0,1-2.51,2.84,2.47,2.47,0,0,1-2.42-2.73,2.56,2.56,0,0,1,2.5-2.83A2.45,2.45,0,0,1,130.72,139.91Zm-4.18.09c0,1.15.62,2.18,1.71,2.18s1.73-1,1.73-2.23-.56-2.2-1.72-2.2S126.54,138.82,126.54,140Z"/><path class="cls-1" d="M131.62,137.34a7.65,7.65,0,0,1,1.34-.11,2.2,2.2,0,0,1,1.51.45,1.45,1.45,0,0,1,.47,1.13,1.58,1.58,0,0,1-.41,1.15,2.25,2.25,0,0,1-1.65.59,2.38,2.38,0,0,1-.56-.05v2.16h-.7Zm.7,2.6a2.32,2.32,0,0,0,.57.05c.84,0,1.36-.4,1.36-1.15s-.51-1.05-1.28-1.05a3.11,3.11,0,0,0-.65.05Z"/><path class="cls-1" d="M138.67,140.14h-2.09v1.94h2.33v.58h-3v-5.39h2.91v.59h-2.21v1.7h2.09Z"/><path class="cls-1" d="M140.69,141l-.56,1.69h-.72l1.83-5.39h.84l1.84,5.39h-.75L142.6,141Zm1.76-.55-.52-1.55c-.12-.35-.2-.67-.28-1h0c-.08.32-.17.65-.27,1l-.53,1.55Z"/><path class="cls-1" d="M144.71,142.66v-5.39h.76L147.2,140a15.92,15.92,0,0,1,1,1.75h0c-.06-.72-.08-1.37-.08-2.21v-2.26h.66v5.39h-.71l-1.71-2.73c-.37-.6-.73-1.22-1-1.8h0c0,.68.06,1.33.06,2.22v2.3Z"/><path class="cls-1" d="M155.44,142.49a3.48,3.48,0,0,1-1.43.25,2.52,2.52,0,0,1-2.66-2.72,2.68,2.68,0,0,1,2.82-2.83,2.86,2.86,0,0,1,1.28.24l-.17.56a2.69,2.69,0,0,0-1.09-.22,2,2,0,0,0-2.1,2.22,2,2,0,0,0,2.07,2.17,2.88,2.88,0,0,0,1.13-.22Z"/><path class="cls-1" d="M157,137.27v2.26h2.6v-2.26h.71v5.39h-.71v-2.52H157v2.52h-.7v-5.39Z"/><path class="cls-1" d="M162.22,137.27v5.39h-.69v-5.39Z"/><path class="cls-1" d="M163.44,137.27h.7v4.81h2.3v.58h-3Z"/><path class="cls-1" d="M167.21,137.35a9.23,9.23,0,0,1,1.48-.12,3.1,3.1,0,0,1,2.19.68,2.47,2.47,0,0,1,.76,1.93,2.85,2.85,0,0,1-.78,2.1,3.32,3.32,0,0,1-2.38.77,11.5,11.5,0,0,1-1.27-.06Zm.7,4.76a4.64,4.64,0,0,0,.7,0,2.07,2.07,0,0,0,2.3-2.28,1.92,1.92,0,0,0-2.18-2.08,4,4,0,0,0-.82.07Z"/><path class="cls-1" d="M172.54,137.35a6.6,6.6,0,0,1,1.34-.12,2.24,2.24,0,0,1,1.56.44,1.35,1.35,0,0,1,.42,1,1.41,1.41,0,0,1-1,1.37v0a1.35,1.35,0,0,1,.79,1.08,8,8,0,0,0,.41,1.48h-.72a8.45,8.45,0,0,1-.36-1.28c-.16-.75-.44-1-1.08-1h-.65v2.33h-.7Zm.7,2.45H174c.74,0,1.22-.41,1.22-1s-.51-1-1.24-1a3,3,0,0,0-.69.06Z"/><path class="cls-1" d="M179.64,140.14h-2.1v1.94h2.34v.58h-3v-5.39h2.91v.59h-2.22v1.7h2.1Z"/><path class="cls-1" d="M180.78,142.66v-5.39h.76l1.73,2.73a15.92,15.92,0,0,1,1,1.75h0c-.06-.72-.08-1.37-.08-2.21v-2.26h.66v5.39h-.7l-1.72-2.73a18.19,18.19,0,0,1-1-1.8h0c0,.68.06,1.33.06,2.22v2.3Z"/><path class="cls-1" d="M186.91,137.19a9.26,9.26,0,0,1-.75,1.89l-.45.06a11.23,11.23,0,0,0,.47-1.88Z"/><path class="cls-1" d="M187.61,141.82a2.45,2.45,0,0,0,1.24.35c.72,0,1.13-.38,1.13-.92s-.29-.79-1-1.07c-.88-.31-1.43-.77-1.43-1.53a1.55,1.55,0,0,1,1.75-1.46,2.41,2.41,0,0,1,1.19.26l-.19.57a2.13,2.13,0,0,0-1-.26c-.73,0-1,.44-1,.81s.32.75,1.07,1c.91.35,1.37.79,1.37,1.58s-.61,1.55-1.88,1.55a2.83,2.83,0,0,1-1.38-.34Z"/><path class="cls-1" d="M197.44,142.42a4.74,4.74,0,0,1-1.65.3A2.53,2.53,0,0,1,193,140a2.7,2.7,0,0,1,2.92-2.78,3.18,3.18,0,0,1,1.34.25l-.16.56a3,3,0,0,0-1.2-.23,2,2,0,0,0-2.16,2.17,2,2,0,0,0,2.08,2.17,2.26,2.26,0,0,0,.92-.14v-1.61h-1.09v-.56h1.77Z"/><path class="cls-1" d="M199.21,137.27v3.19c0,1.21.53,1.72,1.25,1.72s1.31-.52,1.31-1.72v-3.19h.71v3.15c0,1.65-.88,2.33-2,2.33s-1.94-.63-1.94-2.3v-3.18Z"/><path class="cls-1" d="M204.71,137.87h-1.64v-.6h4v.6h-1.65v4.79h-.7Z"/><path class="cls-1" d="M207.57,141.82a2.45,2.45,0,0,0,1.24.35c.72,0,1.13-.38,1.13-.92s-.29-.79-1-1.07c-.88-.31-1.43-.77-1.43-1.53a1.55,1.55,0,0,1,1.75-1.46,2.41,2.41,0,0,1,1.19.26l-.19.57a2.13,2.13,0,0,0-1-.26c-.73,0-1,.44-1,.81s.32.75,1.07,1c.91.35,1.37.79,1.37,1.58s-.61,1.55-1.88,1.55a2.83,2.83,0,0,1-1.38-.34Z"/><path class="cls-2" d="M119,213.51l.75-43.09a42.55,42.55,0,0,0-11.18,1.27Z"/><path class="cls-3" d="M119,213.51l23.47-36.15a40.77,40.77,0,0,0-22.72-6.94Z"/><path class="cls-4" d="M119,213.51,155.17,237a43.11,43.11,0,0,0-12.67-59.62h0Z"/><path class="cls-5" d="M119,213.51l10.42,41.81A41.26,41.26,0,0,0,155.17,237Z"/><path class="cls-6" d="M119,213.51,79.66,231a43,43,0,0,0,49.79,24.29Z"/><path class="cls-7" d="M119,213.51,76.17,218a41,41,0,0,0,3.49,13Z"/><path class="cls-8" d="M119,213.51,108.6,171.69A42.49,42.49,0,0,0,76.17,218Z"/><path class="cls-1" d="M142.6,201.78h2.91v.59H143.3v1.79h2v.57h-2v2.44h-.7Z"/><path class="cls-1" d="M146.25,207.17v-.43l.55-.54c1.33-1.26,1.93-1.93,1.94-2.72a.93.93,0,0,0-1-1,1.74,1.74,0,0,0-1.1.44l-.23-.5a2.3,2.3,0,0,1,1.47-.53,1.46,1.46,0,0,1,1.59,1.52c0,1-.69,1.73-1.79,2.79l-.41.38v0h2.33v.58Z"/><path class="cls-1" d="M139.08,216.77v-.43l.56-.54c1.32-1.26,1.92-1.93,1.93-2.72a.92.92,0,0,0-1-1,1.76,1.76,0,0,0-1.1.44l-.23-.5a2.29,2.29,0,0,1,1.47-.52,1.47,1.47,0,0,1,1.6,1.51c0,1-.7,1.73-1.8,2.79l-.41.38v0h2.33v.58Z"/><path class="cls-1" d="M146.29,212.17h-2l-.2,1.33a2.34,2.34,0,0,1,.42,0,2.22,2.22,0,0,1,1.12.28,1.48,1.48,0,0,1,.75,1.33,1.81,1.81,0,0,1-1.94,1.78,2.49,2.49,0,0,1-1.29-.32l.17-.54a2.32,2.32,0,0,0,1.11.29,1.14,1.14,0,0,0,1.23-1.13c0-.67-.45-1.15-1.49-1.15a4.41,4.41,0,0,0-.72.06l.33-2.5h2.49Z"/><path class="cls-1" d="M149.64,213c0,1.09-.58,1.64-1.25,1.64s-1.21-.52-1.22-1.57.57-1.62,1.26-1.62S149.64,212,149.64,213Zm-1.91,0c0,.67.23,1.17.68,1.17s.67-.49.67-1.18-.19-1.16-.67-1.16S147.73,212.43,147.73,213.08Zm.61,3.78,3.06-5.37h.44l-3.05,5.37Zm4.68-1.67c0,1.09-.58,1.64-1.24,1.64s-1.21-.52-1.22-1.56.57-1.63,1.26-1.63S153,214.2,153,215.19Zm-1.9.05c0,.66.24,1.16.67,1.16s.68-.49.68-1.18-.19-1.16-.68-1.16S151.12,214.58,151.12,215.24Z"/><path class="cls-3" d="M129.88,153.16h2.9v.59h-2.21v1.79h2v.57h-2v2.44h-.69Z"/><path class="cls-3" d="M135.05,154h0l-.91.49L134,154l1.13-.61h.6v5.2h-.68Z"/><path class="cls-3" d="M128.82,167.66a3,3,0,0,0,.56,0,1.9,1.9,0,0,0,1.09-.5,2.33,2.33,0,0,0,.69-1.39h0a1.48,1.48,0,0,1-1.22.56,1.5,1.5,0,0,1-1.53-1.59,1.78,1.78,0,0,1,1.77-1.84c1.06,0,1.72.86,1.72,2.19a3.31,3.31,0,0,1-.89,2.44,2.63,2.63,0,0,1-1.52.69,3.07,3.07,0,0,1-.64,0Zm.25-3a1,1,0,0,0,1,1.1,1.14,1.14,0,0,0,1-.55.44.44,0,0,0,.07-.25c0-.89-.33-1.57-1.06-1.57S129.07,163.93,129.07,164.67Z"/><path class="cls-3" d="M134.85,164.42c0,1.09-.57,1.64-1.24,1.64s-1.21-.52-1.22-1.57.57-1.62,1.26-1.62S134.85,163.43,134.85,164.42Zm-1.9,0c0,.67.23,1.17.67,1.17s.67-.49.67-1.18-.18-1.16-.67-1.16S133,163.81,133,164.46Zm.61,3.78,3.05-5.37h.45L134,168.24Zm4.68-1.67c0,1.09-.58,1.64-1.24,1.64s-1.21-.52-1.22-1.56S136.35,165,137,165,138.24,165.58,138.24,166.57Zm-1.91.05c0,.66.25,1.16.68,1.16s.68-.49.68-1.18-.19-1.16-.68-1.16S136.33,166,136.33,166.62Z"/><path class="cls-2" d="M110.8,153.16h2.9v.59h-2.21v1.79h2v.57h-2v2.44h-.69Z"/><path class="cls-2" d="M117.82,153.35v.47l-2.26,4.73h-.73l2.25-4.6h-2.54v-.59Z"/><path class="cls-2" d="M111.5,168.15v-1.41h-2.41v-.47l2.32-3.32h.76v3.23h.73v.56h-.73v1.41Zm0-2v-1.73c0-.27,0-.54,0-.82h0c-.16.31-.28.53-.43.77l-1.27,1.77h1.7Z"/><path class="cls-2" d="M115.78,164.42c0,1.09-.58,1.64-1.25,1.64s-1.21-.52-1.22-1.57.57-1.62,1.26-1.62S115.78,163.43,115.78,164.42Zm-1.91,0c0,.67.23,1.17.67,1.17s.68-.49.68-1.18-.19-1.16-.68-1.16S113.87,163.81,113.87,164.46Zm.61,3.78,3.06-5.37H118l-3,5.37Zm4.68-1.67c0,1.09-.58,1.64-1.24,1.64s-1.21-.52-1.22-1.56S117.27,165,118,165,119.16,165.58,119.16,166.57Zm-1.91.05c0,.66.25,1.16.68,1.16s.68-.49.68-1.18-.19-1.16-.68-1.16S117.25,166,117.25,166.62Z"/><path class="cls-1" d="M93.08,189.46H96v.59H93.77v1.79h2v.57h-2v2.44h-.69Z"/><path class="cls-1" d="M99.69,190.15a2.47,2.47,0,0,0-.52,0A2.11,2.11,0,0,0,97.36,192h0a1.59,1.59,0,0,1,2.83,1.08,1.74,1.74,0,0,1-1.73,1.83c-1.11,0-1.84-.86-1.84-2.22a3.27,3.27,0,0,1,.88-2.34,2.86,2.86,0,0,1,1.66-.77,3.75,3.75,0,0,1,.51,0Zm-.2,3A1,1,0,0,0,98.42,192a1.14,1.14,0,0,0-1,.64.57.57,0,0,0-.08.31c0,.85.4,1.49,1.14,1.49S99.49,193.89,99.49,193.15Z"/><path class="cls-1" d="M89.56,204.45V204l.55-.54c1.33-1.26,1.93-1.93,1.94-2.72a.93.93,0,0,0-1-1,1.77,1.77,0,0,0-1.11.44l-.22-.5a2.29,2.29,0,0,1,1.47-.52,1.46,1.46,0,0,1,1.59,1.51c0,1-.7,1.73-1.79,2.79l-.42.38v0h2.34v.58Z"/><path class="cls-1" d="M93.83,203.64A2.31,2.31,0,0,0,95,204c.91,0,1.19-.57,1.18-1,0-.72-.67-1-1.35-1h-.39v-.52h.39c.52,0,1.16-.27,1.16-.88,0-.42-.26-.79-.91-.79a2,2,0,0,0-1,.35l-.18-.51a2.47,2.47,0,0,1,1.36-.4c1,0,1.49.6,1.49,1.24a1.29,1.29,0,0,1-1,1.22h0A1.36,1.36,0,0,1,96.89,203c0,.83-.65,1.56-1.9,1.56a2.74,2.74,0,0,1-1.35-.35Z"/><path class="cls-1" d="M100.11,200.72c0,1.09-.58,1.64-1.25,1.64s-1.2-.52-1.21-1.57.57-1.62,1.25-1.62S100.11,199.73,100.11,200.72Zm-1.9,0c0,.67.23,1.17.67,1.17s.67-.49.67-1.18-.18-1.16-.67-1.16S98.21,200.11,98.21,200.76Zm.6,3.78,3.06-5.37h.45l-3.06,5.37Zm4.68-1.67c0,1.09-.57,1.64-1.24,1.64S101.05,204,101,203s.56-1.63,1.25-1.63S103.49,201.88,103.49,202.87Zm-1.9,0c0,.66.25,1.16.68,1.16s.67-.49.67-1.18-.18-1.16-.67-1.16S101.59,202.26,101.59,202.92Z"/><path class="cls-7" d="M63.08,219.46H66v.59H63.77v1.79h2v.57h-2v2.44h-.69Z"/><path class="cls-7" d="M69.83,220.25h-2l-.2,1.33a2.34,2.34,0,0,1,.42,0,2.22,2.22,0,0,1,1.12.28,1.47,1.47,0,0,1,.74,1.33A1.8,1.8,0,0,1,68,224.94a2.56,2.56,0,0,1-1.3-.32l.18-.54a2.32,2.32,0,0,0,1.11.29,1.15,1.15,0,0,0,1.23-1.13c0-.67-.45-1.15-1.49-1.15a4.41,4.41,0,0,0-.72.06l.33-2.5h2.49Z"/><path class="cls-7" d="M64.71,229.85h-2l-.2,1.33a3.89,3.89,0,0,1,.42,0,2.22,2.22,0,0,1,1.12.28,1.48,1.48,0,0,1,.75,1.33,1.81,1.81,0,0,1-1.94,1.78,2.52,2.52,0,0,1-1.29-.32l.17-.54a2.32,2.32,0,0,0,1.11.29,1.15,1.15,0,0,0,1.24-1.13c0-.67-.46-1.15-1.5-1.15a4.41,4.41,0,0,0-.72.06l.34-2.5h2.48Z"/><path class="cls-7" d="M68.06,230.72c0,1.09-.58,1.64-1.25,1.64s-1.21-.52-1.21-1.57.56-1.62,1.25-1.62S68.06,229.73,68.06,230.72Zm-1.91,0c0,.67.24,1.17.68,1.17s.67-.49.67-1.18-.19-1.16-.67-1.16S66.15,230.11,66.15,230.76Zm.61,3.78,3.06-5.37h.44l-3.05,5.37Zm4.68-1.67c0,1.09-.58,1.64-1.24,1.64S69,234,69,233s.57-1.63,1.26-1.63S71.44,231.88,71.44,232.87Zm-1.9,0c0,.66.24,1.16.68,1.16s.67-.49.67-1.18-.19-1.16-.67-1.16S69.54,232.26,69.54,232.92Z"/><path class="cls-1" d="M105.21,229.67h2.9v.58H105.9V232h2v.58h-2v2.44h-.69Z"/><path class="cls-1" d="M111,235.06v-1.42h-2.41v-.46l2.32-3.32h.76v3.23h.72v.55h-.72v1.42Zm0-2v-1.74q0-.4,0-.81h0c-.16.3-.29.53-.43.77l-1.27,1.76v0Z"/><path class="cls-1" d="M101.69,244.66v-.43l.55-.54c1.33-1.26,1.93-1.94,1.94-2.72a.92.92,0,0,0-1-1,1.77,1.77,0,0,0-1.11.44l-.22-.5a2.3,2.3,0,0,1,1.47-.53,1.46,1.46,0,0,1,1.59,1.51c0,1-.7,1.74-1.79,2.79l-.42.39H105v.59Z"/><path class="cls-1" d="M105.79,244.66v-.43l.55-.54c1.33-1.26,1.93-1.94,1.94-2.72a.92.92,0,0,0-1-1,1.74,1.74,0,0,0-1.1.44l-.23-.5a2.3,2.3,0,0,1,1.47-.53,1.46,1.46,0,0,1,1.59,1.51c0,1-.69,1.74-1.79,2.79l-.41.39h2.33v.59Z"/><path class="cls-1" d="M112.24,240.92c0,1.1-.58,1.64-1.25,1.64s-1.2-.52-1.21-1.56.57-1.63,1.25-1.63S112.24,239.93,112.24,240.92Zm-1.9.05c0,.66.23,1.17.67,1.17s.67-.5.67-1.18-.18-1.16-.67-1.16S110.34,240.32,110.34,241Zm.6,3.78,3.06-5.38h.45l-3.06,5.38Zm4.68-1.68c0,1.1-.57,1.64-1.24,1.64s-1.2-.52-1.21-1.56.56-1.63,1.25-1.63S115.62,242.08,115.62,243.07Zm-1.9.05c0,.67.25,1.17.68,1.17s.67-.5.67-1.18-.18-1.16-.67-1.16S113.72,242.47,113.72,243.12Z"/><path class="cls-1" d="M132.88,229.67h2.9v.58h-2.21V232h2v.58h-2v2.44h-.69Z"/><path class="cls-1" d="M136.69,234.25a2.35,2.35,0,0,0,1.15.33c.91,0,1.19-.58,1.18-1,0-.73-.67-1-1.35-1h-.39V232h.39c.52,0,1.16-.26,1.16-.88,0-.41-.26-.78-.91-.78a1.94,1.94,0,0,0-1,.34l-.18-.51a2.47,2.47,0,0,1,1.36-.4c1,0,1.49.61,1.49,1.24a1.3,1.3,0,0,1-1,1.23h0a1.36,1.36,0,0,1,1.16,1.34c0,.83-.65,1.56-1.9,1.56a2.63,2.63,0,0,1-1.35-.36Z"/><path class="cls-1" d="M130.88,240.12h0l-.91.48-.13-.53,1.13-.61h.6v5.2h-.68Z"/><path class="cls-1" d="M133.46,244.66v-.43l.55-.54c1.33-1.26,1.93-1.94,1.94-2.72a.92.92,0,0,0-1-1,1.77,1.77,0,0,0-1.11.44l-.22-.5a2.3,2.3,0,0,1,1.47-.53,1.46,1.46,0,0,1,1.59,1.51c0,1-.7,1.74-1.79,2.79l-.42.39h2.34v.59Z"/><path class="cls-1" d="M139.91,240.92c0,1.1-.58,1.64-1.25,1.64s-1.21-.52-1.22-1.56.57-1.63,1.26-1.63S139.91,239.93,139.91,240.92ZM138,241c0,.66.24,1.17.68,1.17s.67-.5.67-1.18-.19-1.16-.67-1.16S138,240.32,138,241Zm.61,3.78,3.06-5.38h.44l-3.05,5.38Zm4.68-1.68c0,1.1-.58,1.64-1.24,1.64s-1.21-.52-1.22-1.56.57-1.63,1.26-1.63S143.29,242.08,143.29,243.07Zm-1.9.05c0,.67.24,1.17.68,1.17s.67-.5.67-1.18-.19-1.16-.67-1.16S141.39,242.47,141.39,243.12Z"/><path class="cls-1" d="M16.15,11.34a7.43,7.43,0,0,1,1.33-.11,2.25,2.25,0,0,1,1.51.45,1.45,1.45,0,0,1,.48,1.13A1.59,1.59,0,0,1,19.05,14a2.25,2.25,0,0,1-1.65.59,2.42,2.42,0,0,1-.56,0v2.15h-.69Zm.69,2.6a2.4,2.4,0,0,0,.58.05c.84,0,1.35-.4,1.35-1.15s-.5-1.05-1.27-1.05a3.16,3.16,0,0,0-.66.05Z"/><path class="cls-1" d="M20.4,11.35a6.67,6.67,0,0,1,1.34-.12,2.24,2.24,0,0,1,1.56.44,1.35,1.35,0,0,1,.42,1,1.41,1.41,0,0,1-1,1.37v0a1.35,1.35,0,0,1,.79,1.09,8,8,0,0,0,.41,1.47h-.72a8.45,8.45,0,0,1-.36-1.28c-.16-.75-.44-1-1.08-1.05H21.1v2.33h-.7Zm.7,2.45h.71c.74,0,1.22-.41,1.22-1s-.51-1-1.24-1a3,3,0,0,0-.69.06Z"/><path class="cls-1" d="M27.5,14.14H25.4v1.94h2.34v.58h-3V11.27h2.91v.59H25.4v1.7h2.1Z"/><path class="cls-1" d="M32.41,16.49a3.46,3.46,0,0,1-1.42.25A2.52,2.52,0,0,1,28.32,14a2.68,2.68,0,0,1,2.82-2.83,2.86,2.86,0,0,1,1.28.24l-.17.56a2.65,2.65,0,0,0-1.09-.22A2,2,0,0,0,29.06,14a2,2,0,0,0,2.07,2.17,2.93,2.93,0,0,0,1.14-.22Z"/><path class="cls-1" d="M36.07,14.14H34v1.94h2.33v.58h-3V11.27h2.91v.59H34v1.7h2.09Z"/><path class="cls-1" d="M37.22,16.66V11.27H38L39.71,14a15.73,15.73,0,0,1,1,1.75h0a21.92,21.92,0,0,1-.08-2.21V11.27h.65v5.39h-.7l-1.71-2.73a16.49,16.49,0,0,1-1-1.8h0c0,.68,0,1.33,0,2.22v2.3Z"/><path class="cls-1" d="M43.51,11.87H41.87v-.6h4v.6H44.21v4.79h-.7Z"/><path class="cls-1" d="M47.33,15l-.56,1.69h-.72l1.83-5.39h.84l1.84,5.39h-.74L49.24,15Zm1.77-.54-.53-1.56c-.12-.35-.2-.67-.28-1h0c-.08.32-.16.65-.27,1l-.53,1.56Z"/><path class="cls-1" d="M55.46,16.42a4.81,4.81,0,0,1-1.66.3,2.77,2.77,0,0,1-2-.71A2.76,2.76,0,0,1,51,14,2.69,2.69,0,0,1,54,11.22a3.23,3.23,0,0,1,1.35.25l-.17.56a2.94,2.94,0,0,0-1.19-.23A2,2,0,0,0,51.77,14a2,2,0,0,0,2.08,2.17,2.29,2.29,0,0,0,.93-.14V14.39h-1.1v-.56h1.78Z"/><path class="cls-1" d="M59.31,14.14H57.22v1.94h2.33v.58h-3V11.27h2.91v.59H57.22v1.7h2.09Z"/><path class="cls-1" d="M66.76,13.91a2.52,2.52,0,0,1-2.5,2.84A2.47,2.47,0,0,1,61.83,14a2.57,2.57,0,0,1,2.51-2.83A2.45,2.45,0,0,1,66.76,13.91ZM62.58,14c0,1.15.62,2.18,1.72,2.18S66,15.17,66,14s-.56-2.2-1.71-2.2S62.58,12.82,62.58,14Z"/><path class="cls-1" d="M67.67,11.27h2.9v.59H68.36v1.79h2v.58h-2v2.43h-.69Z"/><path class="cls-1" d="M73.26,11.35a6.14,6.14,0,0,1,1.27-.12,2.18,2.18,0,0,1,1.48.4,1.11,1.11,0,0,1,.45.95,1.29,1.29,0,0,1-.91,1.18v0a1.39,1.39,0,0,1,1.11,1.35,1.48,1.48,0,0,1-.46,1.08,2.73,2.73,0,0,1-1.86.5,8.65,8.65,0,0,1-1.08-.06Zm.69,2.2h.64c.73,0,1.16-.38,1.16-.9s-.48-.88-1.18-.88a2.66,2.66,0,0,0-.62.05Zm0,2.59a4.47,4.47,0,0,0,.59,0c.72,0,1.38-.27,1.38-1.05s-.63-1-1.39-1H74Z"/><path class="cls-1" d="M78.47,15l-.56,1.69h-.72L79,11.27h.84l1.84,5.39H81L80.38,15Zm1.76-.54-.52-1.56c-.12-.35-.2-.67-.28-1h0c-.08.32-.17.65-.27,1l-.53,1.56Z"/><path class="cls-1" d="M86.26,16.49a3.48,3.48,0,0,1-1.43.25A2.51,2.51,0,0,1,82.17,14,2.68,2.68,0,0,1,85,11.19a2.79,2.79,0,0,1,1.28.24L86.1,12A2.69,2.69,0,0,0,85,11.77,2,2,0,0,0,82.91,14,2,2,0,0,0,85,16.16a2.88,2.88,0,0,0,1.13-.22Z"/><path class="cls-1" d="M88.15,11.87H86.52v-.6h4v.6H88.86v4.79h-.71Z"/><path class="cls-1" d="M93.9,14.14H91.8v1.94h2.34v.58h-3V11.27H94v.59H91.8v1.7h2.1Z"/><path class="cls-1" d="M95,11.35a6.6,6.6,0,0,1,1.34-.12,2.24,2.24,0,0,1,1.56.44,1.35,1.35,0,0,1,.42,1,1.41,1.41,0,0,1-1,1.37v0a1.34,1.34,0,0,1,.8,1.09,8,8,0,0,0,.41,1.47h-.72a6.51,6.51,0,0,1-.36-1.28c-.16-.75-.45-1-1.08-1.05h-.65v2.33H95Zm.7,2.45h.71c.74,0,1.21-.41,1.21-1s-.5-1-1.23-1a3,3,0,0,0-.69.06Z"/><path class="cls-1" d="M100,11.27v5.39h-.69V11.27Z"/><path class="cls-1" d="M102.13,15l-.56,1.69h-.72l1.83-5.39h.84l1.84,5.39h-.74L104,15Zm1.77-.54-.53-1.56c-.12-.35-.2-.67-.28-1h0c-.08.32-.17.65-.27,1l-.53,1.56Z"/><path class="cls-1" d="M108.55,11.27v5.39h-.7V11.27Z"/><path class="cls-1" d="M109.76,16.66V11.27h.76L112.25,14a15.92,15.92,0,0,1,1,1.75h0c-.06-.72-.08-1.37-.08-2.21V11.27h.66v5.39h-.71l-1.71-2.73a18.19,18.19,0,0,1-1-1.8h0c0,.68.06,1.33.06,2.22v2.3Z"/><path class="cls-1" d="M117.59,15,117,16.66h-.72l1.84-5.39H119l1.84,5.39h-.74L119.5,15Zm1.77-.54-.53-1.56c-.12-.35-.2-.67-.28-1h0c-.08.32-.17.65-.28,1l-.52,1.56Z"/><path class="cls-1" d="M121.62,11.27h2.9v.59h-2.21v1.79h2v.58h-2v2.43h-.69Z"/><path class="cls-1" d="M125.51,11.35a6.6,6.6,0,0,1,1.34-.12,2.24,2.24,0,0,1,1.56.44,1.35,1.35,0,0,1,.42,1,1.41,1.41,0,0,1-1,1.37v0a1.35,1.35,0,0,1,.79,1.09,8,8,0,0,0,.41,1.47h-.72a8.45,8.45,0,0,1-.36-1.28c-.16-.75-.44-1-1.08-1.05h-.65v2.33h-.7Zm.7,2.45h.71c.74,0,1.22-.41,1.22-1s-.51-1-1.24-1a3,3,0,0,0-.69.06Z"/><path class="cls-1" d="M130.51,11.27v5.39h-.69V11.27Z"/><path class="cls-1" d="M135.5,16.49a3.48,3.48,0,0,1-1.43.25A2.51,2.51,0,0,1,131.41,14a2.68,2.68,0,0,1,2.82-2.83,2.77,2.77,0,0,1,1.27.24l-.16.56a2.69,2.69,0,0,0-1.09-.22,2,2,0,0,0-2.1,2.22,2,2,0,0,0,2.07,2.17,2.88,2.88,0,0,0,1.13-.22Z"/><path class="cls-1" d="M137.24,15l-.56,1.69H136l1.83-5.39h.84l1.84,5.39h-.74L139.15,15Zm1.77-.54-.53-1.56c-.12-.35-.2-.67-.28-1h0c-.09.32-.17.65-.28,1l-.52,1.56Z"/><path class="cls-1" d="M141.27,16.66V11.27H142L143.75,14a15.92,15.92,0,0,1,1,1.75h0a21.92,21.92,0,0,1-.08-2.21V11.27h.65v5.39h-.7l-1.71-2.73a16.49,16.49,0,0,1-1-1.8h0c0,.68.06,1.33.06,2.22v2.3Z"/><path class="cls-1" d="M152,16.49a3.42,3.42,0,0,1-1.42.25A2.51,2.51,0,0,1,147.91,14a2.68,2.68,0,0,1,2.81-2.83,2.86,2.86,0,0,1,1.28.24l-.17.56a2.65,2.65,0,0,0-1.09-.22,2,2,0,0,0-2.1,2.22,2,2,0,0,0,2.07,2.17,2.89,2.89,0,0,0,1.14-.22Z"/><path class="cls-1" d="M153.56,11.27v2.26h2.61V11.27h.7v5.39h-.7V14.14h-2.61v2.52h-.7V11.27Z"/><path class="cls-1" d="M158.78,11.27v5.39h-.7V11.27Z"/><path class="cls-1" d="M160,11.27h.7v4.81H163v.58h-3Z"/><path class="cls-1" d="M163.77,11.35a9.13,9.13,0,0,1,1.48-.12,3.07,3.07,0,0,1,2.18.68,2.47,2.47,0,0,1,.76,1.93,2.88,2.88,0,0,1-.77,2.1,3.36,3.36,0,0,1-2.39.77,11.31,11.31,0,0,1-1.26-.06Zm.7,4.76a4.55,4.55,0,0,0,.7,0,2.06,2.06,0,0,0,2.29-2.28,1.92,1.92,0,0,0-2.18-2.08,3.89,3.89,0,0,0-.81.07Z"/><path class="cls-1" d="M169.1,11.35a6.49,6.49,0,0,1,1.33-.12,2.2,2.2,0,0,1,1.56.44,1.36,1.36,0,0,1,.43,1,1.41,1.41,0,0,1-1,1.37v0a1.34,1.34,0,0,1,.79,1.09,8.64,8.64,0,0,0,.42,1.47h-.72a6.51,6.51,0,0,1-.36-1.28c-.16-.75-.45-1-1.08-1.05h-.66v2.33h-.69Zm.69,2.45h.71c.75,0,1.22-.41,1.22-1s-.5-1-1.24-1a3.1,3.1,0,0,0-.69.06Z"/><path class="cls-1" d="M176.19,14.14H174.1v1.94h2.33v.58h-3V11.27h2.91v.59H174.1v1.7h2.09Z"/><path class="cls-1" d="M177.34,16.66V11.27h.76L179.82,14a15.92,15.92,0,0,1,1,1.75h0a21.92,21.92,0,0,1-.08-2.21V11.27h.65v5.39h-.7L179,13.93a16.49,16.49,0,0,1-1-1.8h0c0,.68.05,1.33.05,2.22v2.3Z"/><path class="cls-1" d="M183.46,11.19a8.72,8.72,0,0,1-.75,1.89l-.44.06a12.3,12.3,0,0,0,.47-1.88Z"/><path class="cls-1" d="M184.16,15.82a2.49,2.49,0,0,0,1.25.35c.71,0,1.13-.38,1.13-.92s-.29-.79-1-1.07c-.88-.31-1.42-.77-1.42-1.53a1.54,1.54,0,0,1,1.74-1.46,2.41,2.41,0,0,1,1.19.26l-.19.57a2.12,2.12,0,0,0-1-.26c-.74,0-1,.44-1,.81s.33.75,1.07,1c.91.35,1.38.79,1.38,1.58s-.62,1.55-1.89,1.55A2.83,2.83,0,0,1,184,16.4Z"/><path class="cls-1" d="M194,16.42a4.81,4.81,0,0,1-1.66.3,2.79,2.79,0,0,1-2-.71,2.76,2.76,0,0,1-.75-2,2.69,2.69,0,0,1,2.91-2.78,3.2,3.2,0,0,1,1.35.25l-.17.56a2.94,2.94,0,0,0-1.19-.23A2,2,0,0,0,190.31,14a2,2,0,0,0,2.08,2.17,2.29,2.29,0,0,0,.93-.14V14.39h-1.1v-.56H194Z"/><path class="cls-1" d="M195.76,11.27v3.2c0,1.2.54,1.71,1.26,1.71s1.31-.52,1.31-1.71v-3.2h.7v3.15c0,1.65-.87,2.33-2,2.33s-1.93-.63-1.93-2.3V11.27Z"/><path class="cls-1" d="M201.26,11.87h-1.64v-.6h4v.6H202v4.79h-.71Z"/><path class="cls-1" d="M204.12,15.82a2.49,2.49,0,0,0,1.25.35c.71,0,1.13-.38,1.13-.92s-.29-.79-1-1.07-1.42-.77-1.42-1.53a1.54,1.54,0,0,1,1.74-1.46,2.41,2.41,0,0,1,1.19.26l-.19.57a2.12,2.12,0,0,0-1-.26c-.74,0-1,.44-1,.81s.33.75,1.07,1c.91.35,1.38.79,1.38,1.58s-.62,1.55-1.89,1.55a2.83,2.83,0,0,1-1.38-.34Z"/><path class="cls-6" d="M120.36,72.63,79.58,59.38a42.22,42.22,0,0,1,40.78-29.62Z"/><path class="cls-5" d="M120.36,72.63,77.54,70.39a42.55,42.55,0,0,1,2-11Z"/><path class="cls-4" d="M120.36,72.63,78.27,80.81a40.05,40.05,0,0,1-.73-10.42Z"/><path class="cls-3" d="M120.36,72.63,81.83,91.43a42.44,42.44,0,0,1-3.56-10.62Z"/><path class="cls-9" d="M120.36,72.63l-7.44,42.23A41.56,41.56,0,0,1,81.83,91.43Z"/><path class="cls-10" d="M120.36,72.63V29.76a42.88,42.88,0,1,1,0,85.75,37.84,37.84,0,0,1-7.44-.65Z"/><path class="cls-1" d="M136.42,67.31a7,7,0,0,1,1.27-.11,2.26,2.26,0,0,1,1.48.39,1.14,1.14,0,0,1,.44,1,1.27,1.27,0,0,1-.91,1.18v0a1.38,1.38,0,0,1,1.11,1.35,1.47,1.47,0,0,1-.45,1.08,2.74,2.74,0,0,1-1.86.5,8.52,8.52,0,0,1-1.08-.06Zm.69,2.21h.63c.74,0,1.17-.38,1.17-.9s-.48-.88-1.18-.88a2.6,2.6,0,0,0-.62.05Zm0,2.58a3,3,0,0,0,.58,0c.72,0,1.39-.27,1.39-1s-.63-1-1.39-1h-.58Z"/><path class="cls-1" d="M142,68.09h0l-.9.49L141,68l1.14-.61h.6v5.2H142Z"/><path class="cls-1" d="M136.22,77.63h-2L134,79a3.89,3.89,0,0,1,.42,0,2.22,2.22,0,0,1,1.12.28,1.47,1.47,0,0,1,.74,1.33,1.8,1.8,0,0,1-1.93,1.78,2.56,2.56,0,0,1-1.3-.32l.18-.54a2.28,2.28,0,0,0,1.11.29,1.15,1.15,0,0,0,1.23-1.12c0-.68-.46-1.16-1.49-1.16a5.92,5.92,0,0,0-.72.06l.33-2.5h2.49Z"/><path class="cls-1" d="M137.39,81.42a2.31,2.31,0,0,0,1.15.33c.9,0,1.18-.57,1.17-1,0-.72-.66-1-1.34-1H138v-.53h.39c.51,0,1.16-.27,1.16-.88,0-.42-.26-.79-.91-.79a1.89,1.89,0,0,0-1,.35l-.18-.51a2.43,2.43,0,0,1,1.35-.4c1,0,1.49.6,1.49,1.24a1.29,1.29,0,0,1-1,1.22v0a1.34,1.34,0,0,1,1.16,1.33c0,.83-.65,1.56-1.89,1.56A2.58,2.58,0,0,1,137.2,82Z"/><path class="cls-1" d="M143.67,78.5c0,1.09-.58,1.64-1.25,1.64s-1.21-.52-1.22-1.57.57-1.62,1.26-1.62S143.67,77.51,143.67,78.5Zm-1.91,0c0,.66.24,1.16.68,1.16s.67-.49.67-1.18-.19-1.16-.67-1.16S141.76,77.89,141.76,78.55Zm.61,3.77L145.43,77h.44l-3.05,5.37Zm4.68-1.67c0,1.09-.58,1.64-1.24,1.64s-1.21-.52-1.22-1.56.57-1.63,1.26-1.63S147.05,79.66,147.05,80.65Zm-1.9,0c0,.66.24,1.16.68,1.16s.67-.49.67-1.18-.19-1.16-.67-1.16S145.15,80,145.15,80.7Z"/><path class="cls-1" d="M102.63,45.81h2.91v.58h-2.21v1.79h2v.58h-2v2.43h-.7Z"/><path class="cls-1" d="M108.46,51.19V49.78H106v-.46L108.36,46h.76v3.23h.73v.55h-.73v1.41Zm0-2V47.49c0-.27,0-.54,0-.81h0c-.16.3-.29.52-.43.76l-1.27,1.77v0Z"/><path class="cls-1" d="M100.64,56.25h0l-.91.49-.13-.53,1.13-.61h.6v5.19h-.68Z"/><path class="cls-1" d="M106.32,56.19h-2l-.2,1.33a3.89,3.89,0,0,1,.42,0,2.22,2.22,0,0,1,1.12.28,1.48,1.48,0,0,1,.75,1.34,1.81,1.81,0,0,1-1.94,1.77,2.49,2.49,0,0,1-1.29-.32l.17-.53a2.45,2.45,0,0,0,1.11.28,1.14,1.14,0,0,0,1.23-1.12c0-.67-.45-1.15-1.49-1.15a6.22,6.22,0,0,0-.72.05l.33-2.49h2.49Z"/><path class="cls-1" d="M109.67,57.06c0,1.1-.58,1.64-1.25,1.64s-1.21-.52-1.22-1.57.57-1.62,1.26-1.62S109.67,56.07,109.67,57.06Zm-1.91,0c0,.66.24,1.17.68,1.17s.67-.5.67-1.19-.19-1.16-.67-1.16S107.76,56.45,107.76,57.11Zm.61,3.77,3.06-5.37h.44l-3.05,5.37Zm4.68-1.67c0,1.1-.58,1.64-1.24,1.64s-1.21-.52-1.22-1.56.57-1.63,1.26-1.63S113.05,58.22,113.05,59.21Zm-1.9,0c0,.66.24,1.17.68,1.17s.67-.5.67-1.19-.19-1.16-.67-1.16S111.15,58.6,111.15,59.26Z"/><path class="cls-1" d="M101.17,86.11a7,7,0,0,1,1.27-.11,2.26,2.26,0,0,1,1.48.39,1.13,1.13,0,0,1,.44,1,1.26,1.26,0,0,1-.91,1.18v0a1.39,1.39,0,0,1,1.11,1.35,1.44,1.44,0,0,1-.45,1.08,2.74,2.74,0,0,1-1.86.5,8.52,8.52,0,0,1-1.08-.06Zm.69,2.21h.63c.74,0,1.17-.39,1.17-.91s-.48-.88-1.18-.88a3.29,3.29,0,0,0-.62,0Zm0,2.58a4.4,4.4,0,0,0,.58,0c.72,0,1.39-.26,1.39-1.05s-.63-1-1.39-1h-.58Z"/><path class="cls-1" d="M105.25,91.43V91l.55-.54c1.33-1.26,1.93-1.94,1.94-2.72a.92.92,0,0,0-1-1,1.74,1.74,0,0,0-1.1.44l-.23-.5a2.3,2.3,0,0,1,1.47-.53,1.46,1.46,0,0,1,1.59,1.51c0,1-.69,1.74-1.79,2.79l-.41.39h2.33v.59Z"/><path class="cls-1" d="M97.87,101v-.43l.55-.54c1.32-1.26,1.92-1.94,1.93-2.72a.92.92,0,0,0-1-1,1.76,1.76,0,0,0-1.1.44l-.23-.5a2.32,2.32,0,0,1,1.47-.53,1.47,1.47,0,0,1,1.6,1.51c0,1-.7,1.74-1.8,2.79l-.41.39h2.33V101Z"/><path class="cls-1" d="M105.42,98.37c0,1.77-.65,2.74-1.8,2.74s-1.71-1-1.72-2.67.75-2.7,1.8-2.7S105.42,96.72,105.42,98.37Zm-2.82.08c0,1.35.42,2.12,1.06,2.12s1.06-.84,1.06-2.17-.33-2.11-1.06-2.11S102.6,97,102.6,98.45Z"/><path class="cls-1" d="M108.42,97.29c0,1.1-.58,1.64-1.25,1.64S106,98.41,106,97.36s.57-1.62,1.26-1.62S108.42,96.3,108.42,97.29Zm-1.91,0c0,.66.24,1.17.68,1.17s.67-.5.67-1.19-.19-1.15-.67-1.15S106.51,96.69,106.51,97.34Zm.61,3.77,3.06-5.37h.44l-3.05,5.37Zm4.68-1.67c0,1.1-.58,1.64-1.24,1.64s-1.21-.52-1.22-1.56.57-1.63,1.26-1.63S111.8,98.45,111.8,99.44Zm-1.9,0c0,.67.24,1.17.68,1.17s.67-.5.67-1.18-.19-1.16-.67-1.16S109.9,98.84,109.9,99.49Z"/><path class="cls-5" d="M67,48.47h2.9v.59H67.66v1.79h2v.57h-2v2.44H67Z"/><path class="cls-5" d="M70.78,53.05a2.36,2.36,0,0,0,1.16.33c.9,0,1.18-.57,1.17-1,0-.72-.66-1-1.34-1h-.39v-.52h.39c.51,0,1.16-.27,1.16-.88,0-.42-.27-.79-.91-.79a1.89,1.89,0,0,0-1,.35L70.79,49a2.47,2.47,0,0,1,1.36-.4c1,0,1.49.6,1.49,1.23a1.29,1.29,0,0,1-1,1.23h0a1.36,1.36,0,0,1,1.16,1.34c0,.83-.65,1.56-1.9,1.56a2.64,2.64,0,0,1-1.35-.35Z"/><path class="cls-5" d="M67.67,63.46V62.05H65.26v-.47l2.32-3.32h.76v3.23h.73v.56h-.73v1.41Zm0-2V59.76c0-.27,0-.54,0-.82h0a7.58,7.58,0,0,1-.43.77L66,61.48h1.7Z"/><path class="cls-5" d="M72,59.73c0,1.09-.58,1.64-1.25,1.64s-1.21-.52-1.22-1.57.57-1.62,1.26-1.62S72,58.74,72,59.73Zm-1.91,0c0,.67.24,1.17.68,1.17s.67-.49.67-1.18-.19-1.16-.67-1.16S70,59.12,70,59.77Zm.61,3.78,3.06-5.37h.44L71.1,63.55Zm4.68-1.67c0,1.09-.58,1.64-1.24,1.64S72.88,63,72.87,62s.57-1.63,1.26-1.63S75.33,60.89,75.33,61.88Zm-1.9,0c0,.66.24,1.16.68,1.16s.67-.49.67-1.18-.19-1.16-.67-1.16S73.43,61.27,73.43,61.93Z"/><path class="cls-4" d="M62,68h2.9v.58H62.66v1.79h2V71h-2v2.44H62Z"/><path class="cls-4" d="M65.62,73.39V73l.55-.54c1.33-1.26,1.93-1.93,1.93-2.72a.92.92,0,0,0-1-1,1.76,1.76,0,0,0-1.1.44l-.23-.5a2.33,2.33,0,0,1,1.48-.53,1.47,1.47,0,0,1,1.59,1.51c0,1-.7,1.74-1.79,2.79l-.42.39h2.33v.59Z"/><path class="cls-4" d="M62.67,83V81.57H60.26v-.46l2.32-3.32h.76V81h.73v.55h-.73V83Zm0-2V79.29c0-.28,0-.55,0-.82h0c-.15.3-.28.53-.43.77L61,81v0Z"/><path class="cls-4" d="M67,79.25c0,1.1-.58,1.64-1.25,1.64s-1.21-.52-1.22-1.56.57-1.63,1.26-1.63S67,78.26,67,79.25ZM65,79.3c0,.67.24,1.17.68,1.17s.67-.5.67-1.18-.19-1.16-.67-1.16S65,78.65,65,79.3Zm.61,3.78,3.06-5.38h.44L66.1,83.08Zm4.68-1.68c0,1.1-.58,1.64-1.24,1.64s-1.21-.52-1.22-1.56.57-1.63,1.26-1.63S70.33,80.41,70.33,81.4Zm-1.9,0c0,.67.24,1.17.68,1.17s.67-.5.67-1.18-.19-1.16-.67-1.16S68.43,80.8,68.43,81.45Z"/><path class="cls-3" d="M67.8,86.42h2.9V87H68.5V88.8h2v.57h-2v2.44h-.7Z"/><path class="cls-3" d="M73,87.27h0l-.9.49-.14-.54,1.14-.6h.6v5.19H73Z"/><path class="cls-3" d="M68.51,101.41V100H66.09v-.47l2.32-3.31h.76v3.23h.73V100h-.73v1.41Zm0-2V97.71c0-.27,0-.54,0-.81h0c-.16.3-.29.52-.43.76l-1.27,1.77v0Z"/><path class="cls-3" d="M72.78,97.68c0,1.09-.58,1.64-1.25,1.64s-1.2-.52-1.21-1.57.57-1.62,1.25-1.62S72.78,96.69,72.78,97.68Zm-1.9,0c0,.66.23,1.16.67,1.16s.67-.49.67-1.18-.18-1.16-.67-1.16S70.88,97.07,70.88,97.73Zm.6,3.77,3.06-5.37H75l-3.06,5.37Zm4.68-1.67c0,1.09-.57,1.64-1.24,1.64s-1.2-.52-1.21-1.56.56-1.63,1.25-1.63S76.16,98.84,76.16,99.83Zm-1.9,0c0,.66.25,1.16.68,1.16s.67-.49.67-1.18-.18-1.16-.67-1.16S74.26,99.22,74.26,99.88Z"/><rect class="cls-11" x="3.05" y="2.5" width="217" height="122"/><rect class="cls-11" x="3.05" y="130.5" width="217" height="133"/></svg>