<svg id="Layer_1" data-name="Layer 1" xmlns="http://www.w3.org/2000/svg" viewBox="0 0 439.76 343.95"><defs><style>.cls-1{fill:#ededee;}.cls-2{fill:#d9d2cf;}.cls-3,.cls-4{fill:none;}.cls-3{stroke:#fff;stroke-width:0.5px;}.cls-4{stroke:#a1938f;}.cls-5{fill:#6893cc;}.cls-6{fill:#231f20;}</style></defs><rect class="cls-1" width="439.76" height="343.95"/><polygon class="cls-2" points="423.26 215.18 85.78 215.18 85.94 11.68 423.26 11.68 423.26 215.18"/><line class="cls-3" x1="86.22" y1="186.38" x2="423.26" y2="186.38"/><line class="cls-3" x1="86.28" y1="99.92" x2="423.26" y2="99.92"/><line class="cls-3" x1="86.09" y1="157.56" x2="423.26" y2="157.56"/><line class="cls-3" x1="85.91" y1="128.74" x2="423.26" y2="128.74"/><line class="cls-3" x1="86.41" y1="71.1" x2="423.26" y2="71.1"/><line class="cls-3" x1="86" y1="42.28" x2="423.26" y2="42.28"/><line class="cls-3" x1="123.46" y1="11.2" x2="123.46" y2="216.22"/><line class="cls-3" x1="99.82" y1="11.2" x2="99.82" y2="216.22"/><line class="cls-3" x1="265.3" y1="11.2" x2="265.3" y2="216.22"/><line class="cls-3" x1="170.74" y1="11.2" x2="170.74" y2="216.22"/><line class="cls-3" x1="147.1" y1="11.2" x2="147.1" y2="216.22"/><line class="cls-3" x1="218.02" y1="11.2" x2="218.02" y2="216.22"/><line class="cls-3" x1="312.58" y1="11.2" x2="312.58" y2="216.22"/><line class="cls-3" x1="359.86" y1="11.2" x2="359.86" y2="216.22"/><line class="cls-3" x1="383.5" y1="11.2" x2="383.5" y2="216.22"/><line class="cls-3" x1="336.22" y1="11.2" x2="336.22" y2="216.22"/><line class="cls-3" x1="288.94" y1="11.2" x2="288.94" y2="216.22"/><line class="cls-3" x1="241.66" y1="11.2" x2="241.66" y2="216.22"/><line class="cls-3" x1="194.38" y1="11.2" x2="194.38" y2="216.22"/><line class="cls-3" x1="407.14" y1="11.2" x2="407.14" y2="216.22"/><polyline class="cls-4" points="423.26 215.39 86.13 215.39 86.13 11.68"/><rect class="cls-5" x="93.98" y="28.88" width="11.15" height="185.98"/><rect class="cls-5" x="117.62" y="156.52" width="11.15" height="58.33"/><rect class="cls-5" x="141.25" y="164.15" width="11.15" height="50.71"/><rect class="cls-5" x="164.89" y="175.24" width="11.15" height="39.62"/><rect class="cls-5" x="188.53" y="188.12" width="11.15" height="26.73"/><rect class="cls-5" x="212.17" y="189.91" width="11.15" height="24.95"/><rect class="cls-5" x="235.81" y="190.27" width="11.15" height="24.59"/><rect class="cls-5" x="259.45" y="195.28" width="11.15" height="19.58"/><rect class="cls-5" x="283.08" y="195.28" width="11.15" height="19.58"/><rect class="cls-5" x="306.73" y="200.29" width="11.15" height="14.57"/><rect class="cls-5" x="330.37" y="200.29" width="11.15" height="14.57"/><rect class="cls-5" x="354.01" y="201.36" width="11.15" height="13.49"/><rect class="cls-5" x="377.65" y="204.23" width="11.15" height="10.63"/><rect class="cls-5" x="401.29" y="204.58" width="11.15" height="10.27"/><path class="cls-6" d="M61.24,170.81l-7.49-4.21v-.78L61.24,170ZM55.9,169c1.53,0,2.3.89,2.3,1.88s-.78,1.84-2.18,1.85-2.27-.79-2.27-1.9S54.59,169,55.9,169Zm.08,2.69c.83,0,1.45-.29,1.45-.84S56.85,170,56,170s-1.45.23-1.45.82S55.16,171.64,56,171.64ZM58.91,164c1.52,0,2.3.88,2.3,1.88A1.93,1.93,0,0,1,59,167.68a2,2,0,0,1-2.27-1.9C56.75,164.63,57.61,164,58.91,164Zm.08,2.69c.82,0,1.45-.29,1.45-.84S59.86,165,59,165s-1.45.22-1.45.81S58.17,166.64,59,166.64Z" transform="translate(-0.24)"/><path class="cls-6" d="M58.35,155.42a2.69,2.69,0,0,1,2.89,2.79,2.63,2.63,0,0,1-2.8,2.72,2.69,2.69,0,0,1-2.88-2.81A2.61,2.61,0,0,1,58.35,155.42Zm.06,4.09c1.05,0,1.84-.51,1.84-1.34s-.77-1.33-1.86-1.33c-.85,0-1.82.38-1.82,1.31S57.51,159.51,58.41,159.51Z" transform="translate(-0.24)"/><path class="cls-6" d="M61.12,154.14H56.71v.74h-1v-.74h-.24a2.54,2.54,0,0,1-1.85-.66,2.06,2.06,0,0,1-.52-1.41,2.7,2.7,0,0,1,.13-.89l1.06.1a1.55,1.55,0,0,0-.1.58c0,.68.57.92,1.24.92h.28v-1.19h1v1.18h4.41Z" transform="translate(-0.24)"/><path class="cls-6" d="M55.11,146.53v0l.67,1.32-1,.24-.87-1.76v-1.15h7.25v1.32Z" transform="translate(-0.24)"/><path class="cls-6" d="M54.84,138.29a6.29,6.29,0,0,0,0,.71A2.58,2.58,0,0,0,57,141.43v0a2.07,2.07,0,0,1-.7-1.62,2.18,2.18,0,0,1,2.36-2.22,2.51,2.51,0,0,1,2.59,2.55c0,1.76-1.34,2.73-3.12,2.73a4.44,4.44,0,0,1-3.26-1.26A4.23,4.23,0,0,1,53.79,139a4.43,4.43,0,0,1,0-.7Zm3.89.65a1.28,1.28,0,0,0-1.44,1.26,1.34,1.34,0,0,0,.75,1.18.9.9,0,0,0,.44.09c1,0,1.74-.48,1.74-1.36C60.22,139.4,59.6,138.94,58.73,138.94Z" transform="translate(-0.24)"/><path class="cls-6" d="M59.62,136.46a3.79,3.79,0,0,0,.48-1.82c0-.88-.41-1.37-1-1.37s-.91.37-1.25,1.33c-.45,1.24-1.11,2-2.19,2s-2.16-1-2.16-2.65a4,4,0,0,1,.38-1.81l1.1.34A3.2,3.2,0,0,0,54.6,134c0,.87.47,1.25.91,1.25s.85-.43,1.24-1.44c.49-1.3,1.15-1.94,2.23-1.94s2.25.92,2.25,2.86a4.44,4.44,0,0,1-.47,2Z" transform="translate(-0.24)"/><path class="cls-6" d="M57.44,128.38c-.74,0-1.26,0-1.75.05v-1.2l1,0v0a1.61,1.61,0,0,1-1.16-1.48,1.55,1.55,0,0,1,0-.32h1.29a2.06,2.06,0,0,0,0,.4,1.21,1.21,0,0,0,1,1.23,2.74,2.74,0,0,0,.43,0h2.81v1.37Z" transform="translate(-0.24)"/><path class="cls-6" d="M53.7,124.36a13.18,13.18,0,0,1-.15-2.08,3.45,3.45,0,0,1,.6-2.32,1.89,1.89,0,0,1,1.5-.64,2,2,0,0,1,1.89,1.36h0A1.91,1.91,0,0,1,59,119.63a16.92,16.92,0,0,0,2.1-.59v1.41a11.42,11.42,0,0,1-1.77.51c-1,.21-1.3.56-1.32,1.34v.7h3.09v1.36ZM57,123v-.82c0-.92-.5-1.5-1.24-1.5s-1.21.58-1.21,1.47a4.24,4.24,0,0,0,.07.85Z" transform="translate(-0.24)"/><path class="cls-6" d="M61.12,118H53.6v-1.56l3.22-1.94a20.05,20.05,0,0,1,2.53-1.28v0c-1,.09-2,.13-3.13.13H53.6v-1.27h7.52v1.41l-3.3,2a26.79,26.79,0,0,1-2.6,1.35v0c1-.06,2-.07,3.2-.07h2.69Z" transform="translate(-0.24)"/><path class="cls-6" d="M59,109l2.13.65V111l-7.52-2.41v-1.75l7.52-2.44v1.47l-2.13.68Zm-1-2.15-1.85.59c-.46.14-1,.26-1.41.38v0c.44.11,1,.22,1.41.36l1.85.58Z" transform="translate(-0.24)"/><path class="cls-6" d="M59.86,101.2a3.07,3.07,0,0,0,.39-1.4c0-.6-.25-.87-.6-.87s-.56.23-.8.9c-.36,1.06-.94,1.5-1.58,1.49a1.82,1.82,0,0,1-1.71-2,3.15,3.15,0,0,1,.33-1.44l1,.27a2.36,2.36,0,0,0-.31,1.15c0,.49.23.75.56.75s.52-.25.76-.94c.36-1,.86-1.44,1.67-1.45,1,0,1.69.77,1.69,2.2a3.6,3.6,0,0,1-.38,1.66Z" transform="translate(-0.24)"/><path class="cls-6" d="M58.79,95.51a1.47,1.47,0,0,0,1.4-1.67A4.22,4.22,0,0,0,60,92.33l.95-.2a5.15,5.15,0,0,1,.33,1.9,2.57,2.57,0,0,1-2.74,2.8,2.7,2.7,0,0,1-2.93-2.66,2.36,2.36,0,0,1,2.65-2.34,3.8,3.8,0,0,1,.58,0Zm-1-2.39a1.17,1.17,0,0,0-1.33,1.13,1.34,1.34,0,0,0,1.33,1.26Z" transform="translate(-0.24)"/><path class="cls-6" d="M60.37,87.09v0a1.89,1.89,0,0,1,.87,1.69,2.47,2.47,0,0,1-2.75,2.27c-2,0-2.93-1.27-2.93-2.43a1.71,1.71,0,0,1,.84-1.58v0l-.72,0V85.67c.49,0,1,0,1.57,0h6.07v1.37Zm-2.44,0a1.87,1.87,0,0,0-.34,0,1.21,1.21,0,0,0-.94,1.18c0,.88.74,1.38,1.77,1.38s1.74-.48,1.74-1.35a1.2,1.2,0,0,0-.9-1.17,1.29,1.29,0,0,0-.43-.07Z" transform="translate(-0.24)"/><path class="cls-6" d="M59.49,79.39c.65,0,1.18,0,1.63,0v1.21l-.83.06v0a2,2,0,0,1,1,1.75c0,1-.59,1.89-2.36,1.89H55.69V82.9h3c.91,0,1.49-.29,1.49-1a1.14,1.14,0,0,0-.74-1,1.12,1.12,0,0,0-.42-.08H55.69V79.39Z" transform="translate(-0.24)"/><path class="cls-6" d="M58.79,76.93a1.47,1.47,0,0,0,1.4-1.67A4.26,4.26,0,0,0,60,73.75l.95-.2a5.15,5.15,0,0,1,.33,1.9,2.57,2.57,0,0,1-2.74,2.8,2.7,2.7,0,0,1-2.93-2.65,2.37,2.37,0,0,1,2.65-2.35,2.69,2.69,0,0,1,.58,0Zm-1-2.38a1.17,1.17,0,0,0-1.33,1.12,1.34,1.34,0,0,0,1.33,1.26Z" transform="translate(-0.24)"/><path class="cls-6" d="M57.3,72.15c-.62,0-1.14,0-1.61,0V71l.81-.07v0a2,2,0,0,1-.94-1.73c0-1,.62-1.93,2.34-1.93h3.22V68.6H58.05c-.78,0-1.37.29-1.37,1a1.14,1.14,0,0,0,.8,1.07,1.29,1.29,0,0,0,.45.06h3.19v1.38Z" transform="translate(-0.24)"/><path class="cls-6" d="M61,61.78a3.86,3.86,0,0,1,.28,1.54,2.61,2.61,0,0,1-2.77,2.8,2.81,2.81,0,0,1-2.9-3,3.49,3.49,0,0,1,.26-1.33l1,.24a2.47,2.47,0,0,0-.21,1,1.76,1.76,0,0,0,3.51,0A2.71,2.71,0,0,0,59.94,62Z" transform="translate(-0.24)"/><path class="cls-6" d="M58.79,59.79a1.47,1.47,0,0,0,1.4-1.67,4.2,4.2,0,0,0-.24-1.5l.95-.2a5.05,5.05,0,0,1,.33,1.89,2.57,2.57,0,0,1-2.74,2.8,2.69,2.69,0,0,1-2.93-2.65,2.37,2.37,0,0,1,2.65-2.35,3.54,3.54,0,0,1,.58,0Zm-1-2.38a1.17,1.17,0,0,0-1.33,1.12,1.34,1.34,0,0,0,1.33,1.26Z" transform="translate(-0.24)"/><path class="cls-6" d="M59.86,55.08a3,3,0,0,0,.39-1.4c0-.6-.25-.87-.6-.87s-.56.23-.8.9c-.36,1.06-.94,1.5-1.58,1.49a1.82,1.82,0,0,1-1.71-2.05,3.15,3.15,0,0,1,.33-1.44l1,.27a2.36,2.36,0,0,0-.31,1.15c0,.49.23.76.56.76s.52-.26.76-1c.36-1,.86-1.44,1.67-1.45,1,0,1.69.77,1.69,2.21a3.59,3.59,0,0,1-.38,1.65Z" transform="translate(-0.24)"/><path class="cls-6" d="M23.92,300a3.44,3.44,0,0,0,1.58-.89,1.35,1.35,0,0,0,.2-2c-.49-.49-1.06-.49-2.06-.05-1.17.56-2.16.65-2.91-.1a2.18,2.18,0,0,1,.28-3.17,3.4,3.4,0,0,1,1.44-.91l.37.75a3,3,0,0,0-1.27.75,1.22,1.22,0,0,0-.2,1.8c.5.5,1.06.42,2.08,0,1.25-.55,2.14-.57,2.92.21s.92,2.13-.33,3.39a3.93,3.93,0,0,1-1.7,1Z" transform="translate(-0.24)"/><path class="cls-6" d="M27.93,294.3l1.12,2.22-.71.71-3.51-7.12.82-.83,7.13,3.51-.73.73-2.24-1.11Zm1.2-2.28-2.05-1c-.46-.23-.86-.47-1.24-.69h0q.36.6.69,1.23l1,2.06Z" transform="translate(-0.24)"/><path class="cls-6" d="M28.32,286.76a10.24,10.24,0,0,1,1.21-1.43,3.07,3.07,0,0,1,2-1.1,1.89,1.89,0,0,1,1.43.59,2,2,0,0,1,.35,2.36l0,0a1.89,1.89,0,0,1,1.86.29A11,11,0,0,0,37,288.54l-.71.71a9.28,9.28,0,0,1-1.63-.91c-.89-.58-1.45-.57-2.1,0L32,289l2.3,2.3-.69.68Zm3.11,1.74.7-.71a1.49,1.49,0,0,0,.19-2.21c-.69-.68-1.49-.48-2.22.23a3.63,3.63,0,0,0-.61.74Z" transform="translate(-0.24)"/><path class="cls-6" d="M34.71,281.9l0,0-.41,1.37-.66-.39.52-1.72.59-.59,5.13,5.12-.67.67Z" transform="translate(-0.24)"/><path class="cls-6" d="M38.36,278.25l0,0-.41,1.37-.66-.39.52-1.72.59-.59,5.13,5.12-.67.67Z" transform="translate(-0.24)"/><path class="cls-6" d="M46.46,277.69a2.59,2.59,0,0,0,1.19-.64c.51-.51.49-1,.18-1.31s-.71-.32-1.41,0c-.94.44-1.64.38-2.09-.07a1.66,1.66,0,0,1,.19-2.44,2.62,2.62,0,0,1,1.18-.7l.33.67a2.18,2.18,0,0,0-1,.56.79.79,0,0,0-.12,1.16c.32.32.69.23,1.37-.08.92-.4,1.59-.41,2.15.15s.63,1.67-.28,2.58a3.19,3.19,0,0,1-1.33.81Z" transform="translate(-0.24)"/><path class="cls-6" d="M52.54,270.94c.4.4.75.74,1.08,1l-.62.62-.66-.58h0a2,2,0,0,1-.55,2c-.6.6-1.65,1-3-.35l-2.23-2.23.69-.7,2.12,2.12c.72.72,1.43,1,2.06.36a1.42,1.42,0,0,0,.29-1.55,1.86,1.86,0,0,0-.29-.42l-2.35-2.34.7-.69Z" transform="translate(-0.24)"/><path class="cls-6" d="M54.7,270.87c-.24-.28-.61-.68-1-1l-4.62-4.62.69-.68,2.4,2.4v0a2,2,0,0,1,.6-2c1-.95,2.41-.83,3.56.34,1.36,1.36,1.18,2.9.33,3.75a1.92,1.92,0,0,1-2,.56l0,0,.6.67Zm-.81-2.25a1.79,1.79,0,0,0,.28.22,1.51,1.51,0,0,0,1.86-.23c.72-.73.57-1.75-.31-2.63a1.75,1.75,0,0,0-2.55-.28,1.55,1.55,0,0,0-.21,1.91,1.9,1.9,0,0,0,.24.32Z" transform="translate(-0.24)"/><path class="cls-6" d="M58.69,259.24c.26.29.55.62,1,1.08l2.22,2.22a3.14,3.14,0,0,1,1.2,2.29,2.86,2.86,0,0,1-.94,1.84,3.5,3.5,0,0,1-1.58,1l-.36-.71a2.93,2.93,0,0,0,1.42-.82,1.62,1.62,0,0,0-.1-2.56l-.42-.43,0,0a1.91,1.91,0,0,1-.58,1.85,2.41,2.41,0,0,1-3.48-.23,2.59,2.59,0,0,1-.31-3.75,1.8,1.8,0,0,1,1.85-.53h0l-.55-.61Zm.79,2.23a1.43,1.43,0,0,0-.35-.28,1.41,1.41,0,0,0-1.71.24c-.66.66-.57,1.69.31,2.58a1.69,1.69,0,0,0,2.5.24,1.43,1.43,0,0,0,.25-1.67,1.69,1.69,0,0,0-.31-.43Z" transform="translate(-0.24)"/><path class="cls-6" d="M61,259.31c-.45-.45-.84-.82-1.22-1.15l.61-.61.77.72,0,0a1.62,1.62,0,0,1,.22-1.89,1.16,1.16,0,0,1,.22-.18l.66.66A1.2,1.2,0,0,0,62,257a1.37,1.37,0,0,0,0,1.82,2.29,2.29,0,0,0,.29.36l2,2-.68.69Z" transform="translate(-0.24)"/><path class="cls-6" d="M67.72,254a2.65,2.65,0,0,1,.13,3.93,2.57,2.57,0,0,1-3.8-.14,2.64,2.64,0,0,1-.13-3.92A2.56,2.56,0,0,1,67.72,254Zm-3,3.07a1.69,1.69,0,1,0-.31-2.66A1.84,1.84,0,0,0,64.73,257Z" transform="translate(-0.24)"/><path class="cls-6" d="M72.69,250.8c.39.39.75.73,1.07,1l-.61.61-.67-.58v0a2.07,2.07,0,0,1-.55,2c-.6.6-1.65,1-3-.36l-2.24-2.23.7-.69,2.11,2.11c.73.72,1.44,1,2.07.36a1.42,1.42,0,0,0,.28-1.54,1.18,1.18,0,0,0-.29-.42l-2.34-2.34.69-.7Z" transform="translate(-0.24)"/><path class="cls-6" d="M72.31,248.12c-.49-.49-.9-.87-1.28-1.22l.62-.62.69.62h0a2.13,2.13,0,0,1,.61-2.1c.92-.92,2.4-.84,3.56.32,1.37,1.38,1.21,2.89.31,3.79a1.89,1.89,0,0,1-1.77.57l0,0,2.08,2.07-.69.69Zm1.7.33a2.33,2.33,0,0,0,.32.25,1.5,1.5,0,0,0,1.85-.23c.74-.73.56-1.76-.31-2.63a1.76,1.76,0,0,0-2.56-.29,1.58,1.58,0,0,0-.19,1.91,1.27,1.27,0,0,0,.24.33Z" transform="translate(-0.24)"/><path class="cls-6" d="M78.56,245.59a2.5,2.5,0,0,0,1.19-.64c.51-.51.49-1,.18-1.31s-.71-.32-1.42,0c-.93.44-1.63.38-2.09-.07a1.67,1.67,0,0,1,.2-2.44,2.62,2.62,0,0,1,1.18-.7l.33.68a2,2,0,0,0-1,.55.78.78,0,0,0-.12,1.16c.31.32.68.23,1.37-.07.92-.41,1.59-.42,2.15.15s.63,1.66-.28,2.57a3.19,3.19,0,0,1-1.33.81Z" transform="translate(-0.24)"/><path class="cls-6" d="M78.56,235.81l.69-.7,5.6,5.6-.69.7Z" transform="translate(-0.24)"/><path class="cls-6" d="M88.14,237.43,87.6,237l0,0a2,2,0,0,1-.59,1.74,1.55,1.55,0,0,1-2.27.07c-.92-.92-.61-2.25.88-3.72l-.08-.08a1.12,1.12,0,0,0-1.75,0,2.6,2.6,0,0,0-.71,1.28l-.62-.3a3.38,3.38,0,0,1,.92-1.6,1.92,1.92,0,0,1,3,.11L87.79,236a7.23,7.23,0,0,0,1,.85Zm-2.06-1.84c-.77.74-1.49,1.73-.75,2.48a.86.86,0,0,0,1.31,0,1.34,1.34,0,0,0,.29-1.56,1.2,1.2,0,0,0-.18-.26Z" transform="translate(-0.24)"/><path class="cls-6" d="M89.32,227.85l1.86,1.86L93,227.92l.47.48-1.78,1.78,1.87,1.87-.5.5-1.87-1.87-1.79,1.79-.47-.48,1.78-1.78-1.85-1.85Z" transform="translate(-0.24)"/><path class="cls-6" d="M92.26,222.11l.7-.7,5.6,5.6-.7.7Z" transform="translate(-0.24)"/><path class="cls-6" d="M99.69,225.88c-.24-.28-.61-.68-1-1l-4.61-4.62.68-.68,2.4,2.4v0a2,2,0,0,1,.6-2c1-.95,2.41-.83,3.56.34,1.37,1.36,1.18,2.9.33,3.75a1.92,1.92,0,0,1-2,.56l0,0,.6.67Zm-.81-2.25a2,2,0,0,0,.29.22,1.5,1.5,0,0,0,1.85-.23c.72-.73.57-1.75-.31-2.63a1.75,1.75,0,0,0-2.55-.28,1.55,1.55,0,0,0-.21,1.91,1.9,1.9,0,0,0,.24.32Z" transform="translate(-0.24)"/><path class="cls-6" d="M44.15,305a3.48,3.48,0,0,0,1.58-.89c.7-.7.74-1.48.2-2s-1.06-.5-2.06-.06c-1.17.56-2.16.65-2.91-.1a2.15,2.15,0,0,1,.28-3.16,3.32,3.32,0,0,1,1.43-.92l.37.75a3.07,3.07,0,0,0-1.26.76,1.22,1.22,0,0,0-.2,1.8c.49.49,1.06.41,2.08,0,1.24-.55,2.14-.57,2.92.21s.92,2.14-.33,3.39a4,4,0,0,1-1.7,1Z" transform="translate(-0.24)"/><path class="cls-6" d="M48.15,299.35l1.12,2.23-.71.71-3.51-7.13.83-.83L53,297.84l-.73.73L50,297.47Zm1.21-2.28-2-1c-.47-.23-.86-.46-1.25-.69h0c.23.4.47.81.69,1.23l1,2.06Z" transform="translate(-0.24)"/><path class="cls-6" d="M48.55,291.81a10.11,10.11,0,0,1,1.2-1.43,3.08,3.08,0,0,1,2-1.1,1.87,1.87,0,0,1,1.42.59,2,2,0,0,1,.36,2.36l0,0a1.9,1.9,0,0,1,1.85.29,11.89,11.89,0,0,0,1.87,1l-.71.71a9.74,9.74,0,0,1-1.62-.91c-.89-.58-1.45-.57-2.1,0l-.65.65,2.31,2.3-.69.69Zm3.1,1.74.71-.71a1.47,1.47,0,0,0,.18-2.2c-.68-.69-1.48-.49-2.21.23a3.88,3.88,0,0,0-.62.74Z" transform="translate(-0.24)"/><path class="cls-6" d="M56.42,291.82a2.09,2.09,0,0,1-.35-2.39h0a1.83,1.83,0,0,1-2-.34,2,2,0,0,1,.22-2.95,1.88,1.88,0,0,1,2.76-.23,1.84,1.84,0,0,1,.35,2l0,0a2,2,0,0,1,2.35.3,2.22,2.22,0,0,1-.25,3.23C58.46,292.56,57.17,292.57,56.42,291.82Zm-1.74-3.44c.51.51,1.18.4,1.93,0a1.44,1.44,0,0,0-.15-1.71,1.14,1.14,0,0,0-1.71,0A1.17,1.17,0,0,0,54.68,288.38Zm4.47.65c-.62-.62-1.35-.49-2.24,0a1.57,1.57,0,0,0,.13,2,1.34,1.34,0,0,0,2,0A1.31,1.31,0,0,0,59.15,289Z" transform="translate(-0.24)"/><path class="cls-6" d="M60.12,281.45a3.49,3.49,0,0,0-.49.55,3,3,0,0,0,0,3.61l0,0a2.21,2.21,0,0,1,3.85-1.72,2.44,2.44,0,0,1,.1,3.51c-1.1,1.1-2.67,1-4-.37a4.55,4.55,0,0,1-1.44-3.18,3.86,3.86,0,0,1,.88-2.39,5.25,5.25,0,0,1,.46-.55Zm2.76,3.16a1.47,1.47,0,0,0-2.23-.12,1.61,1.61,0,0,0-.36,1.62.8.8,0,0,0,.23.39c.86.83,1.87,1.06,2.59.34A1.51,1.51,0,0,0,62.88,284.61Z" transform="translate(-0.24)"/><path class="cls-6" d="M63.8,276.1A7.38,7.38,0,0,0,66,280.32a7.52,7.52,0,0,0,4.19,2.21l-.54.54a7.23,7.23,0,0,1-4.24-2.17,7.41,7.41,0,0,1-2.19-4.26Z" transform="translate(-0.24)"/><path class="cls-6" d="M67.14,278.75a1.53,1.53,0,0,1-.48-1,1.12,1.12,0,0,1,.34-.93,1.73,1.73,0,0,1,.88-.45,2.64,2.64,0,0,1,1.05.13,10.92,10.92,0,0,1,2.38,1.14v0a14,14,0,0,0-1.43-2.48c-.37-.46-.47-.78-.29-1s.37-.11.63.14a6.3,6.3,0,0,1,1.13,1.91c.34.8.61,1.5.81,2.08.4.39.8.83,1.22,1.3a1,1,0,0,1,.27.47.52.52,0,0,1-.16.47.34.34,0,0,1-.36.11.69.69,0,0,1-.34-.21,2.78,2.78,0,0,1-.57-.93c-.16-.37-.28-.67-.36-.91-.59-.31-1.17-.62-1.75-.9a4.11,4.11,0,0,0-1.78-.47,1,1,0,0,0-.76.29.81.81,0,0,0-.26.56.79.79,0,0,0,.16.48c.07.12.08.21,0,.27s-.09,0-.15,0A.4.4,0,0,1,67.14,278.75Z" transform="translate(-0.24)"/><path class="cls-6" d="M73.61,272.45l.52.52-1.95,1.95-.51-.52Z" transform="translate(-0.24)"/><path class="cls-6" d="M71.59,268.76a10.47,10.47,0,0,1,1.21-1.42,3.07,3.07,0,0,1,1.93-1,2,2,0,0,1,1.58.64,2.27,2.27,0,0,1,.73,1.55,3.13,3.13,0,0,1-1,2.21,4.17,4.17,0,0,1-.6.5l2.13,2.13-.69.69Zm3.25,1.87a3.17,3.17,0,0,0,.62-.51,1.61,1.61,0,0,0,.2-2.47c-.71-.7-1.54-.54-2.3.21a4.16,4.16,0,0,0-.59.71Z" transform="translate(-0.24)"/><path class="cls-6" d="M78.38,267.21c-.45-.45-.84-.83-1.22-1.16l.61-.61.77.73,0,0a1.62,1.62,0,0,1,.22-1.89,1.21,1.21,0,0,1,.23-.18l.65.66a1,1,0,0,0-.26.21,1.37,1.37,0,0,0,0,1.82,2.86,2.86,0,0,0,.29.36l2,2-.69.69Z" transform="translate(-0.24)"/><path class="cls-6" d="M85.1,261.86a2.64,2.64,0,0,1,.13,3.93,2.55,2.55,0,0,1-3.79-.13,2.64,2.64,0,0,1-.14-3.92A2.56,2.56,0,0,1,85.1,261.86Zm-3,3.07a1.69,1.69,0,1,0-.3-2.66A1.84,1.84,0,0,0,82.11,264.93Z" transform="translate(-0.24)"/><path class="cls-6" d="M83.84,257.18l1.1,1.1,1-1,.53.53-1,1,2,2.05c.48.48.88.61,1.27.22a1.84,1.84,0,0,0,.35-.45l.55.49a2.28,2.28,0,0,1-.52.71,1.31,1.31,0,0,1-1,.46,2,2,0,0,1-1.26-.72l-2.08-2.09-.59.6-.53-.53.59-.59-.92-.92Z" transform="translate(-0.24)"/><path class="cls-6" d="M89.13,258.15a1.74,1.74,0,0,0,2.64,0,3.7,3.7,0,0,0,.86-1.26l.61.38a4.38,4.38,0,0,1-1,1.51,2.51,2.51,0,0,1-3.8-.05,2.62,2.62,0,0,1-.27-3.85,2.29,2.29,0,0,1,3.37.22,2.36,2.36,0,0,1,.3.35Zm1.54-2.53a1.4,1.4,0,0,0-2.09-.17,1.64,1.64,0,0,0,.06,2.2Z" transform="translate(-0.24)"/><path class="cls-6" d="M96,251a2.63,2.63,0,0,1,.13,3.92,2.55,2.55,0,0,1-3.79-.13,2.63,2.63,0,0,1-.14-3.92A2.55,2.55,0,0,1,96,251ZM93,254a1.69,1.69,0,1,0-.3-2.65A1.84,1.84,0,0,0,93,254Z" transform="translate(-0.24)"/><path class="cls-6" d="M98.78,252.07c-.25-.27-.62-.68-1-1l-4.61-4.62.68-.69,2.4,2.4h0a2,2,0,0,1,.6-2c.94-.94,2.4-.82,3.55.34,1.37,1.37,1.19,2.91.33,3.76a1.92,1.92,0,0,1-2,.56l0,0,.6.66ZM98,249.83a3.15,3.15,0,0,0,.29.22,1.53,1.53,0,0,0,1.85-.23c.73-.73.57-1.75-.31-2.63a1.75,1.75,0,0,0-2.55-.28,1.57,1.57,0,0,0-.21,1.91,2.85,2.85,0,0,0,.25.32Z" transform="translate(-0.24)"/><path class="cls-6" d="M105.41,245.44l-.54-.43,0,0a2,2,0,0,1-.6,1.73,1.53,1.53,0,0,1-2.27.07c-.92-.92-.6-2.24.88-3.71l-.08-.08a1.11,1.11,0,0,0-1.75,0,2.65,2.65,0,0,0-.71,1.27l-.62-.3a3.36,3.36,0,0,1,.92-1.59,1.91,1.91,0,0,1,3,.11l1.43,1.43a7.23,7.23,0,0,0,1,.85Zm-2-1.84c-.78.74-1.5,1.73-.76,2.47a.88.88,0,0,0,1.32,0,1.36,1.36,0,0,0,.28-1.56,1,1,0,0,0-.18-.26Z" transform="translate(-0.24)"/><path class="cls-6" d="M109.67,240.89a3.48,3.48,0,0,1-.87,1.32,2.57,2.57,0,0,1-3.85-.05,2.75,2.75,0,0,1,0-4.08,3.23,3.23,0,0,1,1.16-.76l.38.69a2.3,2.3,0,0,0-1,.63,1.87,1.87,0,0,0,.1,2.79,1.85,1.85,0,0,0,2.75.1,2.69,2.69,0,0,0,.66-1Z" transform="translate(-0.24)"/><path class="cls-6" d="M106.55,234.47l1.1,1.1,1-1,.53.52-1,1,2.06,2.06c.47.47.88.6,1.26.22a1.87,1.87,0,0,0,.36-.45l.55.49a2.53,2.53,0,0,1-.52.71,1.34,1.34,0,0,1-1,.45,2,2,0,0,1-1.26-.72l-2.08-2.08-.6.59-.52-.53.59-.59-.92-.92Z" transform="translate(-0.24)"/><path class="cls-6" d="M111.84,235.44a1.73,1.73,0,0,0,2.64,0,3.62,3.62,0,0,0,.85-1.25l.62.37a4.54,4.54,0,0,1-1,1.51,2.52,2.52,0,0,1-3.81-.05,2.62,2.62,0,0,1-.26-3.85,2.29,2.29,0,0,1,3.37.22,4.53,4.53,0,0,1,.3.35Zm1.54-2.53a1.39,1.39,0,0,0-2.09-.16,1.63,1.63,0,0,0,.06,2.19Z" transform="translate(-0.24)"/><path class="cls-6" d="M114.56,231c-.45-.46-.84-.83-1.22-1.16l.6-.61.78.72,0,0a1.61,1.61,0,0,1,.22-1.89.82.82,0,0,1,.22-.17l.66.65a2.22,2.22,0,0,0-.27.21,1.39,1.39,0,0,0,0,1.83,2.82,2.82,0,0,0,.29.35l2,2-.68.68Z" transform="translate(-0.24)"/><path class="cls-6" d="M115.65,225.42a.61.61,0,0,1-.86.86.6.6,0,0,1,0-.87A.59.59,0,0,1,115.65,225.42Zm4.12,5.66L116,227.27l.69-.7,3.82,3.82Z" transform="translate(-0.24)"/><path class="cls-6" d="M123.72,227.13l-.53-.43,0,0a2,2,0,0,1-.6,1.74,1.54,1.54,0,0,1-2.26.07c-.92-.92-.61-2.25.88-3.72l-.08-.07a1.11,1.11,0,0,0-1.75,0,2.6,2.6,0,0,0-.71,1.28l-.62-.3a3.38,3.38,0,0,1,.92-1.6,1.92,1.92,0,0,1,3,.11l1.43,1.43a7.85,7.85,0,0,0,1,.85Zm-2-1.85c-.77.74-1.5,1.73-.75,2.48a.86.86,0,0,0,1.31,0,1.34,1.34,0,0,0,.29-1.56,1,1,0,0,0-.19-.26Z" transform="translate(-0.24)"/><path class="cls-6" d="M126,226.81a7.56,7.56,0,0,0-2.24-4.22,7.43,7.43,0,0,0-4.19-2.21l.53-.53A7.11,7.11,0,0,1,124.3,222a7.25,7.25,0,0,1,2.18,4.25Z" transform="translate(-0.24)"/><path class="cls-6" d="M90.56,283.36a3.47,3.47,0,0,0,1.57-.88c.71-.71.75-1.49.21-2s-1.07-.5-2.06-.06c-1.17.56-2.16.65-2.91-.1a2.15,2.15,0,0,1,.28-3.16,3.32,3.32,0,0,1,1.43-.92l.37.75a3.07,3.07,0,0,0-1.26.76,1.21,1.21,0,0,0-.2,1.8c.49.49,1.06.42,2.08,0,1.24-.56,2.14-.58,2.92.2s.92,2.14-.34,3.39a4,4,0,0,1-1.69,1Z" transform="translate(-0.24)"/><path class="cls-6" d="M94.56,277.68l1.12,2.23-.71.71-3.51-7.13.83-.82,7.13,3.5-.73.73-2.24-1.1Zm1.21-2.28-2-1c-.47-.23-.86-.46-1.25-.69h0c.23.4.47.81.69,1.24l1,2.05Z" transform="translate(-0.24)"/><path class="cls-6" d="M95,270.14a10.07,10.07,0,0,1,1.2-1.42,3.06,3.06,0,0,1,2-1.11,1.87,1.87,0,0,1,1.43.59,2,2,0,0,1,.36,2.36l0,0a1.85,1.85,0,0,1,1.85.29,12.84,12.84,0,0,0,1.87,1.05l-.71.71a11,11,0,0,1-1.62-.92c-.89-.58-1.45-.57-2.1,0l-.65.65,2.31,2.3-.69.69Zm3.1,1.74.71-.7A1.48,1.48,0,0,0,99,269c-.68-.69-1.48-.49-2.21.23a4.23,4.23,0,0,0-.62.74Z" transform="translate(-0.24)"/><path class="cls-6" d="M101.34,265.29h0l-.41,1.37-.67-.39.53-1.72.59-.59,5.12,5.13-.67.67Z" transform="translate(-0.24)"/><path class="cls-6" d="M105,261.64h0l-.41,1.37-.67-.39.53-1.72.59-.59,5.12,5.13-.67.67Z" transform="translate(-0.24)"/><path class="cls-6" d="M113.1,261.07a2.55,2.55,0,0,0,1.19-.64c.51-.5.49-1,.17-1.31s-.71-.31-1.41,0c-.93.44-1.63.39-2.09-.07a1.67,1.67,0,0,1,.2-2.44,2.74,2.74,0,0,1,1.17-.7l.34.68a2,2,0,0,0-1,.56.78.78,0,0,0-.11,1.16c.31.31.68.23,1.37-.08.91-.41,1.58-.42,2.15.15s.62,1.66-.28,2.57a3.06,3.06,0,0,1-1.34.81Z" transform="translate(-0.24)"/><path class="cls-6" d="M119.18,254.33c.39.39.75.73,1.07,1l-.61.61-.67-.58h0a2.05,2.05,0,0,1-.55,2c-.6.6-1.65,1-3-.36l-2.23-2.23.69-.7,2.11,2.12c.73.72,1.44,1,2.07.36a1.4,1.4,0,0,0,.28-1.55,1.24,1.24,0,0,0-.29-.41l-2.34-2.34.69-.7Z" transform="translate(-0.24)"/><path class="cls-6" d="M121.34,254.25c-.24-.28-.62-.68-1-1l-4.62-4.61.69-.69,2.39,2.4,0,0a2,2,0,0,1,.6-2c1-.95,2.41-.83,3.56.34,1.36,1.36,1.18,2.9.33,3.75a1.92,1.92,0,0,1-2,.56l0,0,.6.66Zm-.81-2.25a1.42,1.42,0,0,0,.28.22,1.5,1.5,0,0,0,1.85-.23c.73-.72.57-1.75-.3-2.62a1.76,1.76,0,0,0-2.56-.29,1.57,1.57,0,0,0-.2,1.91,1.34,1.34,0,0,0,.24.32Z" transform="translate(-0.24)"/><path class="cls-6" d="M125.33,242.63c.26.29.55.61,1,1.08l2.21,2.21a3.1,3.1,0,0,1,1.2,2.29,2.83,2.83,0,0,1-.93,1.84,3.47,3.47,0,0,1-1.58,1l-.36-.7a3.11,3.11,0,0,0,1.42-.82,1.63,1.63,0,0,0-.1-2.57l-.43-.42h0a2,2,0,0,1-.58,1.86,2.42,2.42,0,0,1-3.49-.24,2.59,2.59,0,0,1-.3-3.75,1.79,1.79,0,0,1,1.85-.52l0,0-.55-.61Zm.79,2.22a1.53,1.53,0,0,0-.36-.28,1.41,1.41,0,0,0-1.7.24c-.66.66-.58,1.69.31,2.58a1.69,1.69,0,0,0,2.5.24,1.44,1.44,0,0,0,.25-1.67,1.51,1.51,0,0,0-.32-.42Z" transform="translate(-0.24)"/><path class="cls-6" d="M127.64,242.7c-.45-.45-.85-.83-1.22-1.16l.6-.61.78.73,0,0a1.62,1.62,0,0,1,.22-1.9,1.09,1.09,0,0,1,.22-.17l.65.65a2.18,2.18,0,0,0-.26.22,1.37,1.37,0,0,0,0,1.82,2.14,2.14,0,0,0,.29.35l2,2-.68.68Z" transform="translate(-0.24)"/><path class="cls-6" d="M134.36,237.35a2.64,2.64,0,0,1,.12,3.93,2.56,2.56,0,0,1-3.79-.14,2.63,2.63,0,0,1-.13-3.92A2.56,2.56,0,0,1,134.36,237.35Zm-3,3.07a1.85,1.85,0,0,0,2.63.31,1.87,1.87,0,0,0-.33-2.65,1.69,1.69,0,1,0-2.3,2.34Z" transform="translate(-0.24)"/><path class="cls-6" d="M139.33,234.18a13.47,13.47,0,0,0,1.07,1l-.62.62-.66-.59,0,0a2,2,0,0,1-.55,2c-.6.6-1.65,1-3-.36l-2.23-2.23.7-.69,2.11,2.11c.73.73,1.43,1,2.07.37a1.44,1.44,0,0,0,.28-1.55,1.59,1.59,0,0,0-.29-.42l-2.35-2.34.7-.69Z" transform="translate(-0.24)"/><path class="cls-6" d="M139,231.5c-.49-.49-.9-.87-1.28-1.21l.62-.63.69.63v0a2.12,2.12,0,0,1,.62-2.1c.92-.92,2.4-.83,3.56.33,1.37,1.37,1.21,2.88.31,3.78a1.88,1.88,0,0,1-1.77.58h0l2.08,2.08-.69.68Zm1.7.33a2.27,2.27,0,0,0,.31.25,1.53,1.53,0,0,0,1.86-.22c.73-.74.56-1.76-.32-2.64a1.75,1.75,0,0,0-2.55-.28,1.55,1.55,0,0,0-.19,1.91,1.78,1.78,0,0,0,.23.33Z" transform="translate(-0.24)"/><path class="cls-6" d="M143.07,221.89l5.31,5.31-.68.69-5.32-5.32Z" transform="translate(-0.24)"/><path class="cls-6" d="M145,220l5.32,5.32-.69.69-5.31-5.32Z" transform="translate(-0.24)"/><path class="cls-6" d="M90.4,303.48c-.78-.7-1.72-1.54-2.37-2.21l0,0c.45.81.89,1.69,1.35,2.69L91,307.5l-.52.52-3.39-1.67c-1-.5-1.9-1-2.68-1.45h0c.65.68,1.5,1.61,2.25,2.46l2.14,2.42-.66.65-4.94-5.69.88-.87,3.47,1.66c.88.44,1.64.84,2.33,1.26l0,0c-.4-.67-.79-1.44-1.23-2.35L87,300.91l.87-.88,5.65,5-.67.67Z" transform="translate(-0.24)"/><path class="cls-6" d="M96.69,301.87l-.54-.43,0,0a2,2,0,0,1-.6,1.73,1.53,1.53,0,0,1-2.27.07c-.92-.92-.6-2.24.88-3.71l-.08-.08a1.12,1.12,0,0,0-1.75,0,2.65,2.65,0,0,0-.71,1.28l-.62-.3a3.36,3.36,0,0,1,.92-1.59,1.91,1.91,0,0,1,3,.11l1.43,1.43a7.23,7.23,0,0,0,1,.85Zm-2-1.85c-.78.75-1.5,1.74-.76,2.48a.88.88,0,0,0,1.32,0,1.36,1.36,0,0,0,.28-1.56,1,1,0,0,0-.18-.26Z" transform="translate(-0.24)"/><path class="cls-6" d="M95.75,297.56c-.45-.45-.85-.83-1.23-1.16l.61-.61.77.73,0,0a1.61,1.61,0,0,1,.22-1.89,1.09,1.09,0,0,1,.22-.17l.65.65a2.18,2.18,0,0,0-.26.22,1.38,1.38,0,0,0,0,1.82,4.11,4.11,0,0,0,.29.35l2,2-.69.68Z" transform="translate(-0.24)"/><path class="cls-6" d="M96.83,291.94a.58.58,0,0,1,0,.87.59.59,0,0,1-.85,0,.61.61,0,0,1,0-.87A.59.59,0,0,1,96.83,291.94Zm4.12,5.67-3.82-3.82.7-.7,3.82,3.82Z" transform="translate(-0.24)"/><path class="cls-6" d="M100,293c-.39-.4-.72-.71-1.06-1l.61-.61.67.59,0,0a2,2,0,0,1,.54-2c.53-.53,1.67-1,3,.27l2.28,2.28-.7.7-2.2-2.21c-.61-.61-1.36-.9-2-.24a1.39,1.39,0,0,0-.22,1.64,1.29,1.29,0,0,0,.28.37l2.29,2.3-.69.69Z" transform="translate(-0.24)"/><path class="cls-6" d="M105.78,289.21a1.72,1.72,0,0,0,2.63,0,3.54,3.54,0,0,0,.86-1.25l.62.38a4.53,4.53,0,0,1-1,1.5,2.5,2.5,0,0,1-3.8-.05,2.61,2.61,0,0,1-.27-3.84,2.28,2.28,0,0,1,3.38.22c.14.14.24.27.3.34Zm1.53-2.53a1.4,1.4,0,0,0-2.09-.16,1.62,1.62,0,0,0,.07,2.19Z" transform="translate(-0.24)"/><path class="cls-6" d="M110.22,283.19c-.49-.49-.9-.87-1.27-1.21l.62-.63.68.63,0,0a2.12,2.12,0,0,1,.62-2.1c.92-.92,2.39-.83,3.55.33,1.37,1.37,1.22,2.88.32,3.78a1.89,1.89,0,0,1-1.78.58h0l2.07,2.08-.68.68Zm1.71.33a2.27,2.27,0,0,0,.31.25,1.53,1.53,0,0,0,1.86-.22c.73-.74.55-1.76-.32-2.64a1.76,1.76,0,0,0-2.56-.28,1.57,1.57,0,0,0-.18,1.91,1.78,1.78,0,0,0,.23.33Z" transform="translate(-0.24)"/><path class="cls-6" d="M113.16,275.61a.58.58,0,0,1,0,.87.59.59,0,0,1-.85,0,.61.61,0,0,1,0-.87A.59.59,0,0,1,113.16,275.61Zm4.12,5.67-3.82-3.82.7-.7,3.81,3.82Z" transform="translate(-0.24)"/><path class="cls-6" d="M121.7,276.57a3.54,3.54,0,0,1-.87,1.31,2.57,2.57,0,0,1-3.85,0,2.75,2.75,0,0,1,0-4.08,3.23,3.23,0,0,1,1.16-.76l.38.69a2.18,2.18,0,0,0-1,.62,2,2,0,0,0,2.84,2.9,2.82,2.82,0,0,0,.67-1Z" transform="translate(-0.24)"/><path class="cls-6" d="M124.17,270.5a2.64,2.64,0,0,1,.13,3.93,2.57,2.57,0,0,1-3.79-.13,2.63,2.63,0,0,1-.14-3.92A2.56,2.56,0,0,1,124.17,270.5Zm-3,3.07a1.69,1.69,0,1,0-.3-2.66A1.84,1.84,0,0,0,121.18,273.57Z" transform="translate(-0.24)"/><path class="cls-6" d="M124.42,269c-.49-.49-.9-.87-1.28-1.22l.62-.62.69.62h0a2.14,2.14,0,0,1,.62-2.1c.92-.92,2.4-.84,3.56.32,1.37,1.38,1.21,2.89.31,3.79a1.93,1.93,0,0,1-1.77.58h0l2.08,2.08-.69.68Zm1.7.33a2.27,2.27,0,0,0,.31.25,1.51,1.51,0,0,0,1.86-.23c.73-.73.56-1.76-.32-2.63a1.74,1.74,0,0,0-2.55-.28,1.54,1.54,0,0,0-.19,1.9,1.5,1.5,0,0,0,.23.33Z" transform="translate(-0.24)"/><path class="cls-6" d="M125.87,261.48l.7-.69,2.38,2.38h0a2,2,0,0,1,0-1,2.1,2.1,0,0,1,.52-.91c.51-.51,1.64-1,3,.3l2.27,2.27-.69.7-2.19-2.2c-.62-.61-1.37-.9-2-.25a1.42,1.42,0,0,0-.24,1.63,1.47,1.47,0,0,0,.28.38l2.31,2.3-.7.69Z" transform="translate(-0.24)"/><path class="cls-6" d="M132.28,258.64l3.1,1.42c.33.16.73.37,1,.53h0c-.16-.3-.37-.67-.55-1l-1.49-3,.74-.73,1.68,3.76a8.25,8.25,0,0,1,1.08,3.7,2.58,2.58,0,0,1-.41,1.3l-.75-.41a3,3,0,0,0,.27-1,3.19,3.19,0,0,0-.19-1.35,1,1,0,0,0-.11-.23,1,1,0,0,0-.23-.13l-4.93-2.11Z" transform="translate(-0.24)"/><path class="cls-6" d="M135.49,253.24l1.09,1.1,1-1,.52.53-1,1,2.06,2.06c.47.47.87.6,1.26.22a2.57,2.57,0,0,0,.36-.45l.55.49a2.6,2.6,0,0,1-.52.71,1.35,1.35,0,0,1-1,.45,2,2,0,0,1-1.27-.72l-2.08-2.08-.59.59-.53-.53.59-.59-.91-.92Z" transform="translate(-0.24)"/><path class="cls-6" d="M143.69,251a2.64,2.64,0,0,1,.12,3.93,2.56,2.56,0,0,1-3.79-.14,2.63,2.63,0,0,1-.13-3.92A2.56,2.56,0,0,1,143.69,251Zm-3,3.07a1.69,1.69,0,1,0-.31-2.66A1.83,1.83,0,0,0,140.7,254.06Z" transform="translate(-0.24)"/><path class="cls-6" d="M143.93,249.48c-.49-.49-.9-.86-1.28-1.21l.63-.62.68.62,0,0a2.11,2.11,0,0,1,.61-2.09c.93-.93,2.4-.84,3.56.32,1.37,1.37,1.22,2.89.32,3.78a1.89,1.89,0,0,1-1.78.58v0l2.07,2.07-.69.69Zm1.7.33a2.29,2.29,0,0,0,.32.26,1.52,1.52,0,0,0,1.85-.23c.74-.74.56-1.76-.31-2.64a1.77,1.77,0,0,0-2.56-.28,1.58,1.58,0,0,0-.19,1.91,1.55,1.55,0,0,0,.24.33Z" transform="translate(-0.24)"/><path class="cls-6" d="M145.39,242l.69-.7,5.6,5.6-.69.7Z" transform="translate(-0.24)"/><path class="cls-6" d="M155,243.59l-.53-.42,0,0a2,2,0,0,1-.6,1.74,1.54,1.54,0,0,1-2.26.07c-.92-.92-.61-2.25.88-3.72l-.08-.08a1.12,1.12,0,0,0-1.75,0,2.56,2.56,0,0,0-.71,1.28l-.62-.3a3.3,3.3,0,0,1,.92-1.6,1.92,1.92,0,0,1,3,.11l1.43,1.43a7.85,7.85,0,0,0,1,.85Zm-2.05-1.84c-.77.74-1.5,1.73-.76,2.47a.87.87,0,0,0,1.32,0,1.34,1.34,0,0,0,.29-1.56,1,1,0,0,0-.19-.26Z" transform="translate(-0.24)"/><path class="cls-6" d="M153.86,239.12c-.39-.39-.72-.71-1.06-1l.62-.61.67.59v0a2,2,0,0,1,.55-2c.52-.53,1.66-1,3,.28l2.28,2.28-.69.69-2.21-2.2c-.61-.61-1.35-.9-2-.24a1.4,1.4,0,0,0-.22,1.64,1.5,1.5,0,0,0,.28.37l2.29,2.29-.69.7Z" transform="translate(-0.24)"/><path class="cls-6" d="M159.65,234.78v0c0-.23-.07-.53-.09-.77l-.2-2.44.84-.83.09,3,3.93.57-.85.84-3.14-.51,0,.75,1.43,1.43-.68.69-5.61-5.6.69-.69Z" transform="translate(-0.24)"/><path class="cls-6" d="M160.65,228.08l1.09,1.1,1-1,.52.52-1,1,2.06,2.06c.47.47.87.6,1.26.22a2.57,2.57,0,0,0,.36-.45l.55.49a2.4,2.4,0,0,1-.52.71,1.35,1.35,0,0,1-1,.45,2,2,0,0,1-1.27-.72l-2.08-2.08L161,231l-.53-.53.59-.59-.91-.92Z" transform="translate(-0.24)"/><path class="cls-6" d="M168.85,225.83a2.64,2.64,0,0,1,.12,3.93,2.56,2.56,0,0,1-3.79-.14,2.63,2.63,0,0,1-.13-3.92A2.56,2.56,0,0,1,168.85,225.83Zm-3,3.07a1.69,1.69,0,1,0-.31-2.66A1.83,1.83,0,0,0,165.86,228.9Z" transform="translate(-0.24)"/><path class="cls-6" d="M168.88,224.11c-.4-.39-.73-.71-1.07-1l.62-.62.67.59h0a2,2,0,0,1,.55-2c.53-.53,1.66-1,3,.28l2.28,2.27-.69.7-2.2-2.2c-.62-.62-1.36-.9-2-.25a1.39,1.39,0,0,0-.22,1.64,1.27,1.27,0,0,0,.27.38l2.3,2.29-.7.69Z" transform="translate(-0.24)"/><path class="cls-6" d="M224.05,287.67c-.78-.7-1.72-1.54-2.37-2.21l0,0c.45.8.89,1.69,1.35,2.69l1.64,3.52-.52.52-3.39-1.67c-1-.5-1.9-1-2.68-1.46l0,0c.65.68,1.5,1.61,2.25,2.45l2.14,2.42-.66.66-4.94-5.69.87-.87,3.48,1.66c.88.43,1.64.84,2.33,1.25l0,0c-.4-.67-.79-1.44-1.23-2.35l-1.62-3.52.87-.87,5.65,5-.67.67Z" transform="translate(-0.24)"/><path class="cls-6" d="M230.34,286.06l-.54-.43,0,0a2,2,0,0,1-.6,1.74,1.55,1.55,0,0,1-2.27.07c-.92-.92-.61-2.25.88-3.71l-.08-.08a1.11,1.11,0,0,0-1.75,0,2.65,2.65,0,0,0-.71,1.28l-.62-.3a3.36,3.36,0,0,1,.92-1.59,1.91,1.91,0,0,1,3,.11l1.43,1.42a7.35,7.35,0,0,0,1,.86Zm-2.05-1.85c-.78.74-1.5,1.74-.76,2.48a.86.86,0,0,0,1.31,0,1.36,1.36,0,0,0,.29-1.57,1.51,1.51,0,0,0-.18-.26Z" transform="translate(-0.24)"/><path class="cls-6" d="M229.4,281.74c-.45-.45-.85-.82-1.23-1.16l.61-.6.77.72,0,0a1.62,1.62,0,0,1,.23-1.89.92.92,0,0,1,.22-.18l.65.66a1.5,1.5,0,0,0-.26.21,1.38,1.38,0,0,0,0,1.82,2.29,2.29,0,0,0,.29.36l2,2-.69.69Z" transform="translate(-0.24)"/><path class="cls-6" d="M230.48,276.13a.58.58,0,0,1,0,.87.59.59,0,0,1-.85,0,.61.61,0,0,1,0-.87A.58.58,0,0,1,230.48,276.13Zm4.12,5.66L230.78,278l.7-.69,3.81,3.82Z" transform="translate(-0.24)"/><path class="cls-6" d="M233.66,277.16c-.39-.39-.72-.71-1.06-1l.61-.61.67.59,0,0a2,2,0,0,1,.54-2c.53-.53,1.67-1,3,.28l2.28,2.28-.7.69-2.2-2.2c-.62-.61-1.36-.9-2-.24a1.38,1.38,0,0,0-.22,1.64,1.45,1.45,0,0,0,.27.37l2.3,2.29-.69.7Z" transform="translate(-0.24)"/><path class="cls-6" d="M239.43,273.4a1.73,1.73,0,0,0,2.63,0,3.56,3.56,0,0,0,.86-1.26l.62.38a4.45,4.45,0,0,1-1,1.51,2.51,2.51,0,0,1-3.8-.05,2.63,2.63,0,0,1-.27-3.85,2.3,2.3,0,0,1,3.38.22c.14.15.23.27.3.35Zm1.53-2.53a1.39,1.39,0,0,0-2.09-.16,1.62,1.62,0,0,0,.07,2.19Z" transform="translate(-0.24)"/><path class="cls-6" d="M245.65,267.39l1.12,2.23-.71.71-3.51-7.12.83-.83,7.13,3.5-.73.73-2.24-1.1Zm1.21-2.28-2.05-1c-.47-.22-.86-.46-1.25-.69v0q.36.58.69,1.23l1,2.06Z" transform="translate(-0.24)"/><path class="cls-6" d="M253.85,262.26a3.76,3.76,0,0,1-.88,1.32,2.57,2.57,0,0,1-3.85-.05,2.75,2.75,0,0,1,0-4.08,3.14,3.14,0,0,1,1.16-.76l.38.69a2.3,2.3,0,0,0-1,.62,1.88,1.88,0,0,0,.09,2.8,1.86,1.86,0,0,0,2.76.1,2.9,2.9,0,0,0,.66-1Z" transform="translate(-0.24)"/><path class="cls-6" d="M250.72,255.84l1.1,1.1,1-1,.53.53-1,1,2.06,2c.47.48.87.61,1.26.23a2.31,2.31,0,0,0,.35-.45l.56.49a2.61,2.61,0,0,1-.53.71,1.33,1.33,0,0,1-1,.45,2,2,0,0,1-1.26-.72l-2.08-2.09-.59.6-.53-.53.59-.59-.91-.92Z" transform="translate(-0.24)"/><path class="cls-6" d="M253.29,253.32a.58.58,0,0,1,0,.87.6.6,0,0,1-.85,0,.61.61,0,0,1,0-.87A.58.58,0,0,1,253.29,253.32Zm4.12,5.66-3.82-3.82.7-.69,3.82,3.82Z" transform="translate(-0.24)"/><path class="cls-6" d="M256.47,254.35c-.39-.39-.72-.71-1.06-1l.61-.61.67.59,0,0a2,2,0,0,1,.54-2c.53-.53,1.67-1,3,.28l2.28,2.28-.7.69-2.2-2.2c-.61-.62-1.36-.9-2-.24a1.38,1.38,0,0,0-.22,1.64,1.64,1.64,0,0,0,.27.37l2.3,2.29-.69.7Z" transform="translate(-0.24)"/><path class="cls-6" d="M265.15,247.37a2.62,2.62,0,0,1,.12,3.92,2.55,2.55,0,0,1-3.79-.13,2.64,2.64,0,0,1-.14-3.92A2.56,2.56,0,0,1,265.15,247.37Zm-3,3.06a1.83,1.83,0,0,0,2.62.31,2.15,2.15,0,0,0-2.93-3A1.82,1.82,0,0,0,262.16,250.43Z" transform="translate(-0.24)"/><path class="cls-6" d="M267.93,248.46c-.25-.27-.62-.68-1-1l-4.61-4.62.69-.69,2.4,2.4h0a2,2,0,0,1,.6-2c.95-.94,2.4-.82,3.56.34,1.36,1.37,1.18,2.91.33,3.76a1.93,1.93,0,0,1-2,.56l0,0,.6.66Zm-.81-2.25a2,2,0,0,0,.28.23,1.52,1.52,0,0,0,1.85-.23c.73-.73.57-1.75-.3-2.63a1.76,1.76,0,0,0-2.56-.28,1.57,1.57,0,0,0-.2,1.91,1.9,1.9,0,0,0,.24.32Z" transform="translate(-0.24)"/><path class="cls-6" d="M274.56,241.83l-.54-.42,0,0a2,2,0,0,1-.6,1.73,1.53,1.53,0,0,1-2.26.08c-.92-.93-.61-2.25.87-3.72l-.08-.08a1.11,1.11,0,0,0-1.75,0,2.74,2.74,0,0,0-.71,1.27l-.61-.3a3.33,3.33,0,0,1,.91-1.59,1.92,1.92,0,0,1,3,.11l1.42,1.43a7.23,7.23,0,0,0,1,.85ZM272.51,240c-.77.74-1.5,1.73-.76,2.47a.87.87,0,0,0,1.32,0,1.32,1.32,0,0,0,.28-1.56.81.81,0,0,0-.18-.26Z" transform="translate(-0.24)"/><path class="cls-6" d="M278.83,237.28a3.67,3.67,0,0,1-.88,1.32,2.57,2.57,0,0,1-3.85,0,2.75,2.75,0,0,1,0-4.08,3.14,3.14,0,0,1,1.16-.76l.37.69a2.28,2.28,0,0,0-1,.63,2,2,0,0,0,2.85,2.89,2.82,2.82,0,0,0,.66-1Z" transform="translate(-0.24)"/><path class="cls-6" d="M275.7,230.86l1.1,1.1,1-1,.53.53-1,1,2.05,2c.48.48.88.61,1.27.23a2.31,2.31,0,0,0,.35-.45l.55.49a2.23,2.23,0,0,1-.52.71,1.33,1.33,0,0,1-1,.45,2,2,0,0,1-1.26-.72l-2.08-2.08-.59.59-.53-.53.59-.59-.91-.92Z" transform="translate(-0.24)"/><path class="cls-6" d="M281,231.83a1.73,1.73,0,0,0,2.64,0,3.47,3.47,0,0,0,.86-1.26l.61.38a4.24,4.24,0,0,1-1,1.51,2.5,2.5,0,0,1-3.8,0,2.62,2.62,0,0,1-.27-3.85,2.3,2.3,0,0,1,3.38.22c.14.15.23.27.3.35Zm1.54-2.53a1.4,1.4,0,0,0-2.09-.16,1.63,1.63,0,0,0,.06,2.19Z" transform="translate(-0.24)"/><path class="cls-6" d="M283.71,227.43c-.45-.45-.84-.83-1.22-1.16l.61-.61.77.72,0,0a1.62,1.62,0,0,1,.22-1.89,1,1,0,0,1,.22-.17l.66.65a1.6,1.6,0,0,0-.26.21,1.38,1.38,0,0,0,0,1.83,2.82,2.82,0,0,0,.29.35l2,2-.69.68Z" transform="translate(-0.24)"/><path class="cls-6" d="M284.8,221.81a.58.58,0,0,1,0,.87.59.59,0,0,1-.85,0,.61.61,0,0,1,0-.87A.59.59,0,0,1,284.8,221.81Zm4.12,5.66-3.82-3.81.69-.7,3.82,3.82Z" transform="translate(-0.24)"/><path class="cls-6" d="M292.88,223.51l-.54-.42,0,0a2.05,2.05,0,0,1-.6,1.74,1.54,1.54,0,0,1-2.26.07c-.93-.92-.61-2.25.87-3.72l-.08-.07a1.11,1.11,0,0,0-1.75,0,2.6,2.6,0,0,0-.71,1.28l-.62-.3a3.52,3.52,0,0,1,.92-1.6,1.92,1.92,0,0,1,3,.11l1.43,1.43a7.23,7.23,0,0,0,1,.85Zm-2.05-1.84c-.78.74-1.5,1.73-.76,2.48a.87.87,0,0,0,1.32,0,1.35,1.35,0,0,0,.28-1.56,1.2,1.2,0,0,0-.18-.26Z" transform="translate(-0.24)"/><path class="cls-6" d="M207.7,328.91l.84,2.52-.7.7-2.56-8.07.77-.77,6,4.58-.67.67-1.89-1.47Zm1.26-2.3-1.74-1.34c-.31-.24-.73-.59-1.07-.88l0,0c.18.45.37.92.54,1.4l.75,2.34Z" transform="translate(-0.24)"/><path class="cls-6" d="M212.76,327.21l-4.53-6.67.65-.65,4.53,6.67Z" transform="translate(-0.24)"/><path class="cls-6" d="M211.43,318.85l.83,1.23.91-.92.41.62-.91.91,1.5,2.21a5.31,5.31,0,0,0,.54.69.46.46,0,0,0,.73,0,2.59,2.59,0,0,0,.28-.33l.48.54a2.06,2.06,0,0,1-.43.58,1,1,0,0,1-1.55.06,5.08,5.08,0,0,1-.64-.8L212,321.33l-.55.55-.41-.61.54-.55-.69-1Z" transform="translate(-0.24)"/><path class="cls-6" d="M219.56,320a3.74,3.74,0,0,1-1,1.56,1.94,1.94,0,0,1-3-.08c-1.15-1.15-1.6-3.3-.37-4.53a1.4,1.4,0,0,1,2.09-.15c1,1,.15,2.4-1.29,3.79a2.24,2.24,0,0,0,.81.65,1.23,1.23,0,0,0,1.36-.34,3,3,0,0,0,.76-1.3Zm-3.9-2.45a2.08,2.08,0,0,0,0,2.46c1-1,1.7-2,1.11-2.55A.72.72,0,0,0,215.66,317.52Z" transform="translate(-0.24)"/><path class="cls-6" d="M220.6,319.37l-2-2.93c-.4-.59-.84-1.16-1.15-1.55l.57-.58c.24.3.48.6.73.93l0,0a1.94,1.94,0,0,1,.25-2.08l.2-.17.52.78a1,1,0,0,0-.19.15c-.57.57-.38,1.76.34,2.82l1.37,2Z" transform="translate(-0.24)"/><path class="cls-6" d="M224.46,310.89a3.24,3.24,0,0,1,.28,4.51,2.06,2.06,0,0,1-3.06-.08,3.23,3.23,0,0,1-.31-4.53A2.07,2.07,0,0,1,224.46,310.89Zm-2.13,3.73a1.34,1.34,0,0,0,2,.18c.77-.78.36-2.35-.53-3.25a1.34,1.34,0,0,0-2-.17C221,312.2,221.45,313.75,222.33,314.62Z" transform="translate(-0.24)"/><path class="cls-6" d="M227.22,312.75,225,309.53c-.35-.51-.66-.93-.94-1.29l.58-.57.61.82,0,0a2.29,2.29,0,0,1,.53-2.14,1.18,1.18,0,0,1,1.75,0,2.31,2.31,0,0,1,.55-2.26,1.28,1.28,0,0,1,1.92.08,6.35,6.35,0,0,1,.59.71l1.83,2.68-.64.64-1.79-2.61a4.42,4.42,0,0,0-.44-.55c-.41-.4-.82-.51-1.24-.09a2.18,2.18,0,0,0,.21,2.6l1.59,2.32-.63.64-1.82-2.67a3.09,3.09,0,0,0-.42-.51c-.32-.33-.74-.57-1.22-.09a2.33,2.33,0,0,0,.22,2.66l1.56,2.28Z" transform="translate(-0.24)"/><path class="cls-6" d="M234.94,300.4a3.24,3.24,0,0,1,.29,4.52,2.06,2.06,0,0,1-3.06-.08,3.23,3.23,0,0,1-.31-4.54A2.06,2.06,0,0,1,234.94,300.4Zm-2.12,3.73a1.32,1.32,0,0,0,2,.18c.78-.77.37-2.35-.52-3.24a1.35,1.35,0,0,0-2-.18C231.49,301.71,231.94,303.27,232.82,304.13Z" transform="translate(-0.24)"/><path class="cls-6" d="M237.71,302.26,235.52,299c-.34-.51-.66-.93-.93-1.29l.58-.59.66.85v0a2.36,2.36,0,0,1,.58-2.25,1.33,1.33,0,0,1,2,.1,4.62,4.62,0,0,1,.55.69l1.79,2.65-.65.65-1.78-2.62a3.71,3.71,0,0,0-.44-.54.8.8,0,0,0-1.27-.07,2.38,2.38,0,0,0,.21,2.8l1.51,2.2Z" transform="translate(-0.24)"/><path class="cls-6" d="M244.45,295.52a13.32,13.32,0,0,1-.9-1.08v0a2.38,2.38,0,0,1-.41,2.56,1.6,1.6,0,0,1-2.36-.17,3.77,3.77,0,0,1-.09-5.37,5.23,5.23,0,0,1,1.18-.88l1.6,2.38a12.54,12.54,0,0,0,1.6,1.93Zm-2.9-3.76a2.22,2.22,0,0,0-.51.41,2.86,2.86,0,0,0,.29,3.88c.43.43,1,.7,1.5.19s.48-1.9-.35-3.1Z" transform="translate(-0.24)"/><path class="cls-6" d="M245.41,293.24a2.46,2.46,0,0,0,1.05-.58.94.94,0,0,0,.11-1.35c-.3-.3-.62-.35-1.24-.18a1.59,1.59,0,0,1-1.65-.28,1.77,1.77,0,0,1,.2-2.56,2.24,2.24,0,0,1,1-.61l.32.68a1.83,1.83,0,0,0-.84.49.87.87,0,0,0-.1,1.25c.27.28.63.27,1.16.12a1.72,1.72,0,0,1,1.72.28,1.83,1.83,0,0,1-.21,2.71,2.32,2.32,0,0,1-1.2.69Z" transform="translate(-0.24)"/><path class="cls-6" d="M248.65,292l-2.55-8.88.53-.54,2.54,8.9Z" transform="translate(-0.24)"/><path class="cls-6" d="M247.34,282.16a7.09,7.09,0,0,1,1-1.27,2.68,2.68,0,0,1,1.71-.89,1.77,1.77,0,0,1,1.35.57,2.61,2.61,0,0,1,.75,2,3.5,3.5,0,0,1-1.11,2.11,4.41,4.41,0,0,1-.58.51l1.73,2.53-.65.65Zm2.7,2.41a3.44,3.44,0,0,0,.59-.48,1.92,1.92,0,0,0,.18-2.81c-.63-.63-1.33-.43-1.94.18a3.54,3.54,0,0,0-.52.63Z" transform="translate(-0.24)"/><path class="cls-6" d="M254.92,283.73a2.52,2.52,0,0,0,1.05-.58.93.93,0,0,0,.1-1.35c-.3-.3-.61-.35-1.23-.18a1.59,1.59,0,0,1-1.65-.28,1.78,1.78,0,0,1,.19-2.56,2.26,2.26,0,0,1,1-.61l.32.68a1.78,1.78,0,0,0-.84.49.87.87,0,0,0-.1,1.25c.27.28.63.27,1.16.12a1.72,1.72,0,0,1,1.72.28,1.85,1.85,0,0,1-.21,2.72,2.35,2.35,0,0,1-1.21.68Z" transform="translate(-0.24)"/><path class="cls-6" d="M261,278.51a3.74,3.74,0,0,1-1,1.56,1.94,1.94,0,0,1-3-.08c-1.16-1.15-1.61-3.3-.38-4.53a1.4,1.4,0,0,1,2.1-.14c1,1,.14,2.39-1.29,3.78a2.2,2.2,0,0,0,.8.65,1.24,1.24,0,0,0,1.37-.34,3,3,0,0,0,.75-1.29Zm-3.9-2.45a2.1,2.1,0,0,0,0,2.46c1-1,1.71-2,1.12-2.55A.72.72,0,0,0,257.12,276.06Z" transform="translate(-0.24)"/><path class="cls-6" d="M262,270.37l2.2,3.22c.34.5.66.93.94,1.29l-.6.59-.61-.82h0a2.42,2.42,0,0,1-.54,2.16,1.35,1.35,0,0,1-2.11-.11,5.31,5.31,0,0,1-.57-.71l-1.75-2.57.66-.65,1.73,2.53a3.36,3.36,0,0,0,.49.63.8.8,0,0,0,1.27.05,2.22,2.22,0,0,0-.16-2.64L261.31,271Z" transform="translate(-0.24)"/><path class="cls-6" d="M264.67,264.1l3.55,5.23a13.71,13.71,0,0,0,1,1.37l-.6.6-.66-.86v0a2.34,2.34,0,0,1-.53,2.22,1.71,1.71,0,0,1-2.53-.25,3.54,3.54,0,0,1-.25-5,2.49,2.49,0,0,1,.81-.54L264,264.76Zm1.28,3.48a1.78,1.78,0,0,0-.79.47,2.66,2.66,0,0,0,.37,3.62c.45.45,1.09.78,1.65.22a2.29,2.29,0,0,0-.15-2.72Z" transform="translate(-0.24)"/><path class="cls-6" d="M271.69,263.65a3.24,3.24,0,0,1,.29,4.52,2.06,2.06,0,0,1-3.06-.08,3.23,3.23,0,0,1-.31-4.54A2.06,2.06,0,0,1,271.69,263.65Zm-2.12,3.73a1.32,1.32,0,0,0,2,.18c.78-.77.37-2.35-.52-3.24a1.34,1.34,0,0,0-2-.18C268.24,265,268.69,266.52,269.57,267.38Z" transform="translate(-0.24)"/><path class="cls-6" d="M277,263a13.32,13.32,0,0,1-.9-1.08v0a2.38,2.38,0,0,1-.41,2.56,1.6,1.6,0,0,1-2.36-.17,3.77,3.77,0,0,1-.09-5.37,5.46,5.46,0,0,1,1.18-.88l1.6,2.38a12.54,12.54,0,0,0,1.6,1.93Zm-2.9-3.76a2.22,2.22,0,0,0-.51.41,2.86,2.86,0,0,0,.29,3.88c.43.43,1,.7,1.5.19s.48-1.9-.35-3.1Z" transform="translate(-0.24)"/><path class="cls-6" d="M278.58,261.38l-4.53-6.66.65-.65,4.53,6.67Z" transform="translate(-0.24)"/><path class="cls-6" d="M277.25,253l.83,1.23.91-.92.41.62-.91.91,1.5,2.21a5.31,5.31,0,0,0,.54.69.47.47,0,0,0,.73,0,2.1,2.1,0,0,0,.28-.34l.48.55a2,2,0,0,1-.43.57,1,1,0,0,1-1.55.07,5.73,5.73,0,0,1-.64-.8l-1.55-2.31-.55.55-.41-.61.54-.55-.69-1Z" transform="translate(-0.24)"/><path class="cls-6" d="M285.38,254.15a3.8,3.8,0,0,1-1,1.56,1.94,1.94,0,0,1-3-.08c-1.15-1.15-1.6-3.31-.37-4.54a1.41,1.41,0,0,1,2.1-.14c1,1,.14,2.4-1.3,3.79a2.22,2.22,0,0,0,.81.64A1.21,1.21,0,0,0,284,255a3,3,0,0,0,.76-1.29Zm-3.89-2.45a2.05,2.05,0,0,0,0,2.45c1-1,1.7-2,1.11-2.54A.7.7,0,0,0,281.49,251.7Z" transform="translate(-0.24)"/><path class="cls-6" d="M286.42,253.55l-2-2.93c-.4-.59-.85-1.16-1.16-1.55l.57-.58c.24.3.48.6.73.93l0,0a2,2,0,0,1,.25-2.08l.2-.17.52.77s-.12.09-.19.16c-.56.57-.38,1.76.34,2.82l1.37,2Z" transform="translate(-0.24)"/><path class="cls-6" d="M290.28,245.07a3.24,3.24,0,0,1,.28,4.51,2.06,2.06,0,0,1-3.06-.08,3.24,3.24,0,0,1-.31-4.53A2.06,2.06,0,0,1,290.28,245.07Zm-2.12,3.73a1.33,1.33,0,0,0,2,.17c.77-.77.36-2.35-.53-3.24a1.34,1.34,0,0,0-2-.17C286.82,246.38,287.27,247.93,288.16,248.8Z" transform="translate(-0.24)"/><path class="cls-6" d="M293,246.92l-2.19-3.21c-.34-.51-.66-.93-.94-1.29l.58-.58.62.83,0,0a2.29,2.29,0,0,1,.54-2.14,1.17,1.17,0,0,1,1.74,0,2.33,2.33,0,0,1,.55-2.26,1.28,1.28,0,0,1,1.92.08,5.42,5.42,0,0,1,.59.71l1.83,2.68-.64.64-1.79-2.61a3.66,3.66,0,0,0-.44-.55c-.4-.4-.81-.52-1.24-.09a2.19,2.19,0,0,0,.21,2.6L296,244l-.63.63L293.54,242a3.18,3.18,0,0,0-.42-.52c-.32-.32-.74-.56-1.22-.08a2.33,2.33,0,0,0,.22,2.66l1.56,2.28Z" transform="translate(-0.24)"/><path class="cls-6" d="M300.77,234.58a3.24,3.24,0,0,1,.28,4.51A2.06,2.06,0,0,1,298,239a3.24,3.24,0,0,1-.31-4.54A2.07,2.07,0,0,1,300.77,234.58Zm-2.13,3.73a1.34,1.34,0,0,0,2,.18c.77-.78.36-2.35-.53-3.24a1.34,1.34,0,0,0-2-.18C297.31,235.89,297.76,237.45,298.64,238.31Z" transform="translate(-0.24)"/><path class="cls-6" d="M303.53,236.44l-2.19-3.22c-.34-.51-.66-.93-.93-1.29l.58-.59.66.85v0a2.38,2.38,0,0,1,.58-2.25,1.32,1.32,0,0,1,2,.1,5.06,5.06,0,0,1,.55.68l1.8,2.65L306,234l-1.78-2.62a3.78,3.78,0,0,0-.43-.54c-.39-.39-.83-.52-1.27-.08a2.38,2.38,0,0,0,.2,2.81l1.51,2.2Z" transform="translate(-0.24)"/><path class="cls-6" d="M310.27,229.7c-.22-.23-.55-.64-.89-1.08l0,0a2.36,2.36,0,0,1-.41,2.55,1.61,1.61,0,0,1-2.36-.16,3.78,3.78,0,0,1-.09-5.37,5.15,5.15,0,0,1,1.18-.88l1.6,2.38a13.05,13.05,0,0,0,1.6,1.93Zm-2.9-3.76a2.4,2.4,0,0,0-.51.4,2.88,2.88,0,0,0,.29,3.89c.43.43,1,.7,1.5.19s.48-1.9-.35-3.11Z" transform="translate(-0.24)"/><path class="cls-6" d="M311.23,227.42a2.47,2.47,0,0,0,1.06-.59.93.93,0,0,0,.1-1.35c-.3-.3-.62-.34-1.23-.17a1.63,1.63,0,0,1-1.66-.28,1.78,1.78,0,0,1,.2-2.57,2.2,2.2,0,0,1,1-.6l.32.68a1.94,1.94,0,0,0-.84.48.88.88,0,0,0-.1,1.26c.28.27.63.27,1.16.12a1.67,1.67,0,0,1,1.72.28,1.83,1.83,0,0,1-.21,2.71,2.4,2.4,0,0,1-1.2.69Z" transform="translate(-0.24)"/><path class="cls-6" d="M80.27,331.78l3.15,3.15c1.19,1.19,2.22,1.16,2.93.45s.77-1.81-.4-3l-3.15-3.15.69-.7,3.1,3.1c1.64,1.64,1.45,3.17.3,4.32s-2.54,1.28-4.18-.36l-3.14-3.14Z" transform="translate(-0.24)"/><path class="cls-6" d="M87.19,329.92c-.39-.39-.72-.71-1.06-1l.61-.62.67.6,0,0a2,2,0,0,1,.54-2c.53-.53,1.67-1,3,.28l2.28,2.28-.7.69-2.2-2.2c-.61-.62-1.36-.9-2-.25a1.39,1.39,0,0,0-.22,1.64,1.29,1.29,0,0,0,.27.37l2.3,2.3-.69.7Z" transform="translate(-0.24)"/><path class="cls-6" d="M96.93,325.47a3.68,3.68,0,0,1-.87,1.31,2.57,2.57,0,0,1-3.85,0,2.74,2.74,0,0,1,0-4.08,3.42,3.42,0,0,1,1.16-.77l.38.7a2.26,2.26,0,0,0-1,.62,1.87,1.87,0,0,0,.1,2.79,1.84,1.84,0,0,0,2.75.1,2.75,2.75,0,0,0,.66-1Z" transform="translate(-0.24)"/><path class="cls-6" d="M100,320.56c.39.4.75.73,1.07,1l-.61.62-.67-.59v0a2,2,0,0,1-.56,2c-.59.6-1.64,1-3-.36L94,321l.7-.69,2.11,2.11c.73.73,1.44,1,2.07.37a1.44,1.44,0,0,0,.28-1.55,1.38,1.38,0,0,0-.29-.42l-2.34-2.34.69-.7Z" transform="translate(-0.24)"/><path class="cls-6" d="M96.63,314.85l.69-.69,5.6,5.6-.69.69Z" transform="translate(-0.24)"/><path class="cls-6" d="M100,312.84l1.1,1.1,1-1,.53.53-1,1,2.06,2c.47.48.87.61,1.26.23a2,2,0,0,0,.35-.46l.55.5a2.21,2.21,0,0,1-.52.7,1.31,1.31,0,0,1-1,.46,2,2,0,0,1-1.26-.72L101,315.14l-.59.6-.53-.53.59-.59-.91-.92Z" transform="translate(-0.24)"/><path class="cls-6" d="M108.85,311.75c.4.39.75.73,1.08,1l-.62.62-.66-.58h0a2,2,0,0,1-.55,2c-.6.6-1.65,1-3-.35l-2.23-2.23.69-.7,2.12,2.12c.72.72,1.43,1,2.06.36a1.42,1.42,0,0,0,.29-1.55,1.44,1.44,0,0,0-.3-.41l-2.34-2.35.7-.69Z" transform="translate(-0.24)"/><path class="cls-6" d="M108.42,309c-.45-.45-.85-.83-1.22-1.16l.6-.61.78.73,0,0a1.48,1.48,0,0,1,.44-2.07l.65.66a1.4,1.4,0,0,0-.26.21,1.38,1.38,0,0,0,0,1.82,3,3,0,0,0,.3.36l2,2-.69.69Z" transform="translate(-0.24)"/><path class="cls-6" d="M112.23,306.89a1.73,1.73,0,0,0,2.63,0,3.56,3.56,0,0,0,.86-1.26l.62.38a4.54,4.54,0,0,1-1,1.51,2.51,2.51,0,0,1-3.8-.05,2.63,2.63,0,0,1-.27-3.85,2.29,2.29,0,0,1,3.38.22,3.19,3.19,0,0,1,.3.35Zm1.53-2.53a1.4,1.4,0,0,0-2.09-.17,1.62,1.62,0,0,0,.07,2.19Z" transform="translate(-0.24)"/><path class="cls-6" d="M115.27,296.21l4.61,4.62c.34.33.74.71,1,.95l-.62.62-.7-.63v0a2,2,0,0,1-.55,2,2.47,2.47,0,0,1-3.58-.31c-1.27-1.26-1.27-2.83-.34-3.76a1.81,1.81,0,0,1,1.74-.57v0l-2.27-2.27Zm2.64,4a1.35,1.35,0,0,0-.32-.26,1.45,1.45,0,0,0-1.81.2c-.72.72-.51,1.77.33,2.62s1.79,1,2.54.28a1.47,1.47,0,0,0,.19-1.85,1.57,1.57,0,0,0-.27-.33Z" transform="translate(-0.24)"/><path class="cls-6" d="M123.65,292.39c.07-.07.15-.06.25.05a3.91,3.91,0,0,1,.79,1.08,6.26,6.26,0,0,1,.45,1.33l.38.23a3.38,3.38,0,0,0,.41.24,1,1,0,0,0,.39.09.41.41,0,0,0,.35-.13.54.54,0,0,0,.16-.35.69.69,0,0,1,.07-.23.12.12,0,0,1,.19,0,.65.65,0,0,1,.06.52,1.22,1.22,0,0,1-.34.71.89.89,0,0,1-.69.29,2.22,2.22,0,0,1-.78-.23,2.28,2.28,0,0,1-.61,2c-.9.86-1.9.76-3-.31a2.78,2.78,0,0,1-.84-1.72,2,2,0,0,1,.55-1.6,1.65,1.65,0,0,1,1.51-.54,4.55,4.55,0,0,1,1.63.67,3.7,3.7,0,0,0-1-1.5.66.66,0,0,1-.21-.29.12.12,0,0,1,0-.13Zm-1.88,2.13a1.06,1.06,0,0,0-.19,1.18,3.76,3.76,0,0,0,1,1.45c.8.8,1.46.94,2,.44a1.46,1.46,0,0,0,.41-.83,3.85,3.85,0,0,0,0-1l-1.65-1.09a2.26,2.26,0,0,0-.92-.41A.7.7,0,0,0,121.77,294.52Z" transform="translate(-0.24)"/><path class="cls-6" d="M127.73,290.17l.51.52-2,1.94-.51-.51Z" transform="translate(-0.24)"/><path class="cls-6" d="M125.7,286.48a11.26,11.26,0,0,1,1.21-1.42,3.09,3.09,0,0,1,1.94-1.05,2,2,0,0,1,1.57.64,2.25,2.25,0,0,1,.73,1.55,3.13,3.13,0,0,1-1,2.21,3.69,3.69,0,0,1-.6.5l2.13,2.13-.69.69Zm3.25,1.87a3.17,3.17,0,0,0,.62-.51,1.61,1.61,0,0,0,.2-2.47c-.7-.7-1.54-.54-2.3.21a4.16,4.16,0,0,0-.59.71Z" transform="translate(-0.24)"/><path class="cls-6" d="M132.5,284.93c-.45-.45-.85-.83-1.23-1.16l.61-.61.77.73,0,0a1.48,1.48,0,0,1,.44-2.07l.65.66a1.4,1.4,0,0,0-.26.21,1.38,1.38,0,0,0,0,1.82,4.16,4.16,0,0,0,.29.36l2,2-.69.69Z" transform="translate(-0.24)"/><path class="cls-6" d="M139.22,279.58a2.64,2.64,0,0,1,.12,3.93,2.56,2.56,0,0,1-3.79-.13,2.64,2.64,0,0,1-.14-3.92A2.57,2.57,0,0,1,139.22,279.58Zm-3,3.07a1.83,1.83,0,0,0,2.62.31,2.14,2.14,0,1,0-2.62-.31Z" transform="translate(-0.24)"/><path class="cls-6" d="M138,274.9l1.1,1.1,1-1,.53.53-1,1,2.06,2.05c.47.48.87.61,1.26.22a1.84,1.84,0,0,0,.35-.45l.56.49a2.34,2.34,0,0,1-.53.71,1.31,1.31,0,0,1-1,.46,2,2,0,0,1-1.26-.72l-2.08-2.09-.59.59-.53-.52.59-.6-.91-.91Z" transform="translate(-0.24)"/><path class="cls-6" d="M143.24,275.87a1.74,1.74,0,0,0,2.64,0,3.56,3.56,0,0,0,.86-1.26l.61.38a4.24,4.24,0,0,1-1,1.51,2.51,2.51,0,0,1-3.8,0,2.63,2.63,0,0,1-.27-3.85,2.3,2.3,0,0,1,3.38.22c.14.14.23.27.3.35Zm1.54-2.53a1.4,1.4,0,0,0-2.09-.17,1.63,1.63,0,0,0,.07,2.2Z" transform="translate(-0.24)"/><path class="cls-6" d="M150.1,268.7a2.63,2.63,0,0,1,.13,3.92,2.55,2.55,0,0,1-3.79-.13,2.64,2.64,0,0,1-.14-3.92A2.55,2.55,0,0,1,150.1,268.7Zm-3,3.06a1.83,1.83,0,0,0,2.62.31,2.15,2.15,0,0,0-2.93-3A1.82,1.82,0,0,0,147.12,271.76Z" transform="translate(-0.24)"/><path class="cls-6" d="M152.89,269.79c-.25-.27-.62-.68-1-1l-4.61-4.62.69-.68,2.39,2.39h0a2,2,0,0,1,.6-2c.94-.94,2.4-.82,3.56.34,1.36,1.37,1.18,2.91.33,3.76a1.94,1.94,0,0,1-2,.56l0,0,.6.66Zm-.81-2.25a1.56,1.56,0,0,0,.28.23,1.53,1.53,0,0,0,1.85-.23c.73-.73.57-1.75-.3-2.63a1.76,1.76,0,0,0-2.56-.28,1.58,1.58,0,0,0-.21,1.91,2.85,2.85,0,0,0,.25.32Z" transform="translate(-0.24)"/><path class="cls-6" d="M159.52,263.16l-.54-.42,0,0a2,2,0,0,1-.6,1.73,1.53,1.53,0,0,1-2.26.08c-.93-.93-.61-2.25.87-3.72l-.08-.08a1.12,1.12,0,0,0-1.75,0,2.74,2.74,0,0,0-.71,1.27l-.61-.3a3.33,3.33,0,0,1,.91-1.59,1.92,1.92,0,0,1,3,.11l1.42,1.43a7.23,7.23,0,0,0,1,.85Zm-2.05-1.84c-.77.74-1.5,1.73-.76,2.47a.87.87,0,0,0,1.32,0,1.32,1.32,0,0,0,.28-1.56.81.81,0,0,0-.18-.26Z" transform="translate(-0.24)"/><path class="cls-6" d="M163.79,258.61a3.67,3.67,0,0,1-.88,1.32,2.57,2.57,0,0,1-3.85-.05,2.75,2.75,0,0,1,0-4.08,3.31,3.31,0,0,1,1.16-.76l.38.69a2.28,2.28,0,0,0-1,.63,2,2,0,0,0,2.84,2.89,2.74,2.74,0,0,0,.67-1Z" transform="translate(-0.24)"/><path class="cls-6" d="M160.66,252.19l1.1,1.1,1-1,.53.53-1,1,2.05,2.06c.48.47.88.6,1.27.22a2,2,0,0,0,.35-.45l.55.49a2.4,2.4,0,0,1-.52.71,1.33,1.33,0,0,1-1,.45,2,2,0,0,1-1.26-.72l-2.08-2.08-.59.59-.53-.53.59-.59-.92-.92Z" transform="translate(-0.24)"/><path class="cls-6" d="M166,253.16a1.73,1.73,0,0,0,2.64,0,3.61,3.61,0,0,0,.86-1.26l.61.38a4.24,4.24,0,0,1-1,1.51,2.5,2.5,0,0,1-3.8-.05,2.62,2.62,0,0,1-.27-3.85,2.29,2.29,0,0,1,3.37.22,3,3,0,0,1,.3.35Zm1.54-2.53a1.39,1.39,0,0,0-2.09-.16,1.63,1.63,0,0,0,.06,2.19Z" transform="translate(-0.24)"/><path class="cls-6" d="M168.67,248.76c-.45-.45-.84-.83-1.22-1.16l.61-.61.77.72,0,0a1.62,1.62,0,0,1,.22-1.89.82.82,0,0,1,.22-.17l.66.65a1.6,1.6,0,0,0-.26.21,1.38,1.38,0,0,0,0,1.83,2.82,2.82,0,0,0,.29.35l2,2-.68.68Z" transform="translate(-0.24)"/><path class="cls-6" d="M169.76,243.14a.61.61,0,0,1-.86.86.61.61,0,0,1,0-.87A.59.59,0,0,1,169.76,243.14Zm4.12,5.66L170.06,245l.69-.7,3.82,3.82Z" transform="translate(-0.24)"/><path class="cls-6" d="M177.84,244.84l-.54-.42,0,0a2.05,2.05,0,0,1-.6,1.74,1.55,1.55,0,0,1-2.27.07c-.92-.92-.6-2.25.88-3.72l-.08-.07a1.11,1.11,0,0,0-1.75,0,2.6,2.6,0,0,0-.71,1.28l-.62-.3a3.38,3.38,0,0,1,.92-1.6,1.92,1.92,0,0,1,3,.11l1.43,1.43a7.23,7.23,0,0,0,1,.85ZM175.79,243c-.78.74-1.5,1.73-.76,2.48a.87.87,0,0,0,1.32,0,1.35,1.35,0,0,0,.28-1.56,1.2,1.2,0,0,0-.18-.26Z" transform="translate(-0.24)"/><path class="cls-6" d="M183.77,238.62a3.48,3.48,0,0,1-.87,1.32,2.57,2.57,0,0,1-3.85-.05,2.74,2.74,0,0,1,0-4.07,3.42,3.42,0,0,1,1.16-.77l.38.7a2.26,2.26,0,0,0-1,.62,1.87,1.87,0,0,0,.1,2.79,1.85,1.85,0,0,0,2.75.1,2.69,2.69,0,0,0,.66-1Z" transform="translate(-0.24)"/><path class="cls-6" d="M179.13,232.35l.69-.69,5.6,5.6-.69.69Z" transform="translate(-0.24)"/><path class="cls-6" d="M188.7,234l-.54-.43,0,0a2,2,0,0,1-.6,1.73,1.52,1.52,0,0,1-2.26.07c-.92-.92-.61-2.24.87-3.71l-.07-.08a1.12,1.12,0,0,0-1.76,0,2.82,2.82,0,0,0-.71,1.28l-.61-.3a3.33,3.33,0,0,1,.91-1.59,1.92,1.92,0,0,1,3,.11l1.42,1.43a7.89,7.89,0,0,0,1,.85Zm-2-1.85c-.77.75-1.5,1.74-.76,2.48a.87.87,0,0,0,1.32,0,1.32,1.32,0,0,0,.28-1.56.81.81,0,0,0-.18-.26Z" transform="translate(-0.24)"/><path class="cls-6" d="M188.08,223.4,192.7,228a13.91,13.91,0,0,0,1,1l-.63.63-.69-.63h0a2,2,0,0,1-.55,2.05,2.45,2.45,0,0,1-3.57-.3c-1.28-1.27-1.27-2.84-.34-3.77a1.81,1.81,0,0,1,1.73-.57h0l-2.28-2.28Zm2.65,4a1.64,1.64,0,0,0-.33-.26,1.43,1.43,0,0,0-1.8.19c-.72.72-.52,1.78.33,2.62s1.79,1,2.54.29a1.49,1.49,0,0,0,.19-1.85,1.63,1.63,0,0,0-.27-.33Z" transform="translate(-0.24)"/><path class="cls-6" d="M193.44,225.68a1.72,1.72,0,0,0,2.63,0,3.45,3.45,0,0,0,.86-1.25l.62.38a4.43,4.43,0,0,1-1,1.5,2.5,2.5,0,0,1-3.8,0,2.63,2.63,0,0,1-.27-3.85,2.29,2.29,0,0,1,3.38.22,3.19,3.19,0,0,1,.3.35Zm1.54-2.53a1.4,1.4,0,0,0-2.09-.17,1.61,1.61,0,0,0,.06,2.19Z" transform="translate(-0.24)"/><path class="cls-6" d="M156.21,290.91a3.47,3.47,0,0,0,1.57-.88,1.36,1.36,0,0,0,.21-2c-.5-.5-1.07-.5-2.06-.06-1.18.56-2.16.65-2.91-.1a2.16,2.16,0,0,1,.27-3.16,3.5,3.5,0,0,1,1.44-.92l.37.75a3,3,0,0,0-1.26.76,1.22,1.22,0,0,0-.21,1.8c.5.5,1.07.42,2.09,0,1.24-.56,2.13-.58,2.91.2s.93,2.14-.33,3.39a3.77,3.77,0,0,1-1.69,1Z" transform="translate(-0.24)"/><path class="cls-6" d="M160.21,285.23l1.12,2.23-.71.71-3.51-7.12.83-.83,7.13,3.5-.73.73-2.24-1.1Zm1.21-2.28-2-1c-.47-.23-.86-.47-1.25-.7l0,0c.24.39.48.8.7,1.23l1,2.06Z" transform="translate(-0.24)"/><path class="cls-6" d="M160.6,277.69a11,11,0,0,1,1.21-1.42,3.09,3.09,0,0,1,2-1.11,1.87,1.87,0,0,1,1.43.59,2,2,0,0,1,.35,2.36l0,0a1.85,1.85,0,0,1,1.85.29,12.84,12.84,0,0,0,1.87,1.05l-.71.71a9.68,9.68,0,0,1-1.62-.92c-.89-.57-1.46-.57-2.1,0l-.65.65,2.31,2.3-.69.69Zm3.11,1.74.7-.7a1.47,1.47,0,0,0,.19-2.21c-.68-.69-1.48-.49-2.21.23a3.8,3.8,0,0,0-.62.74Z" transform="translate(-0.24)"/><path class="cls-6" d="M172,276.8l-1.39-1.4-2.39,2.38-.45-.45-1-5.57.75-.74,3.19,3.18.71-.72.55.55-.72.72,1.4,1.39Zm-1.94-1.94-1.71-1.71c-.27-.27-.53-.55-.78-.83l0,0c.14.46.23.81.33,1.18l.48,3,0,0Z" transform="translate(-0.24)"/><path class="cls-6" d="M174.68,268.87c1.74,1.74,2.06,3.35.92,4.49s-2.62.74-4.33-.94-1.92-3.41-.88-4.45S173.05,267.24,174.68,268.87ZM172,271.73c1.34,1.34,2.5,1.69,3.14,1s.22-1.87-1.09-3.18-2.42-1.77-3.13-1.05S170.58,270.34,172,271.73Z" transform="translate(-0.24)"/><path class="cls-6" d="M176.22,263.29a3,3,0,0,0-.48.55,3,3,0,0,0,0,3.61l0,0a2.21,2.21,0,0,1,3.85-1.72,2.43,2.43,0,0,1,.1,3.51c-1.1,1.1-2.67,1-4-.37a4.55,4.55,0,0,1-1.44-3.18,3.92,3.92,0,0,1,.88-2.39,4.2,4.2,0,0,1,.47-.55Zm2.76,3.15a1.47,1.47,0,0,0-2.23-.11,1.6,1.6,0,0,0-.36,1.62.8.8,0,0,0,.23.39c.86.83,1.87,1.06,2.59.34A1.52,1.52,0,0,0,179,266.44Z" transform="translate(-0.24)"/><path class="cls-6" d="M179.91,257.94a7.33,7.33,0,0,0,2.23,4.22,7.53,7.53,0,0,0,4.19,2.2l-.54.55a7.23,7.23,0,0,1-4.24-2.17,7.41,7.41,0,0,1-2.19-4.26Z" transform="translate(-0.24)"/><path class="cls-6" d="M181.48,256.68l2.69-2.7.46.67-2,2,1.44,2.14,1.88-1.89.45.67-1.87,1.88,1.95,2.86-.66.66Z" transform="translate(-0.24)"/><path class="cls-6" d="M185.39,253.63a.62.62,0,0,1,0-.88.53.53,0,0,1,.79,0,.61.61,0,0,1,0,.88A.53.53,0,0,1,185.39,253.63Zm4,5.74-3.08-4.56.65-.65,3.09,4.55Z" transform="translate(-0.24)"/><path class="cls-6" d="M187.32,250.27l2,3h0a2.24,2.24,0,0,1,.56-2.12,1.68,1.68,0,0,1,2.52.22,3.57,3.57,0,0,1,.24,5c-.67.67-1.45.9-2.16.19a4.94,4.94,0,0,1-.53-.66l-3.28-4.93Zm3.29,4.95a2.4,2.4,0,0,0,.44.53.74.74,0,0,0,1.18,0c1-1,.41-2.76-.43-3.61-.48-.47-1.12-.71-1.64-.19a2.33,2.33,0,0,0,.14,2.83Z" transform="translate(-0.24)"/><path class="cls-6" d="M195.37,253.42l-2-2.93c-.4-.59-.84-1.16-1.16-1.55l.58-.58.73.93,0,0a1.94,1.94,0,0,1,.25-2.08,1.51,1.51,0,0,1,.2-.17l.52.78a1,1,0,0,0-.19.15c-.57.57-.39,1.76.34,2.82l1.36,2Z" transform="translate(-0.24)"/><path class="cls-6" d="M199.22,244.94a3.23,3.23,0,0,1,.29,4.51,2.06,2.06,0,0,1-3.06-.08,3.22,3.22,0,0,1-.31-4.53A2.06,2.06,0,0,1,199.22,244.94Zm-2.12,3.73a1.34,1.34,0,0,0,2,.18c.77-.78.36-2.35-.53-3.25a1.34,1.34,0,0,0-2-.17C195.77,246.25,196.22,247.8,197.1,248.67Z" transform="translate(-0.24)"/><path class="cls-6" d="M198.08,239.51l2,3,0,0a2.27,2.27,0,0,1,.56-2.12,1.7,1.7,0,0,1,2.52.22,3.58,3.58,0,0,1,.25,5c-.67.67-1.46.89-2.17.18a5.49,5.49,0,0,1-.52-.65l-3.29-4.94Zm3.3,5a2.32,2.32,0,0,0,.43.53.75.75,0,0,0,1.18-.05c1-1,.41-2.76-.43-3.6-.47-.47-1.12-.71-1.64-.19a2.32,2.32,0,0,0,.14,2.82Z" transform="translate(-0.24)"/><path class="cls-6" d="M208.66,240.13c-.23-.23-.55-.64-.9-1.08v0a2.36,2.36,0,0,1-.41,2.55,1.61,1.61,0,0,1-2.36-.16,3.78,3.78,0,0,1-.09-5.37,5.15,5.15,0,0,1,1.18-.88l1.6,2.37a12.69,12.69,0,0,0,1.6,1.94Zm-2.9-3.76a2.4,2.4,0,0,0-.51.4,2.88,2.88,0,0,0,.29,3.89c.43.43,1,.7,1.5.19s.48-1.9-.35-3.11Z" transform="translate(-0.24)"/><path class="cls-6" d="M212.72,235.76a3.7,3.7,0,0,1-.87,1.34,1.94,1.94,0,0,1-2.94,0,3.42,3.42,0,0,1-.17-4.83,2.87,2.87,0,0,1,1-.64l.33.71a2,2,0,0,0-.78.51,2.5,2.5,0,0,0,.26,3.49,1.26,1.26,0,0,0,2,.07,2.72,2.72,0,0,0,.67-1.09Z" transform="translate(-0.24)"/><path class="cls-6" d="M210.45,228.65l.83,1.22.91-.91.41.61-.91.92,1.5,2.21a4.61,4.61,0,0,0,.54.68.45.45,0,0,0,.73,0,2,2,0,0,0,.28-.33l.48.55a2.18,2.18,0,0,1-.43.57,1,1,0,0,1-1.55.07,6.39,6.39,0,0,1-.64-.8l-1.55-2.31-.55.55-.41-.61.54-.55-.69-1Z" transform="translate(-0.24)"/><path class="cls-6" d="M218.58,229.76a3.82,3.82,0,0,1-1,1.57,1.94,1.94,0,0,1-3-.08c-1.15-1.15-1.6-3.31-.37-4.54a1.41,1.41,0,0,1,2.1-.14c1,1,.14,2.4-1.3,3.79a2.33,2.33,0,0,0,.81.64,1.21,1.21,0,0,0,1.36-.34,3,3,0,0,0,.76-1.29Zm-3.89-2.44a2.05,2.05,0,0,0,0,2.45c1-1,1.7-2,1.11-2.54A.7.7,0,0,0,214.69,227.32Z" transform="translate(-0.24)"/><path class="cls-6" d="M219.62,229.17l-2-2.93c-.41-.59-.85-1.16-1.16-1.55l.57-.58c.24.3.48.6.73.93l0,0a2,2,0,0,1,.25-2.08l.2-.17.52.77a1.15,1.15,0,0,0-.19.16c-.56.57-.38,1.76.34,2.82l1.37,2Z" transform="translate(-0.24)"/><path class="cls-6" d="M223,227.68a7.54,7.54,0,0,0-2.23-4.22,7.33,7.33,0,0,0-4.2-2.21l.54-.54a7.05,7.05,0,0,1,4.24,2.18,7.22,7.22,0,0,1,2.19,4.25Z" transform="translate(-0.24)"/><path class="cls-6" d="M254.18,309.73a3.38,3.38,0,0,0,1.57-.88,1.34,1.34,0,0,0,.21-2c-.5-.5-1.07-.49-2.06-.05-1.18.56-2.16.64-2.91-.11a2.16,2.16,0,0,1,.28-3.16,3.38,3.38,0,0,1,1.43-.91l.37.75a2.86,2.86,0,0,0-1.26.75c-.73.73-.57,1.44-.2,1.8s1.06.42,2.08,0c1.24-.55,2.14-.58,2.92.21s.92,2.13-.33,3.39a3.91,3.91,0,0,1-1.7,1Z" transform="translate(-0.24)"/><path class="cls-6" d="M258.18,304.06l1.12,2.22-.71.71-3.51-7.12.83-.83,7.13,3.5-.73.74-2.24-1.11Zm1.21-2.28-2.05-1c-.47-.23-.86-.47-1.25-.7v0c.23.39.47.8.69,1.23l1,2.06Z" transform="translate(-0.24)"/><path class="cls-6" d="M258.57,296.52a10.35,10.35,0,0,1,1.21-1.43,3.09,3.09,0,0,1,2-1.1,1.84,1.84,0,0,1,1.43.59,2,2,0,0,1,.36,2.36l0,0a1.88,1.88,0,0,1,1.85.29,11.89,11.89,0,0,0,1.87,1.05l-.71.71a9.74,9.74,0,0,1-1.62-.91c-.89-.58-1.45-.57-2.1,0l-.65.64,2.31,2.31-.69.68Zm3.11,1.73.7-.7a1.47,1.47,0,0,0,.19-2.21c-.68-.68-1.48-.49-2.21.23a4.23,4.23,0,0,0-.62.74Z" transform="translate(-0.24)"/><path class="cls-6" d="M264.84,291.78h0l-.41,1.38-.66-.4.52-1.72.59-.59,5.12,5.13-.67.67Z" transform="translate(-0.24)"/><path class="cls-6" d="M268.89,287.73l0,0-.41,1.37-.66-.39.52-1.72.59-.59,5.13,5.12-.67.67Z" transform="translate(-0.24)"/><path class="cls-6" d="M274.2,282.11a3.94,3.94,0,0,0-.49.55,2.94,2.94,0,0,0,0,3.61l0,0a2.21,2.21,0,0,1,3.85-1.72,2.42,2.42,0,0,1,.1,3.51c-1.09,1.09-2.67,1-4-.37a4.55,4.55,0,0,1-1.44-3.18,4,4,0,0,1,.88-2.4,5.15,5.15,0,0,1,.47-.55Zm2.76,3.16a1.48,1.48,0,0,0-2.24-.12,1.63,1.63,0,0,0-.36,1.62.8.8,0,0,0,.23.39c.86.83,1.87,1.06,2.6.34A1.52,1.52,0,0,0,277,285.27Z" transform="translate(-0.24)"/><path class="cls-6" d="M277.88,276.76a7.36,7.36,0,0,0,2.23,4.22,7.55,7.55,0,0,0,4.2,2.21l-.55.54a7.19,7.19,0,0,1-4.23-2.17,7.38,7.38,0,0,1-2.2-4.26Z" transform="translate(-0.24)"/><path class="cls-6" d="M284,274.9c.07-.07.15-.06.25.05a3.91,3.91,0,0,1,.79,1.08,6.26,6.26,0,0,1,.45,1.33l.39.23a3.26,3.26,0,0,0,.4.24,1.21,1.21,0,0,0,.4.09.43.43,0,0,0,.35-.13.6.6,0,0,0,.16-.35.77.77,0,0,1,.06-.23c.06-.06.12-.06.2,0s.09.26.05.52a1.16,1.16,0,0,1-.34.71.89.89,0,0,1-.69.29,2.35,2.35,0,0,1-.78-.23,2.3,2.3,0,0,1-.6,2c-.91.86-1.91.76-3-.31a2.78,2.78,0,0,1-.84-1.72,2,2,0,0,1,.55-1.6,1.67,1.67,0,0,1,1.52-.54A4.58,4.58,0,0,1,285,277a3.7,3.7,0,0,0-1-1.5.71.71,0,0,1-.21-.28.13.13,0,0,1,.05-.14ZM282.16,277a1.06,1.06,0,0,0-.19,1.18,3.88,3.88,0,0,0,1,1.45c.81.8,1.46.94,2,.44a1.4,1.4,0,0,0,.41-.83,3.85,3.85,0,0,0,0-1c-.49-.34-1.05-.7-1.65-1.09a2.26,2.26,0,0,0-.92-.41A.72.72,0,0,0,282.16,277Z" transform="translate(-0.24)"/><path class="cls-6" d="M288.12,272.68l.51.52-1.95,1.94-.51-.51Z" transform="translate(-0.24)"/><path class="cls-6" d="M286.09,269a10.67,10.67,0,0,1,1.22-1.42,3,3,0,0,1,1.93-1.05,2,2,0,0,1,1.58.64,2.23,2.23,0,0,1,.72,1.55,3.09,3.09,0,0,1-1,2.21,3.31,3.31,0,0,1-.6.5l2.13,2.13-.69.69Zm3.25,1.87a2.91,2.91,0,0,0,.62-.51c.83-.83.94-1.73.2-2.47s-1.54-.54-2.29.21a3.72,3.72,0,0,0-.59.71Z" transform="translate(-0.24)"/><path class="cls-6" d="M292.89,267.44c-.45-.45-.85-.83-1.22-1.16l.6-.61.78.73,0,0a1.6,1.6,0,0,1,.22-1.89,1.16,1.16,0,0,1,.22-.18l.65.66a2,2,0,0,0-.26.21,1.38,1.38,0,0,0,0,1.82,2.18,2.18,0,0,0,.29.36l2,2-.68.69Z" transform="translate(-0.24)"/><path class="cls-6" d="M299.61,262.09a2.64,2.64,0,0,1,.12,3.93,2.56,2.56,0,0,1-3.79-.13,2.63,2.63,0,0,1-.13-3.92A2.56,2.56,0,0,1,299.61,262.09Zm-3,3.07a1.69,1.69,0,1,0-.31-2.66A1.84,1.84,0,0,0,296.62,265.16Z" transform="translate(-0.24)"/><path class="cls-6" d="M298.35,257.41l1.09,1.1,1-1,.52.53-1,1,2.06,2c.47.48.87.61,1.26.22a2,2,0,0,0,.35-.44l.56.48a2.28,2.28,0,0,1-.52.71,1.37,1.37,0,0,1-1,.46,2,2,0,0,1-1.27-.72l-2.08-2.09-.59.59-.53-.52.59-.59-.91-.92Z" transform="translate(-0.24)"/><path class="cls-6" d="M303.64,258.38a1.73,1.73,0,0,0,2.63,0,3.56,3.56,0,0,0,.86-1.26l.62.38a4.45,4.45,0,0,1-1,1.51,2.51,2.51,0,0,1-3.8,0,2.63,2.63,0,0,1-.27-3.85,2.3,2.3,0,0,1,3.38.22,4.53,4.53,0,0,1,.3.35Zm1.53-2.53a1.4,1.4,0,0,0-2.09-.17,1.63,1.63,0,0,0,.07,2.2Z" transform="translate(-0.24)"/><path class="cls-6" d="M310.5,251.21a2.62,2.62,0,0,1,.12,3.92,2.55,2.55,0,0,1-3.79-.13,2.63,2.63,0,0,1-.13-3.92A2.55,2.55,0,0,1,310.5,251.21Zm-3,3.06a1.83,1.83,0,0,0,2.62.31,2.15,2.15,0,0,0-2.93-3A1.82,1.82,0,0,0,307.51,254.27Z" transform="translate(-0.24)"/><path class="cls-6" d="M313.28,252.3c-.24-.27-.62-.68-.95-1l-4.62-4.62.69-.68,2.4,2.39h0a2,2,0,0,1,.6-2c.95-.94,2.41-.82,3.56.34,1.36,1.37,1.18,2.91.33,3.76a1.93,1.93,0,0,1-2,.56l0,0,.6.66Zm-.81-2.25a2,2,0,0,0,.28.23,1.54,1.54,0,0,0,1.86-.23c.72-.73.56-1.75-.31-2.63a1.76,1.76,0,0,0-2.56-.28,1.55,1.55,0,0,0-.2,1.9,1.61,1.61,0,0,0,.24.33Z" transform="translate(-0.24)"/><path class="cls-6" d="M319.91,245.67l-.53-.42,0,0a2,2,0,0,1-.6,1.73,1.53,1.53,0,0,1-2.26.08c-.92-.93-.61-2.25.87-3.72l-.07-.08a1.12,1.12,0,0,0-1.75,0,2.67,2.67,0,0,0-.72,1.27l-.61-.3a3.33,3.33,0,0,1,.91-1.59,1.92,1.92,0,0,1,3,.11l1.42,1.43a8.68,8.68,0,0,0,1,.85Zm-2.05-1.84c-.77.74-1.5,1.73-.76,2.47a.87.87,0,0,0,1.32,0,1.34,1.34,0,0,0,.29-1.56,1,1,0,0,0-.19-.26Z" transform="translate(-0.24)"/><path class="cls-6" d="M324.18,241.12a3.67,3.67,0,0,1-.88,1.32,2.57,2.57,0,0,1-3.85-.05,2.75,2.75,0,0,1,0-4.08,3.14,3.14,0,0,1,1.16-.76l.38.69a2.24,2.24,0,0,0-1,.63,2,2,0,0,0,2.85,2.89,2.82,2.82,0,0,0,.66-1Z" transform="translate(-0.24)"/><path class="cls-6" d="M321.05,234.7l1.1,1.1,1-1,.53.52-1,1,2.06,2.06c.47.47.87.6,1.26.22a2,2,0,0,0,.35-.45l.56.49a2.61,2.61,0,0,1-.53.71,1.33,1.33,0,0,1-1,.45,2,2,0,0,1-1.26-.72L322,237l-.59.6-.53-.53.59-.59-.91-.92Z" transform="translate(-0.24)"/><path class="cls-6" d="M326.35,235.67a1.72,1.72,0,0,0,2.63,0,3.54,3.54,0,0,0,.86-1.25l.62.37a4.45,4.45,0,0,1-1,1.51,2.5,2.5,0,0,1-3.8,0,2.62,2.62,0,0,1-.27-3.85,2.3,2.3,0,0,1,3.38.22c.14.15.23.27.3.35Zm1.53-2.53a1.4,1.4,0,0,0-2.09-.16,1.62,1.62,0,0,0,.07,2.19Z" transform="translate(-0.24)"/><path class="cls-6" d="M329.06,231.27c-.44-.45-.84-.83-1.22-1.16l.61-.61.77.72,0,0a1.62,1.62,0,0,1,.22-1.89.85.85,0,0,1,.23-.17l.65.65a1.6,1.6,0,0,0-.26.21,1.39,1.39,0,0,0,0,1.83,2.82,2.82,0,0,0,.29.35l2,2-.69.68Z" transform="translate(-0.24)"/><path class="cls-6" d="M330.15,225.65a.58.58,0,0,1,0,.87.59.59,0,0,1-.85,0,.61.61,0,0,1,0-.87A.59.59,0,0,1,330.15,225.65Zm4.12,5.66-3.82-3.81.7-.7,3.81,3.82Z" transform="translate(-0.24)"/><path class="cls-6" d="M338.23,227.35l-.54-.42,0,0a2.06,2.06,0,0,1-.6,1.74,1.54,1.54,0,0,1-2.26.07c-.93-.92-.61-2.25.87-3.72l-.08-.08a1.12,1.12,0,0,0-1.75,0,2.77,2.77,0,0,0-.71,1.28l-.61-.3a3.41,3.41,0,0,1,.91-1.6,1.92,1.92,0,0,1,3,.11l1.43,1.43a7.23,7.23,0,0,0,1,.85Zm-2.05-1.84c-.78.74-1.5,1.73-.76,2.48a.87.87,0,0,0,1.32,0,1.35,1.35,0,0,0,.28-1.56,1.2,1.2,0,0,0-.18-.26Z" transform="translate(-0.24)"/><path class="cls-6" d="M340.45,227a7.54,7.54,0,0,0-2.23-4.22,7.45,7.45,0,0,0-4.2-2.21l.54-.53a7.09,7.09,0,0,1,4.24,2.17A7.28,7.28,0,0,1,341,226.5Z" transform="translate(-0.24)"/><path class="cls-6" d="M316.37,261.77a7.8,7.8,0,0,1,1-1.28,2.63,2.63,0,0,1,1.65-.88,1.61,1.61,0,0,1,1.28.49,2.34,2.34,0,0,1,.28,2.8v0c.49-.24,1.07,0,1.66.48a12.48,12.48,0,0,0,1.62,1.29l-.67.68a15.9,15.9,0,0,1-1.42-1.16c-.76-.68-1.34-.72-1.87-.19l-.58.58,1.89,2.75-.66.66ZM319,264l.58-.58a1.76,1.76,0,0,0,.18-2.55c-.56-.57-1.24-.39-1.84.21a3.27,3.27,0,0,0-.5.6Z" transform="translate(-0.24)"/><path class="cls-6" d="M324.7,263.91l-4.53-6.67.65-.65,2,2.93h0a2.34,2.34,0,0,1,.6-2.13,1.3,1.3,0,0,1,2,.08,4.45,4.45,0,0,1,.59.71l1.81,2.65-.66.66-1.77-2.63a5,5,0,0,0-.48-.57.79.79,0,0,0-1.23,0,2.34,2.34,0,0,0,.15,2.75l1.56,2.26Z" transform="translate(-0.24)"/><path class="cls-6" d="M331.44,256.72a3.63,3.63,0,0,1-1,1.56,1.94,1.94,0,0,1-3-.07c-1.15-1.16-1.6-3.31-.37-4.54a1.4,1.4,0,0,1,2.1-.14c1,1,.14,2.4-1.3,3.78a2.32,2.32,0,0,0,.81.65,1.21,1.21,0,0,0,1.36-.34,3,3,0,0,0,.76-1.29Zm-3.89-2.44a2.07,2.07,0,0,0,0,2.45c1-1,1.7-2,1.11-2.55A.71.71,0,0,0,327.55,254.28Z" transform="translate(-0.24)"/><path class="cls-6" d="M328.45,250.39a.61.61,0,0,1,0-.87.52.52,0,0,1,.79,0,.61.61,0,0,1,0,.88A.53.53,0,0,1,328.45,250.39Zm4,5.74-3.08-4.56.65-.65,3.09,4.55Z" transform="translate(-0.24)"/><path class="cls-6" d="M334.29,254.32l-2.19-3.22c-.34-.51-.67-.93-.93-1.29l.58-.59.65.85,0,0a2.36,2.36,0,0,1,.58-2.25,1.33,1.33,0,0,1,2,.1,4,4,0,0,1,.54.69l1.8,2.65-.65.65-1.78-2.62a3.71,3.71,0,0,0-.44-.54.8.8,0,0,0-1.27-.07,2.36,2.36,0,0,0,.21,2.8l1.5,2.21Z" transform="translate(-0.24)"/><path class="cls-6" d="M338.5,250.11,334,243.44l.66-.65,2,2.93h0a2.34,2.34,0,0,1,.6-2.13,1.3,1.3,0,0,1,2,.08,4.45,4.45,0,0,1,.59.71l1.8,2.66-.65.65-1.78-2.63a3.53,3.53,0,0,0-.48-.57.78.78,0,0,0-1.22,0,2.34,2.34,0,0,0,.15,2.75l1.55,2.26Z" transform="translate(-0.24)"/><path class="cls-6" d="M345.24,242.92a3.82,3.82,0,0,1-1,1.57,1.94,1.94,0,0,1-3-.08c-1.15-1.15-1.6-3.31-.37-4.54a1.41,1.41,0,0,1,2.1-.14c1,1,.14,2.4-1.3,3.79a2.42,2.42,0,0,0,.81.64,1.21,1.21,0,0,0,1.36-.34,3,3,0,0,0,.76-1.29Zm-3.89-2.44a2.05,2.05,0,0,0,0,2.45c1-1,1.7-2,1.11-2.54A.7.7,0,0,0,341.35,240.48Z" transform="translate(-0.24)"/><path class="cls-6" d="M342.25,236.59a.62.62,0,0,1,0-.87.53.53,0,0,1,.8,0,.61.61,0,0,1,0,.88A.53.53,0,0,1,342.25,236.59Zm4,5.74-3.08-4.55.65-.66,3.09,4.55Z" transform="translate(-0.24)"/><path class="cls-6" d="M348.09,240.52l-2.2-3.22c-.34-.5-.66-.93-.93-1.28l.57-.58.62.82,0,0a2.32,2.32,0,0,1,.54-2.15,1.17,1.17,0,0,1,1.74,0,2.3,2.3,0,0,1,.55-2.25,1.29,1.29,0,0,1,1.93.08,4.8,4.8,0,0,1,.58.71l1.83,2.68-.64.64-1.79-2.61a3.28,3.28,0,0,0-.44-.56c-.4-.4-.81-.51-1.24-.08a2.18,2.18,0,0,0,.21,2.59l1.59,2.33-.63.63-1.82-2.67a3.52,3.52,0,0,0-.41-.51c-.33-.32-.75-.57-1.23-.08a2.33,2.33,0,0,0,.22,2.66l1.57,2.27Z" transform="translate(-0.24)"/><path class="cls-6" d="M357,231.18a3.74,3.74,0,0,1-1,1.56,1.94,1.94,0,0,1-3-.08c-1.16-1.15-1.6-3.31-.37-4.54a1.4,1.4,0,0,1,2.09-.14c1,1,.15,2.4-1.29,3.79a2.24,2.24,0,0,0,.81.65,1.25,1.25,0,0,0,1.36-.34,3,3,0,0,0,.76-1.3Zm-3.9-2.45a2.08,2.08,0,0,0,0,2.45c1-1,1.71-2,1.12-2.54A.71.71,0,0,0,353.09,228.73Z" transform="translate(-0.24)"/><path class="cls-6" d="M358,230.58l-2-2.93c-.41-.59-.85-1.16-1.16-1.55l.57-.58.73.93,0,0a1.94,1.94,0,0,1,.25-2.08,1.51,1.51,0,0,1,.2-.17l.52.78a1,1,0,0,0-.19.15c-.57.57-.39,1.76.34,2.82l1.36,2Z" transform="translate(-0.24)"/><path class="cls-6" d="M363.07,225.54c-.23-.23-.55-.63-.9-1.07h0a2.34,2.34,0,0,1-.41,2.56,1.59,1.59,0,0,1-2.35-.17,3.76,3.76,0,0,1-.09-5.37,5,5,0,0,1,1.17-.87l1.61,2.37a11.49,11.49,0,0,0,1.6,1.93Zm-2.9-3.75a2.66,2.66,0,0,0-.52.4,2.89,2.89,0,0,0,.3,3.89c.42.42,1,.69,1.5.18s.48-1.9-.35-3.1Z" transform="translate(-0.24)"/><path class="cls-6" d="M324.67,276.05a9.59,9.59,0,0,1,1-1.28,2.65,2.65,0,0,1,1.66-.88,1.61,1.61,0,0,1,1.28.49,2.34,2.34,0,0,1,.28,2.8v0c.5-.24,1.07,0,1.67.48a13.13,13.13,0,0,0,1.62,1.3l-.68.67a16,16,0,0,1-1.41-1.16c-.76-.68-1.34-.72-1.87-.19l-.58.58,1.88,2.75-.65.66Zm2.61,2.22.58-.58a1.76,1.76,0,0,0,.18-2.55c-.57-.57-1.25-.39-1.84.21a3,3,0,0,0-.5.61Z" transform="translate(-0.24)"/><path class="cls-6" d="M334.36,272.22a3.24,3.24,0,0,1,.28,4.51,2.06,2.06,0,0,1-3.06-.08,3.24,3.24,0,0,1-.31-4.53A2.06,2.06,0,0,1,334.36,272.22ZM332.24,276a1.33,1.33,0,0,0,2,.17c.77-.77.36-2.35-.53-3.24a1.34,1.34,0,0,0-2-.17C330.9,273.53,331.35,275.08,332.24,276Z" transform="translate(-0.24)"/><path class="cls-6" d="M336.49,273.38a2.42,2.42,0,0,0,1.06-.59.92.92,0,0,0,.1-1.34c-.3-.3-.61-.35-1.23-.18a1.59,1.59,0,0,1-1.65-.28,1.79,1.79,0,0,1,.19-2.57,2.32,2.32,0,0,1,1-.6l.32.68a1.78,1.78,0,0,0-.84.49.87.87,0,0,0-.1,1.25c.27.27.63.27,1.16.12a1.7,1.7,0,0,1,1.72.28,1.85,1.85,0,0,1-.21,2.72,2.35,2.35,0,0,1-1.21.68Z" transform="translate(-0.24)"/><path class="cls-6" d="M342.6,268.16a3.67,3.67,0,0,1-1,1.56,1.94,1.94,0,0,1-3-.08c-1.15-1.15-1.6-3.3-.37-4.53a1.41,1.41,0,0,1,2.1-.15c1,1,.14,2.4-1.29,3.79a2.2,2.2,0,0,0,.8.65,1.24,1.24,0,0,0,1.37-.34,3,3,0,0,0,.75-1.3Zm-3.9-2.45a2.1,2.1,0,0,0,0,2.46c1-1,1.71-2,1.11-2.55C339.46,265.3,339.05,265.37,338.7,265.71Z" transform="translate(-0.24)"/><path class="cls-6" d="M345,261.59a3.24,3.24,0,0,1,.28,4.51,2.06,2.06,0,0,1-3.06-.08,3.23,3.23,0,0,1-.31-4.53A2.06,2.06,0,0,1,345,261.59Zm-2.13,3.73a1.34,1.34,0,0,0,2,.17c.77-.77.36-2.35-.53-3.24a1.34,1.34,0,0,0-2-.17C341.53,262.9,342,264.45,342.86,265.32Z" transform="translate(-0.24)"/><path class="cls-6" d="M343.84,256.16l2,3,0,0a2.29,2.29,0,0,1,.56-2.12,1.68,1.68,0,0,1,2.52.22,3.57,3.57,0,0,1,.25,5c-.67.67-1.45.9-2.16.19a4.7,4.7,0,0,1-.53-.65l-3.28-4.94Zm3.3,4.95a2.32,2.32,0,0,0,.43.53.75.75,0,0,0,1.18-.05c1-1,.41-2.76-.43-3.6-.47-.48-1.12-.71-1.64-.19a2.32,2.32,0,0,0,.14,2.82Z" transform="translate(-0.24)"/><path class="cls-6" d="M354.42,256.77c-.22-.23-.55-.63-.89-1.07h0a2.38,2.38,0,0,1-.41,2.56,1.61,1.61,0,0,1-2.36-.16,3.79,3.79,0,0,1-.09-5.38,5.08,5.08,0,0,1,1.18-.87l1.6,2.37a13.2,13.2,0,0,0,1.6,1.94Zm-2.9-3.75a2.4,2.4,0,0,0-.51.4,2.88,2.88,0,0,0,.29,3.89c.43.43,1,.69,1.5.19s.48-1.9-.35-3.11Z" transform="translate(-0.24)"/><path class="cls-6" d="M358.49,252.41a3.91,3.91,0,0,1-.88,1.34,1.94,1.94,0,0,1-2.94,0,3.43,3.43,0,0,1-.17-4.84,3,3,0,0,1,1-.63l.34.71a2,2,0,0,0-.79.51,2.5,2.5,0,0,0,.26,3.49,1.27,1.27,0,0,0,2,.07,2.68,2.68,0,0,0,.67-1.1Z" transform="translate(-0.24)"/><path class="cls-6" d="M356.21,245.3l.83,1.22.92-.91.41.61-.92.92,1.5,2.21a4.61,4.61,0,0,0,.54.68.46.46,0,0,0,.73,0,2.59,2.59,0,0,0,.28-.33l.48.54a2.06,2.06,0,0,1-.43.58,1,1,0,0,1-1.55.06,5,5,0,0,1-.63-.79l-1.56-2.31-.55.55-.41-.62.54-.54-.69-1Z" transform="translate(-0.24)"/><path class="cls-6" d="M364.34,246.41a3.63,3.63,0,0,1-1,1.56,1.94,1.94,0,0,1-3-.08c-1.15-1.15-1.6-3.3-.37-4.53a1.4,1.4,0,0,1,2.1-.14c1,1,.14,2.4-1.3,3.78a2.32,2.32,0,0,0,.81.65,1.21,1.21,0,0,0,1.36-.34,3,3,0,0,0,.76-1.29ZM360.45,244a2.07,2.07,0,0,0,0,2.45c1-1,1.7-2,1.11-2.55A.71.71,0,0,0,360.45,244Z" transform="translate(-0.24)"/><path class="cls-6" d="M365.38,245.81l-2-2.92c-.4-.59-.85-1.16-1.16-1.56l.57-.57c.24.3.48.6.73.93l0,0a2,2,0,0,1,.26-2.09l.19-.16.52.77-.19.16c-.56.57-.38,1.76.34,2.81l1.37,2Z" transform="translate(-0.24)"/><path class="cls-6" d="M372.26,238.65a3.54,3.54,0,0,1-.88,1.32,2.55,2.55,0,0,1-3.84-.05,2.73,2.73,0,0,1,0-4.07,3.19,3.19,0,0,1,1.16-.77l.38.7a2.26,2.26,0,0,0-1,.62,1.87,1.87,0,0,0,.1,2.79,1.85,1.85,0,0,0,2.75.1,2.75,2.75,0,0,0,.66-1Z" transform="translate(-0.24)"/><path class="cls-6" d="M367.61,232.38l.7-.69,5.6,5.6-.7.69Z" transform="translate(-0.24)"/><path class="cls-6" d="M377.19,234l-.54-.43,0,0a2,2,0,0,1-.6,1.73,1.53,1.53,0,0,1-2.27.07c-.92-.92-.6-2.24.88-3.71l-.08-.08a1.11,1.11,0,0,0-1.75,0,2.82,2.82,0,0,0-.71,1.28l-.62-.3a3.44,3.44,0,0,1,.92-1.59,1.91,1.91,0,0,1,3,.11l1.43,1.43a7.23,7.23,0,0,0,1,.85Zm-2.05-1.85c-.78.75-1.5,1.74-.76,2.48a.88.88,0,0,0,1.32,0,1.36,1.36,0,0,0,.28-1.56,1,1,0,0,0-.18-.26Z" transform="translate(-0.24)"/><path class="cls-6" d="M376.57,223.43l4.62,4.61c.34.34.73.72,1,1l-.62.63-.69-.63h0a2,2,0,0,1-.55,2.05,2.46,2.46,0,0,1-3.57-.3c-1.28-1.27-1.28-2.84-.34-3.77a1.78,1.78,0,0,1,1.73-.56l0,0-2.28-2.28Zm2.64,4a1.35,1.35,0,0,0-.32-.26,1.45,1.45,0,0,0-1.81.19c-.71.72-.51,1.78.34,2.62a1.72,1.72,0,0,0,2.54.29,1.48,1.48,0,0,0,.18-1.85,1.57,1.57,0,0,0-.26-.33Z" transform="translate(-0.24)"/><path class="cls-6" d="M381.93,225.71a1.72,1.72,0,0,0,2.63,0,3.45,3.45,0,0,0,.86-1.25l.62.38a4.43,4.43,0,0,1-1,1.5,2.5,2.5,0,0,1-3.8,0c-1.15-1.16-1.38-2.74-.27-3.85a2.29,2.29,0,0,1,3.38.22c.14.14.23.27.3.35Zm1.53-2.54a1.4,1.4,0,0,0-2.09-.16,1.62,1.62,0,0,0,.07,2.19Z" transform="translate(-0.24)"/><path class="cls-6" d="M298.69,335.93a3.39,3.39,0,0,0,1.58-.89c.7-.7.74-1.48.2-2s-1.06-.5-2.05-.06c-1.18.56-2.17.65-2.92-.1a2.17,2.17,0,0,1,.28-3.16,3.4,3.4,0,0,1,1.44-.92l.37.75a3.09,3.09,0,0,0-1.27.76,1.21,1.21,0,0,0-.2,1.79c.5.5,1.07.42,2.08,0,1.25-.55,2.14-.57,2.92.21s.92,2.14-.33,3.39a3.93,3.93,0,0,1-1.7,1Z" transform="translate(-0.24)"/><path class="cls-6" d="M302.7,330.25l1.12,2.22-.71.71-3.51-7.12.83-.83,7.12,3.51-.73.73-2.24-1.1Zm1.2-2.28-2-1c-.46-.23-.86-.46-1.24-.69h0c.24.4.47.81.7,1.23l1,2.06Z" transform="translate(-0.24)"/><path class="cls-6" d="M303.09,322.71a9.66,9.66,0,0,1,1.21-1.42,3,3,0,0,1,2-1.11,1.89,1.89,0,0,1,1.43.59,2,2,0,0,1,.35,2.36l0,0a1.9,1.9,0,0,1,1.86.3,11.5,11.5,0,0,0,1.87,1l-.71.71a9.67,9.67,0,0,1-1.63-.91c-.89-.58-1.45-.57-2.09,0l-.65.65,2.3,2.3-.69.69Zm3.11,1.74.7-.7a1.48,1.48,0,0,0,.19-2.21c-.69-.69-1.48-.49-2.22.23a3.38,3.38,0,0,0-.61.74Z" transform="translate(-0.24)"/><path class="cls-6" d="M312.33,324l-.42-.43v-1.07c.07-2.55,0-3.81-.77-4.59a1.29,1.29,0,0,0-2,0,2.48,2.48,0,0,0-.66,1.52l-.7-.27a3.16,3.16,0,0,1,.93-2,2,2,0,0,1,3.06-.08c.94,1,1,2.4,1,4.52l0,.79h0l2.3-2.3.58.58Z" transform="translate(-0.24)"/><path class="cls-6" d="M317.17,313.89c1.74,1.74,2.05,3.35.92,4.49s-2.62.74-4.33-.94-1.93-3.41-.88-4.45S315.53,312.26,317.17,313.89Zm-2.71,2.86c1.33,1.33,2.5,1.68,3.13,1.05s.22-1.88-1.09-3.19-2.41-1.76-3.13-1S313.06,315.36,314.46,316.75Z" transform="translate(-0.24)"/><path class="cls-6" d="M320.42,315.87l-.42-.43v-1.07c.06-2.55,0-3.81-.77-4.59a1.29,1.29,0,0,0-2,0,2.5,2.5,0,0,0-.66,1.52l-.7-.27a3.16,3.16,0,0,1,.93-2,2,2,0,0,1,3.06-.08c.94.95,1,2.4,1,4.52l0,.79h0l2.3-2.3.58.58Z" transform="translate(-0.24)"/><path class="cls-6" d="M322.39,303a7.38,7.38,0,0,0,2.24,4.22,7.46,7.46,0,0,0,4.19,2.21l-.54.54a7.18,7.18,0,0,1-4.24-2.16,7.38,7.38,0,0,1-2.19-4.26Z" transform="translate(-0.24)"/><path class="cls-6" d="M332.43,303.39a7.16,7.16,0,0,1-1.34,1.92,3.52,3.52,0,0,1-5.41.05,3.78,3.78,0,0,1,.13-5.63,4.57,4.57,0,0,1,1.57-1.07l.4.72a3.94,3.94,0,0,0-1.41.95,2.8,2.8,0,0,0,0,4.27,2.75,2.75,0,0,0,4.19.1,3.13,3.13,0,0,0,.77-1.06l-1.58-1.59-1.08,1.08-.55-.55,1.75-1.75Z" transform="translate(-0.24)"/><path class="cls-6" d="M331.07,300c-.45-.45-.85-.82-1.23-1.16l.61-.6.77.72,0,0a1.62,1.62,0,0,1,.21-1.89,1.21,1.21,0,0,1,.23-.18l.65.66a1.5,1.5,0,0,0-.26.21,1.38,1.38,0,0,0,0,1.82,4.16,4.16,0,0,0,.29.36l2,2-.69.69Z" transform="translate(-0.24)"/><path class="cls-6" d="M334.88,297.85a1.72,1.72,0,0,0,2.63,0,3.56,3.56,0,0,0,.86-1.26l.61.38a4.24,4.24,0,0,1-1,1.51,2.51,2.51,0,0,1-3.8-.05,2.63,2.63,0,0,1-.27-3.85,2.3,2.3,0,0,1,3.38.22c.14.14.23.27.3.35Zm1.53-2.53a1.4,1.4,0,0,0-2.09-.17,1.64,1.64,0,0,0,.06,2.2Z" transform="translate(-0.24)"/><path class="cls-6" d="M338.82,293.9a1.74,1.74,0,0,0,2.64,0,3.56,3.56,0,0,0,.86-1.26l.61.38a4.24,4.24,0,0,1-1,1.51,2.51,2.51,0,0,1-3.8-.05,2.63,2.63,0,0,1-.27-3.85,2.3,2.3,0,0,1,3.38.22c.14.14.23.27.3.35Zm1.54-2.53a1.4,1.4,0,0,0-2.09-.17,1.63,1.63,0,0,0,.07,2.2Z" transform="translate(-0.24)"/><path class="cls-6" d="M341.39,289.34c-.4-.4-.73-.71-1.07-1l.62-.61.67.59h0a2,2,0,0,1,.55-2c.53-.53,1.66-1,3,.27l2.28,2.28-.69.69-2.2-2.2c-.62-.61-1.36-.89-2-.24a1.42,1.42,0,0,0-.22,1.64,1.5,1.5,0,0,0,.28.37l2.3,2.3-.7.69Z" transform="translate(-0.24)"/><path class="cls-6" d="M347.43,283.29c-.39-.4-.72-.71-1.06-1l.61-.62.68.59h0a2,2,0,0,1,.54-2c.53-.53,1.67-1,3,.27l2.28,2.28-.7.7-2.2-2.2c-.61-.62-1.35-.9-2-.25a1.39,1.39,0,0,0-.22,1.64,1.34,1.34,0,0,0,.28.37l2.29,2.3-.69.69Z" transform="translate(-0.24)"/><path class="cls-6" d="M356.11,276.3a2.64,2.64,0,0,1,.12,3.93,2.57,2.57,0,0,1-3.79-.13,2.63,2.63,0,0,1-.13-3.92A2.55,2.55,0,0,1,356.11,276.3Zm-3,3.07a1.69,1.69,0,1,0-.31-2.66A1.84,1.84,0,0,0,353.12,279.37Z" transform="translate(-0.24)"/><path class="cls-6" d="M356.14,274.58c-.4-.39-.73-.7-1.07-1l.62-.61.67.59,0,0a2,2,0,0,1,.54-2c.53-.53,1.66-1,3,.28l2.28,2.28-.69.69-2.2-2.2c-.62-.61-1.36-.9-2-.24a1.39,1.39,0,0,0-.22,1.64,1.24,1.24,0,0,0,.27.37l2.3,2.29-.7.7Z" transform="translate(-0.24)"/><path class="cls-6" d="M362.49,272.38a2.67,2.67,0,0,0,1.2-.64c.5-.51.48-1,.17-1.31s-.71-.32-1.41,0c-.93.44-1.63.38-2.09-.07a1.66,1.66,0,0,1,.19-2.44,2.62,2.62,0,0,1,1.18-.7l.33.68a2.06,2.06,0,0,0-1,.55.8.8,0,0,0-.12,1.17c.32.31.69.22,1.37-.09.92-.41,1.59-.41,2.16.16s.62,1.66-.29,2.57a3.13,3.13,0,0,1-1.33.81Z" transform="translate(-0.24)"/><path class="cls-6" d="M368.57,265.63c.4.4.75.74,1.08,1l-.62.62-.66-.59,0,0a2,2,0,0,1-.55,2c-.6.6-1.65,1-3-.35l-2.23-2.23.69-.7,2.12,2.12c.72.72,1.43,1,2.07.36a1.44,1.44,0,0,0,.28-1.55,1.59,1.59,0,0,0-.29-.42l-2.35-2.34.7-.69Z" transform="translate(-0.24)"/><path class="cls-6" d="M365.17,259.93l.69-.7,5.6,5.6-.69.7Z" transform="translate(-0.24)"/><path class="cls-6" d="M372.7,263.59l-3.29-3.29-.54.54-.53-.53.54-.53-.18-.19a2.49,2.49,0,0,1-.89-1.77,1.93,1.93,0,0,1,.57-1.29,2.46,2.46,0,0,1,.71-.48l.44.63a1.55,1.55,0,0,0-.53.36c-.59.59-.22,1.26.36,1.84l.21.21.92-.92.53.53-.92.92,3.28,3.29Z" transform="translate(-0.24)"/><path class="cls-6" d="M377.08,257.13c.4.39.75.73,1.08,1l-.62.61-.66-.58h0a2,2,0,0,1-.55,2c-.6.59-1.65,1-3-.36l-2.23-2.23.69-.7L373.9,259c.72.72,1.43,1,2.06.36a1.42,1.42,0,0,0,.29-1.55,1.61,1.61,0,0,0-.29-.41L373.61,255l.7-.69Z" transform="translate(-0.24)"/><path class="cls-6" d="M376.65,254.39c-.45-.45-.85-.83-1.23-1.16l.61-.61.78.73,0,0a1.48,1.48,0,0,1,.44-2.07l.65.66a2,2,0,0,0-.26.21,1.38,1.38,0,0,0,0,1.82,4.16,4.16,0,0,0,.29.36l2,2-.69.69Z" transform="translate(-0.24)"/><path class="cls-6" d="M383.49,252.8c-.24-.28-.61-.68-.95-1l-4.62-4.61.69-.69,2.4,2.4v0a2,2,0,0,1,.6-2c.95-1,2.41-.83,3.56.34,1.36,1.36,1.18,2.9.33,3.75a1.9,1.9,0,0,1-2,.56l0,0,.6.66Zm-.81-2.25a1.79,1.79,0,0,0,.28.22,1.51,1.51,0,0,0,1.86-.23c.72-.72.56-1.75-.31-2.62a1.74,1.74,0,0,0-2.55-.29,1.63,1.63,0,0,0,0,2.23Z" transform="translate(-0.24)"/><path class="cls-6" d="M390.12,246.17l-.53-.43,0,0a2,2,0,0,1-.6,1.74,1.54,1.54,0,0,1-2.26.07c-.92-.92-.61-2.25.88-3.71l-.08-.08a1.11,1.11,0,0,0-1.75,0A2.65,2.65,0,0,0,385,245l-.62-.3a3.36,3.36,0,0,1,.92-1.59,1.91,1.91,0,0,1,3,.11l1.43,1.42a8,8,0,0,0,1,.86Zm-2.05-1.85c-.77.74-1.5,1.74-.75,2.48a.86.86,0,0,0,1.31,0,1.34,1.34,0,0,0,.29-1.56,1.06,1.06,0,0,0-.18-.27Z" transform="translate(-0.24)"/><path class="cls-6" d="M394.39,241.62a3.6,3.6,0,0,1-.88,1.31,2.55,2.55,0,0,1-3.84,0,2.74,2.74,0,0,1,0-4.08,3.33,3.33,0,0,1,1.16-.77l.38.7a2.26,2.26,0,0,0-1,.62,2,2,0,0,0,2.85,2.9,2.9,2.9,0,0,0,.66-1Z" transform="translate(-0.24)"/><path class="cls-6" d="M391.27,235.2l1.09,1.09,1-1,.52.53-1,1,2.06,2.06c.47.48.87.61,1.26.22a2.57,2.57,0,0,0,.36-.45l.55.49a2.4,2.4,0,0,1-.52.71,1.37,1.37,0,0,1-1,.46,2,2,0,0,1-1.27-.73l-2.08-2.08-.59.59-.53-.53.59-.59-.91-.91Z" transform="translate(-0.24)"/><path class="cls-6" d="M396.56,236.17a1.73,1.73,0,0,0,2.63,0,3.56,3.56,0,0,0,.86-1.26l.62.38a4.54,4.54,0,0,1-1,1.51,2.51,2.51,0,0,1-3.8,0,2.63,2.63,0,0,1-.27-3.85,2.29,2.29,0,0,1,3.38.22,3.19,3.19,0,0,1,.3.35Zm1.53-2.53a1.4,1.4,0,0,0-2.09-.17,1.63,1.63,0,0,0,.07,2.2Z" transform="translate(-0.24)"/><path class="cls-6" d="M399.28,231.76c-.45-.45-.85-.83-1.23-1.16l.61-.6.78.72,0,0a1.6,1.6,0,0,1,.22-1.89,1.16,1.16,0,0,1,.22-.18l.65.66a2,2,0,0,0-.26.21,1.38,1.38,0,0,0,0,1.82,4.16,4.16,0,0,0,.29.36l2,2-.69.69Z" transform="translate(-0.24)"/><path class="cls-6" d="M400.37,226.15a.57.57,0,0,1,0,.86.59.59,0,0,1-.85,0,.61.61,0,0,1,0-.87A.59.59,0,0,1,400.37,226.15Zm4.11,5.66L400.66,228l.7-.69,3.82,3.82Z" transform="translate(-0.24)"/><path class="cls-6" d="M408.44,227.85l-.54-.43,0,0a2,2,0,0,1-.6,1.73,1.52,1.52,0,0,1-2.26.07c-.92-.92-.61-2.24.87-3.71l-.08-.08a1.12,1.12,0,0,0-1.75,0,2.74,2.74,0,0,0-.71,1.27l-.61-.3a3.33,3.33,0,0,1,.91-1.59,1.92,1.92,0,0,1,3,.11l1.42,1.43a7.89,7.89,0,0,0,1,.85ZM406.39,226c-.77.74-1.5,1.73-.76,2.47a.88.88,0,0,0,1.32,0,1.32,1.32,0,0,0,.28-1.56.81.81,0,0,0-.18-.26Z" transform="translate(-0.24)"/><path class="cls-6" d="M410.66,227.54a7.54,7.54,0,0,0-2.23-4.22,7.4,7.4,0,0,0-4.19-2.21l.53-.54a7.11,7.11,0,0,1,4.24,2.18A7.28,7.28,0,0,1,411.2,227Z" transform="translate(-0.24)"/><path class="cls-6" d="M196.33,262.24a9.91,9.91,0,0,1,1.15-1.36,3,3,0,0,1,1.84-1.07,1.54,1.54,0,0,1,1.38.49,1.79,1.79,0,0,1,.27,2.07h0a2,2,0,0,1,2.43.24,2.05,2.05,0,0,1,.61,1.52,3.75,3.75,0,0,1-1.34,2.33,10.46,10.46,0,0,1-1.13,1Zm2.87,1.49.62-.62c.72-.73.77-1.53.26-2s-1.34-.4-2,.3a4.7,4.7,0,0,0-.56.65Zm2.54,2.55a4.91,4.91,0,0,0,.61-.54c.71-.71,1.11-1.63.33-2.4s-1.65-.4-2.4.35l-.56.56Z" transform="translate(-0.24)"/><path class="cls-6" d="M207.94,261.12l-.54-.42,0,0a2,2,0,0,1-.6,1.74,1.54,1.54,0,0,1-2.26.07c-.92-.92-.61-2.25.87-3.72l-.08-.08a1.12,1.12,0,0,0-1.75,0,2.72,2.72,0,0,0-.71,1.28l-.61-.3a3.36,3.36,0,0,1,.91-1.6,1.93,1.93,0,0,1,3,.11l1.42,1.43a7.89,7.89,0,0,0,1,.85Zm-2.05-1.84c-.77.74-1.5,1.73-.76,2.48a.87.87,0,0,0,1.32,0,1.32,1.32,0,0,0,.28-1.56.93.93,0,0,0-.18-.26Z" transform="translate(-0.24)"/><path class="cls-6" d="M212.21,256.57a3.67,3.67,0,0,1-.88,1.32,2.57,2.57,0,0,1-3.85-.05,2.74,2.74,0,0,1,0-4.07,3.33,3.33,0,0,1,1.16-.77l.37.7a2.24,2.24,0,0,0-1,.62,2,2,0,0,0,2.85,2.89,2.75,2.75,0,0,0,.66-1Z" transform="translate(-0.24)"/><path class="cls-6" d="M209.08,250.16l1.1,1.09,1-1,.53.53-1,1,2.06,2.06c.47.47.87.61,1.26.22a2,2,0,0,0,.35-.45l.56.49a2.47,2.47,0,0,1-.53.71,1.37,1.37,0,0,1-1,.46,2,2,0,0,1-1.26-.73L210,252.46l-.59.59-.53-.53.59-.59-.91-.92Z" transform="translate(-0.24)"/><path class="cls-6" d="M214.37,251.13a1.73,1.73,0,0,0,2.64,0,3.45,3.45,0,0,0,.86-1.25l.61.38a4.23,4.23,0,0,1-1,1.5,2.5,2.5,0,0,1-3.8,0c-1.15-1.16-1.38-2.74-.27-3.85a2.29,2.29,0,0,1,3.38.22c.14.14.23.27.3.35Zm1.54-2.54a1.4,1.4,0,0,0-2.09-.16,1.62,1.62,0,0,0,.07,2.19Z" transform="translate(-0.24)"/><path class="cls-6" d="M217.09,246.72c-.45-.45-.84-.83-1.22-1.16l.61-.61.77.73,0,0a1.64,1.64,0,0,1,.22-1.9,1.46,1.46,0,0,1,.22-.17l.66.65a1.27,1.27,0,0,0-.26.22,1.37,1.37,0,0,0,0,1.82,2.24,2.24,0,0,0,.29.35l2,2-.69.68Z" transform="translate(-0.24)"/><path class="cls-6" d="M223.81,241.37a2.64,2.64,0,0,1,.13,3.93,2.57,2.57,0,0,1-3.79-.13,2.63,2.63,0,0,1-.14-3.92A2.56,2.56,0,0,1,223.81,241.37Zm-3,3.07a1.69,1.69,0,1,0-.3-2.66A1.84,1.84,0,0,0,220.82,244.44Z" transform="translate(-0.24)"/><path class="cls-6" d="M222.51,236.77a.58.58,0,0,1,0,.87.57.57,0,0,1-.84,0,.59.59,0,0,1,0-.86A.59.59,0,0,1,222.51,236.77Zm4.12,5.67-3.82-3.82.69-.69,3.82,3.81Z" transform="translate(-0.24)"/><path class="cls-6" d="M226.17,231.7l4.61,4.61c.34.34.74.72,1,.95l-.62.63-.7-.63h0a2,2,0,0,1-.55,2,2.47,2.47,0,0,1-3.58-.3c-1.27-1.27-1.27-2.84-.34-3.77a1.8,1.8,0,0,1,1.74-.56v0l-2.28-2.28Zm2.64,4a1.59,1.59,0,0,0-.32-.26,1.45,1.45,0,0,0-1.81.19c-.72.72-.51,1.78.33,2.62s1.79,1,2.54.29a1.47,1.47,0,0,0,.19-1.85,1.63,1.63,0,0,0-.27-.33Z" transform="translate(-0.24)"/><path class="cls-6" d="M231.52,234a1.73,1.73,0,0,0,2.64,0,3.45,3.45,0,0,0,.86-1.25l.61.38a4.23,4.23,0,0,1-1,1.5,2.5,2.5,0,0,1-3.8,0c-1.15-1.16-1.38-2.74-.27-3.85a2.29,2.29,0,0,1,3.38.22c.14.14.23.27.3.35Zm1.54-2.53a1.4,1.4,0,0,0-2.09-.17,1.62,1.62,0,0,0,.07,2.19Z" transform="translate(-0.24)"/><path class="cls-6" d="M232.79,226.45l1.1,1.09,1-1,.53.53-1,1,2.06,2.06c.47.47.87.61,1.26.22a2,2,0,0,0,.35-.45l.55.49a2.23,2.23,0,0,1-.52.71,1.37,1.37,0,0,1-1,.46,2,2,0,0,1-1.26-.73l-2.08-2.08-.59.59-.53-.53.59-.59-.92-.91Z" transform="translate(-0.24)"/><path class="cls-6" d="M238.08,227.42a1.73,1.73,0,0,0,2.64,0,3.58,3.58,0,0,0,.86-1.25l.61.38a4.23,4.23,0,0,1-1,1.5,2.5,2.5,0,0,1-3.8,0c-1.15-1.16-1.38-2.74-.27-3.85a2.28,2.28,0,0,1,3.37.22,3.54,3.54,0,0,1,.31.35Zm1.54-2.54a1.4,1.4,0,0,0-2.09-.16,1.63,1.63,0,0,0,.06,2.19Z" transform="translate(-0.24)"/><path class="cls-6" d="M242.63,225a2.59,2.59,0,0,0,1.19-.64c.5-.5.48-1,.17-1.31s-.71-.31-1.41,0c-.93.44-1.63.39-2.09-.07a1.67,1.67,0,0,1,.2-2.44,2.73,2.73,0,0,1,1.17-.7l.33.68a2,2,0,0,0-1,.56.79.79,0,0,0-.12,1.16c.32.31.69.23,1.37-.08.92-.41,1.59-.42,2.16.15s.62,1.66-.29,2.57a3,3,0,0,1-1.33.81Z" transform="translate(-0.24)"/><path class="cls-6" d="M74.49,154.24h0l-1.26.68-.19-.74,1.59-.85h.83v7.25h-1Z" transform="translate(-0.24)"/><path class="cls-6" d="M82.9,156.88c0,2.46-.91,3.82-2.52,3.82C79,160.7,78,159.37,78,157s1-3.77,2.52-3.77S82.9,154.57,82.9,156.88ZM79,157c0,1.88.58,2.95,1.48,2.95s1.48-1.17,1.48-3-.46-3-1.47-3S79,155,79,157Z" transform="translate(-0.24)"/><path class="cls-6" d="M82.41,183H79.64l-.28,1.87a3.12,3.12,0,0,1,.6-.05,3.06,3.06,0,0,1,1.56.39,2.07,2.07,0,0,1,1,1.87,2.51,2.51,0,0,1-2.7,2.47,3.55,3.55,0,0,1-1.8-.44l.24-.75a3.25,3.25,0,0,0,1.55.4,1.6,1.6,0,0,0,1.72-1.57c0-.94-.63-1.61-2.08-1.61a8.11,8.11,0,0,0-1,.08l.47-3.48h3.47Z" transform="translate(-0.24)"/><path class="cls-6" d="M82.9,214.56c0,2.46-.91,3.82-2.52,3.82-1.42,0-2.38-1.32-2.4-3.72s1-3.77,2.52-3.77S82.9,212.25,82.9,214.56Zm-3.94.11c0,1.88.58,3,1.48,3s1.48-1.18,1.48-3-.46-2.95-1.47-2.95S79,212.69,79,214.67Z" transform="translate(-0.24)"/><path class="cls-6" d="M72.6,44.09a3.25,3.25,0,0,0,1.6.45c1.26,0,1.65-.8,1.64-1.4,0-1-.92-1.45-1.87-1.45h-.55V41H74c.71,0,1.62-.37,1.62-1.22,0-.58-.37-1.1-1.27-1.1a2.68,2.68,0,0,0-1.45.48l-.26-.71a3.42,3.42,0,0,1,1.89-.56c1.43,0,2.08.85,2.08,1.73a1.81,1.81,0,0,1-1.34,1.71v0a1.9,1.9,0,0,1,1.62,1.86c0,1.16-.9,2.18-2.65,2.18a3.73,3.73,0,0,1-1.88-.49Z" transform="translate(-0.24)"/><path class="cls-6" d="M82.9,41.51c0,2.47-.91,3.83-2.52,3.83C79,45.34,78,44,78,41.61s1-3.77,2.52-3.77S82.9,39.2,82.9,41.51ZM79,41.62c0,1.89.58,3,1.48,3s1.48-1.17,1.48-3-.46-3-1.47-3S79,39.65,79,41.62Z" transform="translate(-0.24)"/><path class="cls-6" d="M72.6,15.25a3.36,3.36,0,0,0,1.6.45c1.26,0,1.65-.8,1.64-1.4,0-1-.92-1.45-1.87-1.45h-.55v-.74H74c.71,0,1.62-.37,1.62-1.22,0-.58-.37-1.1-1.27-1.1a2.68,2.68,0,0,0-1.45.48l-.26-.71A3.42,3.42,0,0,1,74.5,9c1.43,0,2.08.85,2.08,1.73a1.81,1.81,0,0,1-1.34,1.71v0a1.9,1.9,0,0,1,1.62,1.86c0,1.16-.9,2.18-2.65,2.18a3.62,3.62,0,0,1-1.88-.5Z" transform="translate(-0.24)"/><path class="cls-6" d="M82.41,10H79.65l-.28,1.86a4.18,4.18,0,0,1,.59,0,3,3,0,0,1,1.56.39,2.05,2.05,0,0,1,1,1.86,2.52,2.52,0,0,1-2.7,2.48,3.58,3.58,0,0,1-1.81-.45l.25-.75a3.22,3.22,0,0,0,1.55.4,1.59,1.59,0,0,0,1.71-1.57c0-.94-.63-1.61-2.08-1.61a8.11,8.11,0,0,0-1,.08l.47-3.48h3.47Z" transform="translate(-0.24)"/><path class="cls-6" d="M72.36,74.05v-.6l.77-.74c1.85-1.77,2.69-2.7,2.7-3.8a1.29,1.29,0,0,0-1.44-1.41,2.47,2.47,0,0,0-1.54.61l-.31-.69a3.15,3.15,0,0,1,2-.74,2,2,0,0,1,2.22,2.11c0,1.34-1,2.42-2.5,3.89l-.58.54v0H77v.81Z" transform="translate(-0.24)"/><path class="cls-6" d="M82.41,67.63H79.64l-.28,1.86a4.47,4.47,0,0,1,.6,0,3.06,3.06,0,0,1,1.56.39,2.06,2.06,0,0,1,1,1.86,2.51,2.51,0,0,1-2.7,2.48,3.54,3.54,0,0,1-1.8-.45l.24-.75a3.24,3.24,0,0,0,1.55.41,1.61,1.61,0,0,0,1.72-1.58c0-.93-.63-1.6-2.08-1.6a8.38,8.38,0,0,0-1,.07l.47-3.48h3.47Z" transform="translate(-0.24)"/><path class="cls-6" d="M72.36,102.9v-.61l.77-.74c1.85-1.77,2.69-2.7,2.7-3.8a1.29,1.29,0,0,0-1.44-1.41,2.47,2.47,0,0,0-1.54.61l-.31-.69a3.15,3.15,0,0,1,2-.74,2,2,0,0,1,2.22,2.11c0,1.34-1,2.42-2.5,3.89l-.58.54v0H77v.82Z" transform="translate(-0.24)"/><path class="cls-6" d="M82.9,99.19c0,2.47-.91,3.83-2.52,3.83C79,103,78,101.69,78,99.29s1-3.77,2.52-3.77S82.9,96.88,82.9,99.19ZM79,99.3c0,1.89.58,3,1.48,3s1.48-1.17,1.48-3-.46-3-1.47-3S79,97.33,79,99.3Z" transform="translate(-0.24)"/><path class="cls-6" d="M74.49,125.4h0l-1.26.68-.19-.75,1.58-.84h.84v7.25h-1Z" transform="translate(-0.24)"/><path class="cls-6" d="M82.41,125.31H79.64l-.28,1.87a3.12,3.12,0,0,1,.6-.05,3.06,3.06,0,0,1,1.56.39,2.06,2.06,0,0,1,1,1.86,2.51,2.51,0,0,1-2.7,2.48,3.44,3.44,0,0,1-1.8-.45l.24-.74a3.37,3.37,0,0,0,1.55.4,1.6,1.6,0,0,0,1.72-1.57c0-.94-.63-1.61-2.08-1.61a6.55,6.55,0,0,0-1,.08l.47-3.48h3.47Z" transform="translate(-0.24)"/><path class="cls-6" d="M183.56,310.15a3.45,3.45,0,0,0,1.58-.88c.7-.71.74-1.49.21-2s-1.07-.5-2.06-.06c-1.18.56-2.16.65-2.91-.1a2.16,2.16,0,0,1,.27-3.16,3.4,3.4,0,0,1,1.44-.92l.37.75a3,3,0,0,0-1.26.76,1.22,1.22,0,0,0-.21,1.8c.5.49,1.07.41,2.09,0,1.24-.55,2.13-.57,2.91.21s.93,2.14-.33,3.39a4,4,0,0,1-1.69,1Z" transform="translate(-0.24)"/><path class="cls-6" d="M187.57,304.47l1.12,2.23-.71.71-3.51-7.13.83-.82,7.13,3.5-.73.73-2.24-1.1Zm1.21-2.28-2.05-1c-.47-.23-.86-.46-1.25-.69h0c.24.4.48.81.7,1.24l1,2.05Z" transform="translate(-0.24)"/><path class="cls-6" d="M188,296.93a11,11,0,0,1,1.21-1.42,3,3,0,0,1,2-1.11,1.87,1.87,0,0,1,1.43.59,2,2,0,0,1,.35,2.36l0,0a1.85,1.85,0,0,1,1.85.29,12,12,0,0,0,1.87,1l-.71.71a9.34,9.34,0,0,1-1.62-.91c-.89-.58-1.46-.57-2.1,0l-.65.65,2.3,2.3-.68.69Zm3.11,1.74.7-.7a1.47,1.47,0,0,0,.19-2.21c-.68-.69-1.48-.49-2.21.23a3.8,3.8,0,0,0-.62.74Z" transform="translate(-0.24)"/><path class="cls-6" d="M196.57,297.22a3.24,3.24,0,0,0,1.46-.81,1.42,1.42,0,0,0,.17-2.16c-.73-.71-1.68-.37-2.35.3l-.39.39-.52-.52.39-.39a1.44,1.44,0,0,0,.27-2,1.09,1.09,0,0,0-1.67.13,2.61,2.61,0,0,0-.68,1.36l-.69-.32a3.38,3.38,0,0,1,.95-1.74,1.76,1.76,0,0,1,3,1.91v0a1.88,1.88,0,0,1,2.46.17c.82.82.9,2.18-.33,3.41a3.62,3.62,0,0,1-1.68,1Z" transform="translate(-0.24)"/><path class="cls-6" d="M201.25,294.14l-.43-.43,0-1.07c.06-2.56,0-3.81-.77-4.59a1.3,1.3,0,0,0-2,0,2.47,2.47,0,0,0-.66,1.52l-.71-.26a3.24,3.24,0,0,1,.93-2,2,2,0,0,1,3.06-.07c1,.94,1,2.39,1,4.52l0,.78,0,0,2.3-2.3.57.57Z" transform="translate(-0.24)"/><path class="cls-6" d="M207.44,288l-1.4-1.4-2.38,2.38-.45-.46-1-5.56.75-.75,3.18,3.19.72-.72.55.55-.72.71,1.4,1.4ZM205.5,286l-1.71-1.71c-.27-.26-.53-.54-.78-.82l0,0c.15.46.24.8.34,1.18l.48,3h0Z" transform="translate(-0.24)"/><path class="cls-6" d="M207.27,277.17a7.3,7.3,0,0,0,2.23,4.22,7.46,7.46,0,0,0,4.19,2.21l-.54.55a7.29,7.29,0,0,1-4.24-2.17,7.41,7.41,0,0,1-2.19-4.26Z" transform="translate(-0.24)"/><path class="cls-6" d="M208.74,277.37a1,1,0,0,1-.35-.92,1.39,1.39,0,0,1,.43-.86,2.1,2.1,0,0,1,.91-.54,2.84,2.84,0,0,1,1-.11,2.71,2.71,0,0,1,1.17.32.1.1,0,0,1,0,.16s-.14.05-.31,0l-.69,0a4.09,4.09,0,0,0-.94.18,2.16,2.16,0,0,0-.84.51c-.31.33-.34.61-.09.85a.43.43,0,0,0,.2.11.84.84,0,0,0,.34,0,11.6,11.6,0,0,0,1.65-.37,4.73,4.73,0,0,1,1.91-.21,2.83,2.83,0,0,1,1.74.82,2.35,2.35,0,0,1,.73,1.53,2.16,2.16,0,0,1-.74,1.69,2,2,0,0,1-1.7.61,2.54,2.54,0,0,1-1.57-.74,1.93,1.93,0,0,1-.64-1.59,2.77,2.77,0,0,1,.61-1.49l-.68.15-.74.14a3,3,0,0,1-.73,0A1.1,1.1,0,0,1,208.74,277.37Zm3.1.19a1,1,0,0,0-.24,1.15,3.22,3.22,0,0,0,.8,1.13,2.53,2.53,0,0,0,1.27.78,1,1,0,0,0,1-.27,1,1,0,0,0,.26-1.16,3.14,3.14,0,0,0-.75-1.08C213.16,277.18,212.4,277,211.84,277.56Z" transform="translate(-0.24)"/><path class="cls-6" d="M216.63,274l.52.52-2,1.94-.51-.51Z" transform="translate(-0.24)"/><path class="cls-6" d="M214.61,270.27a11.15,11.15,0,0,1,1.21-1.41,3.07,3.07,0,0,1,1.93-1.05,2,2,0,0,1,1.58.64,2.25,2.25,0,0,1,.73,1.55,3.11,3.11,0,0,1-1.05,2.21,3.65,3.65,0,0,1-.59.5l2.12,2.13-.68.69Zm3.25,1.88a3.5,3.5,0,0,0,.62-.51,1.61,1.61,0,0,0,.2-2.47c-.71-.7-1.54-.54-2.3.21a4.16,4.16,0,0,0-.59.71Z" transform="translate(-0.24)"/><path class="cls-6" d="M221.4,268.73c-.45-.45-.84-.83-1.22-1.16l.61-.61.77.73,0,0a1.64,1.64,0,0,1,.22-1.9l.22-.17.66.66a1,1,0,0,0-.26.21,1.37,1.37,0,0,0,0,1.82,2.86,2.86,0,0,0,.29.36l2,2-.69.69Z" transform="translate(-0.24)"/><path class="cls-6" d="M228.12,263.38a2.64,2.64,0,0,1,.13,3.93,2.57,2.57,0,0,1-3.79-.13,2.63,2.63,0,0,1-.14-3.92A2.56,2.56,0,0,1,228.12,263.38Zm-3,3.07a1.84,1.84,0,0,0,2.63.31,1.86,1.86,0,0,0-.32-2.64,1.69,1.69,0,1,0-2.31,2.33Z" transform="translate(-0.24)"/><path class="cls-6" d="M226.86,258.7l1.1,1.1,1-1,.53.53-1,1,2.06,2.06c.48.48.88.61,1.26.22a1.87,1.87,0,0,0,.36-.45l.55.49a2.4,2.4,0,0,1-.52.71,1.35,1.35,0,0,1-1,.46,2,2,0,0,1-1.26-.73L227.81,261l-.6.59-.52-.52.59-.6-.92-.91Z" transform="translate(-0.24)"/><path class="cls-6" d="M232.15,259.67a1.74,1.74,0,0,0,2.64,0,3.5,3.5,0,0,0,.85-1.26l.62.38a4.38,4.38,0,0,1-1,1.51,2.52,2.52,0,0,1-3.81-.05,2.62,2.62,0,0,1-.26-3.85,2.28,2.28,0,0,1,3.37.22,3.19,3.19,0,0,1,.3.35Zm1.54-2.53a1.4,1.4,0,0,0-2.09-.17,1.65,1.65,0,0,0,.06,2.2Z" transform="translate(-0.24)"/><path class="cls-6" d="M239,252.49a2.64,2.64,0,0,1,.13,3.93,2.57,2.57,0,0,1-3.8-.13,2.64,2.64,0,0,1-.13-3.92A2.56,2.56,0,0,1,239,252.49Zm-3,3.07a1.69,1.69,0,1,0-.31-2.66A1.84,1.84,0,0,0,236,255.56Z" transform="translate(-0.24)"/><path class="cls-6" d="M241.79,253.59c-.24-.27-.61-.68-.95-1L236.23,248l.68-.69,2.4,2.4h0a2,2,0,0,1,.59-2c1-.94,2.41-.83,3.56.34,1.37,1.37,1.19,2.9.33,3.76a1.92,1.92,0,0,1-2,.56l0,0,.6.66Zm-.81-2.25a2.09,2.09,0,0,0,.29.23,1.53,1.53,0,0,0,1.85-.23c.72-.73.57-1.76-.31-2.63a1.73,1.73,0,0,0-2.55-.28,1.55,1.55,0,0,0-.21,1.9,2.09,2.09,0,0,0,.24.33Z" transform="translate(-0.24)"/><path class="cls-6" d="M248.43,247l-.54-.43,0,0a2,2,0,0,1-.6,1.73,1.53,1.53,0,0,1-2.27.07c-.92-.92-.6-2.24.88-3.71l-.08-.08a1.11,1.11,0,0,0-1.75,0,2.65,2.65,0,0,0-.71,1.28l-.62-.3a3.36,3.36,0,0,1,.92-1.59,1.91,1.91,0,0,1,3,.11l1.43,1.43a7.23,7.23,0,0,0,1,.85Zm-2.05-1.85c-.78.75-1.5,1.74-.76,2.48a.88.88,0,0,0,1.32,0,1.36,1.36,0,0,0,.28-1.56,1,1,0,0,0-.18-.26Z" transform="translate(-0.24)"/><path class="cls-6" d="M252.69,242.41a3.56,3.56,0,0,1-.87,1.32,2.57,2.57,0,0,1-3.85,0,2.75,2.75,0,0,1,0-4.08,3.23,3.23,0,0,1,1.16-.76l.38.69a2.36,2.36,0,0,0-1,.62,1.88,1.88,0,0,0,.1,2.8,1.85,1.85,0,0,0,2.75.1,2.69,2.69,0,0,0,.66-1Z" transform="translate(-0.24)"/><path class="cls-6" d="M249.57,236l1.09,1.1,1-1,.53.53-1,1,2.06,2c.47.48.88.61,1.26.23a3,3,0,0,0,.36-.45l.55.48a2.28,2.28,0,0,1-.52.71,1.32,1.32,0,0,1-1,.46,2,2,0,0,1-1.26-.72l-2.09-2.09-.59.6-.53-.53.6-.59-.92-.92Z" transform="translate(-0.24)"/><path class="cls-6" d="M254.86,237a1.73,1.73,0,0,0,2.63,0,3.56,3.56,0,0,0,.86-1.26l.62.38a4.54,4.54,0,0,1-1,1.51,2.52,2.52,0,0,1-3.81-.05,2.62,2.62,0,0,1-.26-3.85,2.29,2.29,0,0,1,3.37.22,4.53,4.53,0,0,1,.3.35Zm1.54-2.53a1.4,1.4,0,0,0-2.09-.17,1.63,1.63,0,0,0,.06,2.2Z" transform="translate(-0.24)"/><path class="cls-6" d="M257.58,232.55c-.45-.45-.85-.82-1.22-1.15l.6-.61.78.72,0,0a1.6,1.6,0,0,1,.22-1.89.82.82,0,0,1,.22-.17l.65.65-.26.21a1.4,1.4,0,0,0,0,1.83,3,3,0,0,0,.3.35l2,2-.68.69Z" transform="translate(-0.24)"/><path class="cls-6" d="M258.67,226.94a.61.61,0,0,1-.86.86.59.59,0,0,1,0-.87A.58.58,0,0,1,258.67,226.94Zm4.11,5.66L259,228.79l.69-.7,3.82,3.82Z" transform="translate(-0.24)"/><path class="cls-6" d="M266.74,228.64l-.53-.42,0,0a2,2,0,0,1-.6,1.74,1.54,1.54,0,0,1-2.26.07c-.92-.92-.61-2.25.88-3.72l-.08-.08a1.12,1.12,0,0,0-1.75,0,2.56,2.56,0,0,0-.71,1.28l-.62-.3a3.3,3.3,0,0,1,.92-1.6,1.92,1.92,0,0,1,3,.11l1.43,1.43a7.85,7.85,0,0,0,1,.85Zm-2.05-1.84c-.77.74-1.5,1.73-.75,2.48a.86.86,0,0,0,1.31,0,1.34,1.34,0,0,0,.29-1.56,1,1,0,0,0-.19-.26Z" transform="translate(-0.24)"/><path class="cls-6" d="M269,228.33a7.54,7.54,0,0,0-2.23-4.22,7.37,7.37,0,0,0-4.19-2.21l.53-.53a7.11,7.11,0,0,1,4.25,2.17,7.25,7.25,0,0,1,2.18,4.25Z" transform="translate(-0.24)"/></svg>